<?xml version="1.0" encoding="UTF-8" standalone="no"?>
<!-- Created with Inkscape (http://www.inkscape.org/) -->

<svg
   width="47.889584mm"
   height="47.889584mm"
   viewBox="0 0 47.889584 47.889584"
   version="1.1"
   id="svg79060"
   inkscape:version="1.1.2 (b8e25be833, 2022-02-05)"
   sodipodi:docname="circle_grid_leaf.svg"
   xmlns:inkscape="http://www.inkscape.org/namespaces/inkscape"
   xmlns:sodipodi="http://sodipodi.sourceforge.net/DTD/sodipodi-0.dtd"
   xmlns="http://www.w3.org/2000/svg"
   xmlns:svg="http://www.w3.org/2000/svg">
  <sodipodi:namedview
     id="namedview79062"
     pagecolor="#505050"
     bordercolor="#ffffff"
     borderopacity="1"
     inkscape:pageshadow="0"
     inkscape:pageopacity="0"
     inkscape:pagecheckerboard="1"
     inkscape:document-units="mm"
     showgrid="false"
     fit-margin-top="0"
     fit-margin-left="0"
     fit-margin-right="0"
     fit-margin-bottom="0"
     inkscape:zoom="1.8116735"
     inkscape:cx="7.4516739"
     inkscape:cy="200.64322"
     inkscape:window-width="1920"
     inkscape:window-height="1001"
     inkscape:window-x="-9"
     inkscape:window-y="-9"
     inkscape:window-maximized="1"
     inkscape:current-layer="layer1" />
  <defs
     id="defs79057" />
  <g
     inkscape:label="Layer 1"
     inkscape:groupmode="layer"
     id="layer1"
     transform="translate(-129.80593,-172.95099)">
    <g
       id="g81010">
      <g
         opacity="0.25"
         id="g79298"
         transform="matrix(0.26458333,0,0,0.26458333,129.67364,172.8187)"
         style="fill:none">
        <path
           d="m 171.048,132.174 c 0.155,-0.298 0.304,-0.6 0.454,-0.901 l -10.699,6.188 -19.173,-11.086 19.111,-11.047 14.195,8.206 c 0.067,-0.174 0.132,-0.349 0.198,-0.523 l -13.843,-8.004 18.748,-10.84 c 0.05,-0.341 0.097,-0.683 0.143,-1.025 L 161.291,92.218 180.46,81.136 c -0.027,-0.248 -0.056,-0.497 -0.086,-0.745 L 161.295,69.36 175.851,60.94 c -0.062,-0.176 -0.123,-0.353 -0.186,-0.529 l -14.924,8.63 -19.05,-11.014 19.05,-11.013 12.409,7.175 c -0.131,-0.291 -0.267,-0.58 -0.4,-0.87 l -11.459,-6.627 5.991,-3.463 c -0.098,-0.156 -0.194,-0.313 -0.292,-0.468 l -6.249,3.614 -19.216,-11.11 13.314,-7.7 c -0.133,-0.135 -0.268,-0.27 -0.403,-0.404 L 140.972,34.945 121.817,23.871 138.23,14.38 c -0.177,-0.109 -0.353,-0.222 -0.53,-0.331 l -16.436,9.502 -19.045,-11.013 13.837,-7.99899 c -0.247,-0.072 -0.494,-0.143 -0.742,-0.212 L 101.664,12.218 82.899,1.36801 c -0.319,0.028 -0.64,0.052 -0.959,0.085 L 101.111,12.538 82.066,23.551 62.851,12.441 81.839,1.46101 c -0.46,0.047 -0.918,0.103 -1.376,0.157 L 62.3,12.119 55.588,8.24001 c -0.212,0.09 -0.421,0.184 -0.632,0.276 l 6.789,3.92499 -19.213,11.11 -6.54,-3.781 c -0.158,0.122 -0.318,0.241 -0.475,0.364 l 6.461,3.737 -19.152,11.074 -1.525,-0.882 c -0.118,0.145 -0.234,0.292 -0.351,0.437 l 1.323,0.765 -3.486,2.015 c -0.272,0.366 -0.539,0.735 -0.806,1.105 L 22.826,35.584 42.041,46.692 22.932,57.745 10.565,50.594 c -0.083,0.164 -0.164,0.33 -0.246,0.495 L 22.379,58.062 3.755,68.83 c -0.092,0.365 -0.18,0.732 -0.26799,1.099 L 22.273,80.791 3.09,91.881 1.00401,90.676 C 1.00401,90.784 1,90.892 1,91.001 c 0,0.104 0.00401,0.207 0.00401,0.311 L 2.539,92.199 1.027,93.074 c 0.00501,0.209 0.011,0.419 0.01701,0.628 L 3.09,92.519 22.245,103.592 4.008,114.136 c 0.04901,0.186 0.1,0.37 0.15,0.555 L 22.798,103.913 42.015,115.02 22.869,126.092 4.343,115.375 c 0.072,0.255 0.14701,0.509 0.22,0.764 l 17.755,10.271 -11.04,6.382 c 0.086,0.164 0.172,0.328 0.259,0.491 l 11.334,-6.554 19.045,11.016 -19.09,11.037 -1.581,-0.914 c 0.338,0.414 0.682,0.825 1.028,1.233 0.121,0.143 0.24,0.286 0.362,0.429 l 0.191,-0.112 19.215,11.114 -4.708,2.721 c 0.162,0.121 0.326,0.237 0.488,0.355 l 4.771,-2.759 19.155,11.073 -4.425,2.559 c 0.217,0.088 0.432,0.18 0.65,0.266 l 4.328,-2.502 12.684,7.334 c 0.518,0.092 1.039,0.176 1.56,0.26 l -13.693,-7.917 19.084,-11.03 19.179,11.093 -15.325,8.861 c 0.339,0.02 0.678,0.038 1.018,0.054 l 14.859,-8.595 10.637,6.153 c 0.261,-0.064 0.522,-0.125 0.78,-0.191 l -10.864,-6.282 19.164,-11.082 14.278,8.251 c 0.182,-0.105 0.364,-0.213 0.546,-0.32 l -14.273,-8.253 19.168,-11.084 11.807,6.826 c 0.139,-0.133 0.278,-0.266 0.417,-0.399 l -11.671,-6.752 19.148,-11.073 5.032,2.909 c 0.103,-0.153 0.203,-0.308 0.305,-0.463 l -4.784,-2.766 z m -29.97,-6.121 -19.153,-11.074 19.11,-11.047 19.152,11.075 z M 82.453,69.421 101.604,58.345 120.821,69.458 101.666,80.531 Z m 38.26,22.761 -19.109,11.05 L 82.557,92.22 101.666,81.168 Z M 101.114,80.851 82.003,91.899 62.79,80.791 81.9,69.741 Z m -0.061,22.7 L 81.9,114.627 62.851,103.614 82.003,92.536 Z m 0.551,0.321 19.217,11.107 -19.155,11.074 -19.213,-11.108 z m 0.553,-0.319 19.109,-11.05 19.213,11.111 -19.109,11.046 z m 19.662,-11.371 19.153,-11.074 19.215,11.11 -19.154,11.076 z m -0.553,-0.32 -19.047,-11.011 19.155,-11.074 19.047,11.014 z m -19.109,-33.835 19.217,-11.11 19.213,11.11 -19.213,11.109 z m -0.551,-0.321 -19.155,-11.074 19.215,-11.11 19.155,11.075 z M 101.053,58.027 81.9,69.101 62.745,58.027 81.898,46.952 Z M 62.192,57.706 43.145,46.692 62.3,35.619 81.345,46.632 Z M 81.347,69.421 62.237,80.469 43.084,69.395 62.192,58.345 Z M 61.685,80.791 42.534,91.862 23.376,80.791 42.532,69.715 Z M 62.237,81.108 81.451,92.22 62.3,103.294 43.084,92.182 Z M 81.347,114.945 62.168,126.032 43.119,115.02 62.3,103.932 Z M 81.386,137.779 62.231,148.855 43.02,137.747 62.168,126.67 Z M 62.721,126.353 81.9,115.264 l 19.214,11.111 -19.175,11.086 z m 38.945,0.342 19.155,11.073 -19.174,11.087 -19.157,-11.076 z m 0.553,-0.32 19.155,-11.078 19.151,11.078 -19.151,11.072 z m 77.672,-22.761 -19.15,11.071 -19.154,-11.071 19.154,-11.078 z M 160.743,69.678 179.956,80.791 160.741,91.899 141.525,80.791 Z M 160.19,69.36 140.972,80.469 121.925,69.458 141.14,58.345 Z M 160.187,46.692 141.14,57.706 121.925,46.597 140.972,35.584 Z M 140.421,35.265 121.374,46.28 102.219,35.202 121.264,24.188 Z M 101.666,12.858 120.713,23.871 101.666,34.884 82.619,23.871 Z M 101.114,35.202 81.9,46.314 62.851,35.301 82.066,24.188 Z M 62.3,12.758 81.516,23.871 62.3,34.981 43.084,23.871 Z M 23.376,35.265 42.532,24.188 61.747,35.301 42.592,46.375 Z M 42.592,47.014 61.639,58.027 42.532,69.075 23.485,58.062 Z M 3.77901,69.458 22.932,58.384 41.978,69.395 22.826,80.469 Z M 3.64301,92.199 22.826,81.106 41.981,92.182 22.798,103.275 Z M 23.351,103.592 42.534,92.503 61.747,103.614 42.566,114.703 Z m 0.071,22.818 19.144,-11.07 19.049,11.013 -19.148,11.074 z m -0.043,22.691 19.088,-11.037 19.213,11.108 -19.088,11.041 z m 38.921,22.504 -19.155,-11.073 19.086,-11.035 19.15,11.076 z m 0.484,-22.433 19.155,-11.073 19.155,11.073 -19.159,11.08 z m 38.882,22.494 -19.178,-11.091 19.159,-11.08 19.183,11.086 z m 19.714,-11.403 -19.18,-11.091 19.174,-11.084 19.177,11.084 z m 19.722,-11.408 -19.177,-11.087 19.153,-11.073 19.174,11.084 z"
           fill="#218095"
           id="path79296" />
      </g>
      <path
         d="m 153.75072,173.08328 c 13.15138,0 23.8125,10.66112 23.8125,23.8125 0,13.15138 -10.66112,23.8125 -23.8125,23.8125 -13.15138,0 -23.8125,-10.66112 -23.8125,-23.8125 0,-13.15138 10.66112,-23.8125 23.8125,-23.8125 z"
         stroke="#fa741c"
         id="path79580"
         style="fill:none;stroke-width:0.264583" />
    </g>
    <path
       d="m 145.83429,195.22356 c -0.40727,-0.40734 -0.94879,-0.63164 -1.52478,-0.63164 -0.37516,0 -0.73531,0.0957 -1.0537,0.27458 v -7.17992 c 0,-1.18904 -0.9674,-2.15644 -2.15644,-2.15644 -1.18905,0 -2.15644,0.9674 -2.15644,2.15689 l 0.009,10.11892 c 3.7e-4,0.46183 0.17136,1.11369 0.39764,1.51626 0.003,0.007 0.008,0.0131 0.0116,0.0195 l 6.35131,10.28493 c 0.1319,0.24047 0.25077,0.69797 0.25077,0.96761 v 2.01632 c 0,0.30451 0.24687,0.55138 0.55137,0.55138 0.30449,0 0.55137,-0.24687 0.55137,-0.55138 v -2.01616 c 0,-0.4619 -0.17071,-1.11399 -0.39707,-1.51671 -0.003,-0.007 -0.008,-0.0131 -0.0116,-0.0195 l -6.35125,-10.28493 c -0.13196,-0.24061 -0.25113,-0.69832 -0.25135,-0.96812 l -0.009,-10.11849 c 0,-0.581 0.4727,-1.05371 1.0537,-1.05371 0.58099,0 1.05369,0.47271 1.05369,1.05371 v 9.06177 c 0,0.013 0.001,0.0256 0.002,0.0384 0.01,0.53931 0.21899,1.07575 0.62966,1.48641 l 4.93856,4.93856 c 0.21533,0.21533 0.56446,0.21533 0.77971,0 0.21533,-0.21532 0.21533,-0.56444 0,-0.7797 l -4.93857,-4.93857 c -0.199,-0.199 -0.30861,-0.46359 -0.30861,-0.74501 0,-0.28149 0.10961,-0.54607 0.30861,-0.74508 0.41088,-0.4108 1.07929,-0.4108 1.49017,0 l 6.07651,6.07652 c 0.67826,0.67833 1.25132,2.06167 1.25132,3.0209 l -1.6e-4,7.50979 c 0,0.30451 0.24687,0.55137 0.55138,0.55137 0.3045,0 0.55136,-0.24686 0.55136,-0.55137 l 8e-5,-7.50985 c 0,-1.24845 -0.69149,-2.91792 -1.57434,-3.8007 z"
       id="path81092"
       style="fill:#fa741c;fill-opacity:1;stroke:none;stroke-width:0.392;stroke-miterlimit:4;stroke-dasharray:none;stroke-opacity:1" />
    <path
       d="m 166.97338,185.53022 c -1.18904,0 -2.15644,0.96739 -2.15644,2.15644 v 7.17991 c -0.31832,-0.17886 -0.67855,-0.27458 -1.05362,-0.27458 -0.576,0 -1.11751,0.22437 -1.52479,0.63165 l -6.07645,6.07652 c -0.88285,0.8827 -1.57434,2.55217 -1.57434,3.80068 v 7.50978 c 0,0.30451 0.24686,0.55138 0.55137,0.55138 0.30458,0 0.55136,-0.24687 0.55136,-0.55138 l -7e-5,-7.50984 c 0,-0.95924 0.57306,-2.34266 1.25131,-3.02091 l 6.07653,-6.07653 c 0.19899,-0.19901 0.46358,-0.30861 0.745,-0.30861 0.28142,0 0.54601,0.1096 0.74508,0.30869 0.19901,0.19901 0.30855,0.46359 0.30855,0.74501 0,0.28141 -0.10954,0.546 -0.30863,0.74501 l -4.93849,4.93856 c -0.21532,0.21533 -0.21532,0.56446 0,0.77971 0.21548,0.21533 0.56454,0.21518 0.77979,0 l 4.93842,-4.93856 c 0.40735,-0.40728 0.63164,-0.9488 0.63164,-1.52479 v -9.0617 c 0,-0.581 0.47271,-1.05371 1.0537,-1.05371 0.58093,0 1.05363,0.47271 1.05363,1.05319 l -0.009,10.11893 c -2.9e-4,0.26995 -0.11946,0.72759 -0.25142,0.96813 l -6.35125,10.285 c -0.004,0.007 -0.008,0.013 -0.0116,0.0195 -0.22635,0.4028 -0.39705,1.05481 -0.39705,1.51671 v 2.01624 c 0,0.30451 0.2468,0.55137 0.55137,0.55137 0.30457,0 0.55136,-0.24686 0.55136,-0.55137 v -2.01617 c 0,-0.26965 0.11888,-0.72714 0.25076,-0.96761 l 6.35125,-10.28493 c 0.004,-0.007 0.008,-0.0129 0.0115,-0.0194 0.22636,-0.4025 0.39735,-1.05436 0.3978,-1.51633 l 0.009,-10.11944 c 8e-5,-1.18912 -0.96724,-2.15652 -2.15628,-2.15652 z"
       id="path81094"
       style="fill:#fa741c;fill-opacity:1;stroke:none;stroke-width:0.392;stroke-miterlimit:4;stroke-dasharray:none;stroke-opacity:1" />
    <path
       d="m 154.04593,197.96041 c 0.98408,3e-4 1.94177,0.18467 2.84653,0.54806 0.2826,0.11351 0.60371,-0.0236 0.71715,-0.30613 0.11343,-0.28258 -0.0236,-0.60363 -0.30619,-0.71714 -0.91976,-0.36941 -1.88694,-0.57688 -2.87998,-0.61907 -0.31627,-0.90968 -0.11748,-1.39857 0.12975,-1.99942 0.27083,-0.65825 0.60128,-1.46288 0.15637,-2.76727 2.02954,-1.56714 3.22925,-3.98985 3.22925,-6.56657 0,-2.72288 -1.33909,-5.27439 -3.58199,-6.82535 -0.18864,-0.13042 -0.43852,-0.13042 -0.62716,0 -2.24296,1.55103 -3.58198,4.10254 -3.58198,6.82535 0,2.66693 1.2852,5.16889 3.44561,6.72793 0.41258,1.03232 0.20379,1.54552 -0.0599,2.18629 -0.24767,0.60202 -0.54512,1.32667 -0.25378,2.44389 -0.86402,0.0744 -1.70593,0.27501 -2.51137,0.60025 -0.28237,0.11402 -0.41881,0.43536 -0.30479,0.71774 0.0867,0.21473 0.29325,0.34507 0.51145,0.34507 0.0687,0 0.13865,-0.013 0.20627,-0.0402 0.90888,-0.367 1.87136,-0.55313 2.86073,-0.55336 6.6e-4,-6e-5 0.001,0 0.004,-6e-5 z m -2.79536,-12.42762 c 0,-2.23098 1.03722,-4.32956 2.79286,-5.6888 1.75563,1.35917 2.79279,3.45782 2.79279,5.6888 0,1.98603 -0.82249,3.86664 -2.24142,5.21462 v -8.57657 c 0,-0.3045 -0.24679,-0.55137 -0.55137,-0.55137 -0.30451,0 -0.55137,0.24687 -0.55137,0.55137 v 8.57657 c -1.419,-1.34798 -2.24149,-3.22859 -2.24149,-5.21462 z"
       id="path81096"
       style="fill:#2ffa1c;fill-opacity:1;stroke:#fa741c;stroke-width:0.0735157;stroke-opacity:1" />
    <g
       id="g81100"
       style="fill:#fa741c;fill-opacity:1;stroke:#fa741c;stroke-opacity:1"
       transform="matrix(0.06737663,0,0,0.06737663,138.08753,180.96952)" />
    <g
       id="g81102"
       style="fill:#fa741c;fill-opacity:1;stroke:#fa741c;stroke-opacity:1"
       transform="matrix(0.06737663,0,0,0.06737663,138.08753,180.96952)" />
    <g
       id="g81104"
       style="fill:#fa741c;fill-opacity:1;stroke:#fa741c;stroke-opacity:1"
       transform="matrix(0.06737663,0,0,0.06737663,138.08753,180.96952)" />
    <g
       id="g81106"
       style="fill:#fa741c;fill-opacity:1;stroke:#fa741c;stroke-opacity:1"
       transform="matrix(0.06737663,0,0,0.06737663,138.08753,180.96952)" />
    <g
       id="g81108"
       style="fill:#fa741c;fill-opacity:1;stroke:#fa741c;stroke-opacity:1"
       transform="matrix(0.06737663,0,0,0.06737663,138.08753,180.96952)" />
    <g
       id="g81110"
       style="fill:#fa741c;fill-opacity:1;stroke:#fa741c;stroke-opacity:1"
       transform="matrix(0.06737663,0,0,0.06737663,138.08753,180.96952)" />
    <g
       id="g81112"
       style="fill:#fa741c;fill-opacity:1;stroke:#fa741c;stroke-opacity:1"
       transform="matrix(0.06737663,0,0,0.06737663,138.08753,180.96952)" />
    <g
       id="g81114"
       style="fill:#fa741c;fill-opacity:1;stroke:#fa741c;stroke-opacity:1"
       transform="matrix(0.06737663,0,0,0.06737663,138.08753,180.96952)" />
    <g
       id="g81116"
       style="fill:#fa741c;fill-opacity:1;stroke:#fa741c;stroke-opacity:1"
       transform="matrix(0.06737663,0,0,0.06737663,138.08753,180.96952)" />
    <g
       id="g81118"
       style="fill:#fa741c;fill-opacity:1;stroke:#fa741c;stroke-opacity:1"
       transform="matrix(0.06737663,0,0,0.06737663,138.08753,180.96952)" />
    <g
       id="g81120"
       style="fill:#fa741c;fill-opacity:1;stroke:#fa741c;stroke-opacity:1"
       transform="matrix(0.06737663,0,0,0.06737663,138.08753,180.96952)" />
    <g
       id="g81122"
       style="fill:#fa741c;fill-opacity:1;stroke:#fa741c;stroke-opacity:1"
       transform="matrix(0.06737663,0,0,0.06737663,138.08753,180.96952)" />
    <g
       id="g81124"
       style="fill:#fa741c;fill-opacity:1;stroke:#fa741c;stroke-opacity:1"
       transform="matrix(0.06737663,0,0,0.06737663,138.08753,180.96952)" />
    <g
       id="g81126"
       style="fill:#fa741c;fill-opacity:1;stroke:#fa741c;stroke-opacity:1"
       transform="matrix(0.06737663,0,0,0.06737663,138.08753,180.96952)" />
    <g
       id="g81128"
       style="fill:#fa741c;fill-opacity:1;stroke:#fa741c;stroke-opacity:1"
       transform="matrix(0.06737663,0,0,0.06737663,138.08753,180.96952)" />
  </g>
</svg>
