<?xml version="1.0" encoding="UTF-8" standalone="no"?>
<svg
   width="181.22945"
   height="182.10675"
   viewBox="0 0 181.22945 182.10675"
   fill="none"
   version="1.1"
   id="svg78207"
   sodipodi:docname="circle_grid_lock.svg"
   inkscape:version="1.1.2 (b8e25be833, 2022-02-05)"
   xmlns:inkscape="http://www.inkscape.org/namespaces/inkscape"
   xmlns:sodipodi="http://sodipodi.sourceforge.net/DTD/sodipodi-0.dtd"
   xmlns="http://www.w3.org/2000/svg"
   xmlns:svg="http://www.w3.org/2000/svg">
  <defs
     id="defs78211">
    <clipPath
       id="clip0_0_1">
      <rect
         width="336"
         height="175"
         fill="#ffffff"
         transform="translate(0,3.5)"
         id="rect78396"
         x="0"
         y="0" />
    </clipPath>
  </defs>
  <sodipodi:namedview
     id="namedview78209"
     pagecolor="#505050"
     bordercolor="#ffffff"
     borderopacity="1"
     inkscape:pageshadow="0"
     inkscape:pageopacity="0"
     inkscape:pagecheckerboard="1"
     showgrid="false"
     fit-margin-top="0"
     fit-margin-left="0"
     fit-margin-right="0"
     fit-margin-bottom="0"
     inkscape:zoom="0.99861111"
     inkscape:cx="68.595271"
     inkscape:cy="127.67733"
     inkscape:window-width="1920"
     inkscape:window-height="1001"
     inkscape:window-x="-9"
     inkscape:window-y="-9"
     inkscape:window-maximized="1"
     inkscape:current-layer="svg78207" />
  <g
     opacity="0.25"
     id="g78205"
     transform="translate(0,-0.368011)">
    <path
       d="m 170.048,131.174 c 0.155,-0.298 0.304,-0.6 0.454,-0.901 l -10.699,6.188 -19.173,-11.086 19.111,-11.047 14.195,8.206 c 0.067,-0.174 0.132,-0.349 0.198,-0.523 l -13.843,-8.004 18.748,-10.84 c 0.05,-0.341 0.097,-0.683 0.143,-1.025 L 160.291,91.218 179.46,80.136 c -0.027,-0.248 -0.056,-0.497 -0.086,-0.745 L 160.295,68.36 174.851,59.94 c -0.062,-0.176 -0.123,-0.353 -0.186,-0.529 l -14.924,8.63 -19.05,-11.014 19.05,-11.013 12.409,7.175 c -0.131,-0.291 -0.267,-0.58 -0.4,-0.87 l -11.459,-6.627 5.991,-3.463 c -0.098,-0.156 -0.194,-0.313 -0.292,-0.468 l -6.249,3.614 -19.216,-11.11 13.314,-7.7 c -0.133,-0.135 -0.268,-0.27 -0.403,-0.404 L 139.972,33.945 120.817,22.871 137.23,13.38 c -0.177,-0.109 -0.353,-0.222 -0.53,-0.331 l -16.436,9.502 -19.045,-11.013 13.837,-7.99899 c -0.247,-0.072 -0.494,-0.143 -0.742,-0.212 L 100.664,11.218 81.899,0.368011 c -0.319,0.028 -0.64,0.052002 -0.959,0.085 L 100.111,11.538 81.066,22.551 61.851,11.441 80.839,0.461014 c -0.46,0.046997 -0.918,0.102997 -1.376,0.156997 L 61.3,11.119 54.588,7.24001 c -0.212,0.09 -0.421,0.184 -0.632,0.276 l 6.789,3.92499 -19.213,11.11 -6.54,-3.781 c -0.158,0.122 -0.318,0.241 -0.475,0.364 l 6.461,3.737 -19.152,11.074 -1.525,-0.882 c -0.118,0.145 -0.234,0.292 -0.351,0.437 l 1.323,0.765 -3.486,2.015 c -0.272,0.366 -0.539,0.735 -0.806,1.105 L 21.826,34.584 41.041,45.692 21.932,56.745 9.565,49.594 c -0.083,0.164 -0.164,0.33 -0.246,0.495 L 21.379,57.062 2.755,67.83 c -0.092,0.365 -0.18,0.732 -0.26799,1.099 L 21.273,79.791 2.09,90.881 0.00400543,89.676 C 0.00400543,89.784 0,89.892 0,90.001 c 0,0.104 0.00400543,0.207 0.00400543,0.311 L 1.539,91.199 0.0270004,92.074 c 0.0050049,0.209 0.0110016,0.419 0.0170059,0.628 L 2.09,91.519 21.245,102.592 3.008,113.136 c 0.04901,0.186 0.1,0.37 0.15,0.555 L 21.798,102.913 41.015,114.02 21.869,125.092 3.343,114.375 c 0.072,0.255 0.14701,0.509 0.22,0.764 l 17.755,10.271 -11.04,6.382 c 0.086,0.164 0.172,0.328 0.259,0.491 l 11.334,-6.554 19.045,11.016 -19.09,11.037 -1.581,-0.914 c 0.338,0.414 0.682,0.825 1.028,1.233 0.121,0.143 0.24,0.286 0.362,0.429 l 0.191,-0.112 19.215,11.114 -4.708,2.721 c 0.162,0.121 0.326,0.237 0.488,0.355 l 4.771,-2.759 19.155,11.073 -4.425,2.559 c 0.217,0.088 0.432,0.18 0.65,0.266 l 4.328,-2.502 12.684,7.334 c 0.518,0.092 1.039,0.176 1.56,0.26 l -13.693,-7.917 19.084,-11.03 19.179,11.093 -15.325,8.861 c 0.339,0.02 0.678,0.038 1.018,0.054 l 14.859,-8.595 10.637,6.153 c 0.261,-0.064 0.522,-0.125 0.78,-0.191 l -10.864,-6.282 19.164,-11.082 14.278,8.251 c 0.182,-0.105 0.364,-0.213 0.546,-0.32 l -14.273,-8.253 19.168,-11.084 11.807,6.826 c 0.139,-0.133 0.278,-0.266 0.417,-0.399 l -11.671,-6.752 19.148,-11.073 5.032,2.909 c 0.103,-0.153 0.203,-0.308 0.305,-0.463 l -4.784,-2.766 z m -29.97,-6.121 -19.153,-11.074 19.11,-11.047 19.152,11.075 z M 81.453,68.421 100.604,57.345 119.821,68.458 100.666,79.531 Z m 38.26,22.761 -19.109,11.05 L 81.557,91.22 100.666,80.168 Z M 100.114,79.851 81.003,90.899 61.79,79.791 80.9,68.741 Z m -0.061,22.7 L 80.9,113.627 61.851,102.614 81.003,91.536 Z m 0.551,0.321 19.217,11.107 -19.155,11.074 -19.213,-11.108 z m 0.553,-0.319 19.109,-11.05 19.213,11.111 -19.109,11.046 z m 19.662,-11.371 19.153,-11.074 19.215,11.11 -19.154,11.076 z m -0.553,-0.32 -19.047,-11.011 19.155,-11.074 19.047,11.014 z m -19.109,-33.835 19.217,-11.11 19.213,11.11 -19.213,11.109 z m -0.551,-0.321 -19.155,-11.074 19.215,-11.11 19.155,11.075 z M 100.053,57.027 80.9,68.101 61.745,57.027 80.898,45.952 Z M 61.192,56.706 42.145,45.692 61.3,34.619 80.345,45.632 Z M 80.347,68.421 61.237,79.469 42.084,68.395 61.192,57.345 Z M 60.685,79.791 41.534,90.862 22.376,79.791 41.532,68.715 Z M 61.237,80.108 80.451,91.22 61.3,102.294 42.084,91.182 Z M 80.347,113.945 61.168,125.032 42.119,114.02 61.3,102.932 Z M 80.386,136.779 61.231,147.855 42.02,136.747 61.168,125.67 Z M 61.721,125.353 80.9,114.264 l 19.214,11.111 -19.175,11.086 z m 38.945,0.342 19.155,11.073 -19.174,11.087 -19.157,-11.076 z m 0.553,-0.32 19.155,-11.078 19.151,11.078 -19.151,11.072 z m 77.672,-22.761 -19.15,11.071 -19.154,-11.071 19.154,-11.078 z M 159.743,68.678 178.956,79.791 159.741,90.899 140.525,79.791 Z M 159.19,68.36 139.972,79.469 120.925,68.458 140.14,57.345 Z M 159.187,45.692 140.14,56.706 120.925,45.597 139.972,34.584 Z M 139.421,34.265 120.374,45.28 101.219,34.202 120.264,23.188 Z M 100.666,11.858 119.713,22.871 100.666,33.884 81.619,22.871 Z M 100.114,34.202 80.9,45.314 61.851,34.301 81.066,23.188 Z M 61.3,11.758 80.516,22.871 61.3,33.981 42.084,22.871 Z M 22.376,34.265 41.532,23.188 60.747,34.301 41.592,45.375 Z M 41.592,46.014 60.639,57.027 41.532,68.075 22.485,57.062 Z M 2.77901,68.458 21.932,57.384 40.978,68.395 21.826,79.469 Z M 2.64301,91.199 21.826,80.106 40.981,91.182 21.798,102.275 Z M 22.351,102.592 41.534,91.503 60.747,102.614 41.566,113.703 Z m 0.071,22.818 19.144,-11.07 19.049,11.013 -19.148,11.074 z m -0.043,22.691 19.088,-11.037 19.213,11.108 -19.088,11.041 z m 38.921,22.504 -19.155,-11.073 19.086,-11.035 19.15,11.076 z m 0.484,-22.433 19.155,-11.073 19.155,11.073 -19.159,11.08 z m 38.882,22.494 -19.178,-11.091 19.159,-11.08 19.183,11.086 z m 19.714,-11.403 -19.18,-11.091 19.174,-11.084 19.177,11.084 z m 19.722,-11.408 -19.177,-11.087 19.153,-11.073 19.174,11.084 z"
       fill="#218095"
       id="path78203" />
  </g>
  <rect
     width="182"
     height="182"
     fill="#e5e5e5"
     id="rect78270"
     x="-179.22101"
     y="68.089989"
     style="fill:none" />
  <path
     d="m 90.729436,1.6067474 c 49.706004,0 90.000004,40.2940006 90.000004,90.0000016 0,49.706001 -40.294,90.000001 -90.000004,90.000001 -49.706001,0 -90.000002,-40.294 -90.000002,-90.000001 0,-49.706001 40.294001,-90.0000016 90.000002,-90.0000016 z"
     stroke="#fa741c"
     id="path78272"
     style="fill:none" />
  <g
     opacity="0.25"
     id="g79298"
     transform="translate(234.45202,23.158553)"
     style="fill:none">
    <path
       d="m 171.048,132.174 c 0.155,-0.298 0.304,-0.6 0.454,-0.901 l -10.699,6.188 -19.173,-11.086 19.111,-11.047 14.195,8.206 c 0.067,-0.174 0.132,-0.349 0.198,-0.523 l -13.843,-8.004 18.748,-10.84 c 0.05,-0.341 0.097,-0.683 0.143,-1.025 L 161.291,92.218 180.46,81.136 c -0.027,-0.248 -0.056,-0.497 -0.086,-0.745 L 161.295,69.36 175.851,60.94 c -0.062,-0.176 -0.123,-0.353 -0.186,-0.529 l -14.924,8.63 -19.05,-11.014 19.05,-11.013 12.409,7.175 c -0.131,-0.291 -0.267,-0.58 -0.4,-0.87 l -11.459,-6.627 5.991,-3.463 c -0.098,-0.156 -0.194,-0.313 -0.292,-0.468 l -6.249,3.614 -19.216,-11.11 13.314,-7.7 c -0.133,-0.135 -0.268,-0.27 -0.403,-0.404 L 140.972,34.945 121.817,23.871 138.23,14.38 c -0.177,-0.109 -0.353,-0.222 -0.53,-0.331 l -16.436,9.502 -19.045,-11.013 13.837,-7.99899 c -0.247,-0.072 -0.494,-0.143 -0.742,-0.212 L 101.664,12.218 82.899,1.36801 c -0.319,0.028 -0.64,0.052 -0.959,0.085 L 101.111,12.538 82.066,23.551 62.851,12.441 81.839,1.46101 c -0.46,0.047 -0.918,0.103 -1.376,0.157 L 62.3,12.119 55.588,8.24001 c -0.212,0.09 -0.421,0.184 -0.632,0.276 l 6.789,3.92499 -19.213,11.11 -6.54,-3.781 c -0.158,0.122 -0.318,0.241 -0.475,0.364 l 6.461,3.737 -19.152,11.074 -1.525,-0.882 c -0.118,0.145 -0.234,0.292 -0.351,0.437 l 1.323,0.765 -3.486,2.015 c -0.272,0.366 -0.539,0.735 -0.806,1.105 L 22.826,35.584 42.041,46.692 22.932,57.745 10.565,50.594 c -0.083,0.164 -0.164,0.33 -0.246,0.495 L 22.379,58.062 3.755,68.83 c -0.092,0.365 -0.18,0.732 -0.26799,1.099 L 22.273,80.791 3.09,91.881 1.00401,90.676 C 1.00401,90.784 1,90.892 1,91.001 c 0,0.104 0.00401,0.207 0.00401,0.311 L 2.539,92.199 1.027,93.074 c 0.00501,0.209 0.011,0.419 0.01701,0.628 L 3.09,92.519 22.245,103.592 4.008,114.136 c 0.04901,0.186 0.1,0.37 0.15,0.555 L 22.798,103.913 42.015,115.02 22.869,126.092 4.343,115.375 c 0.072,0.255 0.14701,0.509 0.22,0.764 l 17.755,10.271 -11.04,6.382 c 0.086,0.164 0.172,0.328 0.259,0.491 l 11.334,-6.554 19.045,11.016 -19.09,11.037 -1.581,-0.914 c 0.338,0.414 0.682,0.825 1.028,1.233 0.121,0.143 0.24,0.286 0.362,0.429 l 0.191,-0.112 19.215,11.114 -4.708,2.721 c 0.162,0.121 0.326,0.237 0.488,0.355 l 4.771,-2.759 19.155,11.073 -4.425,2.559 c 0.217,0.088 0.432,0.18 0.65,0.266 l 4.328,-2.502 12.684,7.334 c 0.518,0.092 1.039,0.176 1.56,0.26 l -13.693,-7.917 19.084,-11.03 19.179,11.093 -15.325,8.861 c 0.339,0.02 0.678,0.038 1.018,0.054 l 14.859,-8.595 10.637,6.153 c 0.261,-0.064 0.522,-0.125 0.78,-0.191 l -10.864,-6.282 19.164,-11.082 14.278,8.251 c 0.182,-0.105 0.364,-0.213 0.546,-0.32 l -14.273,-8.253 19.168,-11.084 11.807,6.826 c 0.139,-0.133 0.278,-0.266 0.417,-0.399 l -11.671,-6.752 19.148,-11.073 5.032,2.909 c 0.103,-0.153 0.203,-0.308 0.305,-0.463 l -4.784,-2.766 z m -29.97,-6.121 -19.153,-11.074 19.11,-11.047 19.152,11.075 z M 82.453,69.421 101.604,58.345 120.821,69.458 101.666,80.531 Z m 38.26,22.761 -19.109,11.05 L 82.557,92.22 101.666,81.168 Z M 101.114,80.851 82.003,91.899 62.79,80.791 81.9,69.741 Z m -0.061,22.7 L 81.9,114.627 62.851,103.614 82.003,92.536 Z m 0.551,0.321 19.217,11.107 -19.155,11.074 -19.213,-11.108 z m 0.553,-0.319 19.109,-11.05 19.213,11.111 -19.109,11.046 z m 19.662,-11.371 19.153,-11.074 19.215,11.11 -19.154,11.076 z m -0.553,-0.32 -19.047,-11.011 19.155,-11.074 19.047,11.014 z m -19.109,-33.835 19.217,-11.11 19.213,11.11 -19.213,11.109 z m -0.551,-0.321 -19.155,-11.074 19.215,-11.11 19.155,11.075 z M 101.053,58.027 81.9,69.101 62.745,58.027 81.898,46.952 Z M 62.192,57.706 43.145,46.692 62.3,35.619 81.345,46.632 Z M 81.347,69.421 62.237,80.469 43.084,69.395 62.192,58.345 Z M 61.685,80.791 42.534,91.862 23.376,80.791 42.532,69.715 Z M 62.237,81.108 81.451,92.22 62.3,103.294 43.084,92.182 Z M 81.347,114.945 62.168,126.032 43.119,115.02 62.3,103.932 Z M 81.386,137.779 62.231,148.855 43.02,137.747 62.168,126.67 Z M 62.721,126.353 81.9,115.264 l 19.214,11.111 -19.175,11.086 z m 38.945,0.342 19.155,11.073 -19.174,11.087 -19.157,-11.076 z m 0.553,-0.32 19.155,-11.078 19.151,11.078 -19.151,11.072 z m 77.672,-22.761 -19.15,11.071 -19.154,-11.071 19.154,-11.078 z M 160.743,69.678 179.956,80.791 160.741,91.899 141.525,80.791 Z M 160.19,69.36 140.972,80.469 121.925,69.458 141.14,58.345 Z M 160.187,46.692 141.14,57.706 121.925,46.597 140.972,35.584 Z M 140.421,35.265 121.374,46.28 102.219,35.202 121.264,24.188 Z M 101.666,12.858 120.713,23.871 101.666,34.884 82.619,23.871 Z M 101.114,35.202 81.9,46.314 62.851,35.301 82.066,24.188 Z M 62.3,12.758 81.516,23.871 62.3,34.981 43.084,23.871 Z M 23.376,35.265 42.532,24.188 61.747,35.301 42.592,46.375 Z M 42.592,47.014 61.639,58.027 42.532,69.075 23.485,58.062 Z M 3.77901,69.458 22.932,58.384 41.978,69.395 22.826,80.469 Z M 3.64301,92.199 22.826,81.106 41.981,92.182 22.798,103.275 Z M 23.351,103.592 42.534,92.503 61.747,103.614 42.566,114.703 Z m 0.071,22.818 19.144,-11.07 19.049,11.013 -19.148,11.074 z m -0.043,22.691 19.088,-11.037 19.213,11.108 -19.088,11.041 z m 38.921,22.504 -19.155,-11.073 19.086,-11.035 19.15,11.076 z m 0.484,-22.433 19.155,-11.073 19.155,11.073 -19.159,11.08 z m 38.882,22.494 -19.178,-11.091 19.159,-11.08 19.183,11.086 z m 19.714,-11.403 -19.18,-11.091 19.174,-11.084 19.177,11.084 z m 19.722,-11.408 -19.177,-11.087 19.153,-11.073 19.174,11.084 z"
       fill="#218095"
       id="path79296" />
  </g>
  <path
     d="m 286.50102,137.78155 v 20.203 l 17.494,10.102 v -20.203 z"
     fill="#1f1f1f"
     id="path79300" />
  <path
     d="m 286.50102,137.78155 v 20.203 l 17.494,10.102 v -20.203 z"
     stroke="#fa741c"
     id="path79302"
     style="fill:none" />
  <path
     d="m 288.84902,156.62855 v -14.781 l 12.798,7.39 v 14.781 z"
     fill="#1f1f1f"
     id="path79304" />
  <path
     d="m 288.84902,156.62855 v -14.781 l 12.798,7.39 v 14.781 z"
     stroke="#fa741c"
     id="path79306"
     style="fill:none" />
  <path
     d="m 289.07202,156.50055 12.351,7.132 v -14.265 l -12.351,-7.133 z m 12.575,7.742 c -0.039,0 -0.077,-0.011 -0.112,-0.03 l -12.798,-7.39 c -0.069,-0.04 -0.111,-0.114 -0.111,-0.193 v -14.782 c 0,-0.08 0.042,-0.153 0.111,-0.193 0.069,-0.04 0.155,-0.04 0.223,0 l 12.798,7.391 c 0.07,0.04 0.112,0.113 0.112,0.193 v 14.78 c 0,0.08 -0.042,0.155 -0.112,0.194 -0.034,0.019 -0.072,0.03 -0.111,0.03 z"
     fill="#1f1f1f"
     id="path79308" />
  <path
     d="m 289.07202,156.50055 12.351,7.132 v -14.265 l -12.351,-7.133 z m 12.575,7.742 c -0.039,0 -0.077,-0.011 -0.112,-0.03 l -12.798,-7.39 c -0.069,-0.04 -0.111,-0.114 -0.111,-0.193 v -14.782 c 0,-0.08 0.042,-0.153 0.111,-0.193 0.069,-0.04 0.155,-0.04 0.223,0 l 12.798,7.391 c 0.07,0.04 0.112,0.113 0.112,0.193 v 14.78 c 0,0.08 -0.042,0.155 -0.112,0.194 -0.034,0.019 -0.072,0.03 -0.111,0.03 z"
     stroke="#fa741c"
     id="path79310"
     style="fill:none" />
  <path
     d="m 303.99402,147.88255 v 20.203 l 17.494,-10.101 v -20.203 z"
     fill="#1f1f1f"
     id="path79312" />
  <path
     d="m 303.99402,147.88255 v 20.203 l 17.494,-10.101 v -20.203 z"
     stroke="#fa741c"
     id="path79314"
     style="fill:none" />
  <path
     d="m 306.34202,149.23855 12.798,-7.39 v 14.782 l -12.798,7.389 z"
     fill="#1f1f1f"
     id="path79316" />
  <path
     d="m 306.34202,149.23855 12.798,-7.39 v 14.782 l -12.798,7.389 z"
     stroke="#fa741c"
     id="path79318"
     style="fill:none" />
  <path
     d="m 385.62602,80.539553 -17.492,10.103 17.492,10.100997 17.493,-10.100997 z"
     fill="#1f1f1f"
     id="path79320" />
  <path
     d="m 385.62602,80.539553 -17.492,10.103 17.492,10.100997 17.493,-10.100997 z"
     stroke="#fa741c"
     id="path79322"
     style="fill:none" />
  <path
     d="m 372.82802,90.641553 12.798,-7.392 12.798,7.392 -12.798,7.39 z"
     fill="#1f1f1f"
     id="path79324" />
  <path
     d="m 372.82802,90.641553 12.798,-7.392 12.798,7.392 -12.798,7.39 z"
     stroke="#fa741c"
     id="path79326"
     style="fill:none" />
  <path
     d="m 368.13302,90.641553 v 20.202997 l 17.493,10.101 v -20.203 z"
     fill="#1f1f1f"
     id="path79328" />
  <path
     d="m 368.13302,90.641553 v 20.202997 l 17.493,10.101 v -20.203 z"
     stroke="#fa741c"
     id="path79330"
     style="fill:none" />
  <path
     d="M 370.48102,109.48855 V 94.707553 l 12.799,7.390997 v 14.781 z"
     fill="#1f1f1f"
     id="path79332" />
  <path
     d="M 370.48102,109.48855 V 94.707553 l 12.799,7.390997 v 14.781 z"
     stroke="#fa741c"
     id="path79334"
     style="fill:none" />
  <path
     d="m 370.70402,109.36055 12.351,7.132 v -14.266 l -12.351,-7.130997 z m 12.575,7.742 c -0.039,0 -0.077,-0.01 -0.112,-0.03 l -12.798,-7.39 c -0.069,-0.04 -0.111,-0.114 -0.111,-0.193 V 94.707553 c 0,-0.08 0.042,-0.153 0.111,-0.192 0.068,-0.04 0.154,-0.04 0.223,0 l 12.798,7.389997 c 0.069,0.04 0.112,0.113 0.112,0.192 v 14.781 c 0,0.08 -0.043,0.155 -0.112,0.194 -0.034,0.02 -0.073,0.03 -0.111,0.03 z"
     fill="#1f1f1f"
     id="path79336" />
  <path
     d="m 370.70402,109.36055 12.351,7.132 v -14.266 l -12.351,-7.130997 z m 12.575,7.742 c -0.039,0 -0.077,-0.01 -0.112,-0.03 l -12.798,-7.39 c -0.069,-0.04 -0.111,-0.114 -0.111,-0.193 V 94.707553 c 0,-0.08 0.042,-0.153 0.111,-0.192 0.068,-0.04 0.154,-0.04 0.223,0 l 12.798,7.389997 c 0.069,0.04 0.112,0.113 0.112,0.192 v 14.781 c 0,0.08 -0.043,0.155 -0.112,0.194 -0.034,0.02 -0.073,0.03 -0.111,0.03 z"
     stroke="#fa741c"
     id="path79338"
     style="fill:none" />
  <path
     d="m 385.62602,100.74255 v 20.203 l 17.493,-10.101 V 90.641553 Z"
     fill="#1f1f1f"
     id="path79340" />
  <path
     d="m 385.62602,100.74255 v 20.203 l 17.493,-10.101 V 90.641553 Z"
     stroke="#fa741c"
     id="path79342"
     style="fill:none" />
  <path
     d="m 387.97402,102.09855 12.798,-7.390997 v 14.780997 l -12.798,7.391 z"
     fill="#1f1f1f"
     id="path79344" />
  <path
     d="m 387.97402,102.09855 12.798,-7.390997 v 14.780997 l -12.798,7.391 z"
     stroke="#fa741c"
     id="path79346"
     style="fill:none" />
  <path
     d="m 385.62602,100.30455 -16.733,-9.661997 16.733,-9.664 16.732,9.664 z m 0,-19.764997 -17.492,10.103 17.492,10.100997 17.493,-10.100997 z"
     fill="#1f1f1f"
     id="path79348" />
  <path
     d="m 385.62602,100.30455 -16.733,-9.661997 16.733,-9.664 16.732,9.664 z m 0,-19.764997 -17.492,10.103 17.492,10.100997 17.493,-10.100997 z"
     stroke="#fa741c"
     id="path79350"
     style="fill:none" />
  <path
     d="m 385.24502,120.28755 -16.732,-9.663 V 91.299553 l 16.732,9.662997 z m -17.112,-29.645997 v 20.202997 l 17.493,10.101 v -20.202 z"
     fill="#1f1f1f"
     id="path79352" />
  <path
     d="m 385.24502,120.28755 -16.732,-9.663 V 91.299553 l 16.732,9.662997 z m -17.112,-29.645997 v 20.202997 l 17.493,10.101 v -20.202 z"
     stroke="#fa741c"
     id="path79354"
     style="fill:none" />
  <path
     d="m 402.73902,110.62455 -16.734,9.664 v -19.327 l 16.734,-9.662997 z m -17.113,-9.882 v 20.203 l 17.493,-10.101 V 90.640553 Z"
     fill="#1f1f1f"
     id="path79356" />
  <path
     d="m 402.73902,110.62455 -16.734,9.664 v -19.327 l 16.734,-9.662997 z m -17.113,-9.882 v 20.203 l 17.493,-10.101 V 90.640553 Z"
     stroke="#fa741c"
     id="path79358"
     style="fill:none" />
  <path
     d="m 373.96402,100.74255 -5.83,3.367 -5.831,3.366 -5.831,3.369 5.831,3.367 5.831,-3.367 5.83,-3.369 5.832,-3.366 z"
     fill="#1f1f1f"
     id="path79360" />
  <path
     d="m 373.96402,100.74255 -5.83,3.367 -5.831,3.366 -5.831,3.369 5.831,3.367 5.831,-3.367 5.83,-3.369 5.832,-3.366 z"
     stroke="#fa741c"
     id="path79362"
     style="fill:none" />
  <path
     d="m 373.96402,107.47655 -5.83,3.367 -5.832,3.367 v 6.735 l 5.832,-3.367 5.83,-3.368 5.831,-3.367 v -6.734 z"
     fill="#1f1f1f"
     id="path79364" />
  <path
     d="m 373.96402,107.47655 -5.83,3.367 -5.832,3.367 v 6.735 l 5.832,-3.367 5.83,-3.368 5.831,-3.367 v -6.734 z"
     stroke="#fa741c"
     id="path79366"
     style="fill:none" />
  <path
     d="m 344.81102,104.10955 -17.494,10.103 17.494,10.101 17.492,-10.101 z"
     fill="#1f1f1f"
     id="path79368" />
  <path
     d="m 344.81102,104.10955 -17.494,10.103 17.494,10.101 17.492,-10.101 z"
     stroke="#fa741c"
     id="path79370"
     style="fill:none" />
  <path
     d="m 332.01302,114.21055 12.798,-7.39 12.798,7.39 -12.798,7.392 z"
     fill="#1f1f1f"
     id="path79372" />
  <path
     d="m 332.01302,114.21055 12.798,-7.39 12.798,7.39 -12.798,7.392 z"
     stroke="#fa741c"
     id="path79374"
     style="fill:none" />
  <path
     d="m 327.31702,114.21055 v 20.204 l 17.494,10.101 v -20.203 z"
     fill="#1f1f1f"
     id="path79376" />
  <path
     d="m 327.31702,114.21055 v 20.204 l 17.494,10.101 v -20.203 z"
     stroke="#fa741c"
     id="path79378"
     style="fill:none" />
  <path
     d="m 329.66502,133.05855 v -14.781 l 12.798,7.391 v 14.781 z"
     fill="#1f1f1f"
     id="path79380" />
  <path
     d="m 329.66502,133.05855 v -14.781 l 12.798,7.391 v 14.781 z"
     stroke="#fa741c"
     id="path79382"
     style="fill:none" />
  <path
     d="m 329.88702,132.93055 12.352,7.132 v -14.266 l -12.352,-7.133 z m 12.575,7.742 c -0.039,0 -0.076,-0.011 -0.11,-0.03 l -12.8,-7.39 c -0.069,-0.04 -0.111,-0.113 -0.111,-0.193 v -14.782 c 0,-0.079 0.042,-0.154 0.111,-0.194 0.069,-0.039 0.155,-0.039 0.223,0 l 12.798,7.392 c 0.07,0.04 0.113,0.113 0.113,0.192 v 14.781 c 0,0.08 -0.043,0.155 -0.113,0.194 -0.034,0.019 -0.073,0.03 -0.111,0.03 z"
     fill="#1f1f1f"
     id="path79384" />
  <path
     d="m 329.88702,132.93055 12.352,7.132 v -14.266 l -12.352,-7.133 z m 12.575,7.742 c -0.039,0 -0.076,-0.011 -0.11,-0.03 l -12.8,-7.39 c -0.069,-0.04 -0.111,-0.113 -0.111,-0.193 v -14.782 c 0,-0.079 0.042,-0.154 0.111,-0.194 0.069,-0.039 0.155,-0.039 0.223,0 l 12.798,7.392 c 0.07,0.04 0.113,0.113 0.113,0.192 v 14.781 c 0,0.08 -0.043,0.155 -0.113,0.194 -0.034,0.019 -0.073,0.03 -0.111,0.03 z"
     stroke="#fa741c"
     id="path79386"
     style="fill:none" />
  <path
     d="m 344.81002,124.31255 v 20.203 l 17.492,-10.101 v -20.204 z"
     fill="#1f1f1f"
     id="path79388" />
  <path
     d="m 344.81002,124.31255 v 20.203 l 17.492,-10.101 v -20.204 z"
     stroke="#fa741c"
     id="path79390"
     style="fill:none" />
  <path
     d="m 347.15702,125.66855 12.8,-7.391 v 14.782 l -12.8,7.39 z"
     fill="#1f1f1f"
     id="path79392" />
  <path
     d="m 347.15702,125.66855 12.8,-7.391 v 14.782 l -12.8,7.39 z"
     stroke="#fa741c"
     id="path79394"
     style="fill:none" />
  <path
     d="m 344.80902,123.87455 -16.731,-9.662 16.731,-9.664 16.735,9.664 z m 0.002,-19.765 -17.494,10.103 17.494,10.101 17.492,-10.101 z"
     fill="#1f1f1f"
     id="path79396" />
  <path
     d="m 344.80902,123.87455 -16.731,-9.662 16.731,-9.664 16.735,9.664 z m 0.002,-19.765 -17.494,10.103 17.494,10.101 17.492,-10.101 z"
     stroke="#fa741c"
     id="path79398"
     style="fill:none" />
  <path
     d="m 344.43102,143.85655 -16.734,-9.662 v -19.326 l 16.734,9.664 z m -17.114,-29.646 v 20.204 l 17.494,10.101 v -20.203 z"
     fill="#1f1f1f"
     id="path79400" />
  <path
     d="m 344.43102,143.85655 -16.734,-9.662 v -19.326 l 16.734,9.664 z m -17.114,-29.646 v 20.204 l 17.494,10.101 v -20.203 z"
     stroke="#fa741c"
     id="path79402"
     style="fill:none" />
  <path
     d="m 361.92302,134.19455 -16.734,9.664 v -19.327 l 16.734,-9.663 z m -17.113,-9.882 v 20.203 l 17.492,-10.101 v -20.204 z"
     fill="#1f1f1f"
     id="path79404" />
  <path
     d="m 361.92302,134.19455 -16.734,9.664 v -19.327 l 16.734,-9.663 z m -17.113,-9.882 v 20.203 l 17.492,-10.101 v -20.204 z"
     stroke="#fa741c"
     id="path79406"
     style="fill:none" />
  <path
     d="m 333.14802,124.31355 -5.831,3.367 -5.83,3.366 -5.832,3.369 5.832,3.367 5.83,-3.367 5.831,-3.369 5.831,-3.366 z"
     fill="#1f1f1f"
     id="path79408" />
  <path
     d="m 333.14802,124.31355 -5.831,3.367 -5.83,3.366 -5.832,3.369 5.832,3.367 5.83,-3.367 5.831,-3.369 5.831,-3.366 z"
     stroke="#fa741c"
     id="path79410"
     style="fill:none" />
  <path
     d="m 333.14802,131.04755 -5.831,3.367 -5.83,3.367 v 6.735 l 5.83,-3.367 5.831,-3.368 5.831,-3.367 v -6.734 z"
     fill="#1f1f1f"
     id="path79412" />
  <path
     d="m 333.14802,131.04755 -5.831,3.367 -5.83,3.367 v 6.735 l 5.83,-3.367 5.831,-3.368 5.831,-3.367 v -6.734 z"
     stroke="#fa741c"
     id="path79414"
     style="fill:none" />
  <path
     d="m 303.99502,127.67955 -17.493,10.103 17.493,10.101 17.493,-10.101 z"
     fill="#1f1f1f"
     id="path79416" />
  <path
     d="m 303.99502,127.67955 -17.493,10.103 17.493,10.101 17.493,-10.101 z"
     stroke="#fa741c"
     id="path79418"
     style="fill:none" />
  <path
     d="m 291.19602,137.78155 12.797,-7.391 12.799,7.391 -12.799,7.391 z"
     fill="#1f1f1f"
     id="path79420" />
  <path
     d="m 291.19602,137.78155 12.797,-7.391 12.799,7.391 -12.799,7.391 z"
     stroke="#fa741c"
     id="path79422"
     style="fill:none" />
  <path
     d="m 303.99302,147.44455 -16.733,-9.663 16.733,-9.664 16.735,9.664 z m 0,-19.765 -17.491,10.102 17.491,10.1 17.494,-10.1 z"
     fill="#1f1f1f"
     id="path79424" />
  <path
     d="m 303.99302,147.44455 -16.733,-9.663 16.733,-9.664 16.735,9.664 z m 0,-19.765 -17.491,10.102 17.491,10.1 17.494,-10.1 z"
     stroke="#fa741c"
     id="path79426"
     style="fill:none" />
  <path
     d="m 303.61502,167.42755 -16.735,-9.663 v -19.326 l 16.735,9.663 z m -17.114,-29.646 v 20.203 l 17.494,10.102 v -20.203 z"
     fill="#1f1f1f"
     id="path79428" />
  <path
     d="m 303.61502,167.42755 -16.735,-9.663 v -19.326 l 16.735,9.663 z m -17.114,-29.646 v 20.203 l 17.494,10.102 v -20.203 z"
     stroke="#fa741c"
     id="path79430"
     style="fill:none" />
  <path
     d="m 321.10802,157.76455 -16.735,9.663 v -19.325 l 16.735,-9.662 z m -17.114,-9.882 v 20.203 l 17.494,-10.101 v -20.203 z"
     fill="#1f1f1f"
     id="path79432" />
  <path
     d="m 321.10802,157.76455 -16.735,9.663 v -19.325 l 16.735,-9.662 z m -17.114,-9.882 v 20.203 l 17.494,-10.101 v -20.203 z"
     stroke="#fa741c"
     id="path79434"
     style="fill:none" />
  <path
     d="m 246.88602,113.67015 v 20.1704 l 17.466,10.086 v -20.171 z"
     fill="#1f1f1f"
     id="path79436" />
  <path
     d="m 246.88602,113.67015 v 20.1704 l 17.466,10.086 v -20.171 z"
     stroke="#fa741c"
     stroke-width="0.998398"
     id="path79438"
     style="fill:none" />
  <path
     d="m 249.23022,132.48655 v -14.757 l 12.7775,7.378 v 14.758 z"
     fill="#1f1f1f"
     id="path79440" />
  <path
     d="m 249.23022,132.48655 v -14.757 l 12.7775,7.378 v 14.758 z"
     stroke="#fa741c"
     stroke-width="0.998398"
     id="path79442"
     style="fill:none" />
  <path
     d="m 249.45292,132.35955 12.3312,7.12 v -14.242 l -12.3312,-7.1216 z m 12.5548,7.729 c -0.0389,0 -0.0768,-0.011 -0.1118,-0.03 l -12.7775,-7.378 c -0.0689,-0.04 -0.1108,-0.114 -0.1108,-0.193 v -14.7579 c 0,-0.0799 0.0419,-0.1528 0.1108,-0.1927 0.0689,-0.04 0.1548,-0.04 0.2227,0 l 12.7775,7.3796 c 0.0699,0.039 0.1118,0.112 0.1118,0.192 v 14.757 c 0,0.079 -0.0419,0.154 -0.1118,0.193 -0.034,0.019 -0.0719,0.03 -0.1109,0.03 z"
     fill="#1f1f1f"
     id="path79444" />
  <path
     d="m 249.45292,132.35955 12.3312,7.12 v -14.242 l -12.3312,-7.1216 z m 12.5548,7.729 c -0.0389,0 -0.0768,-0.011 -0.1118,-0.03 l -12.7775,-7.378 c -0.0689,-0.04 -0.1108,-0.114 -0.1108,-0.193 v -14.7579 c 0,-0.0799 0.0419,-0.1528 0.1108,-0.1927 0.0689,-0.04 0.1548,-0.04 0.2227,0 l 12.7775,7.3796 c 0.0699,0.039 0.1118,0.112 0.1118,0.192 v 14.757 c 0,0.079 -0.0419,0.154 -0.1118,0.193 -0.034,0.019 -0.0719,0.03 -0.1109,0.03 z"
     stroke="#fa741c"
     stroke-width="0.998398"
     id="path79446"
     style="fill:none" />
  <path
     d="m 264.35102,123.75455 v 20.171 l 17.466,-10.085 v -20.1704 z"
     fill="#1f1f1f"
     id="path79448" />
  <path
     d="m 264.35102,123.75455 v 20.171 l 17.466,-10.085 v -20.1704 z"
     stroke="#fa741c"
     stroke-width="0.998398"
     id="path79450"
     style="fill:none" />
  <path
     d="m 266.69522,125.10855 12.7775,-7.3779 v 14.7579 l -12.7775,7.378 z"
     fill="#1f1f1f"
     id="path79452" />
  <path
     d="m 266.69522,125.10855 12.7775,-7.3779 v 14.7579 l -12.7775,7.378 z"
     stroke="#fa741c"
     stroke-width="0.998398"
     id="path79454"
     style="fill:none" />
  <path
     d="m 345.85202,56.519853 -17.4638,10.0868 17.4638,10.0848 17.465,-10.0848 z"
     fill="#1f1f1f"
     id="path79456" />
  <path
     d="m 345.85202,56.519853 -17.4638,10.0868 17.4638,10.0848 17.465,-10.0848 z"
     stroke="#fa741c"
     stroke-width="0.998398"
     id="path79458"
     style="fill:none" />
  <path
     d="m 333.07472,66.605653 12.7773,-7.3802 12.778,7.3802 -12.778,7.3781 z"
     fill="#1f1f1f"
     id="path79460" />
  <path
     d="m 333.07472,66.605653 12.7773,-7.3802 12.778,7.3802 -12.778,7.3781 z"
     stroke="#fa741c"
     stroke-width="0.998398"
     id="path79462"
     style="fill:none" />
  <path
     d="m 328.38722,66.605653 v 20.1706 l 17.4648,10.0848 v -20.1706 z"
     fill="#1f1f1f"
     id="path79464" />
  <path
     d="m 328.38722,66.605653 v 20.1706 l 17.4648,10.0848 v -20.1706 z"
     stroke="#fa741c"
     stroke-width="0.998398"
     id="path79466"
     style="fill:none" />
  <path
     d="m 330.73152,85.422453 v -14.7573 l 12.7785,7.3791 v 14.7573 z"
     fill="#1f1f1f"
     id="path79468" />
  <path
     d="m 330.73152,85.422453 v -14.7573 l 12.7785,7.3791 v 14.7573 z"
     stroke="#fa741c"
     stroke-width="0.998398"
     id="path79470"
     style="fill:none" />
  <path
     d="m 330.95412,85.294653 12.3309,7.1206 v -14.2432 l -12.3309,-7.1196 z m 12.5549,7.7296 c -0.039,0 -0.077,-0.01 -0.112,-0.03 l -12.7774,-7.3781 c -0.0688,-0.04 -0.1108,-0.1139 -0.1108,-0.1927 v -14.7583 c 0,-0.0799 0.042,-0.1528 0.1108,-0.1917 0.0679,-0.04 0.1538,-0.04 0.2227,0 l 12.7777,7.3781 c 0.069,0.04 0.112,0.1128 0.112,0.1917 v 14.7573 c 0,0.0799 -0.043,0.1548 -0.112,0.1937 -0.034,0.02 -0.073,0.03 -0.111,0.03 z"
     fill="#1f1f1f"
     id="path79472" />
  <path
     d="m 330.95412,85.294653 12.3309,7.1206 v -14.2432 l -12.3309,-7.1196 z m 12.5549,7.7296 c -0.039,0 -0.077,-0.01 -0.112,-0.03 l -12.7774,-7.3781 c -0.0688,-0.04 -0.1108,-0.1139 -0.1108,-0.1927 v -14.7583 c 0,-0.0799 0.042,-0.1528 0.1108,-0.1917 0.0679,-0.04 0.1538,-0.04 0.2227,0 l 12.7777,7.3781 c 0.069,0.04 0.112,0.1128 0.112,0.1917 v 14.7573 c 0,0.0799 -0.043,0.1548 -0.112,0.1937 -0.034,0.02 -0.073,0.03 -0.111,0.03 z"
     stroke="#fa741c"
     stroke-width="0.998398"
     id="path79474"
     style="fill:none" />
  <path
     d="m 345.85202,76.690453 v 20.1706 l 17.465,-10.0848 v -20.1706 z"
     fill="#1f1f1f"
     id="path79476" />
  <path
     d="m 345.85202,76.690453 v 20.1706 l 17.465,-10.0848 v -20.1706 z"
     stroke="#fa741c"
     stroke-width="0.998398"
     id="path79478"
     style="fill:none" />
  <path
     d="m 348.19602,78.044253 12.778,-7.3791 v 14.7573 l -12.778,7.3791 z"
     fill="#1f1f1f"
     id="path79480" />
  <path
     d="m 348.19602,78.044253 12.778,-7.3791 v 14.7573 l -12.778,7.3791 z"
     stroke="#fa741c"
     stroke-width="0.998398"
     id="path79482"
     style="fill:none" />
  <path
     d="m 345.85202,76.253153 -16.706,-9.6465 16.706,-9.6485 16.705,9.6485 z m 0,-19.7333 -17.4638,10.0868 17.4638,10.0848 17.465,-10.0848 z"
     fill="#1f1f1f"
     id="path79484" />
  <path
     d="m 345.85202,76.253153 -16.706,-9.6465 16.706,-9.6485 16.705,9.6485 z m 0,-19.7333 -17.4638,10.0868 17.4638,10.0848 17.465,-10.0848 z"
     stroke="#fa741c"
     stroke-width="0.998398"
     id="path79486"
     style="fill:none" />
  <path
     d="m 345.47202,96.204153 -16.7054,-9.6475 v -19.2941 l 16.7054,9.6475 z m -17.0848,-29.5985 v 20.1706 l 17.4648,10.0848 v -20.1696 z"
     fill="#1f1f1f"
     id="path79488" />
  <path
     d="m 345.47202,96.204153 -16.7054,-9.6475 v -19.2941 l 16.7054,9.6475 z m -17.0848,-29.5985 v 20.1706 l 17.4648,10.0848 v -20.1696 z"
     stroke="#fa741c"
     stroke-width="0.998398"
     id="path79490"
     style="fill:none" />
  <path
     d="m 362.93802,86.556653 -16.707,9.6485 v -19.2961 l 16.707,-9.6475 z m -17.086,-9.8662 v 20.1706 l 17.465,-10.0848 v -20.1716 z"
     fill="#1f1f1f"
     id="path79492" />
  <path
     d="m 362.93802,86.556653 -16.707,9.6485 v -19.2961 l 16.707,-9.6475 z m -17.086,-9.8662 v 20.1706 l 17.465,-10.0848 v -20.1716 z"
     stroke="#fa741c"
     stroke-width="0.998398"
     id="path79494"
     style="fill:none" />
  <path
     d="m 334.20892,76.690453 -5.8207,3.3616 -5.8216,3.3606 -5.8217,3.3636 5.8217,3.3616 5.8216,-3.3616 5.8207,-3.3636 5.8231,-3.3606 z"
     fill="#1f1f1f"
     id="path79496" />
  <path
     d="m 334.20892,76.690453 -5.8207,3.3616 -5.8216,3.3606 -5.8217,3.3636 5.8217,3.3616 5.8216,-3.3616 5.8207,-3.3636 5.8231,-3.3606 z"
     stroke="#fa741c"
     stroke-width="0.998398"
     id="path79498"
     style="fill:none" />
  <path
     d="m 334.20892,83.413653 -5.8207,3.3616 -5.8226,3.3616 v 6.7242 l 5.8226,-3.3616 5.8207,-3.3626 5.8221,-3.3616 v -6.7232 z"
     fill="#1f1f1f"
     id="path79500" />
  <path
     d="m 334.20892,83.413653 -5.8207,3.3616 -5.8226,3.3616 v 6.7242 l 5.8226,-3.3616 5.8207,-3.3626 5.8221,-3.3616 v -6.7232 z"
     stroke="#fa741c"
     stroke-width="0.998398"
     id="path79502"
     style="fill:none" />
  <path
     d="m 305.10262,80.052053 -17.466,10.0868 17.466,10.084797 17.464,-10.084797 z"
     fill="#1f1f1f"
     id="path79504" />
  <path
     d="m 305.10262,80.052053 -17.466,10.0868 17.466,10.084797 17.464,-10.084797 z"
     stroke="#fa741c"
     stroke-width="0.998398"
     id="path79506"
     style="fill:none" />
  <path
     d="m 292.32512,90.136853 12.7775,-7.3781 12.7775,7.3781 -12.7775,7.3802 z"
     fill="#1f1f1f"
     id="path79508" />
  <path
     d="m 292.32512,90.136853 12.7775,-7.3781 12.7775,7.3781 -12.7775,7.3802 z"
     stroke="#fa741c"
     stroke-width="0.998398"
     id="path79510"
     style="fill:none" />
  <path
     d="m 287.63662,90.136853 v 20.171697 l 17.466,10.0848 v -20.1707 z"
     fill="#1f1f1f"
     id="path79512" />
  <path
     d="m 287.63662,90.136853 v 20.171697 l 17.466,10.0848 v -20.1707 z"
     stroke="#fa741c"
     stroke-width="0.998398"
     id="path79514"
     style="fill:none" />
  <path
     d="M 289.98092,108.95465 V 94.197353 l 12.7775,7.379197 v 14.7573 z"
     fill="#1f1f1f"
     id="path79516" />
  <path
     d="M 289.98092,108.95465 V 94.197353 l 12.7775,7.379197 v 14.7573 z"
     stroke="#fa741c"
     stroke-width="0.998398"
     id="path79518"
     style="fill:none" />
  <path
     d="m 290.20252,108.82685 12.3322,7.1206 v -14.2431 l -12.3322,-7.121597 z m 12.5548,7.7296 c -0.0389,0 -0.0758,-0.0109 -0.1098,-0.0299 l -12.7795,-7.3782 c -0.0689,-0.0399 -0.1108,-0.1128 -0.1108,-0.1927 V 94.197353 c 0,-0.0789 0.0419,-0.1537 0.1108,-0.1937 0.0689,-0.0389 0.1548,-0.0389 0.2227,0 l 12.7775,7.380197 c 0.0699,0.0399 0.1128,0.1128 0.1128,0.1917 v 14.7573 c 0,0.0799 -0.0429,0.1547 -0.1128,0.1937 -0.034,0.019 -0.0729,0.0299 -0.1109,0.0299 z"
     fill="#1f1f1f"
     id="path79520" />
  <path
     d="m 290.20252,108.82685 12.3322,7.1206 v -14.2431 l -12.3322,-7.121597 z m 12.5548,7.7296 c -0.0389,0 -0.0758,-0.0109 -0.1098,-0.0299 l -12.7795,-7.3782 c -0.0689,-0.0399 -0.1108,-0.1128 -0.1108,-0.1927 V 94.197353 c 0,-0.0789 0.0419,-0.1537 0.1108,-0.1937 0.0689,-0.0389 0.1548,-0.0389 0.2227,0 l 12.7775,7.380197 c 0.0699,0.0399 0.1128,0.1128 0.1128,0.1917 v 14.7573 c 0,0.0799 -0.0429,0.1547 -0.1128,0.1937 -0.034,0.019 -0.0729,0.0299 -0.1109,0.0299 z"
     stroke="#fa741c"
     stroke-width="0.998398"
     id="path79522"
     style="fill:none" />
  <path
     d="m 305.10162,100.22265 v 20.1707 l 17.464,-10.0848 V 90.136853 Z"
     fill="#1f1f1f"
     id="path79524" />
  <path
     d="m 305.10162,100.22265 v 20.1707 l 17.464,-10.0848 V 90.136853 Z"
     stroke="#fa741c"
     stroke-width="0.998398"
     id="path79526"
     style="fill:none" />
  <path
     d="m 307.44482,101.57655 12.7795,-7.379197 v 14.758297 l -12.7795,7.3782 z"
     fill="#1f1f1f"
     id="path79528" />
  <path
     d="m 307.44482,101.57655 12.7795,-7.379197 v 14.758297 l -12.7795,7.3782 z"
     stroke="#fa741c"
     stroke-width="0.998398"
     id="path79530"
     style="fill:none" />
  <path
     d="m 305.10062,99.785353 -16.7042,-9.6465 16.7042,-9.6485 16.7082,9.6485 z m 0.002,-19.7333 -17.466,10.0868 17.466,10.084797 17.464,-10.084797 z"
     fill="#1f1f1f"
     id="path79532" />
  <path
     d="m 305.10062,99.785353 -16.7042,-9.6465 16.7042,-9.6485 16.7082,9.6485 z m 0.002,-19.7333 -17.466,10.0868 17.466,10.084797 17.464,-10.084797 z"
     stroke="#fa741c"
     stroke-width="0.998398"
     id="path79534"
     style="fill:none" />
  <path
     d="m 304.72322,119.73535 -16.7072,-9.6465 V 90.793853 l 16.7072,9.648497 z m -17.0866,-29.598497 v 20.171697 l 17.466,10.0848 v -20.1707 z"
     fill="#1f1f1f"
     id="path79536" />
  <path
     d="m 304.72322,119.73535 -16.7072,-9.6465 V 90.793853 l 16.7072,9.648497 z m -17.0866,-29.598497 v 20.171697 l 17.466,10.0848 v -20.1707 z"
     stroke="#fa741c"
     stroke-width="0.998398"
     id="path79538"
     style="fill:none" />
  <path
     d="m 322.18722,110.08885 -16.7072,9.6485 v -19.296 l 16.7072,-9.647497 z m -17.0856,-9.8662 v 20.1707 l 17.464,-10.0848 V 90.136853 Z"
     fill="#1f1f1f"
     id="path79540" />
  <path
     d="m 322.18722,110.08885 -16.7072,9.6485 v -19.296 l 16.7072,-9.647497 z m -17.0856,-9.8662 v 20.1707 l 17.464,-10.0848 V 90.136853 Z"
     stroke="#fa741c"
     stroke-width="0.998398"
     id="path79542"
     style="fill:none" />
  <path
     d="m 293.45832,100.22365 -5.8217,3.3616 -5.8207,3.3606 -5.8226,3.3636 5.8226,3.3616 5.8207,-3.3616 5.8217,-3.3636 5.8216,-3.3606 z"
     fill="#1f1f1f"
     id="path79544" />
  <path
     d="m 293.45832,100.22365 -5.8217,3.3616 -5.8207,3.3606 -5.8226,3.3636 5.8226,3.3616 5.8207,-3.3616 5.8217,-3.3636 5.8216,-3.3606 z"
     stroke="#fa741c"
     stroke-width="0.998398"
     id="path79546"
     style="fill:none" />
  <path
     d="m 293.45832,106.94695 -5.8217,3.3616 -5.8206,3.3616 v 6.7242 l 5.8206,-3.3616 5.8217,-3.3626 5.8216,-3.3616 v -6.7232 z"
     fill="#1f1f1f"
     id="path79548" />
  <path
     d="m 293.45832,106.94695 -5.8217,3.3616 -5.8206,3.3616 v 6.7242 l 5.8206,-3.3616 5.8217,-3.3626 5.8216,-3.3616 v -6.7232 z"
     stroke="#fa741c"
     stroke-width="0.998398"
     id="path79550"
     style="fill:none" />
  <path
     d="m 264.35202,103.58435 -17.465,10.0868 17.465,10.0844 17.465,-10.0844 z"
     fill="#1f1f1f"
     id="path79552" />
  <path
     d="m 264.35202,103.58435 -17.465,10.0868 17.465,10.0844 17.465,-10.0844 z"
     stroke="#fa741c"
     stroke-width="0.998398"
     id="path79554"
     style="fill:none" />
  <path
     d="m 251.57352,113.67015 12.7765,-7.3792 12.7785,7.3792 -12.7785,7.3791 z"
     fill="#1f1f1f"
     id="path79556" />
  <path
     d="m 251.57352,113.67015 12.7765,-7.3792 12.7785,7.3792 -12.7785,7.3791 z"
     stroke="#fa741c"
     stroke-width="0.998398"
     id="path79558"
     style="fill:none" />
  <path
     d="m 264.35002,123.31755 -16.7062,-9.6474 16.7062,-9.6486 16.7082,9.6486 z m 0,-19.7332 -17.463,10.0858 17.463,10.0834 17.466,-10.0834 z"
     fill="#1f1f1f"
     id="path79560" />
  <path
     d="m 264.35002,123.31755 -16.7062,-9.6474 16.7062,-9.6486 16.7082,9.6486 z m 0,-19.7332 -17.463,10.0858 17.463,10.0834 17.466,-10.0834 z"
     stroke="#fa741c"
     stroke-width="0.998398"
     id="path79562"
     style="fill:none" />
  <path
     d="m 263.97262,143.26855 -16.7082,-9.647 v -19.2955 l 16.7082,9.6475 z m -17.0866,-29.5984 v 20.1704 l 17.466,10.086 v -20.171 z"
     fill="#1f1f1f"
     id="path79564" />
  <path
     d="m 263.97262,143.26855 -16.7082,-9.647 v -19.2955 l 16.7082,9.6475 z m -17.0866,-29.5984 v 20.1704 l 17.466,10.086 v -20.171 z"
     stroke="#fa741c"
     stroke-width="0.998398"
     id="path79566"
     style="fill:none" />
  <path
     d="m 281.43762,133.62155 -16.7082,9.647 v -19.294 l 16.7082,-9.6465 z m -17.0866,-9.867 v 20.171 l 17.466,-10.085 v -20.1704 z"
     fill="#1f1f1f"
     id="path79568" />
  <path
     d="m 281.43762,133.62155 -16.7082,9.647 v -19.294 l 16.7082,-9.6465 z m -17.0866,-9.867 v 20.171 l 17.466,-10.085 v -20.1704 z"
     stroke="#fa741c"
     stroke-width="0.998398"
     id="path79570"
     style="fill:none" />
  <path
     d="m 286.50202,131.04755 -5.831,-3.367 -5.8309,-3.367 -5.831,3.367 5.831,3.367 5.8309,3.367 5.831,3.367 5.831,-3.367 z"
     fill="#1f1f1f"
     id="path79572" />
  <path
     d="m 286.50202,131.04755 -5.831,-3.367 -5.8309,-3.367 -5.831,3.367 5.831,3.367 5.8309,3.367 5.831,3.367 5.831,-3.367 z"
     stroke="#fa741c"
     id="path79574"
     style="fill:none" />
  <path
     d="m 280.67002,134.41455 -5.8299,-3.367 -5.832,-3.367 v 6.734 l 5.832,3.367 5.8299,3.367 5.832,3.368 v -6.735 z"
     fill="#1f1f1f"
     id="path79576" />
  <path
     d="m 280.67002,134.41455 -5.8299,-3.367 -5.832,-3.367 v 6.734 l 5.832,3.367 5.8299,3.367 5.832,3.368 v -6.735 z"
     stroke="#fa741c"
     id="path79578"
     style="fill:none" />
  <path
     d="m 325.45202,24.158553 c 49.706,0 90,40.294 90,89.999997 0,49.706 -40.294,90 -90,90 -49.706,0 -90,-40.294 -90,-90 0,-49.705997 40.294,-89.999997 90,-89.999997 z"
     stroke="#fa741c"
     id="path79580"
     style="fill:none" />
</svg>
