<?xml version="1.0" encoding="UTF-8" standalone="no"?>
<!-- Created with Inkscape (http://www.inkscape.org/) -->

<svg
   width="47.909161mm"
   height="47.889584mm"
   viewBox="0 0 47.909161 47.889584"
   version="1.1"
   id="svg79060"
   inkscape:version="1.1.2 (b8e25be833, 2022-02-05)"
   sodipodi:docname="circle_grid_vote.svg"
   xmlns:inkscape="http://www.inkscape.org/namespaces/inkscape"
   xmlns:sodipodi="http://sodipodi.sourceforge.net/DTD/sodipodi-0.dtd"
   xmlns="http://www.w3.org/2000/svg"
   xmlns:svg="http://www.w3.org/2000/svg">
  <sodipodi:namedview
     id="namedview79062"
     pagecolor="#505050"
     bordercolor="#ffffff"
     borderopacity="1"
     inkscape:pageshadow="0"
     inkscape:pageopacity="0"
     inkscape:pagecheckerboard="1"
     inkscape:document-units="mm"
     showgrid="false"
     fit-margin-top="0"
     fit-margin-left="0"
     fit-margin-right="0"
     fit-margin-bottom="0"
     inkscape:zoom="0.64052329"
     inkscape:cx="-72.596892"
     inkscape:cy="108.50503"
     inkscape:window-width="1920"
     inkscape:window-height="1001"
     inkscape:window-x="-9"
     inkscape:window-y="-9"
     inkscape:window-maximized="1"
     inkscape:current-layer="layer1" />
  <defs
     id="defs79057" />
  <g
     inkscape:label="Layer 1"
     inkscape:groupmode="layer"
     id="layer1"
     transform="translate(-124.33888,-119.80486)">
    <g
       id="g79007"
       transform="matrix(0.26458333,0,0,0.26458333,35.414412,92.614048)">
      <g
         opacity="0.25"
         id="g78205"
         transform="translate(337.70649,103.24163)">
        <path
           d="m 170.048,131.174 c 0.155,-0.298 0.304,-0.6 0.454,-0.901 l -10.699,6.188 -19.173,-11.086 19.111,-11.047 14.195,8.206 c 0.067,-0.174 0.132,-0.349 0.198,-0.523 l -13.843,-8.004 18.748,-10.84 c 0.05,-0.341 0.097,-0.683 0.143,-1.025 L 160.291,91.218 179.46,80.136 c -0.027,-0.248 -0.056,-0.497 -0.086,-0.745 L 160.295,68.36 174.851,59.94 c -0.062,-0.176 -0.123,-0.353 -0.186,-0.529 l -14.924,8.63 -19.05,-11.014 19.05,-11.013 12.409,7.175 c -0.131,-0.291 -0.267,-0.58 -0.4,-0.87 l -11.459,-6.627 5.991,-3.463 c -0.098,-0.156 -0.194,-0.313 -0.292,-0.468 l -6.249,3.614 -19.216,-11.11 13.314,-7.7 c -0.133,-0.135 -0.268,-0.27 -0.403,-0.404 L 139.972,33.945 120.817,22.871 137.23,13.38 c -0.177,-0.109 -0.353,-0.222 -0.53,-0.331 l -16.436,9.502 -19.045,-11.013 13.837,-7.99899 c -0.247,-0.072 -0.494,-0.143 -0.742,-0.212 L 100.664,11.218 81.899,0.368011 c -0.319,0.028 -0.64,0.052002 -0.959,0.085 L 100.111,11.538 81.066,22.551 61.851,11.441 80.839,0.461014 c -0.46,0.046997 -0.918,0.102997 -1.376,0.156997 L 61.3,11.119 54.588,7.24001 c -0.212,0.09 -0.421,0.184 -0.632,0.276 l 6.789,3.92499 -19.213,11.11 -6.54,-3.781 c -0.158,0.122 -0.318,0.241 -0.475,0.364 l 6.461,3.737 -19.152,11.074 -1.525,-0.882 c -0.118,0.145 -0.234,0.292 -0.351,0.437 l 1.323,0.765 -3.486,2.015 c -0.272,0.366 -0.539,0.735 -0.806,1.105 L 21.826,34.584 41.041,45.692 21.932,56.745 9.565,49.594 c -0.083,0.164 -0.164,0.33 -0.246,0.495 L 21.379,57.062 2.755,67.83 c -0.092,0.365 -0.18,0.732 -0.26799,1.099 L 21.273,79.791 2.09,90.881 0.00400543,89.676 C 0.00400543,89.784 0,89.892 0,90.001 c 0,0.104 0.00400543,0.207 0.00400543,0.311 L 1.539,91.199 0.0270004,92.074 c 0.0050049,0.209 0.0110016,0.419 0.0170059,0.628 L 2.09,91.519 21.245,102.592 3.008,113.136 c 0.04901,0.186 0.1,0.37 0.15,0.555 L 21.798,102.913 41.015,114.02 21.869,125.092 3.343,114.375 c 0.072,0.255 0.14701,0.509 0.22,0.764 l 17.755,10.271 -11.04,6.382 c 0.086,0.164 0.172,0.328 0.259,0.491 l 11.334,-6.554 19.045,11.016 -19.09,11.037 -1.581,-0.914 c 0.338,0.414 0.682,0.825 1.028,1.233 0.121,0.143 0.24,0.286 0.362,0.429 l 0.191,-0.112 19.215,11.114 -4.708,2.721 c 0.162,0.121 0.326,0.237 0.488,0.355 l 4.771,-2.759 19.155,11.073 -4.425,2.559 c 0.217,0.088 0.432,0.18 0.65,0.266 l 4.328,-2.502 12.684,7.334 c 0.518,0.092 1.039,0.176 1.56,0.26 l -13.693,-7.917 19.084,-11.03 19.179,11.093 -15.325,8.861 c 0.339,0.02 0.678,0.038 1.018,0.054 l 14.859,-8.595 10.637,6.153 c 0.261,-0.064 0.522,-0.125 0.78,-0.191 l -10.864,-6.282 19.164,-11.082 14.278,8.251 c 0.182,-0.105 0.364,-0.213 0.546,-0.32 l -14.273,-8.253 19.168,-11.084 11.807,6.826 c 0.139,-0.133 0.278,-0.266 0.417,-0.399 l -11.671,-6.752 19.148,-11.073 5.032,2.909 c 0.103,-0.153 0.203,-0.308 0.305,-0.463 l -4.784,-2.766 z m -29.97,-6.121 -19.153,-11.074 19.11,-11.047 19.152,11.075 z M 81.453,68.421 100.604,57.345 119.821,68.458 100.666,79.531 Z m 38.26,22.761 -19.109,11.05 L 81.557,91.22 100.666,80.168 Z M 100.114,79.851 81.003,90.899 61.79,79.791 80.9,68.741 Z m -0.061,22.7 L 80.9,113.627 61.851,102.614 81.003,91.536 Z m 0.551,0.321 19.217,11.107 -19.155,11.074 -19.213,-11.108 z m 0.553,-0.319 19.109,-11.05 19.213,11.111 -19.109,11.046 z m 19.662,-11.371 19.153,-11.074 19.215,11.11 -19.154,11.076 z m -0.553,-0.32 -19.047,-11.011 19.155,-11.074 19.047,11.014 z m -19.109,-33.835 19.217,-11.11 19.213,11.11 -19.213,11.109 z m -0.551,-0.321 -19.155,-11.074 19.215,-11.11 19.155,11.075 z M 100.053,57.027 80.9,68.101 61.745,57.027 80.898,45.952 Z M 61.192,56.706 42.145,45.692 61.3,34.619 80.345,45.632 Z M 80.347,68.421 61.237,79.469 42.084,68.395 61.192,57.345 Z M 60.685,79.791 41.534,90.862 22.376,79.791 41.532,68.715 Z M 61.237,80.108 80.451,91.22 61.3,102.294 42.084,91.182 Z M 80.347,113.945 61.168,125.032 42.119,114.02 61.3,102.932 Z M 80.386,136.779 61.231,147.855 42.02,136.747 61.168,125.67 Z M 61.721,125.353 80.9,114.264 l 19.214,11.111 -19.175,11.086 z m 38.945,0.342 19.155,11.073 -19.174,11.087 -19.157,-11.076 z m 0.553,-0.32 19.155,-11.078 19.151,11.078 -19.151,11.072 z m 77.672,-22.761 -19.15,11.071 -19.154,-11.071 19.154,-11.078 z M 159.743,68.678 178.956,79.791 159.741,90.899 140.525,79.791 Z M 159.19,68.36 139.972,79.469 120.925,68.458 140.14,57.345 Z M 159.187,45.692 140.14,56.706 120.925,45.597 139.972,34.584 Z M 139.421,34.265 120.374,45.28 101.219,34.202 120.264,23.188 Z M 100.666,11.858 119.713,22.871 100.666,33.884 81.619,22.871 Z M 100.114,34.202 80.9,45.314 61.851,34.301 81.066,23.188 Z M 61.3,11.758 80.516,22.871 61.3,33.981 42.084,22.871 Z M 22.376,34.265 41.532,23.188 60.747,34.301 41.592,45.375 Z M 41.592,46.014 60.639,57.027 41.532,68.075 22.485,57.062 Z M 2.77901,68.458 21.932,57.384 40.978,68.395 21.826,79.469 Z M 2.64301,91.199 21.826,80.106 40.981,91.182 21.798,102.275 Z M 22.351,102.592 41.534,91.503 60.747,102.614 41.566,113.703 Z m 0.071,22.818 19.144,-11.07 19.049,11.013 -19.148,11.074 z m -0.043,22.691 19.088,-11.037 19.213,11.108 -19.088,11.041 z m 38.921,22.504 -19.155,-11.073 19.086,-11.035 19.15,11.076 z m 0.484,-22.433 19.155,-11.073 19.155,11.073 -19.159,11.08 z m 38.882,22.494 -19.178,-11.091 19.159,-11.08 19.183,11.086 z m 19.714,-11.403 -19.18,-11.091 19.174,-11.084 19.177,11.084 z m 19.722,-11.408 -19.177,-11.087 19.153,-11.073 19.174,11.084 z"
           fill="#218095"
           id="path78203" />
      </g>
      <path
         d="m 384.59249,215.93443 45,22.334 v -44.667 l -45,-22.333 z"
         fill="#1f1f1f"
         id="path78766" />
      <path
         d="m 384.59249,171.26843 45,22.333 v 44.667 l -45,-22.334 z"
         stroke="#fa741c"
         id="path78768"
         style="fill:none" />
      <path
         d="m 428.59249,193.60243 v 44.667 l 45,-22.334 v -44.666 z"
         fill="#1f1f1f"
         id="path78770" />
      <path
         d="m 473.59249,171.26843 -45,22.333 v 44.667 l 45,-22.334 z"
         stroke="#fa741c"
         id="path78772"
         style="fill:none" />
      <path
         d="m 383.59249,170.76843 45,22.5 45,-22.5 -45,-22.5 z"
         fill="#1f1f1f"
         id="path78774" />
      <path
         d="m 383.59249,170.76843 45,22.5 45,-22.5 -45,-22.5 z"
         stroke="#fa741c"
         id="path78776"
         style="fill:none" />
      <path
         d="m 406.59249,166.36643 31.825,15.902 14.175,-7.097 -31.825,-15.903 z"
         fill="#1f1f1f"
         id="path78778" />
      <path
         d="m 406.59249,166.36643 31.825,15.902 14.175,-7.097 -31.825,-15.903 z"
         stroke="#fa741c"
         id="path78780"
         style="fill:none" />
      <path
         d="m 413.92549,141.09263 25,12.356 v 29.644 l -25,-12.356 z"
         fill="#1f1f1f"
         id="path78782" />
      <path
         d="m 413.92549,141.09263 25,12.356 v 29.644 l -25,-12.356 z"
         stroke="#fa741c"
         id="path78784"
         style="fill:none" />
      <path
         d="m 420.02549,160.73063 -1.9,0.8656 3.9456,6.6304 12.0544,-5.9824 -1.3144,-2.0176 -9.7904,5.1168 z"
         fill="#1f1f1f"
         id="path78786" />
      <path
         d="m 420.02549,160.73063 -1.9,0.8656 3.9456,6.6304 12.0544,-5.9824 -1.3144,-2.0176 -9.7904,5.1168 z"
         stroke="#fa741c"
         stroke-width="0.8"
         id="path78788"
         style="fill:none" />
      <path
         d="m 426.59249,103.26843 c 49.706,0 90,40.294 90,90 0,49.706 -40.294,90 -90,90 -49.706,0 -90,-40.294 -90,-90 0,-49.706 40.294,-90 90,-90 z"
         stroke="#fa741c"
         id="path78790"
         style="fill:none" />
    </g>
  </g>
</svg>
