<?xml version="1.0" encoding="UTF-8" standalone="no"?>
<!-- Created with Inkscape (http://www.inkscape.org/) -->

<svg
   width="47.889584mm"
   height="47.889584mm"
   viewBox="0 0 47.889584 47.889584"
   version="1.1"
   id="svg79060"
   inkscape:version="1.1.2 (b8e25be833, 2022-02-05)"
   sodipodi:docname="circle_grid_data.svg"
   xmlns:inkscape="http://www.inkscape.org/namespaces/inkscape"
   xmlns:sodipodi="http://sodipodi.sourceforge.net/DTD/sodipodi-0.dtd"
   xmlns="http://www.w3.org/2000/svg"
   xmlns:svg="http://www.w3.org/2000/svg">
  <sodipodi:namedview
     id="namedview79062"
     pagecolor="#505050"
     bordercolor="#ffffff"
     borderopacity="1"
     inkscape:pageshadow="0"
     inkscape:pageopacity="0"
     inkscape:pagecheckerboard="1"
     inkscape:document-units="mm"
     showgrid="false"
     fit-margin-top="0"
     fit-margin-left="0"
     fit-margin-right="0"
     fit-margin-bottom="0"
     inkscape:zoom="0.90583672"
     inkscape:cx="285.37152"
     inkscape:cy="303.03475"
     inkscape:window-width="1920"
     inkscape:window-height="1001"
     inkscape:window-x="-9"
     inkscape:window-y="-9"
     inkscape:window-maximized="1"
     inkscape:current-layer="layer1" />
  <defs
     id="defs79057" />
  <g
     inkscape:label="Layer 1"
     inkscape:groupmode="layer"
     id="layer1"
     transform="translate(-124.46179,-119.76775)">
    <g
       opacity="0.25"
       id="g79298"
       transform="matrix(0.26458333,0,0,0.26458333,124.3295,119.63546)"
       style="fill:none">
      <path
         d="m 171.048,132.174 c 0.155,-0.298 0.304,-0.6 0.454,-0.901 l -10.699,6.188 -19.173,-11.086 19.111,-11.047 14.195,8.206 c 0.067,-0.174 0.132,-0.349 0.198,-0.523 l -13.843,-8.004 18.748,-10.84 c 0.05,-0.341 0.097,-0.683 0.143,-1.025 L 161.291,92.218 180.46,81.136 c -0.027,-0.248 -0.056,-0.497 -0.086,-0.745 L 161.295,69.36 175.851,60.94 c -0.062,-0.176 -0.123,-0.353 -0.186,-0.529 l -14.924,8.63 -19.05,-11.014 19.05,-11.013 12.409,7.175 c -0.131,-0.291 -0.267,-0.58 -0.4,-0.87 l -11.459,-6.627 5.991,-3.463 c -0.098,-0.156 -0.194,-0.313 -0.292,-0.468 l -6.249,3.614 -19.216,-11.11 13.314,-7.7 c -0.133,-0.135 -0.268,-0.27 -0.403,-0.404 L 140.972,34.945 121.817,23.871 138.23,14.38 c -0.177,-0.109 -0.353,-0.222 -0.53,-0.331 l -16.436,9.502 -19.045,-11.013 13.837,-7.99899 c -0.247,-0.072 -0.494,-0.143 -0.742,-0.212 L 101.664,12.218 82.899,1.36801 c -0.319,0.028 -0.64,0.052 -0.959,0.085 L 101.111,12.538 82.066,23.551 62.851,12.441 81.839,1.46101 c -0.46,0.047 -0.918,0.103 -1.376,0.157 L 62.3,12.119 55.588,8.24001 c -0.212,0.09 -0.421,0.184 -0.632,0.276 l 6.789,3.92499 -19.213,11.11 -6.54,-3.781 c -0.158,0.122 -0.318,0.241 -0.475,0.364 l 6.461,3.737 -19.152,11.074 -1.525,-0.882 c -0.118,0.145 -0.234,0.292 -0.351,0.437 l 1.323,0.765 -3.486,2.015 c -0.272,0.366 -0.539,0.735 -0.806,1.105 L 22.826,35.584 42.041,46.692 22.932,57.745 10.565,50.594 c -0.083,0.164 -0.164,0.33 -0.246,0.495 L 22.379,58.062 3.755,68.83 c -0.092,0.365 -0.18,0.732 -0.26799,1.099 L 22.273,80.791 3.09,91.881 1.00401,90.676 C 1.00401,90.784 1,90.892 1,91.001 c 0,0.104 0.00401,0.207 0.00401,0.311 L 2.539,92.199 1.027,93.074 c 0.00501,0.209 0.011,0.419 0.01701,0.628 L 3.09,92.519 22.245,103.592 4.008,114.136 c 0.04901,0.186 0.1,0.37 0.15,0.555 L 22.798,103.913 42.015,115.02 22.869,126.092 4.343,115.375 c 0.072,0.255 0.14701,0.509 0.22,0.764 l 17.755,10.271 -11.04,6.382 c 0.086,0.164 0.172,0.328 0.259,0.491 l 11.334,-6.554 19.045,11.016 -19.09,11.037 -1.581,-0.914 c 0.338,0.414 0.682,0.825 1.028,1.233 0.121,0.143 0.24,0.286 0.362,0.429 l 0.191,-0.112 19.215,11.114 -4.708,2.721 c 0.162,0.121 0.326,0.237 0.488,0.355 l 4.771,-2.759 19.155,11.073 -4.425,2.559 c 0.217,0.088 0.432,0.18 0.65,0.266 l 4.328,-2.502 12.684,7.334 c 0.518,0.092 1.039,0.176 1.56,0.26 l -13.693,-7.917 19.084,-11.03 19.179,11.093 -15.325,8.861 c 0.339,0.02 0.678,0.038 1.018,0.054 l 14.859,-8.595 10.637,6.153 c 0.261,-0.064 0.522,-0.125 0.78,-0.191 l -10.864,-6.282 19.164,-11.082 14.278,8.251 c 0.182,-0.105 0.364,-0.213 0.546,-0.32 l -14.273,-8.253 19.168,-11.084 11.807,6.826 c 0.139,-0.133 0.278,-0.266 0.417,-0.399 l -11.671,-6.752 19.148,-11.073 5.032,2.909 c 0.103,-0.153 0.203,-0.308 0.305,-0.463 l -4.784,-2.766 z m -29.97,-6.121 -19.153,-11.074 19.11,-11.047 19.152,11.075 z M 82.453,69.421 101.604,58.345 120.821,69.458 101.666,80.531 Z m 38.26,22.761 -19.109,11.05 L 82.557,92.22 101.666,81.168 Z M 101.114,80.851 82.003,91.899 62.79,80.791 81.9,69.741 Z m -0.061,22.7 L 81.9,114.627 62.851,103.614 82.003,92.536 Z m 0.551,0.321 19.217,11.107 -19.155,11.074 -19.213,-11.108 z m 0.553,-0.319 19.109,-11.05 19.213,11.111 -19.109,11.046 z m 19.662,-11.371 19.153,-11.074 19.215,11.11 -19.154,11.076 z m -0.553,-0.32 -19.047,-11.011 19.155,-11.074 19.047,11.014 z m -19.109,-33.835 19.217,-11.11 19.213,11.11 -19.213,11.109 z m -0.551,-0.321 -19.155,-11.074 19.215,-11.11 19.155,11.075 z M 101.053,58.027 81.9,69.101 62.745,58.027 81.898,46.952 Z M 62.192,57.706 43.145,46.692 62.3,35.619 81.345,46.632 Z M 81.347,69.421 62.237,80.469 43.084,69.395 62.192,58.345 Z M 61.685,80.791 42.534,91.862 23.376,80.791 42.532,69.715 Z M 62.237,81.108 81.451,92.22 62.3,103.294 43.084,92.182 Z M 81.347,114.945 62.168,126.032 43.119,115.02 62.3,103.932 Z M 81.386,137.779 62.231,148.855 43.02,137.747 62.168,126.67 Z M 62.721,126.353 81.9,115.264 l 19.214,11.111 -19.175,11.086 z m 38.945,0.342 19.155,11.073 -19.174,11.087 -19.157,-11.076 z m 0.553,-0.32 19.155,-11.078 19.151,11.078 -19.151,11.072 z m 77.672,-22.761 -19.15,11.071 -19.154,-11.071 19.154,-11.078 z M 160.743,69.678 179.956,80.791 160.741,91.899 141.525,80.791 Z M 160.19,69.36 140.972,80.469 121.925,69.458 141.14,58.345 Z M 160.187,46.692 141.14,57.706 121.925,46.597 140.972,35.584 Z M 140.421,35.265 121.374,46.28 102.219,35.202 121.264,24.188 Z M 101.666,12.858 120.713,23.871 101.666,34.884 82.619,23.871 Z M 101.114,35.202 81.9,46.314 62.851,35.301 82.066,24.188 Z M 62.3,12.758 81.516,23.871 62.3,34.981 43.084,23.871 Z M 23.376,35.265 42.532,24.188 61.747,35.301 42.592,46.375 Z M 42.592,47.014 61.639,58.027 42.532,69.075 23.485,58.062 Z M 3.77901,69.458 22.932,58.384 41.978,69.395 22.826,80.469 Z M 3.64301,92.199 22.826,81.106 41.981,92.182 22.798,103.275 Z M 23.351,103.592 42.534,92.503 61.747,103.614 42.566,114.703 Z m 0.071,22.818 19.144,-11.07 19.049,11.013 -19.148,11.074 z m -0.043,22.691 19.088,-11.037 19.213,11.108 -19.088,11.041 z m 38.921,22.504 -19.155,-11.073 19.086,-11.035 19.15,11.076 z m 0.484,-22.433 19.155,-11.073 19.155,11.073 -19.159,11.08 z m 38.882,22.494 -19.178,-11.091 19.159,-11.08 19.183,11.086 z m 19.714,-11.403 -19.18,-11.091 19.174,-11.084 19.177,11.084 z m 19.722,-11.408 -19.177,-11.087 19.153,-11.073 19.174,11.084 z"
         fill="#218095"
         id="path79296" />
    </g>
    <path
       d="m 138.10079,149.96279 v 5.34538 l 4.62862,2.67282 v -5.34538 z"
       fill="#1f1f1f"
       id="path79300"
       style="stroke-width:0.264583" />
    <path
       d="m 138.10079,149.96279 v 5.34538 l 4.62862,2.67282 v -5.34538 z"
       stroke="#fa741c"
       id="path79302"
       style="fill:none;stroke-width:0.264583" />
    <path
       d="m 138.72204,154.94939 v -3.9108 l 3.38613,1.95527 v 3.9108 z"
       fill="#1f1f1f"
       id="path79304"
       style="stroke-width:0.264583" />
    <path
       d="m 138.72204,154.94939 v -3.9108 l 3.38613,1.95527 v 3.9108 z"
       stroke="#fa741c"
       id="path79306"
       style="fill:none;stroke-width:0.264583" />
    <path
       d="m 138.78104,154.91553 3.26787,1.887 v -3.77428 l -3.26787,-1.88727 z m 3.32713,2.0484 c -0.0103,0 -0.0204,-0.003 -0.0296,-0.008 l -3.38614,-1.95527 c -0.0182,-0.0106 -0.0294,-0.0302 -0.0294,-0.0511 v -3.91107 c 0,-0.0212 0.0111,-0.0405 0.0294,-0.0511 0.0183,-0.0106 0.041,-0.0106 0.059,0 l 3.38614,1.95554 c 0.0185,0.0106 0.0296,0.0299 0.0296,0.0511 v 3.91054 c 0,0.0212 -0.0111,0.041 -0.0296,0.0513 -0.009,0.005 -0.0191,0.008 -0.0294,0.008 z"
       fill="#1f1f1f"
       id="path79308"
       style="stroke-width:0.264583" />
    <path
       d="m 138.78104,154.91553 3.26787,1.887 v -3.77428 l -3.26787,-1.88727 z m 3.32713,2.0484 c -0.0103,0 -0.0204,-0.003 -0.0296,-0.008 l -3.38614,-1.95527 c -0.0182,-0.0106 -0.0294,-0.0302 -0.0294,-0.0511 v -3.91107 c 0,-0.0212 0.0111,-0.0405 0.0294,-0.0511 0.0183,-0.0106 0.041,-0.0106 0.059,0 l 3.38614,1.95554 c 0.0185,0.0106 0.0296,0.0299 0.0296,0.0511 v 3.91054 c 0,0.0212 -0.0111,0.041 -0.0296,0.0513 -0.009,0.005 -0.0191,0.008 -0.0294,0.008 z"
       stroke="#fa741c"
       id="path79310"
       style="fill:none;stroke-width:0.264583" />
    <path
       d="m 142.72915,152.63535 v 5.34537 l 4.62862,-2.67255 v -5.34538 z"
       fill="#1f1f1f"
       id="path79312"
       style="stroke-width:0.264583" />
    <path
       d="m 142.72915,152.63535 v 5.34537 l 4.62862,-2.67255 v -5.34538 z"
       stroke="#fa741c"
       id="path79314"
       style="fill:none;stroke-width:0.264583" />
    <path
       d="m 143.35039,152.99412 3.38614,-1.95527 v 3.91107 l -3.38614,1.95501 z"
       fill="#1f1f1f"
       id="path79316"
       style="stroke-width:0.264583" />
    <path
       d="m 143.35039,152.99412 3.38614,-1.95527 v 3.91107 l -3.38614,1.95501 z"
       stroke="#fa741c"
       id="path79318"
       style="fill:none;stroke-width:0.264583" />
    <path
       d="m 164.32762,134.81751 -4.6281,2.67309 4.6281,2.67255 4.62835,-2.67255 z"
       fill="#1f1f1f"
       id="path79320"
       style="stroke-width:0.264583" />
    <path
       d="m 164.32762,134.81751 -4.6281,2.67309 4.6281,2.67255 4.62835,-2.67255 z"
       stroke="#fa741c"
       id="path79322"
       style="fill:none;stroke-width:0.264583" />
    <path
       d="m 160.94148,137.49033 3.38614,-1.9558 3.38613,1.9558 -3.38613,1.95527 z"
       fill="#1f1f1f"
       id="path79324"
       style="stroke-width:0.264583" />
    <path
       d="m 160.94148,137.49033 3.38614,-1.9558 3.38613,1.9558 -3.38613,1.95527 z"
       stroke="#fa741c"
       id="path79326"
       style="fill:none;stroke-width:0.264583" />
    <path
       d="m 159.69926,137.49033 v 5.34538 l 4.62836,2.67256 v -5.34538 z"
       fill="#1f1f1f"
       id="path79328"
       style="stroke-width:0.264583" />
    <path
       d="m 159.69926,137.49033 v 5.34538 l 4.62836,2.67256 v -5.34538 z"
       stroke="#fa741c"
       id="path79330"
       style="fill:none;stroke-width:0.264583" />
    <path
       d="m 160.3205,142.47694 v -3.91081 l 3.3864,1.95553 v 3.91081 z"
       fill="#1f1f1f"
       id="path79332"
       style="stroke-width:0.264583" />
    <path
       d="m 160.3205,142.47694 v -3.91081 l 3.3864,1.95553 v 3.91081 z"
       stroke="#fa741c"
       id="path79334"
       style="fill:none;stroke-width:0.264583" />
    <path
       d="m 160.3795,142.44307 3.26787,1.88701 v -3.77455 l -3.26787,-1.88674 z m 3.32714,2.0484 c -0.0103,0 -0.0204,-0.003 -0.0296,-0.008 l -3.38614,-1.95528 c -0.0183,-0.0106 -0.0294,-0.0302 -0.0294,-0.0511 v -3.91107 c 0,-0.0212 0.0111,-0.0405 0.0294,-0.0508 0.018,-0.0106 0.0407,-0.0106 0.059,0 l 3.38614,1.95527 c 0.0182,0.0106 0.0296,0.0299 0.0296,0.0508 v 3.91081 c 0,0.0212 -0.0114,0.041 -0.0296,0.0513 -0.009,0.005 -0.0193,0.008 -0.0294,0.008 z"
       fill="#1f1f1f"
       id="path79336"
       style="stroke-width:0.264583" />
    <path
       d="m 160.3795,142.44307 3.26787,1.88701 v -3.77455 l -3.26787,-1.88674 z m 3.32714,2.0484 c -0.0103,0 -0.0204,-0.003 -0.0296,-0.008 l -3.38614,-1.95528 c -0.0183,-0.0106 -0.0294,-0.0302 -0.0294,-0.0511 v -3.91107 c 0,-0.0212 0.0111,-0.0405 0.0294,-0.0508 0.018,-0.0106 0.0407,-0.0106 0.059,0 l 3.38614,1.95527 c 0.0182,0.0106 0.0296,0.0299 0.0296,0.0508 v 3.91081 c 0,0.0212 -0.0114,0.041 -0.0296,0.0513 -0.009,0.005 -0.0193,0.008 -0.0294,0.008 z"
       stroke="#fa741c"
       id="path79338"
       style="fill:none;stroke-width:0.264583" />
    <path
       d="m 164.32762,140.16289 v 5.34538 l 4.62835,-2.67256 v -5.34538 z"
       fill="#1f1f1f"
       id="path79340"
       style="stroke-width:0.264583" />
    <path
       d="m 164.32762,140.16289 v 5.34538 l 4.62835,-2.67256 v -5.34538 z"
       stroke="#fa741c"
       id="path79342"
       style="fill:none;stroke-width:0.264583" />
    <path
       d="m 164.94886,140.52166 3.38614,-1.95553 v 3.91081 l -3.38614,1.95553 z"
       fill="#1f1f1f"
       id="path79344"
       style="stroke-width:0.264583" />
    <path
       d="m 164.94886,140.52166 3.38614,-1.95553 v 3.91081 l -3.38614,1.95553 z"
       stroke="#fa741c"
       id="path79346"
       style="fill:none;stroke-width:0.264583" />
    <path
       d="m 164.32762,140.047 -4.42728,-2.5564 4.42728,-2.55693 4.427,2.55693 z m 0,-5.22949 -4.6281,2.67309 4.6281,2.67255 4.62835,-2.67255 z"
       fill="#1f1f1f"
       id="path79348"
       style="stroke-width:0.264583" />
    <path
       d="m 164.32762,140.047 -4.42728,-2.5564 4.42728,-2.55693 4.427,2.55693 z m 0,-5.22949 -4.6281,2.67309 4.6281,2.67255 4.62835,-2.67255 z"
       stroke="#fa741c"
       id="path79350"
       style="fill:none;stroke-width:0.264583" />
    <path
       d="m 164.22681,145.33417 -4.42701,-2.55667 v -5.11307 l 4.42701,2.55667 z m -4.52755,-7.84384 v 5.34538 l 4.62836,2.67256 v -5.34512 z"
       fill="#1f1f1f"
       id="path79352"
       style="stroke-width:0.264583" />
    <path
       d="m 164.22681,145.33417 -4.42701,-2.55667 v -5.11307 l 4.42701,2.55667 z m -4.52755,-7.84384 v 5.34538 l 4.62836,2.67256 v -5.34512 z"
       stroke="#fa741c"
       id="path79354"
       style="fill:none;stroke-width:0.264583" />
    <path
       d="m 168.85543,142.7775 -4.42754,2.55694 v -5.11361 l 4.42754,-2.55666 z m -4.52781,-2.61461 v 5.34538 l 4.62835,-2.67256 v -5.34564 z"
       fill="#1f1f1f"
       id="path79356"
       style="stroke-width:0.264583" />
    <path
       d="m 168.85543,142.7775 -4.42754,2.55694 v -5.11361 l 4.42754,-2.55666 z m -4.52781,-2.61461 v 5.34538 l 4.62835,-2.67256 v -5.34564 z"
       stroke="#fa741c"
       id="path79358"
       style="fill:none;stroke-width:0.264583" />
    <path
       d="m 161.24205,140.16289 -1.54253,0.89085 -1.54278,0.89059 -1.54279,0.89138 1.54279,0.89085 1.54278,-0.89085 1.54253,-0.89138 1.54305,-0.89059 z"
       fill="#1f1f1f"
       id="path79360"
       style="stroke-width:0.264583" />
    <path
       d="m 161.24205,140.16289 -1.54253,0.89085 -1.54278,0.89059 -1.54279,0.89138 1.54279,0.89085 1.54278,-0.89085 1.54253,-0.89138 1.54305,-0.89059 z"
       stroke="#fa741c"
       id="path79362"
       style="fill:none;stroke-width:0.264583" />
    <path
       d="m 161.24205,141.94459 -1.54253,0.89086 -1.54305,0.89085 v 1.78197 l 1.54305,-0.89086 1.54253,-0.89111 1.54278,-0.89085 v -1.78171 z"
       fill="#1f1f1f"
       id="path79364"
       style="stroke-width:0.264583" />
    <path
       d="m 161.24205,141.94459 -1.54253,0.89086 -1.54305,0.89085 v 1.78197 l 1.54305,-0.89086 1.54253,-0.89111 1.54278,-0.89085 v -1.78171 z"
       stroke="#fa741c"
       id="path79366"
       style="fill:none;stroke-width:0.264583" />
    <path
       d="m 153.52865,141.05374 -4.62862,2.67309 4.62862,2.67255 4.62809,-2.67255 z"
       fill="#1f1f1f"
       id="path79368"
       style="stroke-width:0.264583" />
    <path
       d="m 153.52865,141.05374 -4.62862,2.67309 4.62862,2.67255 4.62809,-2.67255 z"
       stroke="#fa741c"
       id="path79370"
       style="fill:none;stroke-width:0.264583" />
    <path
       d="m 150.14251,143.7263 3.38614,-1.95527 3.38614,1.95527 -3.38614,1.9558 z"
       fill="#1f1f1f"
       id="path79372"
       style="stroke-width:0.264583" />
    <path
       d="m 150.14251,143.7263 3.38614,-1.95527 3.38614,1.95527 -3.38614,1.9558 z"
       stroke="#fa741c"
       id="path79374"
       style="fill:none;stroke-width:0.264583" />
    <path
       d="m 148.90003,143.7263 v 5.34564 l 4.62862,2.67256 v -5.34538 z"
       fill="#1f1f1f"
       id="path79376"
       style="stroke-width:0.264583" />
    <path
       d="m 148.90003,143.7263 v 5.34564 l 4.62862,2.67256 v -5.34538 z"
       stroke="#fa741c"
       id="path79378"
       style="fill:none;stroke-width:0.264583" />
    <path
       d="m 149.52127,148.71316 v -3.9108 l 3.38614,1.95553 v 3.91081 z"
       fill="#1f1f1f"
       id="path79380"
       style="stroke-width:0.264583" />
    <path
       d="m 149.52127,148.71316 v -3.9108 l 3.38614,1.95553 v 3.91081 z"
       stroke="#fa741c"
       id="path79382"
       style="fill:none;stroke-width:0.264583" />
    <path
       d="m 149.58001,148.6793 3.26813,1.88701 v -3.77455 l -3.26813,-1.88727 z m 3.32713,2.0484 c -0.0103,0 -0.0201,-0.003 -0.0291,-0.008 l -3.38667,-1.95527 c -0.0183,-0.0106 -0.0294,-0.0299 -0.0294,-0.0511 v -3.91107 c 0,-0.0209 0.0111,-0.0408 0.0294,-0.0513 0.0183,-0.0103 0.041,-0.0103 0.059,0 l 3.38614,1.9558 c 0.0185,0.0106 0.0299,0.0299 0.0299,0.0508 v 3.91081 c 0,0.0212 -0.0114,0.041 -0.0299,0.0513 -0.009,0.005 -0.0193,0.008 -0.0294,0.008 z"
       fill="#1f1f1f"
       id="path79384"
       style="stroke-width:0.264583" />
    <path
       d="m 149.58001,148.6793 3.26813,1.88701 v -3.77455 l -3.26813,-1.88727 z m 3.32713,2.0484 c -0.0103,0 -0.0201,-0.003 -0.0291,-0.008 l -3.38667,-1.95527 c -0.0183,-0.0106 -0.0294,-0.0299 -0.0294,-0.0511 v -3.91107 c 0,-0.0209 0.0111,-0.0408 0.0294,-0.0513 0.0183,-0.0103 0.041,-0.0103 0.059,0 l 3.38614,1.9558 c 0.0185,0.0106 0.0299,0.0299 0.0299,0.0508 v 3.91081 c 0,0.0212 -0.0114,0.041 -0.0299,0.0513 -0.009,0.005 -0.0193,0.008 -0.0294,0.008 z"
       stroke="#fa741c"
       id="path79386"
       style="fill:none;stroke-width:0.264583" />
    <path
       d="m 153.52838,146.39912 v 5.34538 l 4.62809,-2.67256 v -5.34564 z"
       fill="#1f1f1f"
       id="path79388"
       style="stroke-width:0.264583" />
    <path
       d="m 153.52838,146.39912 v 5.34538 l 4.62809,-2.67256 v -5.34564 z"
       stroke="#fa741c"
       id="path79390"
       style="fill:none;stroke-width:0.264583" />
    <path
       d="m 154.14936,146.75789 3.38667,-1.95553 v 3.91107 l -3.38667,1.95527 z"
       fill="#1f1f1f"
       id="path79392"
       style="stroke-width:0.264583" />
    <path
       d="m 154.14936,146.75789 3.38667,-1.95553 v 3.91107 l -3.38667,1.95527 z"
       stroke="#fa741c"
       id="path79394"
       style="fill:none;stroke-width:0.264583" />
    <path
       d="m 153.52812,146.28323 -4.42674,-2.5564 4.42674,-2.55694 4.4278,2.55694 z m 5.3e-4,-5.22949 -4.62862,2.67309 4.62862,2.67255 4.62809,-2.67255 z"
       fill="#1f1f1f"
       id="path79396"
       style="stroke-width:0.264583" />
    <path
       d="m 153.52812,146.28323 -4.42674,-2.5564 4.42674,-2.55694 4.4278,2.55694 z m 5.3e-4,-5.22949 -4.62862,2.67309 4.62862,2.67255 4.62809,-2.67255 z"
       stroke="#fa741c"
       id="path79398"
       style="fill:none;stroke-width:0.264583" />
    <path
       d="m 153.42811,151.57014 -4.42754,-2.55641 v -5.11334 l 4.42754,2.55694 z m -4.52808,-7.84384 v 5.34564 l 4.62862,2.67256 v -5.34538 z"
       fill="#1f1f1f"
       id="path79400"
       style="stroke-width:0.264583" />
    <path
       d="m 153.42811,151.57014 -4.42754,-2.55641 v -5.11334 l 4.42754,2.55694 z m -4.52808,-7.84384 v 5.34564 l 4.62862,2.67256 v -5.34538 z"
       stroke="#fa741c"
       id="path79402"
       style="fill:none;stroke-width:0.264583" />
    <path
       d="m 158.0562,149.01373 -4.42754,2.55693 v -5.1136 l 4.42754,-2.55667 z m -4.52782,-2.61461 v 5.34538 l 4.62809,-2.67256 v -5.34564 z"
       fill="#1f1f1f"
       id="path79404"
       style="stroke-width:0.264583" />
    <path
       d="m 158.0562,149.01373 -4.42754,2.55693 v -5.1136 l 4.42754,-2.55667 z m -4.52782,-2.61461 v 5.34538 l 4.62809,-2.67256 v -5.34564 z"
       stroke="#fa741c"
       id="path79406"
       style="fill:none;stroke-width:0.264583" />
    <path
       d="m 150.44281,146.39938 -1.54278,0.89086 -1.54252,0.89058 -1.54305,0.89138 1.54305,0.89086 1.54252,-0.89086 1.54278,-0.89138 1.54279,-0.89058 z"
       fill="#1f1f1f"
       id="path79408"
       style="stroke-width:0.264583" />
    <path
       d="m 150.44281,146.39938 -1.54278,0.89086 -1.54252,0.89058 -1.54305,0.89138 1.54305,0.89086 1.54252,-0.89086 1.54278,-0.89138 1.54279,-0.89058 z"
       stroke="#fa741c"
       id="path79410"
       style="fill:none;stroke-width:0.264583" />
    <path
       d="m 150.44281,148.18109 -1.54278,0.89085 -1.54252,0.89085 v 1.78197 l 1.54252,-0.89085 1.54278,-0.89112 1.54279,-0.89085 v -1.7817 z"
       fill="#1f1f1f"
       id="path79412"
       style="stroke-width:0.264583" />
    <path
       d="m 150.44281,148.18109 -1.54278,0.89085 -1.54252,0.89085 v 1.78197 l 1.54252,-0.89085 1.54278,-0.89112 1.54279,-0.89085 v -1.7817 z"
       stroke="#fa741c"
       id="path79414"
       style="fill:none;stroke-width:0.264583" />
    <path
       d="m 142.72941,147.28997 -4.62835,2.67309 4.62835,2.67255 4.62836,-2.67255 z"
       fill="#1f1f1f"
       id="path79416"
       style="stroke-width:0.264583" />
    <path
       d="m 142.72941,147.28997 -4.62835,2.67309 4.62835,2.67255 4.62836,-2.67255 z"
       stroke="#fa741c"
       id="path79418"
       style="fill:none;stroke-width:0.264583" />
    <path
       d="m 139.34301,149.96279 3.38588,-1.95553 3.3864,1.95553 -3.3864,1.95554 z"
       fill="#1f1f1f"
       id="path79420"
       style="stroke-width:0.264583" />
    <path
       d="m 139.34301,149.96279 3.38588,-1.95553 3.3864,1.95553 -3.3864,1.95554 z"
       stroke="#fa741c"
       id="path79422"
       style="fill:none;stroke-width:0.264583" />
    <path
       d="m 142.72889,152.51946 -4.42728,-2.55667 4.42728,-2.55693 4.4278,2.55693 z m 0,-5.22949 -4.62783,2.67282 4.62783,2.67229 4.62862,-2.67229 z"
       fill="#1f1f1f"
       id="path79424"
       style="stroke-width:0.264583" />
    <path
       d="m 142.72889,152.51946 -4.42728,-2.55667 4.42728,-2.55693 4.4278,2.55693 z m 0,-5.22949 -4.62783,2.67282 4.62783,2.67229 4.62862,-2.67229 z"
       stroke="#fa741c"
       id="path79426"
       style="fill:none;stroke-width:0.264583" />
    <path
       d="m 142.62887,157.80663 -4.4278,-2.55667 v -5.11334 l 4.4278,2.55667 z m -4.52808,-7.84384 v 5.34538 l 4.62862,2.67282 v -5.34538 z"
       fill="#1f1f1f"
       id="path79428"
       style="stroke-width:0.264583" />
    <path
       d="m 142.62887,157.80663 -4.4278,-2.55667 v -5.11334 l 4.4278,2.55667 z m -4.52808,-7.84384 v 5.34538 l 4.62862,2.67282 v -5.34538 z"
       stroke="#fa741c"
       id="path79430"
       style="fill:none;stroke-width:0.264583" />
    <path
       d="m 147.25723,155.24996 -4.4278,2.55667 v -5.11307 l 4.4278,-2.55641 z m -4.52808,-2.61461 v 5.34537 l 4.62862,-2.67255 v -5.34538 z"
       fill="#1f1f1f"
       id="path79432"
       style="stroke-width:0.264583" />
    <path
       d="m 147.25723,155.24996 -4.4278,2.55667 v -5.11307 l 4.4278,-2.55641 z m -4.52808,-2.61461 v 5.34537 l 4.62862,-2.67255 v -5.34538 z"
       stroke="#fa741c"
       id="path79434"
       style="fill:none;stroke-width:0.264583" />
    <path
       d="m 127.61933,143.58332 v 5.33675 l 4.62121,2.66859 v -5.33691 z"
       fill="#1f1f1f"
       id="path79436"
       style="stroke-width:0.264583" />
    <path
       d="m 127.61933,143.58332 v 5.33675 l 4.62121,2.66859 v -5.33691 z"
       stroke="#fa741c"
       stroke-width="0.264159"
       id="path79438"
       style="fill:none" />
    <path
       d="m 128.23956,148.56182 v -3.90445 l 3.38072,1.95209 v 3.90472 z"
       fill="#1f1f1f"
       id="path79440"
       style="stroke-width:0.264583" />
    <path
       d="m 128.23956,148.56182 v -3.90445 l 3.38072,1.95209 v 3.90472 z"
       stroke="#fa741c"
       stroke-width="0.264159"
       id="path79442"
       style="fill:none" />
    <path
       d="m 128.29848,148.52822 3.26263,1.88383 v -3.76819 l -3.26263,-1.88426 z m 3.3218,2.04497 c -0.0103,0 -0.0203,-0.003 -0.0296,-0.008 l -3.38071,-1.9521 c -0.0182,-0.0106 -0.0293,-0.0302 -0.0293,-0.0511 v -3.9047 c 0,-0.0211 0.0111,-0.0404 0.0293,-0.051 0.0182,-0.0106 0.041,-0.0106 0.0589,0 l 3.38072,1.95252 c 0.0185,0.0103 0.0296,0.0296 0.0296,0.0508 v 3.90445 c 0,0.0209 -0.0111,0.0408 -0.0296,0.0511 -0.009,0.005 -0.019,0.008 -0.0293,0.008 z"
       fill="#1f1f1f"
       id="path79444"
       style="stroke-width:0.264583" />
    <path
       d="m 128.29848,148.52822 3.26263,1.88383 v -3.76819 l -3.26263,-1.88426 z m 3.3218,2.04497 c -0.0103,0 -0.0203,-0.003 -0.0296,-0.008 l -3.38071,-1.9521 c -0.0182,-0.0106 -0.0293,-0.0302 -0.0293,-0.0511 v -3.9047 c 0,-0.0211 0.0111,-0.0404 0.0293,-0.051 0.0182,-0.0106 0.041,-0.0106 0.0589,0 l 3.38072,1.95252 c 0.0185,0.0103 0.0296,0.0296 0.0296,0.0508 v 3.90445 c 0,0.0209 -0.0111,0.0408 -0.0296,0.0511 -0.009,0.005 -0.019,0.008 -0.0293,0.008 z"
       stroke="#fa741c"
       stroke-width="0.264159"
       id="path79446"
       style="fill:none" />
    <path
       d="m 132.24027,146.25148 v 5.33691 l 4.62122,-2.66832 v -5.33675 z"
       fill="#1f1f1f"
       id="path79448"
       style="stroke-width:0.264583" />
    <path
       d="m 132.24027,146.25148 v 5.33691 l 4.62122,-2.66832 v -5.33675 z"
       stroke="#fa741c"
       stroke-width="0.264159"
       id="path79450"
       style="fill:none" />
    <path
       d="m 132.86051,146.60973 3.38071,-1.95207 v 3.90469 l -3.38071,1.9521 z"
       fill="#1f1f1f"
       id="path79452"
       style="stroke-width:0.264583" />
    <path
       d="m 132.86051,146.60973 3.38071,-1.95207 v 3.90469 l -3.38071,1.9521 z"
       stroke="#fa741c"
       stroke-width="0.264159"
       id="path79454"
       style="fill:none" />
    <path
       d="m 153.80408,128.4623 -4.62063,2.6688 4.62063,2.66827 4.62095,-2.66827 z"
       fill="#1f1f1f"
       id="path79456"
       style="stroke-width:0.264583" />
    <path
       d="m 153.80408,128.4623 -4.62063,2.6688 4.62063,2.66827 4.62095,-2.66827 z"
       stroke="#fa741c"
       stroke-width="0.264159"
       id="path79458"
       style="fill:none" />
    <path
       d="m 150.42342,131.13084 3.38066,-1.95268 3.38084,1.95268 -3.38084,1.95212 z"
       fill="#1f1f1f"
       id="path79460"
       style="stroke-width:0.264583" />
    <path
       d="m 150.42342,131.13084 3.38066,-1.95268 3.38084,1.95268 -3.38084,1.95212 z"
       stroke="#fa741c"
       stroke-width="0.264159"
       id="path79462"
       style="fill:none" />
    <path
       d="m 149.18318,131.13084 v 5.3368 l 4.6209,2.66827 v -5.3368 z"
       fill="#1f1f1f"
       id="path79464"
       style="stroke-width:0.264583" />
    <path
       d="m 149.18318,131.13084 v 5.3368 l 4.6209,2.66827 v -5.3368 z"
       stroke="#fa741c"
       stroke-width="0.264159"
       id="path79466"
       style="fill:none" />
    <path
       d="m 149.80345,136.10945 v -3.90454 l 3.38097,1.95239 v 3.90453 z"
       fill="#1f1f1f"
       id="path79468"
       style="stroke-width:0.264583" />
    <path
       d="m 149.80345,136.10945 v -3.90454 l 3.38097,1.95239 v 3.90453 z"
       stroke="#fa741c"
       stroke-width="0.264159"
       id="path79470"
       style="fill:none" />
    <path
       d="m 149.86234,136.07563 3.26255,1.884 v -3.76852 l -3.26255,-1.88373 z m 3.32182,2.04513 c -0.0103,0 -0.0204,-0.003 -0.0296,-0.008 l -3.38069,-1.95212 c -0.0182,-0.0106 -0.0293,-0.0301 -0.0293,-0.051 v -3.9048 c 0,-0.0211 0.0111,-0.0404 0.0293,-0.0507 0.018,-0.0106 0.0407,-0.0106 0.0589,0 l 3.38077,1.95212 c 0.0183,0.0106 0.0296,0.0299 0.0296,0.0507 v 3.90454 c 0,0.0211 -0.0114,0.041 -0.0296,0.0512 -0.009,0.005 -0.0193,0.008 -0.0294,0.008 z"
       fill="#1f1f1f"
       id="path79472"
       style="stroke-width:0.264583" />
    <path
       d="m 149.86234,136.07563 3.26255,1.884 v -3.76852 l -3.26255,-1.88373 z m 3.32182,2.04513 c -0.0103,0 -0.0204,-0.003 -0.0296,-0.008 l -3.38069,-1.95212 c -0.0182,-0.0106 -0.0293,-0.0301 -0.0293,-0.051 v -3.9048 c 0,-0.0211 0.0111,-0.0404 0.0293,-0.0507 0.018,-0.0106 0.0407,-0.0106 0.0589,0 l 3.38077,1.95212 c 0.0183,0.0106 0.0296,0.0299 0.0296,0.0507 v 3.90454 c 0,0.0211 -0.0114,0.041 -0.0296,0.0512 -0.009,0.005 -0.0193,0.008 -0.0294,0.008 z"
       stroke="#fa741c"
       stroke-width="0.264159"
       id="path79474"
       style="fill:none" />
    <path
       d="m 153.80408,133.79911 v 5.3368 l 4.62095,-2.66827 v -5.3368 z"
       fill="#1f1f1f"
       id="path79476"
       style="stroke-width:0.264583" />
    <path
       d="m 153.80408,133.79911 v 5.3368 l 4.62095,-2.66827 v -5.3368 z"
       stroke="#fa741c"
       stroke-width="0.264159"
       id="path79478"
       style="fill:none" />
    <path
       d="m 154.42426,134.1573 3.38085,-1.95239 v 3.90454 l -3.38085,1.95238 z"
       fill="#1f1f1f"
       id="path79480"
       style="stroke-width:0.264583" />
    <path
       d="m 154.42426,134.1573 3.38085,-1.95239 v 3.90454 l -3.38085,1.95238 z"
       stroke="#fa741c"
       stroke-width="0.264159"
       id="path79482"
       style="fill:none" />
    <path
       d="m 153.80408,133.6834 -4.42013,-2.5523 4.42013,-2.55283 4.41986,2.55283 z m 0,-5.2211 -4.62063,2.6688 4.62063,2.66827 4.62095,-2.66827 z"
       fill="#1f1f1f"
       id="path79484"
       style="stroke-width:0.264583" />
    <path
       d="m 153.80408,133.6834 -4.42013,-2.5523 4.42013,-2.55283 4.41986,2.55283 z m 0,-5.2211 -4.62063,2.6688 4.62063,2.66827 4.62095,-2.66827 z"
       stroke="#fa741c"
       stroke-width="0.264159"
       id="path79486"
       style="fill:none" />
    <path
       d="m 153.70354,138.96211 -4.41997,-2.55257 v -5.1049 l 4.41997,2.55257 z m -4.52036,-7.83127 v 5.3368 l 4.6209,2.66827 v -5.33654 z"
       fill="#1f1f1f"
       id="path79488"
       style="stroke-width:0.264583" />
    <path
       d="m 153.70354,138.96211 -4.41997,-2.55257 v -5.1049 l 4.41997,2.55257 z m -4.52036,-7.83127 v 5.3368 l 4.6209,2.66827 v -5.33654 z"
       stroke="#fa741c"
       stroke-width="0.264159"
       id="path79490"
       style="fill:none" />
    <path
       d="m 158.32475,136.40954 -4.42039,2.55283 v -5.10543 l 4.42039,-2.55256 z m -4.52067,-2.61043 v 5.3368 l 4.62095,-2.66827 v -5.33707 z"
       fill="#1f1f1f"
       id="path79492"
       style="stroke-width:0.264583" />
    <path
       d="m 158.32475,136.40954 -4.42039,2.55283 v -5.10543 l 4.42039,-2.55256 z m -4.52067,-2.61043 v 5.3368 l 4.62095,-2.66827 v -5.33707 z"
       stroke="#fa741c"
       stroke-width="0.264159"
       id="path79494"
       style="fill:none" />
    <path
       d="m 150.72351,133.79911 -1.54006,0.88942 -1.5403,0.88916 -1.54032,0.88995 1.54032,0.88942 1.5403,-0.88942 1.54006,-0.88995 1.54069,-0.88916 z"
       fill="#1f1f1f"
       id="path79496"
       style="stroke-width:0.264583" />
    <path
       d="m 150.72351,133.79911 -1.54006,0.88942 -1.5403,0.88916 -1.54032,0.88995 1.54032,0.88942 1.5403,-0.88942 1.54006,-0.88995 1.54069,-0.88916 z"
       stroke="#fa741c"
       stroke-width="0.264159"
       id="path79498"
       style="fill:none" />
    <path
       d="m 150.72351,135.57795 -1.54006,0.88943 -1.54056,0.88942 v 1.77911 l 1.54056,-0.88942 1.54006,-0.88969 1.54043,-0.88942 v -1.77885 z"
       fill="#1f1f1f"
       id="path79500"
       style="stroke-width:0.264583" />
    <path
       d="m 150.72351,135.57795 -1.54006,0.88943 -1.54056,0.88942 v 1.77911 l 1.54056,-0.88942 1.54006,-0.88969 1.54043,-0.88942 v -1.77885 z"
       stroke="#fa741c"
       stroke-width="0.264159"
       id="path79502"
       style="fill:none" />
    <path
       d="m 143.02247,134.68853 -4.62122,2.6688 4.62122,2.66827 4.62068,-2.66827 z"
       fill="#1f1f1f"
       id="path79504"
       style="stroke-width:0.264583" />
    <path
       d="m 143.02247,134.68853 -4.62122,2.6688 4.62122,2.66827 4.62068,-2.66827 z"
       stroke="#fa741c"
       stroke-width="0.264159"
       id="path79506"
       style="fill:none" />
    <path
       d="m 139.64175,137.3568 3.38072,-1.95212 3.38071,1.95212 -3.38071,1.95268 z"
       fill="#1f1f1f"
       id="path79508"
       style="stroke-width:0.264583" />
    <path
       d="m 139.64175,137.3568 3.38072,-1.95212 3.38071,1.95212 -3.38071,1.95268 z"
       stroke="#fa741c"
       stroke-width="0.264159"
       id="path79510"
       style="fill:none" />
    <path
       d="m 138.40125,137.3568 v 5.33709 l 4.62122,2.66827 v -5.33683 z"
       fill="#1f1f1f"
       id="path79512"
       style="stroke-width:0.264583" />
    <path
       d="m 138.40125,137.3568 v 5.33709 l 4.62122,2.66827 v -5.33683 z"
       stroke="#fa741c"
       stroke-width="0.264159"
       id="path79514"
       style="fill:none" />
    <path
       d="m 139.02152,142.33567 v -3.90453 l 3.38071,1.95241 v 3.90454 z"
       fill="#1f1f1f"
       id="path79516"
       style="stroke-width:0.264583" />
    <path
       d="m 139.02152,142.33567 v -3.90453 l 3.38071,1.95241 v 3.90454 z"
       stroke="#fa741c"
       stroke-width="0.264159"
       id="path79518"
       style="fill:none" />
    <path
       d="m 139.08015,142.30186 3.26289,1.88399 v -3.76848 l -3.26289,-1.88426 z m 3.32179,2.04512 c -0.0103,0 -0.0201,-0.003 -0.0291,-0.008 l -3.38124,-1.95215 c -0.0182,-0.0105 -0.0293,-0.0298 -0.0293,-0.051 v -3.9048 c 0,-0.0209 0.0111,-0.0407 0.0293,-0.0512 0.0182,-0.0103 0.041,-0.0103 0.0589,0 l 3.38071,1.95268 c 0.0185,0.0105 0.0299,0.0298 0.0299,0.0507 v 3.90453 c 0,0.0211 -0.0113,0.0409 -0.0299,0.0513 -0.009,0.005 -0.0193,0.008 -0.0293,0.008 z"
       fill="#1f1f1f"
       id="path79520"
       style="stroke-width:0.264583" />
    <path
       d="m 139.08015,142.30186 3.26289,1.88399 v -3.76848 l -3.26289,-1.88426 z m 3.32179,2.04512 c -0.0103,0 -0.0201,-0.003 -0.0291,-0.008 l -3.38124,-1.95215 c -0.0182,-0.0105 -0.0293,-0.0298 -0.0293,-0.051 v -3.9048 c 0,-0.0209 0.0111,-0.0407 0.0293,-0.0512 0.0182,-0.0103 0.041,-0.0103 0.0589,0 l 3.38071,1.95268 c 0.0185,0.0105 0.0299,0.0298 0.0299,0.0507 v 3.90453 c 0,0.0211 -0.0113,0.0409 -0.0299,0.0513 -0.009,0.005 -0.0193,0.008 -0.0293,0.008 z"
       stroke="#fa741c"
       stroke-width="0.264159"
       id="path79522"
       style="fill:none" />
    <path
       d="m 143.0222,140.02533 v 5.33683 l 4.62069,-2.66827 v -5.33709 z"
       fill="#1f1f1f"
       id="path79524"
       style="stroke-width:0.264583" />
    <path
       d="m 143.0222,140.02533 v 5.33683 l 4.62069,-2.66827 v -5.33709 z"
       stroke="#fa741c"
       stroke-width="0.264159"
       id="path79526"
       style="fill:none" />
    <path
       d="m 143.64217,140.38355 3.38125,-1.95241 v 3.9048 l -3.38125,1.95215 z"
       fill="#1f1f1f"
       id="path79528"
       style="stroke-width:0.264583" />
    <path
       d="m 143.64217,140.38355 3.38125,-1.95241 v 3.9048 l -3.38125,1.95215 z"
       stroke="#fa741c"
       stroke-width="0.264159"
       id="path79530"
       style="fill:none" />
    <path
       d="m 143.02194,139.90963 -4.41965,-2.5523 4.41965,-2.55283 4.42071,2.55283 z m 5.3e-4,-5.2211 -4.62122,2.6688 4.62122,2.66827 4.62068,-2.66827 z"
       fill="#1f1f1f"
       id="path79532"
       style="stroke-width:0.264583" />
    <path
       d="m 143.02194,139.90963 -4.41965,-2.5523 4.41965,-2.55283 4.42071,2.55283 z m 5.3e-4,-5.2211 -4.62122,2.6688 4.62122,2.66827 4.62068,-2.66827 z"
       stroke="#fa741c"
       stroke-width="0.264159"
       id="path79534"
       style="fill:none" />
    <path
       d="m 142.92208,145.18807 -4.42044,-2.55231 v -5.10513 l 4.42044,2.55283 z m -4.52083,-7.83127 v 5.33709 l 4.62122,2.66827 v -5.33683 z"
       fill="#1f1f1f"
       id="path79536"
       style="stroke-width:0.264583" />
    <path
       d="m 142.92208,145.18807 -4.42044,-2.55231 v -5.10513 l 4.42044,2.55283 z m -4.52083,-7.83127 v 5.33709 l 4.62122,2.66827 v -5.33683 z"
       stroke="#fa741c"
       stroke-width="0.264159"
       id="path79538"
       style="fill:none" />
    <path
       d="m 147.54277,142.63576 -4.42045,2.55284 v -5.1054 l 4.42045,-2.55257 z m -4.52057,-2.61043 v 5.33683 l 4.62069,-2.66827 v -5.33709 z"
       fill="#1f1f1f"
       id="path79540"
       style="stroke-width:0.264583" />
    <path
       d="m 147.54277,142.63576 -4.42045,2.55284 v -5.1054 l 4.42045,-2.55257 z m -4.52057,-2.61043 v 5.33683 l 4.62069,-2.66827 v -5.33709 z"
       stroke="#fa741c"
       stroke-width="0.264159"
       id="path79542"
       style="fill:none" />
    <path
       d="m 139.94158,140.0256 -1.54033,0.88942 -1.54006,0.88916 -1.54056,0.88995 1.54056,0.88942 1.54006,-0.88942 1.54033,-0.88995 1.5403,-0.88916 z"
       fill="#1f1f1f"
       id="path79544"
       style="stroke-width:0.264583" />
    <path
       d="m 139.94158,140.0256 -1.54033,0.88942 -1.54006,0.88916 -1.54056,0.88995 1.54056,0.88942 1.54006,-0.88942 1.54033,-0.88995 1.5403,-0.88916 z"
       stroke="#fa741c"
       stroke-width="0.264159"
       id="path79546"
       style="fill:none" />
    <path
       d="m 139.94158,141.80447 -1.54033,0.88942 -1.54003,0.88943 v 1.77911 l 1.54003,-0.88943 1.54033,-0.88968 1.5403,-0.88943 v -1.77884 z"
       fill="#1f1f1f"
       id="path79548"
       style="stroke-width:0.264583" />
    <path
       d="m 139.94158,141.80447 -1.54033,0.88942 -1.54003,0.88943 v 1.77911 l 1.54003,-0.88943 1.54033,-0.88968 1.5403,-0.88943 v -1.77884 z"
       stroke="#fa741c"
       stroke-width="0.264159"
       id="path79550"
       style="fill:none" />
    <path
       d="m 132.24054,140.91478 -4.62095,2.6688 4.62095,2.66817 4.62095,-2.66817 z"
       fill="#1f1f1f"
       id="path79552"
       style="stroke-width:0.264583" />
    <path
       d="m 132.24054,140.91478 -4.62095,2.6688 4.62095,2.66817 4.62095,-2.66817 z"
       stroke="#fa741c"
       stroke-width="0.264159"
       id="path79554"
       style="fill:none" />
    <path
       d="m 128.85956,143.58332 3.38045,-1.95242 3.38098,1.95242 -3.38098,1.95238 z"
       fill="#1f1f1f"
       id="path79556"
       style="stroke-width:0.264583" />
    <path
       d="m 128.85956,143.58332 3.38045,-1.95242 3.38098,1.95242 -3.38098,1.95238 z"
       stroke="#fa741c"
       stroke-width="0.264159"
       id="path79558"
       style="fill:none" />
    <path
       d="m 132.24001,146.13586 -4.42018,-2.55254 4.42018,-2.55286 4.42071,2.55286 z m 0,-5.22108 -4.62042,2.66854 4.62042,2.6679 4.62121,-2.6679 z"
       fill="#1f1f1f"
       id="path79560"
       style="stroke-width:0.264583" />
    <path
       d="m 132.24001,146.13586 -4.42018,-2.55254 4.42018,-2.55286 4.42071,2.55286 z m 0,-5.22108 -4.62042,2.66854 4.62042,2.6679 4.62121,-2.6679 z"
       stroke="#fa741c"
       stroke-width="0.264159"
       id="path79562"
       style="fill:none" />
    <path
       d="m 132.14015,151.41456 -4.42071,-2.55244 v -5.10526 l 4.42071,2.55256 z m -4.52082,-7.83124 v 5.33675 l 4.62121,2.66859 v -5.33691 z"
       fill="#1f1f1f"
       id="path79564"
       style="stroke-width:0.264583" />
    <path
       d="m 132.14015,151.41456 -4.42071,-2.55244 v -5.10526 l 4.42071,2.55256 z m -4.52082,-7.83124 v 5.33675 l 4.62121,2.66859 v -5.33691 z"
       stroke="#fa741c"
       stroke-width="0.264159"
       id="path79566"
       style="fill:none" />
    <path
       d="m 136.7611,148.86212 -4.42071,2.55244 v -5.10487 l 4.42071,-2.5523 z m -4.52083,-2.61064 v 5.33691 l 4.62122,-2.66832 v -5.33675 z"
       fill="#1f1f1f"
       id="path79568"
       style="stroke-width:0.264583" />
    <path
       d="m 136.7611,148.86212 -4.42071,2.55244 v -5.10487 l 4.42071,-2.5523 z m -4.52083,-2.61064 v 5.33691 l 4.62122,-2.66832 v -5.33675 z"
       stroke="#fa741c"
       stroke-width="0.264159"
       id="path79570"
       style="fill:none" />
    <path
       d="m 138.10106,148.18109 -1.54279,-0.89085 -1.54276,-0.89086 -1.54278,0.89086 1.54278,0.89085 1.54276,0.89085 1.54279,0.89085 1.54278,-0.89085 z"
       fill="#1f1f1f"
       id="path79572"
       style="stroke-width:0.264583" />
    <path
       d="m 138.10106,148.18109 -1.54279,-0.89085 -1.54276,-0.89086 -1.54278,0.89086 1.54278,0.89085 1.54276,0.89085 1.54279,0.89085 1.54278,-0.89085 z"
       stroke="#fa741c"
       id="path79574"
       style="fill:none;stroke-width:0.264583" />
    <path
       d="m 136.55801,149.07194 -1.5425,-0.89085 -1.54305,-0.89085 v 1.7817 l 1.54305,0.89085 1.5425,0.89085 1.54305,0.89112 v -1.78197 z"
       fill="#1f1f1f"
       id="path79576"
       style="stroke-width:0.264583" />
    <path
       d="m 136.55801,149.07194 -1.5425,-0.89085 -1.54305,-0.89085 v 1.7817 l 1.54305,0.89085 1.5425,0.89085 1.54305,0.89112 v -1.78197 z"
       stroke="#fa741c"
       id="path79578"
       style="fill:none;stroke-width:0.264583" />
    <path
       d="m 148.40658,119.90004 c 13.15138,0 23.8125,10.66112 23.8125,23.8125 0,13.15138 -10.66112,23.8125 -23.8125,23.8125 -13.15138,0 -23.8125,-10.66112 -23.8125,-23.8125 0,-13.15138 10.66112,-23.8125 23.8125,-23.8125 z"
       stroke="#fa741c"
       id="path79580"
       style="fill:none;stroke-width:0.264583" />
  </g>
</svg>
