<?xml version="1.0" encoding="UTF-8" standalone="no"?>
<svg
   width="181.22945"
   height="182.10675"
   viewBox="0 0 181.22945 182.10675"
   fill="none"
   version="1.1"
   id="svg78207"
   sodipodi:docname="circle_grid_lock.svg"
   inkscape:version="1.1.2 (b8e25be833, 2022-02-05)"
   xmlns:inkscape="http://www.inkscape.org/namespaces/inkscape"
   xmlns:sodipodi="http://sodipodi.sourceforge.net/DTD/sodipodi-0.dtd"
   xmlns="http://www.w3.org/2000/svg"
   xmlns:svg="http://www.w3.org/2000/svg">
  <defs
     id="defs78211">
    <clipPath
       id="clip0_0_1">
      <rect
         width="336"
         height="175"
         fill="#ffffff"
         transform="translate(0,3.5)"
         id="rect78396"
         x="0"
         y="0" />
    </clipPath>
  </defs>
  <sodipodi:namedview
     id="namedview78209"
     pagecolor="#505050"
     bordercolor="#ffffff"
     borderopacity="1"
     inkscape:pageshadow="0"
     inkscape:pageopacity="0"
     inkscape:pagecheckerboard="1"
     showgrid="false"
     fit-margin-top="0"
     fit-margin-left="0"
     fit-margin-right="0"
     fit-margin-bottom="0"
     inkscape:zoom="0.99861111"
     inkscape:cx="68.595271"
     inkscape:cy="127.67733"
     inkscape:window-width="1920"
     inkscape:window-height="1001"
     inkscape:window-x="-9"
     inkscape:window-y="-9"
     inkscape:window-maximized="1"
     inkscape:current-layer="svg78207" />
  <g
     opacity="0.25"
     id="g78205"
     transform="translate(0,-0.368011)">
    <path
       d="m 170.048,131.174 c 0.155,-0.298 0.304,-0.6 0.454,-0.901 l -10.699,6.188 -19.173,-11.086 19.111,-11.047 14.195,8.206 c 0.067,-0.174 0.132,-0.349 0.198,-0.523 l -13.843,-8.004 18.748,-10.84 c 0.05,-0.341 0.097,-0.683 0.143,-1.025 L 160.291,91.218 179.46,80.136 c -0.027,-0.248 -0.056,-0.497 -0.086,-0.745 L 160.295,68.36 174.851,59.94 c -0.062,-0.176 -0.123,-0.353 -0.186,-0.529 l -14.924,8.63 -19.05,-11.014 19.05,-11.013 12.409,7.175 c -0.131,-0.291 -0.267,-0.58 -0.4,-0.87 l -11.459,-6.627 5.991,-3.463 c -0.098,-0.156 -0.194,-0.313 -0.292,-0.468 l -6.249,3.614 -19.216,-11.11 13.314,-7.7 c -0.133,-0.135 -0.268,-0.27 -0.403,-0.404 L 139.972,33.945 120.817,22.871 137.23,13.38 c -0.177,-0.109 -0.353,-0.222 -0.53,-0.331 l -16.436,9.502 -19.045,-11.013 13.837,-7.99899 c -0.247,-0.072 -0.494,-0.143 -0.742,-0.212 L 100.664,11.218 81.899,0.368011 c -0.319,0.028 -0.64,0.052002 -0.959,0.085 L 100.111,11.538 81.066,22.551 61.851,11.441 80.839,0.461014 c -0.46,0.046997 -0.918,0.102997 -1.376,0.156997 L 61.3,11.119 54.588,7.24001 c -0.212,0.09 -0.421,0.184 -0.632,0.276 l 6.789,3.92499 -19.213,11.11 -6.54,-3.781 c -0.158,0.122 -0.318,0.241 -0.475,0.364 l 6.461,3.737 -19.152,11.074 -1.525,-0.882 c -0.118,0.145 -0.234,0.292 -0.351,0.437 l 1.323,0.765 -3.486,2.015 c -0.272,0.366 -0.539,0.735 -0.806,1.105 L 21.826,34.584 41.041,45.692 21.932,56.745 9.565,49.594 c -0.083,0.164 -0.164,0.33 -0.246,0.495 L 21.379,57.062 2.755,67.83 c -0.092,0.365 -0.18,0.732 -0.26799,1.099 L 21.273,79.791 2.09,90.881 0.00400543,89.676 C 0.00400543,89.784 0,89.892 0,90.001 c 0,0.104 0.00400543,0.207 0.00400543,0.311 L 1.539,91.199 0.0270004,92.074 c 0.0050049,0.209 0.0110016,0.419 0.0170059,0.628 L 2.09,91.519 21.245,102.592 3.008,113.136 c 0.04901,0.186 0.1,0.37 0.15,0.555 L 21.798,102.913 41.015,114.02 21.869,125.092 3.343,114.375 c 0.072,0.255 0.14701,0.509 0.22,0.764 l 17.755,10.271 -11.04,6.382 c 0.086,0.164 0.172,0.328 0.259,0.491 l 11.334,-6.554 19.045,11.016 -19.09,11.037 -1.581,-0.914 c 0.338,0.414 0.682,0.825 1.028,1.233 0.121,0.143 0.24,0.286 0.362,0.429 l 0.191,-0.112 19.215,11.114 -4.708,2.721 c 0.162,0.121 0.326,0.237 0.488,0.355 l 4.771,-2.759 19.155,11.073 -4.425,2.559 c 0.217,0.088 0.432,0.18 0.65,0.266 l 4.328,-2.502 12.684,7.334 c 0.518,0.092 1.039,0.176 1.56,0.26 l -13.693,-7.917 19.084,-11.03 19.179,11.093 -15.325,8.861 c 0.339,0.02 0.678,0.038 1.018,0.054 l 14.859,-8.595 10.637,6.153 c 0.261,-0.064 0.522,-0.125 0.78,-0.191 l -10.864,-6.282 19.164,-11.082 14.278,8.251 c 0.182,-0.105 0.364,-0.213 0.546,-0.32 l -14.273,-8.253 19.168,-11.084 11.807,6.826 c 0.139,-0.133 0.278,-0.266 0.417,-0.399 l -11.671,-6.752 19.148,-11.073 5.032,2.909 c 0.103,-0.153 0.203,-0.308 0.305,-0.463 l -4.784,-2.766 z m -29.97,-6.121 -19.153,-11.074 19.11,-11.047 19.152,11.075 z M 81.453,68.421 100.604,57.345 119.821,68.458 100.666,79.531 Z m 38.26,22.761 -19.109,11.05 L 81.557,91.22 100.666,80.168 Z M 100.114,79.851 81.003,90.899 61.79,79.791 80.9,68.741 Z m -0.061,22.7 L 80.9,113.627 61.851,102.614 81.003,91.536 Z m 0.551,0.321 19.217,11.107 -19.155,11.074 -19.213,-11.108 z m 0.553,-0.319 19.109,-11.05 19.213,11.111 -19.109,11.046 z m 19.662,-11.371 19.153,-11.074 19.215,11.11 -19.154,11.076 z m -0.553,-0.32 -19.047,-11.011 19.155,-11.074 19.047,11.014 z m -19.109,-33.835 19.217,-11.11 19.213,11.11 -19.213,11.109 z m -0.551,-0.321 -19.155,-11.074 19.215,-11.11 19.155,11.075 z M 100.053,57.027 80.9,68.101 61.745,57.027 80.898,45.952 Z M 61.192,56.706 42.145,45.692 61.3,34.619 80.345,45.632 Z M 80.347,68.421 61.237,79.469 42.084,68.395 61.192,57.345 Z M 60.685,79.791 41.534,90.862 22.376,79.791 41.532,68.715 Z M 61.237,80.108 80.451,91.22 61.3,102.294 42.084,91.182 Z M 80.347,113.945 61.168,125.032 42.119,114.02 61.3,102.932 Z M 80.386,136.779 61.231,147.855 42.02,136.747 61.168,125.67 Z M 61.721,125.353 80.9,114.264 l 19.214,11.111 -19.175,11.086 z m 38.945,0.342 19.155,11.073 -19.174,11.087 -19.157,-11.076 z m 0.553,-0.32 19.155,-11.078 19.151,11.078 -19.151,11.072 z m 77.672,-22.761 -19.15,11.071 -19.154,-11.071 19.154,-11.078 z M 159.743,68.678 178.956,79.791 159.741,90.899 140.525,79.791 Z M 159.19,68.36 139.972,79.469 120.925,68.458 140.14,57.345 Z M 159.187,45.692 140.14,56.706 120.925,45.597 139.972,34.584 Z M 139.421,34.265 120.374,45.28 101.219,34.202 120.264,23.188 Z M 100.666,11.858 119.713,22.871 100.666,33.884 81.619,22.871 Z M 100.114,34.202 80.9,45.314 61.851,34.301 81.066,23.188 Z M 61.3,11.758 80.516,22.871 61.3,33.981 42.084,22.871 Z M 22.376,34.265 41.532,23.188 60.747,34.301 41.592,45.375 Z M 41.592,46.014 60.639,57.027 41.532,68.075 22.485,57.062 Z M 2.77901,68.458 21.932,57.384 40.978,68.395 21.826,79.469 Z M 2.64301,91.199 21.826,80.106 40.981,91.182 21.798,102.275 Z M 22.351,102.592 41.534,91.503 60.747,102.614 41.566,113.703 Z m 0.071,22.818 19.144,-11.07 19.049,11.013 -19.148,11.074 z m -0.043,22.691 19.088,-11.037 19.213,11.108 -19.088,11.041 z m 38.921,22.504 -19.155,-11.073 19.086,-11.035 19.15,11.076 z m 0.484,-22.433 19.155,-11.073 19.155,11.073 -19.159,11.08 z m 38.882,22.494 -19.178,-11.091 19.159,-11.08 19.183,11.086 z m 19.714,-11.403 -19.18,-11.091 19.174,-11.084 19.177,11.084 z m 19.722,-11.408 -19.177,-11.087 19.153,-11.073 19.174,11.084 z"
       fill="#218095"
       id="path78203" />
  </g>
  <rect
     width="182"
     height="182"
     fill="#e5e5e5"
     id="rect78270"
     x="-179.22101"
     y="68.089989"
     style="fill:none" />
  <path
     d="m 90.729436,1.6067474 c 49.706004,0 90.000004,40.2940006 90.000004,90.0000016 0,49.706001 -40.294,90.000001 -90.000004,90.000001 -49.706001,0 -90.000002,-40.294 -90.000002,-90.000001 0,-49.706001 40.294001,-90.0000016 90.000002,-90.0000016 z"
     stroke="#fa741c"
     id="path78272"
     style="fill:none" />
  <g
     clip-path="url(#clip0_0_1)"
     id="g78394"
     transform="translate(-62.853706,-24.695367)"
     style="fill:none">
    <g
       id="g78704"
       transform="translate(-34.216294,33.208356)">
      <path
         d="M 150.611,130.796 V 81.475 l -7.109,-4.106 v 49.322 c 0,0.082 -0.002,0.146 0,0.226 0.049,2.782 1.066,5.927 3.572,7.48 0.043,0.026 0.086,0.051 0.13,0.077 l 7.109,4.105 z"
         fill="#1f1f1f"
         id="path78308" />
      <path
         d="M 150.611,130.796 V 81.475 l -7.109,-4.106 v 49.322 c 0,0.082 -0.002,0.146 0,0.226 0.049,2.782 1.066,5.927 3.572,7.48 0.043,0.026 0.086,0.051 0.13,0.077 l 7.109,4.105 z"
         stroke="#f06321"
         id="path78310" />
      <path
         d="m 205.606,35.788 c 3.381,-1.951 6.443,-2.131 8.653,-0.847 l -7.109,-4.104 c -2.21,-1.284 -5.249,-1.146 -8.63,0.805 l -42.943,24.81 7.11,4.105 z"
         fill="#1f1f1f"
         id="path78312" />
      <path
         d="m 205.606,35.788 c 3.381,-1.951 6.443,-2.131 8.653,-0.847 l -7.109,-4.104 c -2.21,-1.284 -5.249,-1.146 -8.63,0.805 l -42.943,24.81 7.11,4.105 z"
         stroke="#f06321"
         id="path78314" />
      <path
         d="m 150.61,81.476 12.077,-20.92 -7.11,-4.104 c -0.767,0.442 -1.502,0.933 -2.229,1.51 -0.04,0.032 -0.076,0.071 -0.115,0.102 -4.662,3.773 -8.178,9.755 -9.318,15.643 -0.24,1.235 -0.418,2.484 -0.414,3.664 z"
         fill="#1f1f1f"
         id="path78316" />
      <path
         d="m 150.61,81.476 12.077,-20.92 -7.11,-4.104 c -0.767,0.442 -1.502,0.933 -2.229,1.51 -0.04,0.032 -0.076,0.071 -0.115,0.102 -4.662,3.773 -8.178,9.755 -9.318,15.643 -0.24,1.235 -0.418,2.484 -0.414,3.664 z"
         stroke="#f06321"
         id="path78318" />
      <path
         d="m 205.606,35.788 -42.919,24.769 c -5.792,3.343 -10.633,10.851 -11.803,17.792 l 66.62,-38.447 c -1.203,-5.573 -6.076,-7.475 -11.898,-4.114 z"
         fill="#1f1f1f"
         id="path78320" />
      <path
         d="m 205.606,35.788 -42.919,24.769 c -5.792,3.343 -10.633,10.851 -11.803,17.792 l 66.62,-38.447 c -1.203,-5.573 -6.076,-7.475 -11.898,-4.114 z"
         stroke="#f06321"
         id="path78322" />
      <path
         d="m 150.61,130.796 c 0.021,7.709 5.609,10.844 12.286,6.989 L 205.825,113 c 6.71,-3.874 11.992,-13.265 11.97,-20.975 V 42.697 c -0.003,-1.015 -0.107,-1.945 -0.29,-2.795 l -66.621,38.447 c -0.178,1.06 -0.277,2.109 -0.274,3.127 z"
         fill="#1f1f1f"
         id="path78324" />
      <path
         d="m 150.61,130.796 c 0.021,7.709 5.609,10.844 12.286,6.989 L 205.825,113 c 6.71,-3.874 11.992,-13.265 11.97,-20.975 V 42.697 c -0.003,-1.015 -0.107,-1.945 -0.29,-2.795 l -66.621,38.447 c -0.178,1.06 -0.277,2.109 -0.274,3.127 z"
         stroke="#f06321"
         id="path78326" />
      <path
         d="m 208.63,42.079 c -0.894,0.515 -1.621,0.1 -1.624,-0.926 -0.003,-1.035 0.721,-2.278 1.613,-2.793 0.902,-0.52 1.63,-0.116 1.633,0.919 0.003,1.026 -0.721,2.279 -1.622,2.8 z"
         fill="#1f1f1f"
         id="path78328" />
      <path
         d="m 208.63,42.079 c -0.894,0.515 -1.621,0.1 -1.624,-0.926 -0.003,-1.035 0.721,-2.278 1.613,-2.793 0.902,-0.52 1.63,-0.116 1.633,0.919 0.003,1.026 -0.721,2.279 -1.622,2.8 z"
         stroke="#f06321"
         id="path78330" />
      <path
         d="m 203.352,45.068 c -0.893,0.516 -1.621,0.102 -1.624,-0.924 -0.003,-1.035 0.721,-2.279 1.613,-2.794 0.902,-0.52 1.63,-0.116 1.633,0.919 0.003,1.026 -0.722,2.279 -1.622,2.799 z"
         fill="#1f1f1f"
         id="path78332" />
      <path
         d="m 203.352,45.068 c -0.893,0.516 -1.621,0.102 -1.624,-0.924 -0.003,-1.035 0.721,-2.279 1.613,-2.794 0.902,-0.52 1.63,-0.116 1.633,0.919 0.003,1.026 -0.722,2.279 -1.622,2.799 z"
         stroke="#f06321"
         id="path78334" />
      <path
         d="m 198.227,48.146 c -0.893,0.516 -1.621,0.102 -1.624,-0.924 -0.003,-1.035 0.722,-2.279 1.614,-2.795 0.901,-0.519 1.629,-0.116 1.632,0.92 0.003,1.026 -0.721,2.279 -1.622,2.799 z"
         fill="#1f1f1f"
         id="path78336" />
      <path
         d="m 198.227,48.146 c -0.893,0.516 -1.621,0.102 -1.624,-0.924 -0.003,-1.035 0.722,-2.279 1.614,-2.795 0.901,-0.519 1.629,-0.116 1.632,0.92 0.003,1.026 -0.721,2.279 -1.622,2.799 z"
         stroke="#f06321"
         id="path78338" />
      <path
         d="m 174.895,95.537 -0.896,-0.078 0.893,-1.103 c 0.223,-0.276 0.299,-0.65 0.17,-0.826 -0.086,-0.123 -0.241,-0.127 -0.402,-0.034 -0.078,0.045 -0.158,0.113 -0.23,0.201 l -0.892,1.111 -0.004,-1.182 c 0,-0.293 -0.205,-0.417 -0.461,-0.27 -0.255,0.148 -0.459,0.507 -0.458,0.801 l 0.003,1.181 -0.896,-0.078 c -0.073,-0.003 -0.153,0.02 -0.231,0.065 -0.16,0.093 -0.315,0.274 -0.4,0.498 -0.127,0.323 -0.05,0.609 0.168,0.63 l 0.896,0.071 -0.893,1.111 c -0.217,0.271 -0.292,0.638 -0.164,0.822 0.084,0.12 0.244,0.124 0.403,0.031 0.077,-0.044 0.154,-0.11 0.23,-0.206 l 0.893,-1.102 0.002,1.18 c 0.001,0.294 0.206,0.411 0.461,0.263 0.256,-0.147 0.458,-0.5 0.458,-0.793 l -0.004,-1.182 0.897,0.072 c 0.07,0.01 0.153,-0.016 0.23,-0.06 0.16,-0.092 0.313,-0.275 0.402,-0.496 0.127,-0.331 0.05,-0.609 -0.175,-0.627 z"
         fill="#1f1f1f"
         id="path78340" />
      <path
         d="m 181.292,91.844 -0.889,-0.082 0.886,-1.1 c 0.223,-0.275 0.299,-0.649 0.17,-0.825 -0.086,-0.123 -0.241,-0.127 -0.402,-0.034 -0.078,0.045 -0.159,0.113 -0.231,0.201 l -0.891,1.11 -0.004,-1.181 c 0,-0.294 -0.205,-0.418 -0.461,-0.271 -0.255,0.148 -0.459,0.508 -0.458,0.802 l 0.003,1.181 -0.896,-0.078 c -0.073,-0.003 -0.153,0.02 -0.231,0.065 -0.16,0.093 -0.315,0.275 -0.4,0.497 -0.127,0.323 -0.05,0.611 0.174,0.627 l 0.89,0.075 -0.886,1.107 c -0.224,0.275 -0.299,0.642 -0.171,0.826 0.09,0.116 0.243,0.124 0.402,0.031 0.078,-0.044 0.161,-0.114 0.231,-0.206 l 0.893,-1.102 0.001,1.18 c 0.001,0.294 0.207,0.41 0.462,0.263 0.256,-0.148 0.458,-0.5 0.458,-0.793 l -0.004,-1.182 0.897,0.072 c 0.077,0.006 0.153,-0.016 0.229,-0.06 0.161,-0.092 0.314,-0.276 0.403,-0.496 0.127,-0.331 0.05,-0.609 -0.175,-0.627 z"
         fill="#1f1f1f"
         id="path78342" />
      <path
         d="m 168.081,103.572 -0.026,-9.368 35.613,-20.563 0.027,9.368 z m 36.3,-31.158 -37.037,21.385 0.031,10.997 37.037,-21.384 z"
         fill="#1f1f1f"
         id="path78344" />
      <path
         d="m 168.081,103.572 -0.026,-9.368 35.613,-20.563 0.027,9.368 z m 36.3,-31.158 -37.037,21.385 0.031,10.997 37.037,-21.384 z"
         stroke="#f06321"
         id="path78346" />
      <path
         d="m 187.696,88.147 -0.896,-0.078 0.892,-1.104 c 0.217,-0.271 0.293,-0.646 0.164,-0.822 -0.086,-0.123 -0.241,-0.126 -0.402,-0.033 -0.078,0.045 -0.157,0.112 -0.231,0.2 l -0.885,1.108 -0.003,-1.182 c -0.001,-0.294 -0.212,-0.414 -0.468,-0.267 -0.255,0.148 -0.459,0.508 -0.458,0.801 l 0.003,1.182 -0.896,-0.078 c -0.071,-0.005 -0.149,0.018 -0.227,0.063 -0.16,0.093 -0.317,0.275 -0.398,0.496 -0.127,0.322 -0.055,0.612 0.168,0.63 l 0.896,0.071 -0.892,1.111 c -0.223,0.275 -0.293,0.638 -0.164,0.822 0.083,0.12 0.236,0.127 0.397,0.035 0.076,-0.044 0.159,-0.114 0.229,-0.206 l 0.893,-1.103 0.003,1.181 c 0.001,0.294 0.206,0.41 0.461,0.263 0.254,-0.148 0.465,-0.504 0.464,-0.797 l -0.004,-1.182 0.89,0.076 c 0.077,0.006 0.152,-0.016 0.231,-0.06 0.159,-0.093 0.318,-0.28 0.401,-0.497 0.127,-0.33 0.049,-0.609 -0.168,-0.63 z"
         fill="#1f1f1f"
         id="path78348" />
      <path
         d="m 194.093,84.453 -0.896,-0.078 0.892,-1.104 c 0.217,-0.271 0.293,-0.646 0.164,-0.822 -0.086,-0.123 -0.241,-0.126 -0.4,-0.035 -0.077,0.045 -0.156,0.112 -0.226,0.198 l -0.892,1.111 -0.003,-1.181 c -0.001,-0.294 -0.212,-0.414 -0.468,-0.267 -0.249,0.144 -0.459,0.508 -0.458,0.801 l 0.003,1.182 -0.896,-0.078 c -0.071,-0.005 -0.148,0.017 -0.225,0.062 -0.159,0.092 -0.314,0.274 -0.4,0.496 -0.127,0.323 -0.049,0.61 0.168,0.631 l 0.896,0.07 -0.892,1.111 c -0.217,0.272 -0.293,0.639 -0.164,0.822 0.083,0.121 0.235,0.128 0.397,0.036 0.083,-0.048 0.159,-0.114 0.229,-0.206 l 0.893,-1.103 0.003,1.181 c 10e-4,0.293 0.212,0.406 0.461,0.263 0.255,-0.148 0.465,-0.504 0.464,-0.798 l -0.004,-1.181 0.897,0.072 c 0.07,0.01 0.145,-0.012 0.228,-0.06 0.162,-0.093 0.314,-0.276 0.397,-0.493 0.127,-0.33 0.049,-0.609 -0.168,-0.63 z"
         fill="#1f1f1f"
         id="path78350" />
      <path
         d="m 200.491,80.759 -0.896,-0.078 0.892,-1.103 c 0.224,-0.275 0.293,-0.646 0.171,-0.826 -0.087,-0.123 -0.242,-0.126 -0.402,-0.033 -0.078,0.045 -0.159,0.112 -0.231,0.2 l -0.892,1.111 -0.003,-1.181 c -0.001,-0.294 -0.206,-0.418 -0.461,-0.271 -0.256,0.148 -0.466,0.511 -0.465,0.805 l 0.003,1.181 -0.889,-0.081 c -0.073,-0.004 -0.152,0.019 -0.23,0.065 -0.161,0.092 -0.316,0.274 -0.402,0.497 -0.127,0.323 -0.049,0.61 0.168,0.631 l 0.896,0.07 -0.892,1.111 c -0.218,0.272 -0.293,0.639 -0.164,0.822 0.083,0.121 0.243,0.124 0.401,0.032 0.079,-0.044 0.155,-0.11 0.232,-0.206 l 0.886,-1.1 0.003,1.182 c 0.001,0.293 0.212,0.406 0.466,0.259 0.256,-0.148 0.46,-0.5 0.458,-0.794 l -0.003,-1.181 0.897,0.071 c 0.07,0.01 0.153,-0.015 0.228,-0.059 0.162,-0.093 0.314,-0.276 0.403,-0.497 0.121,-0.326 0.05,-0.608 -0.174,-0.627 z"
         fill="#1f1f1f"
         id="path78352" />
      <path
         d="m 174.895,95.537 -0.896,-0.078 0.893,-1.103 c 0.223,-0.276 0.299,-0.65 0.17,-0.826 -0.086,-0.123 -0.241,-0.127 -0.402,-0.034 -0.078,0.045 -0.158,0.113 -0.23,0.201 l -0.892,1.111 -0.004,-1.182 c 0,-0.293 -0.205,-0.417 -0.461,-0.27 -0.255,0.148 -0.459,0.507 -0.458,0.801 l 0.003,1.181 -0.896,-0.078 c -0.073,-0.003 -0.153,0.02 -0.231,0.065 -0.16,0.093 -0.315,0.274 -0.4,0.498 -0.127,0.323 -0.05,0.609 0.168,0.63 l 0.896,0.071 -0.893,1.111 c -0.217,0.271 -0.292,0.638 -0.164,0.822 0.084,0.12 0.244,0.124 0.403,0.031 0.077,-0.044 0.154,-0.11 0.23,-0.206 l 0.893,-1.102 0.002,1.18 c 0.001,0.294 0.206,0.411 0.461,0.263 0.256,-0.147 0.458,-0.5 0.458,-0.793 l -0.004,-1.182 0.897,0.072 c 0.07,0.01 0.153,-0.016 0.23,-0.06 0.16,-0.092 0.313,-0.275 0.402,-0.496 0.127,-0.331 0.05,-0.609 -0.175,-0.627 z"
         stroke="#f06321"
         id="path78354" />
      <path
         d="m 181.292,91.844 -0.889,-0.082 0.886,-1.1 c 0.223,-0.275 0.299,-0.649 0.17,-0.825 -0.086,-0.123 -0.241,-0.127 -0.402,-0.034 -0.078,0.045 -0.159,0.113 -0.231,0.201 l -0.891,1.11 -0.004,-1.181 c 0,-0.294 -0.205,-0.418 -0.461,-0.271 -0.255,0.148 -0.459,0.508 -0.458,0.802 l 0.003,1.181 -0.896,-0.078 c -0.073,-0.003 -0.153,0.02 -0.231,0.065 -0.16,0.093 -0.315,0.275 -0.4,0.497 -0.127,0.323 -0.05,0.611 0.174,0.627 l 0.89,0.075 -0.886,1.107 c -0.224,0.275 -0.299,0.642 -0.171,0.826 0.09,0.116 0.243,0.124 0.402,0.031 0.078,-0.044 0.161,-0.114 0.231,-0.206 l 0.893,-1.102 0.001,1.18 c 0.001,0.294 0.207,0.41 0.462,0.263 0.256,-0.148 0.458,-0.5 0.458,-0.793 l -0.004,-1.182 0.897,0.072 c 0.077,0.006 0.153,-0.016 0.229,-0.06 0.161,-0.092 0.314,-0.276 0.403,-0.496 0.127,-0.331 0.05,-0.609 -0.175,-0.627 z"
         stroke="#f06321"
         id="path78356" />
      <path
         d="m 187.696,88.147 -0.896,-0.078 0.892,-1.104 c 0.217,-0.271 0.293,-0.646 0.164,-0.822 -0.086,-0.123 -0.241,-0.126 -0.402,-0.033 -0.078,0.045 -0.157,0.112 -0.231,0.2 l -0.885,1.108 -0.003,-1.182 c -0.001,-0.294 -0.212,-0.414 -0.468,-0.267 -0.255,0.148 -0.459,0.508 -0.458,0.801 l 0.003,1.182 -0.896,-0.078 c -0.071,-0.005 -0.149,0.018 -0.227,0.063 -0.16,0.093 -0.317,0.275 -0.398,0.496 -0.127,0.322 -0.055,0.612 0.168,0.63 l 0.896,0.071 -0.892,1.111 c -0.223,0.275 -0.293,0.638 -0.164,0.822 0.083,0.12 0.236,0.127 0.397,0.035 0.076,-0.044 0.159,-0.114 0.229,-0.206 l 0.893,-1.103 0.003,1.181 c 0.001,0.294 0.206,0.41 0.461,0.263 0.254,-0.148 0.465,-0.504 0.464,-0.797 l -0.004,-1.182 0.89,0.076 c 0.077,0.006 0.152,-0.016 0.231,-0.06 0.159,-0.093 0.318,-0.28 0.401,-0.497 0.127,-0.33 0.049,-0.609 -0.168,-0.63 z"
         stroke="#f06321"
         id="path78358" />
      <path
         d="m 194.093,84.453 -0.896,-0.078 0.892,-1.104 c 0.217,-0.271 0.293,-0.646 0.164,-0.822 -0.086,-0.123 -0.241,-0.126 -0.4,-0.035 -0.077,0.045 -0.156,0.112 -0.226,0.198 l -0.892,1.111 -0.003,-1.181 c -0.001,-0.294 -0.212,-0.414 -0.468,-0.267 -0.249,0.144 -0.459,0.508 -0.458,0.801 l 0.003,1.182 -0.896,-0.078 c -0.071,-0.005 -0.148,0.017 -0.225,0.062 -0.159,0.092 -0.314,0.274 -0.4,0.496 -0.127,0.323 -0.049,0.61 0.168,0.631 l 0.896,0.07 -0.892,1.111 c -0.217,0.272 -0.293,0.639 -0.164,0.822 0.083,0.121 0.235,0.128 0.397,0.036 0.083,-0.048 0.159,-0.114 0.229,-0.206 l 0.893,-1.103 0.003,1.181 c 10e-4,0.293 0.212,0.406 0.461,0.263 0.255,-0.148 0.465,-0.504 0.464,-0.798 l -0.004,-1.181 0.897,0.072 c 0.07,0.01 0.145,-0.012 0.228,-0.06 0.162,-0.093 0.314,-0.276 0.397,-0.493 0.127,-0.33 0.049,-0.609 -0.168,-0.63 z"
         stroke="#f06321"
         id="path78360" />
      <path
         d="m 200.491,80.759 -0.896,-0.078 0.892,-1.103 c 0.224,-0.275 0.293,-0.646 0.171,-0.826 -0.087,-0.123 -0.242,-0.126 -0.402,-0.033 -0.078,0.045 -0.159,0.112 -0.231,0.2 l -0.892,1.111 -0.003,-1.181 c -0.001,-0.294 -0.206,-0.418 -0.461,-0.271 -0.256,0.148 -0.466,0.511 -0.465,0.805 l 0.003,1.181 -0.889,-0.081 c -0.073,-0.004 -0.152,0.019 -0.23,0.065 -0.161,0.092 -0.316,0.274 -0.402,0.497 -0.127,0.323 -0.049,0.61 0.168,0.631 l 0.896,0.07 -0.892,1.111 c -0.218,0.272 -0.293,0.639 -0.164,0.822 0.083,0.121 0.243,0.124 0.401,0.032 0.079,-0.044 0.155,-0.11 0.232,-0.206 l 0.886,-1.1 0.003,1.182 c 0.001,0.293 0.212,0.406 0.466,0.259 0.256,-0.148 0.46,-0.5 0.458,-0.794 l -0.003,-1.181 0.897,0.071 c 0.07,0.01 0.153,-0.015 0.228,-0.059 0.162,-0.093 0.314,-0.276 0.403,-0.497 0.121,-0.326 0.05,-0.608 -0.174,-0.627 z"
         stroke="#f06321"
         id="path78362" />
      <path
         d="m 223.957,99.697 0.017,6.125 -12.256,-7.123 -0.018,-6.125 z"
         fill="#1f1f1f"
         id="path78364" />
      <path
         d="m 211.718,98.698 12.256,7.123 -6.064,3.501 -12.256,-7.123 z"
         fill="#1f1f1f"
         id="path78366" />
      <path
         d="m 211.718,98.698 12.256,7.123 -6.064,3.501 -12.256,-7.123 z"
         stroke="#f06321"
         id="path78368" />
      <path
         d="m 211.554,86.236 c 0,0 12.567,6.958 12.58,6.966 2.15,1.25 1.338,4.765 -0.151,6.445 -0.013,0.014 -0.018,0.033 -0.027,0.051 0,0 -12.245,-7.116 -12.256,-7.123 0.084,0.05 0.833,-5.771 -0.146,-6.339 z"
         fill="#1f1f1f"
         id="path78370" />
      <path
         d="m 211.554,86.236 c 0,0 12.567,6.958 12.58,6.966 2.15,1.25 1.338,4.765 -0.151,6.445 -0.013,0.014 -0.018,0.033 -0.027,0.051 0,0 -12.245,-7.116 -12.256,-7.123 0.084,0.05 0.833,-5.771 -0.146,-6.339 z"
         stroke="#f06321"
         id="path78372" />
      <path
         d="m 203.455,103.345 c -0.239,-0.139 34.038,-25.983 34.245,-25.863 l -12.257,-7.123 c -0.996,-0.579 -2.33,-0.226 -3.266,0.319 -0.805,0.466 -20.043,11.573 -23.679,13.672 -3.828,2.21 -7.802,4.753 -7.953,9.714 -0.002,0.069 0,0.139 0,0.208 v 20.168 c 0.004,1.103 0.32,2.362 1.343,2.956 0.011,0.007 12.255,7.123 12.255,7.123 -0.847,-0.493 -1.218,-16.559 -1.315,-21.614 0.395,0.277 0.627,0.44 0.627,0.44 z"
         fill="#1f1f1f"
         id="path78374" />
      <path
         d="m 203.455,103.345 c -0.239,-0.139 34.038,-25.983 34.245,-25.863 l -12.257,-7.123 c -0.996,-0.579 -2.33,-0.226 -3.266,0.319 -0.805,0.466 -20.043,11.573 -23.679,13.672 -3.828,2.21 -7.802,4.753 -7.953,9.714 -0.002,0.069 0,0.139 0,0.208 v 20.168 c 0.004,1.103 0.32,2.362 1.343,2.956 0.011,0.007 12.255,7.123 12.255,7.123 -0.847,-0.493 -1.218,-16.559 -1.315,-21.614 0.395,0.277 0.627,0.44 0.627,0.44 z"
         stroke="#f06321"
         id="path78376" />
      <path
         d="m 217.891,103.199 v 6.123 l 6.081,-3.501 -0.016,-6.124 c 0.647,-1.199 1.046,-2.519 1.041,-3.727 -0.006,-2.591 -1.84,-3.625 -4.095,-2.325 -2.255,1.302 -4.077,4.449 -4.071,7.038 0.005,1.208 0.409,2.066 1.06,2.516 z m -10.566,-9.746 27.107,-15.65 c 2.538,-1.465 4.603,-0.289 4.611,2.635 v 20.168 c 0.008,2.925 -1.986,6.48 -4.522,7.944 l -27.108,15.65 c -2.538,1.465 -4.602,0.288 -4.61,-2.637 v -20.168 c -0.008,-2.924 1.985,-6.477 4.522,-7.942 z"
         fill="#1f1f1f"
         id="path78378" />
      <path
         d="m 217.891,103.199 v 6.123 l 6.081,-3.501 -0.016,-6.124 c 0.647,-1.199 1.046,-2.519 1.041,-3.727 -0.006,-2.591 -1.84,-3.625 -4.095,-2.325 -2.255,1.302 -4.077,4.449 -4.071,7.038 0.005,1.208 0.409,2.066 1.06,2.516 z m -10.566,-9.746 27.107,-15.65 c 2.538,-1.465 4.603,-0.289 4.611,2.635 v 20.168 c 0.008,2.925 -1.986,6.48 -4.522,7.944 l -27.108,15.65 c -2.538,1.465 -4.602,0.288 -4.61,-2.637 v -20.168 c -0.008,-2.924 1.985,-6.477 4.522,-7.942 z"
         stroke="#f06321"
         id="path78380" />
      <path
         d="m 220.841,66.544 c 1.092,0.607 2.27,1.085 2.352,2.506 0.048,0.86 -0.217,10.849 -0.216,11.398 l -6.076,-3.519 V 66.105 c -0.001,-0.224 2.446,-0.393 3.94,0.439 z"
         fill="#1f1f1f"
         id="path78382" />
      <path
         d="m 220.841,66.544 c 1.092,0.607 2.27,1.085 2.352,2.506 0.048,0.86 -0.217,10.849 -0.216,11.398 l -6.076,-3.519 V 66.105 c -0.001,-0.224 2.446,-0.393 3.94,0.439 z"
         stroke="#f06321"
         id="path78384" />
      <path
         d="m 201.381,74.719 c 0.046,-1.629 0.442,-3.227 1.032,-4.742 0.485,-1.244 1.109,-2.437 1.845,-3.55 0.603,-0.915 1.331,-1.838 2.12,-2.641 2.087,-2.125 4.934,-3.439 7.487,-4.914 0.083,-0.048 0.166,-0.093 0.248,-0.138 1.263,-0.684 2.807,-1.146 4.244,-0.815 0.148,0.034 0.294,0.07 0.435,0.119 0.012,0.004 0.022,0.012 0.033,0.017 0.209,0.076 0.409,0.166 0.601,0.276 0,0 6.053,3.519 6.056,3.521 -2.331,-1.354 -18.059,13.453 -18.05,16.736 v 10.825 l -6.056,-3.519 V 75.07 c 0,-0.118 0.001,-0.235 0.005,-0.351 z"
         fill="#1f1f1f"
         id="path78386" />
      <path
         d="m 201.381,74.719 c 0.046,-1.629 0.442,-3.227 1.032,-4.742 0.485,-1.244 1.109,-2.437 1.845,-3.55 0.603,-0.915 1.331,-1.838 2.12,-2.641 2.087,-2.125 4.934,-3.439 7.487,-4.914 0.083,-0.048 0.166,-0.093 0.248,-0.138 1.263,-0.684 2.807,-1.146 4.244,-0.815 0.148,0.034 0.294,0.07 0.435,0.119 0.012,0.004 0.022,0.012 0.033,0.017 0.209,0.076 0.409,0.166 0.601,0.276 0,0 6.053,3.519 6.056,3.521 -2.331,-1.354 -18.059,13.453 -18.05,16.736 v 10.825 l -6.056,-3.519 V 75.07 c 0,-0.118 0.001,-0.235 0.005,-0.351 z"
         stroke="#f06321"
         id="path78388" />
      <path
         d="m 215.22,65.107 4.702,-2.715 c 4.311,-2.488 7.825,-0.486 7.839,4.457 v 10.826 l -4.784,2.774 V 69.625 c -0.005,-1.901 -1.378,-2.671 -3.039,-1.712 l -4.703,2.714 c -1.661,0.958 -2.99,3.287 -2.984,5.187 v 10.825 l -4.82,2.774 V 78.587 c -0.094,-7.797 3.478,-10.992 7.789,-13.48 z"
         fill="#1f1f1f"
         id="path78390" />
      <path
         d="m 215.22,65.107 4.702,-2.715 c 4.311,-2.488 7.825,-0.486 7.839,4.457 v 10.826 l -4.784,2.774 V 69.625 c -0.005,-1.901 -1.378,-2.671 -3.039,-1.712 l -4.703,2.714 c -1.661,0.958 -2.99,3.287 -2.984,5.187 v 10.825 l -4.82,2.774 V 78.587 c -0.094,-7.797 3.478,-10.992 7.789,-13.48 z"
         stroke="#f06321"
         id="path78392" />
    </g>
  </g>
</svg>
