<?xml version="1.0" encoding="UTF-8" standalone="no"?>
<!-- Created with Inkscape (http://www.inkscape.org/) -->

<svg
   width="47.889584mm"
   height="47.889584mm"
   viewBox="0 0 47.889584 47.889584"
   version="1.1"
   id="svg79060"
   inkscape:version="1.1.2 (b8e25be833, 2022-02-05)"
   sodipodi:docname="circle_grid_leaf.svg"
   xmlns:inkscape="http://www.inkscape.org/namespaces/inkscape"
   xmlns:sodipodi="http://sodipodi.sourceforge.net/DTD/sodipodi-0.dtd"
   xmlns="http://www.w3.org/2000/svg"
   xmlns:svg="http://www.w3.org/2000/svg">
  <sodipodi:namedview
     id="namedview79062"
     pagecolor="#505050"
     bordercolor="#ffffff"
     borderopacity="1"
     inkscape:pageshadow="0"
     inkscape:pageopacity="0"
     inkscape:pagecheckerboard="1"
     inkscape:document-units="mm"
     showgrid="false"
     fit-margin-top="0"
     fit-margin-left="0"
     fit-margin-right="0"
     fit-margin-bottom="0"
     inkscape:zoom="1.8116734"
     inkscape:cx="115.08697"
     inkscape:cy="-3.0358672"
     inkscape:window-width="1920"
     inkscape:window-height="1001"
     inkscape:window-x="-9"
     inkscape:window-y="-9"
     inkscape:window-maximized="1"
     inkscape:current-layer="layer1" />
  <defs
     id="defs79057">
	
	
	
</defs>
  <g
     inkscape:label="Layer 1"
     inkscape:groupmode="layer"
     id="layer1"
     transform="translate(-129.80593,-172.95099)">
    <g
       id="g81010">
      <g
         opacity="0.25"
         id="g79298"
         transform="matrix(0.26458333,0,0,0.26458333,129.67364,172.8187)"
         style="fill:none">
        <path
           d="m 171.048,132.174 c 0.155,-0.298 0.304,-0.6 0.454,-0.901 l -10.699,6.188 -19.173,-11.086 19.111,-11.047 14.195,8.206 c 0.067,-0.174 0.132,-0.349 0.198,-0.523 l -13.843,-8.004 18.748,-10.84 c 0.05,-0.341 0.097,-0.683 0.143,-1.025 L 161.291,92.218 180.46,81.136 c -0.027,-0.248 -0.056,-0.497 -0.086,-0.745 L 161.295,69.36 175.851,60.94 c -0.062,-0.176 -0.123,-0.353 -0.186,-0.529 l -14.924,8.63 -19.05,-11.014 19.05,-11.013 12.409,7.175 c -0.131,-0.291 -0.267,-0.58 -0.4,-0.87 l -11.459,-6.627 5.991,-3.463 c -0.098,-0.156 -0.194,-0.313 -0.292,-0.468 l -6.249,3.614 -19.216,-11.11 13.314,-7.7 c -0.133,-0.135 -0.268,-0.27 -0.403,-0.404 L 140.972,34.945 121.817,23.871 138.23,14.38 c -0.177,-0.109 -0.353,-0.222 -0.53,-0.331 l -16.436,9.502 -19.045,-11.013 13.837,-7.99899 c -0.247,-0.072 -0.494,-0.143 -0.742,-0.212 L 101.664,12.218 82.899,1.36801 c -0.319,0.028 -0.64,0.052 -0.959,0.085 L 101.111,12.538 82.066,23.551 62.851,12.441 81.839,1.46101 c -0.46,0.047 -0.918,0.103 -1.376,0.157 L 62.3,12.119 55.588,8.24001 c -0.212,0.09 -0.421,0.184 -0.632,0.276 l 6.789,3.92499 -19.213,11.11 -6.54,-3.781 c -0.158,0.122 -0.318,0.241 -0.475,0.364 l 6.461,3.737 -19.152,11.074 -1.525,-0.882 c -0.118,0.145 -0.234,0.292 -0.351,0.437 l 1.323,0.765 -3.486,2.015 c -0.272,0.366 -0.539,0.735 -0.806,1.105 L 22.826,35.584 42.041,46.692 22.932,57.745 10.565,50.594 c -0.083,0.164 -0.164,0.33 -0.246,0.495 L 22.379,58.062 3.755,68.83 c -0.092,0.365 -0.18,0.732 -0.26799,1.099 L 22.273,80.791 3.09,91.881 1.00401,90.676 C 1.00401,90.784 1,90.892 1,91.001 c 0,0.104 0.00401,0.207 0.00401,0.311 L 2.539,92.199 1.027,93.074 c 0.00501,0.209 0.011,0.419 0.01701,0.628 L 3.09,92.519 22.245,103.592 4.008,114.136 c 0.04901,0.186 0.1,0.37 0.15,0.555 L 22.798,103.913 42.015,115.02 22.869,126.092 4.343,115.375 c 0.072,0.255 0.14701,0.509 0.22,0.764 l 17.755,10.271 -11.04,6.382 c 0.086,0.164 0.172,0.328 0.259,0.491 l 11.334,-6.554 19.045,11.016 -19.09,11.037 -1.581,-0.914 c 0.338,0.414 0.682,0.825 1.028,1.233 0.121,0.143 0.24,0.286 0.362,0.429 l 0.191,-0.112 19.215,11.114 -4.708,2.721 c 0.162,0.121 0.326,0.237 0.488,0.355 l 4.771,-2.759 19.155,11.073 -4.425,2.559 c 0.217,0.088 0.432,0.18 0.65,0.266 l 4.328,-2.502 12.684,7.334 c 0.518,0.092 1.039,0.176 1.56,0.26 l -13.693,-7.917 19.084,-11.03 19.179,11.093 -15.325,8.861 c 0.339,0.02 0.678,0.038 1.018,0.054 l 14.859,-8.595 10.637,6.153 c 0.261,-0.064 0.522,-0.125 0.78,-0.191 l -10.864,-6.282 19.164,-11.082 14.278,8.251 c 0.182,-0.105 0.364,-0.213 0.546,-0.32 l -14.273,-8.253 19.168,-11.084 11.807,6.826 c 0.139,-0.133 0.278,-0.266 0.417,-0.399 l -11.671,-6.752 19.148,-11.073 5.032,2.909 c 0.103,-0.153 0.203,-0.308 0.305,-0.463 l -4.784,-2.766 z m -29.97,-6.121 -19.153,-11.074 19.11,-11.047 19.152,11.075 z M 82.453,69.421 101.604,58.345 120.821,69.458 101.666,80.531 Z m 38.26,22.761 -19.109,11.05 L 82.557,92.22 101.666,81.168 Z M 101.114,80.851 82.003,91.899 62.79,80.791 81.9,69.741 Z m -0.061,22.7 L 81.9,114.627 62.851,103.614 82.003,92.536 Z m 0.551,0.321 19.217,11.107 -19.155,11.074 -19.213,-11.108 z m 0.553,-0.319 19.109,-11.05 19.213,11.111 -19.109,11.046 z m 19.662,-11.371 19.153,-11.074 19.215,11.11 -19.154,11.076 z m -0.553,-0.32 -19.047,-11.011 19.155,-11.074 19.047,11.014 z m -19.109,-33.835 19.217,-11.11 19.213,11.11 -19.213,11.109 z m -0.551,-0.321 -19.155,-11.074 19.215,-11.11 19.155,11.075 z M 101.053,58.027 81.9,69.101 62.745,58.027 81.898,46.952 Z M 62.192,57.706 43.145,46.692 62.3,35.619 81.345,46.632 Z M 81.347,69.421 62.237,80.469 43.084,69.395 62.192,58.345 Z M 61.685,80.791 42.534,91.862 23.376,80.791 42.532,69.715 Z M 62.237,81.108 81.451,92.22 62.3,103.294 43.084,92.182 Z M 81.347,114.945 62.168,126.032 43.119,115.02 62.3,103.932 Z M 81.386,137.779 62.231,148.855 43.02,137.747 62.168,126.67 Z M 62.721,126.353 81.9,115.264 l 19.214,11.111 -19.175,11.086 z m 38.945,0.342 19.155,11.073 -19.174,11.087 -19.157,-11.076 z m 0.553,-0.32 19.155,-11.078 19.151,11.078 -19.151,11.072 z m 77.672,-22.761 -19.15,11.071 -19.154,-11.071 19.154,-11.078 z M 160.743,69.678 179.956,80.791 160.741,91.899 141.525,80.791 Z M 160.19,69.36 140.972,80.469 121.925,69.458 141.14,58.345 Z M 160.187,46.692 141.14,57.706 121.925,46.597 140.972,35.584 Z M 140.421,35.265 121.374,46.28 102.219,35.202 121.264,24.188 Z M 101.666,12.858 120.713,23.871 101.666,34.884 82.619,23.871 Z M 101.114,35.202 81.9,46.314 62.851,35.301 82.066,24.188 Z M 62.3,12.758 81.516,23.871 62.3,34.981 43.084,23.871 Z M 23.376,35.265 42.532,24.188 61.747,35.301 42.592,46.375 Z M 42.592,47.014 61.639,58.027 42.532,69.075 23.485,58.062 Z M 3.77901,69.458 22.932,58.384 41.978,69.395 22.826,80.469 Z M 3.64301,92.199 22.826,81.106 41.981,92.182 22.798,103.275 Z M 23.351,103.592 42.534,92.503 61.747,103.614 42.566,114.703 Z m 0.071,22.818 19.144,-11.07 19.049,11.013 -19.148,11.074 z m -0.043,22.691 19.088,-11.037 19.213,11.108 -19.088,11.041 z m 38.921,22.504 -19.155,-11.073 19.086,-11.035 19.15,11.076 z m 0.484,-22.433 19.155,-11.073 19.155,11.073 -19.159,11.08 z m 38.882,22.494 -19.178,-11.091 19.159,-11.08 19.183,11.086 z m 19.714,-11.403 -19.18,-11.091 19.174,-11.084 19.177,11.084 z m 19.722,-11.408 -19.177,-11.087 19.153,-11.073 19.174,11.084 z"
           fill="#218095"
           id="path79296" />
      </g>
      <path
         d="m 153.75072,173.08328 c 13.15138,0 23.8125,10.66112 23.8125,23.8125 0,13.15138 -10.66112,23.8125 -23.8125,23.8125 -13.15138,0 -23.8125,-10.66112 -23.8125,-23.8125 0,-13.15138 10.66112,-23.8125 23.8125,-23.8125 z"
         stroke="#fa741c"
         id="path79580"
         style="fill:none;stroke-width:0.264583" />
    </g>
    <g
       id="g82675"
       transform="matrix(1.0911164,0,0,1.0911164,-14.109837,-18.348998)">
      <path
         d="m 146.40389,196.1961 c -0.37326,-0.37333 -0.86956,-0.5789 -1.39745,-0.5789 -0.34383,0 -0.6739,0.0877 -0.96571,0.25165 v -6.58034 c 0,-1.08975 -0.88661,-1.97636 -1.97636,-1.97636 -1.08975,0 -1.97636,0.88661 -1.97636,1.97677 l 0.008,9.27392 c 3.4e-4,0.42326 0.15705,1.02069 0.36444,1.38964 0.003,0.006 0.007,0.012 0.0106,0.0179 l 5.82093,9.42606 c 0.12088,0.22039 0.22983,0.63968 0.22983,0.88681 v 1.84794 c 0,0.27908 0.22625,0.50533 0.50532,0.50533 0.27907,0 0.50533,-0.22625 0.50533,-0.50533 v -1.8478 c 0,-0.42333 -0.15645,-1.02096 -0.36391,-1.39005 -0.003,-0.006 -0.007,-0.012 -0.0106,-0.0179 l -5.82087,-9.42606 c -0.12094,-0.22052 -0.23016,-0.64001 -0.23036,-0.88728 l -0.008,-9.27352 c 0,-0.53248 0.43323,-0.96571 0.96571,-0.96571 0.53247,0 0.9657,0.43323 0.9657,0.96571 v 8.30505 c 0,0.0119 9.5e-4,0.0235 0.002,0.0352 0.009,0.49427 0.20071,0.98592 0.57708,1.36228 l 4.52616,4.52616 c 0.19734,0.19735 0.51732,0.19735 0.71459,0 0.19735,-0.19734 0.19735,-0.51731 0,-0.71459 l -4.52616,-4.52616 c -0.18238,-0.18239 -0.28284,-0.42488 -0.28284,-0.6828 0,-0.25798 0.10046,-0.50047 0.28284,-0.68286 0.37657,-0.3765 0.98916,-0.3765 1.36573,0 l 5.56908,5.56908 c 0.62162,0.62169 1.14682,1.88951 1.14682,2.76864 l -1.4e-4,6.88266 c 0,0.27908 0.22625,0.50533 0.50533,0.50533 0.27907,0 0.50532,-0.22625 0.50532,-0.50533 l 7e-5,-6.88272 c 0,-1.14419 -0.63374,-2.67425 -1.44287,-3.48331 z"
         id="path81092"
         style="fill:#fa741c;fill-opacity:1;stroke:#fa741c;stroke-width:0.0673766;stroke-opacity:1" />
      <path
         d="m 165.77771,187.31222 c -1.08975,0 -1.97636,0.88661 -1.97636,1.97636 v 6.58034 c -0.29174,-0.16393 -0.62189,-0.25165 -0.96564,-0.25165 -0.5279,0 -1.02419,0.20563 -1.39746,0.5789 l -5.56902,5.56908 c -0.80912,0.80899 -1.44287,2.33905 -1.44287,3.4833 v 6.88266 c 0,0.27908 0.22625,0.50533 0.50533,0.50533 0.27914,0 0.50532,-0.22625 0.50532,-0.50533 l -7e-5,-6.88272 c 0,-0.87913 0.52521,-2.14703 1.14682,-2.76864 l 5.56909,-5.56909 c 0.18238,-0.18239 0.42487,-0.28284 0.68279,-0.28284 0.25792,0 0.50041,0.10045 0.68286,0.28291 0.18239,0.18239 0.28278,0.42488 0.28278,0.6828 0,0.25791 -0.10039,0.5004 -0.28285,0.68279 l -4.52609,4.52616 c -0.19734,0.19735 -0.19734,0.51732 0,0.7146 0.19748,0.19734 0.51739,0.19721 0.71467,0 l 4.52602,-4.52616 c 0.37334,-0.37327 0.5789,-0.86957 0.5789,-1.39746 v -8.30498 c 0,-0.53248 0.43323,-0.96571 0.96571,-0.96571 0.53241,0 0.96564,0.43323 0.96564,0.96524 l -0.008,9.27392 c -2.7e-4,0.24741 -0.10949,0.66683 -0.23043,0.88728 l -5.82087,9.42613 c -0.004,0.006 -0.007,0.0119 -0.0106,0.0179 -0.20745,0.36916 -0.3639,0.96672 -0.3639,1.39005 v 1.84787 c 0,0.27908 0.22619,0.50533 0.50533,0.50533 0.27914,0 0.50532,-0.22625 0.50532,-0.50533 v -1.8478 c 0,-0.24714 0.10895,-0.66642 0.22982,-0.88681 l 5.82087,-9.42606 c 0.004,-0.006 0.007,-0.0118 0.0105,-0.0178 0.20746,-0.36889 0.36417,-0.96631 0.36458,-1.38971 l 0.008,-9.27439 c 7e-5,-1.08982 -0.88647,-1.97643 -1.97622,-1.97643 z"
         id="path81094"
         style="fill:#fa741c;fill-opacity:1;stroke:#fa741c;stroke-width:0.0673766;stroke-opacity:1" />
      <path
         d="m 153.9298,198.7044 c 0.9019,2.7e-4 1.77962,0.16925 2.60882,0.50229 0.259,0.10403 0.5533,-0.0216 0.65726,-0.28056 0.10396,-0.25899 -0.0216,-0.55323 -0.28062,-0.65726 -0.84295,-0.33856 -1.72936,-0.5287 -2.63948,-0.56737 -0.28986,-0.83372 -0.10767,-1.28178 0.11892,-1.83245 0.24821,-0.60329 0.55107,-1.34072 0.14331,-2.53619 1.86006,-1.43627 2.95958,-3.65666 2.95958,-6.01821 0,-2.4955 -1.22726,-4.83394 -3.28286,-6.25538 -0.17289,-0.11953 -0.4019,-0.11953 -0.57479,0 -2.05566,1.42151 -3.28286,3.75995 -3.28286,6.25538 0,2.44422 1.17788,4.73725 3.15788,6.1661 0.37812,0.94611 0.18677,1.41646 -0.0549,2.00372 -0.22699,0.55174 -0.4996,1.21588 -0.23259,2.2398 -0.79187,0.0682 -1.56347,0.25205 -2.30165,0.55013 -0.25879,0.1045 -0.38384,0.399 -0.27934,0.6578 0.0795,0.1968 0.26876,0.31626 0.46874,0.31626 0.063,0 0.12707,-0.0119 0.18905,-0.0368 0.83298,-0.33635 1.71508,-0.50694 2.62183,-0.50715 6.1e-4,-6e-5 0.001,0 0.004,-6e-5 z m -2.56193,-11.38982 c 0,-2.04468 0.95061,-3.96801 2.55964,-5.21374 1.60902,1.24566 2.55957,3.16906 2.55957,5.21374 0,1.82018 -0.75381,3.54374 -2.05425,4.77916 v -7.86036 c 0,-0.27908 -0.22618,-0.50533 -0.50532,-0.50533 -0.27908,0 -0.50533,0.22625 -0.50533,0.50533 v 7.86036 c -1.3005,-1.23542 -2.05431,-2.95898 -2.05431,-4.77916 z"
         id="path81096"
         style="fill:#2ffa1c;fill-opacity:1;stroke:#fa741c;stroke-width:0.0673766;stroke-opacity:1" />
    </g>
    <g
       id="g81100"
       style="fill:#fa741c;fill-opacity:1;stroke:#fa741c;stroke-opacity:1"
       transform="matrix(0.06737663,0,0,0.06737663,138.08753,180.96952)">
</g>
    <g
       id="g81102"
       style="fill:#fa741c;fill-opacity:1;stroke:#fa741c;stroke-opacity:1"
       transform="matrix(0.06737663,0,0,0.06737663,138.08753,180.96952)">
</g>
    <g
       id="g81104"
       style="fill:#fa741c;fill-opacity:1;stroke:#fa741c;stroke-opacity:1"
       transform="matrix(0.06737663,0,0,0.06737663,138.08753,180.96952)">
</g>
    <g
       id="g81106"
       style="fill:#fa741c;fill-opacity:1;stroke:#fa741c;stroke-opacity:1"
       transform="matrix(0.06737663,0,0,0.06737663,138.08753,180.96952)">
</g>
    <g
       id="g81108"
       style="fill:#fa741c;fill-opacity:1;stroke:#fa741c;stroke-opacity:1"
       transform="matrix(0.06737663,0,0,0.06737663,138.08753,180.96952)">
</g>
    <g
       id="g81110"
       style="fill:#fa741c;fill-opacity:1;stroke:#fa741c;stroke-opacity:1"
       transform="matrix(0.06737663,0,0,0.06737663,138.08753,180.96952)">
</g>
    <g
       id="g81112"
       style="fill:#fa741c;fill-opacity:1;stroke:#fa741c;stroke-opacity:1"
       transform="matrix(0.06737663,0,0,0.06737663,138.08753,180.96952)">
</g>
    <g
       id="g81114"
       style="fill:#fa741c;fill-opacity:1;stroke:#fa741c;stroke-opacity:1"
       transform="matrix(0.06737663,0,0,0.06737663,138.08753,180.96952)">
</g>
    <g
       id="g81116"
       style="fill:#fa741c;fill-opacity:1;stroke:#fa741c;stroke-opacity:1"
       transform="matrix(0.06737663,0,0,0.06737663,138.08753,180.96952)">
</g>
    <g
       id="g81118"
       style="fill:#fa741c;fill-opacity:1;stroke:#fa741c;stroke-opacity:1"
       transform="matrix(0.06737663,0,0,0.06737663,138.08753,180.96952)">
</g>
    <g
       id="g81120"
       style="fill:#fa741c;fill-opacity:1;stroke:#fa741c;stroke-opacity:1"
       transform="matrix(0.06737663,0,0,0.06737663,138.08753,180.96952)">
</g>
    <g
       id="g81122"
       style="fill:#fa741c;fill-opacity:1;stroke:#fa741c;stroke-opacity:1"
       transform="matrix(0.06737663,0,0,0.06737663,138.08753,180.96952)">
</g>
    <g
       id="g81124"
       style="fill:#fa741c;fill-opacity:1;stroke:#fa741c;stroke-opacity:1"
       transform="matrix(0.06737663,0,0,0.06737663,138.08753,180.96952)">
</g>
    <g
       id="g81126"
       style="fill:#fa741c;fill-opacity:1;stroke:#fa741c;stroke-opacity:1"
       transform="matrix(0.06737663,0,0,0.06737663,138.08753,180.96952)">
</g>
    <g
       id="g81128"
       style="fill:#fa741c;fill-opacity:1;stroke:#fa741c;stroke-opacity:1"
       transform="matrix(0.06737663,0,0,0.06737663,138.08753,180.96952)">
</g>
  </g>
</svg>
