<?xml version="1.0" encoding="UTF-8" standalone="no"?>
<svg
   viewBox="0 0 681.43539 682.14314"
   width="179.9606"
   height="180.09496"
   version="1.1"
   id="svg76547"
   sodipodi:docname="namespace-8.svg"
   inkscape:version="1.1.2 (b8e25be833, 2022-02-05)"
   xmlns:inkscape="http://www.inkscape.org/namespaces/inkscape"
   xmlns:sodipodi="http://sodipodi.sourceforge.net/DTD/sodipodi-0.dtd"
   xmlns="http://www.w3.org/2000/svg"
   xmlns:svg="http://www.w3.org/2000/svg">
  <sodipodi:namedview
     id="namedview76549"
     pagecolor="#505050"
     bordercolor="#ffffff"
     borderopacity="1"
     inkscape:pageshadow="0"
     inkscape:pageopacity="0"
     inkscape:pagecheckerboard="1"
     showgrid="false"
     fit-margin-top="0"
     fit-margin-left="-0.2"
     fit-margin-right="0"
     fit-margin-bottom="0"
     inkscape:zoom="5.8209344"
     inkscape:cx="65.796996"
     inkscape:cy="84.264822"
     inkscape:window-width="1920"
     inkscape:window-height="1001"
     inkscape:window-x="-9"
     inkscape:window-y="-9"
     inkscape:window-maximized="1"
     inkscape:current-layer="svg76547" />
  <defs
     id="defs76529">
    <path
       id="a"
       d="M 145.101,185.477 H 277.022 V 296.414 H 145.101 Z" />
  </defs>
  <g
     id="g81010"
     transform="matrix(14.169411,0,0,14.169411,-1840.1305,-2450.6136)">
    <g
       opacity="0.25"
       id="g79298"
       transform="matrix(0.26458333,0,0,0.26458333,129.67364,172.8187)"
       style="fill:none">
      <path
         d="m 171.048,132.174 c 0.155,-0.298 0.304,-0.6 0.454,-0.901 l -10.699,6.188 -19.173,-11.086 19.111,-11.047 14.195,8.206 c 0.067,-0.174 0.132,-0.349 0.198,-0.523 l -13.843,-8.004 18.748,-10.84 c 0.05,-0.341 0.097,-0.683 0.143,-1.025 L 161.291,92.218 180.46,81.136 c -0.027,-0.248 -0.056,-0.497 -0.086,-0.745 L 161.295,69.36 175.851,60.94 c -0.062,-0.176 -0.123,-0.353 -0.186,-0.529 l -14.924,8.63 -19.05,-11.014 19.05,-11.013 12.409,7.175 c -0.131,-0.291 -0.267,-0.58 -0.4,-0.87 l -11.459,-6.627 5.991,-3.463 c -0.098,-0.156 -0.194,-0.313 -0.292,-0.468 l -6.249,3.614 -19.216,-11.11 13.314,-7.7 c -0.133,-0.135 -0.268,-0.27 -0.403,-0.404 L 140.972,34.945 121.817,23.871 138.23,14.38 c -0.177,-0.109 -0.353,-0.222 -0.53,-0.331 l -16.436,9.502 -19.045,-11.013 13.837,-7.99899 c -0.247,-0.072 -0.494,-0.143 -0.742,-0.212 L 101.664,12.218 82.899,1.36801 c -0.319,0.028 -0.64,0.052 -0.959,0.085 L 101.111,12.538 82.066,23.551 62.851,12.441 81.839,1.46101 c -0.46,0.047 -0.918,0.103 -1.376,0.157 L 62.3,12.119 55.588,8.24001 c -0.212,0.09 -0.421,0.184 -0.632,0.276 l 6.789,3.92499 -19.213,11.11 -6.54,-3.781 c -0.158,0.122 -0.318,0.241 -0.475,0.364 l 6.461,3.737 -19.152,11.074 -1.525,-0.882 c -0.118,0.145 -0.234,0.292 -0.351,0.437 l 1.323,0.765 -3.486,2.015 c -0.272,0.366 -0.539,0.735 -0.806,1.105 L 22.826,35.584 42.041,46.692 22.932,57.745 10.565,50.594 c -0.083,0.164 -0.164,0.33 -0.246,0.495 L 22.379,58.062 3.755,68.83 c -0.092,0.365 -0.18,0.732 -0.26799,1.099 L 22.273,80.791 3.09,91.881 1.00401,90.676 C 1.00401,90.784 1,90.892 1,91.001 c 0,0.104 0.00401,0.207 0.00401,0.311 L 2.539,92.199 1.027,93.074 c 0.00501,0.209 0.011,0.419 0.01701,0.628 L 3.09,92.519 22.245,103.592 4.008,114.136 c 0.04901,0.186 0.1,0.37 0.15,0.555 L 22.798,103.913 42.015,115.02 22.869,126.092 4.343,115.375 c 0.072,0.255 0.14701,0.509 0.22,0.764 l 17.755,10.271 -11.04,6.382 c 0.086,0.164 0.172,0.328 0.259,0.491 l 11.334,-6.554 19.045,11.016 -19.09,11.037 -1.581,-0.914 c 0.338,0.414 0.682,0.825 1.028,1.233 0.121,0.143 0.24,0.286 0.362,0.429 l 0.191,-0.112 19.215,11.114 -4.708,2.721 c 0.162,0.121 0.326,0.237 0.488,0.355 l 4.771,-2.759 19.155,11.073 -4.425,2.559 c 0.217,0.088 0.432,0.18 0.65,0.266 l 4.328,-2.502 12.684,7.334 c 0.518,0.092 1.039,0.176 1.56,0.26 l -13.693,-7.917 19.084,-11.03 19.179,11.093 -15.325,8.861 c 0.339,0.02 0.678,0.038 1.018,0.054 l 14.859,-8.595 10.637,6.153 c 0.261,-0.064 0.522,-0.125 0.78,-0.191 l -10.864,-6.282 19.164,-11.082 14.278,8.251 c 0.182,-0.105 0.364,-0.213 0.546,-0.32 l -14.273,-8.253 19.168,-11.084 11.807,6.826 c 0.139,-0.133 0.278,-0.266 0.417,-0.399 l -11.671,-6.752 19.148,-11.073 5.032,2.909 c 0.103,-0.153 0.203,-0.308 0.305,-0.463 l -4.784,-2.766 z m -29.97,-6.121 -19.153,-11.074 19.11,-11.047 19.152,11.075 z M 82.453,69.421 101.604,58.345 120.821,69.458 101.666,80.531 Z m 38.26,22.761 -19.109,11.05 L 82.557,92.22 101.666,81.168 Z M 101.114,80.851 82.003,91.899 62.79,80.791 81.9,69.741 Z m -0.061,22.7 L 81.9,114.627 62.851,103.614 82.003,92.536 Z m 0.551,0.321 19.217,11.107 -19.155,11.074 -19.213,-11.108 z m 0.553,-0.319 19.109,-11.05 19.213,11.111 -19.109,11.046 z m 19.662,-11.371 19.153,-11.074 19.215,11.11 -19.154,11.076 z m -0.553,-0.32 -19.047,-11.011 19.155,-11.074 19.047,11.014 z m -19.109,-33.835 19.217,-11.11 19.213,11.11 -19.213,11.109 z m -0.551,-0.321 -19.155,-11.074 19.215,-11.11 19.155,11.075 z M 101.053,58.027 81.9,69.101 62.745,58.027 81.898,46.952 Z M 62.192,57.706 43.145,46.692 62.3,35.619 81.345,46.632 Z M 81.347,69.421 62.237,80.469 43.084,69.395 62.192,58.345 Z M 61.685,80.791 42.534,91.862 23.376,80.791 42.532,69.715 Z M 62.237,81.108 81.451,92.22 62.3,103.294 43.084,92.182 Z M 81.347,114.945 62.168,126.032 43.119,115.02 62.3,103.932 Z M 81.386,137.779 62.231,148.855 43.02,137.747 62.168,126.67 Z M 62.721,126.353 81.9,115.264 l 19.214,11.111 -19.175,11.086 z m 38.945,0.342 19.155,11.073 -19.174,11.087 -19.157,-11.076 z m 0.553,-0.32 19.155,-11.078 19.151,11.078 -19.151,11.072 z m 77.672,-22.761 -19.15,11.071 -19.154,-11.071 19.154,-11.078 z M 160.743,69.678 179.956,80.791 160.741,91.899 141.525,80.791 Z M 160.19,69.36 140.972,80.469 121.925,69.458 141.14,58.345 Z M 160.187,46.692 141.14,57.706 121.925,46.597 140.972,35.584 Z M 140.421,35.265 121.374,46.28 102.219,35.202 121.264,24.188 Z M 101.666,12.858 120.713,23.871 101.666,34.884 82.619,23.871 Z M 101.114,35.202 81.9,46.314 62.851,35.301 82.066,24.188 Z M 62.3,12.758 81.516,23.871 62.3,34.981 43.084,23.871 Z M 23.376,35.265 42.532,24.188 61.747,35.301 42.592,46.375 Z M 42.592,47.014 61.639,58.027 42.532,69.075 23.485,58.062 Z M 3.77901,69.458 22.932,58.384 41.978,69.395 22.826,80.469 Z M 3.64301,92.199 22.826,81.106 41.981,92.182 22.798,103.275 Z M 23.351,103.592 42.534,92.503 61.747,103.614 42.566,114.703 Z m 0.071,22.818 19.144,-11.07 19.049,11.013 -19.148,11.074 z m -0.043,22.691 19.088,-11.037 19.213,11.108 -19.088,11.041 z m 38.921,22.504 -19.155,-11.073 19.086,-11.035 19.15,11.076 z m 0.484,-22.433 19.155,-11.073 19.155,11.073 -19.159,11.08 z m 38.882,22.494 -19.178,-11.091 19.159,-11.08 19.183,11.086 z m 19.714,-11.403 -19.18,-11.091 19.174,-11.084 19.177,11.084 z m 19.722,-11.408 -19.177,-11.087 19.153,-11.073 19.174,11.084 z"
         fill="#218095"
         id="path79296" />
    </g>
    <path
       d="m 153.75072,173.08328 c 13.15138,0 23.8125,10.66112 23.8125,23.8125 0,13.15138 -10.66112,23.8125 -23.8125,23.8125 -13.15138,0 -23.8125,-10.66112 -23.8125,-23.8125 0,-13.15138 10.66112,-23.8125 23.8125,-23.8125 z"
       stroke="#fa741c"
       id="path79580"
       style="fill:none;stroke-width:0.264583" />
  </g>
  <path
     d="m 37.445662,186.69054 c -0.587091,1.12873 -1.151457,2.27262 -1.719611,3.41271 l 40.524496,-23.43822 72.621383,41.99033 -72.386547,41.84261 -53.766259,-31.08179 c -0.253775,0.65906 -0.499975,1.32191 -0.749963,1.98097 l 52.432993,30.31667 -71.0116119,41.05856 c -0.1893845,1.2916 -0.367406,2.58699 -0.5416397,3.88238 L 74.402154,338.03148 1.7959246,380.00667 a 238.27221,238.27221 0 0 0 0.3257413,2.82182 L 74.387003,424.6105 19.253387,456.50285 c 0.234837,0.66664 0.465886,1.33706 0.704511,2.00369 l 56.527485,-32.68776 72.155497,41.71761 -72.155497,41.71383 -47.001445,-27.17667 c 0.496187,1.10222 1.011313,2.19686 1.515076,3.29529 l 43.40314,25.10102 -22.692051,13.11677 c 0.371194,0.59088 0.734812,1.18555 1.106005,1.77264 l 23.669275,-13.68871 72.784247,42.08123 -50.4293,29.16522 c 0.503762,0.51133 1.015101,1.02267 1.52644,1.53022 l 50.99746,-29.48338 72.5532,41.94488 -62.16736,35.94897 c 0.67042,0.41286 1.33706,0.84087 2.00748,1.25372 l 62.25447,-35.99063 72.13656,41.71383 -52.41027,30.29774 a 237.98814,237.98814 0 0 0 2.81047,0.80299 l 51.70197,-29.88867 71.076,41.09644 c 1.20827,-0.10605 2.42412,-0.19696 3.63239,-0.32195 l -72.6138,-41.98655 72.13655,-41.71383 72.78047,42.08124 -71.92066,41.58884 c 1.74234,-0.17803 3.4771,-0.39014 5.21186,-0.59467 l 68.79581,-39.77453 25.42298,14.69245 c 0.80299,-0.3409 1.59462,-0.69694 2.39382,-1.04541 l -25.71463,-14.86668 72.77289,-42.08124 24.77149,14.32126 c 0.59846,-0.4621 1.20449,-0.91283 1.79916,-1.37872 l -24.47227,-14.1546 72.54184,-41.94488 5.77623,3.34075 c 0.44694,-0.54922 0.88632,-1.10601 1.32948,-1.65522 l -5.01112,-2.89759 13.20389,-7.63219 a 369.22402,369.22402 0 0 0 3.05288,-4.1854 l -18.35136,10.60932 -72.78046,-42.07366 72.37896,-41.86534 46.84237,27.08577 c 0.31438,-0.62118 0.62118,-1.24993 0.93177,-1.8749 l -45.67954,-26.41157 70.54194,-40.78584 c 0.34846,-1.38251 0.68178,-2.77259 1.0151,-4.16267 l -71.15555,-41.14189 72.65926,-42.00548 7.90112,4.56416 c 0,-0.40907 0.0152,-0.81814 0.0152,-1.231 0,-0.39392 -0.0152,-0.78405 -0.0152,-1.17797 l -5.8141,-3.35968 5.72698,-3.31423 -0.0644,-2.37867 -7.74961,4.48084 -72.5532,-41.94109 69.0761,-39.9374 c -0.1856,-0.70452 -0.37877,-1.40145 -0.56815,-2.10217 l -70.60255,40.82372 -72.78803,-42.06987 72.51911,-41.93731 70.17074,40.59268 c -0.27271,-0.96586 -0.55679,-1.92794 -0.83329,-2.8938 l -67.25043,-38.90336 41.81609,-24.17304 -0.98101,-1.85976 -42.92968,24.82453 -72.13655,-41.7252 72.307,-41.80473 5.98834,3.46195 c -1.28024,-1.56811 -2.58321,-3.12485 -3.89375,-4.67023 -0.45831,-0.54164 -0.90904,-1.08328 -1.37114,-1.62491 l -0.72345,0.42422 -72.78046,-42.096388 17.83244,-10.306305 c -0.6136,-0.45831 -1.23479,-0.897682 -1.84839,-1.344629 l -18.07107,10.450236 -72.5532,-41.941091 16.76053,-9.692699 c -0.82193,-0.333317 -1.63629,-0.681784 -2.462,-1.007525 l -16.39313,9.4768 L 401.30631,7.1351005 A 376.64789,376.64789 0 0 0 395.39752,6.1503011 L 447.26236,36.137443 374.97808,77.915664 302.33397,35.898818 360.38032,2.3360973 C 359.0963,2.2603435 357.81227,2.1921651 356.52446,2.131562 L 300.24317,34.686758 259.95351,11.381101 c -0.98859,0.242412 -1.97717,0.473461 -2.9544,0.723449 l 41.14947,23.794268 -72.58729,41.975181 -54.08064,-31.25223 c -0.68936,0.397707 -1.37872,0.806778 -2.06808,1.212061 l 54.0617,31.259805 -72.60244,41.982755 -44.72126,-25.854771 -1.57947,1.511288 44.20613,25.574483 -72.526683,41.94109 -19.059657,-11.01839 c -0.390132,0.57952 -0.768901,1.16661 -1.155245,1.7537 l 18.120309,10.47675 z m 113.517068,23.18445 72.54563,41.94488 -72.38276,41.84261 -72.541836,-41.94866 z m 222.05333,214.50446 -72.53805,41.95246 -72.78804,-42.0926 72.5532,-41.94109 z m -144.91702,-86.21161 72.37897,-41.85397 72.14413,41.71004 -72.37897,41.86155 z m 74.23493,42.91832 72.38655,-41.8464 72.77289,42.07366 -72.38276,41.85397 z m 0.23105,-85.98057 72.54563,-41.95245 72.15171,41.71383 -72.54184,41.96003 z m -2.08701,-1.21584 -72.78804,-42.06988 72.5532,-41.94488 72.77289,42.07366 z m -2.0946,1.20827 -72.37896,41.85397 -72.77289,-42.08502 72.37897,-41.83882 z m -74.47356,43.06982 -72.54562,41.94488 -72.780466,-42.08124 72.549416,-41.95245 z m 2.0946,1.21206 72.14413,41.70626 -72.5532,41.94488 -72.14414,-41.71762 z m 72.37896,128.15649 -72.78803,42.08124 -72.77289,-42.08124 72.77289,-42.07744 z m 2.08702,1.21585 72.5532,41.94488 -72.78046,42.08124 -72.5532,-41.94867 z m 2.09459,-1.21585 72.54563,-41.94488 72.5532,41.94488 -72.54562,41.94867 z m 147.19343,1.21585 72.14413,41.71762 -72.55321,41.94109 -72.13655,-41.71383 z m -72.55321,-44.37279 72.38276,-41.8464 72.54563,41.94488 -72.37518,41.85398 z m 74.47356,-43.06603 72.53806,-41.93352 72.56456,41.93352 -72.55699,41.95245 z m -2.0908,-1.2007 -72.77668,-42.08881 72.53805,-41.94488 72.78426,42.08881 z m -72.38276,-128.16407 72.64411,-41.99412 72.15171,41.71005 -72.65169,41.9979 z m -0.14772,-86.48811 72.55321,-41.95245 72.76531,42.07366 -72.52669,41.95624 z m 70.69724,43.27815 -72.64411,42.00169 -72.77668,-42.08502 72.62896,-41.99033 z m -147.51159,-1.29539 -72.5532,-41.94109 72.62517,-41.99412 72.56077,41.95245 z m -2.09459,1.21206 -72.5532,41.96003 -72.53806,-41.96003 72.53806,-41.93731 z M 3.9511202,294.86697 76.485383,252.93345 149.0348,294.86697 76.485383,336.827 Z M 76.477808,423.40602 3.7049203,381.31342 76.485383,339.23976 149.26963,381.31342 Z m 2.094592,1.20448 72.79183,-42.07745 72.14413,41.70626 -72.78047,42.0926 z m 0.01136,85.85936 72.14413,-41.71762 72.78047,42.07745 -72.14413,41.71383 z m 74.86748,43.28193 72.14414,-41.7214 72.5532,41.96003 -72.13656,41.71762 z m 146.79193,84.87077 -72.14413,-41.71383 72.14413,-41.71383 72.14413,41.71383 z m 2.0908,-84.63214 72.77668,-42.08881 72.15171,41.71383 -72.78047,42.0926 z m 147.0154,85.01091 -72.78425,-42.0926 72.78425,-42.08123 72.78426,42.08123 z m 147.43205,-85.24954 -72.55699,41.95625 -72.78046,-42.0926 72.5532,-41.94488 z m -72.78425,-44.50157 -72.14413,-41.71383 72.37139,-41.8464 72.14413,41.71383 z m 147.01161,-85.01091 -72.54563,41.94488 -72.14034,-41.70626 72.54184,-41.94488 z m 0.51513,-86.13586 -72.65926,42.01685 -72.5532,-41.95246 72.65925,-42.01684 z m -74.6478,-43.15315 -72.65925,42.00169 -72.77289,-42.08502 72.65168,-42.0017 z m -0.26892,-86.42751 -72.51154,41.92973 -72.15171,-41.71383 72.52669,-41.94488 z m 0.16287,-85.94648 -72.29943,41.80474 -72.77289,-42.07366 72.29943,-41.819885 z M 449.34937,37.338141 521.90258,79.279232 449.61073,121.07639 377.07646,79.123937 Z m -1.83324,84.969249 -72.5532,41.94109 -72.5532,-41.94109 72.56835,-41.967605 z M 300.24317,37.107091 372.88349,79.116361 300.31514,121.08396 227.65588,79.093635 Z m -74.67052,43.19103 72.64789,42.009269 -72.62516,41.98275 -72.63654,-41.98275 z m -74.70082,43.209969 72.63653,41.99412 -72.54563,41.94109 -72.625166,-41.98276 z"
     fill="#218095"
     opacity="0.25"
     style="fill:none;stroke-width:3.78769"
     id="path76531" />
  <path
     d="m 565.86346,127.69468 h -455 a 7.5,7.5 0 0 0 -7.5,7.5 v 410 a 7.5,7.5 0 0 0 7.5,7.5 h 455 a 7.5,7.5 0 0 0 7.5,-7.5 v -80 a 7.5,7.5 0 0 0 -7.5,-7.5 7.5,7.5 0 0 0 -7.5,7.5 v 72.5 h -440 v -335 h 440 v 232.5 a 7.5,7.5 0 0 0 7.5,7.5 7.5,7.5 0 0 0 7.5,-7.5 v -300 a 7.5,7.5 0 0 0 -7.5,-7.5 z m -447.5,15 h 277.5 v 45 h -277.5 z m 292.5,45 v -45 h 147.5 v 45 z"
     style="fill:none;stroke:#fa741c;stroke-width:7.6;stroke-miterlimit:4;stroke-dasharray:none;stroke-opacity:1"
     id="path76535" />
  <text
     xml:space="preserve"
     style="font-style:normal;font-weight:400;font-size:35.7759px;line-height:1.25;font-family:sans-serif;fill:#fa741c;fill-opacity:1;stroke:none;stroke-width:0.372666;stroke-opacity:1"
     x="180.03746"
     y="177.80167"
     id="text76545"><tspan
       x="180.03746"
       y="177.80167"
       style="font-style:normal;font-variant:normal;font-weight:700;font-stretch:normal;font-size:35.7759px;font-family:Raleway;-inkscape-font-specification:'Raleway, Bold';font-variant-ligatures:normal;font-variant-caps:normal;font-variant-numeric:normal;font-variant-east-asian:normal;fill:#fa741c;fill-opacity:1;stroke:none;stroke-width:0.372666;stroke-opacity:1"
       id="tspan76543">QUERY:A</tspan></text>
  <text
     xml:space="preserve"
     style="font-style:normal;font-weight:400;font-size:134.756px;line-height:1.25;font-family:sans-serif;fill:#fa741c;fill-opacity:1;stroke:none;stroke-width:1.40371;stroke-opacity:1"
     x="260.47552"
     y="383.73566"
     id="text76545-4"><tspan
       x="260.47552"
       y="383.73566"
       style="font-style:normal;font-variant:normal;font-weight:700;font-stretch:normal;font-size:134.756px;font-family:Raleway;-inkscape-font-specification:'Raleway, Bold';font-variant-ligatures:normal;font-variant-caps:normal;font-variant-numeric:normal;font-variant-east-asian:normal;fill:#fa741c;fill-opacity:1;stroke:none;stroke-width:1.40371;stroke-opacity:1"
       id="tspan76543-8">A</tspan></text>
  <path
     id="path76537-3-5"
     style="fill:none;stroke:#fa741c;stroke-width:7.59999;stroke-miterlimit:4;stroke-dasharray:none;stroke-opacity:1"
     d="m 442.68191,157.42202 c -4.41,0 -8.0044,3.58705 -8.0044,7.99705 m 0,0 c 0,4.411 3.5944,8.00445 8.0044,8.00445 m 0,0 c 4.411,0 7.9971,-3.59345 7.9971,-8.00445 m 0,0 c 0,-4.41 -3.5861,-7.99705 -7.9971,-7.99705 m 40.9988,0 c -4.41,0 -8.0045,3.58705 -8.0045,7.99705 m 0,0 c 0,4.411 3.5945,8.00445 8.0045,8.00445 m 0,0 c 4.411,0 7.997,-3.59345 7.997,-8.00445 m 0,0 c 0,-4.41 -3.586,-7.99705 -7.997,-7.99705 m 40.9987,0 c -4.41,0 -7.997,3.58705 -7.997,7.99705 m 0,0 c 0,4.411 3.587,8.00445 7.997,8.00445 m 0,0 c 4.411,0 7.9971,-3.59345 7.9971,-8.00445 m 0,0 c 0,-4.41 -3.5861,-7.99705 -7.9971,-7.99705"
     sodipodi:nodetypes="cccccccccccccccccccccccc" />
  <path
     id="path76537-3"
     style="fill:none;stroke:#fa741c;stroke-width:7.59999;stroke-miterlimit:4;stroke-dasharray:none;stroke-opacity:1"
     d="m 304.15965,242.91664 c -26.043,0 -50.52435,10.1406 -68.94035,28.5556 m 0,0 c -38.015,38.015 -38.015,99.87304 0,137.88803 m 0,0 c 18.416,18.41603 42.89735,28.55563 68.94035,28.55563 m 0,0 c 23.52703,0 45.77833,-8.2825 63.43633,-23.45851 m 0,0 10.8082,10.8082 m 0,0 -5.3042,5.30424 m 0,0 c -1.407,1.40663 -2.1974,3.31472 -2.1971,5.30424 m 0,0 c -2e-4,1.98952 0.7902,3.89757 2.1971,5.30424 m 0,0 58.5464,58.53899 m 0,0 c 2.9291,2.93019 7.6793,2.93019 10.6085,0 m 0,0 21.2095,-21.20957 m 0,0 c 2.9302,-2.92913 2.9302,-7.67934 0,-10.60847 m 0,0 -58.539,-58.53899 m 0,0 c -2.9291,-2.9302 -7.6793,-2.9302 -10.6084,0 m 0,0 -5.3043,5.29685 m 0,0 -10.8304,-10.82301 m 0,0 c 32.823,-38.265 31.1477,-96.13287 -5.0823,-132.36187 m 0,0 c -18.416,-18.416 -42.8973,-28.5556 -68.94033,-28.5556 m 0,14.99538 c 22.03603,0 42.75723,8.5867 58.33923,24.1687 m 0,0 c 32.167,32.167 32.167,84.50408 0,116.67107 m 0,0 c -15.582,15.58201 -36.3032,24.16131 -58.33923,24.16131 m 0,0 c -22.036,0 -42.74987,-8.5793 -58.33187,-24.16131 m 0,0 c -32.167,-32.16699 -32.167,-84.50407 0,-116.67107 m 0,0 c 15.582,-15.582 36.29587,-24.1687 58.33187,-24.1687 m 95.46153,167.35357 47.9379,47.9379 m 0,0 -10.6085,10.60848 m 0,0 -47.9379,-47.9379 m 0,0 5.3043,-5.29682 m 0,0 5.3042,-5.31166"
     sodipodi:nodetypes="cccccccccccccccccccccccccccccccccccccccccccccccccccccccccc" />
</svg>
