<svg viewBox="0 0 685.37115 685.57117" width="181" height="181" xmlns="http://www.w3.org/2000/svg"><defs><path id="a" d="M145.101 185.477h131.921v110.937H145.101z"/></defs><path d="M171.048 132.174c.155-.298.304-.6.454-.901l-10.699 6.188-19.173-11.086 19.111-11.047 14.195 8.206c.067-.174.132-.349.198-.523l-13.843-8.004 18.748-10.84c.05-.341.097-.683.143-1.025l-18.891-10.924 19.169-11.082a62.907 62.907 0 0 0-.086-.745L161.295 69.36l14.556-8.42c-.062-.176-.123-.353-.186-.529l-14.924 8.63-19.05-11.014 19.05-11.013 12.409 7.175c-.131-.291-.267-.58-.4-.87l-11.459-6.627 5.991-3.463c-.098-.156-.194-.313-.292-.468l-6.249 3.614-19.216-11.11 13.314-7.7c-.133-.135-.268-.27-.403-.404l-13.464 7.784-19.155-11.074 16.413-9.491c-.177-.109-.353-.222-.53-.331l-16.436 9.502-19.045-11.013 13.837-7.999a62.832 62.832 0 0 0-.742-.212l-13.65 7.891-18.765-10.85c-.319.028-.64.052-.959.085l19.171 11.085-19.045 11.013-19.215-11.11 18.988-10.98c-.46.047-.918.103-1.376.157L62.3 12.119 55.588 8.24c-.212.09-.421.184-.632.276l6.789 3.925-19.213 11.11-6.54-3.781c-.158.122-.318.241-.475.364l6.461 3.737-19.152 11.074-1.525-.882c-.118.145-.234.292-.351.437l1.323.765-3.486 2.015a97.48 97.48 0 0 0-.806 1.105l4.845-2.801 19.215 11.108-19.109 11.053-12.367-7.151c-.083.164-.164.33-.246.495l12.06 6.973L3.755 68.83c-.092.365-.18.732-.268 1.099l18.786 10.862L3.09 91.881l-2.086-1.205c0 .108-.004.216-.004.325 0 .104.004.207.004.311l1.535.887-1.512.875.017.628 2.046-1.183 19.155 11.073-18.237 10.544c.049.186.1.37.15.555l18.64-10.778 19.217 11.107-19.146 11.072-18.526-10.717c.072.255.147.509.22.764l17.755 10.271-11.04 6.382.259.491 11.334-6.554 19.045 11.016-19.09 11.037-1.581-.914c.338.414.682.825 1.028 1.233.121.143.24.286.362.429l.191-.112 19.215 11.114-4.708 2.721c.162.121.326.237.488.355l4.771-2.759 19.155 11.073-4.425 2.559c.217.088.432.18.65.266l4.328-2.502 12.684 7.334a99.44 99.44 0 0 0 1.56.26l-13.693-7.917 19.084-11.03 19.179 11.093-15.325 8.861c.339.02.678.038 1.018.054l14.859-8.595 10.637 6.153c.261-.064.522-.125.78-.191l-10.864-6.282 19.164-11.082 14.278 8.251c.182-.105.364-.213.546-.32l-14.273-8.253 19.168-11.084 11.807 6.826.417-.399-11.671-6.752 19.148-11.073 5.032 2.909c.103-.153.203-.308.305-.463l-4.784-2.766zm-29.97-6.121-19.153-11.074 19.11-11.047 19.152 11.075zM82.453 69.421l19.151-11.076 19.217 11.113-19.155 11.073Zm38.26 22.761-19.109 11.05L82.557 92.22l19.109-11.052Zm-19.599-11.331L82.003 91.899 62.79 80.791l19.11-11.05Zm-.061 22.7L81.9 114.627l-19.049-11.013 19.152-11.078Zm.551.321 19.217 11.107-19.155 11.074-19.213-11.108zm.553-.319 19.109-11.05 19.213 11.111-19.109 11.046zm19.662-11.371 19.153-11.074 19.215 11.11-19.154 11.076zm-.553-.32-19.047-11.011 19.155-11.074 19.047 11.014zm-19.109-33.835 19.217-11.11 19.213 11.11-19.213 11.109zm-.551-.321L82.451 46.632l19.215-11.11 19.155 11.075zm-.553.321L81.9 69.101 62.745 58.027l19.153-11.075Zm-38.861-.321L43.145 46.692 62.3 35.619l19.045 11.013Zm19.155 11.715-19.11 11.048-19.153-11.074 19.108-11.05Zm-19.662 11.37L42.534 91.862 23.376 80.791l19.156-11.076Zm.552.317L81.451 92.22 62.3 103.294 43.084 92.182Zm19.11 33.837-19.179 11.087-19.049-11.012L62.3 103.932Zm.039 22.834-19.155 11.076-19.211-11.108 19.148-11.077Zm-18.665-11.426L81.9 115.264l19.214 11.111-19.175 11.086zm38.945.342 19.155 11.073-19.174 11.087-19.157-11.076zm.553-.32 19.155-11.078 19.151 11.078-19.151 11.072zm77.672-22.761-19.15 11.071-19.154-11.071 19.154-11.078zm-19.148-33.936 19.213 11.113-19.215 11.108-19.216-11.108Zm-.553-.318-19.218 11.109-19.047-11.011 19.215-11.113Zm-.003-22.668L141.14 57.706l-19.215-11.109 19.047-11.013Zm-19.766-11.427L121.374 46.28l-19.155-11.078 19.045-11.014Zm-38.755-22.407 19.047 11.013-19.047 11.013-19.047-11.013Zm-.552 22.344L81.9 46.314 62.851 35.301l19.215-11.113ZM62.3 12.758l19.216 11.113L62.3 34.981l-19.216-11.11ZM23.376 35.265l19.156-11.077 19.215 11.113-19.155 11.074Zm19.216 11.749 19.047 11.013-19.107 11.048-19.047-11.013ZM3.779 69.458l19.153-11.074 19.046 11.011-19.152 11.074Zm-.136 22.741 19.183-11.093 19.155 11.076-19.183 11.093Zm19.708 11.393 19.183-11.089 19.213 11.111-19.181 11.089Zm.071 22.818 19.144-11.07 19.049 11.013-19.148 11.074zm-.043 22.691 19.088-11.037 19.213 11.108-19.088 11.041zM62.3 171.605l-19.155-11.073 19.086-11.035 19.15 11.076zm.484-22.433 19.155-11.073 19.155 11.073-19.159 11.08zm38.882 22.494-19.178-11.091 19.159-11.08 19.183 11.086zm19.714-11.403-19.18-11.091 19.174-11.084 19.177 11.084zm19.722-11.408-19.177-11.087 19.153-11.073 19.174 11.084z" fill="#218095" transform="matrix(-3.78769 0 0 -3.78769 687.265 687.465)" opacity=".25" style="fill:none"/><path d="M1333.588-185.636c184.84 0 334.68 149.84 334.68 334.681 0 184.84-149.84 334.681-334.68 334.681s-334.681-149.84-334.681-334.681c0-184.84 149.84-334.68 334.68-334.68z" stroke="#fa741c" style="fill:none;stroke-width:3.71867" transform="matrix(-1.01856 0 0 -1.01856 1700.921 494.596)"/><path d="M567.806 127.835h-455a7.5 7.5 0 0 0-7.5 7.5v410a7.5 7.5 0 0 0 7.5 7.5h455a7.5 7.5 0 0 0 7.5-7.5v-80a7.5 7.5 0 0 0-7.5-7.5 7.5 7.5 0 0 0-7.5 7.5v72.5h-440v-335h440v232.5a7.5 7.5 0 0 0 7.5 7.5 7.5 7.5 0 0 0 7.5-7.5v-300a7.5 7.5 0 0 0-7.5-7.5zm-447.5 15h277.5v45h-277.5zm292.5 45v-45h147.5v45z" style="fill:none;stroke:#fa741c;stroke-width:7.6;stroke-miterlimit:4;stroke-dasharray:none;stroke-opacity:1"/><path d="M486.806 157.335c-4.41 0-8 3.59-8 8 0 4.411 3.59 8 8 8 4.411 0 8-3.589 8-8 0-4.41-3.589-8-8-8zM445.806 157.335c-4.41 0-8 3.59-8 8 0 4.411 3.59 8 8 8 4.411 0 8-3.589 8-8 0-4.41-3.589-8-8-8zM527.806 157.335c-4.41 0-8 3.59-8 8 0 4.411 3.59 8 8 8 4.411 0 8-3.589 8-8 0-4.41-3.589-8-8-8zM375.051 433.793a7.5 7.5 0 0 0 2.196 5.303l58.543 58.542a7.5 7.5 0 0 0 10.608 0l21.213-21.213a7.5 7.5 0 0 0 0-10.606l-58.542-58.542a7.5 7.5 0 0 0-10.607 0l-5.303 5.303-10.83-10.83c32.823-38.265 31.15-96.13-5.08-132.359-18.416-18.416-42.9-28.557-68.943-28.557s-50.527 10.142-68.943 28.557c-38.015 38.015-38.015 99.871 0 137.886 18.416 18.416 42.9 28.557 68.943 28.557 23.527 0 45.78-8.279 63.438-23.455l10.807 10.808-5.303 5.303a7.499 7.499 0 0 0-2.197 5.303zM249.97 396.67c-32.167-32.167-32.167-84.506 0-116.673 15.582-15.582 36.3-24.164 58.336-24.164s42.754 8.582 58.336 24.164c32.167 32.167 32.167 84.506 0 116.673-15.582 15.582-36.3 24.164-58.336 24.164s-42.754-8.582-58.336-24.164zm201.732 74.453-10.606 10.607-47.937-47.936 5.301-5.3 5.306-5.307z" style="fill:none;stroke:#fa741c;stroke-width:7.6;stroke-miterlimit:4;stroke-dasharray:none;stroke-opacity:1"/><text xml:space="preserve" style="font-style:normal;font-weight:400;font-size:96px;line-height:1.25;font-family:sans-serif;fill:#fa741c;fill-opacity:1;stroke:none;stroke-opacity:1" x="276.903" y="374.087"><tspan x="276.903" y="374.087" style="font-style:normal;font-variant:normal;font-weight:700;font-stretch:normal;font-size:96px;font-family:Raleway;-inkscape-font-specification:'Raleway, Bold';font-variant-ligatures:normal;font-variant-caps:normal;font-variant-numeric:normal;font-variant-east-asian:normal;fill:#fa741c;fill-opacity:1;stroke:none;stroke-opacity:1">A</tspan></text><text xml:space="preserve" style="font-style:normal;font-weight:400;font-size:35.7759px;line-height:1.25;font-family:sans-serif;fill:#fa741c;fill-opacity:1;stroke:none;stroke-width:.372666;stroke-opacity:1" x="181.98" y="177.942"><tspan x="181.98" y="177.942" style="font-style:normal;font-variant:normal;font-weight:700;font-stretch:normal;font-size:35.7759px;font-family:Raleway;-inkscape-font-specification:'Raleway, Bold';font-variant-ligatures:normal;font-variant-caps:normal;font-variant-numeric:normal;font-variant-east-asian:normal;fill:#fa741c;fill-opacity:1;stroke:none;stroke-width:.372666;stroke-opacity:1">QUERY: A</tspan></text></svg>
