<?xml version="1.0" encoding="UTF-8" standalone="no"?>
<!-- Generator: Adobe Illustrator 19.0.0, SVG Export Plug-In . SVG Version: 6.00 Build 0)  -->

<svg
   version="1.1"
   id="Layer_1"
   x="0px"
   y="0px"
   viewBox="0 0 180.99999 181"
   xml:space="preserve"
   sodipodi:docname="stakev2-second.svg"
   width="181"
   height="181"
   inkscape:version="1.1.2 (b8e25be833, 2022-02-05)"
   xmlns:inkscape="http://www.inkscape.org/namespaces/inkscape"
   xmlns:sodipodi="http://sodipodi.sourceforge.net/DTD/sodipodi-0.dtd"
   xmlns="http://www.w3.org/2000/svg"
   xmlns:svg="http://www.w3.org/2000/svg"><defs
   id="defs12819">
	

		
		
		
		
		
		
		
		
		
		
		
		
		
		
		
		
		
		
		
		
		
		
		
		
		
		
		
			
		
			
		
		
		
	</defs><sodipodi:namedview
   id="namedview12817"
   pagecolor="#505050"
   bordercolor="#ffffff"
   borderopacity="1"
   inkscape:pageshadow="0"
   inkscape:pageopacity="0"
   inkscape:pagecheckerboard="1"
   showgrid="false"
   fit-margin-top="0"
   fit-margin-left="0"
   fit-margin-right="0"
   fit-margin-bottom="0"
   inkscape:zoom="1.4142136"
   inkscape:cx="317.49094"
   inkscape:cy="158.03836"
   inkscape:window-width="1920"
   inkscape:window-height="1001"
   inkscape:window-x="-9"
   inkscape:window-y="-9"
   inkscape:window-maximized="1"
   inkscape:current-layer="Layer_1" />








<g
   id="g12786"
   transform="translate(173.35908,192.94759)">
</g>
<g
   id="g12788"
   transform="translate(173.35908,192.94759)">
</g>
<g
   id="g12790"
   transform="translate(173.35908,192.94759)">
</g>
<g
   id="g12792"
   transform="translate(173.35908,192.94759)">
</g>
<g
   id="g12794"
   transform="translate(173.35908,192.94759)">
</g>
<g
   id="g12796"
   transform="translate(173.35908,192.94759)">
</g>
<g
   id="g12798"
   transform="translate(173.35908,192.94759)">
</g>
<g
   id="g12800"
   transform="translate(173.35908,192.94759)">
</g>
<g
   id="g12802"
   transform="translate(173.35908,192.94759)">
</g>
<g
   id="g12804"
   transform="translate(173.35908,192.94759)">
</g>
<g
   id="g12806"
   transform="translate(173.35908,192.94759)">
</g>
<g
   id="g12808"
   transform="translate(173.35908,192.94759)">
</g>
<g
   id="g12810"
   transform="translate(173.35908,192.94759)">
</g>
<g
   id="g12812"
   transform="translate(173.35908,192.94759)">
</g>
<g
   id="g12814"
   transform="translate(173.35908,192.94759)">
</g>
<g
   id="g30835"
   transform="translate(145.13678,147.95576)">
</g><g
   id="g30837"
   transform="translate(145.13678,147.95576)">
</g><g
   id="g30839"
   transform="translate(145.13678,147.95576)">
</g><g
   id="g30841"
   transform="translate(145.13678,147.95576)">
</g><g
   id="g30843"
   transform="translate(145.13678,147.95576)">
</g><g
   id="g30845"
   transform="translate(145.13678,147.95576)">
</g><g
   id="g30847"
   transform="translate(145.13678,147.95576)">
</g><g
   id="g30849"
   transform="translate(145.13678,147.95576)">
</g><g
   id="g30851"
   transform="translate(145.13678,147.95576)">
</g><g
   id="g30853"
   transform="translate(145.13678,147.95576)">
</g><g
   id="g30855"
   transform="translate(145.13678,147.95576)">
</g><g
   id="g30857"
   transform="translate(145.13678,147.95576)">
</g><g
   id="g30859"
   transform="translate(145.13678,147.95576)">
</g><g
   id="g30861"
   transform="translate(145.13678,147.95576)">
</g><g
   id="g30863"
   transform="translate(145.13678,147.95576)">
</g><ellipse
   id="circle24468-1"
   style="fill:#fa741c;fill-opacity:1;stroke:#fa741c;stroke-width:1.75408;stroke-miterlimit:4;stroke-dasharray:none;stroke-opacity:1"
   ry="0.70509881"
   rx="4.2475176"
   cy="91.51255"
   cx="66.25502" /><path
   d="m 108.71384,79.025059 c -0.7665,0.608388 -5.07357,3.129345 -4.30708,3.737734 0.76627,0.608382 2.71492,0.847577 3.27221,0.109676 3.54056,-4.688038 4.62128,-4.532922 6.931,-0.155125 0.20937,0.396785 0.63125,0.611404 1.13357,0.611404 0.50234,0 1.00444,-0.152104 1.38755,-0.456286 0.76652,-0.608389 0.76652,-1.594773 0,-2.203155 -5.49837,-4.255862 -5.04635,-4.320648 -8.41725,-1.644263 z"
   id="path24472-0"
   style="fill:#fa741c;fill-opacity:1;stroke-width:0.218558"
   sodipodi:nodetypes="ccsssccc" /><g
   id="g81010-6-9"
   transform="matrix(3.7795276,0,0,3.7795276,-490.60509,-653.67303)"><g
     opacity="0.25"
     id="g79298-4-3"
     transform="matrix(0.26458333,0,0,0.26458333,129.67364,172.8187)"
     style="fill:none"><path
       d="m 171.048,132.174 c 0.155,-0.298 0.304,-0.6 0.454,-0.901 l -10.699,6.188 -19.173,-11.086 19.111,-11.047 14.195,8.206 c 0.067,-0.174 0.132,-0.349 0.198,-0.523 l -13.843,-8.004 18.748,-10.84 c 0.05,-0.341 0.097,-0.683 0.143,-1.025 L 161.291,92.218 180.46,81.136 c -0.027,-0.248 -0.056,-0.497 -0.086,-0.745 L 161.295,69.36 175.851,60.94 c -0.062,-0.176 -0.123,-0.353 -0.186,-0.529 l -14.924,8.63 -19.05,-11.014 19.05,-11.013 12.409,7.175 c -0.131,-0.291 -0.267,-0.58 -0.4,-0.87 l -11.459,-6.627 5.991,-3.463 c -0.098,-0.156 -0.194,-0.313 -0.292,-0.468 l -6.249,3.614 -19.216,-11.11 13.314,-7.7 c -0.133,-0.135 -0.268,-0.27 -0.403,-0.404 L 140.972,34.945 121.817,23.871 138.23,14.38 c -0.177,-0.109 -0.353,-0.222 -0.53,-0.331 l -16.436,9.502 -19.045,-11.013 13.837,-7.99899 c -0.247,-0.072 -0.494,-0.143 -0.742,-0.212 L 101.664,12.218 82.899,1.36801 c -0.319,0.028 -0.64,0.052 -0.959,0.085 L 101.111,12.538 82.066,23.551 62.851,12.441 81.839,1.46101 c -0.46,0.047 -0.918,0.103 -1.376,0.157 L 62.3,12.119 55.588,8.24001 c -0.212,0.09 -0.421,0.184 -0.632,0.276 l 6.789,3.92499 -19.213,11.11 -6.54,-3.781 c -0.158,0.122 -0.318,0.241 -0.475,0.364 l 6.461,3.737 -19.152,11.074 -1.525,-0.882 c -0.118,0.145 -0.234,0.292 -0.351,0.437 l 1.323,0.765 -3.486,2.015 c -0.272,0.366 -0.539,0.735 -0.806,1.105 L 22.826,35.584 42.041,46.692 22.932,57.745 10.565,50.594 c -0.083,0.164 -0.164,0.33 -0.246,0.495 L 22.379,58.062 3.755,68.83 c -0.092,0.365 -0.18,0.732 -0.26799,1.099 L 22.273,80.791 3.09,91.881 1.00401,90.676 C 1.00401,90.784 1,90.892 1,91.001 c 0,0.104 0.00401,0.207 0.00401,0.311 L 2.539,92.199 1.027,93.074 c 0.00501,0.209 0.011,0.419 0.01701,0.628 L 3.09,92.519 22.245,103.592 4.008,114.136 c 0.04901,0.186 0.1,0.37 0.15,0.555 L 22.798,103.913 42.015,115.02 22.869,126.092 4.343,115.375 c 0.072,0.255 0.14701,0.509 0.22,0.764 l 17.755,10.271 -11.04,6.382 c 0.086,0.164 0.172,0.328 0.259,0.491 l 11.334,-6.554 19.045,11.016 -19.09,11.037 -1.581,-0.914 c 0.338,0.414 0.682,0.825 1.028,1.233 0.121,0.143 0.24,0.286 0.362,0.429 l 0.191,-0.112 19.215,11.114 -4.708,2.721 c 0.162,0.121 0.326,0.237 0.488,0.355 l 4.771,-2.759 19.155,11.073 -4.425,2.559 c 0.217,0.088 0.432,0.18 0.65,0.266 l 4.328,-2.502 12.684,7.334 c 0.518,0.092 1.039,0.176 1.56,0.26 l -13.693,-7.917 19.084,-11.03 19.179,11.093 -15.325,8.861 c 0.339,0.02 0.678,0.038 1.018,0.054 l 14.859,-8.595 10.637,6.153 c 0.261,-0.064 0.522,-0.125 0.78,-0.191 l -10.864,-6.282 19.164,-11.082 14.278,8.251 c 0.182,-0.105 0.364,-0.213 0.546,-0.32 l -14.273,-8.253 19.168,-11.084 11.807,6.826 c 0.139,-0.133 0.278,-0.266 0.417,-0.399 l -11.671,-6.752 19.148,-11.073 5.032,2.909 c 0.103,-0.153 0.203,-0.308 0.305,-0.463 l -4.784,-2.766 z m -29.97,-6.121 -19.153,-11.074 19.11,-11.047 19.152,11.075 z M 82.453,69.421 101.604,58.345 120.821,69.458 101.666,80.531 Z m 38.26,22.761 -19.109,11.05 L 82.557,92.22 101.666,81.168 Z M 101.114,80.851 82.003,91.899 62.79,80.791 81.9,69.741 Z m -0.061,22.7 L 81.9,114.627 62.851,103.614 82.003,92.536 Z m 0.551,0.321 19.217,11.107 -19.155,11.074 -19.213,-11.108 z m 0.553,-0.319 19.109,-11.05 19.213,11.111 -19.109,11.046 z m 19.662,-11.371 19.153,-11.074 19.215,11.11 -19.154,11.076 z m -0.553,-0.32 -19.047,-11.011 19.155,-11.074 19.047,11.014 z m -19.109,-33.835 19.217,-11.11 19.213,11.11 -19.213,11.109 z m -0.551,-0.321 -19.155,-11.074 19.215,-11.11 19.155,11.075 z M 101.053,58.027 81.9,69.101 62.745,58.027 81.898,46.952 Z M 62.192,57.706 43.145,46.692 62.3,35.619 81.345,46.632 Z M 81.347,69.421 62.237,80.469 43.084,69.395 62.192,58.345 Z M 61.685,80.791 42.534,91.862 23.376,80.791 42.532,69.715 Z M 62.237,81.108 81.451,92.22 62.3,103.294 43.084,92.182 Z M 81.347,114.945 62.168,126.032 43.119,115.02 62.3,103.932 Z M 81.386,137.779 62.231,148.855 43.02,137.747 62.168,126.67 Z M 62.721,126.353 81.9,115.264 l 19.214,11.111 -19.175,11.086 z m 38.945,0.342 19.155,11.073 -19.174,11.087 -19.157,-11.076 z m 0.553,-0.32 19.155,-11.078 19.151,11.078 -19.151,11.072 z m 77.672,-22.761 -19.15,11.071 -19.154,-11.071 19.154,-11.078 z M 160.743,69.678 179.956,80.791 160.741,91.899 141.525,80.791 Z M 160.19,69.36 140.972,80.469 121.925,69.458 141.14,58.345 Z M 160.187,46.692 141.14,57.706 121.925,46.597 140.972,35.584 Z M 140.421,35.265 121.374,46.28 102.219,35.202 121.264,24.188 Z M 101.666,12.858 120.713,23.871 101.666,34.884 82.619,23.871 Z M 101.114,35.202 81.9,46.314 62.851,35.301 82.066,24.188 Z M 62.3,12.758 81.516,23.871 62.3,34.981 43.084,23.871 Z M 23.376,35.265 42.532,24.188 61.747,35.301 42.592,46.375 Z M 42.592,47.014 61.639,58.027 42.532,69.075 23.485,58.062 Z M 3.77901,69.458 22.932,58.384 41.978,69.395 22.826,80.469 Z M 3.64301,92.199 22.826,81.106 41.981,92.182 22.798,103.275 Z M 23.351,103.592 42.534,92.503 61.747,103.614 42.566,114.703 Z m 0.071,22.818 19.144,-11.07 19.049,11.013 -19.148,11.074 z m -0.043,22.691 19.088,-11.037 19.213,11.108 -19.088,11.041 z m 38.921,22.504 -19.155,-11.073 19.086,-11.035 19.15,11.076 z m 0.484,-22.433 19.155,-11.073 19.155,11.073 -19.159,11.08 z m 38.882,22.494 -19.178,-11.091 19.159,-11.08 19.183,11.086 z m 19.714,-11.403 -19.18,-11.091 19.174,-11.084 19.177,11.084 z m 19.722,-11.408 -19.177,-11.087 19.153,-11.073 19.174,11.084 z"
       fill="#218095"
       id="path79296-6-4" /></g><path
     d="m 153.75072,173.08328 c 13.15138,0 23.8125,10.66112 23.8125,23.8125 0,13.15138 -10.66112,23.8125 -23.8125,23.8125 -13.15138,0 -23.8125,-10.66112 -23.8125,-23.8125 0,-13.15138 10.66112,-23.8125 23.8125,-23.8125 z"
     stroke="#fa741c"
     id="path79580-1-6"
     style="fill:none;stroke-width:0.264583" /></g><g
   id="g4542-3-5"
   transform="translate(-4.9747228,24.166836)"><path
     d="m 170.18624,93.400206 c -0.0379,-0.654747 -0.81662,-1.166383 -2.37409,-1.556703 0.0524,-0.114804 0.0819,-0.234197 0.0823,-0.358183 v -2.677165 h -0.007 c -0.137,-2.230205 -9.27595,-2.296027 -10.32561,-2.296027 -1.04967,0 -10.18862,0.06582 -10.32561,2.296027 h -0.007 v 0.04975 0 0 2.628567 c 0.002,0.727075 0.94022,1.296106 2.3362,1.719723 -0.0191,0.06353 -0.0306,0.128197 -0.0344,0.194014 h -0.006 v 0.04975 0 0 2.623977 c -1.5039,0.387263 -2.25508,0.891623 -2.2922,1.535656 h -0.004 v 0.04975 0 0 2.628568 c 0.001,0.50627 0.45767,0.93563 1.20465,1.29343 -0.0283,0.0777 -0.0459,0.15689 -0.0509,0.23802 h -0.006 v 0.0498 0 0 2.62856 c 0.003,1.27277 2.86888,2.06298 6.05309,2.43187 0.0233,0.005 0.0448,0.0142 0.0696,0.0142 0.007,0 0.0134,-0.004 0.0207,-0.004 0.6138,0.0693 1.23755,0.12322 1.8548,0.16187 0.013,0.002 0.0245,0.008 0.0379,0.008 0.007,0 0.013,-0.004 0.0199,-0.004 0.78371,0.0475 1.55479,0.0716 2.27612,0.0716 0.72134,0 1.49242,-0.0241 2.27613,-0.0719 0.007,4.7e-4 0.013,0.004 0.0199,0.004 0.0134,0 0.0249,-0.007 0.0379,-0.008 0.61724,-0.0387 1.241,-0.0922 1.8548,-0.16187 0.007,0 0.0134,0.004 0.0207,0.004 0.0249,0 0.0463,-0.01 0.0696,-0.0142 3.18421,-0.36889 6.04965,-1.15949 6.05309,-2.43264 v -2.67716 h -0.006 c -0.0268,-0.46915 -0.42667,-0.86063 -1.21651,-1.18781 0.0482,-0.1106 0.0746,-0.2254 0.0746,-0.34441 v -2.501133 c 1.37379,-0.42247 2.29412,-0.987673 2.29603,-1.708245 v -2.677176 z m -3.09849,7.010914 -0.13049,0.11442 c -0.2009,0.17718 -0.53573,0.35588 -0.97619,0.52809 v -1.824582 c 0.455,-0.158424 0.84226,-0.334068 1.14801,-0.526555 v 1.583497 c 0,0.0394 -0.0145,0.0815 -0.0413,0.12513 z m -8.55881,1.77828 c -0.0559,0.002 -0.11213,0.002 -0.16838,0.003 -0.13661,0.003 -0.27667,0.003 -0.4152,0.005 v -1.91144 c 0.10524,-0.001 0.21047,-0.003 0.31571,-0.005 0.0203,-4.7e-4 0.0406,-9.3e-4 0.0608,-10e-4 0.38535,-0.007 0.7707,-0.0191 1.15414,-0.0367 v 1.91067 c -0.0819,0.004 -0.16417,0.008 -0.24721,0.0115 -0.23037,0.0103 -0.46303,0.018 -0.6999,0.0237 z m -1.67113,0.005 c -0.17526,-0.003 -0.34976,-0.007 -0.52311,-0.0127 -0.0214,-9.3e-4 -0.0429,-0.002 -0.0643,-0.002 -0.20855,-0.007 -0.41558,-0.0157 -0.62107,-0.0256 v -1.91031 c 0.38343,0.018 0.76878,0.0299 1.15413,0.0367 0.0203,4.6e-4 0.0406,9.2e-4 0.0605,0.001 0.10523,0.002 0.21047,0.003 0.3157,0.005 v 1.91259 c -0.0742,-9.2e-4 -0.14848,-9.2e-4 -0.22233,-0.002 -0.0337,-9.2e-4 -0.0662,-0.002 -0.0995,-0.002 z m -6.9118,-0.87249 c -0.0126,-0.004 -0.0245,-0.007 -0.0371,-0.0107 v -1.848691 c 0.35742,0.09643 0.74162,0.184452 1.14802,0.264427 v 1.867814 c -0.3513,-0.0746 -0.67542,-0.15306 -0.97046,-0.23342 -0.0467,-0.0134 -0.0949,-0.026 -0.14044,-0.0394 z m 8.06594,3.16889 c 0.10523,0.002 0.21047,0.003 0.3157,0.005 v 1.91297 c -0.52885,-0.005 -1.03933,-0.0203 -1.53068,-0.0444 v -1.91073 c 0.38343,0.018 0.76879,0.0299 1.15413,0.0367 0.0203,0 0.0406,4.7e-4 0.0609,9.3e-4 z m 1.45759,-10e-4 c 0.38535,-0.007 0.7707,-0.0191 1.15414,-0.0367 v 1.91068 c -0.49135,0.0241 -1.00183,0.0394 -1.53068,0.0444 v -1.91297 c 0.10523,-0.001 0.21046,-0.003 0.3157,-0.005 0.0203,0 0.0406,-4.6e-4 0.0608,-9.3e-4 z m 3.06749,-0.17297 v 1.90035 c -0.36774,0.0387 -0.75041,0.0727 -1.14801,0.10064 v -1.90838 c 0.38803,-0.0252 0.77146,-0.0563 1.14801,-0.0926 z m 0.76535,-0.0827 c 0.39453,-0.0474 0.77758,-0.1014 1.14801,-0.16148 v 1.87891 c -0.36048,0.0635 -0.74353,0.12207 -1.14801,0.17526 z m 1.91335,-0.2981 c 0.4064,-0.08 0.7906,-0.16799 1.14801,-0.26442 v 1.84868 c -0.34096,0.0983 -0.72478,0.19363 -1.14801,0.28356 z m -13.01081,0 v 1.86782 c -0.42324,-0.0899 -0.80706,-0.18522 -1.14801,-0.28356 v -1.84868 c 0.35741,0.0964 0.74161,0.18482 1.14801,0.26442 z m 0.76534,0.137 c 0.37043,0.0601 0.75348,0.11403 1.14801,0.16149 v 1.89269 c -0.40448,-0.0532 -0.78754,-0.11175 -1.14801,-0.17527 z m 1.91336,0.24375 c 0.37654,0.0364 0.75998,0.0674 1.14801,0.093 v 1.90839 c -0.3976,-0.0279 -0.78027,-0.062 -1.14801,-0.10065 z m -0.94941,-2.28837 c -0.039,-0.004 -0.0777,-0.008 -0.11633,-0.0119 -0.0276,-0.003 -0.0547,-0.006 -0.0823,-0.009 v -1.89996 c 0.37655,0.0364 0.75998,0.0674 1.14802,0.093 v 1.90685 c -0.32145,-0.023 -0.63907,-0.049 -0.94941,-0.0792 z m -0.96395,-2.00366 v 1.89269 c -0.40448,-0.0532 -0.78754,-0.11174 -1.14802,-0.17526 v -1.878914 c 0.37043,0.06008 0.75349,0.114416 1.14802,0.161484 z m 7.52561,2.06489 c -0.0842,0.007 -0.16914,0.013 -0.25486,0.0191 v -1.90838 c 0.38803,-0.0256 0.77146,-0.0563 1.14801,-0.093 v 1.90034 c -0.23649,0.0249 -0.47834,0.0482 -0.72669,0.0685 -0.0555,0.005 -0.11098,0.009 -0.16646,0.0134 z m 1.65849,-0.1722 v -1.89269 c 0.39454,-0.04745 0.77759,-0.10141 1.14802,-0.161486 v 1.878916 c -0.36048,0.0635 -0.74354,0.12245 -1.14802,0.17526 z m 1.91336,-2.190792 c 0.40639,-0.07998 0.79059,-0.167991 1.14801,-0.264424 v 1.848686 c -0.34096,0.0984 -0.72478,0.19363 -1.14801,0.28355 z m -5.23303,-1.747967 c -0.28777,-0.0073 -0.56903,-0.01837 -0.84532,-0.03176 -0.0149,-9.23e-4 -0.0299,-0.0016 -0.0444,-0.0018 v -1.910677 c 0.38344,0.01798 0.76879,0.02985 1.15414,0.03674 0.0203,4.61e-4 0.0406,9.23e-4 0.0605,0.0014 0.10523,0.0018 0.21047,0.0034 0.3157,0.0046 v 1.910677 c -0.18636,-0.0018 -0.37425,-0.0027 -0.55602,-0.0069 -0.0279,-9.23e-4 -0.0566,-0.0014 -0.0846,-0.0018 z m -8.9258,-5.468626 v -1.848642 c 0.35742,0.09643 0.74162,0.18445 1.14802,0.264427 v 1.867817 c -0.0471,-0.01 -0.0957,-0.01989 -0.14159,-0.02985 -0.20358,-0.04477 -0.40219,-0.09146 -0.59199,-0.140824 -0.14465,-0.03712 -0.28203,-0.075 -0.41444,-0.112888 z m 6.95505,-1.029769 c 0.10523,0.0018 0.21047,0.0034 0.3157,0.0046 v 1.910677 c -0.51507,-0.005 -1.02709,-0.01837 -1.53068,-0.04362 v -1.909146 c 0.38343,0.01798 0.76878,0.02985 1.15413,0.03674 0.0203,0 0.0406,4.61e-4 0.0609,9.23e-4 z m 1.45759,-0.0014 c 0.38535,-0.0073 0.7707,-0.01913 1.15413,-0.03674 v 1.909145 c -0.0651,0.0031 -0.12742,0.0077 -0.19286,0.01073 -0.005,4.62e-4 -0.0107,4.62e-4 -0.0164,9.23e-4 -0.25677,0.01147 -0.51852,0.01989 -0.78371,0.02602 -0.0413,0.0014 -0.0827,0.0016 -0.12399,0.0027 -0.13623,0.0027 -0.27552,0.0031 -0.41367,0.0046 v -1.911441 c 0.10524,-0.0014 0.21047,-0.0027 0.31571,-0.0046 0.0203,-4.62e-4 0.0406,-9.23e-4 0.0608,-0.0014 z m 8.71992,0.192101 -0.0107,-0.0023 -0.13929,0.108296 c -0.20205,0.157277 -0.51239,0.31647 -0.91037,0.470302 v -1.820366 c 0.45499,-0.158425 0.84226,-0.33407 1.14801,-0.526555 v 1.583495 c 0,0.05816 -0.0306,0.120923 -0.0876,0.187124 z m -4.88709,1.442669 v -1.890412 c 0.39454,-0.04745 0.77759,-0.101406 1.14802,-0.161487 v 1.875853 c -0.36278,0.06429 -0.74468,0.123219 -1.14802,0.176029 z m 1.91336,-0.323358 v -1.864694 c 0.40639,-0.07998 0.79059,-0.167994 1.14801,-0.264426 v 1.844471 c -0.34287,0.09988 -0.72899,0.195164 -1.14801,0.284709 z m -2.6787,-1.484379 v 1.898045 c -0.36966,0.03903 -0.75233,0.07309 -1.14801,0.10141 v -1.906408 c 0.38803,-0.02564 0.77146,-0.05664 1.14801,-0.09299 z m -7.65342,1.898811 v -1.898742 c 0.37655,0.03635 0.75998,0.06735 1.14802,0.09299 v 1.904935 c -0.38957,-0.02794 -0.77377,-0.0597 -1.14802,-0.09911 z m -0.76534,-1.981469 v 1.890776 c -0.0758,-0.01 -0.1546,-0.01798 -0.22961,-0.02832 -0.049,-0.0069 -0.0957,-0.01417 -0.14388,-0.02105 -0.22118,-0.03176 -0.43739,-0.06582 -0.64939,-0.101408 -0.0425,-0.0073 -0.0834,-0.01493 -0.12514,-0.0222 v -1.878913 c 0.37043,0.05969 0.75349,0.114033 1.14802,0.161103 z m 4.11448,6.668806 c -0.0517,-0.0038 -0.1037,-0.0077 -0.15498,-0.01147 -0.24491,-0.01913 -0.48408,-0.04018 -0.71751,-0.06352 -0.0501,-0.005 -0.10026,-0.01034 -0.15001,-0.0153 -0.0103,-0.0014 -0.0203,-0.0027 -0.0306,-0.0034 v -1.900344 c 0.37654,0.03636 0.75998,0.06735 1.14801,0.09299 v 1.907234 c -0.031,-0.0023 -0.0639,-0.0038 -0.0949,-0.0061 z m -2.52831,-0.285857 c -0.15154,-0.02411 -0.29389,-0.05013 -0.43816,-0.07538 v -1.876531 c 0.37043,0.06008 0.75348,0.114035 1.14802,0.161489 v 1.892689 c -0.2342,-0.031 -0.46342,-0.06314 -0.68346,-0.09758 -0.009,-0.0018 -0.0176,-0.0034 -0.0264,-0.0046 z m -1.2035,-2.089 v 1.864756 c -0.42285,-0.09069 -0.80629,-0.187126 -1.14801,-0.287385 v -1.841795 c 0.35741,0.09643 0.74161,0.184828 1.14801,0.264424 z m -1.91336,-0.498238 v 1.818071 c -0.60155,-0.23228 -0.98958,-0.469537 -1.11586,-0.68077 l -0.0256,-0.04286 c -0.002,-0.01186 -0.006,-0.02449 -0.007,-0.03636 v -1.58464 c 0.30575,0.192485 0.69302,0.368131 1.14801,0.526555 z m 9.17799,1.051965 c 0.38534,-0.0073 0.77069,-0.01913 1.15413,-0.03674 v 1.908762 c -0.50283,0.02488 -1.01408,0.03865 -1.53068,0.04401 v -1.910294 c 0.10523,-0.0014 0.21047,-0.0027 0.3157,-0.0046 0.0203,-4.61e-4 0.0406,-9.23e-4 0.0608,-0.0014 z m 4.94525,1.468306 c -0.16799,0.02908 -0.33751,0.05778 -0.51163,0.08419 -0.0999,0.0153 -0.20205,0.02985 -0.3046,0.04439 -0.0968,0.01378 -0.19746,0.02564 -0.29581,0.03827 v -1.890776 c 0.39453,-0.04745 0.77759,-0.101408 1.14801,-0.161489 v 1.878915 c -0.0122,0.0023 -0.0241,0.0046 -0.036,0.0065 z m -2.59106,0.326801 c -0.14274,0.01186 -0.29007,0.01952 -0.43472,0.02985 v -1.904878 c 0.38803,-0.02564 0.77147,-0.05625 1.14802,-0.09299 v 1.898431 c -0.22234,0.02334 -0.44429,0.04668 -0.67274,0.06582 -0.0138,0.0014 -0.0268,0.0027 -0.0406,0.0038 z m 4.37316,-0.717507 c -0.19057,0.05319 -0.39224,0.102938 -0.59811,0.151536 -0.0953,0.0222 -0.19249,0.04439 -0.29198,0.06582 -0.0295,0.0065 -0.0609,0.01225 -0.0907,0.01876 v -1.866981 c 0.40639,-0.07998 0.79059,-0.167993 1.14801,-0.264426 v 1.848683 c -0.0551,0.0153 -0.11059,0.03099 -0.16723,0.04668 z m 2.07599,-3.723769 c -0.0352,0.259832 -0.62414,0.605382 -1.67533,0.930273 v 0 c -1.35389,0.418259 -3.47236,0.801312 -6.15718,0.919937 -0.13738,0.0057 -0.27437,0.01149 -0.41443,0.01608 -0.11442,0.0038 -0.22922,0.0073 -0.34594,0.01034 -0.31685,0.0069 -0.63829,0.01186 -0.96968,0.01186 -0.3314,0 -0.65284,-0.005 -0.96969,-0.01223 -0.11634,-0.0027 -0.23114,-0.0065 -0.34594,-0.01034 -0.14044,-0.0042 -0.27743,-0.01034 -0.41443,-0.01606 -2.68482,-0.118629 -4.80367,-0.501683 -6.15717,-0.919942 v 0 c -1.04278,-0.322209 -1.63056,-0.665083 -1.67419,-0.923768 0.002,-0.0073 0.002,-0.01341 0.007,-0.02257 0.026,0.0065 0.0551,0.01186 0.0815,0.01837 0.14963,0.03559 0.30308,0.07003 0.45921,0.102938 0.76037,0.163785 1.60301,0.298104 2.50076,0.400659 0.003,0 0.005,0.0016 0.008,0.0016 9.2e-4,0 0.002,-4.62e-4 0.002,-4.62e-4 0.61151,0.06965 1.24598,0.124367 1.89729,0.163019 0.005,0 0.009,0.0027 0.0142,0.0027 0.003,0 0.005,-0.0016 0.007,-0.0016 0.46878,0.02756 0.94367,0.04783 1.42431,0.05855 0.29427,0.0073 0.58318,0.0111 0.86445,0.0111 0.2009,0 0.40678,-0.0023 0.61457,-0.0061 2.78048,-0.04286 5.35739,-0.373484 7.15059,-0.885882 0.0827,-0.02334 0.1634,-0.04745 0.24299,-0.07156 0.0486,-0.01493 0.0984,-0.02946 0.14542,-0.04439 0.13852,-0.04439 0.27131,-0.08993 0.39951,-0.137379 0.0222,-0.0084 0.0432,-0.01685 0.0654,-0.02525 0.1083,-0.04095 0.21239,-0.08342 0.31188,-0.126665 0.0287,-0.01265 0.0582,-0.02487 0.0861,-0.0375 0.106,-0.04783 0.20855,-0.09682 0.30346,-0.14771 0.0429,-0.02257 0.08,-0.04592 0.12015,-0.06888 0.0459,-0.0264 0.0918,-0.05319 0.13432,-0.08036 0.0241,-0.01532 0.0528,-0.02985 0.0758,-0.04515 1.71322,0.371574 2.16477,0.777969 2.2084,0.936396 z m -11.85859,-6.147486 c 6.30986,0 9.50134,0.993412 9.56104,1.563592 -0.0463,0.258685 -0.63371,0.60041 -1.67381,0.921855 v 0 c -1.35389,0.418261 -3.47235,0.80131 -6.15717,0.919942 -0.13738,0.0058 -0.27438,0.01149 -0.41444,0.01606 -0.11441,0.0038 -0.22922,0.0073 -0.34593,0.01034 -0.31685,0.0073 -0.6383,0.01225 -0.96969,0.01225 -0.33139,0 -0.65284,-0.005 -0.96969,-0.01225 -0.11633,-0.0027 -0.23113,-0.0065 -0.34593,-0.01034 -0.14044,-0.0042 -0.27744,-0.01034 -0.41444,-0.01606 -2.68481,-0.118632 -4.80366,-0.501681 -6.15717,-0.919942 v 0 c -1.04048,-0.321443 -1.6275,-0.66317 -1.6738,-0.921855 0.0597,-0.570178 3.25117,-1.563592 9.56103,-1.563592 z m -9.56677,4.207846 v -1.58457 c 0.30575,0.192484 0.69301,0.36813 1.14801,0.526557 v 1.83223 c -0.74429,-0.27897 -1.14725,-0.5587 -1.14801,-0.774145 z m 1.85366,5.295782 c 0.006,0.0061 0.0145,0.01149 0.0203,0.01761 0.52388,0.528853 1.60875,0.944433 2.9592,1.254395 0.031,0.0073 0.0639,0.01417 0.0953,0.02144 0.0991,0.0222 0.19976,0.04401 0.30155,0.06505 1.24023,0.264043 2.72079,0.454996 4.33375,0.549513 0.001,0 0.002,4.62e-4 0.003,4.62e-4 9.3e-4,0 0.001,-4.62e-4 0.002,-4.62e-4 0.51814,0.03024 1.04814,0.05128 1.58923,0.06047 0.23956,0.005 0.47528,0.008 0.70565,0.008 0.26404,0 0.53497,-0.0031 0.8105,-0.0096 0.50053,-0.01034 0.99379,-0.03099 1.48017,-0.05931 0.002,0 0.003,0.0014 0.005,0.0014 0.003,0 0.006,-0.0018 0.01,-0.0018 1.61716,-0.09528 3.13446,-0.288149 4.41755,-0.565588 -0.27782,0.145416 -0.65819,0.295808 -1.13194,0.442369 v 0 c -1.42928,0.441602 -3.71191,0.843791 -6.61294,0.937161 -0.0861,0.0027 -0.17105,0.0057 -0.2583,0.008 -0.0937,0.0023 -0.18904,0.0038 -0.28432,0.0057 -0.2407,0.0038 -0.48293,0.0073 -0.73167,0.0073 -0.33139,0 -0.65284,-0.005 -0.96969,-0.01225 -0.11633,-0.0027 -0.23113,-0.0065 -0.34593,-0.01032 -0.14044,-0.0042 -0.27744,-0.01034 -0.41444,-0.01608 -2.68482,-0.118627 -4.80366,-0.501679 -6.15717,-0.919942 v 0 c -1.05235,-0.325269 -1.64128,-0.671205 -1.67533,-0.931037 0.0425,-0.143884 0.42935,-0.503977 1.84944,-0.852209 z m -1.85366,3.50565 v -1.58464 c 0.30575,0.192485 0.69301,0.368129 1.14801,0.526555 v 1.824955 l -0.21851,-0.0849 -0.005,0.005 c -0.60079,-0.24912 -0.92415,-0.49364 -0.92491,-0.68651 z m 1.14801,4.20938 v -1.58464 c 0.30576,0.19248 0.69302,0.36813 1.14801,0.52656 v 1.83223 c -0.74429,-0.27897 -1.14725,-0.5587 -1.14801,-0.77415 z m 17.98553,0.77415 v -1.83185 c 0.455,-0.15843 0.84226,-0.33407 1.14802,-0.52656 v 1.58349 c -4.7e-4,0.21545 -0.40372,0.49557 -1.14802,0.77492 z m 1.14304,-3.42185 c -0.0417,0.25907 -0.62949,0.60271 -1.67457,0.92568 v 0 c -1.35389,0.41826 -3.47235,0.80132 -6.15717,0.91994 -0.13738,0.006 -0.27438,0.0115 -0.41443,0.0161 -0.11442,0.004 -0.22922,0.007 -0.34594,0.0103 -0.31685,0.007 -0.63829,0.0119 -0.96969,0.0119 -0.33139,0 -0.65322,-0.005 -0.97045,-0.0122 -0.11518,-0.003 -0.22884,-0.006 -0.34249,-0.0103 -0.14121,-0.005 -0.27897,-0.0103 -0.41711,-0.0161 -2.68482,-0.11863 -4.80329,-0.50168 -6.15718,-0.91994 v 0 c -1.01216,-0.31264 -1.59688,-0.6448 -1.67036,-0.90119 0.11404,0.0398 0.23229,0.0785 0.35359,0.11633 0.0122,0.004 0.0245,0.008 0.0367,0.0111 0.10332,0.0318 0.20894,0.0624 0.31723,0.0922 0.041,0.0115 0.0823,0.023 0.12399,0.0341 0.0612,0.0165 0.12399,0.0321 0.18674,0.0482 1.39369,0.35703 3.17273,0.60998 5.09335,0.72363 9.2e-4,0 0.001,4.6e-4 0.002,4.6e-4 4.6e-4,0 9.2e-4,-4.6e-4 10e-4,-4.6e-4 0.59314,0.0352 1.19891,0.057 1.81118,0.0643 0.16302,0.003 0.32489,0.005 0.4837,0.005 0.21085,0 0.42668,-0.003 0.64518,-0.007 0.55832,-0.009 1.10937,-0.0298 1.64817,-0.062 0.001,0 0.002,9.3e-4 0.003,9.3e-4 0.002,0 0.003,-0.001 0.005,-0.001 0.65628,-0.0394 1.29151,-0.0957 1.90187,-0.1657 0.002,0 0.004,0.001 0.007,0.001 0.008,0 0.0153,-0.004 0.0237,-0.005 0.67962,-0.0784 1.32403,-0.17488 1.92215,-0.287 0.12322,-0.0226 0.24453,-0.0459 0.36469,-0.07 0.0268,-0.005 0.0536,-0.0107 0.0804,-0.0165 1.13003,-0.2319 2.10813,-0.5323 2.77934,-0.90464 0.0367,-0.0199 0.0712,-0.0406 0.106,-0.0609 0.0425,-0.0253 0.083,-0.0509 0.12245,-0.0769 0.0367,-0.0237 0.0792,-0.0467 0.11289,-0.0708 0.75539,0.2694 0.96356,0.51049 0.98844,0.60653 z m 0.005,-4.996916 v -1.831846 c 0.45499,-0.158425 0.84226,-0.334073 1.14801,-0.526555 v 1.583492 c -4.6e-4,0.215446 -0.40372,0.495557 -1.14801,0.774909 z"
     id="path13600-5-7"
     style="fill:#fa741c;fill-opacity:1;stroke:none;stroke-width:0.382673;stroke-opacity:1" /><path
     id="path13600-6-7-10"
     style="fill:#fa741c;fill-opacity:1;stroke:none;stroke-width:0.382673;stroke-opacity:1"
     d="m 155.76239,74.325357 c 0.006,0.0073 0.0119,0.01408 0.0176,0.02148 m 0,0 c 0.88999,-0.05015 1.86255,-0.08008 2.93164,-0.08008 6.30986,0 9.50085,0.99232 9.56055,1.5625 -0.0463,0.258685 -0.63334,0.60043 -1.67383,0.921875 -1.3535,0.418259 -3.47338,0.801292 -6.1582,0.919922 -0.13699,0.0057 -0.27363,0.01143 -0.41407,0.01563 -0.1148,0.0038 -0.22936,0.009 -0.3457,0.01172 -0.31685,0.0072 -0.63736,0.01172 -0.96875,0.01172 -0.3314,0 -0.65385,-0.0044 -0.9707,-0.01172 -0.11672,-0.003 -0.23129,-0.0079 -0.3457,-0.01172 -0.14006,-0.0046 -0.27669,-0.0098 -0.41407,-0.01563 -2.68482,-0.11863 -4.80431,-0.501663 -6.1582,-0.919922 -1.0401,-0.321445 -1.62753,-0.66319 -1.67383,-0.921875 0.0486,-0.464108 2.17399,-1.207803 6.36524,-1.46875 m 0,0 c -0.008,-0.0083 -0.017,-0.01706 -0.0254,-0.02539 m -0.51539,-0.691354 c -2.93743,0.217549 -6.5027,0.767391 -6.58789,2.154297 h -0.008 v 2.675781 c 4e-4,0.123985 0.0316,0.244571 0.084,0.359375 -1.55747,0.390323 -2.3371,0.901889 -2.375,1.556641 h -0.004 v 2.675547 c 0.002,0.72057 0.92308,1.286514 2.29687,1.708984 v 2.501954 c 0,0.11901 0.026,0.233154 0.0742,0.34375 -0.78983,0.327184 -1.19,0.718346 -1.2168,1.1875 h -0.006 v 2.677734 c 0.003,1.273149 2.86854,2.062747 6.05274,2.43164 0.0233,0.0046 0.0454,0.01563 0.0703,0.01563 0.007,0 0.0125,-0.0039 0.0195,-0.0039 0.61381,0.06965 1.23822,0.121506 1.85547,0.160157 0.013,0.0012 0.0237,0.0078 0.0371,0.0078 0.007,0 0.0145,-0.0034 0.0215,-0.0039 0.78371,0.04783 1.55406,0.07227 2.27539,0.07227 0.72133,0 1.49168,-0.02482 2.27539,-0.07227 0.007,4e-4 0.0145,0.0059 0.0215,0.0059 0.0134,0 0.0241,-0.0062 0.0371,-0.0078 0.61725,-0.03865 1.24166,-0.09284 1.85547,-0.16211 0.007,4e-4 0.0125,0.0039 0.0195,0.0039 0.0248,-10e-7 0.047,-0.0091 0.0703,-0.01367 3.1842,-0.368897 6.04974,-1.158878 6.05274,-2.431641 v -2.628906 -0.05078 h -0.006 c -0.005,-0.08113 -0.0225,-0.160602 -0.0508,-0.238282 0.74698,-0.357797 1.20408,-0.786696 1.20508,-1.292968 v -2.628907 -0.04883 h -0.004 c -0.0371,-0.644035 -0.78907,-1.147891 -2.29297,-1.535156 v -2.625 -0.04883 h -0.006 c -0.004,-0.06582 -0.0161,-0.131783 -0.0352,-0.195313 1.39598,-0.423617 2.33589,-0.991678 2.33789,-1.71875 v -2.628906 -0.04883 h -0.008 c -0.137,-2.230207 -9.27456,-2.296875 -10.32422,-2.296875 l 5.1e-4,-4.8e-5 m -3.22258,0.833984 c 0.007,0.0025 0.0113,0.0045 0.0195,0.0078 m 0,0 c 0.003,-1.79e-4 0.006,-0.0019 0.01,-0.002 m 0,0 c -0.0103,-0.0024 -0.0184,-0.01002 -0.0273,-0.01563 m 0,0 c -0.006,-0.0035 -0.009,-0.01107 -0.0156,-0.01172 m 0,0 c -0.004,-3.68e-4 -4.3e-4,0.0071 0.002,0.0098 m 0,0 c 0.004,0.004 0.008,0.0078 0.0117,0.01172 m 0,0 -3e-4,3e-5 m 0.27344,-0.0098 c -0.003,-0.0037 -0.005,-0.008 -0.008,-0.01172 m 0,0 c -0.002,-0.0032 -0.007,-0.0056 -0.01,-0.0078 m 0,0 c -0.004,-0.0024 -0.0135,-0.0098 -0.0117,-0.0059 m 0,0 c 0.005,0.01149 0.0161,0.02089 0.0234,0.03125 m 0,0 c -2.2e-4,0.0059 -9.4e-4,0.01159 -0.002,0.01758 m 0,0 c 0.004,-2.18e-4 0.008,2.17e-4 0.0117,0 m 0,0 c -6.8e-4,-0.008 -0.003,-0.01548 -0.004,-0.02344 m 0,0 6e-4,3e-5 m -0.2131,-0.0039 c -7.3e-4,0.0043 -0.004,0.01346 -0.004,0.01953 m 0,0 c -2.3e-4,0.0049 -5.8e-4,0.0088 0,0.01172 m 0,0 c 3.4e-4,0.002 0.001,0.0038 0.002,0.0059 m 0,0 c 0.002,-1.16e-4 0.004,1.16e-4 0.006,0 m 0,0 c -6.6e-4,-0.0065 -0.001,-0.013 -0.002,-0.01953 m 0,0 c -6.8e-4,-0.0055 -9.9e-4,-0.01206 -0.002,-0.01758 m 0,0 v -4e-5 m -6.40625,2.56836 c 0.30576,0.192485 0.69344,0.366964 1.14844,0.52539 v 1.820313 c -0.39798,-0.153832 -0.7081,-0.311473 -0.91016,-0.46875 l -0.13867,-0.109375 -0.0117,0.002 c -0.057,-0.0662 -0.0879,-0.12933 -0.0879,-0.1875 z m 19.13477,0 v 1.583984 c -7.7e-4,0.215445 -0.40414,0.494469 -1.14844,0.773438 v -1.832032 c 0.455,-0.158424 0.84269,-0.332903 1.14844,-0.52539 z m -17.22071,0.759765 c 0.35741,0.09643 0.74204,0.185645 1.14844,0.265625 v 1.863282 c -0.41902,-0.08954 -0.80557,-0.183324 -1.14844,-0.283203 z m 15.30664,0 v 1.84961 c -0.13239,0.03789 -0.26941,0.07616 -0.41406,0.113281 -0.1898,0.04936 -0.38821,0.09586 -0.59179,0.140625 -0.0459,0.01 -0.0955,0.0194 -0.14258,0.0293 v -1.867188 c 0.4064,-0.07998 0.79103,-0.169195 1.14843,-0.265625 z m -13.39257,0.400391 c 0.37043,0.06008 0.75195,0.114659 1.14648,0.162109 v 1.890625 c -0.40333,-0.05281 -0.78371,-0.111491 -1.14648,-0.175781 z m 11.47851,0.002 v 1.878906 c -0.0417,0.0073 -0.0825,0.01418 -0.125,0.02148 -0.212,0.03559 -0.42724,0.0698 -0.64844,0.101562 -0.0482,0.0069 -0.0955,0.01458 -0.14453,0.02148 -0.075,0.01034 -0.15271,0.01734 -0.22851,0.02734 v -1.890625 c 0.39453,-0.04707 0.77605,-0.100456 1.14648,-0.160156 z m -9.5664,0.242188 c 0.37654,0.03635 0.7604,0.06811 1.14843,0.09375 v 1.90625 c -0.39568,-0.02832 -0.77877,-0.06253 -1.14843,-0.101563 z m 7.65429,0 v 1.90039 c -0.37426,0.03941 -0.75887,0.06973 -1.14843,0.09766 v -1.904296 c 0.38803,-0.02564 0.77188,-0.0574 1.14843,-0.09375 z m -5.74023,0.136718 c 0.38344,0.01761 0.76896,0.02981 1.1543,0.03711 0.0203,4.77e-4 0.0402,0.0015 0.0605,0.002 0.10523,0.0019 0.21118,0.0025 0.31641,0.0039 v 1.912109 c -0.13814,-0.0015 -0.27783,-0.0032 -0.41406,-0.0059 -0.0413,-0.0011 -0.0837,-5.53e-4 -0.125,-0.002 -0.26519,-0.0061 -0.52644,-0.01392 -0.78321,-0.02539 -0.006,-4.62e-4 -0.0106,-0.0015 -0.0156,-0.002 -0.0654,-0.003 -0.12836,-0.0067 -0.19336,-0.0098 z m 3.82617,0 v 1.910157 c -0.5036,0.02525 -1.01618,0.03797 -1.53125,0.04297 v -1.910156 c 0.10523,-0.0012 0.21118,-0.0021 0.31641,-0.0039 0.0202,-4.61e-4 0.0402,-0.002 0.0605,-0.002 0.38535,-0.0069 0.77086,-0.01913 1.1543,-0.03711 z m -11.56445,1.046875 c 0.023,0.01531 0.0521,0.0296 0.0762,0.04492 0.0425,0.02717 0.0889,0.05368 0.13477,0.08008 0.0402,0.02296 0.0782,0.04579 0.12109,0.06836 0.0949,0.0509 0.19673,0.100607 0.30273,0.148437 0.0279,0.01263 0.0572,0.02447 0.0859,0.03711 0.0995,0.04324 0.2042,0.086 0.3125,0.126953 0.0222,0.0084 0.0423,0.01699 0.0645,0.02539 0.12819,0.04745 0.26186,0.09233 0.40039,0.136719 0.0471,0.01493 0.0959,0.02999 0.14454,0.04492 0.0796,0.02411 0.16144,0.04893 0.24414,0.07227 1.7932,0.512397 4.3699,0.841905 7.15039,0.884765 0.20779,0.0038 0.41237,0.0059 0.61328,0.0059 0.28126,0 0.57096,-0.0025 0.86523,-0.0098 0.48064,-0.01071 0.95506,-0.03104 1.42383,-0.05859 h 0.008 c 0.005,0 0.009,-0.002 0.0137,-0.002 0.6513,-0.03865 1.28497,-0.09246 1.89648,-0.162109 h 0.004 c 0.003,0 0.005,-0.002 0.008,-0.002 0.89775,-0.102552 1.73964,-0.236608 2.5,-0.400391 0.15613,-0.03291 0.30935,-0.06793 0.45898,-0.103516 0.0264,-0.0065 0.056,-0.01108 0.082,-0.01758 0.005,0.0092 0.004,0.01418 0.006,0.02148 -0.0436,0.258685 -0.63105,0.601617 -1.67383,0.923828 -1.35351,0.418257 -3.47142,0.801292 -6.15624,0.919922 -0.137,0.0057 -0.27363,0.01338 -0.41407,0.01758 -0.1148,0.0038 -0.23132,0.0071 -0.34765,0.0098 -0.31686,0.0072 -0.63736,0.01172 -0.96875,0.01172 -0.33139,0 -0.65386,-0.0048 -0.97071,-0.01172 -0.11671,-0.003 -0.23129,-0.006 -0.3457,-0.0098 -0.14006,-0.0046 -0.27668,-0.0098 -0.41406,-0.01563 -2.68481,-0.118627 -4.80236,-0.501661 -6.15625,-0.919922 -1.0512,-0.324888 -1.64058,-0.671809 -1.67578,-0.931641 0.0436,-0.158424 0.49381,-0.563974 2.20703,-0.935547 z m -2.21094,2.003907 c 0.30575,0.192482 0.69344,0.368918 1.14844,0.527343 v 1.832032 c -0.74417,-0.279368 -1.14785,-0.559965 -1.14831,-0.77541 z m 19.13281,0 v 1.583965 c -0.001,0.01186 -0.004,0.02525 -0.006,0.03711 l -0.0254,0.04297 c -0.12628,0.211234 -0.51562,0.447409 -1.11718,0.679688 v -1.81836 h 0.002 c 0.455,-0.158427 0.84072,-0.332905 1.14648,-0.52539 z m -17.2207,0.759765 c 0.35741,0.09643 0.74205,0.185645 1.14844,0.265625 v 1.867188 c -0.0299,-0.0065 -0.0603,-0.01303 -0.0899,-0.01953 -0.0995,-0.02143 -0.19767,-0.04421 -0.29297,-0.06641 -0.20588,-0.0486 -0.40708,-0.0972 -0.59765,-0.15039 -0.0566,-0.01569 -0.11287,-0.03158 -0.16797,-0.04687 z m 15.30859,0 v 1.841797 c -0.34173,0.100261 -0.72558,0.19642 -1.14843,0.28711 v -1.863282 c 0.40639,-0.0796 0.79101,-0.169195 1.14843,-0.265625 z m -13.39453,0.402344 c 0.37043,0.06008 0.7539,0.112706 1.14844,0.160156 v 1.890625 c -0.0984,-0.01263 -0.20008,-0.02333 -0.29688,-0.03711 -0.10256,-0.01454 -0.20478,-0.02962 -0.30468,-0.04492 -0.17411,-0.02641 -0.34372,-0.0549 -0.51172,-0.08398 -0.0119,-0.0019 -0.023,-0.0036 -0.0352,-0.0059 z m 11.48047,0 v 1.876953 c -0.14427,0.02525 -0.28596,0.05011 -0.4375,0.07422 -0.009,0.0012 -0.0183,0.0041 -0.0273,0.0059 -0.22003,0.03444 -0.44941,0.0647 -0.6836,0.0957 v -1.892578 c 0.39453,-0.04745 0.77802,-0.100076 1.14844,-0.160156 z m -9.56641,0.244141 c 0.37655,0.03674 0.75846,0.06616 1.14649,0.0918 v 1.904297 c -0.14465,-0.01033 -0.29086,-0.01744 -0.4336,-0.0293 -0.0138,-0.0011 -0.0272,-0.0025 -0.041,-0.0039 -0.22845,-0.01913 -0.44955,-0.04111 -0.67188,-0.06445 z m 7.65235,0 v 1.90039 c -0.0103,7e-4 -0.019,5.53e-4 -0.0293,0.002 -0.0498,0.005 -0.10029,0.01063 -0.15039,0.01563 -0.23343,0.02335 -0.47384,0.04532 -0.71875,0.06445 -0.0513,0.0038 -0.1026,0.006 -0.1543,0.0098 v 0.002 c -0.031,0.0023 -0.0647,0.0036 -0.0957,0.0059 v -1.908204 c 0.38803,-0.02564 0.77189,-0.05545 1.14844,-0.0918 z m -5.74024,0.134765 c 0.38343,0.01761 0.76895,0.02981 1.1543,0.03711 0.0202,4.76e-4 0.0403,0.0015 0.0606,0.002 0.10524,0.0019 0.21116,0.0025 0.3164,0.0039 v 1.910156 c -0.51661,-0.0054 -1.02843,-0.01809 -1.53125,-0.04297 z m 3.82813,0 v 1.91211 c -0.0146,2e-4 -0.03,0.001 -0.0449,0.002 -0.27629,0.01339 -0.55794,0.02395 -0.84571,0.03125 -0.028,4e-4 -0.0561,10e-4 -0.084,0.002 -0.18177,0.0042 -0.37028,0.006 -0.55664,0.0078 v -1.91221 c 0.10524,-0.0012 0.21116,-0.0021 0.3164,-0.0039 0.0199,-4.77e-4 0.0402,-0.0015 0.0605,-0.002 0.38535,-0.0069 0.77087,-0.01913 1.1543,-0.03711 z m 8.09375,0.748047 h 0.002 c 1.41846,0.34808 1.80518,0.707744 1.84766,0.851563 -0.0341,0.259832 -0.62343,0.606371 -1.67578,0.93164 -1.35351,0.418263 -3.47143,0.801295 -6.15625,0.919922 -0.13699,0.0057 -0.27363,0.01143 -0.41407,0.01563 -0.1148,0.0038 -0.22937,0.0071 -0.3457,0.0098 -0.31686,0.0072 -0.63931,0.01367 -0.9707,0.01367 -0.24874,0 -0.49172,-0.004 -0.73242,-0.0078 -0.0953,-0.002 -0.18951,-0.0036 -0.28321,-0.0059 -0.0872,-0.0023 -0.17171,-0.0051 -0.25781,-0.0078 -2.90102,-0.09337 -5.18401,-0.495897 -6.61328,-0.9375 -0.47375,-0.14656 -0.85499,-0.297941 -1.13281,-0.443359 1.28309,0.277439 2.8008,0.471126 4.41797,0.566406 0.004,0 0.007,0.002 0.01,0.002 0.002,0 0.004,-0.002 0.006,-0.002 0.48637,0.02831 0.97994,0.05021 1.48047,0.06055 0.27552,0.0065 0.54651,0.0078 0.81055,0.0078 0.23037,-1e-6 0.46552,-0.0028 0.70507,-0.0078 0.5411,-0.0092 1.07171,-0.03032 1.58985,-0.06055 l 0.002,0.002 0.002,-0.002 c 1.61296,-0.09452 3.09375,-0.284782 4.33399,-0.548828 0.10179,-0.02104 0.20168,-0.04225 0.30078,-0.06445 0.0314,-0.0073 0.0647,-0.01418 0.0957,-0.02148 1.35044,-0.309964 2.43512,-0.725055 2.95899,-1.253906 0.005,-0.0058 0.0136,-0.01188 0.0195,-0.01758 z m -17.27917,1.919903 c 0.30576,0.192485 0.69344,0.368917 1.14844,0.527344 v 1.824218 c -0.44046,-0.172201 -0.77566,-0.350167 -0.97656,-0.527343 l -0.13086,-0.115235 c -0.0268,-0.04363 -0.041,-0.08558 -0.041,-0.125 z m 19.13477,0 v 1.583984 c -7.7e-4,0.192867 -0.32498,0.438379 -0.92578,0.6875 l -0.004,-0.0039 -0.21875,0.08398 V 86.21775 c 0.455,-0.158424 0.84269,-0.334859 1.14844,-0.527344 z m -17.22071,0.759766 c 0.35741,0.09643 0.74204,0.185645 1.14844,0.265625 v 1.867187 c -0.42323,-0.08993 -0.80749,-0.184853 -1.14844,-0.283203 z m 15.30664,0.002 v 1.847656 c -0.0126,0.0034 -0.0245,0.0079 -0.0371,0.01172 -0.0455,0.01339 -0.0939,0.02565 -0.14063,0.03906 -0.29505,0.08036 -0.61941,0.157802 -0.9707,0.232422 v -1.867187 c 0.4064,-0.07998 0.79103,-0.167242 1.14843,-0.263671 z m -13.39257,0.40039 c 0.37043,0.06008 0.75195,0.112707 1.14648,0.160157 v 1.894531 c -0.40448,-0.05281 -0.786,-0.112261 -1.14648,-0.175781 z m 11.47851,0 v 1.878907 c -0.36048,0.06352 -0.742,0.122591 -1.14648,0.175781 v -1.894531 c 0.39453,-0.04707 0.77605,-0.100077 1.14648,-0.160157 z m -9.5664,0.244141 c 0.37654,0.03674 0.7604,0.06616 1.14843,0.0918 v 1.908203 c -0.0857,-0.0061 -0.1697,-0.01108 -0.2539,-0.01758 -0.0555,-0.0042 -0.11247,-0.0087 -0.16797,-0.01367 -0.24836,-0.02028 -0.49007,-0.04349 -0.72656,-0.06836 z m 7.65429,0 v 1.900391 c -0.0276,0.0027 -0.0544,0.0051 -0.082,0.0078 -0.0386,0.0038 -0.0782,0.0079 -0.11719,0.01172 -0.31035,0.03023 -0.62776,0.05712 -0.94921,0.08008 v -1.906288 c 0.38803,-0.02564 0.77188,-0.0574 1.14843,-0.09375 z m -5.74023,0.134766 c 0.38343,0.01761 0.76896,0.02981 1.1543,0.03711 0.0203,4.77e-4 0.0402,0.0015 0.0605,0.002 0.10523,0.0019 0.20923,0.0025 0.31446,0.0039 v 1.91211 c -0.13852,-0.0012 -0.27745,-0.0032 -0.41407,-0.0059 -0.0563,-0.0011 -0.11207,-3.53e-4 -0.16797,-0.002 -0.23688,-0.0058 -0.4708,-0.01505 -0.70117,-0.02539 -0.083,-0.0035 -0.16419,-0.0056 -0.24609,-0.0098 z m 3.82617,0.002 v 1.910156 c -0.2055,0.01 -0.41253,0.01849 -0.62109,0.02539 -0.0214,7e-4 -0.0431,10e-4 -0.0645,0.002 -0.17335,0.0054 -0.34817,0.0086 -0.52343,0.01172 v 0.002 c -0.0333,5e-4 -0.0659,0.001 -0.0996,0.002 -0.0739,8.77e-4 -0.14846,10e-4 -0.22266,0.002 v -1.912109 c 0.10523,-0.0012 0.21118,-0.0041 0.31641,-0.0059 0.0199,-4.76e-4 0.0402,-0.0015 0.0605,-0.002 0.38535,-0.0069 0.77086,-0.01718 1.1543,-0.03516 z m -11.63477,0.998047 c 0.0337,0.0241 0.0766,0.04659 0.11329,0.07031 0.0395,0.02602 0.0786,0.05091 0.12109,0.07617 0.0348,0.02029 0.0707,0.04066 0.10742,0.06055 0.6712,0.372339 1.64928,0.672398 2.7793,0.904297 0.0268,0.0057 0.0533,0.01218 0.0801,0.01758 0.12016,0.02411 0.24201,0.04774 0.36523,0.07031 0.59812,0.112119 1.24225,0.20866 1.92188,0.28711 0.008,8e-4 0.0154,0.0039 0.0234,0.0039 h 0.008 c 0.61036,0.07003 1.24411,0.124642 1.90039,0.164062 0.002,10e-7 0.004,0.002 0.006,0.002 h 0.002 c 0.5388,0.03214 1.09013,0.05135 1.64844,0.06055 0.21851,0.0038 0.43562,0.0078 0.64648,0.0078 0.15881,0 0.31941,-0.0028 0.48242,-0.0059 0.61228,-0.0073 1.21937,-0.02925 1.8125,-0.06445 h 0.002 c 1.92062,-0.113652 3.70006,-0.365626 5.09375,-0.722656 0.0628,-0.01608 0.12434,-0.03238 0.18554,-0.04883 0.0417,-0.0111 0.084,-0.02171 0.125,-0.0332 0.10829,-0.02984 0.21309,-0.06003 0.31641,-0.0918 0.0122,-0.0034 0.0249,-0.0079 0.0371,-0.01172 0.12131,-0.03788 0.23948,-0.07739 0.35351,-0.117187 -0.0735,0.256392 -0.65775,0.589704 -1.66992,0.902344 -1.35389,0.418261 -3.47143,0.801294 -6.15625,0.919922 -0.13815,0.0058 -0.27676,0.01103 -0.41797,0.01562 -0.11365,0.0038 -0.22661,0.0071 -0.34179,0.0098 -0.31724,0.0072 -0.63932,0.01367 -0.97071,0.01367 -0.33139,0 -0.65384,-0.0068 -0.9707,-0.01367 -0.11671,-0.003 -0.23128,-0.006 -0.3457,-0.0098 -0.14006,-0.0046 -0.27669,-0.0099 -0.41406,-0.01562 -2.68483,-0.118629 -4.80432,-0.501665 -6.15821,-0.919922 -1.04507,-0.322975 -1.63213,-0.666714 -1.67383,-0.925782 0.0249,-0.09605 0.23289,-0.336069 0.98828,-0.605468 z m -0.99218,1.667968 c 0.30575,0.192482 0.69148,0.368917 1.14648,0.527344 v 1.832031 c -0.74429,-0.27935 -1.14602,-0.559947 -1.14648,-0.77539 z m 19.13281,0 v 1.585938 c -7.6e-4,0.215443 -0.40414,0.49447 -1.14844,0.773437 v -1.832031 c 0.455,-0.158426 0.84269,-0.334859 1.14844,-0.527344 z m -17.2207,0.761719 c 0.35742,0.09643 0.74203,0.183692 1.14843,0.263672 v 1.867187 c -0.42324,-0.08993 -0.80747,-0.184863 -1.14843,-0.283203 z m 15.30664,0 v 1.847656 c -0.34096,0.09834 -0.72326,0.193274 -1.14649,0.283203 v -1.867187 c 0.40639,-0.07959 0.78908,-0.167242 1.14649,-0.263672 z m -13.39258,0.400391 c 0.37042,0.06008 0.75391,0.114659 1.14844,0.162109 v 1.892578 c -0.40448,-0.05319 -0.78796,-0.112261 -1.14844,-0.175781 z m 11.48047,0 v 1.878812 c -0.36048,0.06352 -0.74395,0.122591 -1.14844,0.175781 v -1.892578 c 0.39454,-0.04745 0.77801,-0.102029 1.14844,-0.162109 z m -9.56836,0.24414 c 0.37655,0.03636 0.76041,0.06654 1.14844,0.0918 v 1.908203 c -0.3976,-0.02793 -0.78069,-0.06096 -1.14844,-0.09961 z m 7.6543,0 v 1.900391 c -0.36774,0.03865 -0.75085,0.07362 -1.14844,0.101563 v -1.908204 c 0.38803,-0.02564 0.77189,-0.0574 1.14844,-0.09375 z m -5.74024,0.136719 c 0.38343,0.01761 0.76894,0.02981 1.1543,0.03711 v -0.002 c 0.0202,4.61e-4 0.0402,0.002 0.0605,0.002 0.10524,0.0019 0.21118,0.0025 0.31641,0.0039 v 1.914062 c -0.52885,-0.005 -1.0399,-0.02081 -1.53125,-0.04492 z m 3.82617,0 v 1.910156 c -0.49135,0.02411 -1.00044,0.03992 -1.52929,0.04492 v -1.912109 c 0.10524,-0.0012 0.20921,-0.0041 0.31445,-0.0059 0.0202,-4.61e-4 0.0402,0 0.0605,0 0.38535,-0.0069 0.77085,-0.01911 1.15429,-0.03711 z"
     sodipodi:nodetypes="cccscccccscccccccccccccccccscccccsccscscsccscccccccccccccccccccccccccccccccccccccccccccccccccccccccccccccccccccccccscccccccccccccccccscccccccccscccsccccccccccsccccccccccccccccccccccccccscccccsccsccscccccscccscccccccccccccccccccsccccccccccccccccccccccccccccccccccccccccccccccccccccccccccccccccsccccccccsccccccsccscccccccccccccccsccccccccccccccccccccccccccccccccccccccccsccccccccccsccccccsccccccccccccccccccsccsccscccscccccccccscccccccccccccccccccccccccccccccccccccccccccccccccccccccccccccccc" /><path
     d="m 156.02464,55.511927 c 0.32057,-0.201179 0.58885,-0.397803 0.97827,-0.507542 l 2.67564,0.09011 2.3e-4,0.0065 c 2.22433,0.211985 1.98253,9.347968 1.9472,10.397041 -0.0353,1.049068 -0.40869,10.180625 -2.64225,10.242484 l 2.3e-4,0.0065 -0.0497,-0.0017 v 0 0 l -2.62707,-0.08847 c -0.7266,-0.02631 -1.26373,-0.983313 -1.64013,-2.39276 -1.04441,-4.208727 -0.63019,-8.530837 1.27892,-17.684355 m 0,0 c 0.0184,-0.01199 0.037,-0.0238 0.0555,-0.03548 m -0.62712,17.400965 1.84759,0.06222 c -0.0843,-0.360468 -0.15937,-0.747408 -0.22612,-1.156169 l -1.86676,-0.06287 c 0.008,0.04737 0.0165,0.09631 0.0255,0.142439 0.0375,0.205043 0.0779,0.405031 0.12116,0.596329 0.0322,0.145823 0.0655,0.284396 0.0989,0.418001 z m 1.26323,-6.91649 c 0.002,-0.105234 0.004,-0.210469 0.006,-0.315672 l -1.90959,-0.06431 c -0.0124,0.514952 -0.0162,1.027124 -0.008,1.531286 l 1.90807,0.06426 c -0.005,-0.383835 -0.004,-0.769354 0.002,-1.154716 0.001,-0.02037 0.001,-0.04064 0.001,-0.06086 z m 0.0504,-1.456721 c 0.0203,-0.384889 0.0451,-0.769619 0.0756,-1.152245 l -1.90807,-0.06426 c -0.005,0.06492 -0.0119,0.127098 -0.0172,0.192385 -0.001,0.0054 -9.8e-4,0.01075 -0.002,0.01649 -0.0201,0.25624 -0.0373,0.517553 -0.0524,0.782389 -0.003,0.04125 -0.004,0.08257 -0.007,0.123829 -0.007,0.136061 -0.0124,0.275271 -0.0185,0.413284 l 1.91031,0.06433 c 0.005,-0.10512 0.01,-0.210256 0.0152,-0.315371 l 0.003,-0.06076 z m 0.1015,-8.72145 0.002,0.01081 -0.11292,0.135568 c -0.16399,0.196644 -0.33353,0.501456 -0.50068,0.89403 l 1.81933,0.06127 c 0.17366,-0.449408 0.36223,-0.830539 0.5649,-1.129642 l -1.58259,-0.0533 c -0.0581,-0.002 -0.12188,0.02657 -0.18998,0.08128 z m -1.60634,4.835768 1.88932,0.06362 c 0.0607,-0.392712 0.12753,-0.773729 0.20004,-1.141927 l -1.87479,-0.06314 c -0.0765,0.360404 -0.14822,0.740111 -0.21457,1.141439 z m 0.38757,-1.901385 1.86364,0.06276 c 0.0936,-0.403475 0.19451,-0.784496 0.30291,-1.138464 l -1.84343,-0.06208 c -0.11135,0.339318 -0.21958,0.722008 -0.32318,1.137782 z m 1.39338,2.727137 -1.89697,-0.06388 c -0.0515,0.368137 -0.0984,0.749446 -0.13998,1.14395 l 1.90532,0.06416 c 0.0387,-0.386949 0.0826,-0.769122 0.13157,-1.144233 z m -2.15533,7.585176 1.89767,0.06391 c -0.0237,-0.377561 -0.0417,-0.761822 -0.0543,-1.150495 l -1.90385,-0.06412 c 0.0148,0.390283 0.0336,0.775334 0.0604,1.150702 z m 1.9546,0.831598 -1.88971,-0.06364 c 0.008,0.07604 0.0127,0.155127 0.0206,0.230417 0.005,0.04915 0.0114,0.096 0.0162,0.144514 0.0243,0.222123 0.051,0.439361 0.0795,0.652429 0.006,0.04263 0.0121,0.08388 0.0182,0.125776 l 1.87784,0.06324 c -0.0472,-0.37223 -0.0886,-0.756894 -0.1224,-1.15278 z m -2.29637,2.597521 c 0.008,-0.0016 0.0135,-0.0014 0.0227,-0.0057 -0.006,-0.02624 -0.01,-0.05547 -0.0156,-0.08208 -0.0301,-0.15082 -0.0598,-0.305252 -0.0872,-0.462458 -0.1385,-0.765369 -0.24402,-1.612122 -0.31626,-2.51282 1.1e-4,-0.0031 -0.001,-0.0055 -0.001,-0.0081 3e-5,-10e-4 6.3e-4,-0.0015 6e-4,-0.0017 -0.25572,-3.876421 -0.12612,-8.162263 1.06085,-11.943696 0.0261,-0.08182 0.0529,-0.16171 0.0797,-0.24045 0.0166,-0.04807 0.0328,-0.0973 0.0492,-0.143836 0.049,-0.136957 0.099,-0.268136 0.15075,-0.394658 0.009,-0.0219 0.0183,-0.04266 0.0275,-0.06455 0.0446,-0.106857 0.0905,-0.209455 0.13709,-0.307437 0.0136,-0.02826 0.0268,-0.0573 0.0404,-0.08478 0.0514,-0.10433 0.10378,-0.205179 0.15783,-0.298314 0.024,-0.04207 0.0486,-0.07839 0.0729,-0.117776 0.028,-0.04501 0.0563,-0.09001 0.0848,-0.131538 0.0161,-0.02357 0.0317,-0.05179 0.0477,-0.07421 m 4.88337,9.820053 c 0.21237,-6.306286 -0.67306,-9.529391 -1.24091,-9.608243 -0.26009,0.03757 -0.6214,0.613139 -0.97767,1.641827 v 0 c -0.46359,1.339045 -0.91773,3.443419 -1.12666,6.122725 -0.0103,0.137098 -0.0207,0.273834 -0.03,0.413659 -0.008,0.114227 -0.015,0.228853 -0.022,0.34539 -0.0179,0.316418 -0.0337,0.637522 -0.0449,0.968724 -0.0111,0.331208 -0.017,0.652635 -0.0204,0.969551 -0.001,0.116366 -0.001,0.231218 -0.001,0.346078 -5e-4,0.140495 0.001,0.277624 0.002,0.414738 0.0282,2.68729 0.33972,4.817831 0.71219,6.184647 v 0 c 0.28623,1.050715 0.60802,1.6489 0.865,1.703883 0.57186,-0.04047 1.67213,-3.196705 1.8845,-9.502991 z m -4.52745,9.41973 1.58367,0.05333 c -0.18208,-0.312059 -0.3446,-0.705013 -0.48761,-1.165087 l -1.83209,-0.06165 c 0.25377,0.753264 0.51979,1.165395 0.73507,1.173421 z"
     id="path13600-6-7-1-9-1"
     style="fill:#fa741c;fill-opacity:1;stroke:none;stroke-width:0.382673;stroke-opacity:1"
     sodipodi:nodetypes="ccccsccccccccccccccccccccccccccsccccccccccsccccccsscccccccccccccccccccccccccccccccsccccccsccccccccccccscsscccssccsscsccccsc" /></g><path
   d="m 38.621038,116.96381 c -0.0379,-0.65474 -0.81662,-1.16638 -2.37409,-1.5567 0.0524,-0.1148 0.0819,-0.2342 0.0823,-0.35818 v -2.67717 h -0.007 c -0.137,-2.2302 -9.27595,-2.29603 -10.32561,-2.29603 -1.04967,0 -10.18862,0.0658 -10.32561,2.29603 h -0.007 v 0.0498 0 0 2.62857 c 0.002,0.72707 0.94022,1.2961 2.3362,1.71972 -0.0191,0.0635 -0.0306,0.1282 -0.0344,0.19402 h -0.006 v 0.0498 0 0 2.62397 c -1.5039,0.38727 -2.25508,0.89163 -2.2922,1.53566 h -0.004 v 0.0498 0 0 2.62857 c 0.001,0.50627 0.45767,0.93563 1.20465,1.29343 -0.0283,0.0777 -0.0459,0.15689 -0.0509,0.23802 h -0.006 v 0.0498 0 0 2.62856 c 0.003,1.27277 2.86888,2.06298 6.05309,2.43187 0.0233,0.005 0.0448,0.0142 0.0696,0.0142 0.007,0 0.0134,-0.004 0.0207,-0.004 0.6138,0.0693 1.23755,0.12322 1.8548,0.16187 0.013,0.002 0.0245,0.008 0.0379,0.008 0.007,0 0.013,-0.004 0.0199,-0.004 0.78371,0.0475 1.55479,0.0716 2.27612,0.0716 0.72134,0 1.49242,-0.0241 2.27613,-0.0719 0.007,4.7e-4 0.013,0.004 0.0199,0.004 0.0134,0 0.0249,-0.007 0.0379,-0.008 0.61724,-0.0387 1.241,-0.0922 1.8548,-0.16187 0.007,0 0.0134,0.004 0.0207,0.004 0.0249,0 0.0463,-0.01 0.0696,-0.0142 3.18421,-0.36889 6.04965,-1.15949 6.05309,-2.43264 v -2.67716 h -0.006 c -0.0268,-0.46915 -0.42667,-0.86063 -1.21651,-1.18781 0.0482,-0.1106 0.0746,-0.2254 0.0746,-0.34441 v -2.50114 c 1.37379,-0.42247 2.29412,-0.98767 2.29603,-1.70824 v -2.67718 z m -3.09849,7.01092 -0.13049,0.11442 c -0.2009,0.17718 -0.53573,0.35588 -0.97619,0.52809 v -1.82459 c 0.455,-0.15842 0.84226,-0.33406 1.14801,-0.52655 v 1.5835 c 0,0.0394 -0.0145,0.0815 -0.0413,0.12513 z m -8.55881,1.77828 c -0.0559,0.002 -0.11213,0.002 -0.16838,0.003 -0.13661,0.003 -0.27667,0.003 -0.4152,0.005 v -1.91144 c 0.10524,-0.001 0.21047,-0.003 0.31571,-0.005 0.0203,-4.7e-4 0.0406,-9.3e-4 0.0608,-0.001 0.38535,-0.007 0.7707,-0.0191 1.15414,-0.0367 v 1.91067 c -0.0819,0.004 -0.16417,0.008 -0.24721,0.0115 -0.23037,0.0103 -0.46303,0.018 -0.6999,0.0237 z m -1.67113,0.005 c -0.17526,-0.003 -0.34976,-0.007 -0.52311,-0.0127 -0.0214,-9.3e-4 -0.0429,-0.002 -0.0643,-0.002 -0.20855,-0.007 -0.41558,-0.0157 -0.62107,-0.0256 v -1.91031 c 0.38343,0.018 0.76878,0.0299 1.15413,0.0367 0.0203,4.6e-4 0.0406,9.2e-4 0.0605,0.001 0.10523,0.002 0.21047,0.003 0.3157,0.005 v 1.91259 c -0.0742,-9.2e-4 -0.14848,-9.2e-4 -0.22233,-0.002 -0.0337,-9.2e-4 -0.0662,-0.002 -0.0995,-0.002 z m -6.9118,-0.87249 c -0.0126,-0.004 -0.0245,-0.007 -0.0371,-0.0107 v -1.8487 c 0.35742,0.0964 0.74162,0.18446 1.14802,0.26443 v 1.86782 c -0.3513,-0.0746 -0.67542,-0.15306 -0.97046,-0.23342 -0.0467,-0.0134 -0.0949,-0.026 -0.14044,-0.0394 z m 8.06594,3.16889 c 0.10523,0.002 0.21047,0.003 0.3157,0.005 v 1.91297 c -0.52885,-0.005 -1.03933,-0.0203 -1.53068,-0.0444 v -1.91073 c 0.38343,0.018 0.76879,0.0299 1.15413,0.0367 0.0203,0 0.0406,4.7e-4 0.0609,9.3e-4 z m 1.45759,-10e-4 c 0.38535,-0.007 0.7707,-0.0191 1.15414,-0.0367 v 1.91068 c -0.49135,0.0241 -1.00183,0.0394 -1.53068,0.0444 v -1.91297 c 0.10523,-0.001 0.21046,-0.003 0.3157,-0.005 0.0203,0 0.0406,-4.6e-4 0.0608,-9.3e-4 z m 3.06749,-0.17297 v 1.90035 c -0.36774,0.0387 -0.75041,0.0727 -1.14801,0.10064 v -1.90838 c 0.38803,-0.0252 0.77146,-0.0563 1.14801,-0.0926 z m 0.76535,-0.0827 c 0.39453,-0.0474 0.77758,-0.1014 1.14801,-0.16148 v 1.87891 c -0.36048,0.0635 -0.74353,0.12207 -1.14801,0.17526 z m 1.91335,-0.2981 c 0.4064,-0.08 0.7906,-0.16799 1.14801,-0.26442 v 1.84868 c -0.34096,0.0983 -0.72478,0.19363 -1.14801,0.28356 z m -13.01081,0 v 1.86782 c -0.42324,-0.0899 -0.80706,-0.18522 -1.14801,-0.28356 v -1.84868 c 0.35741,0.0964 0.74161,0.18482 1.14801,0.26442 z m 0.76534,0.137 c 0.37043,0.0601 0.75348,0.11403 1.14801,0.16149 v 1.89269 c -0.40448,-0.0532 -0.78754,-0.11175 -1.14801,-0.17527 z m 1.91336,0.24375 c 0.37654,0.0364 0.75998,0.0674 1.14801,0.093 v 1.90839 c -0.3976,-0.0279 -0.78027,-0.062 -1.14801,-0.10065 z m -0.94941,-2.28837 c -0.039,-0.004 -0.0777,-0.008 -0.11633,-0.0119 -0.0276,-0.003 -0.0547,-0.006 -0.0823,-0.009 v -1.89996 c 0.37655,0.0364 0.75998,0.0674 1.14802,0.093 v 1.90685 c -0.32145,-0.023 -0.63907,-0.049 -0.94941,-0.0792 z m -0.96395,-2.00366 v 1.89269 c -0.40448,-0.0532 -0.78754,-0.11174 -1.14802,-0.17526 v -1.87892 c 0.37043,0.0601 0.75349,0.11442 1.14802,0.16149 z m 7.52561,2.06489 c -0.0842,0.007 -0.16914,0.013 -0.25486,0.0191 v -1.90838 c 0.38803,-0.0256 0.77146,-0.0563 1.14801,-0.093 v 1.90034 c -0.23649,0.0249 -0.47834,0.0482 -0.72669,0.0685 -0.0555,0.005 -0.11098,0.009 -0.16646,0.0134 z m 1.65849,-0.1722 v -1.89269 c 0.39454,-0.0474 0.77759,-0.10141 1.14802,-0.16149 v 1.87892 c -0.36048,0.0635 -0.74354,0.12245 -1.14802,0.17526 z m 1.91336,-2.1908 c 0.40639,-0.08 0.79059,-0.16799 1.14801,-0.26442 v 1.84869 c -0.34096,0.0984 -0.72478,0.19363 -1.14801,0.28355 z m -5.23303,-1.74796 c -0.28777,-0.007 -0.56903,-0.0184 -0.84532,-0.0318 -0.0149,-9.3e-4 -0.0299,-0.002 -0.0444,-0.002 v -1.91068 c 0.38344,0.018 0.76879,0.0298 1.15414,0.0367 0.0203,4.6e-4 0.0406,9.2e-4 0.0605,10e-4 0.10523,0.002 0.21047,0.003 0.3157,0.005 v 1.91068 c -0.18636,-0.002 -0.37425,-0.003 -0.55602,-0.007 -0.0279,-9.3e-4 -0.0566,-0.001 -0.0846,-0.002 z m -8.9258,-5.46863 v -1.84864 c 0.35742,0.0964 0.74162,0.18445 1.14802,0.26443 v 1.86781 c -0.0471,-0.01 -0.0957,-0.0199 -0.14159,-0.0298 -0.20358,-0.0448 -0.40219,-0.0915 -0.59199,-0.14082 -0.14465,-0.0371 -0.28203,-0.075 -0.41444,-0.11289 z m 6.95505,-1.02977 c 0.10523,0.002 0.21047,0.003 0.3157,0.005 v 1.91068 c -0.51507,-0.005 -1.02709,-0.0184 -1.53068,-0.0436 v -1.90915 c 0.38343,0.018 0.76878,0.0298 1.15413,0.0367 0.0203,0 0.0406,4.6e-4 0.0609,9.3e-4 z m 1.45759,-0.001 c 0.38535,-0.007 0.7707,-0.0191 1.15413,-0.0367 v 1.90915 c -0.0651,0.003 -0.12742,0.008 -0.19286,0.0107 -0.005,4.6e-4 -0.0107,4.6e-4 -0.0164,9.2e-4 -0.25677,0.0115 -0.51852,0.0199 -0.78371,0.026 -0.0413,10e-4 -0.0827,0.002 -0.12399,0.003 -0.13623,0.003 -0.27552,0.003 -0.41367,0.005 v -1.91144 c 0.10524,-0.001 0.21047,-0.003 0.31571,-0.005 0.0203,-4.6e-4 0.0406,-9.2e-4 0.0608,-0.001 z m 8.71992,0.1921 -0.0107,-0.002 -0.13929,0.1083 c -0.20205,0.15728 -0.51239,0.31647 -0.91037,0.4703 v -1.82037 c 0.45499,-0.15842 0.84226,-0.33407 1.14801,-0.52655 v 1.58349 c 0,0.0582 -0.0306,0.12093 -0.0876,0.18713 z m -4.88709,1.44267 v -1.89041 c 0.39454,-0.0474 0.77759,-0.10141 1.14802,-0.16149 v 1.87586 c -0.36278,0.0643 -0.74468,0.12321 -1.14802,0.17602 z m 1.91336,-0.32336 v -1.86469 c 0.40639,-0.08 0.79059,-0.16799 1.14801,-0.26443 v 1.84447 c -0.34287,0.0999 -0.72899,0.19517 -1.14801,0.28471 z m -2.6787,-1.48438 v 1.89805 c -0.36966,0.039 -0.75233,0.0731 -1.14801,0.10141 v -1.90641 c 0.38803,-0.0256 0.77146,-0.0566 1.14801,-0.093 z m -7.65342,1.89882 v -1.89875 c 0.37655,0.0363 0.75998,0.0674 1.14802,0.093 v 1.90494 c -0.38957,-0.0279 -0.77377,-0.0597 -1.14802,-0.0991 z m -0.76534,-1.98147 v 1.89077 c -0.0758,-0.01 -0.1546,-0.018 -0.22961,-0.0283 -0.049,-0.007 -0.0957,-0.0142 -0.14388,-0.0211 -0.22118,-0.0318 -0.43739,-0.0658 -0.64939,-0.10141 -0.0425,-0.007 -0.0834,-0.0149 -0.12514,-0.0222 v -1.87891 c 0.37043,0.0597 0.75349,0.11403 1.14802,0.1611 z m 4.11448,6.6688 c -0.0517,-0.004 -0.1037,-0.008 -0.15498,-0.0115 -0.24491,-0.0191 -0.48408,-0.0402 -0.71751,-0.0635 -0.0501,-0.005 -0.10026,-0.0103 -0.15001,-0.0153 -0.0103,-0.001 -0.0203,-0.003 -0.0306,-0.003 v -1.90034 c 0.37654,0.0364 0.75998,0.0673 1.14801,0.093 v 1.90723 c -0.031,-0.002 -0.0639,-0.004 -0.0949,-0.006 z m -2.52831,-0.28585 c -0.15154,-0.0241 -0.29389,-0.0501 -0.43816,-0.0754 v -1.87654 c 0.37043,0.0601 0.75348,0.11404 1.14802,0.16149 v 1.89269 c -0.2342,-0.031 -0.46342,-0.0631 -0.68346,-0.0976 -0.009,-0.002 -0.0176,-0.003 -0.0264,-0.005 z m -1.2035,-2.089 v 1.86475 c -0.42285,-0.0907 -0.80629,-0.18712 -1.14801,-0.28738 v -1.8418 c 0.35741,0.0964 0.74161,0.18483 1.14801,0.26443 z m -1.91336,-0.49824 v 1.81807 c -0.60155,-0.23228 -0.98958,-0.46954 -1.11586,-0.68077 l -0.0256,-0.0429 c -0.002,-0.0119 -0.006,-0.0245 -0.007,-0.0364 v -1.58464 c 0.30575,0.19248 0.69302,0.36813 1.14801,0.52655 z m 9.17799,1.05196 c 0.38534,-0.007 0.77069,-0.0191 1.15413,-0.0367 v 1.90876 c -0.50283,0.0249 -1.01408,0.0387 -1.53068,0.044 v -1.91029 c 0.10523,-0.001 0.21047,-0.003 0.3157,-0.005 0.0203,-4.6e-4 0.0406,-9.2e-4 0.0608,-0.001 z m 4.94525,1.46831 c -0.16799,0.0291 -0.33751,0.0578 -0.51163,0.0842 -0.0999,0.0153 -0.20205,0.0299 -0.3046,0.0444 -0.0968,0.0138 -0.19746,0.0256 -0.29581,0.0383 v -1.89078 c 0.39453,-0.0474 0.77759,-0.10141 1.14801,-0.16149 v 1.87892 c -0.0122,0.002 -0.0241,0.005 -0.036,0.007 z m -2.59106,0.3268 c -0.14274,0.0119 -0.29007,0.0195 -0.43472,0.0299 v -1.90488 c 0.38803,-0.0256 0.77147,-0.0563 1.14802,-0.093 v 1.89843 c -0.22234,0.0233 -0.44429,0.0467 -0.67274,0.0658 -0.0138,0.001 -0.0268,0.003 -0.0406,0.004 z m 4.37316,-0.71751 c -0.19057,0.0532 -0.39224,0.10294 -0.59811,0.15154 -0.0953,0.0222 -0.19249,0.0444 -0.29198,0.0658 -0.0295,0.007 -0.0609,0.0122 -0.0907,0.0188 v -1.86698 c 0.40639,-0.08 0.79059,-0.168 1.14801,-0.26443 v 1.84868 c -0.0551,0.0153 -0.11059,0.031 -0.16723,0.0467 z m 2.07599,-3.72377 c -0.0352,0.25984 -0.62414,0.60539 -1.67533,0.93028 v 0 c -1.35389,0.41826 -3.47236,0.80131 -6.15718,0.91993 -0.13738,0.006 -0.27437,0.0115 -0.41443,0.0161 -0.11442,0.004 -0.22922,0.007 -0.34594,0.0103 -0.31685,0.007 -0.63829,0.0119 -0.96968,0.0119 -0.3314,0 -0.65284,-0.005 -0.96969,-0.0122 -0.11634,-0.003 -0.23114,-0.007 -0.34594,-0.0103 -0.14044,-0.004 -0.27743,-0.0103 -0.41443,-0.0161 -2.68482,-0.11863 -4.80367,-0.50168 -6.15717,-0.91994 v 0 c -1.04278,-0.32221 -1.63056,-0.66508 -1.67419,-0.92377 0.002,-0.007 0.002,-0.0134 0.007,-0.0226 0.026,0.006 0.0551,0.0119 0.0815,0.0184 0.14963,0.0356 0.30308,0.07 0.45921,0.10294 0.76037,0.16379 1.60301,0.29811 2.50076,0.40066 0.003,0 0.005,0.002 0.008,0.002 9.2e-4,0 0.002,-4.6e-4 0.002,-4.6e-4 0.61151,0.0697 1.24598,0.12437 1.89729,0.16302 0.005,0 0.009,0.003 0.0142,0.003 0.003,0 0.005,-0.002 0.007,-0.002 0.46878,0.0276 0.94367,0.0478 1.42431,0.0585 0.29427,0.007 0.58318,0.0111 0.86445,0.0111 0.2009,0 0.40678,-0.002 0.61457,-0.006 2.78048,-0.0429 5.35739,-0.37349 7.15059,-0.88588 0.0827,-0.0233 0.1634,-0.0474 0.24299,-0.0716 0.0486,-0.0149 0.0984,-0.0295 0.14542,-0.0444 0.13852,-0.0444 0.27131,-0.0899 0.39951,-0.13738 0.0222,-0.008 0.0432,-0.0168 0.0654,-0.0252 0.1083,-0.0409 0.21239,-0.0834 0.31188,-0.12667 0.0287,-0.0127 0.0582,-0.0249 0.0861,-0.0375 0.106,-0.0478 0.20855,-0.0968 0.30346,-0.14771 0.0429,-0.0226 0.08,-0.0459 0.12015,-0.0689 0.0459,-0.0264 0.0918,-0.0532 0.13432,-0.0804 0.0241,-0.0153 0.0528,-0.0298 0.0758,-0.0451 1.71322,0.37158 2.16477,0.77797 2.2084,0.9364 z m -11.85859,-6.14748 c 6.30986,0 9.50134,0.99341 9.56104,1.56359 -0.0463,0.25868 -0.63371,0.60041 -1.67381,0.92185 v 0 c -1.35389,0.41827 -3.47235,0.80131 -6.15717,0.91995 -0.13738,0.006 -0.27438,0.0115 -0.41444,0.0161 -0.11441,0.004 -0.22922,0.007 -0.34593,0.0103 -0.31685,0.007 -0.6383,0.0123 -0.96969,0.0123 -0.33139,0 -0.65284,-0.005 -0.96969,-0.0123 -0.11633,-0.003 -0.23113,-0.006 -0.34593,-0.0103 -0.14044,-0.004 -0.27744,-0.0103 -0.41444,-0.0161 -2.68481,-0.11864 -4.80366,-0.50168 -6.15717,-0.91995 v 0 c -1.04048,-0.32144 -1.6275,-0.66317 -1.6738,-0.92185 0.0597,-0.57018 3.25117,-1.56359 9.56103,-1.56359 z m -9.56677,4.20784 v -1.58457 c 0.30575,0.19249 0.69301,0.36813 1.14801,0.52656 v 1.83223 c -0.74429,-0.27897 -1.14725,-0.5587 -1.14801,-0.77414 z m 1.85366,5.29579 c 0.006,0.006 0.0145,0.0115 0.0203,0.0176 0.52388,0.52885 1.60875,0.94443 2.9592,1.25439 0.031,0.007 0.0639,0.0142 0.0953,0.0214 0.0991,0.0222 0.19976,0.044 0.30155,0.065 1.24023,0.26404 2.72079,0.455 4.33375,0.54951 10e-4,0 0.002,4.7e-4 0.003,4.7e-4 9.3e-4,0 10e-4,-4.7e-4 0.002,-4.7e-4 0.51814,0.0302 1.04814,0.0513 1.58923,0.0605 0.23956,0.005 0.47528,0.008 0.70565,0.008 0.26404,0 0.53497,-0.003 0.8105,-0.01 0.50053,-0.0103 0.99379,-0.031 1.48017,-0.0593 0.002,0 0.003,0.001 0.005,0.001 0.003,0 0.006,-0.002 0.01,-0.002 1.61716,-0.0953 3.13446,-0.28815 4.41755,-0.56558 -0.27782,0.14541 -0.65819,0.2958 -1.13194,0.44236 v 0 c -1.42928,0.44161 -3.71191,0.8438 -6.61294,0.93717 -0.0861,0.003 -0.17105,0.006 -0.2583,0.008 -0.0937,0.002 -0.18904,0.004 -0.28432,0.006 -0.2407,0.004 -0.48293,0.007 -0.73167,0.007 -0.33139,0 -0.65284,-0.005 -0.96969,-0.0122 -0.11633,-0.003 -0.23113,-0.007 -0.34593,-0.0103 -0.14044,-0.004 -0.27744,-0.0103 -0.41444,-0.0161 -2.68482,-0.11863 -4.80366,-0.50168 -6.15717,-0.91995 v 0 c -1.05235,-0.32527 -1.64128,-0.6712 -1.67533,-0.93103 0.0425,-0.14389 0.42935,-0.50398 1.84944,-0.85221 z m -1.85366,3.50565 v -1.58464 c 0.30575,0.19248 0.69301,0.36812 1.14801,0.52655 v 1.82496 l -0.21851,-0.0849 -0.005,0.005 c -0.60079,-0.24912 -0.92415,-0.49364 -0.92491,-0.68651 z m 1.14801,4.20938 v -1.58464 c 0.30576,0.19248 0.69302,0.36813 1.14801,0.52656 v 1.83223 c -0.74429,-0.27897 -1.14725,-0.5587 -1.14801,-0.77415 z m 17.98553,0.77415 v -1.83185 c 0.455,-0.15843 0.84226,-0.33407 1.14802,-0.52656 v 1.58349 c -4.7e-4,0.21545 -0.40372,0.49557 -1.14802,0.77492 z m 1.14304,-3.42185 c -0.0417,0.25907 -0.62949,0.60271 -1.67457,0.92568 v 0 c -1.35389,0.41826 -3.47235,0.80132 -6.15717,0.91994 -0.13738,0.006 -0.27438,0.0115 -0.41443,0.0161 -0.11442,0.004 -0.22922,0.007 -0.34594,0.0103 -0.31685,0.007 -0.63829,0.0119 -0.96969,0.0119 -0.33139,0 -0.65322,-0.005 -0.97045,-0.0122 -0.11518,-0.003 -0.22884,-0.006 -0.34249,-0.0103 -0.14121,-0.005 -0.27897,-0.0103 -0.41711,-0.0161 -2.68482,-0.11863 -4.80329,-0.50168 -6.15718,-0.91994 v 0 c -1.01216,-0.31264 -1.59688,-0.6448 -1.67036,-0.90119 0.11404,0.0398 0.23229,0.0785 0.35359,0.11633 0.0122,0.004 0.0245,0.008 0.0367,0.0111 0.10332,0.0318 0.20894,0.0624 0.31723,0.0922 0.041,0.0115 0.0823,0.023 0.12399,0.0341 0.0612,0.0165 0.12399,0.0321 0.18674,0.0482 1.39369,0.35703 3.17273,0.60998 5.09335,0.72363 9.2e-4,0 10e-4,4.6e-4 0.002,4.6e-4 4.6e-4,0 9.2e-4,-4.6e-4 10e-4,-4.6e-4 0.59314,0.0352 1.19891,0.057 1.81118,0.0643 0.16302,0.003 0.32489,0.005 0.4837,0.005 0.21085,0 0.42668,-0.003 0.64518,-0.007 0.55832,-0.009 1.10937,-0.0298 1.64817,-0.062 10e-4,0 0.002,9.3e-4 0.003,9.3e-4 0.002,0 0.003,-10e-4 0.005,-10e-4 0.65628,-0.0394 1.29151,-0.0957 1.90187,-0.1657 0.002,0 0.004,10e-4 0.007,10e-4 0.008,0 0.0153,-0.004 0.0237,-0.005 0.67962,-0.0784 1.32403,-0.17488 1.92215,-0.287 0.12322,-0.0226 0.24453,-0.0459 0.36469,-0.07 0.0268,-0.005 0.0536,-0.0107 0.0804,-0.0165 1.13003,-0.2319 2.10813,-0.5323 2.77934,-0.90464 0.0367,-0.0199 0.0712,-0.0406 0.106,-0.0609 0.0425,-0.0253 0.083,-0.0509 0.12245,-0.0769 0.0367,-0.0237 0.0792,-0.0467 0.11289,-0.0708 0.75539,0.2694 0.96356,0.51049 0.98844,0.60653 z m 0.005,-4.99692 v -1.83185 c 0.45499,-0.15842 0.84226,-0.33407 1.14801,-0.52655 v 1.58349 c -4.6e-4,0.21545 -0.40372,0.49556 -1.14801,0.77491 z"
   id="path13600-8-1-8"
   style="fill:#fa741c;fill-opacity:1;stroke:none;stroke-width:0.382673;stroke-opacity:1" /><path
   id="path13600-6-3-2-4"
   style="fill:#fa741c;fill-opacity:1;stroke:none;stroke-width:0.382673;stroke-opacity:1"
   d="m 24.197188,97.888965 c 0.006,0.007 0.0119,0.0141 0.0176,0.0215 m 0,0 c 0.88999,-0.0502 1.86255,-0.0801 2.93164,-0.0801 6.30986,0 9.50085,0.99232 9.56055,1.5625 -0.0463,0.25868 -0.63334,0.600427 -1.67383,0.921875 -1.3535,0.41826 -3.47338,0.80129 -6.1582,0.91992 -0.13699,0.006 -0.27363,0.0114 -0.41407,0.0156 -0.1148,0.004 -0.22936,0.009 -0.3457,0.0117 -0.31685,0.007 -0.63736,0.0117 -0.96875,0.0117 -0.3314,0 -0.65385,-0.004 -0.9707,-0.0117 -0.11672,-0.003 -0.23129,-0.008 -0.3457,-0.0117 -0.14006,-0.005 -0.27669,-0.01 -0.41407,-0.0156 -2.68482,-0.11863 -4.80431,-0.50166 -6.1582,-0.91992 -1.0401,-0.321448 -1.62753,-0.663195 -1.67383,-0.921875 0.0486,-0.46411 2.17399,-1.20781 6.36524,-1.46875 m 0,0 c -0.008,-0.008 -0.017,-0.0171 -0.0254,-0.0254 m -0.51539,-0.69136 c -2.93743,0.21755 -6.5027,0.76739 -6.58789,2.1543 h -0.008 v 2.675785 c 4e-4,0.12398 0.0316,0.24457 0.084,0.35937 -1.55747,0.39032 -2.3371,0.90189 -2.375,1.55664 h -0.004 v 2.67555 c 0.002,0.72057 0.92308,1.28651 2.29687,1.70898 v 2.50196 c 0,0.11901 0.026,0.23315 0.0742,0.34375 -0.78983,0.32718 -1.19,0.71834 -1.2168,1.1875 h -0.006 v 2.67773 c 0.003,1.27315 2.86854,2.06275 6.05274,2.43164 0.0233,0.005 0.0454,0.0156 0.0703,0.0156 0.007,0 0.0125,-0.004 0.0195,-0.004 0.61381,0.0696 1.23822,0.12151 1.85547,0.16016 0.013,10e-4 0.0237,0.008 0.0371,0.008 0.007,0 0.0145,-0.003 0.0215,-0.004 0.78371,0.0478 1.55406,0.0723 2.27539,0.0723 0.72133,0 1.49168,-0.0248 2.27539,-0.0723 0.007,4e-4 0.0145,0.006 0.0215,0.006 0.0134,0 0.0241,-0.006 0.0371,-0.008 0.61725,-0.0387 1.24166,-0.0928 1.85547,-0.16211 0.007,4e-4 0.0125,0.004 0.0195,0.004 0.0248,0 0.047,-0.009 0.0703,-0.0137 3.1842,-0.3689 6.04974,-1.15888 6.05274,-2.43164 v -2.62891 -0.0508 h -0.006 c -0.005,-0.0811 -0.0225,-0.1606 -0.0508,-0.23828 0.74698,-0.3578 1.20408,-0.7867 1.20508,-1.29297 v -2.62891 -0.0488 h -0.004 c -0.0371,-0.64403 -0.78907,-1.14789 -2.29297,-1.53515 v -2.625 -0.0488 h -0.006 c -0.004,-0.0658 -0.0161,-0.13178 -0.0352,-0.19531 1.39598,-0.42362 2.33589,-0.99168 2.33789,-1.71875 v -2.628915 -0.0488 h -0.008 c -0.137,-2.2302 -9.27456,-2.29687 -10.32422,-2.29687 l 5.1e-4,-5e-5 m -3.22258,0.83398 c 0.007,0.002 0.0113,0.005 0.0195,0.008 m 0,0 c 0.003,-1.8e-4 0.006,-0.002 0.01,-0.002 m 0,0 c -0.0103,-0.002 -0.0184,-0.01 -0.0273,-0.0156 m 0,0 c -0.006,-0.004 -0.009,-0.0111 -0.0156,-0.0117 m 0,0 c -0.004,-3.6e-4 -4.3e-4,0.007 0.002,0.01 m 0,0 c 0.004,0.004 0.008,0.008 0.0117,0.0117 m 0,0 -3e-4,3e-5 m 0.27344,-0.01 c -0.003,-0.004 -0.005,-0.008 -0.008,-0.0117 m 0,0 c -0.002,-0.003 -0.007,-0.006 -0.01,-0.008 m 0,0 c -0.004,-0.002 -0.0135,-0.01 -0.0117,-0.006 m 0,0 c 0.005,0.0115 0.0161,0.0209 0.0234,0.0312 m 0,0 c -2.2e-4,0.006 -9.4e-4,0.0116 -0.002,0.0176 m 0,0 c 0.004,-2.1e-4 0.008,2.2e-4 0.0117,0 m 0,0 c -6.8e-4,-0.008 -0.003,-0.0155 -0.004,-0.0234 m 0,0 6e-4,3e-5 m -0.2131,-0.004 c -7.3e-4,0.004 -0.004,0.0135 -0.004,0.0195 m 0,0 c -2.3e-4,0.005 -5.8e-4,0.009 0,0.0117 m 0,0 c 3.4e-4,0.002 0.001,0.004 0.002,0.006 m 0,0 c 0.002,-1.1e-4 0.004,1.2e-4 0.006,0 m 0,0 c -6.6e-4,-0.006 -0.001,-0.013 -0.002,-0.0195 m 0,0 c -6.8e-4,-0.006 -9.9e-4,-0.0121 -0.002,-0.0176 m 0,0 v -4e-5 m -6.40625,2.568365 c 0.30576,0.19249 0.69344,0.36696 1.14844,0.52539 v 1.82031 c -0.39798,-0.15383 -0.7081,-0.31147 -0.91016,-0.46875 l -0.13867,-0.10937 -0.0117,0.002 c -0.057,-0.0662 -0.0879,-0.12933 -0.0879,-0.1875 z m 19.13477,0 v 1.58398 c -7.7e-4,0.21545 -0.40414,0.49447 -1.14844,0.77344 v -1.83203 c 0.455,-0.15842 0.84269,-0.3329 1.14844,-0.52539 z m -17.22071,0.75977 c 0.35741,0.0964 0.74204,0.18564 1.14844,0.26562 v 1.86328 c -0.41902,-0.0895 -0.80557,-0.18332 -1.14844,-0.2832 z m 15.30664,0 v 1.84961 c -0.13239,0.0379 -0.26941,0.0762 -0.41406,0.11328 -0.1898,0.0494 -0.38821,0.0959 -0.59179,0.14062 -0.0459,0.01 -0.0955,0.0194 -0.14258,0.0293 v -1.86719 c 0.4064,-0.08 0.79103,-0.16919 1.14843,-0.26562 z m -13.39257,0.40039 c 0.37043,0.0601 0.75195,0.11466 1.14648,0.16211 v 1.89062 c -0.40333,-0.0528 -0.78371,-0.11149 -1.14648,-0.17578 z m 11.47851,0.002 v 1.8789 c -0.0417,0.007 -0.0825,0.0142 -0.125,0.0215 -0.212,0.0356 -0.42724,0.0698 -0.64844,0.10156 -0.0482,0.007 -0.0955,0.0146 -0.14453,0.0215 -0.075,0.0103 -0.15271,0.0173 -0.22851,0.0273 v -1.89062 c 0.39453,-0.0471 0.77605,-0.10046 1.14648,-0.16016 z m -9.5664,0.24218 c 0.37654,0.0363 0.7604,0.0681 1.14843,0.0937 v 1.90625 c -0.39568,-0.0283 -0.77877,-0.0625 -1.14843,-0.10156 z m 7.65429,0 v 1.90039 c -0.37426,0.0394 -0.75887,0.0697 -1.14843,0.0977 v -1.90429 c 0.38803,-0.0256 0.77188,-0.0574 1.14843,-0.0937 z m -5.74023,0.13672 c 0.38344,0.0176 0.76896,0.0298 1.1543,0.0371 0.0203,4.8e-4 0.0402,0.002 0.0605,0.002 0.10523,0.002 0.21118,0.002 0.31641,0.004 v 1.91211 c -0.13814,-0.002 -0.27783,-0.003 -0.41406,-0.006 -0.0413,-10e-4 -0.0837,-5.5e-4 -0.125,-0.002 -0.26519,-0.006 -0.52644,-0.0139 -0.78321,-0.0254 -0.006,-4.6e-4 -0.0106,-10e-4 -0.0156,-0.002 -0.0654,-0.003 -0.12836,-0.007 -0.19336,-0.01 z m 3.82617,0 v 1.91016 c -0.5036,0.0252 -1.01618,0.038 -1.53125,0.043 v -1.91016 c 0.10523,-0.001 0.21118,-0.002 0.31641,-0.004 0.0202,-4.6e-4 0.0402,-0.002 0.0605,-0.002 0.38535,-0.007 0.77086,-0.0191 1.1543,-0.0371 z m -11.56445,1.04688 c 0.023,0.0153 0.0521,0.0296 0.0762,0.0449 0.0425,0.0272 0.0889,0.0537 0.13477,0.0801 0.0402,0.023 0.0782,0.0458 0.12109,0.0684 0.0949,0.0509 0.19673,0.1006 0.30273,0.14843 0.0279,0.0126 0.0572,0.0245 0.0859,0.0371 0.0995,0.0432 0.2042,0.086 0.3125,0.12696 0.0222,0.008 0.0423,0.017 0.0645,0.0254 0.12819,0.0474 0.26186,0.0923 0.40039,0.13672 0.0471,0.0149 0.0959,0.03 0.14454,0.0449 0.0796,0.0241 0.16144,0.0489 0.24414,0.0723 1.7932,0.51239 4.3699,0.8419 7.15039,0.88476 0.20779,0.004 0.41237,0.006 0.61328,0.006 0.28126,0 0.57096,-0.002 0.86523,-0.01 0.48064,-0.0107 0.95506,-0.031 1.42383,-0.0586 h 0.008 c 0.005,0 0.009,-0.002 0.0137,-0.002 0.6513,-0.0387 1.28497,-0.0925 1.89648,-0.16211 h 0.004 c 0.003,0 0.005,-0.002 0.008,-0.002 0.89775,-0.10255 1.73964,-0.2366 2.5,-0.40039 0.15613,-0.0329 0.30935,-0.0679 0.45898,-0.10351 0.0264,-0.007 0.056,-0.0111 0.082,-0.0176 0.005,0.009 0.004,0.0142 0.006,0.0215 -0.0436,0.25868 -0.63105,0.60161 -1.67383,0.92382 -1.35351,0.41826 -3.47142,0.8013 -6.15624,0.91993 -0.137,0.006 -0.27363,0.0134 -0.41407,0.0176 -0.1148,0.004 -0.23132,0.007 -0.34765,0.01 -0.31686,0.007 -0.63736,0.0117 -0.96875,0.0117 -0.33139,0 -0.65386,-0.005 -0.97071,-0.0117 -0.11671,-0.003 -0.23129,-0.006 -0.3457,-0.01 -0.14006,-0.005 -0.27668,-0.01 -0.41406,-0.0156 -2.68481,-0.11863 -4.80236,-0.50167 -6.15625,-0.91993 -1.0512,-0.32488 -1.64058,-0.67181 -1.67578,-0.93164 0.0436,-0.15842 0.49381,-0.56397 2.20703,-0.93554 z m -2.21094,2.0039 c 0.30575,0.19249 0.69344,0.36892 1.14844,0.52735 v 1.83203 c -0.74417,-0.27937 -1.14785,-0.55997 -1.14831,-0.77541 z m 19.13281,0 v 1.58397 c -10e-4,0.0119 -0.004,0.0252 -0.006,0.0371 l -0.0254,0.043 c -0.12628,0.21123 -0.51562,0.44741 -1.11718,0.67969 v -1.81836 h 0.002 c 0.455,-0.15843 0.84072,-0.33291 1.14648,-0.52539 z m -17.2207,0.75977 c 0.35741,0.0964 0.74205,0.18564 1.14844,0.26562 v 1.86719 c -0.0299,-0.006 -0.0603,-0.013 -0.0899,-0.0195 -0.0995,-0.0214 -0.19767,-0.0442 -0.29297,-0.0664 -0.20588,-0.0486 -0.40708,-0.0972 -0.59765,-0.15039 -0.0566,-0.0157 -0.11287,-0.0316 -0.16797,-0.0469 z m 15.30859,0 v 1.8418 c -0.34173,0.10026 -0.72558,0.19642 -1.14843,0.28711 v -1.86329 c 0.40639,-0.0796 0.79101,-0.16919 1.14843,-0.26562 z m -13.39453,0.40234 c 0.37043,0.0601 0.7539,0.11271 1.14844,0.16016 v 1.89062 c -0.0984,-0.0126 -0.20008,-0.0233 -0.29688,-0.0371 -0.10256,-0.0145 -0.20478,-0.0296 -0.30468,-0.0449 -0.17411,-0.0264 -0.34372,-0.0549 -0.51172,-0.084 -0.0119,-0.002 -0.023,-0.004 -0.0352,-0.006 z m 11.48047,0 v 1.87696 c -0.14427,0.0252 -0.28596,0.0501 -0.4375,0.0742 -0.009,10e-4 -0.0183,0.004 -0.0273,0.006 -0.22003,0.0344 -0.44941,0.0647 -0.6836,0.0957 v -1.89258 c 0.39453,-0.0474 0.77802,-0.10008 1.14844,-0.16016 z m -9.56641,0.24414 c 0.37655,0.0367 0.75846,0.0662 1.14649,0.0918 v 1.9043 c -0.14465,-0.0103 -0.29086,-0.0174 -0.4336,-0.0293 -0.0138,-10e-4 -0.0272,-0.003 -0.041,-0.004 -0.22845,-0.0191 -0.44955,-0.0411 -0.67188,-0.0645 z m 7.65235,0 v 1.90039 c -0.0103,7e-4 -0.019,5.6e-4 -0.0293,0.002 -0.0498,0.005 -0.10029,0.0106 -0.15039,0.0156 -0.23343,0.0234 -0.47384,0.0453 -0.71875,0.0645 -0.0513,0.004 -0.1026,0.006 -0.1543,0.01 v 0.002 c -0.031,0.002 -0.0647,0.004 -0.0957,0.006 v -1.9082 c 0.38803,-0.0256 0.77189,-0.0555 1.14844,-0.0918 z m -5.74024,0.13477 c 0.38343,0.0176 0.76895,0.0298 1.1543,0.0371 0.0202,4.8e-4 0.0403,0.001 0.0606,0.002 0.10524,0.002 0.21116,0.002 0.3164,0.004 v 1.91016 c -0.51661,-0.005 -1.02843,-0.0181 -1.53125,-0.043 z m 3.82813,0 v 1.91217 c -0.0146,2e-4 -0.03,0.001 -0.0449,0.002 -0.27629,0.0134 -0.55794,0.0239 -0.84571,0.0312 -0.028,4e-4 -0.0561,10e-4 -0.084,0.002 -0.18177,0.004 -0.37028,0.006 -0.55664,0.008 v -1.91221 c 0.10524,-0.001 0.21116,-0.002 0.3164,-0.004 0.0199,-4.8e-4 0.0402,-0.002 0.0605,-0.002 0.38535,-0.007 0.77087,-0.0191 1.1543,-0.0371 z m 8.09375,0.74805 h 0.002 c 1.41846,0.34808 1.80518,0.70774 1.84766,0.85156 -0.0341,0.25983 -0.62343,0.60637 -1.67578,0.93164 -1.35351,0.41826 -3.47143,0.80129 -6.15625,0.91992 -0.13699,0.006 -0.27363,0.0114 -0.41407,0.0156 -0.1148,0.004 -0.22937,0.007 -0.3457,0.01 -0.31686,0.007 -0.63931,0.0137 -0.9707,0.0137 -0.24874,0 -0.49172,-0.004 -0.73242,-0.008 -0.0953,-0.002 -0.18951,-0.004 -0.28321,-0.006 -0.0872,-0.002 -0.17171,-0.005 -0.25781,-0.008 -2.90102,-0.0934 -5.18401,-0.4959 -6.61328,-0.9375 -0.47375,-0.14656 -0.85499,-0.29794 -1.13281,-0.44336 1.28309,0.27744 2.8008,0.47113 4.41797,0.56641 0.004,0 0.007,0.002 0.01,0.002 0.002,0 0.004,-0.002 0.006,-0.002 0.48637,0.0283 0.97994,0.0502 1.48047,0.0605 0.27552,0.007 0.54651,0.008 0.81055,0.008 0.23037,0 0.46552,-0.003 0.70507,-0.008 0.5411,-0.009 1.07171,-0.0303 1.58985,-0.0605 l 0.002,0.002 0.002,-0.002 c 1.61296,-0.0945 3.09375,-0.28478 4.33399,-0.54883 0.10179,-0.021 0.20168,-0.0423 0.30078,-0.0645 0.0314,-0.007 0.0647,-0.0142 0.0957,-0.0215 1.35044,-0.30996 2.43512,-0.72505 2.95899,-1.25391 0.005,-0.006 0.0136,-0.0119 0.0195,-0.0176 z m -17.27917,1.9199 c 0.30576,0.19249 0.69344,0.36892 1.14844,0.52734 v 1.82422 c -0.44046,-0.1722 -0.77566,-0.35017 -0.97656,-0.52734 l -0.13086,-0.11524 c -0.0268,-0.0436 -0.041,-0.0856 -0.041,-0.125 z m 19.13477,0 v 1.58398 c -7.7e-4,0.19287 -0.32498,0.43838 -0.92578,0.6875 l -0.004,-0.004 -0.21875,0.084 v -1.82421 c 0.455,-0.15843 0.84269,-0.33486 1.14844,-0.52735 z m -17.22071,0.75977 c 0.35741,0.0964 0.74204,0.18564 1.14844,0.26562 v 1.86719 c -0.42323,-0.0899 -0.80749,-0.18486 -1.14844,-0.28321 z m 15.30664,0.002 v 1.84765 c -0.0126,0.003 -0.0245,0.008 -0.0371,0.0117 -0.0455,0.0134 -0.0939,0.0256 -0.14063,0.0391 -0.29505,0.0804 -0.61941,0.1578 -0.9707,0.23242 v -1.86718 c 0.4064,-0.08 0.79103,-0.16725 1.14843,-0.26367 z m -13.39257,0.40045 c 0.37043,0.0601 0.75195,0.1127 1.14648,0.16015 v 1.89453 c -0.40448,-0.0528 -0.786,-0.11226 -1.14648,-0.17578 z m 11.47851,0 v 1.8789 c -0.36048,0.0635 -0.742,0.12259 -1.14648,0.17578 v -1.89453 c 0.39453,-0.0471 0.77605,-0.10007 1.14648,-0.16015 z m -9.5664,0.24414 c 0.37654,0.0367 0.7604,0.0662 1.14843,0.0918 v 1.9082 c -0.0857,-0.006 -0.1697,-0.0111 -0.2539,-0.0176 -0.0555,-0.004 -0.11247,-0.009 -0.16797,-0.0137 -0.24836,-0.0203 -0.49007,-0.0435 -0.72656,-0.0684 z m 7.65429,0 v 1.90039 c -0.0276,0.003 -0.0544,0.005 -0.082,0.008 -0.0386,0.004 -0.0782,0.008 -0.11719,0.0117 -0.31035,0.0302 -0.62776,0.0571 -0.94921,0.0801 v -1.90629 c 0.38803,-0.0256 0.77188,-0.0574 1.14843,-0.0937 z m -5.74023,0.13476 c 0.38343,0.0176 0.76896,0.0298 1.1543,0.0371 0.0203,4.8e-4 0.0402,0.002 0.0605,0.002 0.10523,0.002 0.20923,0.002 0.31446,0.004 v 1.91211 c -0.13852,-10e-4 -0.27745,-0.003 -0.41407,-0.006 -0.0563,-10e-4 -0.11207,-3.5e-4 -0.16797,-0.002 -0.23688,-0.006 -0.4708,-0.0151 -0.70117,-0.0254 -0.083,-0.004 -0.16419,-0.006 -0.24609,-0.01 z m 3.82617,0.002 v 1.91016 c -0.2055,0.01 -0.41253,0.0185 -0.62109,0.0254 -0.0214,7e-4 -0.0431,0.001 -0.0645,0.002 -0.17335,0.005 -0.34817,0.009 -0.52343,0.0117 v 0.002 c -0.0333,5e-4 -0.0659,10e-4 -0.0996,0.002 -0.0739,8.8e-4 -0.14846,0.001 -0.22266,0.002 v -1.91211 c 0.10523,-10e-4 0.21118,-0.004 0.31641,-0.006 0.0199,-4.8e-4 0.0402,-10e-4 0.0605,-0.002 0.38535,-0.007 0.77086,-0.0172 1.1543,-0.0352 z m -11.63477,0.99805 c 0.0337,0.0241 0.0766,0.0466 0.11329,0.0703 0.0395,0.026 0.0786,0.0509 0.12109,0.0762 0.0348,0.0203 0.0707,0.0407 0.10742,0.0606 0.6712,0.37234 1.64928,0.6724 2.7793,0.9043 0.0268,0.006 0.0533,0.0122 0.0801,0.0176 0.12016,0.0241 0.24201,0.0477 0.36523,0.0703 0.59812,0.11212 1.24225,0.20866 1.92188,0.28711 0.008,8e-4 0.0154,0.004 0.0234,0.004 h 0.008 c 0.61036,0.07 1.24411,0.12464 1.90039,0.16406 0.002,0 0.004,0.002 0.006,0.002 h 0.002 c 0.5388,0.0321 1.09013,0.0513 1.64844,0.0606 0.21851,0.004 0.43562,0.008 0.64648,0.008 0.15881,0 0.31941,-0.003 0.48242,-0.006 0.61228,-0.007 1.21937,-0.0292 1.8125,-0.0644 h 0.002 c 1.92062,-0.11365 3.70006,-0.36563 5.09375,-0.72266 0.0628,-0.0161 0.12434,-0.0324 0.18554,-0.0488 0.0417,-0.0111 0.084,-0.0217 0.125,-0.0332 0.10829,-0.0298 0.21309,-0.06 0.31641,-0.0918 0.0122,-0.003 0.0249,-0.008 0.0371,-0.0117 0.12131,-0.0379 0.23948,-0.0774 0.35351,-0.11718 -0.0735,0.25639 -0.65775,0.5897 -1.66992,0.90234 -1.35389,0.41826 -3.47143,0.80129 -6.15625,0.91992 -0.13815,0.006 -0.27676,0.011 -0.41797,0.0156 -0.11365,0.004 -0.22661,0.007 -0.34179,0.01 -0.31724,0.007 -0.63932,0.0137 -0.97071,0.0137 -0.33139,0 -0.65384,-0.007 -0.9707,-0.0137 -0.11671,-0.003 -0.23128,-0.006 -0.3457,-0.01 -0.14006,-0.005 -0.27669,-0.01 -0.41406,-0.0156 -2.68483,-0.11863 -4.80432,-0.50166 -6.15821,-0.91992 -1.04507,-0.32297 -1.63213,-0.66671 -1.67383,-0.92578 0.0249,-0.0961 0.23289,-0.33607 0.98828,-0.60547 z m -0.99218,1.66797 c 0.30575,0.19248 0.69148,0.36891 1.14648,0.52734 v 1.83203 c -0.74429,-0.27935 -1.14602,-0.55994 -1.14648,-0.77539 z m 19.13281,0 v 1.58594 c -7.6e-4,0.21544 -0.40414,0.49447 -1.14844,0.77343 v -1.83203 c 0.455,-0.15842 0.84269,-0.33486 1.14844,-0.52734 z m -17.2207,0.76172 c 0.35742,0.0964 0.74203,0.18369 1.14843,0.26367 v 1.86719 c -0.42324,-0.0899 -0.80747,-0.18487 -1.14843,-0.28321 z m 15.30664,0 v 1.84765 c -0.34096,0.0983 -0.72326,0.19328 -1.14649,0.28321 v -1.86719 c 0.40639,-0.0796 0.78908,-0.16724 1.14649,-0.26367 z m -13.39258,0.40039 c 0.37042,0.0601 0.75391,0.11466 1.14844,0.16211 v 1.89257 c -0.40448,-0.0532 -0.78796,-0.11226 -1.14844,-0.17578 z m 11.48047,0 v 1.87881 c -0.36048,0.0635 -0.74395,0.12259 -1.14844,0.17578 v -1.89258 c 0.39454,-0.0474 0.77801,-0.10203 1.14844,-0.16211 z m -9.56836,0.24414 c 0.37655,0.0364 0.76041,0.0665 1.14844,0.0918 v 1.9082 c -0.3976,-0.0279 -0.78069,-0.061 -1.14844,-0.0996 z m 7.6543,0 v 1.90039 c -0.36774,0.0387 -0.75085,0.0736 -1.14844,0.10156 v -1.9082 c 0.38803,-0.0256 0.77189,-0.0574 1.14844,-0.0937 z m -5.74024,0.13672 c 0.38343,0.0176 0.76894,0.0298 1.1543,0.0371 v -0.002 c 0.0202,4.6e-4 0.0402,0.002 0.0605,0.002 0.10524,0.002 0.21118,0.002 0.31641,0.004 v 1.91406 c -0.52885,-0.005 -1.0399,-0.0208 -1.53125,-0.0449 z m 3.82617,0 v 1.91015 c -0.49135,0.0241 -1.00044,0.0399 -1.52929,0.0449 v -1.91211 c 0.10524,-0.001 0.20921,-0.004 0.31445,-0.006 0.0202,-4.6e-4 0.0402,0 0.0605,0 0.38535,-0.007 0.77085,-0.0191 1.15429,-0.0371 z"
   sodipodi:nodetypes="cccscccccscccccccccccccccccscccccsccscscsccscccccccccccccccccccccccccccccccccccccccccccccccccccccccccccccccccccccccscccccccccccccccccscccccccccscccsccccccccccsccccccccccccccccccccccccccscccccsccsccscccccscccscccccccccccccccccccsccccccccccccccccccccccccccccccccccccccccccccccccccccccccccccccccsccccccccsccccccsccscccccccccccccccsccccccccccccccccccccccccccccccccccccccccsccccccccccsccccccsccccccccccccccccccsccsccscccscccccccccscccccccccccccccccccccccccccccccccccccccccccccccccccccccccccccccc" /><path
   d="m 133.70818,74.428865 c -0.23524,-7.41101 -1.23503,-16.558939 -4.25586,-23.873632 -1.2854,-3.112145 -0.57467,-6.699683 1.81024,-9.139386 l 8.20246,-8.390953 c 0.6271,-0.641516 0.83563,-1.583762 0.53755,-2.429985 -0.29794,-0.846223 -1.05094,-1.449741 -1.94162,-1.556659 -0.66511,-0.07982 -13.7069,-1.570214 -25.19938,2.513338 1.41292,-2.141921 3.19462,-4.534495 5.28146,-6.714414 0.65271,-0.681571 0.83562,-1.687144 0.46479,-2.554867 -0.37054,-0.867727 -1.22324,-1.430893 -2.16696,-1.430893 -11.16319,0 -21.807702,4.971891 -28.313282,8.772386 1.26566,-2.043542 3.10096,-4.294147 5.74242,-6.310003 0.87273,-0.665961 1.16993,-1.846492 0.71663,-2.846171 -0.4536,-0.999978 -1.53752,-1.554307 -2.6129,-1.336642 -9.73142,1.967257 -19.33707,5.925038 -21.73495,7.143858 -7.47964,3.802556 -13.77079,9.594458 -18.19395,16.749508 -4.47234,7.234868 -6.83605,15.558961 -6.83605,24.072445 -1.93568,30.79025 0,22.16796 0,42.319405 -0.0604,4.37073 1.35725,8.69522 3.99312,12.17819 l 17.39397,22.98765 c 5.39456,7.12942 13.95282,11.38557 22.8928,11.38557 8.93998,0 17.497942,-4.25615 22.892502,-11.38557 l 17.39425,-22.98765 c 2.58404,-3.41493 3.96486,-7.4867 3.99313,-11.79646 8.8e-4,-0.12694 0,-9.967058 0,-9.967058 -0.29974,-12.185187 1.48364,-19.095027 -0.0604,-25.402007 z m -88.499702,4.85083 v 15.711236 c 3.18083,-8.002616 -0.0755,-7.947996 0,-15.711236 z m 83.847362,30.507925 c -0.0203,3.26501 -1.07212,6.3642 -3.03818,8.96296 l -17.39427,22.98764 c -4.50917,5.95891 -11.662162,9.5164 -19.134722,9.5164 -7.47257,0 -14.62556,-3.55749 -19.13472,-9.5164 l -17.39397,-22.98764 c -2.00849,-2.65472 -3.0877,-5.95155 -3.03851,-9.28313 0,-0.0119 2.9e-4,-0.0234 2.9e-4,-0.0347 l -2.9e-4,-42.335905 c 0,-7.63722 2.12042,-15.10448 6.1321,-21.594155 3.96838,-6.41987 9.61213,-11.616202 16.32095,-15.026722 1.52308,-0.774354 6.58422,-2.89065 12.64828,-4.717703 -3.48357,4.932426 -4.19018,9.35853 -4.22905,9.618907 -0.14227,0.95108 0.3075,1.893028 1.13664,2.380203 0.82914,0.487178 1.87123,0.421494 2.63263,-0.165547 0.13843,-0.106637 12.44269,-9.48106 26.449112,-11.603834 -3.83554,5.097072 -6.02312,9.828912 -6.13917,10.082809 -0.43945,0.959916 -0.18646,2.095088 0.61914,2.777841 0.80557,0.68275 1.96695,0.746078 2.84175,0.155514 7.33914,-4.953926 17.93267,-5.642862 24.12957,-5.558329 l -4.57071,4.675584 c -3.70448,3.789594 -4.80223,9.376199 -2.7961,14.232925 1.80613,4.373677 3.95923,12.417947 3.95923,25.905387 v 0 c 3.1e-4,0 8.8e-4,31.406285 0,31.527935 z"
   id="path24466-1-4"
   style="fill:#fa741c;fill-opacity:1;stroke-width:0.294544"
   sodipodi:nodetypes="cccccscccsccccccccccscccccccccccscccccccccscccsccccsscc" /><ellipse
   cx="111.86153"
   cy="92.245316"
   id="circle24470-6-6"
   style="fill:#fa741c;fill-opacity:1;stroke:#fa741c;stroke-width:0.571402;stroke-miterlimit:4;stroke-dasharray:none;stroke-opacity:1"
   rx="3.7173326"
   ry="3.1251454" /><path
   d="m 93.496228,101.04706 c -0.27854,-1.354495 -0.86271,-8.231389 -1.91393,-7.872089 -1.05111,0.35903 -2.2947,2.34186 -1.76916,3.56838 3.33884,7.792449 2.6246,8.873769 -3.32391,7.875299 -0.53916,-0.0906 -0.98635,0.2056 -1.23955,0.76716 -0.25319,0.56158 -0.34003,1.2473 -0.20069,1.9244 0.27852,1.3545 1.3565,2.16128 2.40775,1.80195 7.42243,-2.66596 7.2654,-2.10765 6.03951,-8.06508 z"
   id="path24472-3-4-9"
   style="fill:#fa741c;fill-opacity:1;stroke-width:0.279378"
   sodipodi:nodetypes="ccsssccc" /><path
   d="m 59.023238,82.998827 c -0.92015,0.92015 -0.92045,2.41201 0,3.33217 0.92015,0.92045 2.41202,0.92045 3.33217,0 2.21055,-2.21055 5.80781,-2.21055 8.01806,0 0.46008,0.46008 1.06301,0.69011 1.66623,0.69011 0.60323,0 1.20616,-0.23005 1.66624,-0.69011 5.25429,-4.32938 -11.97672,-5.49962 -14.6827,-3.33217 z"
   id="path24474-6-7"
   style="fill:#fa741c;fill-opacity:1;stroke-width:0.294544"
   sodipodi:nodetypes="ccccscc" /><path
   d="m 104.33618,80.398271 c -0.92015,0.92015 -0.92045,2.41201 0,3.33217 0.92015,0.92045 2.41202,0.92045 3.33217,0 2.21055,-2.21055 5.80781,-2.21055 8.01806,0 0.46008,0.46008 1.06301,0.69011 1.66623,0.69011 0.60323,0 1.20616,-0.23005 1.66624,-0.69011 5.25429,-4.32938 -11.97672,-5.49962 -14.6827,-3.33217 z"
   id="path24474-6-2-3"
   style="fill:#fa741c;fill-opacity:1;stroke-width:0.294544"
   sodipodi:nodetypes="ccccscc" /><path
   id="path24476-1-3"
   style="fill:#fa741c;fill-opacity:1;stroke-width:0.294544"
   d="m 74.880728,62.973155 c -4.70651,0 -10.52282,-10.384416 -14.64613,-8.118788 -5.22107,2.869146 -14.99395,14.692638 -14.99395,20.666568 v 9.67434 c 0.29405,-0.0105 0.58681,-0.0193 0.87949,-0.0237 0.12755,-3e-5 0.25561,-0.008 0.3829,0 0.55408,0.0361 0.79926,0.0797 1.31624,0.14958 0.42912,0.058 -1.31624,-0.14958 1.29231,0.17351 0.28462,0.0352 0.56303,0.0982 0.84359,0.14958 v -10.12306 c 0,-4.25468 8.83304,-14.49747 12.54694,-16.53836 3.42996,-1.884494 8.46325,8.69913 12.37861,8.69913 h 32.499092 c 4.11978,0 7.03772,-10.482798 10.60169,-8.40597 0.12223,0.0713 0.24585,0.153 0.37692,0.23934 3.20728,2.1104 11.04793,12.58983 11.04793,16.52346 v 11.44528 h 0.0478 1.37007 0.89146 0.62222 c 0.0366,0 0.0715,-0.005 0.10779,0 1.4763,0.21605 -0.28032,-0.0315 0.74788,0.15555 0.1166,0.021 0.41356,0.0285 0.27523,0.006 0.21694,-0.0227 0.43431,-0.0183 0.65213,-0.0237 v -11.58289 c 3e-4,-5.52474 -8.63588,-17.475597 -13.17185,-20.460202 -0.2054,-0.135211 -0.59829,-0.370943 -0.59829,-0.370943 -4.28473,-2.496841 -8.01847,7.765795 -12.97092,7.765795 z"
   sodipodi:nodetypes="ccscccsscscssccscsscsccccccccc" /><path
   d="m 85.946888,120.30361 -10.08638,-3.03167 c -2.35281,-0.707 -5.3802,-3.63228 -5.18838,-2.11168 -0.44468,2.41132 -1.39188,6.46502 -0.54466,8.8481 0.57166,1.60758 1.64826,3.1981 3.29173,4.863 2.62621,2.66048 5.70948,4.41364 9.02219,5.20552 3.31304,0.79191 6.85563,0.62219 10.40131,-0.56264 2.21841,-0.74181 3.89791,-1.67354 5.13477,-2.84881 v 0 c 1.833464,-1.74231 2.692992,-4.75118 2.089582,-7.31736 -3.574152,-1.86336 -3.109942,0.0529 -14.120462,-3.04452 z"
   id="path24478-8-5-8"
   style="fill:none;fill-opacity:1;stroke:#fa741c;stroke-width:2.98622;stroke-miterlimit:4;stroke-dasharray:none;stroke-opacity:1"
   sodipodi:nodetypes="cscssscssccc" /></svg>
