<?xml version="1.0" encoding="UTF-8" standalone="no"?>
<!-- Generator: Adobe Illustrator 19.0.0, SVG Export Plug-In . SVG Version: 6.00 Build 0)  -->

<svg
   version="1.1"
   id="Layer_1"
   x="0px"
   y="0px"
   viewBox="0 0 180.99999 181"
   xml:space="preserve"
   sodipodi:docname="stake.svg"
   width="181"
   height="181"
   inkscape:version="1.1.2 (b8e25be833, 2022-02-05)"
   xmlns:inkscape="http://www.inkscape.org/namespaces/inkscape"
   xmlns:sodipodi="http://sodipodi.sourceforge.net/DTD/sodipodi-0.dtd"
   xmlns="http://www.w3.org/2000/svg"
   xmlns:svg="http://www.w3.org/2000/svg"><defs
   id="defs12819">
	

		
		
		
		
		
		
		
		
		
		
		
		
		
		
		
		
		
		
		
		
		
		
		
		
		
		
		
			
		
			
		
		
		
	</defs><sodipodi:namedview
   id="namedview12817"
   pagecolor="#505050"
   bordercolor="#ffffff"
   borderopacity="1"
   inkscape:pageshadow="0"
   inkscape:pageopacity="0"
   inkscape:pagecheckerboard="1"
   showgrid="false"
   fit-margin-top="0"
   fit-margin-left="0"
   fit-margin-right="0"
   fit-margin-bottom="0"
   inkscape:zoom="2.8284271"
   inkscape:cx="186.85297"
   inkscape:cy="226.8045"
   inkscape:window-width="1920"
   inkscape:window-height="1001"
   inkscape:window-x="-9"
   inkscape:window-y="-9"
   inkscape:window-maximized="1"
   inkscape:current-layer="Layer_1" />








<g
   id="g12786"
   transform="translate(174.51267,193.40351)">
</g>
<g
   id="g12788"
   transform="translate(174.51267,193.40351)">
</g>
<g
   id="g12790"
   transform="translate(174.51267,193.40351)">
</g>
<g
   id="g12792"
   transform="translate(174.51267,193.40351)">
</g>
<g
   id="g12794"
   transform="translate(174.51267,193.40351)">
</g>
<g
   id="g12796"
   transform="translate(174.51267,193.40351)">
</g>
<g
   id="g12798"
   transform="translate(174.51267,193.40351)">
</g>
<g
   id="g12800"
   transform="translate(174.51267,193.40351)">
</g>
<g
   id="g12802"
   transform="translate(174.51267,193.40351)">
</g>
<g
   id="g12804"
   transform="translate(174.51267,193.40351)">
</g>
<g
   id="g12806"
   transform="translate(174.51267,193.40351)">
</g>
<g
   id="g12808"
   transform="translate(174.51267,193.40351)">
</g>
<g
   id="g12810"
   transform="translate(174.51267,193.40351)">
</g>
<g
   id="g12812"
   transform="translate(174.51267,193.40351)">
</g>
<g
   id="g12814"
   transform="translate(174.51267,193.40351)">
</g>
<g
   id="g81010"
   transform="matrix(3.7795276,0,0,3.7795276,-490.60509,-653.67303)"><g
     opacity="0.25"
     id="g79298"
     transform="matrix(0.26458333,0,0,0.26458333,129.67364,172.8187)"
     style="fill:none"><path
       d="m 171.048,132.174 c 0.155,-0.298 0.304,-0.6 0.454,-0.901 l -10.699,6.188 -19.173,-11.086 19.111,-11.047 14.195,8.206 c 0.067,-0.174 0.132,-0.349 0.198,-0.523 l -13.843,-8.004 18.748,-10.84 c 0.05,-0.341 0.097,-0.683 0.143,-1.025 L 161.291,92.218 180.46,81.136 c -0.027,-0.248 -0.056,-0.497 -0.086,-0.745 L 161.295,69.36 175.851,60.94 c -0.062,-0.176 -0.123,-0.353 -0.186,-0.529 l -14.924,8.63 -19.05,-11.014 19.05,-11.013 12.409,7.175 c -0.131,-0.291 -0.267,-0.58 -0.4,-0.87 l -11.459,-6.627 5.991,-3.463 c -0.098,-0.156 -0.194,-0.313 -0.292,-0.468 l -6.249,3.614 -19.216,-11.11 13.314,-7.7 c -0.133,-0.135 -0.268,-0.27 -0.403,-0.404 L 140.972,34.945 121.817,23.871 138.23,14.38 c -0.177,-0.109 -0.353,-0.222 -0.53,-0.331 l -16.436,9.502 -19.045,-11.013 13.837,-7.99899 c -0.247,-0.072 -0.494,-0.143 -0.742,-0.212 L 101.664,12.218 82.899,1.36801 c -0.319,0.028 -0.64,0.052 -0.959,0.085 L 101.111,12.538 82.066,23.551 62.851,12.441 81.839,1.46101 c -0.46,0.047 -0.918,0.103 -1.376,0.157 L 62.3,12.119 55.588,8.24001 c -0.212,0.09 -0.421,0.184 -0.632,0.276 l 6.789,3.92499 -19.213,11.11 -6.54,-3.781 c -0.158,0.122 -0.318,0.241 -0.475,0.364 l 6.461,3.737 -19.152,11.074 -1.525,-0.882 c -0.118,0.145 -0.234,0.292 -0.351,0.437 l 1.323,0.765 -3.486,2.015 c -0.272,0.366 -0.539,0.735 -0.806,1.105 L 22.826,35.584 42.041,46.692 22.932,57.745 10.565,50.594 c -0.083,0.164 -0.164,0.33 -0.246,0.495 L 22.379,58.062 3.755,68.83 c -0.092,0.365 -0.18,0.732 -0.26799,1.099 L 22.273,80.791 3.09,91.881 1.00401,90.676 C 1.00401,90.784 1,90.892 1,91.001 c 0,0.104 0.00401,0.207 0.00401,0.311 L 2.539,92.199 1.027,93.074 c 0.00501,0.209 0.011,0.419 0.01701,0.628 L 3.09,92.519 22.245,103.592 4.008,114.136 c 0.04901,0.186 0.1,0.37 0.15,0.555 L 22.798,103.913 42.015,115.02 22.869,126.092 4.343,115.375 c 0.072,0.255 0.14701,0.509 0.22,0.764 l 17.755,10.271 -11.04,6.382 c 0.086,0.164 0.172,0.328 0.259,0.491 l 11.334,-6.554 19.045,11.016 -19.09,11.037 -1.581,-0.914 c 0.338,0.414 0.682,0.825 1.028,1.233 0.121,0.143 0.24,0.286 0.362,0.429 l 0.191,-0.112 19.215,11.114 -4.708,2.721 c 0.162,0.121 0.326,0.237 0.488,0.355 l 4.771,-2.759 19.155,11.073 -4.425,2.559 c 0.217,0.088 0.432,0.18 0.65,0.266 l 4.328,-2.502 12.684,7.334 c 0.518,0.092 1.039,0.176 1.56,0.26 l -13.693,-7.917 19.084,-11.03 19.179,11.093 -15.325,8.861 c 0.339,0.02 0.678,0.038 1.018,0.054 l 14.859,-8.595 10.637,6.153 c 0.261,-0.064 0.522,-0.125 0.78,-0.191 l -10.864,-6.282 19.164,-11.082 14.278,8.251 c 0.182,-0.105 0.364,-0.213 0.546,-0.32 l -14.273,-8.253 19.168,-11.084 11.807,6.826 c 0.139,-0.133 0.278,-0.266 0.417,-0.399 l -11.671,-6.752 19.148,-11.073 5.032,2.909 c 0.103,-0.153 0.203,-0.308 0.305,-0.463 l -4.784,-2.766 z m -29.97,-6.121 -19.153,-11.074 19.11,-11.047 19.152,11.075 z M 82.453,69.421 101.604,58.345 120.821,69.458 101.666,80.531 Z m 38.26,22.761 -19.109,11.05 L 82.557,92.22 101.666,81.168 Z M 101.114,80.851 82.003,91.899 62.79,80.791 81.9,69.741 Z m -0.061,22.7 L 81.9,114.627 62.851,103.614 82.003,92.536 Z m 0.551,0.321 19.217,11.107 -19.155,11.074 -19.213,-11.108 z m 0.553,-0.319 19.109,-11.05 19.213,11.111 -19.109,11.046 z m 19.662,-11.371 19.153,-11.074 19.215,11.11 -19.154,11.076 z m -0.553,-0.32 -19.047,-11.011 19.155,-11.074 19.047,11.014 z m -19.109,-33.835 19.217,-11.11 19.213,11.11 -19.213,11.109 z m -0.551,-0.321 -19.155,-11.074 19.215,-11.11 19.155,11.075 z M 101.053,58.027 81.9,69.101 62.745,58.027 81.898,46.952 Z M 62.192,57.706 43.145,46.692 62.3,35.619 81.345,46.632 Z M 81.347,69.421 62.237,80.469 43.084,69.395 62.192,58.345 Z M 61.685,80.791 42.534,91.862 23.376,80.791 42.532,69.715 Z M 62.237,81.108 81.451,92.22 62.3,103.294 43.084,92.182 Z M 81.347,114.945 62.168,126.032 43.119,115.02 62.3,103.932 Z M 81.386,137.779 62.231,148.855 43.02,137.747 62.168,126.67 Z M 62.721,126.353 81.9,115.264 l 19.214,11.111 -19.175,11.086 z m 38.945,0.342 19.155,11.073 -19.174,11.087 -19.157,-11.076 z m 0.553,-0.32 19.155,-11.078 19.151,11.078 -19.151,11.072 z m 77.672,-22.761 -19.15,11.071 -19.154,-11.071 19.154,-11.078 z M 160.743,69.678 179.956,80.791 160.741,91.899 141.525,80.791 Z M 160.19,69.36 140.972,80.469 121.925,69.458 141.14,58.345 Z M 160.187,46.692 141.14,57.706 121.925,46.597 140.972,35.584 Z M 140.421,35.265 121.374,46.28 102.219,35.202 121.264,24.188 Z M 101.666,12.858 120.713,23.871 101.666,34.884 82.619,23.871 Z M 101.114,35.202 81.9,46.314 62.851,35.301 82.066,24.188 Z M 62.3,12.758 81.516,23.871 62.3,34.981 43.084,23.871 Z M 23.376,35.265 42.532,24.188 61.747,35.301 42.592,46.375 Z M 42.592,47.014 61.639,58.027 42.532,69.075 23.485,58.062 Z M 3.77901,69.458 22.932,58.384 41.978,69.395 22.826,80.469 Z M 3.64301,92.199 22.826,81.106 41.981,92.182 22.798,103.275 Z M 23.351,103.592 42.534,92.503 61.747,103.614 42.566,114.703 Z m 0.071,22.818 19.144,-11.07 19.049,11.013 -19.148,11.074 z m -0.043,22.691 19.088,-11.037 19.213,11.108 -19.088,11.041 z m 38.921,22.504 -19.155,-11.073 19.086,-11.035 19.15,11.076 z m 0.484,-22.433 19.155,-11.073 19.155,11.073 -19.159,11.08 z m 38.882,22.494 -19.178,-11.091 19.159,-11.08 19.183,11.086 z m 19.714,-11.403 -19.18,-11.091 19.174,-11.084 19.177,11.084 z m 19.722,-11.408 -19.177,-11.087 19.153,-11.073 19.174,11.084 z"
       fill="#218095"
       id="path79296" /></g><path
     d="m 153.75072,173.08328 c 13.15138,0 23.8125,10.66112 23.8125,23.8125 0,13.15138 -10.66112,23.8125 -23.8125,23.8125 -13.15138,0 -23.8125,-10.66112 -23.8125,-23.8125 0,-13.15138 10.66112,-23.8125 23.8125,-23.8125 z"
     stroke="#fa741c"
     id="path79580"
     style="fill:none;stroke-width:0.264583" /></g><path
   d="m 152.71327,77.334802 c -0.0379,-0.654747 -0.81662,-1.166383 -2.37409,-1.556703 0.0524,-0.114804 0.0819,-0.234197 0.0823,-0.358183 v -2.677165 h -0.007 c -0.137,-2.230205 -9.27595,-2.296027 -10.32561,-2.296027 -1.04967,0 -10.18862,0.06582 -10.32561,2.296027 h -0.007 v 0.04975 0 0 2.628567 c 0.002,0.727075 0.94022,1.296106 2.3362,1.719723 -0.0191,0.06353 -0.0306,0.128197 -0.0344,0.194014 h -0.006 v 0.04975 0 0 2.623977 c -1.5039,0.387263 -2.25508,0.891623 -2.2922,1.535656 h -0.004 v 0.04975 0 0 2.628567 c 10e-4,0.506273 0.45767,0.935629 1.20465,1.293428 -0.0283,0.07768 -0.0459,0.156894 -0.0509,0.238018 h -0.006 v 0.04975 0 0 2.628565 c 0.003,1.272766 2.86888,2.062979 6.05309,2.431873 0.0233,0.0046 0.0448,0.01417 0.0696,0.01417 0.007,0 0.0134,-0.0038 0.0207,-0.0042 0.6138,0.06926 1.23755,0.12322 1.8548,0.16187 0.013,0.0016 0.0245,0.0077 0.0379,0.0077 0.007,0 0.013,-0.0038 0.0199,-0.0042 0.78371,0.04745 1.55479,0.07156 2.27612,0.07156 0.72134,0 1.49242,-0.02411 2.27613,-0.07194 0.007,4.62e-4 0.013,0.0042 0.0199,0.0042 0.0134,0 0.0249,-0.0065 0.0379,-0.0077 0.61724,-0.03865 1.241,-0.09222 1.8548,-0.16187 0.007,0 0.0134,0.0038 0.0207,0.0038 0.0249,0 0.0463,-0.0096 0.0696,-0.01417 3.18421,-0.368897 6.04965,-1.159493 6.05309,-2.432642 v -2.677165 h -0.006 c -0.0268,-0.469151 -0.42667,-0.860625 -1.21651,-1.187809 0.0482,-0.110593 0.0746,-0.225394 0.0746,-0.344404 v -2.501136 c 1.37379,-0.42247 2.29412,-0.987673 2.29603,-1.708245 v -2.677176 z m -3.09849,7.010915 -0.13049,0.11442 c -0.2009,0.177174 -0.53573,0.355882 -0.97619,0.528085 v -1.824578 c 0.455,-0.158424 0.84226,-0.334068 1.14801,-0.526555 v 1.583493 c 0,0.03942 -0.0145,0.08151 -0.0413,0.125135 z m -8.55881,1.778275 c -0.0559,0.0016 -0.11213,0.0023 -0.16838,0.0034 -0.13661,0.0027 -0.27667,0.0034 -0.4152,0.0046 v -1.911441 c 0.10524,-0.0014 0.21047,-0.0027 0.31571,-0.0046 0.0203,-4.62e-4 0.0406,-9.23e-4 0.0608,-0.0014 0.38535,-0.0073 0.7707,-0.01913 1.15414,-0.03674 v 1.910675 c -0.0819,0.0042 -0.16417,0.008 -0.24721,0.01147 -0.23037,0.01034 -0.46303,0.01798 -0.6999,0.02373 z m -1.67113,0.0054 c -0.17526,-0.0031 -0.34976,-0.0073 -0.52311,-0.01265 -0.0214,-9.23e-4 -0.0429,-0.0016 -0.0643,-0.0023 -0.20855,-0.0069 -0.41558,-0.01569 -0.62107,-0.02564 v -1.910306 c 0.38343,0.01798 0.76878,0.02985 1.15413,0.03674 0.0203,4.62e-4 0.0406,9.24e-4 0.0605,0.0014 0.10523,0.0018 0.21047,0.0034 0.3157,0.0046 v 1.912588 c -0.0742,-9.23e-4 -0.14848,-9.23e-4 -0.22233,-0.0018 -0.0337,-9.23e-4 -0.0662,-0.0018 -0.0995,-0.0023 z m -6.9118,-0.872491 c -0.0126,-0.0038 -0.0245,-0.0073 -0.0371,-0.01073 v -1.848686 c 0.35742,0.09643 0.74162,0.184452 1.14802,0.264427 v 1.867818 c -0.3513,-0.07462 -0.67542,-0.153069 -0.97046,-0.233429 -0.0467,-0.01341 -0.0949,-0.02602 -0.14044,-0.03942 z m 8.06594,3.168898 c 0.10523,0.0018 0.21047,0.0034 0.3157,0.0046 v 1.91297 c -0.52885,-0.005 -1.03933,-0.02028 -1.53068,-0.04439 V 88.38825 c 0.38343,0.01798 0.76879,0.02985 1.15413,0.03674 0.0203,0 0.0406,4.62e-4 0.0609,9.23e-4 z m 1.45759,-0.0014 c 0.38535,-0.0073 0.7707,-0.01913 1.15414,-0.03674 v 1.910677 c -0.49135,0.02411 -1.00183,0.03941 -1.53068,0.04439 v -1.912973 c 0.10523,-0.0014 0.21046,-0.0027 0.3157,-0.0046 0.0203,0 0.0406,-4.62e-4 0.0608,-9.23e-4 z m 3.06749,-0.172972 v 1.900349 c -0.36774,0.03865 -0.75041,0.0727 -1.14801,0.100641 v -1.908381 c 0.38803,-0.02525 0.77146,-0.05625 1.14801,-0.09261 z m 0.76535,-0.08265 c 0.39453,-0.04745 0.77758,-0.101406 1.14801,-0.161485 v 1.878913 c -0.36048,0.06352 -0.74353,0.12207 -1.14801,0.175263 z m 1.91335,-0.2981 c 0.4064,-0.07998 0.7906,-0.167994 1.14801,-0.264426 v 1.848683 c -0.34096,0.09834 -0.72478,0.193631 -1.14801,0.283559 z m -13.01081,0 v 1.867816 c -0.42324,-0.08993 -0.80706,-0.185214 -1.14801,-0.283559 v -1.848683 c 0.35741,0.09643 0.74161,0.184828 1.14801,0.264426 z m 0.76534,0.136998 c 0.37043,0.06008 0.75348,0.114031 1.14801,0.161487 v 1.892689 c -0.40448,-0.05319 -0.78754,-0.111741 -1.14801,-0.175263 z m 1.91336,0.243755 c 0.37654,0.03636 0.75998,0.06736 1.14801,0.09299 v 1.908381 c -0.3976,-0.02794 -0.78027,-0.06199 -1.14801,-0.100644 z m -0.94941,-2.28837 c -0.039,-0.0038 -0.0777,-0.008 -0.11633,-0.01186 -0.0276,-0.0027 -0.0547,-0.0061 -0.0823,-0.0088 v -1.899963 c 0.37655,0.03636 0.75998,0.06735 1.14802,0.09299 v 1.906851 c -0.32145,-0.02296 -0.63907,-0.04898 -0.94941,-0.07921 z m -0.96395,-2.003664 v 1.892689 c -0.40448,-0.05319 -0.78754,-0.111737 -1.14802,-0.175263 v -1.87891 c 0.37043,0.06008 0.75349,0.114416 1.14802,0.161484 z m 7.52561,2.064892 c -0.0842,0.0065 -0.16914,0.01302 -0.25486,0.01913 v -1.908381 c 0.38803,-0.02564 0.77146,-0.05625 1.14801,-0.09299 v 1.900343 c -0.23649,0.02488 -0.47834,0.04822 -0.72669,0.0685 -0.0555,0.005 -0.11098,0.0092 -0.16646,0.01341 z m 1.65849,-0.172203 v -1.892689 c 0.39454,-0.04745 0.77759,-0.10141 1.14802,-0.161486 v 1.878912 c -0.36048,0.06352 -0.74354,0.122458 -1.14802,0.175263 z m 1.91336,-2.190791 c 0.40639,-0.07998 0.79059,-0.167991 1.14801,-0.264424 v 1.848681 c -0.34096,0.09835 -0.72478,0.193631 -1.14801,0.283559 z m -5.23303,-1.747967 c -0.28777,-0.0073 -0.56903,-0.01837 -0.84532,-0.03176 -0.0149,-9.23e-4 -0.0299,-0.0016 -0.0444,-0.0018 V 79.96909 c 0.38344,0.01798 0.76879,0.02985 1.15414,0.03674 0.0203,4.61e-4 0.0406,9.23e-4 0.0605,0.0014 0.10523,0.0018 0.21047,0.0034 0.3157,0.0046 v 1.910677 c -0.18636,-0.0018 -0.37425,-0.0027 -0.55602,-0.0069 -0.0279,-9.23e-4 -0.0566,-0.0014 -0.0846,-0.0018 z m -8.9258,-5.468626 v -1.848642 c 0.35742,0.09643 0.74162,0.18445 1.14802,0.264427 v 1.867817 c -0.0471,-0.01 -0.0957,-0.01989 -0.14159,-0.02985 -0.20358,-0.04477 -0.40219,-0.09146 -0.59199,-0.140824 -0.14465,-0.03712 -0.28203,-0.075 -0.41444,-0.112888 z m 6.95505,-1.029769 c 0.10523,0.0018 0.21047,0.0034 0.3157,0.0046 v 1.910677 c -0.51507,-0.005 -1.02709,-0.01837 -1.53068,-0.04362 v -1.909146 c 0.38343,0.01798 0.76878,0.02985 1.15413,0.03674 0.0203,0 0.0406,4.61e-4 0.0609,9.23e-4 z m 1.45759,-0.0014 c 0.38535,-0.0073 0.7707,-0.01913 1.15413,-0.03674 v 1.909145 c -0.0651,0.0031 -0.12742,0.0077 -0.19286,0.01073 -0.005,4.62e-4 -0.0107,4.62e-4 -0.0164,9.23e-4 -0.25677,0.01147 -0.51852,0.01989 -0.78371,0.02602 -0.0413,0.0014 -0.0827,0.0016 -0.12399,0.0027 -0.13623,0.0027 -0.27552,0.0031 -0.41367,0.0046 v -1.911441 c 0.10524,-0.0014 0.21047,-0.0027 0.31571,-0.0046 0.0203,-4.62e-4 0.0406,-9.23e-4 0.0608,-0.0014 z m 8.71992,0.192101 -0.0107,-0.0023 -0.13929,0.108296 c -0.20205,0.157277 -0.51239,0.31647 -0.91037,0.470302 v -1.820366 c 0.45499,-0.158425 0.84226,-0.33407 1.14801,-0.526555 v 1.583495 c 0,0.05816 -0.0306,0.120923 -0.0876,0.187124 z m -4.88709,1.442669 V 75.15789 c 0.39454,-0.04745 0.77759,-0.101406 1.14802,-0.161487 v 1.875853 c -0.36278,0.06429 -0.74468,0.123219 -1.14802,0.176029 z m 1.91336,-0.323358 V 74.86025 c 0.40639,-0.07998 0.79059,-0.167994 1.14801,-0.264426 v 1.844471 c -0.34287,0.09988 -0.72899,0.195164 -1.14801,0.284709 z m -2.6787,-1.484379 v 1.898045 c -0.36966,0.03903 -0.75233,0.07309 -1.14801,0.10141 v -1.906408 c 0.38803,-0.02564 0.77146,-0.05664 1.14801,-0.09299 z m -7.65342,1.898811 v -1.898742 c 0.37655,0.03635 0.75998,0.06735 1.14802,0.09299 v 1.904935 c -0.38957,-0.02794 -0.77377,-0.0597 -1.14802,-0.09911 z m -0.76534,-1.981469 v 1.890776 c -0.0758,-0.01 -0.1546,-0.01798 -0.22961,-0.02832 -0.049,-0.0069 -0.0957,-0.01417 -0.14388,-0.02105 -0.22118,-0.03176 -0.43739,-0.06582 -0.64939,-0.101408 -0.0425,-0.0073 -0.0834,-0.01493 -0.12514,-0.0222 v -1.878913 c 0.37043,0.05969 0.75349,0.114033 1.14802,0.161103 z m 4.11448,6.668806 c -0.0517,-0.0038 -0.1037,-0.0077 -0.15498,-0.01147 -0.24491,-0.01913 -0.48408,-0.04018 -0.71751,-0.06352 -0.0501,-0.005 -0.10026,-0.01034 -0.15001,-0.0153 -0.0103,-0.0014 -0.0203,-0.0027 -0.0306,-0.0034 v -1.900344 c 0.37654,0.03636 0.75998,0.06735 1.14801,0.09299 v 1.907234 c -0.031,-0.0023 -0.0639,-0.0038 -0.0949,-0.0061 z m -2.52831,-0.285857 c -0.15154,-0.02411 -0.29389,-0.05013 -0.43816,-0.07538 v -1.876531 c 0.37043,0.06008 0.75348,0.114035 1.14802,0.161489 v 1.892689 c -0.2342,-0.031 -0.46342,-0.06314 -0.68346,-0.09758 -0.009,-0.0018 -0.0176,-0.0034 -0.0264,-0.0046 z m -1.2035,-2.089 v 1.864756 c -0.42285,-0.09069 -0.80629,-0.187126 -1.14801,-0.287385 v -1.841795 c 0.35741,0.09643 0.74161,0.184828 1.14801,0.264424 z m -1.91336,-0.498238 v 1.818071 c -0.60155,-0.23228 -0.98958,-0.469537 -1.11586,-0.68077 l -0.0256,-0.04286 c -0.002,-0.01186 -0.006,-0.02449 -0.007,-0.03636 v -1.58464 c 0.30575,0.192485 0.69302,0.368131 1.14801,0.526555 z m 9.17799,1.051965 c 0.38534,-0.0073 0.77069,-0.01913 1.15413,-0.03674 v 1.908762 c -0.50283,0.02488 -1.01408,0.03865 -1.53068,0.04401 v -1.910294 c 0.10523,-0.0014 0.21047,-0.0027 0.3157,-0.0046 0.0203,-4.61e-4 0.0406,-9.23e-4 0.0608,-0.0014 z m 4.94525,1.468306 c -0.16799,0.02908 -0.33751,0.05778 -0.51163,0.08419 -0.0999,0.0153 -0.20205,0.02985 -0.3046,0.04439 -0.0968,0.01378 -0.19746,0.02564 -0.29581,0.03827 v -1.890776 c 0.39453,-0.04745 0.77759,-0.101408 1.14801,-0.161489 v 1.878915 c -0.0122,0.0023 -0.0241,0.0046 -0.036,0.0065 z m -2.59106,0.326801 c -0.14274,0.01186 -0.29007,0.01952 -0.43472,0.02985 v -1.904878 c 0.38803,-0.02564 0.77147,-0.05625 1.14802,-0.09299 v 1.898431 c -0.22234,0.02334 -0.44429,0.04668 -0.67274,0.06582 -0.0138,0.0014 -0.0268,0.0027 -0.0406,0.0038 z m 4.37316,-0.717507 c -0.19057,0.05319 -0.39224,0.102938 -0.59811,0.151536 -0.0953,0.0222 -0.19249,0.04439 -0.29198,0.06582 -0.0295,0.0065 -0.0609,0.01225 -0.0907,0.01876 v -1.866981 c 0.40639,-0.07998 0.79059,-0.167993 1.14801,-0.264426 v 1.848683 c -0.0551,0.0153 -0.11059,0.03099 -0.16723,0.04668 z m 2.07599,-3.723769 c -0.0352,0.259832 -0.62414,0.605382 -1.67533,0.930273 v 0 c -1.35389,0.418259 -3.47236,0.801312 -6.15718,0.919937 -0.13738,0.0057 -0.27437,0.01149 -0.41443,0.01608 -0.11442,0.0038 -0.22922,0.0073 -0.34594,0.01034 -0.31685,0.0069 -0.63829,0.01186 -0.96968,0.01186 -0.3314,0 -0.65284,-0.005 -0.96969,-0.01223 -0.11634,-0.0027 -0.23114,-0.0065 -0.34594,-0.01034 -0.14044,-0.0042 -0.27743,-0.01034 -0.41443,-0.01606 -2.68482,-0.118629 -4.80367,-0.501683 -6.15717,-0.919942 v 0 c -1.04278,-0.322209 -1.63056,-0.665083 -1.67419,-0.923768 0.002,-0.0073 0.002,-0.01341 0.007,-0.02257 0.026,0.0065 0.0551,0.01186 0.0815,0.01837 0.14963,0.03559 0.30308,0.07003 0.45921,0.102938 0.76037,0.163785 1.60301,0.298104 2.50076,0.400659 0.003,0 0.005,0.0016 0.008,0.0016 9.2e-4,0 0.002,-4.62e-4 0.002,-4.62e-4 0.61151,0.06965 1.24598,0.124367 1.89729,0.163019 0.005,0 0.009,0.0027 0.0142,0.0027 0.003,0 0.005,-0.0016 0.007,-0.0016 0.46878,0.02756 0.94367,0.04783 1.42431,0.05855 0.29427,0.0073 0.58318,0.0111 0.86445,0.0111 0.2009,0 0.40678,-0.0023 0.61457,-0.0061 2.78048,-0.04286 5.35739,-0.373484 7.15059,-0.885882 0.0827,-0.02334 0.1634,-0.04745 0.24299,-0.07156 0.0486,-0.01493 0.0984,-0.02946 0.14542,-0.04439 0.13852,-0.04439 0.27131,-0.08993 0.39951,-0.137379 0.0222,-0.0084 0.0432,-0.01685 0.0654,-0.02525 0.1083,-0.04095 0.21239,-0.08342 0.31188,-0.126665 0.0287,-0.01265 0.0582,-0.02487 0.0861,-0.0375 0.106,-0.04783 0.20855,-0.09682 0.30346,-0.14771 0.0429,-0.02257 0.08,-0.04592 0.12015,-0.06888 0.0459,-0.0264 0.0918,-0.05319 0.13432,-0.08036 0.0241,-0.01532 0.0528,-0.02985 0.0758,-0.04515 1.71322,0.371574 2.16477,0.777969 2.2084,0.936396 z m -11.85859,-6.147486 c 6.30986,0 9.50134,0.993412 9.56104,1.563592 -0.0463,0.258685 -0.63371,0.60041 -1.67381,0.921855 v 0 c -1.35389,0.418261 -3.47235,0.80131 -6.15717,0.919942 -0.13738,0.0058 -0.27438,0.01149 -0.41444,0.01606 -0.11441,0.0038 -0.22922,0.0073 -0.34593,0.01034 -0.31685,0.0073 -0.6383,0.01225 -0.96969,0.01225 -0.33139,0 -0.65284,-0.005 -0.96969,-0.01225 -0.11633,-0.0027 -0.23113,-0.0065 -0.34593,-0.01034 -0.14044,-0.0042 -0.27744,-0.01034 -0.41444,-0.01606 -2.68481,-0.118632 -4.80366,-0.501681 -6.15717,-0.919942 v 0 c -1.04048,-0.321443 -1.6275,-0.66317 -1.6738,-0.921855 0.0597,-0.570178 3.25117,-1.563592 9.56103,-1.563592 z m -9.56677,4.207846 v -1.58457 c 0.30575,0.192484 0.69301,0.36813 1.14801,0.526557 v 1.83223 c -0.74429,-0.27897 -1.14725,-0.5587 -1.14801,-0.774145 z m 1.85366,5.295782 c 0.006,0.0061 0.0145,0.01149 0.0203,0.01761 0.52388,0.528853 1.60875,0.944433 2.9592,1.254395 0.031,0.0073 0.0639,0.01417 0.0953,0.02144 0.0991,0.0222 0.19976,0.04401 0.30155,0.06505 1.24023,0.264043 2.72079,0.454996 4.33375,0.549513 0.001,0 0.002,4.62e-4 0.003,4.62e-4 9.3e-4,0 0.001,-4.62e-4 0.002,-4.62e-4 0.51814,0.03024 1.04814,0.05128 1.58923,0.06047 0.23956,0.005 0.47528,0.008 0.70565,0.008 0.26404,0 0.53497,-0.0031 0.8105,-0.0096 0.50053,-0.01034 0.99379,-0.03099 1.48017,-0.05931 0.002,0 0.003,0.0014 0.005,0.0014 0.003,0 0.006,-0.0018 0.01,-0.0018 1.61716,-0.09528 3.13446,-0.288149 4.41755,-0.565588 -0.27782,0.145416 -0.65819,0.295808 -1.13194,0.442369 v 0 c -1.42928,0.441602 -3.71191,0.843791 -6.61294,0.937161 -0.0861,0.0027 -0.17105,0.0057 -0.2583,0.008 -0.0937,0.0023 -0.18904,0.0038 -0.28432,0.0057 -0.2407,0.0038 -0.48293,0.0073 -0.73167,0.0073 -0.33139,0 -0.65284,-0.005 -0.96969,-0.01225 -0.11633,-0.0027 -0.23113,-0.0065 -0.34593,-0.01032 -0.14044,-0.0042 -0.27744,-0.01034 -0.41444,-0.01608 -2.68482,-0.118627 -4.80366,-0.501679 -6.15717,-0.919942 v 0 c -1.05235,-0.325269 -1.64128,-0.671205 -1.67533,-0.931037 0.0425,-0.143884 0.42935,-0.503977 1.84944,-0.852209 z m -1.85366,3.50565 v -1.58464 c 0.30575,0.192485 0.69301,0.368129 1.14801,0.526555 v 1.824959 l -0.21851,-0.08495 -0.005,0.0046 c -0.60079,-0.24912 -0.92415,-0.493646 -0.92491,-0.686513 z m 1.14801,4.20938 v -1.584637 c 0.30576,0.19248 0.69302,0.368128 1.14801,0.526553 v 1.832229 c -0.74429,-0.278969 -1.14725,-0.558697 -1.14801,-0.774145 z m 17.98553,0.774145 v -1.831846 c 0.455,-0.158427 0.84226,-0.33407 1.14802,-0.526555 v 1.58349 c -4.7e-4,0.215446 -0.40372,0.495564 -1.14802,0.774911 z m 1.14304,-3.421844 c -0.0417,0.259066 -0.62949,0.602708 -1.67457,0.925683 v 0 c -1.35389,0.418257 -3.47235,0.801311 -6.15717,0.919938 -0.13738,0.0058 -0.27438,0.01149 -0.41443,0.01606 -0.11442,0.0038 -0.22922,0.0073 -0.34594,0.01034 -0.31685,0.0069 -0.63829,0.01186 -0.96969,0.01186 -0.33139,0 -0.65322,-0.005 -0.97045,-0.01223 -0.11518,-0.0027 -0.22884,-0.0065 -0.34249,-0.01034 -0.14121,-0.0046 -0.27897,-0.01031 -0.41711,-0.01606 -2.68482,-0.118628 -4.80329,-0.501681 -6.15718,-0.919942 v 0 c -1.01216,-0.31264 -1.59688,-0.644797 -1.67036,-0.901189 0.11404,0.0398 0.23229,0.07845 0.35359,0.116332 0.0122,0.0038 0.0245,0.0077 0.0367,0.01108 0.10332,0.03176 0.20894,0.06238 0.31723,0.09222 0.041,0.01147 0.0823,0.02296 0.12399,0.03406 0.0612,0.01645 0.12399,0.03214 0.18674,0.04822 1.39369,0.357031 3.17273,0.609977 5.09335,0.723629 9.2e-4,0 0.001,4.62e-4 0.002,4.62e-4 4.6e-4,0 9.2e-4,-4.62e-4 0.001,-4.62e-4 0.59314,0.03521 1.19891,0.05702 1.81118,0.06429 0.16302,0.0031 0.32489,0.0046 0.4837,0.0046 0.21085,0 0.42668,-0.0027 0.64518,-0.0065 0.55832,-0.0092 1.10937,-0.02985 1.64817,-0.06199 0.001,0 0.002,9.23e-4 0.003,9.23e-4 0.002,0 0.003,-0.0014 0.005,-0.0014 0.65628,-0.03942 1.29151,-0.09567 1.90187,-0.165698 0.002,0 0.004,0.0014 0.007,0.0014 0.008,0 0.0153,-0.0042 0.0237,-0.005 0.67962,-0.07845 1.32403,-0.17488 1.92215,-0.287002 0.12322,-0.02257 0.24453,-0.04592 0.36469,-0.07003 0.0268,-0.0054 0.0536,-0.01071 0.0804,-0.01645 1.13003,-0.231898 2.10813,-0.532296 2.77934,-0.904633 0.0367,-0.01989 0.0712,-0.04057 0.106,-0.06085 0.0425,-0.02526 0.083,-0.0509 0.12245,-0.07692 0.0367,-0.02372 0.0792,-0.04668 0.11289,-0.07079 0.75539,0.269402 0.96356,0.510485 0.98844,0.606532 z m 0.005,-4.996917 v -1.831846 c 0.45499,-0.158425 0.84226,-0.334073 1.14801,-0.526555 v 1.583492 c -4.6e-4,0.215446 -0.40372,0.495557 -1.14801,0.774909 z"
   id="path13600"
   style="fill:#fa741c;fill-opacity:1;stroke:none;stroke-width:0.382673;stroke-opacity:1" /><path
   id="path13600-6"
   style="fill:#fa741c;fill-opacity:1;stroke:none;stroke-width:0.382673;stroke-opacity:1"
   d="m 138.28942,58.259953 c 0.006,0.0073 0.0119,0.01408 0.0176,0.02148 m 0,0 c 0.88999,-0.05015 1.86255,-0.08008 2.93164,-0.08008 6.30986,0 9.50085,0.99232 9.56055,1.5625 -0.0463,0.258685 -0.63334,0.60043 -1.67383,0.921875 -1.3535,0.418259 -3.47338,0.801292 -6.1582,0.919922 -0.13699,0.0057 -0.27363,0.01143 -0.41407,0.01563 -0.1148,0.0038 -0.22936,0.009 -0.3457,0.01172 -0.31685,0.0072 -0.63736,0.01172 -0.96875,0.01172 -0.3314,0 -0.65385,-0.0044 -0.9707,-0.01172 -0.11672,-0.003 -0.23129,-0.0079 -0.3457,-0.01172 -0.14006,-0.0046 -0.27669,-0.0098 -0.41407,-0.01563 -2.68482,-0.11863 -4.80431,-0.501663 -6.1582,-0.919922 -1.0401,-0.321445 -1.62753,-0.66319 -1.67383,-0.921875 0.0486,-0.464108 2.17399,-1.207803 6.36524,-1.46875 m 0,0 c -0.008,-0.0083 -0.017,-0.01706 -0.0254,-0.02539 m -0.51539,-0.691354 c -2.93743,0.217549 -6.5027,0.767391 -6.58789,2.154297 h -0.008 v 2.675781 c 4e-4,0.123985 0.0316,0.244571 0.084,0.359375 -1.55747,0.390323 -2.3371,0.901889 -2.375,1.556641 h -0.004 V 67 c 0.002,0.72057 0.92308,1.286514 2.29687,1.708984 v 2.501954 c 0,0.11901 0.026,0.233154 0.0742,0.34375 -0.78983,0.327184 -1.19,0.718346 -1.2168,1.1875 h -0.006 v 2.677734 c 0.003,1.273149 2.86854,2.062747 6.05274,2.43164 0.0233,0.0046 0.0454,0.01563 0.0703,0.01563 0.007,0 0.0125,-0.0039 0.0195,-0.0039 0.61381,0.06965 1.23822,0.121506 1.85547,0.160157 0.013,0.0012 0.0237,0.0078 0.0371,0.0078 0.007,0 0.0145,-0.0034 0.0215,-0.0039 0.78371,0.04783 1.55406,0.07227 2.27539,0.07227 0.72133,0 1.49168,-0.02482 2.27539,-0.07227 0.007,4e-4 0.0145,0.0059 0.0215,0.0059 0.0134,0 0.0241,-0.0062 0.0371,-0.0078 0.61725,-0.03865 1.24166,-0.09284 1.85547,-0.16211 0.007,4e-4 0.0125,0.0039 0.0195,0.0039 0.0248,-10e-7 0.047,-0.0091 0.0703,-0.01367 3.1842,-0.368897 6.04974,-1.158878 6.05274,-2.431641 v -2.628906 -0.05078 h -0.006 c -0.005,-0.08113 -0.0225,-0.160602 -0.0508,-0.238282 0.74698,-0.357797 1.20408,-0.786696 1.20508,-1.292968 v -2.628907 -0.04883 h -0.004 c -0.0371,-0.644035 -0.78907,-1.147891 -2.29297,-1.535156 v -2.625 -0.04883 h -0.006 c -0.004,-0.06582 -0.0161,-0.131783 -0.0352,-0.195313 1.39598,-0.423617 2.33589,-0.991678 2.33789,-1.71875 V 59.7813 59.73247 h -0.008 c -0.137,-2.230207 -9.27456,-2.296875 -10.32422,-2.296875 l 5.1e-4,-4.8e-5 m -3.22258,0.833984 c 0.007,0.0025 0.0113,0.0045 0.0195,0.0078 m 0,0 c 0.003,-1.79e-4 0.006,-0.0019 0.01,-0.002 m 0,0 c -0.0103,-0.0024 -0.0184,-0.01002 -0.0273,-0.01563 m 0,0 c -0.006,-0.0035 -0.009,-0.01107 -0.0156,-0.01172 m 0,0 c -0.004,-3.68e-4 -4.3e-4,0.0071 0.002,0.0098 m 0,0 c 0.004,0.004 0.008,0.0078 0.0117,0.01172 m 0,0 -3e-4,3e-5 m 0.27344,-0.0098 c -0.003,-0.0037 -0.005,-0.008 -0.008,-0.01172 m 0,0 c -0.002,-0.0032 -0.007,-0.0056 -0.01,-0.0078 m 0,0 c -0.004,-0.0024 -0.0135,-0.0098 -0.0117,-0.0059 m 0,0 c 0.005,0.01149 0.0161,0.02089 0.0234,0.03125 m 0,0 c -2.2e-4,0.0059 -9.4e-4,0.01159 -0.002,0.01758 m 0,0 c 0.004,-2.18e-4 0.008,2.17e-4 0.0117,0 m 0,0 c -6.8e-4,-0.008 -0.003,-0.01548 -0.004,-0.02344 m 0,0 6e-4,3e-5 m -0.2131,-0.0039 c -7.3e-4,0.0043 -0.004,0.01346 -0.004,0.01953 m 0,0 c -2.3e-4,0.0049 -5.8e-4,0.0088 0,0.01172 m 0,0 c 3.4e-4,0.002 0.001,0.0038 0.002,0.0059 m 0,0 c 0.002,-1.16e-4 0.004,1.16e-4 0.006,0 m 0,0 c -6.6e-4,-0.0065 -0.001,-0.013 -0.002,-0.01953 m 0,0 c -6.8e-4,-0.0055 -9.9e-4,-0.01206 -0.002,-0.01758 m 0,0 v -4e-5 m -6.40625,2.56836 c 0.30576,0.192485 0.69344,0.366964 1.14844,0.52539 v 1.820313 c -0.39798,-0.153832 -0.7081,-0.311473 -0.91016,-0.46875 l -0.13867,-0.109375 -0.0117,0.002 c -0.057,-0.0662 -0.0879,-0.12933 -0.0879,-0.1875 z m 19.13477,0 v 1.583984 c -7.7e-4,0.215445 -0.40414,0.494469 -1.14844,0.773438 v -1.832032 c 0.455,-0.158424 0.84269,-0.332903 1.14844,-0.52539 z m -17.22071,0.759765 c 0.35741,0.09643 0.74204,0.185645 1.14844,0.265625 v 1.863282 c -0.41902,-0.08954 -0.80557,-0.183324 -1.14844,-0.283203 z m 15.30664,0 v 1.84961 c -0.13239,0.03789 -0.26941,0.07616 -0.41406,0.113281 -0.1898,0.04936 -0.38821,0.09586 -0.59179,0.140625 -0.0459,0.01 -0.0955,0.0194 -0.14258,0.0293 v -1.867188 c 0.4064,-0.07998 0.79103,-0.169195 1.14843,-0.265625 z m -13.39257,0.400391 c 0.37043,0.06008 0.75195,0.114659 1.14648,0.162109 v 1.890625 c -0.40333,-0.05281 -0.78371,-0.111491 -1.14648,-0.175781 z m 11.47851,0.002 v 1.878906 c -0.0417,0.0073 -0.0825,0.01418 -0.125,0.02148 -0.212,0.03559 -0.42724,0.0698 -0.64844,0.101562 -0.0482,0.0069 -0.0955,0.01458 -0.14453,0.02148 -0.075,0.01034 -0.15271,0.01734 -0.22851,0.02734 v -1.890625 c 0.39453,-0.04707 0.77605,-0.100456 1.14648,-0.160156 z m -9.5664,0.242188 c 0.37654,0.03635 0.7604,0.06811 1.14843,0.09375 v 1.90625 c -0.39568,-0.02832 -0.77877,-0.06253 -1.14843,-0.101563 z m 7.65429,0 v 1.90039 c -0.37426,0.03941 -0.75887,0.06973 -1.14843,0.09766 v -1.904296 c 0.38803,-0.02564 0.77188,-0.0574 1.14843,-0.09375 z m -5.74023,0.136718 c 0.38344,0.01761 0.76896,0.02981 1.1543,0.03711 0.0203,4.77e-4 0.0402,0.0015 0.0605,0.002 0.10523,0.0019 0.21118,0.0025 0.31641,0.0039 v 1.912109 c -0.13814,-0.0015 -0.27783,-0.0032 -0.41406,-0.0059 -0.0413,-0.0011 -0.0837,-5.53e-4 -0.125,-0.002 -0.26519,-0.0061 -0.52644,-0.01392 -0.78321,-0.02539 -0.006,-4.62e-4 -0.0106,-0.0015 -0.0156,-0.002 -0.0654,-0.003 -0.12836,-0.0067 -0.19336,-0.0098 z m 3.82617,0 v 1.910157 c -0.5036,0.02525 -1.01618,0.03797 -1.53125,0.04297 v -1.910156 c 0.10523,-0.0012 0.21118,-0.0021 0.31641,-0.0039 0.0202,-4.61e-4 0.0402,-0.002 0.0605,-0.002 0.38535,-0.0069 0.77086,-0.01913 1.1543,-0.03711 z m -11.56445,1.046875 c 0.023,0.01531 0.0521,0.0296 0.0762,0.04492 0.0425,0.02717 0.0889,0.05368 0.13477,0.08008 0.0402,0.02296 0.0782,0.04579 0.12109,0.06836 0.0949,0.0509 0.19673,0.100607 0.30273,0.148437 0.0279,0.01263 0.0572,0.02447 0.0859,0.03711 0.0995,0.04324 0.2042,0.086 0.3125,0.126953 0.0222,0.0084 0.0423,0.01699 0.0645,0.02539 0.12819,0.04745 0.26186,0.09233 0.40039,0.136719 0.0471,0.01493 0.0959,0.02999 0.14454,0.04492 0.0796,0.02411 0.16144,0.04893 0.24414,0.07227 1.7932,0.512397 4.3699,0.841905 7.15039,0.884765 0.20779,0.0038 0.41237,0.0059 0.61328,0.0059 0.28126,0 0.57096,-0.0025 0.86523,-0.0098 0.48064,-0.01071 0.95506,-0.03104 1.42383,-0.05859 h 0.008 c 0.005,0 0.009,-0.002 0.0137,-0.002 0.6513,-0.03865 1.28497,-0.09246 1.89648,-0.162109 h 0.004 c 0.003,0 0.005,-0.002 0.008,-0.002 0.89775,-0.102552 1.73964,-0.236608 2.5,-0.400391 0.15613,-0.03291 0.30935,-0.06793 0.45898,-0.103516 0.0264,-0.0065 0.056,-0.01108 0.082,-0.01758 0.005,0.0092 0.004,0.01418 0.006,0.02148 -0.0436,0.258685 -0.63105,0.601617 -1.67383,0.923828 -1.35351,0.418257 -3.47142,0.801292 -6.15624,0.919922 -0.137,0.0057 -0.27363,0.01338 -0.41407,0.01758 -0.1148,0.0038 -0.23132,0.0071 -0.34765,0.0098 -0.31686,0.0072 -0.63736,0.01172 -0.96875,0.01172 -0.33139,0 -0.65386,-0.0048 -0.97071,-0.01172 -0.11671,-0.003 -0.23129,-0.006 -0.3457,-0.0098 -0.14006,-0.0046 -0.27668,-0.0098 -0.41406,-0.01563 -2.68481,-0.118627 -4.80236,-0.501661 -6.15625,-0.919922 -1.0512,-0.324888 -1.64058,-0.671809 -1.67578,-0.931641 0.0436,-0.158424 0.49381,-0.563974 2.20703,-0.935547 z m -2.21094,2.003907 c 0.30575,0.192482 0.69344,0.368918 1.14844,0.527343 v 1.832032 C 129.77914,67.496042 129.37546,67.215445 129.375,67 Z m 19.13281,0 V 67 c -0.001,0.01186 -0.004,0.02525 -0.006,0.03711 l -0.0254,0.04297 c -0.12628,0.211234 -0.51562,0.447409 -1.11718,0.679688 v -1.81836 h 0.002 c 0.455,-0.158427 0.84072,-0.332905 1.14648,-0.52539 z m -17.2207,0.759765 c 0.35741,0.09643 0.74205,0.185645 1.14844,0.265625 v 1.867188 c -0.0299,-0.0065 -0.0603,-0.01303 -0.0899,-0.01953 -0.0995,-0.02143 -0.19767,-0.04421 -0.29297,-0.06641 -0.20588,-0.0486 -0.40708,-0.0972 -0.59765,-0.15039 -0.0566,-0.01569 -0.11287,-0.03158 -0.16797,-0.04687 z m 15.30859,0 v 1.841797 c -0.34173,0.100261 -0.72558,0.19642 -1.14843,0.28711 v -1.863282 c 0.40639,-0.0796 0.79101,-0.169195 1.14843,-0.265625 z m -13.39453,0.402344 c 0.37043,0.06008 0.7539,0.112706 1.14844,0.160156 v 1.890625 c -0.0984,-0.01263 -0.20008,-0.02333 -0.29688,-0.03711 -0.10256,-0.01454 -0.20478,-0.02962 -0.30468,-0.04492 -0.17411,-0.02641 -0.34372,-0.0549 -0.51172,-0.08398 -0.0119,-0.0019 -0.023,-0.0036 -0.0352,-0.0059 z m 11.48047,0 v 1.876953 c -0.14427,0.02525 -0.28596,0.05011 -0.4375,0.07422 -0.009,0.0012 -0.0183,0.0041 -0.0273,0.0059 -0.22003,0.03444 -0.44941,0.0647 -0.6836,0.0957 v -1.892578 c 0.39453,-0.04745 0.77802,-0.100076 1.14844,-0.160156 z m -9.56641,0.244141 c 0.37655,0.03674 0.75846,0.06616 1.14649,0.0918 v 1.904297 c -0.14465,-0.01033 -0.29086,-0.01744 -0.4336,-0.0293 -0.0138,-0.0011 -0.0272,-0.0025 -0.041,-0.0039 -0.22845,-0.01913 -0.44955,-0.04111 -0.67188,-0.06445 z m 7.65235,0 v 1.90039 c -0.0103,7e-4 -0.019,5.53e-4 -0.0293,0.002 -0.0498,0.005 -0.10029,0.01063 -0.15039,0.01563 -0.23343,0.02335 -0.47384,0.04532 -0.71875,0.06445 -0.0513,0.0038 -0.1026,0.006 -0.1543,0.0098 v 0.002 c -0.031,0.0023 -0.0647,0.0036 -0.0957,0.0059 v -1.908204 c 0.38803,-0.02564 0.77189,-0.05545 1.14844,-0.0918 z m -5.74024,0.134765 c 0.38343,0.01761 0.76895,0.02981 1.1543,0.03711 0.0202,4.76e-4 0.0403,0.0015 0.0606,0.002 0.10524,0.0019 0.21116,0.0025 0.3164,0.0039 v 1.910156 c -0.51661,-0.0054 -1.02843,-0.01809 -1.53125,-0.04297 z m 3.82813,0 v 1.91211 c -0.0146,2e-4 -0.03,10e-4 -0.0449,0.002 -0.27629,0.01339 -0.55794,0.02395 -0.84571,0.03125 -0.028,4e-4 -0.0561,0.001 -0.084,0.002 -0.18177,0.0042 -0.37028,0.006 -0.55664,0.0078 V 67 c 0.10524,-0.0012 0.21116,-0.0021 0.3164,-0.0039 0.0199,-4.77e-4 0.0402,-0.0015 0.0605,-0.002 0.38535,-0.0069 0.77087,-0.01913 1.1543,-0.03711 z m 8.09375,0.748047 h 0.002 c 1.41846,0.34808 1.80518,0.707744 1.84766,0.851563 -0.0341,0.259832 -0.62343,0.606371 -1.67578,0.93164 -1.35351,0.418263 -3.47143,0.801295 -6.15625,0.919922 -0.13699,0.0057 -0.27363,0.01143 -0.41407,0.01563 -0.1148,0.0038 -0.22937,0.0071 -0.3457,0.0098 -0.31686,0.0072 -0.63931,0.01367 -0.9707,0.01367 -0.24874,0 -0.49172,-0.004 -0.73242,-0.0078 -0.0953,-0.002 -0.18951,-0.0036 -0.28321,-0.0059 -0.0872,-0.0023 -0.17171,-0.0051 -0.25781,-0.0078 -2.90102,-0.09337 -5.18401,-0.495897 -6.61328,-0.9375 -0.47375,-0.14656 -0.85499,-0.297941 -1.13281,-0.443359 1.28309,0.277439 2.8008,0.471126 4.41797,0.566406 0.004,0 0.007,0.002 0.01,0.002 0.002,0 0.004,-0.002 0.006,-0.002 0.48637,0.02831 0.97994,0.05021 1.48047,0.06055 0.27552,0.0065 0.54651,0.0078 0.81055,0.0078 0.23037,-10e-7 0.46552,-0.0028 0.70507,-0.0078 0.5411,-0.0092 1.07171,-0.03032 1.58985,-0.06055 l 0.002,0.002 0.002,-0.002 c 1.61296,-0.09452 3.09375,-0.284782 4.33399,-0.548828 0.10179,-0.02104 0.20168,-0.04225 0.30078,-0.06445 0.0314,-0.0073 0.0647,-0.01418 0.0957,-0.02148 1.35044,-0.309964 2.43512,-0.725055 2.95899,-1.253906 0.005,-0.0058 0.0136,-0.01188 0.0195,-0.01758 z M 131.66992,69.625 c 0.30576,0.192485 0.69344,0.368917 1.14844,0.527344 v 1.824218 c -0.44046,-0.172201 -0.77566,-0.350167 -0.97656,-0.527343 l -0.13086,-0.115235 c -0.0268,-0.04363 -0.041,-0.08558 -0.041,-0.125 z m 19.13477,0 v 1.583984 c -7.7e-4,0.192867 -0.32498,0.438379 -0.92578,0.6875 l -0.004,-0.0039 -0.21875,0.08398 v -1.824218 c 0.455,-0.158424 0.84269,-0.334859 1.14844,-0.527344 z m -17.22071,0.759766 c 0.35741,0.09643 0.74204,0.185645 1.14844,0.265625 v 1.867187 c -0.42323,-0.08993 -0.80749,-0.184853 -1.14844,-0.283203 z m 15.30664,0.002 v 1.847656 c -0.0126,0.0034 -0.0245,0.0079 -0.0371,0.01172 -0.0455,0.01339 -0.0939,0.02565 -0.14063,0.03906 -0.29505,0.08036 -0.61941,0.157802 -0.9707,0.232422 v -1.867187 c 0.4064,-0.07998 0.79103,-0.167242 1.14843,-0.263671 z m -13.39257,0.40039 c 0.37043,0.06008 0.75195,0.112707 1.14648,0.160157 v 1.894531 c -0.40448,-0.05281 -0.786,-0.112261 -1.14648,-0.175781 z m 11.47851,0 v 1.878907 c -0.36048,0.06352 -0.742,0.122591 -1.14648,0.175781 v -1.894531 c 0.39453,-0.04707 0.77605,-0.100077 1.14648,-0.160157 z m -9.5664,0.244141 c 0.37654,0.03674 0.7604,0.06616 1.14843,0.0918 V 73.0313 c -0.0857,-0.0061 -0.1697,-0.01108 -0.2539,-0.01758 -0.0555,-0.0042 -0.11247,-0.0087 -0.16797,-0.01367 -0.24836,-0.02028 -0.49007,-0.04349 -0.72656,-0.06836 z m 7.65429,0 v 1.900391 c -0.0276,0.0027 -0.0544,0.0051 -0.082,0.0078 -0.0386,0.0038 -0.0782,0.0079 -0.11719,0.01172 -0.31035,0.03023 -0.62776,0.05712 -0.94921,0.08008 V 71.125 c 0.38803,-0.02564 0.77188,-0.0574 1.14843,-0.09375 z m -5.74023,0.134766 c 0.38343,0.01761 0.76896,0.02981 1.1543,0.03711 0.0203,4.77e-4 0.0402,0.0015 0.0605,0.002 0.10523,0.0019 0.20923,0.0025 0.31446,0.0039 v 1.91211 c -0.13852,-0.0012 -0.27745,-0.0032 -0.41407,-0.0059 -0.0563,-0.0011 -0.11207,-3.53e-4 -0.16797,-0.002 -0.23688,-0.0058 -0.4708,-0.01505 -0.70117,-0.02539 -0.083,-0.0035 -0.16419,-0.0056 -0.24609,-0.0098 z m 3.82617,0.002 v 1.910156 c -0.2055,0.01 -0.41253,0.01849 -0.62109,0.02539 -0.0214,7e-4 -0.0431,10e-4 -0.0645,0.002 -0.17335,0.0054 -0.34817,0.0086 -0.52343,0.01172 v 0.002 c -0.0333,5e-4 -0.0659,0.001 -0.0996,0.002 -0.0739,8.77e-4 -0.14846,10e-4 -0.22266,0.002 V 71.21122 c 0.10523,-0.0012 0.21118,-0.0041 0.31641,-0.0059 0.0199,-4.76e-4 0.0402,-0.0015 0.0605,-0.002 0.38535,-0.0069 0.77086,-0.01718 1.1543,-0.03516 z m -11.63477,0.998047 c 0.0337,0.0241 0.0766,0.04659 0.11329,0.07031 0.0395,0.02602 0.0786,0.05091 0.12109,0.07617 0.0348,0.02029 0.0707,0.04066 0.10742,0.06055 0.6712,0.372339 1.64928,0.672398 2.7793,0.904297 0.0268,0.0057 0.0533,0.01218 0.0801,0.01758 0.12016,0.02411 0.24201,0.04774 0.36523,0.07031 0.59812,0.112119 1.24225,0.20866 1.92188,0.28711 0.008,8e-4 0.0154,0.0039 0.0234,0.0039 h 0.008 c 0.61036,0.07003 1.24411,0.124642 1.90039,0.164062 0.002,1e-6 0.004,0.002 0.006,0.002 h 0.002 c 0.5388,0.03214 1.09013,0.05135 1.64844,0.06055 0.21851,0.0038 0.43562,0.0078 0.64648,0.0078 0.15881,0 0.31941,-0.0028 0.48242,-0.0059 0.61228,-0.0073 1.21937,-0.02925 1.8125,-0.06445 h 0.002 c 1.92062,-0.113652 3.70006,-0.365626 5.09375,-0.722656 0.0628,-0.01608 0.12434,-0.03238 0.18554,-0.04883 0.0417,-0.0111 0.084,-0.02171 0.125,-0.0332 0.10829,-0.02984 0.21309,-0.06003 0.31641,-0.0918 0.0122,-0.0034 0.0249,-0.0079 0.0371,-0.01172 0.12131,-0.03788 0.23948,-0.07739 0.35351,-0.117187 -0.0735,0.256392 -0.65775,0.589704 -1.66992,0.902344 -1.35389,0.418261 -3.47143,0.801294 -6.15625,0.919922 -0.13815,0.0058 -0.27676,0.01103 -0.41797,0.01562 -0.11365,0.0038 -0.22661,0.0071 -0.34179,0.0098 -0.31724,0.0072 -0.63932,0.01367 -0.97071,0.01367 -0.33139,0 -0.65384,-0.0068 -0.9707,-0.01367 -0.11671,-0.003 -0.23128,-0.006 -0.3457,-0.0098 -0.14006,-0.0046 -0.27669,-0.0099 -0.41406,-0.01562 -2.68483,-0.118629 -4.80432,-0.501665 -6.15821,-0.919922 -1.04507,-0.322975 -1.63213,-0.666714 -1.67383,-0.925782 0.0249,-0.09605 0.23289,-0.336069 0.98828,-0.605468 z m -0.99218,1.667968 c 0.30575,0.192482 0.69148,0.368917 1.14648,0.527344 v 1.832031 c -0.74429,-0.27935 -1.14602,-0.559947 -1.14648,-0.77539 z m 19.13281,0 v 1.585938 c -7.6e-4,0.215443 -0.40414,0.49447 -1.14844,0.773437 v -1.832031 c 0.455,-0.158426 0.84269,-0.334859 1.14844,-0.527344 z m -17.2207,0.761719 c 0.35742,0.09643 0.74203,0.183692 1.14843,0.263672 v 1.867187 c -0.42324,-0.08993 -0.80747,-0.184863 -1.14843,-0.283203 z m 15.30664,0 v 1.847656 c -0.34096,0.09834 -0.72326,0.193274 -1.14649,0.283203 v -1.867187 c 0.40639,-0.07959 0.78908,-0.167242 1.14649,-0.263672 z m -13.39258,0.400391 c 0.37042,0.06008 0.75391,0.114659 1.14844,0.162109 v 1.892578 c -0.40448,-0.05319 -0.78796,-0.112261 -1.14844,-0.175781 z m 11.48047,0 V 76.875 c -0.36048,0.06352 -0.74395,0.122591 -1.14844,0.175781 v -1.892578 c 0.39454,-0.04745 0.77801,-0.102029 1.14844,-0.162109 z m -9.56836,0.24414 c 0.37655,0.03636 0.76041,0.06654 1.14844,0.0918 v 1.908203 c -0.3976,-0.02793 -0.78069,-0.06096 -1.14844,-0.09961 z m 7.6543,0 v 1.900391 c -0.36774,0.03865 -0.75085,0.07362 -1.14844,0.101563 v -1.908204 c 0.38803,-0.02564 0.77189,-0.0574 1.14844,-0.09375 z m -5.74024,0.136719 c 0.38343,0.01761 0.76894,0.02981 1.1543,0.03711 v -0.002 c 0.0202,4.61e-4 0.0402,0.002 0.0605,0.002 0.10524,0.0019 0.21118,0.0025 0.31641,0.0039 v 1.914062 c -0.52885,-0.005 -1.0399,-0.02081 -1.53125,-0.04492 z m 3.82617,0 v 1.910156 c -0.49135,0.02411 -1.00044,0.03992 -1.52929,0.04492 v -1.912109 c 0.10524,-0.0012 0.20921,-0.0041 0.31445,-0.0059 0.0202,-4.61e-4 0.0402,0 0.0605,0 0.38535,-0.0069 0.77085,-0.01911 1.15429,-0.03711 z"
   sodipodi:nodetypes="cccscccccscccccccccccccccccscccccsccscscsccscccccccccccccccccccccccccccccccccccccccccccccccccccccccccccccccccccccccscccccccccccccccccscccccccccscccsccccccccccsccccccccccccccccccccccccccscccccsccsccscccccscccscccccccccccccccccccsccccccccccccccccccccccccccccccccccccccccccccccccccccccccccccccccsccccccccsccccccsccscccccccccccccccsccccccccccccccccccccccccccccccccccccccccsccccccccccsccccccsccccccccccccccccccsccsccscccscccccccccscccccccccccccccccccccccccccccccccccccccccccccccccccccccccccccccc" /><path
   d="m 138.55167,39.446523 c 0.32057,-0.201179 0.58885,-0.397803 0.97827,-0.507542 l 2.67564,0.09011 2.3e-4,0.0065 c 2.22433,0.211985 1.98253,9.347968 1.9472,10.397041 -0.0353,1.049068 -0.40869,10.180625 -2.64225,10.242484 l 2.3e-4,0.0065 -0.0497,-0.0017 v 0 0 l -2.62707,-0.08847 c -0.7266,-0.02631 -1.26373,-0.983313 -1.64013,-2.39276 -1.04441,-4.208727 -0.63019,-8.530837 1.27892,-17.684355 m 0,0 c 0.0184,-0.01199 0.037,-0.0238 0.0555,-0.03548 m -0.62712,17.400965 1.84759,0.06222 c -0.0843,-0.360468 -0.15937,-0.747408 -0.22612,-1.156169 l -1.86676,-0.06287 c 0.008,0.04737 0.0165,0.09631 0.0255,0.142439 0.0375,0.205043 0.0779,0.405031 0.12116,0.596329 0.0322,0.145823 0.0655,0.284396 0.0989,0.418001 z m 1.26323,-6.91649 c 0.002,-0.105234 0.004,-0.210469 0.006,-0.315672 l -1.90959,-0.06431 c -0.0124,0.514952 -0.0162,1.027124 -0.008,1.531286 l 1.90807,0.06426 c -0.005,-0.383835 -0.004,-0.769354 0.002,-1.154716 0.001,-0.02037 0.001,-0.04064 0.001,-0.06086 z m 0.0504,-1.456721 c 0.0203,-0.384889 0.0451,-0.769619 0.0756,-1.152245 l -1.90807,-0.06426 c -0.005,0.06492 -0.0119,0.127098 -0.0172,0.192385 -0.001,0.0054 -9.8e-4,0.01075 -0.002,0.01649 -0.0201,0.25624 -0.0373,0.517553 -0.0524,0.782389 -0.003,0.04125 -0.004,0.08257 -0.007,0.123829 -0.007,0.136061 -0.0124,0.275271 -0.0185,0.413284 l 1.91031,0.06433 c 0.005,-0.10512 0.01,-0.210256 0.0152,-0.315371 l 0.003,-0.06076 z m 0.1015,-8.72145 0.002,0.01081 -0.11292,0.135568 c -0.16399,0.196644 -0.33353,0.501456 -0.50068,0.89403 l 1.81933,0.06127 c 0.17366,-0.449408 0.36223,-0.830539 0.5649,-1.129642 l -1.58259,-0.0533 c -0.0581,-0.002 -0.12188,0.02657 -0.18998,0.08128 z m -1.60634,4.835768 1.88932,0.06362 c 0.0607,-0.392712 0.12753,-0.773729 0.20004,-1.141927 l -1.87479,-0.06314 c -0.0765,0.360404 -0.14822,0.740111 -0.21457,1.141439 z m 0.38757,-1.901385 1.86364,0.06276 c 0.0936,-0.403475 0.19451,-0.784496 0.30291,-1.138464 l -1.84343,-0.06208 c -0.11135,0.339318 -0.21958,0.722008 -0.32318,1.137782 z m 1.39338,2.727137 -1.89697,-0.06388 c -0.0515,0.368137 -0.0984,0.749446 -0.13998,1.14395 l 1.90532,0.06416 c 0.0387,-0.386949 0.0826,-0.769122 0.13157,-1.144233 z m -2.15533,7.585176 1.89767,0.06391 c -0.0237,-0.377561 -0.0417,-0.761822 -0.0543,-1.150495 l -1.90385,-0.06412 c 0.0148,0.390283 0.0336,0.775334 0.0604,1.150702 z m 1.9546,0.831598 -1.88971,-0.06364 c 0.008,0.07604 0.0127,0.155127 0.0206,0.230417 0.005,0.04915 0.0114,0.096 0.0162,0.144514 0.0243,0.222123 0.051,0.439361 0.0795,0.652429 0.006,0.04263 0.0121,0.08388 0.0182,0.125776 l 1.87784,0.06324 c -0.0472,-0.37223 -0.0886,-0.756894 -0.1224,-1.15278 z m -2.29637,2.597521 c 0.008,-0.0016 0.0135,-0.0014 0.0227,-0.0057 -0.006,-0.02624 -0.01,-0.05547 -0.0156,-0.08208 -0.0301,-0.15082 -0.0598,-0.305252 -0.0872,-0.462458 -0.1385,-0.765369 -0.24402,-1.612122 -0.31626,-2.51282 1.1e-4,-0.0031 -0.001,-0.0055 -0.001,-0.0081 3e-5,-10e-4 6.3e-4,-0.0015 6e-4,-0.0017 -0.25572,-3.876421 -0.12612,-8.162263 1.06085,-11.943696 0.0261,-0.08182 0.0529,-0.16171 0.0797,-0.24045 0.0166,-0.04807 0.0328,-0.0973 0.0492,-0.143836 0.049,-0.136957 0.099,-0.268136 0.15075,-0.394658 0.009,-0.0219 0.0183,-0.04266 0.0275,-0.06455 0.0446,-0.106857 0.0905,-0.209455 0.13709,-0.307437 0.0136,-0.02826 0.0268,-0.0573 0.0404,-0.08478 0.0514,-0.10433 0.10378,-0.205179 0.15783,-0.298314 0.024,-0.04207 0.0486,-0.07839 0.0729,-0.117776 0.028,-0.04501 0.0563,-0.09001 0.0848,-0.131538 0.0161,-0.02357 0.0317,-0.05179 0.0477,-0.07421 m 4.88337,9.820053 c 0.21237,-6.306286 -0.67306,-9.529391 -1.24091,-9.608243 -0.26009,0.03757 -0.6214,0.613139 -0.97767,1.641827 v 0 c -0.46359,1.339045 -0.91773,3.443419 -1.12666,6.122725 -0.0103,0.137098 -0.0207,0.273834 -0.03,0.413659 -0.008,0.114227 -0.015,0.228853 -0.022,0.34539 -0.0179,0.316418 -0.0337,0.637522 -0.0449,0.968724 -0.0111,0.331208 -0.017,0.652635 -0.0204,0.969551 -0.001,0.116366 -0.001,0.231218 -0.001,0.346078 -5e-4,0.140495 0.001,0.277624 0.002,0.414738 0.0282,2.68729 0.33972,4.817831 0.71219,6.184647 v 0 c 0.28623,1.050715 0.60802,1.6489 0.865,1.703883 0.57186,-0.04047 1.67213,-3.196705 1.8845,-9.502991 z m -4.52745,9.41973 1.58367,0.05333 c -0.18208,-0.312059 -0.3446,-0.705013 -0.48761,-1.165087 l -1.83209,-0.06165 c 0.25377,0.753264 0.51979,1.165395 0.73507,1.173421 z"
   id="path13600-6-7-1"
   style="fill:#fa741c;fill-opacity:1;stroke:none;stroke-width:0.382673;stroke-opacity:1"
   sodipodi:nodetypes="ccccsccccccccccccccccccccccccccsccccccccccsccccccsscccccccccccccccccccccccccccccccsccccccsccccccccccccscsscccssccsscsccccsc" /><g
   id="g24480"
   transform="matrix(0.08689666,0,0,0.08689666,70.196178,27.724898)"
   style="fill:#fa741c;fill-opacity:1"><path
     d="m 418.548,231.04 c 0,-21.516 -15.583,-39.449 -36.053,-43.139 -0.799,-25.161 -4.193,-56.219 -14.449,-81.053 -4.364,-10.566 -1.951,-22.746 6.146,-31.029 L 402.04,47.331 c 2.129,-2.178 2.837,-5.377 1.825,-8.25 -1.012,-2.873 -3.568,-4.922 -6.592,-5.285 -2.258,-0.271 -46.536,-5.331 -85.554,8.533 4.797,-7.272 10.846,-15.395 17.931,-22.796 2.216,-2.314 2.837,-5.728 1.578,-8.674 -1.258,-2.946 -4.153,-4.858 -7.357,-4.858 -37.9,0 -74.039,16.88 -96.126,29.783 4.297,-6.938 10.528,-14.579 19.496,-21.423 2.963,-2.261 3.972,-6.269 2.433,-9.663 -1.54,-3.395 -5.22,-5.277 -8.871,-4.538 -33.039,6.679 -65.651,20.116 -73.792,24.254 -25.394,12.91 -46.753,32.574 -61.77,56.866 -15.184,24.563 -23.209,52.824 -23.209,81.728 v 24.93 c -20.369,3.772 -35.848,21.658 -35.848,43.103 0,21.445 15.479,39.331 35.848,43.103 v 32.542 c -0.205,14.839 4.608,29.521 13.557,41.346 l 59.054,78.045 c 18.315,24.205 47.371,38.655 77.723,38.655 30.352,0 59.407,-14.45 77.722,-38.655 l 59.055,-78.045 c 8.773,-11.594 13.461,-25.418 13.557,-40.05 0.003,-0.431 0,-33.839 0,-33.839 20.369,-3.772 35.848,-21.658 35.848,-43.103 z m -356.365,0 c 0,-12.575 8.38,-23.225 19.848,-26.67 v 53.341 C 70.564,254.265 62.183,243.616 62.183,231.04 Z M 366.7,307.947 c -0.073,11.085 -3.64,21.607 -10.315,30.43 l -59.055,78.045 c -15.309,20.231 -39.594,32.309 -64.964,32.309 -25.37,0 -49.655,-12.078 -64.964,-32.309 l -59.054,-78.045 c -6.819,-9.013 -10.483,-20.206 -10.316,-31.517 0,-0.04 0.001,-0.079 0.001,-0.118 L 98.032,163.008 c 0,-25.929 7.199,-51.281 20.819,-73.314 13.473,-21.796 32.634,-39.438 55.411,-51.017 5.171,-2.629 22.354,-9.814 42.942,-16.017 -11.827,16.746 -14.226,31.773 -14.358,32.657 -0.483,3.229 1.044,6.427 3.859,8.081 2.815,1.654 6.353,1.431 8.938,-0.562 0.47,-0.362 42.244,-32.189 89.797,-39.396 -13.022,17.305 -20.449,33.37 -20.843,34.232 -1.492,3.259 -0.633,7.113 2.102,9.431 2.735,2.318 6.678,2.533 9.648,0.528 24.917,-16.819 60.883,-19.158 81.922,-18.871 l -15.518,15.874 c -12.577,12.866 -16.304,31.833 -9.493,48.322 6.132,14.849 13.442,42.16 13.442,87.951 v 0 c 0.001,0 0.003,106.627 0,107.04 z m 16,-50.236 0.001,-53.341 c 11.467,3.446 19.847,14.096 19.847,26.67 0,12.574 -8.38,23.225 -19.848,26.671 z"
     id="path24466"
     style="fill:#fa741c;fill-opacity:1" /><ellipse
     id="circle24468"
     style="fill:#fa741c;fill-opacity:1;stroke-width:10.20752696;stroke-miterlimit:4;stroke-dasharray:none;stroke:#fa741c;stroke-opacity:1"
     ry="4.0872216"
     rx="24.81394"
     cy="249.67"
     cx="154.923" /><ellipse
     cx="309.80899"
     cy="249.67"
     id="circle24470"
     style="fill:#fa741c;fill-opacity:1;stroke:#fa741c;stroke-opacity:1;stroke-width:2.15198145;stroke-miterlimit:4;stroke-dasharray:none"
     rx="14"
     ry="11.769739" /><path
     d="m 299.14174,194.33683 c -3.125,3.124 -20.68479,16.0689 -17.55979,19.1929 3.124,3.124 11.06859,4.35225 13.34061,0.56323 14.43474,-24.07265 18.84082,-23.27614 28.25748,-0.79653 0.85348,2.03746 2.57352,3.13953 4.62152,3.13953 2.048,0 4.095,-0.781 5.657,-2.343 3.125,-3.124 3.125,-8.189 0,-11.313 -22.41668,-21.85345 -20.57382,-22.18613 -34.31682,-8.44313 z"
     id="path24472"
     style="fill:#fa741c;fill-opacity:1"
     sodipodi:nodetypes="ccsssccc" /><path
     d="m 128.93284,208.16817 c -3.124,3.124 -3.125,8.189 0,11.313 3.124,3.125 8.189,3.125 11.313,0 7.505,-7.505 19.718,-7.505 27.222,0 1.562,1.562 3.609,2.343 5.657,2.343 2.048,0 4.095,-0.781 5.657,-2.343 17.83877,-14.6986 -40.66195,-18.67167 -49.849,-11.313 z"
     id="path24474"
     style="fill:#fa741c;fill-opacity:1"
     sodipodi:nodetypes="ccccscc" /><path
     id="path24476"
     style="fill:#fa741c;fill-opacity:1;stroke-width:1"
     d="m 182.77081,149.0079 c -15.979,0 -35.72586,-35.25598 -49.72485,-27.56398 -17.726,9.741 -50.905733,49.88274 -50.905733,70.16474 v 32.84521 c 0.99829,-0.0354 1.99225,-0.0655 2.98592,-0.0811 0.43306,-9e-5 0.86778,-0.0281 1.3,0 1.88114,0.12241 2.71353,0.27071 4.46874,0.50783 1.45688,0.19688 -4.46874,-0.50783 4.38749,0.58906 0.966281,0.11968 1.91153,0.33342 2.86405,0.50783 v -34.36868 c 0,-14.44499 29.988943,-49.22015 42.597943,-56.14915 11.645,-6.398 28.73344,29.5343 42.02644,29.5343 H 293.108 c 13.98699,0 23.89363,-35.58999 35.99363,-28.53899 0.41496,0.24201 0.83471,0.51948 1.27969,0.81255 10.889,7.165 37.50869,42.74356 37.50869,56.09857 v 38.8577 h 0.16255 4.65155 3.02655 2.1125 c 0.12386,0 0.24315,-0.0177 0.36566,0 5.01218,0.73351 -0.95181,-0.10722 2.53905,0.52811 0.39613,0.0718 1.40414,0.0967 0.93433,0.0208 0.73705,-0.077 1.47457,-0.0624 2.21405,-0.0811 v -39.32489 c 10e-4,-18.757 -29.3196,-59.33115 -44.7196,-69.46415 -0.69701,-0.45906 -2.03124,-1.25938 -2.03124,-1.25938 -14.547,-8.47699 -27.22338,26.36555 -44.03737,26.36555 z"
     sodipodi:nodetypes="ccscccsscscssccscsscsccccccccc" /></g><g
   id="g40352"
   transform="matrix(0.69848767,0,0,0.69848767,-89.70325,-82.788385)"
   style="stroke:#fa741c;stroke-opacity:1;stroke-width:1.85830052;stroke-miterlimit:4;stroke-dasharray:none"><path
     id="path20193-9"
     d="m 330.85563,250.06721 c -0.23831,0.0386 -0.41662,0.0918 -0.46969,0.10877 -1.06787,0.31818 -10.244,3.0566 -11.04071,3.43025 -0.91812,0.42502 -1.46306,1.15199 -1.48579,1.18272 l -0.81763,1.30156 c -0.10742,12.05566 -3.58731,6.60844 6.80087,5.1035 2.97888,-0.45094 8.15474,-1.33504 10.38241,-2.1719 1.70037,-0.63876 3.22023,-2.16735 4.39522,-4.42058 0.87288,-1.67398 1.25066,-3.14543 1.26632,-3.20717 l 0.0336,-0.13284 -0.0482,-0.12857 c -0.0102,-0.0278 -0.10681,-0.27852 -0.29863,-0.54153 -0.28857,-0.39576 -0.65061,-0.62367 -1.04682,-0.65911 -0.75519,-0.0676 -1.50183,0.53714 -2.28179,1.84875 -1.04157,1.74746 -2.03508,2.7406 -2.68519,3.26594 -0.60447,0.4885 -1.03066,0.67286 -1.1364,0.71435 l -6.73729,0.97189 -0.86789,-0.46884 c 0.0989,-0.13062 0.29251,-0.26489 0.42362,-0.32817 l 5.54117,-2.29874 0.0133,-0.006 c 0.22858,-0.10391 2.22692,-1.05635 2.01205,-2.49513 -0.058,-0.38839 -0.25179,-0.69462 -0.56027,-0.88578 -0.43056,-0.2667 -0.99498,-0.24697 -1.39231,-0.18358 z m 0.0385,0.88435 c 0.2898,-0.0562 0.68401,-0.0851 0.89302,0.0451 0.0583,0.0365 0.12888,0.0999 0.1542,0.26949 0.0997,0.66761 -1.07412,1.36773 -1.50174,1.56494 l -5.54379,2.29967 -0.0162,0.007 c -0.0268,0.0121 -0.2686,0.12696 -0.5038,0.32835 -0.47631,0.40778 -0.52753,0.81988 -0.48662,1.09376 l 0.0324,0.21673 1.60279,0.86576 7.10388,-1.02471 0.0342,-0.0112 c 0.0869,-0.0275 2.15403,-0.71674 4.33577,-4.37721 0.54851,-0.92246 1.09045,-1.45478 1.44887,-1.42432 0.24497,0.0208 0.44904,0.32054 0.55002,0.51697 -0.25488,0.88762 -1.75887,5.63135 -5.08037,6.87908 -2.15661,0.8101 -6.11058,1.51066 -9.04794,1.95559 -0.49488,0.0737 -0.71737,0.11219 -1.14906,0.17868 l -0.001,-0.009 c -1.83155,0.2619 -3.15462,0.41429 -3.16782,0.41576 l -0.43174,0.1311 c -0.12521,0.0182 0,0 0,0 -5.88845,3.38903 -3.84556,1.01131 -3.99561,-2.01437 l 2.44863,-3.55854 c 0.0623,-0.0787 0.48757,-0.59583 1.14347,-0.89944 0.56033,-0.26273 6.84077,-2.16888 10.92541,-3.38595 l 0.009,-0.003 c 0.0626,-0.02 0.14769,-0.0419 0.2443,-0.0605 z"
     sodipodi:nodetypes="sccccccccccccccccccccscssscsccccscccccccccccccccccccss"
     style="fill:#fa741c;fill-opacity:1;stroke-width:1.85830052;stroke:#fa741c;stroke-opacity:1;stroke-miterlimit:4;stroke-dasharray:none" /><path
     style="clip-rule:evenodd;fill:none;fill-rule:evenodd;stroke:#fa741c;stroke-opacity:1;stroke-width:1.85830052;stroke-miterlimit:4;stroke-dasharray:none"
     d="m 239.32937,350.93068 c -3.919,5.836 -9.14,9.193 -10.443,13.404 -2.106,6.801 5.475,6.808 9.935,5.527 4.179,-1.2 6.475,-4.006 8.889,-4.701 6.23,-1.797 6.389,-5.482 3.868,-14.23 -2.52,-8.749 -9.095,-5.461 -12.249,0 z"
     id="path30769" /><path
     style="clip-rule:evenodd;fill:none;fill-rule:evenodd;stroke:#fa741c;stroke-opacity:1;stroke-width:1.85830052;stroke-miterlimit:4;stroke-dasharray:none"
     d="m 274.90637,350.93068 c 3.919,5.836 9.14,9.193 10.442,13.404 2.146,6.93 -5.846,6.719 -10.184,5.436 -4.111,-1.217 -6.245,-3.92 -8.639,-4.609 -6.229,-1.797 -6.39,-5.482 -3.869,-14.23 2.521,-8.75 9.096,-5.462 12.25,-10e-4 z"
     id="path30771" /><path
     style="clip-rule:evenodd;fill:none;fill-rule:evenodd;stroke:#fa741c;stroke-opacity:1;stroke-width:1.85830052;stroke-miterlimit:4;stroke-dasharray:none"
     d="m 235.21837,275.54468 h 44.077 v 80.263 h -18.308 v -58.286 c 0,-5.003 -7.462,-5.032 -7.462,0 v 58.286 h -18.307 z"
     id="path30773" /><path
     style="clip-rule:evenodd;fill:none;fill-rule:evenodd;stroke:#fa741c;stroke-opacity:1;stroke-width:1.85830052;stroke-miterlimit:4;stroke-dasharray:none"
     d="m 229.40037,362.98068 c -0.229,0.444 -0.419,0.894 -0.561,1.354 -2.113,6.823 5.278,6.815 9.694,5.752 4.625,-1.112 6.592,-4.193 9.129,-4.926 3.341,-0.964 4.936,-2.471 5.308,-5.012 -3.545,2.758 -8.907,5.018 -14.593,6.887 -2.418,-2.68 -5.913,-4.012 -8.977,-4.055 z"
     id="path30775" /><path
     style="fill:none;stroke:#fa741c;stroke-opacity:1;stroke-width:1.85830052;stroke-miterlimit:4;stroke-dasharray:none"
     d="m 236.99037,355.63368 c 0.306,0.094 0.592,0.213 0.858,0.351 l 0.078,-0.006 c 1.706,-0.137 3.468,0.027 4.758,0.739 0.252,0.138 0.344,0.454 0.206,0.706 -0.139,0.252 -0.454,0.344 -0.706,0.205 -0.81,-0.445 -1.873,-0.635 -2.992,-0.652 0.707,0.695 1.212,1.504 1.608,2.185 0.188,0.155 0.246,0.429 0.124,0.649 -0.139,0.252 -0.455,0.345 -0.706,0.206 -0.791,-0.437 -1.759,-0.687 -2.762,-0.796 0.669,0.711 1.15,1.508 1.527,2.158 0.145,0.248 0.06,0.566 -0.188,0.711 -0.248,0.143 -0.566,0.059 -0.71,-0.19 -0.289,-0.498 -0.644,-1.09 -1.096,-1.639 v -2.121 c 0.724,0.043 1.447,0.15 2.128,0.334 -0.276,-0.369 -0.595,-0.729 -0.965,-1.039 -0.166,-0.139 -0.343,-0.267 -0.533,-0.384 -0.212,0.022 -0.422,0.05 -0.63,0.081 v -1.498 z m -5.141,4.472 c -0.231,0.17 -0.557,0.119 -0.727,-0.113 -0.17,-0.23 -0.119,-0.556 0.112,-0.725 0.406,-0.299 1.041,-0.564 1.808,-0.764 h -0.012 c -0.151,0.014 -0.293,-0.038 -0.397,-0.133 -0.054,-0.034 -0.102,-0.078 -0.142,-0.133 -0.169,-0.231 -0.119,-0.557 0.111,-0.727 0.506,-0.37 1.443,-0.762 2.572,-1.061 -0.081,0.004 -0.164,0.009 -0.249,0.018 -0.286,0.024 -0.538,-0.186 -0.563,-0.471 -0.026,-0.285 0.185,-0.538 0.47,-0.563 0.816,-0.075 1.53,0.007 2.158,0.198 v 1.5 c -0.772,0.115 -1.503,0.286 -2.128,0.482 0.445,0.117 0.851,0.289 1.22,0.502 0.301,-0.003 0.604,0.004 0.908,0.023 v 2.121 c -0.216,-0.262 -0.454,-0.514 -0.719,-0.74 -0.15,-0.129 -0.309,-0.25 -0.479,-0.361 -1.71,0.057 -3.261,0.446 -3.943,0.947 z"
     id="path30777" /><path
     style="clip-rule:evenodd;fill:none;fill-rule:evenodd;stroke:#fa741c;stroke-opacity:1;stroke-width:1.85830052;stroke-miterlimit:4;stroke-dasharray:none"
     d="m 284.80737,362.98068 c 0.23,0.444 0.418,0.894 0.561,1.354 2.114,6.823 -5.114,6.734 -9.532,5.671 -4.623,-1.112 -6.753,-4.112 -9.291,-4.845 -3.341,-0.964 -4.935,-2.471 -5.307,-5.012 3.544,2.758 8.906,5.018 14.592,6.887 2.418,-2.68 5.913,-4.012 8.977,-4.055 z"
     id="path30779" /><path
     style="fill:none;stroke:#fa741c;stroke-opacity:1;stroke-width:1.85830052;stroke-miterlimit:4;stroke-dasharray:none"
     d="m 282.35837,360.10568 c 0.232,0.17 0.558,0.119 0.727,-0.113 0.17,-0.23 0.119,-0.556 -0.112,-0.725 -0.406,-0.299 -1.041,-0.564 -1.808,-0.764 h 0.012 c 0.151,0.014 0.294,-0.038 0.396,-0.133 0.055,-0.034 0.102,-0.078 0.143,-0.133 0.17,-0.231 0.119,-0.557 -0.112,-0.727 -0.505,-0.37 -1.442,-0.762 -2.571,-1.061 0.082,0.004 0.165,0.009 0.25,0.018 0.285,0.024 0.538,-0.186 0.563,-0.471 0.025,-0.285 -0.184,-0.538 -0.47,-0.563 -0.815,-0.075 -1.53,0.007 -2.158,0.198 v 1.5 c 0.773,0.115 1.503,0.286 2.129,0.482 -0.446,0.117 -0.852,0.289 -1.222,0.502 -0.301,-0.003 -0.604,0.004 -0.907,0.023 v 2.121 c 0.216,-0.262 0.455,-0.514 0.72,-0.74 0.149,-0.129 0.309,-0.25 0.478,-0.361 1.709,0.057 3.26,0.446 3.942,0.947 z m -5.141,-4.472 c -0.306,0.094 -0.592,0.213 -0.858,0.351 l -0.078,-0.006 c -1.706,-0.137 -3.468,0.027 -4.758,0.739 -0.252,0.138 -0.344,0.454 -0.206,0.706 0.139,0.252 0.455,0.344 0.707,0.205 0.809,-0.445 1.873,-0.635 2.991,-0.652 -0.707,0.695 -1.213,1.504 -1.608,2.185 -0.188,0.155 -0.245,0.429 -0.123,0.649 0.138,0.252 0.454,0.345 0.705,0.206 0.791,-0.437 1.759,-0.687 2.762,-0.796 -0.669,0.711 -1.15,1.508 -1.527,2.158 -0.145,0.248 -0.06,0.566 0.189,0.711 0.248,0.143 0.565,0.059 0.71,-0.19 0.288,-0.498 0.643,-1.09 1.095,-1.639 v -2.121 c -0.724,0.043 -1.446,0.15 -2.128,0.334 0.277,-0.369 0.595,-0.729 0.965,-1.039 0.166,-0.139 0.343,-0.267 0.533,-0.384 0.212,0.022 0.422,0.05 0.63,0.081 v -1.498 z"
     id="path30781" /><path
     id="rect30783-8"
     style="clip-rule:evenodd;fill:none;fill-rule:evenodd;stroke:#fa741c;stroke-opacity:1;stroke-width:1.85830052;stroke-miterlimit:4;stroke-dasharray:none"
     d="m 236.4399,244.05249 -1.03125,34.86719 h 44.07422 l -1.28125,-35.39453"
     sodipodi:nodetypes="cccc" /><path
     id="path30787-2"
     style="clip-rule:evenodd;fill:none;fill-rule:evenodd;stroke:#fa741c;stroke-opacity:1;stroke-width:1.85830052;stroke-miterlimit:4;stroke-dasharray:none"
     d="m 232.63431,254.81648 11.41413,-32.2989 c 2.035,-5.74875 -3.17231,-10.23851 -8.20313,-10.42969 h 3.9e-4 c -3.01849,-0.11471 -5.97397,1.31675 -7.26172,4.95313 l -11.81836,33.38476 c -0.75369,1.51196 -0.98361,1.66673 -0.30904,5.88052"
     sodipodi:nodetypes="ccccccc" /><path
     id="path30787-2-9"
     style="clip-rule:evenodd;fill:none;fill-rule:evenodd;stroke:#fa741c;stroke-opacity:1;stroke-width:1.85830052;stroke-miterlimit:4;stroke-dasharray:none"
     d="m 282.18529,254.64218 -10.81751,-32.40939 c -2.035,-5.74875 3.17231,-10.23851 8.20313,-10.42969 h -3.9e-4 c 3.01849,-0.11471 5.97397,1.31675 7.26172,4.95313 l 11.81836,33.38476 c 0.17239,0.37348 0,0 0,0"
     sodipodi:nodetypes="ccccccc" /><path
     style="clip-rule:evenodd;fill:none;fill-rule:evenodd;stroke:#fa741c;stroke-opacity:1;stroke-width:1.85830052;stroke-miterlimit:4;stroke-dasharray:none"
     d="m 230.83537,280.84968 v 0 c 1.098,-0.002 1.996,0.893 1.998,1.989 l 0.01,4.84 c 0.002,1.096 -0.894,1.994 -1.99,1.997 h -0.001 c -1.096,0.002 -1.995,-0.894 -1.997,-1.989 l -0.009,-4.84 c -0.003,-1.096 0.892,-1.995 1.989,-1.997 z"
     id="path30789" /><path
     style="clip-rule:evenodd;fill:none;fill-rule:evenodd;stroke:#fa741c;stroke-opacity:1;stroke-width:1.85830052;stroke-miterlimit:4;stroke-dasharray:none"
     d="m 232.83337,282.83868 -0.046,-2.679 -16.062,0.13 0.047,2.68 c 0.188,11.839 16.296,13.564 16.061,-0.131 z"
     id="path30791" /><path
     id="path30793"
     style="clip-rule:evenodd;fill:none;fill-rule:evenodd;stroke:#fa741c;stroke-opacity:1;stroke-width:1.85830052;stroke-miterlimit:4;stroke-dasharray:none"
     d="m 216.28725,254.81047 0.4375,25.47851 16.0625,-0.1289 -0.0977,-25.63086"
     sodipodi:nodetypes="cccc" /><polygon
     style="clip-rule:evenodd;fill:none;fill-rule:evenodd;stroke:#fa741c;stroke-opacity:1;stroke-width:1.85830052;stroke-miterlimit:4;stroke-dasharray:none"
     points="108.175,71.767 100.666,60.255 97.413,64.009 101.417,79.774 "
     id="polygon30795"
     transform="translate(146.29037,148.41168)" /><polygon
     style="clip-rule:evenodd;fill:none;fill-rule:evenodd;stroke:#fa741c;stroke-opacity:1;stroke-width:1.85830052;stroke-miterlimit:4;stroke-dasharray:none"
     points="114.431,71.767 121.938,60.255 125.191,64.009 121.187,79.774 "
     id="polygon30797"
     transform="translate(146.29037,148.41168)" /><path
     style="clip-rule:evenodd;fill:none;fill-rule:evenodd;stroke:#fa741c;stroke-opacity:1;stroke-width:1.85830052;stroke-miterlimit:4;stroke-dasharray:none"
     d="m 261.48437,221.08468 c -1.216,0.78 -2.719,0.949 -4.228,0.949 l 3.464,-1.855 z m -4.227,0.949 -2.792,-1.855 -0.947,1.121 c 1.121,0.576 2.418,0.734 3.739,0.734 z"
     id="path30799" /><polygon
     style="clip-rule:evenodd;fill:none;fill-rule:evenodd;stroke:#fa741c;stroke-opacity:1;stroke-width:1.85830052;stroke-miterlimit:4;stroke-dasharray:none"
     points="86.497,131.748 70.435,131.878 70.376,128.396 86.484,128.255 "
     id="polygon30801"
     transform="translate(146.29037,148.41168)" /><polygon
     style="clip-rule:evenodd;fill:none;fill-rule:evenodd;stroke:#fa741c;stroke-opacity:1;stroke-width:1.85830052;stroke-miterlimit:4;stroke-dasharray:none"
     points="86.497,131.748 70.435,131.878 70.376,128.396 86.484,128.255 "
     id="polygon30801-3"
     transform="rotate(-90,260.91749,76.296315)" /><path
     id="path30809"
     style="clip-rule:evenodd;fill:none;fill-rule:evenodd;stroke:#fa741c;stroke-opacity:1;stroke-width:1.85830052;stroke-miterlimit:4;stroke-dasharray:none"
     d="m 278.20162,243.52515 c 1.10203,4.00427 4.42869,10.24236 4.59782,14.78525 -0.0319,0.73616 2.51372,5.02815 8.04493,8.42187 l 25.6068,0.047 -0.082,-16.0625 -17.71857,-0.57581"
     sodipodi:nodetypes="cccccc" /></g><g
   id="g30835"
   transform="translate(146.29037,148.41168)">
</g><g
   id="g30837"
   transform="translate(146.29037,148.41168)">
</g><g
   id="g30839"
   transform="translate(146.29037,148.41168)">
</g><g
   id="g30841"
   transform="translate(146.29037,148.41168)">
</g><g
   id="g30843"
   transform="translate(146.29037,148.41168)">
</g><g
   id="g30845"
   transform="translate(146.29037,148.41168)">
</g><g
   id="g30847"
   transform="translate(146.29037,148.41168)">
</g><g
   id="g30849"
   transform="translate(146.29037,148.41168)">
</g><g
   id="g30851"
   transform="translate(146.29037,148.41168)">
</g><g
   id="g30853"
   transform="translate(146.29037,148.41168)">
</g><g
   id="g30855"
   transform="translate(146.29037,148.41168)">
</g><g
   id="g30857"
   transform="translate(146.29037,148.41168)">
</g><g
   id="g30859"
   transform="translate(146.29037,148.41168)">
</g><g
   id="g30861"
   transform="translate(146.29037,148.41168)">
</g><g
   id="g30863"
   transform="translate(146.29037,148.41168)">
</g><path
   style="fill:none;stroke:#fa741c;stroke-width:0.6;stroke-linecap:butt;stroke-linejoin:miter;stroke-miterlimit:4;stroke-dasharray:none;stroke-opacity:1"
   d="m 90.856896,50.010261 0.946111,3.502844 -1.278383,0.602334"
   id="path76672" /><path
   d="m 89.343108,57.586908 -2.9757,-0.89441 c -0.69413,-0.20858 -1.32165,-0.66535 -1.26506,-0.21674 -0.13119,0.71139 -0.67626,1.50107 -0.42631,2.20413 0.16865,0.47427 0.48627,0.94351 0.97113,1.43469 0.77479,0.7849 1.68442,1.30212 2.66174,1.53574 0.97742,0.23363 2.02256,0.18356 3.06861,-0.16599 0.65448,-0.21885 1.14997,-0.49373 1.51487,-0.84046 v 0 c 0.54091,-0.51402 0.79449,-1.4017 0.61647,-2.15878 -1.05445,-0.54973 -0.9175,0.0156 -4.16584,-0.8982 z m 2.59573,1.92022 c -0.13619,0.1294 -0.41346,0.32208 -0.961,0.50504 -1.5961,0.5336 -3.12621,0.16785 -4.30846,-1.02986 -0.4056,-0.4109 -0.56577,-0.70805 -0.62872,-0.88504 -0.0512,-0.14381 -0.002,-0.44869 0.13452,-0.61136 2.7e-4,-3.7e-4 5e-4,-5.9e-4 7.4e-4,-8.5e-4 l 5.91908,1.41486 c 1e-5,2.7e-4 1.4e-4,5.7e-4 2e-4,10e-4 0.0488,0.20717 -0.0457,0.50101 -0.15633,0.60624 z"
   id="path24478-8"
   style="fill:none;fill-opacity:1;stroke:#fa741c;stroke-width:0.581;stroke-miterlimit:4;stroke-dasharray:none;stroke-opacity:1"
   sodipodi:nodetypes="cscssscssccccssscccc" /></svg>
