<?xml version="1.0" encoding="UTF-8" standalone="no"?>
<!-- Generator: Adobe Illustrator 19.0.0, SVG Export Plug-In . SVG Version: 6.00 Build 0)  -->

<svg
   version="1.1"
   id="Layer_1"
   x="0px"
   y="0px"
   viewBox="0 0 180.99999 181"
   xml:space="preserve"
   sodipodi:docname="stake.svg"
   width="181"
   height="181"
   inkscape:version="1.1.2 (b8e25be833, 2022-02-05)"
   xmlns:inkscape="http://www.inkscape.org/namespaces/inkscape"
   xmlns:sodipodi="http://sodipodi.sourceforge.net/DTD/sodipodi-0.dtd"
   xmlns="http://www.w3.org/2000/svg"
   xmlns:svg="http://www.w3.org/2000/svg"><defs
   id="defs12819">
	

		
		
		
		
		
		
		
		
		
		
		
		
		
		
		
		
		
		
		
		
		
		
		
		
		
		
		
			
		
			
		
		
		
	</defs><sodipodi:namedview
   id="namedview12817"
   pagecolor="#505050"
   bordercolor="#ffffff"
   borderopacity="1"
   inkscape:pageshadow="0"
   inkscape:pageopacity="0"
   inkscape:pagecheckerboard="1"
   showgrid="false"
   fit-margin-top="0"
   fit-margin-left="0"
   fit-margin-right="0"
   fit-margin-bottom="0"
   inkscape:zoom="2"
   inkscape:cx="-1.75"
   inkscape:cy="74.75"
   inkscape:window-width="1920"
   inkscape:window-height="1001"
   inkscape:window-x="-9"
   inkscape:window-y="-9"
   inkscape:window-maximized="1"
   inkscape:current-layer="Layer_1" />








<g
   id="g12786"
   transform="translate(174.51267,193.40351)">
</g>
<g
   id="g12788"
   transform="translate(174.51267,193.40351)">
</g>
<g
   id="g12790"
   transform="translate(174.51267,193.40351)">
</g>
<g
   id="g12792"
   transform="translate(174.51267,193.40351)">
</g>
<g
   id="g12794"
   transform="translate(174.51267,193.40351)">
</g>
<g
   id="g12796"
   transform="translate(174.51267,193.40351)">
</g>
<g
   id="g12798"
   transform="translate(174.51267,193.40351)">
</g>
<g
   id="g12800"
   transform="translate(174.51267,193.40351)">
</g>
<g
   id="g12802"
   transform="translate(174.51267,193.40351)">
</g>
<g
   id="g12804"
   transform="translate(174.51267,193.40351)">
</g>
<g
   id="g12806"
   transform="translate(174.51267,193.40351)">
</g>
<g
   id="g12808"
   transform="translate(174.51267,193.40351)">
</g>
<g
   id="g12810"
   transform="translate(174.51267,193.40351)">
</g>
<g
   id="g12812"
   transform="translate(174.51267,193.40351)">
</g>
<g
   id="g12814"
   transform="translate(174.51267,193.40351)">
</g>
<g
   id="g81010"
   transform="matrix(3.7795276,0,0,3.7795276,-490.60509,-653.67303)"><g
     opacity="0.25"
     id="g79298"
     transform="matrix(0.26458333,0,0,0.26458333,129.67364,172.8187)"
     style="fill:none"><path
       d="m 171.048,132.174 c 0.155,-0.298 0.304,-0.6 0.454,-0.901 l -10.699,6.188 -19.173,-11.086 19.111,-11.047 14.195,8.206 c 0.067,-0.174 0.132,-0.349 0.198,-0.523 l -13.843,-8.004 18.748,-10.84 c 0.05,-0.341 0.097,-0.683 0.143,-1.025 L 161.291,92.218 180.46,81.136 c -0.027,-0.248 -0.056,-0.497 -0.086,-0.745 L 161.295,69.36 175.851,60.94 c -0.062,-0.176 -0.123,-0.353 -0.186,-0.529 l -14.924,8.63 -19.05,-11.014 19.05,-11.013 12.409,7.175 c -0.131,-0.291 -0.267,-0.58 -0.4,-0.87 l -11.459,-6.627 5.991,-3.463 c -0.098,-0.156 -0.194,-0.313 -0.292,-0.468 l -6.249,3.614 -19.216,-11.11 13.314,-7.7 c -0.133,-0.135 -0.268,-0.27 -0.403,-0.404 L 140.972,34.945 121.817,23.871 138.23,14.38 c -0.177,-0.109 -0.353,-0.222 -0.53,-0.331 l -16.436,9.502 -19.045,-11.013 13.837,-7.99899 c -0.247,-0.072 -0.494,-0.143 -0.742,-0.212 L 101.664,12.218 82.899,1.36801 c -0.319,0.028 -0.64,0.052 -0.959,0.085 L 101.111,12.538 82.066,23.551 62.851,12.441 81.839,1.46101 c -0.46,0.047 -0.918,0.103 -1.376,0.157 L 62.3,12.119 55.588,8.24001 c -0.212,0.09 -0.421,0.184 -0.632,0.276 l 6.789,3.92499 -19.213,11.11 -6.54,-3.781 c -0.158,0.122 -0.318,0.241 -0.475,0.364 l 6.461,3.737 -19.152,11.074 -1.525,-0.882 c -0.118,0.145 -0.234,0.292 -0.351,0.437 l 1.323,0.765 -3.486,2.015 c -0.272,0.366 -0.539,0.735 -0.806,1.105 L 22.826,35.584 42.041,46.692 22.932,57.745 10.565,50.594 c -0.083,0.164 -0.164,0.33 -0.246,0.495 L 22.379,58.062 3.755,68.83 c -0.092,0.365 -0.18,0.732 -0.26799,1.099 L 22.273,80.791 3.09,91.881 1.00401,90.676 C 1.00401,90.784 1,90.892 1,91.001 c 0,0.104 0.00401,0.207 0.00401,0.311 L 2.539,92.199 1.027,93.074 c 0.00501,0.209 0.011,0.419 0.01701,0.628 L 3.09,92.519 22.245,103.592 4.008,114.136 c 0.04901,0.186 0.1,0.37 0.15,0.555 L 22.798,103.913 42.015,115.02 22.869,126.092 4.343,115.375 c 0.072,0.255 0.14701,0.509 0.22,0.764 l 17.755,10.271 -11.04,6.382 c 0.086,0.164 0.172,0.328 0.259,0.491 l 11.334,-6.554 19.045,11.016 -19.09,11.037 -1.581,-0.914 c 0.338,0.414 0.682,0.825 1.028,1.233 0.121,0.143 0.24,0.286 0.362,0.429 l 0.191,-0.112 19.215,11.114 -4.708,2.721 c 0.162,0.121 0.326,0.237 0.488,0.355 l 4.771,-2.759 19.155,11.073 -4.425,2.559 c 0.217,0.088 0.432,0.18 0.65,0.266 l 4.328,-2.502 12.684,7.334 c 0.518,0.092 1.039,0.176 1.56,0.26 l -13.693,-7.917 19.084,-11.03 19.179,11.093 -15.325,8.861 c 0.339,0.02 0.678,0.038 1.018,0.054 l 14.859,-8.595 10.637,6.153 c 0.261,-0.064 0.522,-0.125 0.78,-0.191 l -10.864,-6.282 19.164,-11.082 14.278,8.251 c 0.182,-0.105 0.364,-0.213 0.546,-0.32 l -14.273,-8.253 19.168,-11.084 11.807,6.826 c 0.139,-0.133 0.278,-0.266 0.417,-0.399 l -11.671,-6.752 19.148,-11.073 5.032,2.909 c 0.103,-0.153 0.203,-0.308 0.305,-0.463 l -4.784,-2.766 z m -29.97,-6.121 -19.153,-11.074 19.11,-11.047 19.152,11.075 z M 82.453,69.421 101.604,58.345 120.821,69.458 101.666,80.531 Z m 38.26,22.761 -19.109,11.05 L 82.557,92.22 101.666,81.168 Z M 101.114,80.851 82.003,91.899 62.79,80.791 81.9,69.741 Z m -0.061,22.7 L 81.9,114.627 62.851,103.614 82.003,92.536 Z m 0.551,0.321 19.217,11.107 -19.155,11.074 -19.213,-11.108 z m 0.553,-0.319 19.109,-11.05 19.213,11.111 -19.109,11.046 z m 19.662,-11.371 19.153,-11.074 19.215,11.11 -19.154,11.076 z m -0.553,-0.32 -19.047,-11.011 19.155,-11.074 19.047,11.014 z m -19.109,-33.835 19.217,-11.11 19.213,11.11 -19.213,11.109 z m -0.551,-0.321 -19.155,-11.074 19.215,-11.11 19.155,11.075 z M 101.053,58.027 81.9,69.101 62.745,58.027 81.898,46.952 Z M 62.192,57.706 43.145,46.692 62.3,35.619 81.345,46.632 Z M 81.347,69.421 62.237,80.469 43.084,69.395 62.192,58.345 Z M 61.685,80.791 42.534,91.862 23.376,80.791 42.532,69.715 Z M 62.237,81.108 81.451,92.22 62.3,103.294 43.084,92.182 Z M 81.347,114.945 62.168,126.032 43.119,115.02 62.3,103.932 Z M 81.386,137.779 62.231,148.855 43.02,137.747 62.168,126.67 Z M 62.721,126.353 81.9,115.264 l 19.214,11.111 -19.175,11.086 z m 38.945,0.342 19.155,11.073 -19.174,11.087 -19.157,-11.076 z m 0.553,-0.32 19.155,-11.078 19.151,11.078 -19.151,11.072 z m 77.672,-22.761 -19.15,11.071 -19.154,-11.071 19.154,-11.078 z M 160.743,69.678 179.956,80.791 160.741,91.899 141.525,80.791 Z M 160.19,69.36 140.972,80.469 121.925,69.458 141.14,58.345 Z M 160.187,46.692 141.14,57.706 121.925,46.597 140.972,35.584 Z M 140.421,35.265 121.374,46.28 102.219,35.202 121.264,24.188 Z M 101.666,12.858 120.713,23.871 101.666,34.884 82.619,23.871 Z M 101.114,35.202 81.9,46.314 62.851,35.301 82.066,24.188 Z M 62.3,12.758 81.516,23.871 62.3,34.981 43.084,23.871 Z M 23.376,35.265 42.532,24.188 61.747,35.301 42.592,46.375 Z M 42.592,47.014 61.639,58.027 42.532,69.075 23.485,58.062 Z M 3.77901,69.458 22.932,58.384 41.978,69.395 22.826,80.469 Z M 3.64301,92.199 22.826,81.106 41.981,92.182 22.798,103.275 Z M 23.351,103.592 42.534,92.503 61.747,103.614 42.566,114.703 Z m 0.071,22.818 19.144,-11.07 19.049,11.013 -19.148,11.074 z m -0.043,22.691 19.088,-11.037 19.213,11.108 -19.088,11.041 z m 38.921,22.504 -19.155,-11.073 19.086,-11.035 19.15,11.076 z m 0.484,-22.433 19.155,-11.073 19.155,11.073 -19.159,11.08 z m 38.882,22.494 -19.178,-11.091 19.159,-11.08 19.183,11.086 z m 19.714,-11.403 -19.18,-11.091 19.174,-11.084 19.177,11.084 z m 19.722,-11.408 -19.177,-11.087 19.153,-11.073 19.174,11.084 z"
       fill="#218095"
       id="path79296" /></g><path
     d="m 153.75072,173.08328 c 13.15138,0 23.8125,10.66112 23.8125,23.8125 0,13.15138 -10.66112,23.8125 -23.8125,23.8125 -13.15138,0 -23.8125,-10.66112 -23.8125,-23.8125 0,-13.15138 10.66112,-23.8125 23.8125,-23.8125 z"
     stroke="#fa741c"
     id="path79580"
     style="fill:none;stroke-width:0.264583" /></g><g
   id="g24464"
   transform="matrix(0.23076087,0,0,0.23076087,74.86599,26.668401)"><path
     d="m 337.35045,219.56236 c -0.16417,-2.83734 -3.53881,-5.05451 -10.2881,-6.74596 0.22718,-0.4975 0.35488,-1.01489 0.35653,-1.55218 v -11.60147 h -0.0282 c -0.59368,-9.66457 -40.19722,-9.94981 -44.74594,-9.94981 -4.54871,0 -44.15226,0.28524 -44.74593,9.94981 h -0.0282 v 0.21558 0 0 11.39087 c 0.008,3.15077 4.07445,5.61666 10.12392,7.4524 -0.0829,0.27529 -0.13266,0.55554 -0.14924,0.84076 h -0.0249 v 0.21558 0 0 11.37098 c -6.51712,1.6782 -9.77236,3.86384 -9.93322,6.65475 h -0.0166 v 0.21559 0 0 11.39087 c 0.006,2.19393 1.98333,4.05454 5.22033,5.60506 -0.12271,0.33663 -0.19899,0.6799 -0.22055,1.03145 h -0.0249 v 0.21559 0 0 11.39086 c 0.0133,5.51552 12.43227,8.9399 26.231,10.5385 0.10115,0.0199 0.19402,0.0614 0.3018,0.0614 0.0315,0 0.0581,-0.0166 0.0896,-0.0182 2.65992,0.30015 5.36294,0.53397 8.03779,0.70146 0.0564,0.007 0.10612,0.0332 0.16416,0.0332 0.0315,0 0.0564,-0.0166 0.0862,-0.0182 3.3962,0.20563 6.73768,0.31009 9.86358,0.31009 3.12589,0 6.46737,-0.10446 9.86357,-0.31175 0.0298,0.002 0.0564,0.0182 0.0862,0.0182 0.0581,0 0.10779,-0.0283 0.16417,-0.0332 2.67484,-0.16749 5.37787,-0.39965 8.03778,-0.70146 0.0315,0 0.0581,0.0166 0.0896,0.0166 0.10778,0 0.20065,-0.0415 0.30181,-0.0614 13.79872,-1.59861 26.21607,-5.02465 26.23099,-10.54183 v -11.60147 h -0.0265 c -0.11608,-2.03306 -1.84901,-3.72951 -5.27174,-5.14736 0.20894,-0.47925 0.32337,-0.97674 0.32337,-1.49247 v -10.83865 c 5.9533,-1.83077 9.94152,-4.28007 9.94981,-7.40266 v -11.60152 z m -13.42727,30.38173 -0.56548,0.49584 c -0.8706,0.76778 -2.32161,1.54221 -4.23033,2.28845 v -7.90679 c 1.97173,-0.68653 3.64993,-1.44768 4.97491,-2.28182 v 6.86205 c 0,0.17081 -0.063,0.35323 -0.1791,0.54227 z m -37.08955,7.70614 c -0.24211,0.007 -0.48589,0.01 -0.72965,0.0149 -0.59202,0.0116 -1.19896,0.0149 -1.79926,0.0199 v -8.28321 c 0.45603,-0.006 0.91207,-0.0116 1.3681,-0.0199 0.0879,-0.002 0.17578,-0.004 0.26367,-0.006 1.6699,-0.0315 3.33982,-0.0829 5.00143,-0.1592 v 8.27989 c -0.35487,0.0182 -0.7114,0.0348 -1.07125,0.0497 -0.99831,0.0448 -2.00655,0.0779 -3.03304,0.10282 z m -7.2418,0.0232 c -0.75951,-0.0133 -1.51569,-0.0315 -2.2669,-0.0548 -0.0929,-0.004 -0.18573,-0.007 -0.27859,-0.01 -0.90378,-0.0298 -1.80092,-0.068 -2.69143,-0.11111 v -8.27829 c 1.66162,0.0779 3.33152,0.12936 5.00144,0.1592 0.0879,0.002 0.17577,0.004 0.26201,0.006 0.45603,0.008 0.91207,0.0148 1.3681,0.0199 v 8.28818 c -0.32171,-0.004 -0.64342,-0.004 -0.96347,-0.008 -0.14593,-0.004 -0.28688,-0.008 -0.43116,-0.01 z m -29.95224,-3.78093 c -0.0547,-0.0166 -0.10612,-0.0315 -0.16085,-0.0465 v -8.01126 c 1.54886,0.41789 3.21379,0.79932 4.97491,1.14589 v 8.09417 c -1.52232,-0.32337 -2.9269,-0.66332 -4.20546,-1.01156 -0.20231,-0.0581 -0.41126,-0.11277 -0.6086,-0.17081 z m 34.95367,13.73239 c 0.45604,0.008 0.91207,0.0149 1.3681,0.0199 v 8.28984 c -2.29177,-0.0216 -4.50394,-0.0879 -6.6332,-0.19238 v -8.27988 c 1.66161,0.0779 3.33153,0.12934 5.00143,0.1592 0.0879,0 0.17579,0.002 0.26367,0.004 z m 6.31646,-0.006 c 1.66992,-0.0315 3.33982,-0.0829 5.00145,-0.1592 v 8.2799 c -2.12926,0.10447 -4.34143,0.1708 -6.6332,0.19236 v -8.28985 c 0.45602,-0.006 0.91205,-0.0116 1.3681,-0.0199 0.0879,0 0.17577,-0.002 0.26365,-0.004 z m 13.29295,-0.74957 v 8.23514 c -1.59362,0.16749 -3.25192,0.31507 -4.9749,0.43613 v -8.26995 c 1.68151,-0.10944 3.34313,-0.24376 4.9749,-0.40132 z m 3.31661,-0.35818 c 1.7097,-0.20563 3.36966,-0.43944 4.97489,-0.69979 v 8.14225 c -1.56212,0.27526 -3.22207,0.52899 -4.97489,0.7595 z m 8.2915,-1.29181 c 1.76111,-0.34659 3.42604,-0.728 4.9749,-1.14589 v 8.01125 c -1.47755,0.42618 -3.14083,0.8391 -4.9749,1.2288 z m -56.38224,0 v 8.09416 c -1.83407,-0.3897 -3.49735,-0.80262 -4.97489,-1.2288 v -8.01125 c 1.54885,0.41789 3.21379,0.80095 4.97489,1.14589 z m 3.31661,0.59368 c 1.60524,0.26034 3.26519,0.49415 4.9749,0.6998 v 8.20195 c -1.75282,-0.23051 -3.41279,-0.48423 -4.9749,-0.7595 z m 8.29151,1.05631 c 1.63176,0.15756 3.29338,0.29188 4.9749,0.40298 v 8.26995 c -1.72298,-0.12106 -3.38128,-0.26864 -4.9749,-0.43614 z m -4.11425,-9.91663 c -0.16915,-0.0166 -0.33663,-0.0348 -0.50412,-0.0514 -0.1194,-0.0116 -0.23714,-0.0265 -0.35654,-0.0381 v -8.23347 c 1.63177,0.15755 3.29338,0.29186 4.97491,0.40296 v 8.26332 c -1.39298,-0.0995 -2.76937,-0.21225 -4.11425,-0.34326 z m -4.17726,-8.68286 v 8.20195 c -1.75282,-0.2305 -3.41278,-0.48421 -4.97491,-0.7595 v -8.14224 c 1.60524,0.26034 3.2652,0.49582 4.97491,0.69979 z m 32.61214,8.94819 c -0.36482,0.0282 -0.73296,0.0564 -1.10443,0.0829 v -8.26995 c 1.68153,-0.11111 3.34314,-0.24377 4.97491,-0.40297 v 8.23512 c -1.02483,0.1078 -2.07288,0.20895 -3.14911,0.29683 -0.24046,0.0216 -0.48092,0.0398 -0.72137,0.0581 z m 7.18708,-0.74624 v -8.20195 c 1.70971,-0.20563 3.36966,-0.43946 4.97491,-0.6998 v 8.14225 c -1.56213,0.27528 -3.22209,0.53067 -4.97491,0.7595 z m 8.2915,-9.49377 c 1.76112,-0.34659 3.42605,-0.72799 4.97491,-1.14588 v 8.01124 c -1.47754,0.42619 -3.14083,0.8391 -4.97491,1.2288 z m -22.67726,-7.5748 c -1.24704,-0.0315 -2.46589,-0.0796 -3.66319,-0.13763 -0.0647,-0.004 -0.12934,-0.007 -0.19236,-0.008 v -8.2799 c 1.66162,0.0779 3.33152,0.12935 5.00144,0.1592 0.0879,0.002 0.17577,0.004 0.26201,0.006 0.45603,0.008 0.91207,0.0149 1.3681,0.0199 v 8.2799 c -0.8076,-0.008 -1.62183,-0.0116 -2.40952,-0.0298 -0.12106,-0.004 -0.24543,-0.006 -0.36648,-0.008 z m -38.67987,-23.69824 v -8.01107 c 1.54886,0.41789 3.21379,0.79931 4.97491,1.14589 v 8.09417 c -0.20398,-0.0432 -0.41458,-0.0862 -0.61357,-0.12935 -0.88221,-0.19401 -1.74288,-0.39634 -2.56539,-0.61026 -0.62684,-0.16086 -1.22217,-0.32502 -1.79595,-0.4892 z m 30.13962,-4.46249 c 0.45603,0.008 0.91207,0.0148 1.3681,0.0199 v 8.2799 c -2.23207,-0.0216 -4.45088,-0.0796 -6.6332,-0.18904 v -8.27327 c 1.66162,0.0779 3.33152,0.12936 5.00143,0.1592 0.0879,0 0.17578,0.002 0.26367,0.004 z m 6.31648,-0.006 c 1.6699,-0.0315 3.33981,-0.0829 5.00142,-0.15919 v 8.27326 c -0.2819,0.0133 -0.55221,0.0332 -0.83578,0.0465 -0.0232,0.002 -0.0465,0.002 -0.0713,0.004 -1.11271,0.0497 -2.24699,0.0862 -3.3962,0.11276 -0.1791,0.006 -0.35819,0.007 -0.53729,0.0116 -0.59035,0.0116 -1.19398,0.0133 -1.79262,0.0199 v -8.28321 c 0.45604,-0.006 0.91206,-0.0116 1.36809,-0.0199 0.0879,-0.002 0.17579,-0.004 0.26368,-0.006 z m 37.7877,0.83247 -0.0465,-0.01 -0.60362,0.4693 c -0.87559,0.68156 -2.22047,1.37142 -3.9451,2.03805 v -7.88854 c 1.97172,-0.68653 3.64992,-1.44769 4.97491,-2.28182 v 6.86206 c 0,0.25205 -0.13267,0.52402 -0.37975,0.8109 z m -21.17817,6.25179 v -8.19201 c 1.70971,-0.20563 3.36966,-0.43944 4.97491,-0.6998 v 8.12899 c -1.57208,0.2786 -3.22706,0.53397 -4.97491,0.76282 z m 8.2915,-1.40127 v -8.08063 c 1.76112,-0.34659 3.42605,-0.728 4.97491,-1.14589 v 7.993 c -1.48584,0.43282 -3.15907,0.84574 -4.97491,1.23378 z m -11.6081,-6.43254 v 8.22516 c -1.60192,0.16915 -3.26023,0.31674 -4.97491,0.43946 v -8.2614 c 1.68153,-0.11111 3.34314,-0.24544 4.97491,-0.40296 z m -33.16602,8.22848 v -8.22818 c 1.63177,0.15753 3.29338,0.29186 4.97491,0.40296 v 8.25502 c -1.68816,-0.12106 -3.35309,-0.2587 -4.97491,-0.4295 z m -3.3166,-8.58668 v 8.19366 c -0.32834,-0.0432 -0.66996,-0.0779 -0.99499,-0.12271 -0.21225,-0.0298 -0.41456,-0.0614 -0.62351,-0.0912 -0.9585,-0.13763 -1.89544,-0.28522 -2.81414,-0.43945 -0.18407,-0.0315 -0.36151,-0.0647 -0.54227,-0.0962 v -8.14225 c 1.60524,0.25869 3.2652,0.49416 4.97491,0.69814 z m 17.83006,28.89921 c -0.22388,-0.0166 -0.4494,-0.0332 -0.67162,-0.0497 -1.06131,-0.0829 -2.09775,-0.17412 -3.10932,-0.27528 -0.21723,-0.0216 -0.43448,-0.0448 -0.65005,-0.0663 -0.0448,-0.006 -0.0879,-0.0116 -0.13266,-0.0149 v -8.23512 c 1.63176,0.15754 3.29338,0.29186 4.9749,0.40297 v 8.26498 c -0.13432,-0.01 -0.27694,-0.0166 -0.41125,-0.0265 z m -10.9564,-1.23876 c -0.65669,-0.10447 -1.27358,-0.21723 -1.89876,-0.32667 v -8.13193 c 1.60524,0.26035 3.2652,0.49417 4.97491,0.69981 v 8.20195 c -1.01489,-0.13432 -2.00821,-0.27362 -2.96173,-0.42287 -0.0381,-0.008 -0.0763,-0.0149 -0.11442,-0.0199 z m -5.21536,-9.05266 v 8.0809 c -1.83242,-0.39302 -3.49404,-0.81091 -4.97491,-1.24538 v -7.9814 c 1.54886,0.41789 3.21379,0.80095 4.97491,1.14588 z m -8.29151,-2.15911 v 7.87859 c -2.60684,-1.00658 -4.28836,-2.03473 -4.83559,-2.95011 l -0.11111,-0.18573 c -0.01,-0.0514 -0.0265,-0.10614 -0.0283,-0.15755 v -6.86702 c 1.32499,0.83413 3.00318,1.59529 4.9749,2.28182 z m 39.7727,4.55868 c 1.6699,-0.0315 3.33981,-0.0829 5.00142,-0.1592 v 8.2716 c -2.17899,0.1078 -4.39449,0.16749 -6.6332,0.19071 v -8.27824 c 0.45604,-0.006 0.91207,-0.0116 1.3681,-0.0199 0.0879,-0.002 0.17578,-0.004 0.26368,-0.006 z m 21.43022,6.36289 c -0.728,0.12603 -1.46263,0.25041 -2.21715,0.36483 -0.43282,0.0663 -0.87558,0.12934 -1.32001,0.19236 -0.41955,0.0597 -0.85568,0.11111 -1.28187,0.16583 v -8.19366 c 1.70971,-0.20563 3.36966,-0.43945 4.97491,-0.69981 v 8.14226 c -0.0531,0.01 -0.10448,0.0199 -0.15588,0.0283 z m -11.22836,1.41619 c -0.61855,0.0514 -1.257,0.0846 -1.88383,0.12936 v -8.25477 c 1.68152,-0.11111 3.34313,-0.24377 4.9749,-0.40297 v 8.22683 c -0.96347,0.10115 -1.9253,0.20231 -2.91529,0.28522 -0.0597,0.006 -0.11609,0.0116 -0.17578,0.0166 z m 18.95107,-3.10931 c -0.82584,0.2305 -1.69976,0.44608 -2.59193,0.65668 -0.41292,0.0962 -0.83413,0.19237 -1.26528,0.28524 -0.12769,0.0282 -0.26368,0.0531 -0.39302,0.0813 v -8.09054 c 1.76111,-0.3466 3.42605,-0.728 4.9749,-1.14589 v 8.01125 c -0.2388,0.0663 -0.47925,0.13431 -0.72467,0.20231 z m 8.99628,-16.13692 c -0.15257,1.12598 -2.7047,2.62342 -7.26005,4.03133 v 0 c -5.86707,1.81252 -15.04743,3.47248 -26.68205,3.98654 -0.59533,0.0249 -1.18901,0.0498 -1.79595,0.0697 -0.49582,0.0166 -0.99332,0.0315 -1.49911,0.0448 -1.37306,0.0298 -2.76604,0.0514 -4.20213,0.0514 -1.43609,0 -2.82905,-0.0216 -4.20213,-0.053 -0.50413,-0.0116 -1.00162,-0.0282 -1.49911,-0.0448 -0.60859,-0.0182 -1.20227,-0.0448 -1.79593,-0.0696 -11.63464,-0.51408 -20.81665,-2.17404 -26.68206,-3.98656 v 0 c -4.51887,-1.39629 -7.06602,-2.88213 -7.25507,-4.00314 0.008,-0.0315 0.008,-0.0581 0.0282,-0.0978 0.11276,0.0282 0.23879,0.0514 0.35321,0.0796 0.64841,0.15423 1.31337,0.30348 1.98997,0.44608 3.29504,0.70976 6.94662,1.29183 10.83699,1.73625 0.0133,0 0.0232,0.007 0.0348,0.007 0.004,0 0.007,-0.002 0.008,-0.002 2.64997,0.30181 5.39942,0.53894 8.22186,0.70644 0.0216,0 0.0398,0.0116 0.0614,0.0116 0.0116,0 0.0199,-0.007 0.0315,-0.007 2.03142,0.11941 4.08937,0.20729 6.1722,0.25373 1.27523,0.0315 2.52724,0.0481 3.7461,0.0481 0.87061,0 1.76277,-0.01 2.66323,-0.0265 12.04921,-0.18573 23.21621,-1.61849 30.98701,-3.83896 0.35819,-0.10116 0.70809,-0.20563 1.05302,-0.31011 0.2106,-0.0647 0.42618,-0.12768 0.63015,-0.19236 0.60031,-0.19236 1.17574,-0.3897 1.73127,-0.59533 0.0962,-0.0365 0.18739,-0.073 0.28356,-0.10944 0.4693,-0.17745 0.92037,-0.36151 1.35152,-0.5489 0.12437,-0.0548 0.25206,-0.10779 0.37311,-0.16252 0.45936,-0.20728 0.90378,-0.41955 1.31504,-0.6401 0.18573,-0.0978 0.34659,-0.19899 0.5207,-0.29849 0.199,-0.11442 0.398,-0.23051 0.58207,-0.34825 0.10447,-0.0664 0.22884,-0.12935 0.32834,-0.19567 7.42422,1.61021 9.38102,3.37132 9.57006,4.05786 z m -51.38909,-26.64007 c 27.34372,0 41.17395,4.30494 41.43265,6.77581 -0.20066,1.12101 -2.74615,2.60187 -7.25341,3.99485 v 0 c -5.86707,1.81253 -15.04742,3.47247 -26.68206,3.98656 -0.59533,0.025 -1.189,0.0498 -1.79594,0.0696 -0.49583,0.0166 -0.99333,0.0315 -1.49911,0.0448 -1.37307,0.0315 -2.76605,0.0531 -4.20213,0.0531 -1.43609,0 -2.82906,-0.0216 -4.20213,-0.0531 -0.50413,-0.0116 -1.00162,-0.0282 -1.49911,-0.0448 -0.60859,-0.0182 -1.20227,-0.0448 -1.79594,-0.0696 -11.63463,-0.51409 -20.81665,-2.17403 -26.68205,-3.98656 v 0 c -4.50893,-1.39297 -7.05276,-2.87384 -7.25342,-3.99485 0.2587,-2.47086 14.08893,-6.77581 41.43265,-6.77581 z m -41.45752,18.23466 v -6.86672 c 1.32498,0.83413 3.00318,1.59529 4.97491,2.28183 v 7.93995 c -3.2254,-1.20891 -4.97159,-2.42112 -4.97491,-3.35475 z m 8.03282,22.94922 c 0.0249,0.0265 0.063,0.0498 0.0879,0.0763 2.27022,2.29178 6.97151,4.09269 12.82365,5.43591 0.13432,0.0315 0.27693,0.0614 0.41292,0.0929 0.4295,0.0962 0.86563,0.1907 1.30673,0.28191 5.37456,1.14423 11.79053,1.97172 18.78027,2.38131 0.006,0 0.008,0.002 0.0116,0.002 0.004,0 0.006,-0.002 0.007,-0.002 2.24535,0.13103 4.54209,0.22221 6.88693,0.26203 1.0381,0.0216 2.05961,0.0348 3.05791,0.0348 1.14422,0 2.3183,-0.0133 3.51228,-0.0414 2.16905,-0.0448 4.30661,-0.13431 6.41431,-0.25704 0.008,0 0.0149,0.006 0.0232,0.006 0.0149,0 0.0265,-0.008 0.0415,-0.008 7.00797,-0.41291 13.58314,-1.24869 19.14342,-2.45097 -1.20392,0.63016 -2.85228,1.28188 -4.90525,1.917 v 0 c -6.19376,1.91368 -16.08552,3.65656 -28.6571,4.06118 -0.37312,0.0116 -0.74126,0.0249 -1.11936,0.0348 -0.40628,0.01 -0.8192,0.0166 -1.23211,0.0249 -1.04307,0.0166 -2.09277,0.0315 -3.17067,0.0315 -1.43609,0 -2.82906,-0.0216 -4.20214,-0.0531 -0.50412,-0.0116 -1.00161,-0.0282 -1.4991,-0.0447 -0.6086,-0.0182 -1.20227,-0.0448 -1.79594,-0.0697 -11.63464,-0.51407 -20.81665,-2.17402 -26.68206,-3.98656 v 0 c -4.56033,-1.40955 -7.11245,-2.90866 -7.26004,-4.03464 0.18407,-0.62352 1.86061,-2.18398 8.01457,-3.69304 z m -8.03282,15.1917 v -6.86702 c 1.32498,0.83413 3.00318,1.59528 4.97491,2.28182 v 7.90844 l -0.9469,-0.36814 -0.0199,0.0199 c -2.60353,-1.07956 -4.00479,-2.13921 -4.00811,-2.975 z m 4.97491,18.24131 v -6.86701 c 1.32498,0.83411 3.00318,1.59528 4.9749,2.28181 v 7.93995 c -3.2254,-1.20891 -4.9716,-2.42111 -4.9749,-3.35475 z m 77.94013,3.35475 v -7.93829 c 1.97172,-0.68654 3.64992,-1.44769 4.9749,-2.28182 v 6.86204 c -0.002,0.93363 -1.74951,2.14752 -4.9749,3.35807 z m 4.95335,-14.82853 c -0.18076,1.12266 -2.72791,2.61183 -7.25673,4.01144 v 0 c -5.86707,1.81251 -15.04742,3.47247 -26.68206,3.98654 -0.59533,0.025 -1.189,0.0498 -1.79594,0.0696 -0.49583,0.0166 -0.99332,0.0315 -1.49909,0.0448 -1.37309,0.0298 -2.76606,0.0514 -4.20215,0.0514 -1.43608,0 -2.83072,-0.0216 -4.20545,-0.053 -0.49915,-0.0116 -0.99166,-0.0282 -1.48417,-0.0448 -0.61192,-0.0199 -1.20891,-0.0447 -1.80756,-0.0696 -11.63464,-0.51407 -20.81499,-2.17403 -26.68206,-3.98656 v 0 c -4.38619,-1.35482 -6.92008,-2.79422 -7.23848,-3.90529 0.49417,0.17246 1.00659,0.33995 1.53227,0.50412 0.053,0.0166 0.10613,0.0332 0.1592,0.048 0.44773,0.13765 0.90543,0.2703 1.37472,0.39965 0.17745,0.0497 0.35655,0.0995 0.5373,0.14759 0.26533,0.0713 0.5373,0.1393 0.80924,0.20895 6.03954,1.54719 13.74898,2.64333 22.07199,3.13584 0.004,0 0.006,0.002 0.008,0.002 0.002,0 0.004,-0.002 0.006,-0.002 2.57036,0.15256 5.19546,0.24709 7.84874,0.2786 0.70643,0.0133 1.40789,0.0199 2.09608,0.0199 0.91374,0 1.84902,-0.0116 2.7959,-0.0282 2.41946,-0.0398 4.80742,-0.12935 7.14231,-0.26865 0.006,0 0.008,0.004 0.0133,0.004 0.008,0 0.0133,-0.006 0.0216,-0.006 2.84398,-0.17082 5.59676,-0.41458 8.24175,-0.71805 0.01,0 0.0182,0.006 0.0282,0.006 0.0364,0 0.0663,-0.0182 0.10281,-0.0216 2.94514,-0.33995 5.73771,-0.75784 8.32964,-1.24372 0.53398,-0.0978 1.05966,-0.19899 1.58037,-0.30348 0.11607,-0.0232 0.23216,-0.0464 0.34824,-0.0713 4.89696,-1.00493 9.13558,-2.3067 12.04424,-3.92022 0.1592,-0.0862 0.30844,-0.17579 0.45934,-0.26367 0.18408,-0.10945 0.35986,-0.22056 0.53066,-0.33333 0.15921,-0.10281 0.34327,-0.2023 0.48921,-0.30678 3.27348,1.16745 4.17559,2.21218 4.28338,2.6284 z m 0.0216,-21.65409 v -7.93829 c 1.97171,-0.68653 3.64992,-1.4477 4.9749,-2.28182 v 6.86205 c -0.002,0.93363 -1.7495,2.14749 -4.9749,3.35806 z"
     id="path13600"
     style="fill:#fa741c;fill-opacity:1;stroke:none;stroke-width:1.65831;stroke-opacity:1" /><path
     d="m 232.91398,163.17828 c 0.16417,-2.83736 3.53881,-5.05451 10.2881,-6.74597 -0.22718,-0.4975 -0.35488,-1.01488 -0.35654,-1.55217 v -11.60147 h 0.0282 c 0.59368,-9.66457 40.19722,-9.94981 44.74594,-9.94981 4.54871,0 44.15226,0.28524 44.74592,9.94981 h 0.0282 v 0.21558 0 0 11.39087 c -0.008,3.15076 -4.07445,5.61666 -10.12392,7.4524 0.0829,0.27529 0.13266,0.55554 0.14924,0.84077 h 0.0249 v 0.21557 0 0 11.37097 c 6.51712,1.67821 9.77236,3.86384 9.93322,6.65476 h 0.0166 v 0.21558 0 0 11.39087 c -0.006,2.19393 -1.98333,4.05455 -5.22033,5.60506 0.12271,0.33664 0.19899,0.6799 0.22055,1.03146 h 0.0249 v 0.21558 0 0 11.39087 c -0.0133,5.51551 -12.43227,8.93989 -26.231,10.5385 -0.10115,0.0199 -0.19402,0.0614 -0.3018,0.0614 -0.0315,0 -0.0581,-0.0166 -0.0896,-0.0182 -2.65992,0.30016 -5.36294,0.53397 -8.03779,0.70146 -0.0564,0.007 -0.10612,0.0332 -0.16416,0.0332 -0.0315,0 -0.0564,-0.0166 -0.0862,-0.0182 -3.3962,0.20562 -6.73767,0.31009 -9.86357,0.31009 -3.12589,0 -6.46737,-0.10447 -9.86357,-0.31175 -0.0298,0.002 -0.0564,0.0182 -0.0862,0.0182 -0.0581,0 -0.10779,-0.0282 -0.16418,-0.0332 -2.67483,-0.16748 -5.37786,-0.39964 -8.03777,-0.70145 -0.0315,0 -0.0581,0.0166 -0.0896,0.0166 -0.10778,0 -0.20065,-0.0415 -0.30181,-0.0614 -13.79872,-1.5986 -26.21607,-5.02465 -26.23099,-10.54183 v -11.60146 h 0.0265 c 0.11608,-2.03307 1.84901,-3.72951 5.27174,-5.14736 -0.20894,-0.47926 -0.32337,-0.97675 -0.32337,-1.49248 v -10.83866 c -5.9533,-1.83077 -9.94152,-4.28007 -9.94981,-7.40265 v -11.60147 z m 13.42727,30.38172 0.56548,0.49583 c 0.8706,0.76779 2.32161,1.54223 4.23033,2.28846 v -7.90678 c -1.97173,-0.68654 -3.64993,-1.44769 -4.97491,-2.28182 v 6.86204 c 0,0.17081 0.063,0.35323 0.1791,0.54227 z m 37.08955,7.70613 c 0.24211,0.007 0.48589,0.01 0.72965,0.0149 0.59202,0.0116 1.19896,0.0149 1.79926,0.0199 v -8.2832 c -0.45603,-0.006 -0.91207,-0.0116 -1.3681,-0.0199 -0.0879,-0.002 -0.17578,-0.004 -0.26367,-0.006 -1.6699,-0.0315 -3.33982,-0.0829 -5.00143,-0.1592 v 8.27989 c 0.35487,0.0182 0.7114,0.0348 1.07125,0.0497 0.99831,0.0448 2.00655,0.0779 3.03304,0.10282 z m 7.2418,0.0232 c 0.7595,-0.0133 1.51569,-0.0315 2.26689,-0.0548 0.0929,-0.004 0.18574,-0.007 0.2786,-0.01 0.90378,-0.0298 1.80091,-0.068 2.69143,-0.11111 v -8.27829 c -1.66162,0.0779 -3.33152,0.12935 -5.00145,0.1592 -0.0879,0.002 -0.17576,0.004 -0.262,0.006 -0.45603,0.008 -0.91207,0.0148 -1.3681,0.0199 v 8.28818 c 0.32171,-0.004 0.64342,-0.004 0.96347,-0.008 0.14593,-0.004 0.28688,-0.008 0.43116,-0.01 z m 29.95223,-3.78093 c 0.0547,-0.0166 0.10613,-0.0315 0.16086,-0.0464 v -8.01126 c -1.54886,0.41789 -3.21379,0.79931 -4.97491,1.14588 v 8.09417 c 1.52232,-0.32336 2.9269,-0.66332 4.20546,-1.01156 0.20231,-0.0581 0.41126,-0.11277 0.60859,-0.1708 z m -34.95366,13.73239 c -0.45604,0.008 -0.91207,0.0149 -1.3681,0.0199 v 8.28985 c 2.29177,-0.0216 4.50394,-0.0879 6.6332,-0.19237 v -8.2799 c -1.66161,0.078 -3.33153,0.12935 -5.00143,0.1592 -0.0879,0 -0.17579,0.002 -0.26367,0.004 z m -6.31646,-0.006 c -1.66993,-0.0315 -3.33983,-0.0829 -5.00145,-0.1592 v 8.27989 c 2.12926,0.10447 4.34143,0.17081 6.6332,0.19237 V 211.258 c -0.45602,-0.006 -0.91206,-0.0116 -1.3681,-0.0199 -0.0879,0 -0.17577,-0.002 -0.26365,-0.004 z m -13.29295,-0.74956 v 8.23512 c 1.59362,0.1675 3.25192,0.31508 4.9749,0.43614 v -8.26995 c -1.68151,-0.10945 -3.34313,-0.24377 -4.9749,-0.40131 z m -3.31661,-0.35819 c -1.7097,-0.20563 -3.36966,-0.43945 -4.97489,-0.6998 v 8.14226 c 1.56212,0.27527 3.22207,0.52899 4.97489,0.7595 z m -8.2915,-1.29182 c -1.76111,-0.34658 -3.42604,-0.72799 -4.9749,-1.14589 v 8.01126 c 1.47755,0.42618 3.14083,0.8391 4.9749,1.2288 z m 56.38223,0 v 8.09417 c 1.83408,-0.3897 3.49736,-0.80262 4.9749,-1.2288 v -8.01126 c -1.54885,0.4179 -3.21379,0.80097 -4.9749,1.14589 z m -3.3166,0.59368 c -1.60524,0.26035 -3.26519,0.49416 -4.97491,0.6998 v 8.20196 c 1.75283,-0.23051 3.41279,-0.48424 4.97491,-0.7595 z m -8.29151,1.05633 c -1.63176,0.15754 -3.29338,0.29186 -4.9749,0.40297 v 8.26995 c 1.72298,-0.12106 3.38128,-0.26865 4.9749,-0.43614 z m 4.11425,-9.91663 c 0.16915,-0.0166 0.33663,-0.0349 0.50412,-0.0514 0.1194,-0.0116 0.23714,-0.0265 0.35654,-0.0381 v -8.23346 c -1.63177,0.15754 -3.29339,0.29186 -4.97491,0.40296 v 8.26332 c 1.39298,-0.0995 2.76937,-0.21226 4.11425,-0.34327 z m 4.17726,-8.68287 v 8.20196 c 1.75282,-0.23051 3.41278,-0.48423 4.97491,-0.7595 v -8.14226 c -1.60525,0.26035 -3.2652,0.49584 -4.97491,0.6998 z m -32.61214,8.94819 c 0.36482,0.0282 0.73296,0.0563 1.10442,0.0829 v -8.26995 c -1.68152,-0.1111 -3.34313,-0.24376 -4.9749,-0.40297 v 8.23513 c 1.02483,0.10779 2.07287,0.20895 3.14911,0.29683 0.24045,0.0216 0.48092,0.0398 0.72137,0.0581 z m -7.18708,-0.74623 v -8.20196 c -1.70971,-0.20563 -3.36967,-0.43944 -4.97491,-0.6998 v 8.14226 c 1.56213,0.27527 3.22209,0.53066 4.97491,0.7595 z m -8.2915,-9.49377 c -1.76112,-0.34659 -3.42605,-0.728 -4.97491,-1.14589 v 8.01125 c 1.47754,0.42619 3.14083,0.8391 4.97491,1.2288 z m 22.67726,-7.57481 c 1.24704,-0.0315 2.46589,-0.0796 3.66319,-0.13763 0.0647,-0.004 0.12934,-0.007 0.19236,-0.008 v -8.27991 c -1.66162,0.0779 -3.33152,0.12936 -5.00144,0.1592 -0.0879,0.002 -0.17577,0.004 -0.26201,0.006 -0.45603,0.008 -0.91207,0.0149 -1.3681,0.0199 v 8.27989 c 0.80759,-0.008 1.62183,-0.0116 2.40952,-0.0298 0.12106,-0.004 0.24543,-0.006 0.36648,-0.008 z m 38.67987,-23.69853 v -8.01106 c -1.54886,0.41789 -3.21379,0.7993 -4.97491,1.14588 v 8.09417 c 0.20398,-0.0431 0.41458,-0.0862 0.61357,-0.12935 0.88221,-0.19401 1.74288,-0.39633 2.56539,-0.61025 0.62684,-0.16087 1.22217,-0.32502 1.79595,-0.48921 z m -30.13962,-4.46248 c -0.45603,0.008 -0.91207,0.0148 -1.3681,0.0199 v 8.2799 c 2.23207,-0.0216 4.45088,-0.0796 6.6332,-0.18904 v -8.27327 c -1.66162,0.0779 -3.33153,0.12935 -5.00143,0.1592 -0.0879,0 -0.17578,0.002 -0.26367,0.004 z m -6.31648,-0.006 c -1.6699,-0.0315 -3.33981,-0.0829 -5.00142,-0.15919 v 8.27326 c 0.2819,0.0133 0.55221,0.0332 0.83578,0.0465 0.0232,0.002 0.0464,0.002 0.0713,0.004 1.11271,0.0497 2.24699,0.0862 3.39619,0.11276 0.1791,0.006 0.3582,0.007 0.5373,0.0116 0.59035,0.0116 1.19398,0.0133 1.79262,0.0199 v -8.28322 c -0.45604,-0.006 -0.91206,-0.0116 -1.36809,-0.0199 -0.0879,-0.002 -0.17579,-0.004 -0.26368,-0.006 z m -37.7877,0.83247 0.0465,-0.01 0.60362,0.46929 c 0.87559,0.68156 2.22046,1.37142 3.94509,2.03805 v -7.88853 c -1.97171,-0.68654 -3.64991,-1.4477 -4.9749,-2.28183 v 6.86206 c 0,0.25206 0.13267,0.52402 0.37975,0.81091 z m 21.17817,6.2518 v -8.19201 c -1.70971,-0.20563 -3.36967,-0.43945 -4.97491,-0.6998 v 8.12898 c 1.57208,0.2786 3.22706,0.53398 4.97491,0.76283 z m -8.2915,-1.40127 v -8.08064 c -1.76112,-0.34658 -3.42605,-0.72799 -4.97491,-1.14588 v 7.993 c 1.48584,0.43281 3.15907,0.84574 4.97491,1.23378 z m 11.6081,-6.43255 v 8.22517 c 1.60192,0.16915 3.26023,0.31673 4.9749,0.43946 v -8.2614 c -1.68152,-0.11111 -3.34313,-0.24544 -4.9749,-0.40297 z m 33.16602,8.22848 v -8.22818 c -1.63177,0.15753 -3.29339,0.29186 -4.97491,0.40297 v 8.25501 c 1.68816,-0.12105 3.35309,-0.25869 4.97491,-0.4295 z m 3.3166,-8.58668 v 8.19367 c 0.32834,-0.0432 0.66996,-0.0779 0.99498,-0.12272 0.21226,-0.0298 0.41457,-0.0614 0.62352,-0.0912 0.9585,-0.13763 1.89544,-0.28522 2.81414,-0.43944 0.18407,-0.0315 0.36151,-0.0647 0.54227,-0.0962 v -8.14226 c -1.60525,0.25869 -3.2652,0.49417 -4.97491,0.69814 z m -17.83006,28.89922 c 0.22388,-0.0166 0.4494,-0.0332 0.67162,-0.0498 1.06131,-0.0829 2.09775,-0.17413 3.10932,-0.27529 0.21723,-0.0216 0.43448,-0.0448 0.65005,-0.0663 0.0448,-0.006 0.0879,-0.0116 0.13266,-0.0149 v -8.23512 c -1.63177,0.15753 -3.29338,0.29186 -4.9749,0.40296 v 8.26498 c 0.13432,-0.01 0.27694,-0.0166 0.41125,-0.0265 z m 10.9564,-1.23876 c 0.65669,-0.10447 1.27357,-0.21723 1.89875,-0.32668 v -8.13192 c -1.60523,0.26034 -3.26519,0.49417 -4.9749,0.6998 v 8.20195 c 1.01488,-0.13432 2.00821,-0.27361 2.96173,-0.42286 0.0381,-0.008 0.0763,-0.0149 0.11442,-0.0199 z m 5.21536,-9.05266 v 8.0809 c 1.83242,-0.39302 3.49404,-0.81091 4.9749,-1.24539 v -7.9814 c -1.54885,0.41789 -3.21378,0.80096 -4.9749,1.14589 z m 8.29151,-2.15911 v 7.87858 c 2.60684,-1.00658 4.28836,-2.03473 4.83559,-2.95011 l 0.11111,-0.18573 c 0.01,-0.0514 0.0265,-0.10613 0.0283,-0.15754 v -6.86702 c -1.32499,0.83413 -3.00318,1.59528 -4.9749,2.28182 z m -39.7727,4.55867 c -1.6699,-0.0315 -3.33982,-0.0829 -5.00142,-0.1592 v 8.2716 c 2.17899,0.1078 4.39449,0.1675 6.63319,0.19071 v -8.27824 c -0.45603,-0.006 -0.91206,-0.0116 -1.3681,-0.0199 -0.0879,-0.002 -0.17578,-0.004 -0.26367,-0.006 z m -21.43022,6.3629 c 0.728,0.12602 1.46263,0.2504 2.21715,0.36482 0.43282,0.0663 0.87558,0.12935 1.32001,0.19237 0.41955,0.0597 0.85568,0.1111 1.28187,0.16583 v -8.19366 c -1.70971,-0.20564 -3.36967,-0.43945 -4.97491,-0.69981 v 8.14226 c 0.053,0.01 0.10448,0.0199 0.15588,0.0282 z m 11.22836,1.41619 c 0.61854,0.0514 1.25699,0.0846 1.88383,0.12935 v -8.25477 c -1.68152,-0.1111 -3.34313,-0.24377 -4.9749,-0.40296 v 8.22682 c 0.96347,0.10116 1.92529,0.20232 2.91528,0.28523 0.0597,0.006 0.11609,0.0116 0.17579,0.0166 z m -18.95107,-3.10931 c 0.82583,0.2305 1.69976,0.44608 2.59193,0.65668 0.41292,0.0962 0.83413,0.19236 1.26528,0.28523 0.12769,0.0282 0.26368,0.053 0.39302,0.0813 v -8.09055 c -1.76111,-0.34659 -3.42605,-0.72799 -4.9749,-1.14589 v 8.01125 c 0.2388,0.0663 0.47925,0.13432 0.72467,0.20232 z m -8.99628,-16.13693 c 0.15257,1.12598 2.7047,2.62343 7.26005,4.03133 v 0 c 5.86707,1.81253 15.04742,3.47248 26.68205,3.98655 0.59533,0.025 1.189,0.0498 1.79595,0.0697 0.49582,0.0166 0.99332,0.0315 1.49911,0.0448 1.37306,0.0298 2.76604,0.0514 4.20213,0.0514 1.43609,0 2.82905,-0.0216 4.20213,-0.0531 0.50412,-0.0116 1.00161,-0.0282 1.4991,-0.0448 0.6086,-0.0182 1.20227,-0.0448 1.79594,-0.0696 11.63464,-0.51408 20.81665,-2.17404 26.68206,-3.98655 v 0 c 4.51887,-1.3963 7.06602,-2.88213 7.25507,-4.00314 -0.008,-0.0315 -0.008,-0.0581 -0.0282,-0.0978 -0.11276,0.0282 -0.23879,0.0514 -0.35322,0.0796 -0.6484,0.15422 -1.31337,0.30347 -1.98996,0.44608 -3.29504,0.70975 -6.94662,1.29183 -10.83699,1.73624 -0.0133,0 -0.0232,0.007 -0.0348,0.007 -0.004,0 -0.007,-0.002 -0.008,-0.002 -2.64997,0.30182 -5.39942,0.53894 -8.22186,0.70644 -0.0216,0 -0.0398,0.0116 -0.0614,0.0116 -0.0116,0 -0.0199,-0.007 -0.0315,-0.007 -2.03142,0.1194 -4.08937,0.20729 -6.1722,0.25372 -1.27524,0.0315 -2.52724,0.0481 -3.7461,0.0481 -0.87061,0 -1.76277,-0.01 -2.66323,-0.0265 -12.04921,-0.18572 -23.21621,-1.61849 -30.98701,-3.83896 -0.35819,-0.10116 -0.70809,-0.20562 -1.05302,-0.3101 -0.2106,-0.0647 -0.42618,-0.12768 -0.63015,-0.19236 -0.60031,-0.19237 -1.17574,-0.38971 -1.73127,-0.59533 -0.0962,-0.0365 -0.18739,-0.073 -0.28356,-0.10945 -0.46931,-0.17744 -0.92037,-0.36151 -1.35152,-0.5489 -0.12437,-0.0548 -0.25206,-0.10779 -0.37311,-0.16251 -0.45936,-0.20729 -0.90379,-0.41955 -1.31504,-0.6401 -0.18573,-0.0978 -0.34659,-0.199 -0.5207,-0.2985 -0.199,-0.11442 -0.398,-0.2305 -0.58207,-0.34824 -0.10447,-0.0664 -0.22884,-0.12936 -0.32834,-0.19568 -7.42422,1.61021 -9.38102,3.37133 -9.57006,4.05786 z m 51.38909,-26.64034 c -27.34372,0 -41.17395,4.30494 -41.43265,6.77581 0.20065,1.12101 2.74615,2.60187 7.25341,3.99485 v 0 c 5.86707,1.81252 15.04742,3.47248 26.68206,3.98656 0.59533,0.025 1.189,0.0498 1.79594,0.0696 0.49583,0.0166 0.99332,0.0315 1.49911,0.0448 1.37307,0.0315 2.76604,0.053 4.20213,0.053 1.43609,0 2.82906,-0.0216 4.20213,-0.053 0.50413,-0.0116 1.00162,-0.0282 1.49911,-0.0448 0.60859,-0.0182 1.20227,-0.0448 1.79594,-0.0696 11.63463,-0.51408 20.81665,-2.17404 26.68205,-3.98656 v 0 c 4.50893,-1.39298 7.05276,-2.87384 7.25341,-3.99485 -0.25869,-2.47087 -14.08892,-6.77581 -41.43264,-6.77581 z m 41.45751,18.23467 v -6.86673 c -1.32497,0.83414 -3.00318,1.5953 -4.9749,2.28183 v 7.93995 c 3.2254,-1.20891 4.97159,-2.42112 4.9749,-3.35475 z m -8.03281,22.94922 c -0.0249,0.0265 -0.063,0.0497 -0.0879,0.0763 -2.27021,2.29177 -6.9715,4.09268 -12.82364,5.43591 -0.13432,0.0315 -0.27693,0.0614 -0.41292,0.0929 -0.4295,0.0962 -0.86563,0.1907 -1.30673,0.28191 -5.37456,1.14424 -11.79053,1.97172 -18.78027,2.38132 -0.006,0 -0.008,0.002 -0.0116,0.002 -0.004,0 -0.006,-0.002 -0.007,-0.002 -2.24535,0.13102 -4.54209,0.22221 -6.88694,0.26201 -1.03809,0.0216 -2.0596,0.0348 -3.0579,0.0348 -1.14422,0 -2.31831,-0.0133 -3.51228,-0.0414 -2.16905,-0.0448 -4.30661,-0.13432 -6.41431,-0.25704 -0.008,0 -0.0149,0.006 -0.0232,0.006 -0.0149,0 -0.0265,-0.008 -0.0415,-0.008 -7.00797,-0.41291 -13.58314,-1.2487 -19.14342,-2.45098 1.20392,0.63017 2.85228,1.28188 4.90525,1.917 v 0 c 6.19376,1.91368 16.08552,3.65656 28.6571,4.06118 0.37312,0.0116 0.74126,0.0249 1.11935,0.0348 0.40629,0.01 0.8192,0.0166 1.23212,0.025 1.04307,0.0166 2.09277,0.0315 3.17067,0.0315 1.43609,0 2.82906,-0.0216 4.20214,-0.053 0.50411,-0.0116 1.0016,-0.0282 1.4991,-0.0447 0.6086,-0.0182 1.20227,-0.0448 1.79594,-0.0697 11.63464,-0.51407 20.81665,-2.17402 26.68206,-3.98656 v 0 c 4.56033,-1.40955 7.11245,-2.90865 7.26004,-4.03463 -0.18407,-0.62353 -1.86062,-2.18398 -8.01457,-3.69304 z m 8.03281,15.19169 v -6.86702 c -1.32497,0.83413 -3.00318,1.59529 -4.9749,2.28182 v 7.90845 l 0.9469,-0.36815 0.0199,0.0199 c 2.60353,-1.07956 4.00479,-2.13922 4.00811,-2.97501 z m -4.9749,18.24132 v -6.86703 c -1.32498,0.83413 -3.00318,1.59529 -4.9749,2.28183 v 7.93994 c 3.2254,-1.2089 4.9716,-2.42112 4.9749,-3.35474 z m -77.94013,3.35474 v -7.93829 c -1.97173,-0.68654 -3.64992,-1.4477 -4.9749,-2.28182 v 6.86205 c 0.002,0.93362 1.74951,2.1475 4.9749,3.35806 z m -4.95335,-14.82853 c 0.18076,1.12267 2.72791,2.61183 7.25673,4.01144 v 0 c 5.86707,1.81251 15.04742,3.47247 26.68206,3.98655 0.59532,0.0249 1.189,0.0497 1.79594,0.0696 0.49583,0.0166 0.99332,0.0315 1.49909,0.0448 1.37309,0.0298 2.76606,0.0514 4.20215,0.0514 1.43607,0 2.83071,-0.0216 4.20545,-0.0531 0.49915,-0.0116 0.99166,-0.0282 1.48417,-0.0448 0.61192,-0.0199 1.20891,-0.0447 1.80756,-0.0696 11.63464,-0.51407 20.81499,-2.17403 26.68206,-3.98656 v 0 c 4.38619,-1.35482 6.92008,-2.79423 7.23848,-3.9053 -0.49417,0.17247 -1.00659,0.33995 -1.53227,0.50413 -0.053,0.0166 -0.10613,0.0332 -0.1592,0.048 -0.44773,0.13765 -0.90543,0.2703 -1.37472,0.39965 -0.17745,0.0498 -0.35655,0.0995 -0.5373,0.1476 -0.26533,0.0713 -0.5373,0.13929 -0.80924,0.20894 -6.03954,1.54719 -13.74898,2.64334 -22.07199,3.13585 -0.004,0 -0.006,0.002 -0.008,0.002 -0.002,0 -0.004,-0.002 -0.006,-0.002 -2.57036,0.15256 -5.19546,0.24709 -7.84874,0.27859 -0.70643,0.0133 -1.40789,0.0199 -2.09609,0.0199 -0.91373,0 -1.84901,-0.0116 -2.79589,-0.0283 -2.41946,-0.0398 -4.80742,-0.12934 -7.14231,-0.26864 -0.006,0 -0.008,0.004 -0.0133,0.004 -0.008,0 -0.0133,-0.006 -0.0216,-0.006 -2.84398,-0.17081 -5.59676,-0.41458 -8.24175,-0.71805 -0.01,0 -0.0182,0.006 -0.0283,0.006 -0.0364,0 -0.0663,-0.0182 -0.10281,-0.0216 -2.94515,-0.33996 -5.73772,-0.75785 -8.32964,-1.24372 -0.53398,-0.0978 -1.05966,-0.199 -1.58037,-0.30348 -0.11607,-0.0232 -0.23216,-0.0465 -0.34824,-0.0713 -4.89697,-1.00493 -9.13558,-2.30669 -12.04424,-3.92022 -0.1592,-0.0862 -0.30844,-0.17578 -0.45934,-0.26367 -0.18408,-0.10944 -0.35986,-0.22056 -0.53067,-0.33332 -0.1592,-0.10281 -0.34326,-0.20231 -0.4892,-0.30678 -3.27348,1.16744 -4.1756,2.21217 -4.28338,2.6284 z m -0.0216,-21.65409 v -7.93829 c -1.97171,-0.68653 -3.64992,-1.4477 -4.9749,-2.28182 v 6.86205 c 0.002,0.93363 1.7495,2.1475 4.9749,3.35806 z"
     id="path13600-6"
     style="fill:#fa741c;fill-opacity:1;stroke:none;stroke-width:1.65831;stroke-opacity:1" /><path
     d="m 239.25698,106.77593 c 0.16418,-2.83736 3.53881,-5.05451 10.2881,-6.74597 -0.22718,-0.497494 -0.35488,-1.014879 -0.35653,-1.552172 V 86.876315 h 0.0282 c 0.59368,-9.664571 40.19722,-9.949804 44.74594,-9.949804 4.54871,0 44.15226,0.285233 44.74593,9.949804 h 0.0282 v 0.215584 0 0 11.390864 c -0.008,3.150767 -4.07445,5.616667 -10.12392,7.452407 0.0829,0.27528 0.13266,0.55553 0.14924,0.84076 h 0.0249 v 0.21557 0 0 11.37098 c 6.51712,1.6782 9.77237,3.86384 9.93322,6.65476 h 0.0166 v 0.21558 0 0 11.39086 c -0.006,2.19393 -1.98333,4.05455 -5.22033,5.60506 0.12271,0.33663 0.19899,0.6799 0.22055,1.03146 h 0.0249 v 0.21558 0 0 11.39086 c -0.0133,5.51552 -12.43227,8.9399 -26.23099,10.5385 -0.10116,0.0199 -0.19403,0.0614 -0.30181,0.0614 -0.0315,0 -0.0581,-0.0166 -0.0896,-0.0182 -2.65992,0.30015 -5.36294,0.53397 -8.03779,0.70146 -0.0564,0.007 -0.10612,0.0332 -0.16416,0.0332 -0.0315,0 -0.0564,-0.0166 -0.0862,-0.0182 -3.3962,0.20562 -6.73768,0.31009 -9.86358,0.31009 -3.12589,0 -6.46737,-0.10447 -9.86357,-0.31176 -0.0298,0.002 -0.0564,0.0182 -0.0862,0.0182 -0.0581,0 -0.10779,-0.0282 -0.16417,-0.0332 -2.67484,-0.16749 -5.37787,-0.39965 -8.03778,-0.70145 -0.0315,0 -0.0581,0.0166 -0.0896,0.0166 -0.10778,0 -0.20065,-0.0415 -0.30181,-0.0614 -13.79872,-1.5986 -26.21607,-5.02465 -26.23099,-10.54183 v -11.60146 h 0.0265 c 0.11608,-2.03307 1.84901,-3.72951 5.27174,-5.14737 -0.20894,-0.47925 -0.32337,-0.97674 -0.32337,-1.49247 V 125.7801 c -5.9533,-1.83076 -9.94151,-4.28007 -9.94981,-7.40265 v -11.60151 z m 13.42727,30.38172 0.56548,0.49584 c 0.8706,0.76778 2.32161,1.54222 4.23033,2.28845 v -7.90679 c -1.97173,-0.68653 -3.64993,-1.44768 -4.97491,-2.28181 v 6.86204 c 0,0.17082 0.063,0.35323 0.1791,0.54227 z m 37.08955,7.70613 c 0.24211,0.007 0.48589,0.01 0.72965,0.0149 0.59202,0.0116 1.19896,0.0149 1.79926,0.0199 v -8.28321 c -0.45603,-0.006 -0.91207,-0.0116 -1.3681,-0.0199 -0.0879,-0.002 -0.17578,-0.004 -0.26367,-0.006 -1.6699,-0.0315 -3.33982,-0.0829 -5.00143,-0.1592 v 8.27989 c 0.35488,0.0182 0.71141,0.0348 1.07125,0.0497 0.99831,0.0448 2.00655,0.078 3.03304,0.10282 z m 7.2418,0.0232 c 0.75951,-0.0133 1.51569,-0.0315 2.2669,-0.0548 0.0929,-0.004 0.18573,-0.007 0.27859,-0.01 0.90378,-0.0298 1.80092,-0.068 2.69143,-0.1111 v -8.27829 c -1.66162,0.0779 -3.33152,0.12935 -5.00144,0.15919 -0.0879,0.002 -0.17577,0.004 -0.26201,0.006 -0.45603,0.008 -0.91207,0.0148 -1.3681,0.0199 v 8.28817 c 0.32171,-0.004 0.64342,-0.004 0.96347,-0.008 0.14593,-0.004 0.28688,-0.008 0.43116,-0.01 z m 29.95224,-3.78092 c 0.0547,-0.0166 0.10612,-0.0315 0.16085,-0.0464 v -8.01127 c -1.54886,0.41789 -3.21379,0.79932 -4.97491,1.14588 v 8.09418 c 1.52232,-0.32336 2.9269,-0.66332 4.20546,-1.01156 0.20231,-0.0581 0.41126,-0.11278 0.6086,-0.17082 z m -34.95367,13.73238 c -0.45604,0.008 -0.91207,0.0149 -1.3681,0.0199 v 8.28985 c 2.29177,-0.0216 4.50394,-0.0879 6.6332,-0.19238 v -8.2799 c -1.66161,0.0779 -3.33153,0.12935 -5.00143,0.1592 -0.0879,0 -0.17579,0.002 -0.26367,0.004 z m -6.31646,-0.006 c -1.66992,-0.0315 -3.33982,-0.0829 -5.00145,-0.15919 v 8.27989 c 2.12926,0.10447 4.34143,0.17081 6.6332,0.19237 v -8.28984 c -0.45602,-0.006 -0.91205,-0.0116 -1.3681,-0.0199 -0.0879,0 -0.17577,-0.002 -0.26365,-0.004 z m -13.29295,-0.74955 v 8.23512 c 1.59362,0.1675 3.25192,0.31508 4.9749,0.43614 v -8.26995 c -1.68151,-0.10945 -3.34313,-0.24377 -4.9749,-0.40131 z m -3.31661,-0.35819 c -1.7097,-0.20563 -3.36966,-0.43945 -4.97489,-0.6998 v 8.14226 c 1.56212,0.27527 3.22207,0.52899 4.97489,0.7595 z m -8.2915,-1.29182 c -1.76111,-0.34658 -3.42604,-0.72799 -4.9749,-1.14588 v 8.01125 c 1.47755,0.42618 3.14083,0.83911 4.9749,1.22881 z m 56.38224,0 v 8.09417 c 1.83407,-0.3897 3.49735,-0.80262 4.97489,-1.2288 v -8.01126 c -1.54885,0.4179 -3.21379,0.80097 -4.97489,1.14589 z m -3.31661,0.59368 c -1.60524,0.26035 -3.26519,0.49416 -4.9749,0.69981 v 8.20196 c 1.75282,-0.23051 3.41279,-0.48424 4.9749,-0.75951 z m -8.29151,1.05633 c -1.63176,0.15755 -3.29338,0.29187 -4.9749,0.40298 v 8.26993 c 1.72298,-0.12105 3.38128,-0.26864 4.9749,-0.43612 z m 4.11426,-9.91664 c 0.16914,-0.0166 0.33662,-0.0348 0.50411,-0.0514 0.1194,-0.0116 0.23714,-0.0265 0.35654,-0.0381 v -8.23347 c -1.63177,0.15755 -3.29338,0.29187 -4.97491,0.40297 v 8.26331 c 1.39298,-0.0995 2.76937,-0.21225 4.11426,-0.34326 z m 4.17725,-8.68286 v 8.20197 c 1.75282,-0.23052 3.41278,-0.48423 4.97491,-0.75952 v -8.14225 c -1.60524,0.26035 -3.2652,0.49583 -4.97491,0.6998 z m -32.61214,8.94819 c 0.36482,0.0282 0.73296,0.0564 1.10443,0.0829 v -8.26994 c -1.68153,-0.11111 -3.34314,-0.24378 -4.97491,-0.40298 v 8.23512 c 1.02483,0.1078 2.07288,0.20897 3.14911,0.29684 0.24046,0.0216 0.48092,0.0398 0.72137,0.0581 z m -7.18708,-0.74622 v -8.20197 c -1.70971,-0.20562 -3.36966,-0.43945 -4.97491,-0.69979 v 8.14224 c 1.56213,0.27529 3.22209,0.53068 4.97491,0.75952 z m -8.2915,-9.49379 c -1.76112,-0.34658 -3.42605,-0.72799 -4.97491,-1.14588 v 8.01124 c 1.47755,0.4262 3.14083,0.83912 4.97491,1.22881 z m 22.67726,-7.57479 c 1.24704,-0.0315 2.46589,-0.0796 3.66319,-0.13763 0.0647,-0.004 0.12934,-0.007 0.19236,-0.008 v -8.2799 c -1.66162,0.0779 -3.33152,0.12935 -5.00144,0.15919 -0.0879,0.002 -0.17577,0.004 -0.26201,0.006 -0.45603,0.008 -0.91207,0.0149 -1.3681,0.0199 v 8.2799 c 0.8076,-0.008 1.62183,-0.0116 2.40952,-0.0298 0.12106,-0.004 0.24543,-0.006 0.36648,-0.008 z m 38.67987,-23.69853 v -8.01107 c -1.54886,0.417891 -3.21379,0.799305 -4.97491,1.145884 v 8.094176 c 0.20398,-0.0432 0.41458,-0.0862 0.61357,-0.12936 0.88221,-0.19401 1.74288,-0.39633 2.56539,-0.61025 0.62684,-0.16086 1.22217,-0.32502 1.79595,-0.4892 z m -30.13962,-4.462489 c -0.45603,0.0083 -0.91207,0.01484 -1.3681,0.01993 v 8.279899 c 2.23207,-0.0216 4.45088,-0.0796 6.6332,-0.18904 v -8.273271 c -1.66162,0.07794 -3.33152,0.129353 -5.00143,0.159198 -0.0879,0 -0.17578,0.0022 -0.26367,0.0036 z m -6.31647,-0.0057 c -1.66991,-0.03147 -3.33982,-0.08292 -5.00143,-0.159192 v 8.273261 c 0.2819,0.0133 0.55221,0.0332 0.83578,0.0465 0.0232,0.002 0.0465,0.002 0.0713,0.004 1.11271,0.0497 2.24699,0.0862 3.3962,0.11276 0.1791,0.006 0.35819,0.007 0.53729,0.0116 0.59035,0.0116 1.19398,0.0133 1.79262,0.0199 v -8.282975 c -0.45604,-0.0057 -0.91206,-0.01161 -1.36809,-0.01993 -0.0879,-0.0022 -0.17579,-0.0036 -0.26368,-0.0057 z m -37.78771,0.832469 0.0465,-0.01 0.60362,0.469294 c 0.87559,0.681556 2.22047,1.371416 3.9451,2.038056 v -7.888543 c -1.97172,-0.686534 -3.64992,-1.447692 -4.97491,-2.281825 v 6.862064 c 0,0.252054 0.13267,0.524016 0.37975,0.810905 z m 21.17817,6.2518 v -8.192014 c -1.70971,-0.205633 -3.36966,-0.439448 -4.97491,-0.699804 v 8.128988 c 1.57208,0.2786 3.22706,0.53397 4.97491,0.76283 z m -8.2915,-1.40127 v -8.080642 c -1.76112,-0.346586 -3.42605,-0.727993 -4.97491,-1.145884 v 7.992996 c 1.48584,0.43282 3.15907,0.84575 4.97491,1.23378 z m 11.6081,-6.43255 v 8.22517 c 1.60192,0.16915 3.26023,0.31673 4.97491,0.43945 v -8.261398 c -1.68153,-0.111107 -3.34314,-0.245436 -4.97491,-0.402964 z m 33.16602,8.22848 v -8.228179 c -1.63177,0.157528 -3.29338,0.291857 -4.97491,0.402964 v 8.255015 c 1.68816,-0.12105 3.35309,-0.25869 4.97491,-0.4295 z m 3.3166,-8.586681 v 8.193671 c 0.32834,-0.0432 0.66996,-0.0779 0.99499,-0.12272 0.21225,-0.0298 0.41456,-0.0614 0.62351,-0.0912 0.9585,-0.13763 1.89544,-0.28522 2.81414,-0.43944 0.18407,-0.0315 0.36151,-0.0647 0.54227,-0.0962 v -8.142257 c -1.60524,0.258693 -3.2652,0.494164 -4.97491,0.698141 z m -17.83006,28.899231 c 0.22388,-0.0166 0.4494,-0.0332 0.67162,-0.0498 1.06132,-0.0829 2.09775,-0.17412 3.10932,-0.27528 0.21723,-0.0216 0.43448,-0.0448 0.65005,-0.0663 0.0448,-0.006 0.0879,-0.0116 0.13266,-0.0149 v -8.23512 c -1.63176,0.15753 -3.29338,0.29185 -4.9749,0.40296 v 8.26499 c 0.13432,-0.01 0.27694,-0.0166 0.41125,-0.0265 z m 10.9564,-1.23876 c 0.65669,-0.10447 1.27358,-0.21724 1.89876,-0.32668 v -8.13194 c -1.60524,0.26035 -3.26519,0.49418 -4.97491,0.69981 v 8.20196 c 1.01489,-0.13432 2.00821,-0.27362 2.96173,-0.42286 0.0381,-0.008 0.0763,-0.0149 0.11442,-0.0199 z m 5.21536,-9.05267 v 8.0809 c 1.83242,-0.39302 3.49404,-0.81091 4.97491,-1.24539 v -7.9814 c -1.54886,0.41789 -3.21379,0.80096 -4.97491,1.14589 z m 8.29151,-2.15911 v 7.87858 c 2.60684,-1.00658 4.28836,-2.03473 4.8356,-2.95011 l 0.1111,-0.18573 c 0.01,-0.0514 0.0265,-0.10613 0.0282,-0.15755 v -6.86701 c -1.32498,0.83412 -3.00318,1.59528 -4.97489,2.28181 z m -39.7727,4.55867 c -1.6699,-0.0315 -3.33981,-0.0829 -5.00142,-0.1592 v 8.27161 c 2.17899,0.10779 4.39449,0.1675 6.6332,0.1907 v -8.27824 c -0.45603,-0.006 -0.91207,-0.0116 -1.3681,-0.0199 -0.0879,-0.002 -0.17578,-0.004 -0.26368,-0.006 z m -21.43022,6.36291 c 0.728,0.12601 1.46263,0.2504 2.21716,0.36481 0.43281,0.0663 0.87557,0.12935 1.32,0.19236 0.41955,0.0597 0.85568,0.1111 1.28187,0.16583 v -8.19366 c -1.70971,-0.20563 -3.36966,-0.43944 -4.97491,-0.69981 v 8.14227 c 0.0531,0.01 0.10448,0.0199 0.15588,0.0282 z m 11.22836,1.41619 c 0.61855,0.0514 1.257,0.0846 1.88383,0.12935 v -8.25478 c -1.68152,-0.11111 -3.34313,-0.24377 -4.9749,-0.40296 v 8.22683 c 0.96347,0.10116 1.9253,0.20231 2.91529,0.28522 0.0597,0.006 0.11609,0.0116 0.17578,0.0166 z m -18.95106,-3.10933 c 0.82583,0.23051 1.69976,0.44608 2.59192,0.65669 0.41292,0.0962 0.83413,0.19236 1.26528,0.28523 0.12769,0.0282 0.26368,0.053 0.39302,0.0813 v -8.09029 c -1.76111,-0.3466 -3.42605,-0.728 -4.9749,-1.1459 v 8.01126 c 0.2388,0.0663 0.47925,0.13431 0.72468,0.20231 z m -8.99629,-16.13692 c 0.15257,1.12598 2.7047,2.62343 7.26005,4.03133 v 0 c 5.86707,1.81252 15.04743,3.47248 26.68205,3.98655 0.59533,0.0249 1.18901,0.0497 1.79595,0.0697 0.49582,0.0166 0.99332,0.0315 1.49911,0.0448 1.37306,0.0298 2.76604,0.0514 4.20213,0.0514 1.43609,0 2.82905,-0.0216 4.20213,-0.053 0.50413,-0.0116 1.00162,-0.0282 1.49911,-0.0448 0.60859,-0.0182 1.20227,-0.0448 1.79593,-0.0696 11.63464,-0.51408 20.81665,-2.17404 26.68206,-3.98656 v 0 c 4.51887,-1.39629 7.06602,-2.88212 7.25507,-4.00314 -0.008,-0.0315 -0.008,-0.0581 -0.0282,-0.0978 -0.11276,0.0282 -0.23879,0.0514 -0.35321,0.0796 -0.64841,0.15423 -1.31337,0.30347 -1.98997,0.44608 -3.29504,0.70976 -6.94662,1.29183 -10.83699,1.73625 -0.0133,0 -0.0232,0.007 -0.0348,0.007 -0.004,0 -0.007,-0.002 -0.008,-0.002 -2.64997,0.30181 -5.39942,0.53894 -8.22186,0.70644 -0.0216,0 -0.0398,0.0116 -0.0614,0.0116 -0.0116,0 -0.0199,-0.007 -0.0315,-0.007 -2.03142,0.1194 -4.08937,0.20729 -6.1722,0.25372 -1.27523,0.0315 -2.52724,0.0481 -3.74609,0.0481 -0.87062,0 -1.76277,-0.01 -2.66324,-0.0265 -12.04921,-0.18572 -23.21621,-1.61849 -30.98701,-3.83896 -0.35819,-0.10116 -0.70809,-0.20562 -1.05302,-0.3101 -0.2106,-0.0647 -0.42617,-0.12768 -0.63015,-0.19236 -0.60031,-0.19237 -1.17574,-0.38971 -1.73127,-0.59533 -0.0962,-0.0365 -0.18739,-0.073 -0.28356,-0.10945 -0.4693,-0.17744 -0.92037,-0.36151 -1.35152,-0.5489 -0.12437,-0.0548 -0.25206,-0.10778 -0.37311,-0.16251 -0.45936,-0.20729 -0.90378,-0.41955 -1.31504,-0.6401 -0.18573,-0.0978 -0.34659,-0.199 -0.5207,-0.2985 -0.199,-0.11442 -0.398,-0.2305 -0.58207,-0.34824 -0.10447,-0.0664 -0.22884,-0.12936 -0.32834,-0.19568 -7.42422,1.61021 -9.38102,3.37133 -9.57006,4.05786 z m 51.38909,-26.640344 c -27.34372,0 -41.17395,4.304943 -41.43265,6.775812 0.20066,1.121007 2.74616,2.601871 7.25341,3.994848 v 0 c 5.86707,1.812524 15.04742,3.47248 26.68206,3.98656 0.59533,0.02495 1.189,0.04975 1.79594,0.06961 0.49583,0.01656 0.99333,0.03147 1.49911,0.04481 1.37307,0.03147 2.76605,0.05305 4.20213,0.05305 1.43609,0 2.82906,-0.02158 4.20213,-0.05305 0.50413,-0.01161 1.00162,-0.02825 1.49911,-0.04481 0.60859,-0.01821 1.20227,-0.04481 1.79594,-0.06961 11.63463,-0.51408 20.81665,-2.174036 26.68205,-3.98656 v 0 c 4.50893,-1.392977 7.05276,-2.873841 7.25342,-3.994848 -0.2587,-2.470869 -14.08893,-6.775812 -41.43265,-6.775812 z m 41.45752,18.234669 v -6.866724 c -1.32498,0.834133 -3.00318,1.595291 -4.97491,2.281825 v 7.939944 c 3.2254,-1.2089 4.97159,-2.421118 4.97491,-3.354744 z m -8.03281,22.949225 c -0.0249,0.0265 -0.063,0.0498 -0.0879,0.0763 -2.27022,2.29177 -6.97151,4.09269 -12.82365,5.43591 -0.13432,0.0315 -0.27693,0.0614 -0.41292,0.0929 -0.4295,0.0962 -0.86563,0.1907 -1.30673,0.2819 -5.37456,1.14423 -11.79053,1.97172 -18.78027,2.38133 -0.006,0 -0.008,0.002 -0.0116,0.002 -0.004,0 -0.006,-0.002 -0.007,-0.002 -2.24535,0.13101 -4.54209,0.2222 -6.88693,0.26201 -1.0381,0.0216 -2.05961,0.0348 -3.05791,0.0348 -1.14422,0 -2.3183,-0.0133 -3.51228,-0.0414 -2.16905,-0.0448 -4.30661,-0.13431 -6.41431,-0.25704 -0.008,0 -0.0149,0.006 -0.0232,0.006 -0.0149,0 -0.0265,-0.008 -0.0415,-0.008 -7.00797,-0.41291 -13.58314,-1.2487 -19.14342,-2.45098 1.20392,0.63016 2.85229,1.28188 4.90525,1.917 v 0 c 6.19376,1.91368 16.08552,3.65656 28.6571,4.06118 0.37312,0.0116 0.74126,0.025 1.11936,0.0348 0.40628,0.01 0.8192,0.0166 1.23211,0.025 1.04307,0.0166 2.09278,0.0315 3.17067,0.0315 1.43609,0 2.82906,-0.0216 4.20214,-0.053 0.50412,-0.0116 1.00161,-0.0282 1.4991,-0.0447 0.6086,-0.0182 1.20227,-0.0448 1.79594,-0.0697 11.63464,-0.51407 20.81665,-2.17402 26.68206,-3.98656 v 0 c 4.56033,-1.40955 7.11245,-2.90865 7.26004,-4.03464 -0.18407,-0.62352 -1.86061,-2.18398 -8.01457,-3.69304 z m 8.03281,15.19169 v -6.86702 c -1.32498,0.83413 -3.00318,1.59529 -4.97491,2.28181 v 7.90846 l 0.9469,-0.36816 0.0199,0.0199 c 2.60354,-1.07956 4.00479,-2.13921 4.00811,-2.975 z m -4.97491,18.2413 v -6.86702 c -1.32498,0.83413 -3.00318,1.59528 -4.9749,2.28182 v 7.93995 c 3.2254,-1.20891 4.9716,-2.42112 4.9749,-3.35475 z m -77.94013,3.35475 v -7.93829 c -1.97172,-0.68654 -3.64992,-1.4477 -4.9749,-2.28182 v 6.86204 c 0.002,0.93363 1.74951,2.14751 4.9749,3.35807 z m -4.95335,-14.82853 c 0.18076,1.12266 2.72791,2.61183 7.25673,4.01144 v 0 c 5.86707,1.81251 15.04742,3.47247 26.68206,3.98654 0.59533,0.025 1.189,0.0498 1.79594,0.0696 0.49583,0.0166 0.99332,0.0315 1.49909,0.0448 1.37309,0.0298 2.76606,0.0514 4.20215,0.0514 1.43608,0 2.83072,-0.0216 4.20545,-0.053 0.49915,-0.0116 0.99166,-0.0282 1.48417,-0.0448 0.61192,-0.0199 1.20891,-0.0447 1.80756,-0.0696 11.63464,-0.51408 20.81499,-2.17403 26.68206,-3.98656 v 0 c 4.3862,-1.35483 6.92008,-2.79423 7.23848,-3.9053 -0.49417,0.17247 -1.00659,0.33995 -1.53227,0.50413 -0.053,0.0166 -0.10613,0.0332 -0.1592,0.048 -0.44773,0.13765 -0.90543,0.27031 -1.37472,0.39965 -0.17745,0.0498 -0.35655,0.0995 -0.5373,0.14759 -0.26533,0.0713 -0.5373,0.1393 -0.80924,0.20895 -6.03954,1.54719 -13.74898,2.64334 -22.07199,3.13584 -0.004,0 -0.006,0.002 -0.008,0.002 -0.002,0 -0.004,-0.002 -0.006,-0.002 -2.57036,0.15256 -5.19546,0.2471 -7.84874,0.2786 -0.70643,0.0133 -1.40789,0.0199 -2.09608,0.0199 -0.91374,0 -1.84902,-0.0116 -2.7959,-0.0282 -2.41946,-0.0398 -4.80742,-0.12934 -7.14231,-0.26864 -0.006,0 -0.008,0.004 -0.0133,0.004 -0.008,0 -0.0133,-0.006 -0.0216,-0.006 -2.84398,-0.17081 -5.59676,-0.41458 -8.24175,-0.71805 -0.01,0 -0.0182,0.006 -0.0282,0.006 -0.0364,0 -0.0663,-0.0182 -0.10281,-0.0216 -2.94514,-0.33995 -5.73771,-0.75784 -8.32964,-1.24372 -0.53398,-0.0978 -1.05966,-0.19899 -1.58037,-0.30348 -0.11607,-0.0232 -0.23216,-0.0464 -0.34824,-0.0713 -4.89696,-1.00493 -9.13558,-2.30669 -12.04424,-3.92022 -0.1592,-0.0862 -0.30844,-0.17578 -0.45934,-0.26367 -0.18408,-0.10944 -0.35986,-0.22056 -0.53066,-0.33332 -0.15921,-0.10282 -0.34327,-0.20231 -0.48921,-0.30679 -3.27348,1.16745 -4.17559,2.21218 -4.28338,2.62841 z m -0.0216,-21.65408 v -7.93829 c -1.97171,-0.68653 -3.64992,-1.4477 -4.9749,-2.28182 v 6.86205 c 0.002,0.93363 1.7495,2.1475 4.9749,3.35806 z"
     id="path13600-6-7"
     style="fill:#fa741c;fill-opacity:1;stroke:none;stroke-width:1.65831;stroke-opacity:1" /><path
     d="M 302.98091,1.35649 C 304.51014,0.763643 305.81308,0.147246 307.56014,0 l 11.31097,2.57996 -0.006,0.02752 c 9.29054,2.728048 0.76152,41.403328 -0.25004,45.838148 -1.01154,4.434808 -10.09675,42.983241 -19.65134,41.412823 l -0.006,0.02752 -0.2102,-0.04796 v 0 0 L 287.6419,87.304889 c -3.0701,-0.70847 -4.56994,-5.221476 -5.01442,-11.527698 -0.98889,-18.76562 4.32187,-36.816226 19.95969,-74.197344 m 0,0 c 0.0881,-0.03578 0.17659,-0.07092 0.26538,-0.10542 m -16.95363,73.526604 7.81046,1.781516 c -0.063,-1.603014 -0.0646,-3.311073 -0.0109,-5.105157 l -7.89149,-1.8 c -0.003,0.208464 -0.008,0.42336 -0.0103,0.626967 -0.007,0.903263 -0.001,1.787377 0.0245,2.636861 0.0174,0.646922 0.0451,1.26385 0.0776,1.859774 z m 11.05325,-28.392544 c 0.0936,-0.44638 0.18839,-0.892518 0.28484,-1.338261 l -8.07257,-1.841303 c -0.47531,2.180986 -0.91219,4.357127 -1.2908,6.509145 l 8.0661,1.839823 c 0.29357,-1.637331 0.61476,-3.276866 0.95701,-4.911593 0.0196,-0.08572 0.0371,-0.171819 0.0548,-0.257963 z m 1.41051,-6.156966 c 0.40208,-1.621088 0.82355,-3.237753 1.26744,-4.84079 l -8.06609,-1.839826 c -0.0757,0.271886 -0.15518,0.531001 -0.2312,0.804511 -0.007,0.02217 -0.0123,0.04493 -0.0197,0.06861 -0.29589,1.073789 -0.58373,2.171558 -0.86518,3.286081 -0.0457,0.173292 -0.0865,0.347664 -0.13079,0.521256 -0.1426,0.572987 -0.27849,1.161122 -0.41806,1.743312 l 8.07558,1.841985 c 0.10726,-0.443288 0.21413,-0.886647 0.32364,-1.329408 l 0.0645,-0.255742 z m 7.59169,-37.026612 -6e-4,0.04756 -0.59178,0.484142 c -0.85921,0.7021 -1.83087,1.859894 -2.86434,3.393085 l 7.691,1.754268 c 1.10783,-1.769673 2.22313,-3.236581 3.33102,-4.342895 l -6.69023,-1.525995 c -0.24574,-0.05606 -0.5404,0.01281 -0.87505,0.189894 z m -10.8049,19.257568 7.98688,1.821753 c 0.5807,-1.621167 1.1778,-3.18755 1.78861,-4.694709 l -7.92543,-1.80774 c -0.62122,1.470759 -1.23824,3.027512 -1.85006,4.680696 z m 3.21006,-7.772259 7.8783,1.796987 c 0.72955,-1.639945 1.47166,-3.17837 2.22353,-4.595512 l -7.79286,-1.777501 c -0.7524,1.352388 -1.52708,2.891889 -2.30922,4.575971 z m 3.69004,12.747911 -8.0192,-1.829127 c -0.52116,1.524192 -1.03382,3.108157 -1.53478,4.752612 l 8.05453,1.837184 c 0.48228,-1.614719 0.98274,-3.204844 1.4992,-4.760724 z m -15.39796,30.505667 8.02215,1.829802 c 0.20929,-1.625946 0.44784,-3.275822 0.71346,-4.939955 l -8.04831,-1.835769 c -0.25739,1.672813 -0.49346,3.32666 -0.68759,4.945856 z m 7.63413,5.143076 -7.9885,-1.822128 c -0.0309,0.329728 -0.073,0.67051 -0.10163,0.997361 -0.0181,0.213561 -0.0323,0.417836 -0.0497,0.628182 -0.079,0.965105 -0.14344,1.911408 -0.19738,2.841399 -0.0102,0.186464 -0.0173,0.366839 -0.0268,0.550081 l 7.93837,1.81069 c 0.10477,-1.622572 0.24434,-3.293327 0.42568,-5.005585 z m -11.90352,9.167319 c 0.0326,-3.47e-4 0.0585,0.0052 0.10163,-0.0058 -0.002,-0.116197 0.003,-0.244247 9.3e-4,-0.362063 -0.006,-0.666468 -0.004,-1.347973 0.008,-2.039343 0.0408,-3.370364 0.28532,-7.059944 0.71719,-10.951733 0.003,-0.01304 -10e-4,-0.02419 10e-4,-0.03554 0.001,-0.0043 0.004,-0.006 0.004,-0.007 2.09422,-16.704178 6.1641,-34.834129 14.31907,-49.949758 0.17827,-0.326722 0.35794,-0.644631 0.5365,-0.957687 0.10991,-0.190943 0.21926,-0.387112 0.32768,-0.571603 0.32105,-0.54249 0.64141,-1.059633 0.96542,-1.555521 0.057,-0.08564 0.11285,-0.166464 0.16977,-0.252126 0.27736,-0.418084 0.55713,-0.816925 0.83571,-1.195609 0.0811,-0.109079 0.16114,-0.221772 0.24142,-0.327627 0.30425,-0.401762 0.61002,-0.787846 0.91651,-1.139761 0.13665,-0.159337 0.27109,-0.29366 0.40681,-0.441285 0.15581,-0.16857 0.31324,-0.336777 0.46897,-0.490045 0.088,-0.08707 0.17701,-0.194353 0.2638,-0.276607 M 315.3837,47.70857 c 6.08075,-26.659022 4.9592,-41.100288 2.60773,-41.90198 -1.13755,-0.05365 -3.14741,2.098784 -5.50784,6.183396 v 0 c -3.07187,5.317081 -6.7318,13.898409 -9.82034,25.127388 -0.15667,0.574888 -0.31287,1.148178 -0.46725,1.735499 -0.12645,0.479719 -0.2516,0.961447 -0.37705,1.451608 -0.33605,1.331685 -0.66679,2.684997 -0.98615,4.085118 -0.31936,1.400134 -0.60808,2.763022 -0.88281,4.108696 -0.1008,0.494088 -0.19515,0.982835 -0.28969,1.471534 -0.1176,0.5974 -0.22369,1.182122 -0.33153,1.766447 -2.08611,11.457618 -2.50965,20.778856 -2.04688,26.900457 v 0 c 0.3554,4.705795 1.23349,7.51525 2.2818,7.960173 2.46652,0.297255 9.73927,-12.229313 15.82001,-38.888336 z m -26.99746,36.364345 6.69478,1.527036 c -0.5186,-1.477301 -0.88749,-3.282741 -1.11835,-5.357775 l -7.74114,-1.765702 c 0.46137,3.413477 1.25499,5.385493 2.16441,5.596375 z"
     id="path13600-6-7-1"
     style="fill:#fa741c;fill-opacity:1;stroke:none;stroke-width:1.65831;stroke-opacity:1"
     sodipodi:nodetypes="ccccsccccccccccccccccccccccccccsccccccccccsccccccsscccccccccccccccccccccccccccccccsccccccsccccccccccccscsscccssccsscsccccsc" /></g><g
   id="g24480"
   transform="matrix(0.09615412,0,0,0.09615412,67.957681,23.647856)"
   style="fill:#fa741c;fill-opacity:1"><path
     d="m 418.548,231.04 c 0,-21.516 -15.583,-39.449 -36.053,-43.139 -0.799,-25.161 -4.193,-56.219 -14.449,-81.053 -4.364,-10.566 -1.951,-22.746 6.146,-31.029 L 402.04,47.331 c 2.129,-2.178 2.837,-5.377 1.825,-8.25 -1.012,-2.873 -3.568,-4.922 -6.592,-5.285 -2.258,-0.271 -46.536,-5.331 -85.554,8.533 4.797,-7.272 10.846,-15.395 17.931,-22.796 2.216,-2.314 2.837,-5.728 1.578,-8.674 -1.258,-2.946 -4.153,-4.858 -7.357,-4.858 -37.9,0 -74.039,16.88 -96.126,29.783 4.297,-6.938 10.528,-14.579 19.496,-21.423 2.963,-2.261 3.972,-6.269 2.433,-9.663 -1.54,-3.395 -5.22,-5.277 -8.871,-4.538 -33.039,6.679 -65.651,20.116 -73.792,24.254 -25.394,12.91 -46.753,32.574 -61.77,56.866 -15.184,24.563 -23.209,52.824 -23.209,81.728 v 24.93 c -20.369,3.772 -35.848,21.658 -35.848,43.103 0,21.445 15.479,39.331 35.848,43.103 v 32.542 c -0.205,14.839 4.608,29.521 13.557,41.346 l 59.054,78.045 c 18.315,24.205 47.371,38.655 77.723,38.655 30.352,0 59.407,-14.45 77.722,-38.655 l 59.055,-78.045 c 8.773,-11.594 13.461,-25.418 13.557,-40.05 0.003,-0.431 0,-33.839 0,-33.839 20.369,-3.772 35.848,-21.658 35.848,-43.103 z m -356.365,0 c 0,-12.575 8.38,-23.225 19.848,-26.67 v 53.341 C 70.564,254.265 62.183,243.616 62.183,231.04 Z M 366.7,307.947 c -0.073,11.085 -3.64,21.607 -10.315,30.43 l -59.055,78.045 c -15.309,20.231 -39.594,32.309 -64.964,32.309 -25.37,0 -49.655,-12.078 -64.964,-32.309 l -59.054,-78.045 c -6.819,-9.013 -10.483,-20.206 -10.316,-31.517 0,-0.04 0.001,-0.079 0.001,-0.118 L 98.032,163.008 c 0,-25.929 7.199,-51.281 20.819,-73.314 13.473,-21.796 32.634,-39.438 55.411,-51.017 5.171,-2.629 22.354,-9.814 42.942,-16.017 -11.827,16.746 -14.226,31.773 -14.358,32.657 -0.483,3.229 1.044,6.427 3.859,8.081 2.815,1.654 6.353,1.431 8.938,-0.562 0.47,-0.362 42.244,-32.189 89.797,-39.396 -13.022,17.305 -20.449,33.37 -20.843,34.232 -1.492,3.259 -0.633,7.113 2.102,9.431 2.735,2.318 6.678,2.533 9.648,0.528 24.917,-16.819 60.883,-19.158 81.922,-18.871 l -15.518,15.874 c -12.577,12.866 -16.304,31.833 -9.493,48.322 6.132,14.849 13.442,42.16 13.442,87.951 v 0 c 0.001,0 0.003,106.627 0,107.04 z m 16,-50.236 0.001,-53.341 c 11.467,3.446 19.847,14.096 19.847,26.67 0,12.574 -8.38,23.225 -19.848,26.671 z"
     id="path24466"
     style="fill:#fa741c;fill-opacity:1" /><ellipse
     id="circle24468"
     style="fill:#fa741c;fill-opacity:1"
     ry="4.0872216"
     rx="24.81394"
     cy="249.67"
     cx="154.923" /><ellipse
     cx="309.80899"
     cy="249.67"
     id="circle24470"
     style="fill:#fa741c;fill-opacity:1"
     rx="14"
     ry="11.769739" /><path
     d="m 299.14174,194.33683 c -3.125,3.124 -20.68479,16.0689 -17.55979,19.1929 3.124,3.124 11.06859,4.35225 13.34061,0.56323 14.43474,-24.07265 18.84082,-23.27614 28.25748,-0.79653 0.85348,2.03746 2.57352,3.13953 4.62152,3.13953 2.048,0 4.095,-0.781 5.657,-2.343 3.125,-3.124 3.125,-8.189 0,-11.313 -22.41668,-21.85345 -20.57382,-22.18613 -34.31682,-8.44313 z"
     id="path24472"
     style="fill:#fa741c;fill-opacity:1"
     sodipodi:nodetypes="ccsssccc" /><path
     d="m 128.93284,208.16817 c -3.124,3.124 -3.125,8.189 0,11.313 3.124,3.125 8.189,3.125 11.313,0 7.505,-7.505 19.718,-7.505 27.222,0 1.562,1.562 3.609,2.343 5.657,2.343 2.048,0 4.095,-0.781 5.657,-2.343 17.83877,-14.6986 -40.66195,-18.67167 -49.849,-11.313 z"
     id="path24474"
     style="fill:#fa741c;fill-opacity:1"
     sodipodi:nodetypes="ccccscc" /><path
     d="m 337.507,119.961 c -0.697,-0.459 -1.375,-0.881 -2.028,-1.262 -14.547,-8.477 -31.124,-12.958 -47.938,-12.958 h -110.35 c -15.979,0 -31.824,4.066 -45.823,11.758 -17.726,9.741 -28.737,28.391 -28.737,48.673 l 0.001,75.725 c 0,14.668 5.336,29.364 15.082,41.452 l 0.997,1.261 c 13.531,17.115 37.946,21.74 56.79,10.756 17.247,-10.052 36.91,-15.365 56.865,-15.365 19.955,0 39.618,5.313 56.865,15.366 6.881,4.011 14.505,5.94 22.071,5.94 13.153,0 26.129,-5.832 34.718,-16.697 l 1.053,-1.332 c 9.69,-12.016 15.026,-26.712 15.026,-41.381 l 0.001,-75.798 c 10e-4,-18.757 -9.193,-36.005 -24.593,-46.138 z m 8.592,121.936 c 0,11.027 -4.078,22.156 -11.526,31.393 l -1.105,1.397 c -8.621,10.906 -24.175,13.854 -36.181,6.856 -19.689,-11.477 -42.139,-17.542 -64.922,-17.542 -22.782,0 -45.231,6.066 -64.921,17.542 -12.005,6.998 -27.561,4.05 -36.182,-6.856 l -1.149,-1.452 c -7.404,-9.182 -11.481,-20.311 -11.481,-31.338 l -0.001,-75.725 c 0,-14.445 7.833,-27.722 20.442,-34.651 11.645,-6.398 24.825,-9.781 38.118,-9.781 h 110.35 c 13.987,0 27.778,3.729 39.878,10.78 0.415,0.242 0.847,0.513 1.292,0.806 10.889,7.165 17.389,19.416 17.389,32.771 z"
     id="path24476"
     style="fill:#fa741c;fill-opacity:1" /><path
     d="M 267.052,311.258 H 197.68 c -5.287,0 -10.137,3.156 -12.976,8.444 -3.849,7.173 -3.405,16.694 1.079,23.153 3.025,4.357 7.635,8.306 14.095,12.074 10.323,6.021 21.406,9.031 32.488,9.031 11.083,0 22.165,-3.011 32.489,-9.031 6.459,-3.768 11.069,-7.717 14.094,-12.074 v 0 c 4.484,-6.459 4.928,-15.98 1.078,-23.154 -2.838,-5.287 -7.688,-8.443 -12.975,-8.443 z m -1.246,22.472 c -1.129,1.626 -3.609,4.226 -9.013,7.377 -15.752,9.188 -33.102,9.188 -48.854,0 -5.404,-3.152 -7.884,-5.751 -9.013,-7.377 -0.917,-1.321 -1.177,-4.499 -0.124,-6.461 0.002,-0.004 0.004,-0.007 0.005,-0.011 h 67.117 c 0.001,0.003 0.003,0.006 0.005,0.01 1.054,1.963 0.794,5.14 -0.123,6.462 z"
     id="path24478"
     style="fill:#fa741c;fill-opacity:1" /></g><g
   id="g40352"
   transform="matrix(0.69848767,0,0,0.69848767,-89.70325,-82.788385)"
   style="stroke:#fa741c;stroke-opacity:1;stroke-width:1.85830052;stroke-miterlimit:4;stroke-dasharray:none"><path
     id="path20193-9"
     d="m 330.85563,250.06721 c -0.23831,0.0386 -0.41662,0.0918 -0.46969,0.10877 -1.06787,0.31818 -10.244,3.0566 -11.04071,3.43025 -0.91812,0.42502 -1.46306,1.15199 -1.48579,1.18272 l -0.81763,1.30156 c -0.10742,12.05566 -3.58731,6.60844 6.80087,5.1035 2.97888,-0.45094 8.15474,-1.33504 10.38241,-2.1719 1.70037,-0.63876 3.22023,-2.16735 4.39522,-4.42058 0.87288,-1.67398 1.25066,-3.14543 1.26632,-3.20717 l 0.0336,-0.13284 -0.0482,-0.12857 c -0.0102,-0.0278 -0.10681,-0.27852 -0.29863,-0.54153 -0.28857,-0.39576 -0.65061,-0.62367 -1.04682,-0.65911 -0.75519,-0.0676 -1.50183,0.53714 -2.28179,1.84875 -1.04157,1.74746 -2.03508,2.7406 -2.68519,3.26594 -0.60447,0.4885 -1.03066,0.67286 -1.1364,0.71435 l -6.73729,0.97189 -0.86789,-0.46884 c 0.0989,-0.13062 0.29251,-0.26489 0.42362,-0.32817 l 5.54117,-2.29874 0.0133,-0.006 c 0.22858,-0.10391 2.22692,-1.05635 2.01205,-2.49513 -0.058,-0.38839 -0.25179,-0.69462 -0.56027,-0.88578 -0.43056,-0.2667 -0.99498,-0.24697 -1.39231,-0.18358 z m 0.0385,0.88435 c 0.2898,-0.0562 0.68401,-0.0851 0.89302,0.0451 0.0583,0.0365 0.12888,0.0999 0.1542,0.26949 0.0997,0.66761 -1.07412,1.36773 -1.50174,1.56494 l -5.54379,2.29967 -0.0162,0.007 c -0.0268,0.0121 -0.2686,0.12696 -0.5038,0.32835 -0.47631,0.40778 -0.52753,0.81988 -0.48662,1.09376 l 0.0324,0.21673 1.60279,0.86576 7.10388,-1.02471 0.0342,-0.0112 c 0.0869,-0.0275 2.15403,-0.71674 4.33577,-4.37721 0.54851,-0.92246 1.09045,-1.45478 1.44887,-1.42432 0.24497,0.0208 0.44904,0.32054 0.55002,0.51697 -0.25488,0.88762 -1.75887,5.63135 -5.08037,6.87908 -2.15661,0.8101 -6.11058,1.51066 -9.04794,1.95559 -0.49488,0.0737 -0.71737,0.11219 -1.14906,0.17868 l -0.001,-0.009 c -1.83155,0.2619 -3.15462,0.41429 -3.16782,0.41576 l -0.43174,0.1311 c -0.12521,0.0182 0,0 0,0 -5.88845,3.38903 -3.84556,1.01131 -3.99561,-2.01437 l 2.44863,-3.55854 c 0.0623,-0.0787 0.48757,-0.59583 1.14347,-0.89944 0.56033,-0.26273 6.84077,-2.16888 10.92541,-3.38595 l 0.009,-0.003 c 0.0626,-0.02 0.14769,-0.0419 0.2443,-0.0605 z"
     sodipodi:nodetypes="sccccccccccccccccccccscssscsccccscccccccccccccccccccss"
     style="fill:#fa741c;fill-opacity:1;stroke-width:1.85830052;stroke:#fa741c;stroke-opacity:1;stroke-miterlimit:4;stroke-dasharray:none" /><path
     style="clip-rule:evenodd;fill:none;fill-rule:evenodd;stroke:#fa741c;stroke-opacity:1;stroke-width:1.85830052;stroke-miterlimit:4;stroke-dasharray:none"
     d="m 239.32937,350.93068 c -3.919,5.836 -9.14,9.193 -10.443,13.404 -2.106,6.801 5.475,6.808 9.935,5.527 4.179,-1.2 6.475,-4.006 8.889,-4.701 6.23,-1.797 6.389,-5.482 3.868,-14.23 -2.52,-8.749 -9.095,-5.461 -12.249,0 z"
     id="path30769" /><path
     style="clip-rule:evenodd;fill:none;fill-rule:evenodd;stroke:#fa741c;stroke-opacity:1;stroke-width:1.85830052;stroke-miterlimit:4;stroke-dasharray:none"
     d="m 274.90637,350.93068 c 3.919,5.836 9.14,9.193 10.442,13.404 2.146,6.93 -5.846,6.719 -10.184,5.436 -4.111,-1.217 -6.245,-3.92 -8.639,-4.609 -6.229,-1.797 -6.39,-5.482 -3.869,-14.23 2.521,-8.75 9.096,-5.462 12.25,-10e-4 z"
     id="path30771" /><path
     style="clip-rule:evenodd;fill:none;fill-rule:evenodd;stroke:#fa741c;stroke-opacity:1;stroke-width:1.85830052;stroke-miterlimit:4;stroke-dasharray:none"
     d="m 235.21837,275.54468 h 44.077 v 80.263 h -18.308 v -58.286 c 0,-5.003 -7.462,-5.032 -7.462,0 v 58.286 h -18.307 z"
     id="path30773" /><path
     style="clip-rule:evenodd;fill:none;fill-rule:evenodd;stroke:#fa741c;stroke-opacity:1;stroke-width:1.85830052;stroke-miterlimit:4;stroke-dasharray:none"
     d="m 229.40037,362.98068 c -0.229,0.444 -0.419,0.894 -0.561,1.354 -2.113,6.823 5.278,6.815 9.694,5.752 4.625,-1.112 6.592,-4.193 9.129,-4.926 3.341,-0.964 4.936,-2.471 5.308,-5.012 -3.545,2.758 -8.907,5.018 -14.593,6.887 -2.418,-2.68 -5.913,-4.012 -8.977,-4.055 z"
     id="path30775" /><path
     style="fill:none;stroke:#fa741c;stroke-opacity:1;stroke-width:1.85830052;stroke-miterlimit:4;stroke-dasharray:none"
     d="m 236.99037,355.63368 c 0.306,0.094 0.592,0.213 0.858,0.351 l 0.078,-0.006 c 1.706,-0.137 3.468,0.027 4.758,0.739 0.252,0.138 0.344,0.454 0.206,0.706 -0.139,0.252 -0.454,0.344 -0.706,0.205 -0.81,-0.445 -1.873,-0.635 -2.992,-0.652 0.707,0.695 1.212,1.504 1.608,2.185 0.188,0.155 0.246,0.429 0.124,0.649 -0.139,0.252 -0.455,0.345 -0.706,0.206 -0.791,-0.437 -1.759,-0.687 -2.762,-0.796 0.669,0.711 1.15,1.508 1.527,2.158 0.145,0.248 0.06,0.566 -0.188,0.711 -0.248,0.143 -0.566,0.059 -0.71,-0.19 -0.289,-0.498 -0.644,-1.09 -1.096,-1.639 v -2.121 c 0.724,0.043 1.447,0.15 2.128,0.334 -0.276,-0.369 -0.595,-0.729 -0.965,-1.039 -0.166,-0.139 -0.343,-0.267 -0.533,-0.384 -0.212,0.022 -0.422,0.05 -0.63,0.081 v -1.498 z m -5.141,4.472 c -0.231,0.17 -0.557,0.119 -0.727,-0.113 -0.17,-0.23 -0.119,-0.556 0.112,-0.725 0.406,-0.299 1.041,-0.564 1.808,-0.764 h -0.012 c -0.151,0.014 -0.293,-0.038 -0.397,-0.133 -0.054,-0.034 -0.102,-0.078 -0.142,-0.133 -0.169,-0.231 -0.119,-0.557 0.111,-0.727 0.506,-0.37 1.443,-0.762 2.572,-1.061 -0.081,0.004 -0.164,0.009 -0.249,0.018 -0.286,0.024 -0.538,-0.186 -0.563,-0.471 -0.026,-0.285 0.185,-0.538 0.47,-0.563 0.816,-0.075 1.53,0.007 2.158,0.198 v 1.5 c -0.772,0.115 -1.503,0.286 -2.128,0.482 0.445,0.117 0.851,0.289 1.22,0.502 0.301,-0.003 0.604,0.004 0.908,0.023 v 2.121 c -0.216,-0.262 -0.454,-0.514 -0.719,-0.74 -0.15,-0.129 -0.309,-0.25 -0.479,-0.361 -1.71,0.057 -3.261,0.446 -3.943,0.947 z"
     id="path30777" /><path
     style="clip-rule:evenodd;fill:none;fill-rule:evenodd;stroke:#fa741c;stroke-opacity:1;stroke-width:1.85830052;stroke-miterlimit:4;stroke-dasharray:none"
     d="m 284.80737,362.98068 c 0.23,0.444 0.418,0.894 0.561,1.354 2.114,6.823 -5.114,6.734 -9.532,5.671 -4.623,-1.112 -6.753,-4.112 -9.291,-4.845 -3.341,-0.964 -4.935,-2.471 -5.307,-5.012 3.544,2.758 8.906,5.018 14.592,6.887 2.418,-2.68 5.913,-4.012 8.977,-4.055 z"
     id="path30779" /><path
     style="fill:none;stroke:#fa741c;stroke-opacity:1;stroke-width:1.85830052;stroke-miterlimit:4;stroke-dasharray:none"
     d="m 282.35837,360.10568 c 0.232,0.17 0.558,0.119 0.727,-0.113 0.17,-0.23 0.119,-0.556 -0.112,-0.725 -0.406,-0.299 -1.041,-0.564 -1.808,-0.764 h 0.012 c 0.151,0.014 0.294,-0.038 0.396,-0.133 0.055,-0.034 0.102,-0.078 0.143,-0.133 0.17,-0.231 0.119,-0.557 -0.112,-0.727 -0.505,-0.37 -1.442,-0.762 -2.571,-1.061 0.082,0.004 0.165,0.009 0.25,0.018 0.285,0.024 0.538,-0.186 0.563,-0.471 0.025,-0.285 -0.184,-0.538 -0.47,-0.563 -0.815,-0.075 -1.53,0.007 -2.158,0.198 v 1.5 c 0.773,0.115 1.503,0.286 2.129,0.482 -0.446,0.117 -0.852,0.289 -1.222,0.502 -0.301,-0.003 -0.604,0.004 -0.907,0.023 v 2.121 c 0.216,-0.262 0.455,-0.514 0.72,-0.74 0.149,-0.129 0.309,-0.25 0.478,-0.361 1.709,0.057 3.26,0.446 3.942,0.947 z m -5.141,-4.472 c -0.306,0.094 -0.592,0.213 -0.858,0.351 l -0.078,-0.006 c -1.706,-0.137 -3.468,0.027 -4.758,0.739 -0.252,0.138 -0.344,0.454 -0.206,0.706 0.139,0.252 0.455,0.344 0.707,0.205 0.809,-0.445 1.873,-0.635 2.991,-0.652 -0.707,0.695 -1.213,1.504 -1.608,2.185 -0.188,0.155 -0.245,0.429 -0.123,0.649 0.138,0.252 0.454,0.345 0.705,0.206 0.791,-0.437 1.759,-0.687 2.762,-0.796 -0.669,0.711 -1.15,1.508 -1.527,2.158 -0.145,0.248 -0.06,0.566 0.189,0.711 0.248,0.143 0.565,0.059 0.71,-0.19 0.288,-0.498 0.643,-1.09 1.095,-1.639 v -2.121 c -0.724,0.043 -1.446,0.15 -2.128,0.334 0.277,-0.369 0.595,-0.729 0.965,-1.039 0.166,-0.139 0.343,-0.267 0.533,-0.384 0.212,0.022 0.422,0.05 0.63,0.081 v -1.498 z"
     id="path30781" /><path
     id="rect30783-8"
     style="clip-rule:evenodd;fill:none;fill-rule:evenodd;stroke:#fa741c;stroke-opacity:1;stroke-width:1.85830052;stroke-miterlimit:4;stroke-dasharray:none"
     d="m 236.4399,244.05249 -1.03125,34.86719 h 44.07422 l -1.28125,-35.39453"
     sodipodi:nodetypes="cccc" /><path
     id="path30787-2"
     style="clip-rule:evenodd;fill:none;fill-rule:evenodd;stroke:#fa741c;stroke-opacity:1;stroke-width:1.85830052;stroke-miterlimit:4;stroke-dasharray:none"
     d="m 232.63431,254.81648 11.41413,-32.2989 c 2.035,-5.74875 -3.17231,-10.23851 -8.20313,-10.42969 h 3.9e-4 c -3.01849,-0.11471 -5.97397,1.31675 -7.26172,4.95313 l -11.81836,33.38476 c -0.75369,1.51196 -0.98361,1.66673 -0.30904,5.88052"
     sodipodi:nodetypes="ccccccc" /><path
     id="path30787-2-9"
     style="clip-rule:evenodd;fill:none;fill-rule:evenodd;stroke:#fa741c;stroke-opacity:1;stroke-width:1.85830052;stroke-miterlimit:4;stroke-dasharray:none"
     d="m 282.18529,254.64218 -10.81751,-32.40939 c -2.035,-5.74875 3.17231,-10.23851 8.20313,-10.42969 h -3.9e-4 c 3.01849,-0.11471 5.97397,1.31675 7.26172,4.95313 l 11.81836,33.38476 c 0.17239,0.37348 0,0 0,0"
     sodipodi:nodetypes="ccccccc" /><path
     style="clip-rule:evenodd;fill:none;fill-rule:evenodd;stroke:#fa741c;stroke-opacity:1;stroke-width:1.85830052;stroke-miterlimit:4;stroke-dasharray:none"
     d="m 230.83537,280.84968 v 0 c 1.098,-0.002 1.996,0.893 1.998,1.989 l 0.01,4.84 c 0.002,1.096 -0.894,1.994 -1.99,1.997 h -0.001 c -1.096,0.002 -1.995,-0.894 -1.997,-1.989 l -0.009,-4.84 c -0.003,-1.096 0.892,-1.995 1.989,-1.997 z"
     id="path30789" /><path
     style="clip-rule:evenodd;fill:none;fill-rule:evenodd;stroke:#fa741c;stroke-opacity:1;stroke-width:1.85830052;stroke-miterlimit:4;stroke-dasharray:none"
     d="m 232.83337,282.83868 -0.046,-2.679 -16.062,0.13 0.047,2.68 c 0.188,11.839 16.296,13.564 16.061,-0.131 z"
     id="path30791" /><path
     id="path30793"
     style="clip-rule:evenodd;fill:none;fill-rule:evenodd;stroke:#fa741c;stroke-opacity:1;stroke-width:1.85830052;stroke-miterlimit:4;stroke-dasharray:none"
     d="m 216.28725,254.81047 0.4375,25.47851 16.0625,-0.1289 -0.0977,-25.63086"
     sodipodi:nodetypes="cccc" /><polygon
     style="clip-rule:evenodd;fill:none;fill-rule:evenodd;stroke:#fa741c;stroke-opacity:1;stroke-width:1.85830052;stroke-miterlimit:4;stroke-dasharray:none"
     points="108.175,71.767 100.666,60.255 97.413,64.009 101.417,79.774 "
     id="polygon30795"
     transform="translate(146.29037,148.41168)" /><polygon
     style="clip-rule:evenodd;fill:none;fill-rule:evenodd;stroke:#fa741c;stroke-opacity:1;stroke-width:1.85830052;stroke-miterlimit:4;stroke-dasharray:none"
     points="114.431,71.767 121.938,60.255 125.191,64.009 121.187,79.774 "
     id="polygon30797"
     transform="translate(146.29037,148.41168)" /><path
     style="clip-rule:evenodd;fill:none;fill-rule:evenodd;stroke:#fa741c;stroke-opacity:1;stroke-width:1.85830052;stroke-miterlimit:4;stroke-dasharray:none"
     d="m 261.48437,221.08468 c -1.216,0.78 -2.719,0.949 -4.228,0.949 l 3.464,-1.855 z m -4.227,0.949 -2.792,-1.855 -0.947,1.121 c 1.121,0.576 2.418,0.734 3.739,0.734 z"
     id="path30799" /><polygon
     style="clip-rule:evenodd;fill:none;fill-rule:evenodd;stroke:#fa741c;stroke-opacity:1;stroke-width:1.85830052;stroke-miterlimit:4;stroke-dasharray:none"
     points="86.497,131.748 70.435,131.878 70.376,128.396 86.484,128.255 "
     id="polygon30801"
     transform="translate(146.29037,148.41168)" /><polygon
     style="clip-rule:evenodd;fill:none;fill-rule:evenodd;stroke:#fa741c;stroke-opacity:1;stroke-width:1.85830052;stroke-miterlimit:4;stroke-dasharray:none"
     points="86.497,131.748 70.435,131.878 70.376,128.396 86.484,128.255 "
     id="polygon30801-3"
     transform="rotate(-90,260.91749,76.296315)" /><path
     id="path30809"
     style="clip-rule:evenodd;fill:none;fill-rule:evenodd;stroke:#fa741c;stroke-opacity:1;stroke-width:1.85830052;stroke-miterlimit:4;stroke-dasharray:none"
     d="m 278.20162,243.52515 c 1.10203,4.00427 4.42869,10.24236 4.59782,14.78525 -0.0319,0.73616 2.51372,5.02815 8.04493,8.42187 l 25.6068,0.047 -0.082,-16.0625 -17.71857,-0.57581"
     sodipodi:nodetypes="cccccc" /></g><g
   id="g30835"
   transform="translate(146.29037,148.41168)">
</g><g
   id="g30837"
   transform="translate(146.29037,148.41168)">
</g><g
   id="g30839"
   transform="translate(146.29037,148.41168)">
</g><g
   id="g30841"
   transform="translate(146.29037,148.41168)">
</g><g
   id="g30843"
   transform="translate(146.29037,148.41168)">
</g><g
   id="g30845"
   transform="translate(146.29037,148.41168)">
</g><g
   id="g30847"
   transform="translate(146.29037,148.41168)">
</g><g
   id="g30849"
   transform="translate(146.29037,148.41168)">
</g><g
   id="g30851"
   transform="translate(146.29037,148.41168)">
</g><g
   id="g30853"
   transform="translate(146.29037,148.41168)">
</g><g
   id="g30855"
   transform="translate(146.29037,148.41168)">
</g><g
   id="g30857"
   transform="translate(146.29037,148.41168)">
</g><g
   id="g30859"
   transform="translate(146.29037,148.41168)">
</g><g
   id="g30861"
   transform="translate(146.29037,148.41168)">
</g><g
   id="g30863"
   transform="translate(146.29037,148.41168)">
</g></svg>
