<?xml version="1.0" encoding="UTF-8" standalone="no"?>
<svg
   viewBox="0 0 46.14711 46.243851"
   height="174.86581"
   width="174.5"
   version="1.1"
   id="svg11967"
   sodipodi:docname="xbank.svg"
   inkscape:version="1.1.2 (b8e25be833, 2022-02-05)"
   xmlns:inkscape="http://www.inkscape.org/namespaces/inkscape"
   xmlns:sodipodi="http://sodipodi.sourceforge.net/DTD/sodipodi-0.dtd"
   xmlns="http://www.w3.org/2000/svg"
   xmlns:svg="http://www.w3.org/2000/svg">
  <defs
     id="defs11971" />
  <sodipodi:namedview
     id="namedview11969"
     pagecolor="#505050"
     bordercolor="#ffffff"
     borderopacity="1"
     inkscape:pageshadow="0"
     inkscape:pageopacity="0"
     inkscape:pagecheckerboard="1"
     showgrid="false"
     inkscape:zoom="2.56"
     inkscape:cx="89.648438"
     inkscape:cy="87.304688"
     inkscape:window-width="1920"
     inkscape:window-height="1001"
     inkscape:window-x="-9"
     inkscape:window-y="-9"
     inkscape:window-maximized="1"
     inkscape:current-layer="g12118"
     fit-margin-top="0"
     fit-margin-left="-0.2"
     fit-margin-right="0"
     fit-margin-bottom="0" />
  <g
     id="g12033"
     transform="translate(-0.06150121,-0.04384995)">
    <g
       id="g12118"
       transform="translate(15.4)">
      <circle
         transform="scale(-1,1)"
         r="7.6999998"
         cy="7.7438498"
         cx="-23.096752"
         class="st0"
         fill="#fa741c"
         id="circle11961"
         style="fill:#f7bf23;fill-opacity:1" />
      <path
         d="m 12.80861,23.1877 c 0,5.7 4.6,7.7 10.3,7.7 a 7.7,7.7 0 1 1 -7.7,7.7 c 0,-5.7 -2,-10.3 -7.6999995,-10.3 -5.7,0 -7.69999996,4.6 -7.69999996,10.3 a 7.7,7.7 0 1 1 -7.70000004,-7.7 c 5.7,0 10.3,-2 10.3,-7.7 0,-5.7 -4.7,-7.7 -10.3,-7.7 a 7.7,7.7 0 1 1 7.70000004,-7.7 c 0,5.7 1.99999996,10.3 7.69999996,10.3 a 5.1,5.1 0 0 1 5.0999995,5"
         class="st1"
         fill="#ffffff"
         id="path11963" />
      <circle
         transform="scale(-1,1)"
         r="3.2"
         cy="16.04385"
         cx="-14.096753"
         class="st0"
         fill="#fa741c"
         id="circle11965"
         style="fill:#f7bf23;fill-opacity:1" />
    </g>
  </g>
</svg>
