<?xml version="1.0" encoding="UTF-8" standalone="no"?>
<!-- Generator: Adobe Illustrator 23.0.6, SVG Export Plug-In . SVG Version: 6.00 Build 0)  -->

<svg
   xmlns:dc="http://purl.org/dc/elements/1.1/"
   xmlns:cc="http://creativecommons.org/ns#"
   xmlns:rdf="http://www.w3.org/1999/02/22-rdf-syntax-ns#"
   xmlns:svg="http://www.w3.org/2000/svg"
   xmlns="http://www.w3.org/2000/svg"
   xmlns:sodipodi="http://sodipodi.sourceforge.net/DTD/sodipodi-0.dtd"
   xmlns:inkscape="http://www.inkscape.org/namespaces/inkscape"
   version="1.1"
   id="Layer_1"
   x="0px"
   y="0px"
   viewBox="0 0 684 195"
   style="enable-background:new 0 0 684 195;"
   xml:space="preserve"
   sodipodi:docname="xcash_light.svg"
   inkscape:version="0.92.4 (5da689c313, 2019-01-14)"><metadata
   id="metadata29"><rdf:RDF><cc:Work
       rdf:about=""><dc:format>image/svg+xml</dc:format><dc:type
         rdf:resource="http://purl.org/dc/dcmitype/StillImage" /><dc:title></dc:title></cc:Work></rdf:RDF></metadata><defs
   id="defs27">
	
	
	
	
</defs><sodipodi:namedview
   pagecolor="#ffffff"
   bordercolor="#666666"
   borderopacity="1"
   objecttolerance="10"
   gridtolerance="10"
   guidetolerance="10"
   inkscape:pageopacity="0"
   inkscape:pageshadow="2"
   inkscape:window-width="2560"
   inkscape:window-height="1371"
   id="namedview25"
   showgrid="false"
   inkscape:zoom="2.9093424"
   inkscape:cx="199.67256"
   inkscape:cy="152.65061"
   inkscape:window-x="1440"
   inkscape:window-y="577"
   inkscape:window-maximized="1"
   inkscape:current-layer="Layer_1" />
<style
   type="text/css"
   id="style2">
	.st0{display:none;fill:#5E5E5E;}
	.st1{fill:#FFFFFF;}
</style>
<rect
   x="-419"
   y="-187"
   class="st0"
   width="1409"
   height="740"
   id="rect4" />
<g
   id="g14">
		<path
   style="fill:#ffffff"
   inkscape:connector-curvature="0"
   id="path6"
   d="m 293.8,153.5 c -5.2,10.1 -12.5,18.3 -21.8,24.8 -9.4,6.4 -21,9.6 -35,9.6 -9.3,0 -17.8,-1.6 -25.5,-4.8 -7.7,-3.2 -14.4,-7.6 -20,-13.3 -5.6,-5.7 -10,-12.4 -13.2,-20.1 -3.2,-7.7 -4.8,-16.2 -4.8,-25.5 0,-9.3 1.6,-17.8 4.8,-25.6 3.2,-7.8 7.6,-14.5 13.2,-20.1 5.6,-5.6 12.3,-10 20,-13.2 7.7,-3.2 16.2,-4.8 25.5,-4.8 13.8,0 25.5,3.2 34.9,9.5 9.4,6.3 16.3,14.6 20.7,24.6 l -29.3,12.2 c -2.8,-5.5 -6.3,-9.7 -10.6,-12.6 -4.3,-2.8 -9.7,-4.3 -16.2,-4.3 -4.2,0 -8.2,0.8 -12,2.4 -3.7,1.6 -7,3.9 -9.9,6.8 -2.8,2.9 -5.1,6.5 -6.7,10.7 -1.6,4.2 -2.4,8.9 -2.4,14.2 0,5.2 0.8,9.9 2.4,14.2 1.6,4.2 3.9,7.8 6.7,10.7 2.8,2.9 6.1,5.2 9.9,6.8 3.7,1.6 7.7,2.4 12,2.4 6.7,0 12.3,-1.5 17,-4.5 4.6,-3 8.3,-7.4 11.1,-13.1 z"
   class="st1" />
		<path
   style="fill:#ffffff"
   inkscape:connector-curvature="0"
   id="path8"
   d="m 385.8,171.3 h -2 c -3.7,4.6 -8.3,8.5 -13.5,11.7 -5.3,3.3 -12.1,4.9 -20.4,4.9 -6.2,0 -12,-1 -17.4,-3.1 -5.5,-2 -10.2,-4.8 -14.3,-8.4 -4.1,-3.6 -7.2,-7.9 -9.5,-12.9 -2.3,-5 -3.4,-10.6 -3.4,-16.6 0,-6.2 1.2,-11.7 3.7,-16.7 2.4,-5 5.9,-9.2 10.2,-12.8 4.4,-3.6 9.6,-6.3 15.5,-8.2 5.9,-1.9 12.4,-2.8 19.4,-2.8 7.8,0 14.2,0.6 19.3,1.8 5,1.2 9.2,2.5 12.4,3.8 v -3.7 c 0,-6.3 -2.5,-11.6 -7.6,-15.7 -5,-4.1 -11.3,-6.2 -18.8,-6.2 -11.1,0 -20.4,4.6 -28.1,13.9 L 308.1,84.4 c 12.7,-15.9 30,-23.9 52,-23.9 18.5,0 32.7,4.4 42.5,13.1 9.8,8.7 14.6,21.6 14.6,38.7 V 184 h -31.5 z m 0,-35.8 c -3.7,-1.8 -7.6,-3.2 -11.6,-4.3 -4,-1.1 -8.3,-1.6 -13.1,-1.6 -7.6,0 -13.5,1.7 -17.7,5 -4.1,3.3 -6.2,7.4 -6.2,12.3 0,4.9 2,8.8 6,11.7 4,2.9 8.6,4.4 13.8,4.4 4.2,0 8.1,-0.8 11.7,-2.3 3.6,-1.5 6.6,-3.6 9.1,-6.1 2.5,-2.5 4.5,-5.4 5.9,-8.8 1.4,-3.3 2.1,-6.8 2.1,-10.3 z"
   class="st1" />
		<path
   style="fill:#ffffff"
   inkscape:connector-curvature="0"
   id="path10"
   d="m 488.8,187.9 c -7.8,0 -14.8,-1 -20.9,-2.9 -6.1,-2 -11.4,-4.5 -15.9,-7.7 -4.5,-3.2 -8.3,-6.8 -11.3,-11 -3.1,-4.1 -5.5,-8.3 -7.1,-12.6 l 28.5,-12.2 c 2.8,6.2 6.5,10.8 11.1,13.8 4.6,3 9.8,4.5 15.5,4.5 5.9,0 10.5,-1.1 13.9,-3.2 3.4,-2.1 5.1,-4.6 5.1,-7.6 0,-3.3 -1.4,-5.9 -4.3,-7.9 -2.8,-2 -7.8,-3.9 -14.8,-5.5 L 472,132 c -3.7,-0.8 -7.6,-2.1 -11.6,-3.9 -4,-1.8 -7.6,-4.1 -10.9,-6.8 -3.3,-2.8 -5.9,-6.1 -8.1,-10 -2.1,-3.9 -3.2,-8.5 -3.2,-13.7 0,-5.9 1.3,-11.1 3.8,-15.6 2.5,-4.6 6,-8.4 10.4,-11.6 4.4,-3.2 9.6,-5.6 15.5,-7.3 5.9,-1.7 12.3,-2.6 19.2,-2.6 11.4,0 21.6,2.2 30.5,6.7 8.9,4.5 15.5,11.6 19.8,21.3 l -27.6,11.2 c -2.3,-4.7 -5.6,-8.1 -10,-10.2 -4.4,-2.1 -8.8,-3.2 -13.2,-3.2 -4.6,0 -8.5,0.9 -12,2.8 -3.4,1.9 -5.1,4.3 -5.1,7.2 0,2.8 1.4,5 4.3,6.6 2.8,1.6 6.7,3.1 11.6,4.4 l 18.3,4.4 c 12.2,2.9 21.3,7.6 27.2,14 5.9,6.4 8.9,14 8.9,22.8 0,5.2 -1.2,10.2 -3.7,14.9 -2.4,4.7 -5.9,8.9 -10.4,12.6 -4.5,3.7 -9.8,6.5 -16.1,8.7 -6.2,2.2 -13.2,3.2 -20.8,3.2 z"
   class="st1" />
		<path
   style="fill:#ffffff"
   inkscape:connector-curvature="0"
   id="path12"
   d="m 559.3,9.3 h 32 v 49 l -2,21.7 h 2 c 3.4,-5.7 8.3,-10.4 14.8,-14 6.4,-3.7 13.6,-5.5 21.6,-5.5 15.5,0 26.9,4.6 34.3,13.7 7.4,9.1 11.1,21.6 11.1,37.3 V 184 h -32 v -68.6 c 0,-8.3 -2,-14.6 -5.9,-18.9 -3.9,-4.3 -9.4,-6.5 -16.3,-6.5 -4.4,0 -8.3,0.9 -11.7,2.8 -3.4,1.9 -6.3,4.4 -8.7,7.7 -2.4,3.3 -4.1,7 -5.4,11.3 -1.2,4.3 -1.8,8.9 -1.8,13.8 V 184 h -32 z"
   class="st1" />
	</g><circle
   style="fill:#ff6d00;fill-opacity:1"
   id="circle16"
   r="20"
   cy="84.300003"
   cx="30"
   class="st1" /><path
   style="fill:#ffffff"
   inkscape:connector-curvature="0"
   id="path18"
   d="m 56.5,124.2 c 0,14.7 -11.9,19.9 -26.6,19.9 -11,0 -20,8.9 -20,20 0,11.1 8.9,20 20,20 11.1,0 20,-8.9 20,-20 0,-14.7 5.3,-26.6 19.9,-26.6 14.6,0 19.9,11.9 19.9,26.6 0,11 8.9,20 20,20 11.1,0 20,-8.9 20,-20 0,-11.1 -8.9,-20 -20,-20 -14.7,0 -26.6,-5.2 -26.6,-19.9 0,-14.7 11.9,-19.9 26.6,-19.9 11,0 20,-8.9 20,-20 0,-11.1 -8.9,-20 -20,-20 -11.1,0 -20,8.9 -20,20 0,14.7 -5.2,26.6 -19.9,26.6 v 0 c -7.3,0 -13.2,5.9 -13.3,13.3"
   class="st1" /><circle
   style="fill:#ff6d00;fill-opacity:1"
   id="circle20"
   r="8.3000002"
   cy="105.8"
   cx="53.299999"
   class="st1" />
</svg>