<svg xmlns="http://www.w3.org/2000/svg" viewBox="0 0 46.2 46.2" height="174.7" width="174.7" >
  <path  stroke-width=".3" d="M0 0h46.2v46.2H0z"/>
  <circle transform="translate(-2.6 -1)" r="7.7" cy="8.7" cx="10.3" class="st0" fill="#fa741c"/>
  <path d="M18 23.1c0 5.7-4.6 7.7-10.3 7.7a7.7 7.7 0 107.7 7.7c0-5.7 2-10.3 7.7-10.3s7.7 4.6 7.7 10.3a7.7 7.7 0 107.7-7.7c-5.7 0-10.3-2-10.3-7.7s4.7-7.7 10.3-7.7a7.7 7.7 0 10-7.7-7.7c0 5.7-2 10.3-7.7 10.3A5.1 5.1 0 0018 23" class="st1" fill="#fff"/>
  <circle transform="translate(-2.6 -1)" r="3.2" cy="17" cx="19.3" class="st0" fill="#fa741c"/>
</svg>
