<?xml version="1.0" encoding="UTF-8" standalone="no"?>
<!-- Generator: Adobe Illustrator 23.0.6, SVG Export Plug-In . SVG Version: 6.00 Build 0)  -->

<svg
   version="1.1"
   id="Layer_1"
   x="0px"
   y="0px"
   viewBox="0 0 2533.722 2288.2065"
   xml:space="preserve"
   sodipodi:docname="xcash_pip.svg"
   inkscape:version="1.1.2 (b8e25be833, 2022-02-05)"
   width="2533.7219"
   height="2288.2065"
   xmlns:inkscape="http://www.inkscape.org/namespaces/inkscape"
   xmlns:sodipodi="http://sodipodi.sourceforge.net/DTD/sodipodi-0.dtd"
   xmlns="http://www.w3.org/2000/svg"
   xmlns:svg="http://www.w3.org/2000/svg"
   xmlns:rdf="http://www.w3.org/1999/02/22-rdf-syntax-ns#"
   xmlns:cc="http://creativecommons.org/ns#"
   xmlns:dc="http://purl.org/dc/elements/1.1/"><metadata
   id="metadata29"><rdf:RDF><cc:Work
       rdf:about=""><dc:format>image/svg+xml</dc:format><dc:type
         rdf:resource="http://purl.org/dc/dcmitype/StillImage" /></cc:Work></rdf:RDF></metadata><defs
   id="defs27"><rect
   x="-670.33722"
   y="-370.52396"
   width="3767.4648"
   height="709.93518"
   id="rect59187" /><rect
   x="2764"
   y="68"
   width="336"
   height="96"
   id="rect41198" /><rect
   x="681.94104"
   y="-2.7497623"
   width="848.30164"
   height="203.48241"
   id="rect10262" />
	
	
	
	
<clipPath
   id="id17-3-0-5-1"><path
     d="M 407.207,28.46875 H 609 v 201.5312 H 407.207 Z"
     id="path1764" /></clipPath><clipPath
   id="id18-5-7-8-6"><path
     d="m 541.8242,28.4375 c -68.79688,0 -64.50391,29.83203 -64.50391,29.83203 l 0.0781,30.90234 h 65.64453 v 9.277344 h -91.71875 c 0,0 -44.01953,-4.988281 -44.01953,64.414056 -0.004,69.41016 38.42187,66.94922 38.42187,66.94922 h 22.92969 v -32.21094 c 0,0 -1.23828,-38.41797 37.80859,-38.41797 h 65.11328 c 0,0 36.57422,0.59375 36.57422,-35.35156 V 64.402334 c 0,0 5.5586,-35.96484 -66.32812,-35.96484 z m -36.20313,20.78125 c 6.53125,0 11.8086,5.277344 11.8086,11.80859 0,6.531246 -5.27735,11.8125 -11.8086,11.8125 -6.53125,0 -11.8125,-5.28125 -11.8125,-11.8125 0,-6.53125 5.28125,-11.80859 11.8125,-11.80859 z"
     id="path1767" /></clipPath><clipPath
   id="id21-3-7-8-8"><path
     d="m 543.7773,297.9922 c 68.78907,0 64.49219,-29.83594 64.49219,-29.83594 l -0.0742,-30.90625 h -65.65234 v -9.27344 h 91.72265 c 0,0 44.02344,4.98828 44.02344,-64.41406 0,-69.40625 -38.42187,-66.94531 -38.42187,-66.94531 h -22.92969 v 32.20703 c 0,0 1.23047,38.42187 -37.80469,38.42187 H 514.0117 c 0,0 -36.57813,-0.59375 -36.57813,35.35157 v 59.42968 c 0,0 -5.55468,35.96485 66.34375,35.96485 z m 36.19141,-20.78516 c -6.52344,0 -11.80859,-5.28125 -11.80859,-11.80859 0,-6.53516 5.28515,-11.8086 11.80859,-11.8086 6.53906,0 11.8125,5.27344 11.8125,11.8086 0,6.52734 -5.27344,11.80859 -11.8125,11.80859 z"
     id="path1770" /></clipPath></defs><sodipodi:namedview
   pagecolor="#8b8b8b"
   bordercolor="#666666"
   borderopacity="1"
   objecttolerance="10"
   gridtolerance="10"
   guidetolerance="10"
   inkscape:pageopacity="0.63921569"
   inkscape:pageshadow="2"
   inkscape:window-width="1920"
   inkscape:window-height="1001"
   id="namedview25"
   showgrid="false"
   inkscape:zoom="0.125"
   inkscape:cx="227.99999"
   inkscape:cy="2355.9999"
   inkscape:window-x="-9"
   inkscape:window-y="-9"
   inkscape:window-maximized="1"
   inkscape:current-layer="Layer_1"
   inkscape:pagecheckerboard="true"
   fit-margin-top="0"
   fit-margin-left="0"
   fit-margin-right="0"
   fit-margin-bottom="0" />
<style
   type="text/css"
   id="style2">
	.st0{display:none;fill:#5E5E5E;}
	.st1{fill:#FFFFFF;}
</style>
<rect
   x="-1163.4523"
   y="1876.3894"
   class="st0"
   width="1409"
   height="740"
   id="rect4" />
<g
   id="g53273"
   transform="matrix(1.2616104,0,0,1.2616104,1697.0219,2030.1599)"><g
     id="g14"
     transform="translate(-9.9,-9.3)">
		<path
   style="fill:#ffffff"
   inkscape:connector-curvature="0"
   id="path6"
   d="m 293.8,153.5 c -5.2,10.1 -12.5,18.3 -21.8,24.8 -9.4,6.4 -21,9.6 -35,9.6 -9.3,0 -17.8,-1.6 -25.5,-4.8 -7.7,-3.2 -14.4,-7.6 -20,-13.3 -5.6,-5.7 -10,-12.4 -13.2,-20.1 -3.2,-7.7 -4.8,-16.2 -4.8,-25.5 0,-9.3 1.6,-17.8 4.8,-25.6 3.2,-7.8 7.6,-14.5 13.2,-20.1 5.6,-5.6 12.3,-10 20,-13.2 7.7,-3.2 16.2,-4.8 25.5,-4.8 13.8,0 25.5,3.2 34.9,9.5 9.4,6.3 16.3,14.6 20.7,24.6 l -29.3,12.2 c -2.8,-5.5 -6.3,-9.7 -10.6,-12.6 -4.3,-2.8 -9.7,-4.3 -16.2,-4.3 -4.2,0 -8.2,0.8 -12,2.4 -3.7,1.6 -7,3.9 -9.9,6.8 -2.8,2.9 -5.1,6.5 -6.7,10.7 -1.6,4.2 -2.4,8.9 -2.4,14.2 0,5.2 0.8,9.9 2.4,14.2 1.6,4.2 3.9,7.8 6.7,10.7 2.8,2.9 6.1,5.2 9.9,6.8 3.7,1.6 7.7,2.4 12,2.4 6.7,0 12.3,-1.5 17,-4.5 4.6,-3 8.3,-7.4 11.1,-13.1 z"
   class="st1" />
		<path
   style="fill:#ffffff"
   inkscape:connector-curvature="0"
   id="path8"
   d="m 385.8,171.3 h -2 c -3.7,4.6 -8.3,8.5 -13.5,11.7 -5.3,3.3 -12.1,4.9 -20.4,4.9 -6.2,0 -12,-1 -17.4,-3.1 -5.5,-2 -10.2,-4.8 -14.3,-8.4 -4.1,-3.6 -7.2,-7.9 -9.5,-12.9 -2.3,-5 -3.4,-10.6 -3.4,-16.6 0,-6.2 1.2,-11.7 3.7,-16.7 2.4,-5 5.9,-9.2 10.2,-12.8 4.4,-3.6 9.6,-6.3 15.5,-8.2 5.9,-1.9 12.4,-2.8 19.4,-2.8 7.8,0 14.2,0.6 19.3,1.8 5,1.2 9.2,2.5 12.4,3.8 v -3.7 c 0,-6.3 -2.5,-11.6 -7.6,-15.7 -5,-4.1 -11.3,-6.2 -18.8,-6.2 -11.1,0 -20.4,4.6 -28.1,13.9 L 308.1,84.4 c 12.7,-15.9 30,-23.9 52,-23.9 18.5,0 32.7,4.4 42.5,13.1 9.8,8.7 14.6,21.6 14.6,38.7 V 184 h -31.5 z m 0,-35.8 c -3.7,-1.8 -7.6,-3.2 -11.6,-4.3 -4,-1.1 -8.3,-1.6 -13.1,-1.6 -7.6,0 -13.5,1.7 -17.7,5 -4.1,3.3 -6.2,7.4 -6.2,12.3 0,4.9 2,8.8 6,11.7 4,2.9 8.6,4.4 13.8,4.4 4.2,0 8.1,-0.8 11.7,-2.3 3.6,-1.5 6.6,-3.6 9.1,-6.1 2.5,-2.5 4.5,-5.4 5.9,-8.8 1.4,-3.3 2.1,-6.8 2.1,-10.3 z"
   class="st1" />
		<path
   style="fill:#ffffff"
   inkscape:connector-curvature="0"
   id="path10"
   d="m 488.8,187.9 c -7.8,0 -14.8,-1 -20.9,-2.9 -6.1,-2 -11.4,-4.5 -15.9,-7.7 -4.5,-3.2 -8.3,-6.8 -11.3,-11 -3.1,-4.1 -5.5,-8.3 -7.1,-12.6 l 28.5,-12.2 c 2.8,6.2 6.5,10.8 11.1,13.8 4.6,3 9.8,4.5 15.5,4.5 5.9,0 10.5,-1.1 13.9,-3.2 3.4,-2.1 5.1,-4.6 5.1,-7.6 0,-3.3 -1.4,-5.9 -4.3,-7.9 -2.8,-2 -7.8,-3.9 -14.8,-5.5 L 472,132 c -3.7,-0.8 -7.6,-2.1 -11.6,-3.9 -4,-1.8 -7.6,-4.1 -10.9,-6.8 -3.3,-2.8 -5.9,-6.1 -8.1,-10 -2.1,-3.9 -3.2,-8.5 -3.2,-13.7 0,-5.9 1.3,-11.1 3.8,-15.6 2.5,-4.6 6,-8.4 10.4,-11.6 4.4,-3.2 9.6,-5.6 15.5,-7.3 5.9,-1.7 12.3,-2.6 19.2,-2.6 11.4,0 21.6,2.2 30.5,6.7 8.9,4.5 15.5,11.6 19.8,21.3 l -27.6,11.2 c -2.3,-4.7 -5.6,-8.1 -10,-10.2 -4.4,-2.1 -8.8,-3.2 -13.2,-3.2 -4.6,0 -8.5,0.9 -12,2.8 -3.4,1.9 -5.1,4.3 -5.1,7.2 0,2.8 1.4,5 4.3,6.6 2.8,1.6 6.7,3.1 11.6,4.4 l 18.3,4.4 c 12.2,2.9 21.3,7.6 27.2,14 5.9,6.4 8.9,14 8.9,22.8 0,5.2 -1.2,10.2 -3.7,14.9 -2.4,4.7 -5.9,8.9 -10.4,12.6 -4.5,3.7 -9.8,6.5 -16.1,8.7 -6.2,2.2 -13.2,3.2 -20.8,3.2 z"
   class="st1" />
		<path
   style="fill:#ffffff"
   inkscape:connector-curvature="0"
   id="path12"
   d="m 559.3,9.3 h 32 v 49 l -2,21.7 h 2 c 3.4,-5.7 8.3,-10.4 14.8,-14 6.4,-3.7 13.6,-5.5 21.6,-5.5 15.5,0 26.9,4.6 34.3,13.7 7.4,9.1 11.1,21.6 11.1,37.3 V 184 h -32 v -68.6 c 0,-8.3 -2,-14.6 -5.9,-18.9 -3.9,-4.3 -9.4,-6.5 -16.3,-6.5 -4.4,0 -8.3,0.9 -11.7,2.8 -3.4,1.9 -6.3,4.4 -8.7,7.7 -2.4,3.3 -4.1,7 -5.4,11.3 -1.2,4.3 -1.8,8.9 -1.8,13.8 V 184 h -32 z"
   class="st1" />
	</g><circle
     style="fill:#ff6d00;fill-opacity:1"
     id="circle16"
     r="20"
     cy="75"
     cx="20.1"
     class="st1" /><path
     style="fill:#ffffff"
     inkscape:connector-curvature="0"
     id="path18"
     d="m 46.6,114.9 c 0,14.7 -11.9,19.9 -26.6,19.9 -11,0 -20,8.9 -20,20 0,11.1 8.9,20 20,20 11.1,0 20,-8.9 20,-20 0,-14.7 5.3,-26.6 19.9,-26.6 14.6,0 19.9,11.9 19.9,26.6 0,11 8.9,20 20,20 11.1,0 20,-8.9 20,-20 0,-11.1 -8.9,-20 -20,-20 -14.7,0 -26.6,-5.2 -26.6,-19.9 0,-14.7 11.9,-19.9 26.6,-19.9 11,0 20,-8.9 20,-20 0,-11.1 -8.9,-20 -20,-20 -11.1,0 -20,8.9 -20,20 0,14.7 -5.2,26.6 -19.9,26.6 v 0 c -7.3,0 -13.2,5.9 -13.3,13.3"
     class="st1" /><circle
     style="fill:#ff6d00;fill-opacity:1"
     id="circle20"
     r="8.3000002"
     cy="96.5"
     cx="43.399998"
     class="st1" /></g>
<text
   xml:space="preserve"
   id="text10260"
   style="font-style:normal;font-weight:normal;font-size:40px;line-height:1.25;font-family:sans-serif;white-space:pre;shape-inside:url(#rect10262);fill:#000000;fill-opacity:1;stroke:none"
   transform="translate(-744.45223,2063.3894)" /><text
   xml:space="preserve"
   style="font-style:normal;font-variant:normal;font-weight:bold;font-stretch:normal;font-size:207.399px;line-height:1.25;font-family:Arial;-inkscape-font-specification:'Arial, Bold';font-variant-ligatures:normal;font-variant-caps:normal;font-variant-numeric:normal;font-variant-east-asian:normal;fill:#ffffff;fill-opacity:1;stroke:none;stroke-width:7;stroke-miterlimit:4;stroke-dasharray:none"
   x="-9.6205587"
   y="2247.2939"
   id="text14206"><tspan
     sodipodi:role="line"
     id="tspan14204"
     x="-9.6205587"
     y="2247.2939"
     style="font-style:normal;font-variant:normal;font-weight:bold;font-stretch:normal;font-size:207.399px;font-family:Arial;-inkscape-font-specification:'Arial, Bold';font-variant-ligatures:normal;font-variant-caps:normal;font-variant-numeric:normal;font-variant-east-asian:normal;fill:#ffffff;fill-opacity:1;stroke-width:7;stroke-miterlimit:4;stroke-dasharray:none"><tspan
   id="tspan10717"
   style="fill:none;stroke:#ffffff;stroke-width:7;stroke-miterlimit:4;stroke-dasharray:none;stroke-opacity:1">&gt;&gt;&gt;</tspan><tspan
   style="stroke:#4b8bbe;stroke-width:7;stroke-miterlimit:4;stroke-dasharray:none;stroke-opacity:1"
   id="tspan9791">pip</tspan> <tspan
   style="stroke:#306998;stroke-width:7;stroke-miterlimit:4;stroke-dasharray:none;stroke-opacity:1"
   id="tspan94549">install</tspan> <tspan
   style="fill:none;stroke:#ffffff;stroke-width:7;stroke-miterlimit:4;stroke-dasharray:none;stroke-opacity:1"
   id="tspan14249">-</tspan><tspan
   style="fill:#ffffff;fill-opacity:1;stroke:#fa741c;stroke-width:7;stroke-miterlimit:4;stroke-dasharray:none;stroke-opacity:1"
   id="tspan110787"><tspan
   style="stroke:#ffe873;stroke-opacity:1"
   id="tspan120823">U</tspan> </tspan> </tspan></text><text
   xml:space="preserve"
   id="text41196"
   style="font-style:normal;font-weight:normal;font-size:40px;line-height:1.25;font-family:sans-serif;white-space:pre;shape-inside:url(#rect41198);fill:#000000;fill-opacity:1;stroke:none"
   transform="translate(-734.55223,2072.6894)" /><text
   xml:space="preserve"
   id="text59185"
   style="font-style:normal;font-weight:normal;font-size:40px;line-height:1.25;font-family:sans-serif;white-space:pre;shape-inside:url(#rect59187);fill:#000000;fill-opacity:1;stroke:none"
   transform="translate(-872.40153,2038.3957)" /><g
   transform="matrix(7.0718761,0,0,7.0718761,-2541.2612,-187.01603)"
   clip-path="url(#id17-3-0-5-1)"
   fill="#1f1f1f"
   stroke="#fa741c"
   stroke-width="0.99975"
   id="g1783"><g
     clip-path="url(#id18-5-7-8-6)"
     fill="#1f1f1f"
     stroke="#fa741c"
     stroke-width="0.99975"
     id="g1781"><path
       d="m 407.3008,28.46875 v 203.8047 H 613.711 V 28.46875 Z"
       fill="#1f1f1f"
       stroke="#fa741c"
       stroke-width="0.99975"
       id="path1779" /></g></g><g
   fill="#fa741c"
   id="g1793"
   transform="matrix(7.0718761,0,0,7.0718761,324.67028,-2.8088806e-4)"><g
     transform="translate(-405.2576,-26.445)"
     clip-path="url(#id21-3-7-8-8)"
     id="g1787"><path
       d="m 471.8789,94.15625 v 203.8359 H 678.2891 V 94.15625 Z"
       fill="#fa741c"
       id="path1785" /></g><circle
     class="st2"
     cx="101.5436"
     cy="33.497749"
     r="14.51899"
     stroke-width="0.72595"
     id="circle1789" /><circle
     class="st2"
     cx="118.4581"
     cy="49.105659"
     r="6.025382"
     stroke-width="0.72595"
     id="circle1791" /></g><path
   d="m 773.44188,1184.2497 v 253.9462 H 593.87325 l -17.42704,-3.0167 -19.50249,-4.7719 -17.53152,-6.0166 -19.81326,-8.6102 -22.82273,-13.6931 -14.52263,-10.2699 -21.5768,-18.9838 -14.00446,-15.1454 -13.27831,-15.6641 -11.20346,-16.0791 -9.23303,-14.523 -12.65568,-22.8219 -7.88372,-16.9091 -6.95021,-15.8716 -9.23253,-25.1041 -6.63889,-21.0585 -4.14979,-14.1079 -5.18668,-20.851 -5.80937,-27.8013 -2.48914,-13.6931 -5.80988,-40.7683 -2.90443,-28.4236 -1.86696,-22.1995 -1.34825,-25.9341 -0.93455,-34.3365 -0.10594,-19.91739 0.51448,-30.49839 1.14139,-27.07511 2.17779,-25.72654 1.45273,-16.80521 3.42369,-27.5937 2.90441,-18.56886 4.25268,-23.65177 5.18723,-23.02941 5.29063,-19.70982 5.80885,-18.36137 6.95022,-21.05827 10.27049,-24.27434 8.19507,-16.90884 10.99606,-20.43603 11.20291,-17.73891 12.13746,-16.59772 9.6478,-12.13717 12.86305,-13.90059 11.30686,-10.89236 21.36997,-17.84242 20.95467,-13.90071 25.62265,-13.38199 18.56898,-7.36527 18.6724,-6.12035 15.76745,-4.04568 17.53207,-3.00847 17.7384,-1.97103 15.76798,-0.51919 13.07093,0.62224 20.64335,0.1049 H 1299.0704 V 443.57811 H 834.33068 V 225.16528 l -0.38716,-4.80683 v -5.63539 l 0.33407,-6.96137 1.74016,-10.77362 2.40327,-10.27623 4.22664,-11.93383 2.32049,-5.88415 7.12682,-13.92273 7.45902,-11.85084 11.43666,-14.33724 13.67415,-14.08849 13.5911,-11.43643 11.7679,-8.78462 9.6962,-6.3812 16.2435,-9.28178 15.7463,-8.28745 29.9999,-12.51388 26.6023,-9.36477 30.2487,-8.45298 22.8731,-5.38699 21.2157,-4.22654 24.4479,-4.06067 28.9232,-4.14378 36.2156,-3.64627 55.6618,-3.35118 29.6521,-0.93762 27.0734,-0.1178 h 24.6122 l 15.2359,0.23377 17.8143,0.35157 22.6726,1.12667 10.6492,0.66258 13.011,0.87018 9.738,0.78731 12.1411,1.11882 12.6789,1.16033 12.9288,1.6576 13.3845,1.69876 14.295,2.11327 12.1408,1.94752 18.6883,3.43912 9.6961,1.98913 11.8096,2.56917 11.9338,2.81747 13.8813,3.688 9.0744,2.61043 18.4812,5.6354 13.5084,4.68233 13.3425,5.13823 11.2294,4.68233 17.5278,8.03881 5.7596,2.94196 5.6772,2.94196 7.6237,4.18516 5.8843,3.35636 12.1406,7.62429 8.2053,5.6354 12.5961,9.6133 25.94,23.86766 16.9056,20.55258 14.5858,23.37038 11.2712,26.02232 5.3039,19.06096 2.8173,18.89508 0.8292,12.92839 -0.6653,8.61874 -0.4931,6.4642 v 429.61647 l -0.334,11.43655 -0.994,12.26524 -1.3261,10.93939 -2.8184,17.56911 -4.6404,18.72943 -4.475,14.42001 -5.9674,15.41446 -9.6133,19.06096 -10.2763,16.57466 -12.431,15.91174 -8.7847,9.6133 -10.4419,10.27634 -9.6133,8.28734 -13.7567,10.11058 -12.1204,7.81092 -7.75,4.39815 -10.1088,5.36199 -18.7818,8.49706 -14.592,5.39117 -11.8957,3.92626 -16.9352,4.51218 -15.5871,3.45748 -8.3804,1.52359 -21.2134,2.81288 -22.6784,1.52354 h -475.4316 l -3.7298,0.13566 -5.1372,0.26945 -3.8332,0.24876 -3.8332,0.22753 -3.5217,0.24876 -11.9752,1.18092 -6.7545,0.89095 -8.9503,1.40882 -8.2874,1.47098 -4.7446,1.01523 -6.7331,1.47104 -6.7958,1.67815 -10.4838,3.02491 -8.4529,2.7763 -10.3383,3.79145 -3.916,1.61597 -10.525,4.70309 -8.6602,4.3509 -8.8049,4.93094 -8.6602,5.36612 -5.2832,3.50138 -2.7349,2.05111 -3.6676,2.67264 -3.6877,2.77623 -5.8217,4.78604 -4.45471,3.85361 -7.76926,7.14782 -9.46844,9.9241 -7.08543,8.3081 -4.78627,6.1119 -5.57337,7.6036 -3.23174,4.786 -3.33566,5.2004 -2.77642,4.5372 -5.55225,9.8205 -3.0873,5.7804 -2.48606,5.1382 -3.66762,7.9767 -3.64589,8.5152 -4.28871,11.3744 -2.92133,8.6395 -2.44466,7.8523 -2.3416,8.2666 -2.69281,10.9186 -1.90678,8.7638 -1.80225,9.6964 -1.32602,7.8729 -1.67807,13.0733 -0.68632,6.9615 -0.10663,0.87 c 0,0 -0.84772,-0.2073 -0.65037,-0.1967 z"
   fill="none"
   stroke="#fa741c"
   stroke-width="28.6412"
   id="path1795" /><path
   d="M 1825.25,748.06986 V 494.12365 h 179.5684 l 17.4273,3.01688 19.5027,4.7719 17.5311,6.0166 19.8135,8.61009 22.8227,13.69311 14.5226,10.26989 21.5774,18.98372 14.0044,15.14553 13.2778,15.66413 11.2039,16.079 9.2326,14.52295 12.6556,22.82192 7.8838,16.90907 6.9502,15.87174 9.2324,25.10406 6.6389,21.05839 4.15,14.10808 5.1865,20.8509 5.8093,27.8013 2.4897,13.69311 5.8093,40.76832 2.9045,28.42365 1.8676,22.19946 1.3481,25.93406 0.9342,34.33657 0.1072,19.91735 -0.5145,30.49837 -1.1414,27.0751 -2.1784,25.7265 -1.4526,16.8053 -3.423,27.5937 -2.9045,18.5688 -4.2533,23.6518 -5.187,23.0295 -5.2907,19.7098 -5.809,18.3612 -6.9502,21.0584 -10.2693,24.2743 -8.1958,16.9089 -10.9959,20.436 -11.2036,17.739 -12.1374,16.5977 -9.6472,12.137 -12.863,13.9007 -11.3076,10.8923 -21.3699,17.8426 -20.9547,13.9006 -25.6227,13.3819 -18.5688,7.3653 -18.6724,6.1204 -15.7675,4.0457 -17.5319,3.0084 -17.7385,1.971 -15.7681,0.5192 -13.0709,-0.6223 -20.6428,-0.1037 h -628.6472 v 65.6537 h 464.7393 v 218.4129 l 0.3873,4.8068 v 5.6354 l -0.3342,6.9613 -1.7402,10.7737 -2.4032,10.2763 -4.2267,11.9337 -2.3205,5.8841 -7.1268,13.9228 -7.4589,11.8508 -11.4367,14.3372 -13.674,14.0885 -13.5913,11.4365 -11.768,8.7846 -9.6958,6.3812 -16.2439,9.2818 -15.7462,8.2875 -30,12.5138 -26.6022,9.3648 -30.2488,8.4531 -22.8731,5.3868 -21.2155,4.2265 -24.448,4.0609 -28.9232,4.1436 -36.2156,3.6465 -55.6619,3.351 -29.6519,0.9376 -27.0733,0.1173 h -24.6122 l -15.236,-0.2339 -17.8143,-0.3517 -22.6726,-1.1266 -10.6491,-0.6625 -13.011,-0.8702 -9.7381,-0.7873 -12.1412,-1.1189 -12.6789,-1.1602 -12.9289,-1.6575 -13.3834,-1.6988 -14.296,-2.1133 -12.1406,-1.9475 -18.6882,-3.4394 -9.6962,-1.9889 -11.8098,-2.569 -11.9339,-2.8178 -13.8813,-3.6878 -9.0744,-2.6106 -18.4808,-5.6354 -13.5081,-4.6823 -13.3429,-5.1382 -11.2291,-4.6823 -17.5282,-8.0387 -5.7594,-2.9421 -5.6765,-2.942 -7.6248,-4.1851 -5.8842,-3.3564 -12.1406,-7.6243 -8.2051,-5.6354 -12.5963,-9.6133 -25.9399,-23.8677 -16.9055,-20.5525 -14.58587,-23.3704 -11.27131,-26.0223 -5.30388,-19.061 -2.81741,-18.8951 -0.8291,-12.9282 0.66521,-8.6189 0.49314,-6.4641 v -429.6166 l 0.33429,-11.4365 0.99382,-12.2653 1.32604,-10.9392 2.81846,-17.5693 4.64035,-18.7294 4.47498,-14.42 5.96743,-15.4145 9.6133,-19.0609 10.27645,-16.5747 12.4307,-15.9117 8.7849,-9.6133 10.4423,-10.2764 9.6127,-8.2873 13.7567,-10.1107 12.1206,-7.8107 7.7512,-4.3982 10.108,-5.362 18.7817,-8.4971 14.5917,-5.3912 11.8955,-3.9262 16.9355,-4.5122 15.5882,-3.45744 8.379,-1.52362 21.2135,-2.81285 22.6785,-1.52359 h 475.4315 l 3.7297,-0.13569 5.1375,-0.26941 3.8331,-0.24875 3.8332,-0.22756 3.5222,-0.24875 11.9746,-1.18091 6.7545,-0.89088 8.9504,-1.40891 8.2872,-1.47092 4.7446,-1.01528 6.7333,-1.47098 6.7959,-1.67816 10.4836,-3.02491 8.4528,-2.77629 10.3385,-3.79145 3.9159,-1.61599 10.525,-4.70307 8.6602,-4.35091 8.8056,-4.93093 8.6601,-5.36617 5.2829,-3.50131 2.7345,-2.05115 3.6677,-2.67269 3.6879,-2.77623 5.8214,-4.78603 4.4548,-3.8536 7.7692,-7.14781 9.4684,-9.92409 7.0861,-8.30814 4.7857,-6.11191 5.5734,-7.60354 3.2318,-4.78607 3.3356,-5.20036 2.7766,-4.53732 5.5527,-9.82045 3.0869,-5.7804 2.4858,-5.13812 3.6677,-7.97667 3.6459,-8.51534 4.2892,-11.37431 2.9214,-8.63948 2.4445,-7.8523 2.3414,-8.2667 2.6931,-10.91864 1.9063,-8.76375 1.8021,-9.69629 1.3261,-7.87294 1.6782,-13.07329 0.6864,-6.96136 0.1072,-0.87019 c 0,0 0.8475,0.20749 0.6503,0.19677 z"
   fill="none"
   stroke="#1f1f1f"
   stroke-width="28.6412"
   id="path1797" /><circle
   class="st2"
   transform="scale(-1)"
   cx="-1569.1978"
   cy="-1692.3605"
   fill="#1f1f1f"
   stroke-width="5.13381"
   id="circle1799"
   style="fill:#fa741c"
   r="102.6765" /><circle
   class="st2"
   transform="scale(-1)"
   cx="-1449.5793"
   cy="-1581.9834"
   fill="#1f1f1f"
   stroke-width="5.13381"
   id="circle1801"
   style="fill:#fa741c"
   r="42.610756" /></svg>
