<?xml version="1.0" encoding="UTF-8" standalone="no"?>
<!-- Generator: Adobe Illustrator 24.2.1, SVG Export Plug-In . SVG Version: 6.00 Build 0)  -->

<svg
   xmlns:dc="http://purl.org/dc/elements/1.1/"
   xmlns:cc="http://creativecommons.org/ns#"
   xmlns:rdf="http://www.w3.org/1999/02/22-rdf-syntax-ns#"
   xmlns:svg="http://www.w3.org/2000/svg"
   xmlns="http://www.w3.org/2000/svg"
   xmlns:sodipodi="http://sodipodi.sourceforge.net/DTD/sodipodi-0.dtd"
   xmlns:inkscape="http://www.inkscape.org/namespaces/inkscape"
   version="1.1"
   id="Layer_1"
   x="0px"
   y="0px"
   viewBox="0 0 481 481"
   xml:space="preserve"
   sodipodi:docname="X-Cash_logo.svg"
   width="481"
   height="481"
   inkscape:export-filename="/home/lilil/Projects/xcash-marketing/X-Cash_Logo-Font-VisualAssets/X-Icon/xcash-round-logo.png"
   inkscape:export-xdpi="72"
   inkscape:export-ydpi="72"
   inkscape:version="0.92.4 (5da689c313, 2019-01-14)"><metadata
   id="metadata17"><rdf:RDF><cc:Work
       rdf:about=""><dc:format>image/svg+xml</dc:format><dc:type
         rdf:resource="http://purl.org/dc/dcmitype/StillImage" /><dc:title></dc:title></cc:Work></rdf:RDF></metadata><defs
   id="defs15" /><sodipodi:namedview
   pagecolor="#ffffff"
   bordercolor="#666666"
   borderopacity="1"
   objecttolerance="10"
   gridtolerance="10"
   guidetolerance="10"
   inkscape:pageopacity="0"
   inkscape:pageshadow="2"
   inkscape:window-width="1282"
   inkscape:window-height="1174"
   id="namedview13"
   showgrid="false"
   fit-margin-top="0"
   fit-margin-left="0"
   fit-margin-right="0"
   fit-margin-bottom="0"
   inkscape:pagecheckerboard="true"
   inkscape:showpageshadow="false"
   inkscape:zoom="0.472"
   inkscape:cx="244.23729"
   inkscape:cy="241"
   inkscape:window-x="0"
   inkscape:window-y="0"
   inkscape:window-maximized="0"
   inkscape:current-layer="Layer_1" />
<style
   type="text/css"
   id="style2">
	.st0{fill:#1F1F1F;}
	.st1{fill:#FA741C;}
	.st2{fill:#FFFFFF;}
</style>
<circle
   id="Circle"
   class="st0"
   cx="240.5"
   cy="240.5"
   r="240.5"
   style="fill:#1f1f1f" />
<g
   id="Logo"
   transform="matrix(1.2011371,0,0,1.2011371,-60.364729,-60.233989)"
   style="stroke-width:0.83254445">
	<circle
   class="st1"
   cx="166.39999"
   cy="165.5"
   r="42.200001"
   id="circle5"
   style="fill:#fa741c;stroke-width:0.83254445" />
	<path
   class="st2"
   d="m 222.4,249.8 c 0,31 -25.1,42 -56.2,42 -23.2,0 -42.2,18.8 -42.2,42.2 0,23.4 18.8,42.2 42.2,42.2 23.4,0 42.2,-18.8 42.2,-42.2 0,-31 11.2,-56.2 42,-56.2 30.8,0 42,25.1 42,56.2 0,23.2 18.8,42.2 42.2,42.2 23.4,0 42.2,-18.8 42.2,-42.2 0,-23.4 -18.8,-42.2 -42.2,-42.2 -31,0 -56.2,-11 -56.2,-42 0,-31 25.1,-42 56.2,-42 23.2,0 42.2,-18.8 42.2,-42.2 0,-23.4 -18.8,-42.2 -42.2,-42.2 -23.4,0 -42.2,18.8 -42.2,42.2 0,31 -11,56.2 -42,56.2 v 0 c -15.4,-0.1 -27.8,12.3 -28,28"
   id="path7"
   inkscape:connector-curvature="0"
   style="fill:#ffffff;stroke-width:0.83254445" />
	<circle
   class="st1"
   cx="215.60001"
   cy="210.89999"
   r="17.5"
   id="circle9"
   style="fill:#fa741c;stroke-width:0.83254445" />
</g>
</svg>