<svg xmlns="http://www.w3.org/2000/svg" viewBox="0 0 1080 1080" width="1080" height="1080" style="width: 100%; height: 100%; transform: translate3d(0px, 0px, 0px);" preserveAspectRatio="xMidYMid meet"><defs><clipPath id="__lottie_element_17"><rect width="1080" height="1080" x="0" y="0"></rect></clipPath><clipPath id="__lottie_element_20"><path d="M0,0 L136,0 L136,136 L0,136z"></path></clipPath><clipPath id="__lottie_element_26"><path d="M0,0 L136,0 L136,136 L0,136z"></path></clipPath><clipPath id="__lottie_element_33"><path d="M0,0 L1080,0 L1080,1080 L0,1080z"></path></clipPath><clipPath id="__lottie_element_49"><path d="M0,0 L136,0 L136,136 L0,136z"></path></clipPath><clipPath id="__lottie_element_56"><path d="M0,0 L136,0 L136,136 L0,136z"></path></clipPath></defs><g clip-path="url(#__lottie_element_17)"><g clip-path="url(#__lottie_element_20)" style="display: block;" transform="matrix(7.853710174560547,0,0,7.853710174560547,5.94769287109375,5.94769287109375)" opacity="1"><g style="display: block;" transform="matrix(1,0,0,1,0,0)" opacity="1"><g opacity="1" transform="matrix(1,0,0,1,67.6729965209961,67.9749984741211)"><path fill="rgb(31,48,52)" fill-opacity="1" d=" M60.23899841308594,30.7810001373291 C60.35499954223633,30.558000564575195 60.46500015258789,30.33099937438965 60.57899856567383,30.104999542236328 C60.57899856567383,30.104999542236328 52.55500030517578,34.744998931884766 52.55500030517578,34.744998931884766 C52.55500030517578,34.744998931884766 38.17399978637695,26.43199920654297 38.17399978637695,26.43199920654297 C38.17399978637695,26.43199920654297 52.507999420166016,18.145999908447266 52.507999420166016,18.145999908447266 C52.507999420166016,18.145999908447266 63.154998779296875,24.301000595092773 63.154998779296875,24.301000595092773 C63.20500183105469,24.170000076293945 63.25299835205078,24.038999557495117 63.301998138427734,23.908000946044922 C63.301998138427734,23.908000946044922 52.922000885009766,17.905000686645508 52.922000885009766,17.905000686645508 C52.922000885009766,17.905000686645508 66.98200225830078,9.774999618530273 66.98200225830078,9.774999618530273 C67.01899719238281,9.520000457763672 67.05400085449219,9.263999938964844 67.08999633789062,9.006999969482422 C67.08999633789062,9.006999969482422 52.922000885009766,0.8140000104904175 52.922000885009766,0.8140000104904175 C52.922000885009766,0.8140000104904175 67.2979965209961,-7.499000072479248 67.2979965209961,-7.499000072479248 C67.27799987792969,-7.684999942779541 67.25599670410156,-7.872000217437744 67.23300170898438,-8.057000160217285 C67.23300170898438,-8.057000160217285 52.92399978637695,-16.33099937438965 52.92399978637695,-16.33099937438965 C52.92399978637695,-16.33099937438965 63.840999603271484,-22.645999908447266 63.840999603271484,-22.645999908447266 C63.79499816894531,-22.777999877929688 63.749000549316406,-22.90999984741211 63.70199966430664,-23.04199981689453 C63.70199966430664,-23.04199981689453 52.507999420166016,-16.56999969482422 52.507999420166016,-16.56999969482422 C52.507999420166016,-16.56999969482422 38.22100067138672,-24.83099937438965 38.22100067138672,-24.83099937438965 C38.22100067138672,-24.83099937438965 52.507999420166016,-33.09000015258789 52.507999420166016,-33.09000015258789 C52.507999420166016,-33.09000015258789 61.814998626708984,-27.708999633789062 61.814998626708984,-27.708999633789062 C61.71699905395508,-27.927000045776367 61.61399841308594,-28.143999099731445 61.513999938964844,-28.361000061035156 C61.513999938964844,-28.361000061035156 52.922000885009766,-33.332000732421875 52.922000885009766,-33.332000732421875 C52.922000885009766,-33.332000732421875 57.415000915527344,-35.92900085449219 57.415000915527344,-35.92900085449219 C57.340999603271484,-36.04600143432617 57.26900100708008,-36.16400146484375 57.19499969482422,-36.279998779296875 C57.19499969482422,-36.279998779296875 52.507999420166016,-33.569000244140625 52.507999420166016,-33.569000244140625 C52.507999420166016,-33.569000244140625 38.09600067138672,-41.902000427246094 38.09600067138672,-41.902000427246094 C38.09600067138672,-41.902000427246094 48.08100128173828,-47.676998138427734 48.08100128173828,-47.676998138427734 C47.98099899291992,-47.77799987792969 47.88199996948242,-47.87900161743164 47.779998779296875,-47.97999954223633 C47.779998779296875,-47.97999954223633 37.68199920654297,-42.141998291015625 37.68199920654297,-42.141998291015625 C37.68199920654297,-42.141998291015625 23.315000534057617,-50.446998596191406 23.315000534057617,-50.446998596191406 C23.315000534057617,-50.446998596191406 35.625999450683594,-57.564998626708984 35.625999450683594,-57.564998626708984 C35.49300003051758,-57.64699935913086 35.361000061035156,-57.731998443603516 35.22800064086914,-57.81399917602539 C35.22800064086914,-57.81399917602539 22.899999618530273,-50.6879997253418 22.899999618530273,-50.6879997253418 C22.899999618530273,-50.6879997253418 8.616999626159668,-58.946998596191406 8.616999626159668,-58.946998596191406 C8.616999626159668,-58.946998596191406 18.9950008392334,-64.94599914550781 18.9950008392334,-64.94599914550781 C18.80900001525879,-65.0009994506836 18.625,-65.05400085449219 18.437999725341797,-65.1050033569336 C18.437999725341797,-65.1050033569336 8.201000213623047,-59.1870002746582 8.201000213623047,-59.1870002746582 C8.201000213623047,-59.1870002746582 -5.874000072479248,-67.32499694824219 -5.874000072479248,-67.32499694824219 C-6.11299991607666,-67.30400085449219 -6.353000164031982,-67.28600311279297 -6.5920000076293945,-67.26100158691406 C-6.5920000076293945,-67.26100158691406 7.785999774932861,-58.946998596191406 7.785999774932861,-58.946998596191406 C7.785999774932861,-58.946998596191406 -6.499000072479248,-50.6879997253418 -6.499000072479248,-50.6879997253418 C-6.499000072479248,-50.6879997253418 -20.90999984741211,-59.02000045776367 -20.90999984741211,-59.02000045776367 C-20.90999984741211,-59.02000045776367 -6.669000148773193,-67.25499725341797 -6.669000148773193,-67.25499725341797 C-7.013999938964844,-67.22000122070312 -7.35699987411499,-67.1780014038086 -7.701000213623047,-67.13700103759766 C-7.701000213623047,-67.13700103759766 -21.32200050354004,-59.26100158691406 -21.32200050354004,-59.26100158691406 C-21.32200050354004,-59.26100158691406 -26.35700035095215,-62.16999816894531 -26.35700035095215,-62.16999816894531 C-26.516000747680664,-62.10300064086914 -26.67300033569336,-62.03300094604492 -26.83099937438965,-61.9630012512207 C-26.83099937438965,-61.9630012512207 -21.739999771118164,-59.02000045776367 -21.739999771118164,-59.02000045776367 C-21.739999771118164,-59.02000045776367 -36.14799880981445,-50.6879997253418 -36.14799880981445,-50.6879997253418 C-36.14799880981445,-50.6879997253418 -41.053001403808594,-53.52299880981445 -41.053001403808594,-53.52299880981445 C-41.172000885009766,-53.43199920654297 -41.292999267578125,-53.34199905395508 -41.40999984741211,-53.25 C-41.40999984741211,-53.25 -36.56399917602539,-50.446998596191406 -36.56399917602539,-50.446998596191406 C-36.56399917602539,-50.446998596191406 -50.928001403808594,-42.141998291015625 -50.928001403808594,-42.141998291015625 C-50.928001403808594,-42.141998291015625 -52.071998596191406,-42.803001403808594 -52.071998596191406,-42.803001403808594 C-52.15999984741211,-42.69499969482422 -52.24700164794922,-42.58399963378906 -52.334999084472656,-42.47600173950195 C-52.334999084472656,-42.47600173950195 -51.34400177001953,-41.902000427246094 -51.34400177001953,-41.902000427246094 C-51.34400177001953,-41.902000427246094 -53.95800018310547,-40.39099884033203 -53.95800018310547,-40.39099884033203 C-54.1619987487793,-40.11600112915039 -54.361000061035156,-39.8390007019043 -54.56100082397461,-39.5620002746582 C-54.56100082397461,-39.5620002746582 -50.928001403808594,-41.66299819946289 -50.928001403808594,-41.66299819946289 C-50.928001403808594,-41.66299819946289 -36.51599884033203,-33.332000732421875 -36.51599884033203,-33.332000732421875 C-36.51599884033203,-33.332000732421875 -50.847999572753906,-25.04199981689453 -50.847999572753906,-25.04199981689453 C-50.847999572753906,-25.04199981689453 -60.124000549316406,-30.405000686645508 -60.124000549316406,-30.405000686645508 C-60.1870002746582,-30.281999588012695 -60.24700164794922,-30.158000946044922 -60.308998107910156,-30.034000396728516 C-60.308998107910156,-30.034000396728516 -51.263999938964844,-24.804000854492188 -51.263999938964844,-24.804000854492188 C-51.263999938964844,-24.804000854492188 -65.23200225830078,-16.72800064086914 -65.23200225830078,-16.72800064086914 C-65.3010025024414,-16.45400047302246 -65.36599731445312,-16.179000854492188 -65.43199920654297,-15.904000282287598 C-65.43199920654297,-15.904000282287598 -51.34400177001953,-7.756999969482422 -51.34400177001953,-7.756999969482422 C-51.34400177001953,-7.756999969482422 -65.7300033569336,0.5609999895095825 -65.7300033569336,0.5609999895095825 C-65.7300033569336,0.5609999895095825 -67.29399871826172,-0.3440000116825104 -67.29399871826172,-0.3440000116825104 C-67.29399871826172,-0.2630000114440918 -67.2979965209961,-0.18199999630451202 -67.2979965209961,-0.10000000149011612 C-67.2979965209961,-0.02199999988079071 -67.29399871826172,0.054999999701976776 -67.29399871826172,0.13300000131130219 C-67.29399871826172,0.13300000131130219 -66.14299774169922,0.7990000247955322 -66.14299774169922,0.7990000247955322 C-66.14299774169922,0.7990000247955322 -67.2770004272461,1.4550000429153442 -67.2770004272461,1.4550000429153442 C-67.27300262451172,1.6109999418258667 -67.26899719238281,1.7699999809265137 -67.26399993896484,1.9259999990463257 C-67.26399993896484,1.9259999990463257 -65.7300033569336,1.0399999618530273 -65.7300033569336,1.0399999618530273 C-65.7300033569336,1.0399999618530273 -51.3650016784668,9.343999862670898 -51.3650016784668,9.343999862670898 C-51.3650016784668,9.343999862670898 -65.04199981689453,17.250999450683594 -65.04199981689453,17.250999450683594 C-65.00499725341797,17.391000747680664 -64.96700286865234,17.530000686645508 -64.93000030517578,17.66900062561035 C-64.93000030517578,17.66900062561035 -50.94900131225586,9.585000038146973 -50.94900131225586,9.585000038146973 C-50.94900131225586,9.585000038146973 -36.5359992980957,17.915000915527344 -36.5359992980957,17.915000915527344 C-36.5359992980957,17.915000915527344 -50.895999908447266,26.2189998626709 -50.895999908447266,26.2189998626709 C-50.895999908447266,26.2189998626709 -64.79000091552734,18.18199920654297 -64.79000091552734,18.18199920654297 C-64.73600006103516,18.37299919128418 -64.68000030517578,18.562999725341797 -64.6259994506836,18.7549991607666 C-64.6259994506836,18.7549991607666 -51.308998107910156,26.45800018310547 -51.308998107910156,26.45800018310547 C-51.308998107910156,26.45800018310547 -59.5890007019043,31.243000030517578 -59.5890007019043,31.243000030517578 C-59.52399826049805,31.365999221801758 -59.46099853515625,31.48900032043457 -59.39500045776367,31.611000061035156 C-59.39500045776367,31.611000061035156 -50.89500045776367,26.69700050354004 -50.89500045776367,26.69700050354004 C-50.89500045776367,26.69700050354004 -36.611000061035156,34.95800018310547 -36.611000061035156,34.95800018310547 C-36.611000061035156,34.95800018310547 -50.928001403808594,43.236000061035156 -50.928001403808594,43.236000061035156 C-50.928001403808594,43.236000061035156 -52.1150016784668,42.55099868774414 -52.1150016784668,42.55099868774414 C-51.861000061035156,42.861000061035156 -51.60300064086914,43.16999816894531 -51.34400177001953,43.47700119018555 C-51.25299835205078,43.58300018310547 -51.16299819946289,43.689998626708984 -51.071998596191406,43.79800033569336 C-51.071998596191406,43.79800033569336 -50.928001403808594,43.7140007019043 -50.928001403808594,43.7140007019043 C-50.928001403808594,43.7140007019043 -36.51599884033203,52.04899978637695 -36.51599884033203,52.04899978637695 C-36.51599884033203,52.04899978637695 -40.04800033569336,54.0890007019043 -40.04800033569336,54.0890007019043 C-39.926998138427734,54.18000030517578 -39.80400085449219,54.266998291015625 -39.68199920654297,54.35499954223633 C-39.68199920654297,54.35499954223633 -36.104000091552734,52.2859992980957 -36.104000091552734,52.2859992980957 C-36.104000091552734,52.2859992980957 -21.738000869750977,60.59199905395508 -21.738000869750977,60.59199905395508 C-21.738000869750977,60.59199905395508 -25.05500030517578,62.5099983215332 -25.05500030517578,62.5099983215332 C-24.89299964904785,62.57600021362305 -24.73200035095215,62.645999908447266 -24.56800079345703,62.71099853515625 C-24.56800079345703,62.71099853515625 -21.32200050354004,60.83300018310547 -21.32200050354004,60.83300018310547 C-21.32200050354004,60.83300018310547 -11.809000015258789,66.33499908447266 -11.809000015258789,66.33499908447266 C-11.420999526977539,66.40299987792969 -11.029999732971191,66.46700286865234 -10.638999938964844,66.52899932861328 C-10.638999938964844,66.52899932861328 -20.90999984741211,60.59199905395508 -20.90999984741211,60.59199905395508 C-20.90999984741211,60.59199905395508 -6.5960001945495605,52.31800079345703 -6.5960001945495605,52.31800079345703 C-6.5960001945495605,52.31800079345703 7.788000106811523,60.638999938964844 7.788000106811523,60.638999938964844 C7.788000106811523,60.638999938964844 -3.7060000896453857,67.28500366210938 -3.7060000896453857,67.28500366210938 C-3.4519999027252197,67.30000305175781 -3.197999954223633,67.31300354003906 -2.943000078201294,67.32499694824219 C-2.943000078201294,67.32499694824219 8.20199966430664,60.87900161743164 8.20199966430664,60.87900161743164 C8.20199966430664,60.87900161743164 16.18000030517578,65.49299621582031 16.18000030517578,65.49299621582031 C16.375999450683594,65.44499969482422 16.57200050354004,65.39900207519531 16.764999389648438,65.3499984741211 C16.764999389648438,65.3499984741211 8.616999626159668,60.638999938964844 8.616999626159668,60.638999938964844 C8.616999626159668,60.638999938964844 22.989999771118164,52.32699966430664 22.989999771118164,52.32699966430664 C22.989999771118164,52.32699966430664 33.69900131225586,58.51599884033203 33.69900131225586,58.51599884033203 C33.834999084472656,58.4379997253418 33.970001220703125,58.35499954223633 34.106998443603516,58.275001525878906 C34.106998443603516,58.275001525878906 23.402000427246094,52.084999084472656 23.402000427246094,52.084999084472656 C23.402000427246094,52.084999084472656 37.77899932861328,43.77299880981445 37.77899932861328,43.77299880981445 C37.77899932861328,43.77299880981445 46.632999420166016,48.893001556396484 46.632999420166016,48.893001556396484 C46.737998962402344,48.792999267578125 46.84299850463867,48.69300079345703 46.946998596191406,48.59400177001953 C46.946998596191406,48.59400177001953 38.19300079345703,43.52899932861328 38.19300079345703,43.52899932861328 C38.19300079345703,43.52899932861328 52.55500030517578,35.224998474121094 52.55500030517578,35.224998474121094 C52.55500030517578,35.224998474121094 56.32899856567383,37.40599822998047 56.32899856567383,37.40599822998047 C56.40599822998047,37.29199981689453 56.48099899291992,37.17499923706055 56.55799865722656,37.058998107910156 C56.55799865722656,37.058998107910156 52.96900177001953,34.98400115966797 52.96900177001953,34.98400115966797 C52.96900177001953,34.98400115966797 60.23899841308594,30.7810001373291 60.23899841308594,30.7810001373291z M37.7599983215332,26.18899917602539 C37.7599983215332,26.18899917602539 23.395999908447266,17.885000228881836 23.395999908447266,17.885000228881836 C23.395999908447266,17.885000228881836 37.729000091552734,9.600000381469727 37.729000091552734,9.600000381469727 C37.729000091552734,9.600000381469727 52.09199905395508,17.90399932861328 52.09199905395508,17.90399932861328 C52.09199905395508,17.90399932861328 37.7599983215332,26.18899917602539 37.7599983215332,26.18899917602539z M-6.208000183105469,-16.28499984741211 C-6.208000183105469,-16.28499984741211 8.156000137329102,-24.591999053955078 8.156000137329102,-24.591999053955078 C8.156000137329102,-24.591999053955078 22.56800079345703,-16.256999969482422 22.56800079345703,-16.256999969482422 C22.56800079345703,-16.256999969482422 8.20199966430664,-7.952000141143799 8.20199966430664,-7.952000141143799 C8.20199966430664,-7.952000141143799 -6.208000183105469,-16.28499984741211 -6.208000183105469,-16.28499984741211z M22.488000869750977,0.7860000133514404 C22.488000869750977,0.7860000133514404 8.156000137329102,9.074000358581543 8.156000137329102,9.074000358581543 C8.156000137329102,9.074000358581543 -6.130000114440918,0.8140000104904175 -6.130000114440918,0.8140000104904175 C-6.130000114440918,0.8140000104904175 8.20199966430664,-7.474999904632568 8.20199966430664,-7.474999904632568 C8.20199966430664,-7.474999904632568 22.488000869750977,0.7860000133514404 22.488000869750977,0.7860000133514404z M7.788000106811523,-7.711999893188477 C7.788000106811523,-7.711999893188477 -6.546000003814697,0.574999988079071 -6.546000003814697,0.574999988079071 C-6.546000003814697,0.574999988079071 -20.95400047302246,-7.756999969482422 -20.95400047302246,-7.756999969482422 C-20.95400047302246,-7.756999969482422 -6.622000217437744,-16.045000076293945 -6.622000217437744,-16.045000076293945 C-6.622000217437744,-16.045000076293945 7.788000106811523,-7.711999893188477 7.788000106811523,-7.711999893188477z M7.743000030517578,9.312000274658203 C7.743000030517578,9.312000274658203 -6.622000217437744,17.6200008392334 -6.622000217437744,17.6200008392334 C-6.622000217437744,17.6200008392334 -20.90999984741211,9.361000061035156 -20.90999984741211,9.361000061035156 C-20.90999984741211,9.361000061035156 -6.546000003814697,1.0529999732971191 -6.546000003814697,1.0529999732971191 C-6.546000003814697,1.0529999732971191 7.743000030517578,9.312000274658203 7.743000030517578,9.312000274658203z M8.156000137329102,9.555000305175781 C8.156000137329102,9.555000305175781 22.56800079345703,17.885000228881836 22.56800079345703,17.885000228881836 C22.56800079345703,17.885000228881836 8.20199966430664,26.18899917602539 8.20199966430664,26.18899917602539 C8.20199966430664,26.18899917602539 -6.208000183105469,17.858999252319336 -6.208000183105469,17.858999252319336 C-6.208000183105469,17.858999252319336 8.156000137329102,9.555000305175781 8.156000137329102,9.555000305175781z M8.571000099182129,9.314000129699707 C8.571000099182129,9.314000129699707 22.902000427246094,1.0269999504089355 22.902000427246094,1.0269999504089355 C22.902000427246094,1.0269999504089355 37.3120002746582,9.361000061035156 37.3120002746582,9.361000061035156 C37.3120002746582,9.361000061035156 22.979999542236328,17.645999908447266 22.979999542236328,17.645999908447266 C22.979999542236328,17.645999908447266 8.571000099182129,9.314000129699707 8.571000099182129,9.314000129699707z M23.31599998474121,0.7860000133514404 C23.31599998474121,0.7860000133514404 37.68199920654297,-7.519999980926514 37.68199920654297,-7.519999980926514 C37.68199920654297,-7.519999980926514 52.09199905395508,0.8140000104904175 52.09199905395508,0.8140000104904175 C52.09199905395508,0.8140000104904175 37.72700119018555,9.119999885559082 37.72700119018555,9.119999885559082 C37.72700119018555,9.119999885559082 23.31599998474121,0.7860000133514404 23.31599998474121,0.7860000133514404z M22.902000427246094,0.546999990940094 C22.902000427246094,0.546999990940094 8.616999626159668,-7.711999893188477 8.616999626159668,-7.711999893188477 C8.616999626159668,-7.711999893188477 22.98200035095215,-16.01799964904785 22.98200035095215,-16.01799964904785 C22.98200035095215,-16.01799964904785 37.268001556396484,-7.756999969482422 37.268001556396484,-7.756999969482422 C37.268001556396484,-7.756999969482422 22.902000427246094,0.546999990940094 22.902000427246094,0.546999990940094z M8.571000099182129,-24.83099937438965 C8.571000099182129,-24.83099937438965 22.98200035095215,-33.16299819946289 22.98200035095215,-33.16299819946289 C22.98200035095215,-33.16299819946289 37.393001556396484,-24.83099937438965 37.393001556396484,-24.83099937438965 C37.393001556396484,-24.83099937438965 22.98200035095215,-16.499000549316406 22.98200035095215,-16.499000549316406 C22.98200035095215,-16.499000549316406 8.571000099182129,-24.83099937438965 8.571000099182129,-24.83099937438965z M8.156999588012695,-25.070999145507812 C8.156999588012695,-25.070999145507812 -6.210000038146973,-33.375999450683594 -6.210000038146973,-33.375999450683594 C-6.210000038146973,-33.375999450683594 8.20199966430664,-41.70899963378906 8.20199966430664,-41.70899963378906 C8.20199966430664,-41.70899963378906 22.56800079345703,-33.40299987792969 22.56800079345703,-33.40299987792969 C22.56800079345703,-33.40299987792969 8.156999588012695,-25.070999145507812 8.156999588012695,-25.070999145507812z M7.743000030517578,-24.83099937438965 C7.743000030517578,-24.83099937438965 -6.622000217437744,-16.524999618530273 -6.622000217437744,-16.524999618530273 C-6.622000217437744,-16.524999618530273 -20.989999771118164,-24.83099937438965 -20.989999771118164,-24.83099937438965 C-20.989999771118164,-24.83099937438965 -6.624000072479248,-33.137001037597656 -6.624000072479248,-33.137001037597656 C-6.624000072479248,-33.137001037597656 7.743000030517578,-24.83099937438965 7.743000030517578,-24.83099937438965z M-21.40399932861328,-25.070999145507812 C-21.40399932861328,-25.070999145507812 -35.68899917602539,-33.332000732421875 -35.68899917602539,-33.332000732421875 C-35.68899917602539,-33.332000732421875 -21.32200050354004,-41.63600158691406 -21.32200050354004,-41.63600158691406 C-21.32200050354004,-41.63600158691406 -7.038000106811523,-33.375999450683594 -7.038000106811523,-33.375999450683594 C-7.038000106811523,-33.375999450683594 -21.40399932861328,-25.070999145507812 -21.40399932861328,-25.070999145507812z M-7.038000106811523,-16.28499984741211 C-7.038000106811523,-16.28499984741211 -21.368999481201172,-7.999000072479248 -21.368999481201172,-7.999000072479248 C-21.368999481201172,-7.999000072479248 -35.73400115966797,-16.304000854492188 -35.73400115966797,-16.304000854492188 C-35.73400115966797,-16.304000854492188 -21.40399932861328,-24.591999053955078 -21.40399932861328,-24.591999053955078 C-21.40399932861328,-24.591999053955078 -7.038000106811523,-16.28499984741211 -7.038000106811523,-16.28499984741211z M-21.78499984741211,-7.756999969482422 C-21.78499984741211,-7.756999969482422 -36.14799880981445,0.546999990940094 -36.14799880981445,0.546999990940094 C-36.14799880981445,0.546999990940094 -50.51599884033203,-7.756999969482422 -50.51599884033203,-7.756999969482422 C-50.51599884033203,-7.756999969482422 -36.14799880981445,-16.06399917602539 -36.14799880981445,-16.06399917602539 C-36.14799880981445,-16.06399917602539 -21.78499984741211,-7.756999969482422 -21.78499984741211,-7.756999969482422z M-21.368999481201172,-7.519999980926514 C-21.368999481201172,-7.519999980926514 -6.960000038146973,0.8140000104904175 -6.960000038146973,0.8140000104904175 C-6.960000038146973,0.8140000104904175 -21.32200050354004,9.119999885559082 -21.32200050354004,9.119999885559082 C-21.32200050354004,9.119999885559082 -35.73400115966797,0.7860000133514404 -35.73400115966797,0.7860000133514404 C-35.73400115966797,0.7860000133514404 -21.368999481201172,-7.519999980926514 -21.368999481201172,-7.519999980926514z M-7.038000106811523,17.858999252319336 C-7.038000106811523,17.858999252319336 -21.42099952697754,26.173999786376953 -21.42099952697754,26.173999786376953 C-21.42099952697754,26.173999786376953 -35.70800018310547,17.915000915527344 -35.70800018310547,17.915000915527344 C-35.70800018310547,17.915000915527344 -21.32200050354004,9.600000381469727 -21.32200050354004,9.600000381469727 C-21.32200050354004,9.600000381469727 -7.038000106811523,17.858999252319336 -7.038000106811523,17.858999252319336z M-7.007999897003174,34.98400115966797 C-7.007999897003174,34.98400115966797 -21.374000549316406,43.29199981689453 -21.374000549316406,43.29199981689453 C-21.374000549316406,43.29199981689453 -35.78300094604492,34.959999084472656 -35.78300094604492,34.959999084472656 C-35.78300094604492,34.959999084472656 -21.42099952697754,26.652000427246094 -21.42099952697754,26.652000427246094 C-21.42099952697754,26.652000427246094 -7.007999897003174,34.98400115966797 -7.007999897003174,34.98400115966797z M-21.006999969482422,26.415000915527344 C-21.006999969482422,26.415000915527344 -6.622000217437744,18.097999572753906 -6.622000217437744,18.097999572753906 C-6.622000217437744,18.097999572753906 7.788000106811523,26.43199920654297 7.788000106811523,26.43199920654297 C7.788000106811523,26.43199920654297 -6.5929999351501465,34.744998931884766 -6.5929999351501465,34.744998931884766 C-6.5929999351501465,34.744998931884766 -21.006999969482422,26.415000915527344 -21.006999969482422,26.415000915527344z M8.20199966430664,26.67099952697754 C8.20199966430664,26.67099952697754 22.56800079345703,34.97700119018555 22.56800079345703,34.97700119018555 C22.56800079345703,34.97700119018555 8.187999725341797,43.29199981689453 8.187999725341797,43.29199981689453 C8.187999725341797,43.29199981689453 -6.179999828338623,34.98400115966797 -6.179999828338623,34.98400115966797 C-6.179999828338623,34.98400115966797 8.20199966430664,26.67099952697754 8.20199966430664,26.67099952697754z M8.616999626159668,26.43199920654297 C8.616999626159668,26.43199920654297 22.98200035095215,18.121999740600586 22.98200035095215,18.121999740600586 C22.98200035095215,18.121999740600586 37.34600067138672,26.43199920654297 37.34600067138672,26.43199920654297 C37.34600067138672,26.43199920654297 22.98200035095215,34.73400115966797 22.98200035095215,34.73400115966797 C22.98200035095215,34.73400115966797 8.616999626159668,26.43199920654297 8.616999626159668,26.43199920654297z M66.87000274658203,9.359999656677246 C66.87000274658203,9.359999656677246 52.507999420166016,17.663000106811523 52.507999420166016,17.663000106811523 C52.507999420166016,17.663000106811523 38.143001556396484,9.359999656677246 38.143001556396484,9.359999656677246 C38.143001556396484,9.359999656677246 52.507999420166016,1.0529999732971191 52.507999420166016,1.0529999732971191 C52.507999420166016,1.0529999732971191 66.87000274658203,9.359999656677246 66.87000274658203,9.359999656677246z M52.5099983215332,-16.091999053955078 C52.5099983215332,-16.091999053955078 66.91899871826172,-7.756999969482422 66.91899871826172,-7.756999969482422 C66.91899871826172,-7.756999969482422 52.507999420166016,0.574999988079071 52.507999420166016,0.574999988079071 C52.507999420166016,0.574999988079071 38.09600067138672,-7.756999969482422 38.09600067138672,-7.756999969482422 C38.09600067138672,-7.756999969482422 52.5099983215332,-16.091999053955078 52.5099983215332,-16.091999053955078z M52.09400177001953,-16.33099937438965 C52.09400177001953,-16.33099937438965 37.68199920654297,-7.999000072479248 37.68199920654297,-7.999000072479248 C37.68199920654297,-7.999000072479248 23.395999908447266,-16.256999969482422 23.395999908447266,-16.256999969482422 C23.395999908447266,-16.256999969482422 37.80799865722656,-24.591999053955078 37.80799865722656,-24.591999053955078 C37.80799865722656,-24.591999053955078 52.09400177001953,-16.33099937438965 52.09400177001953,-16.33099937438965z M52.09199905395508,-33.332000732421875 C52.09199905395508,-33.332000732421875 37.80799865722656,-25.070999145507812 37.80799865722656,-25.070999145507812 C37.80799865722656,-25.070999145507812 23.395999908447266,-33.40299987792969 23.395999908447266,-33.40299987792969 C23.395999908447266,-33.40299987792969 37.68199920654297,-41.66299819946289 37.68199920654297,-41.66299819946289 C37.68199920654297,-41.66299819946289 52.09199905395508,-33.332000732421875 52.09199905395508,-33.332000732421875z M37.268001556396484,-41.902000427246094 C37.268001556396484,-41.902000427246094 22.98200035095215,-33.64099884033203 22.98200035095215,-33.64099884033203 C22.98200035095215,-33.64099884033203 8.616999626159668,-41.94900131225586 8.616999626159668,-41.94900131225586 C8.616999626159668,-41.94900131225586 22.899999618530273,-50.20899963378906 22.899999618530273,-50.20899963378906 C22.899999618530273,-50.20899963378906 37.268001556396484,-41.902000427246094 37.268001556396484,-41.902000427246094z M8.20199966430664,-58.707000732421875 C8.20199966430664,-58.707000732421875 22.488000869750977,-50.446998596191406 22.488000869750977,-50.446998596191406 C22.488000869750977,-50.446998596191406 8.20199966430664,-42.1879997253418 8.20199966430664,-42.1879997253418 C8.20199966430664,-42.1879997253418 -6.083000183105469,-50.446998596191406 -6.083000183105469,-50.446998596191406 C-6.083000183105469,-50.446998596191406 8.20199966430664,-58.707000732421875 8.20199966430664,-58.707000732421875z M7.788000106811523,-41.94900131225586 C7.788000106811523,-41.94900131225586 -6.622000217437744,-33.6150016784668 -6.622000217437744,-33.6150016784668 C-6.622000217437744,-33.6150016784668 -20.90999984741211,-41.875 -20.90999984741211,-41.875 C-20.90999984741211,-41.875 -6.499000072479248,-50.20899963378906 -6.499000072479248,-50.20899963378906 C-6.499000072479248,-50.20899963378906 7.788000106811523,-41.94900131225586 7.788000106811523,-41.94900131225586z M-21.32200050354004,-58.78200149536133 C-21.32200050354004,-58.78200149536133 -6.909999847412109,-50.446998596191406 -6.909999847412109,-50.446998596191406 C-6.909999847412109,-50.446998596191406 -21.32200050354004,-42.1150016784668 -21.32200050354004,-42.1150016784668 C-21.32200050354004,-42.1150016784668 -35.73400115966797,-50.446998596191406 -35.73400115966797,-50.446998596191406 C-35.73400115966797,-50.446998596191406 -21.32200050354004,-58.78200149536133 -21.32200050354004,-58.78200149536133z M-50.51599884033203,-41.902000427246094 C-50.51599884033203,-41.902000427246094 -36.14799880981445,-50.20899963378906 -36.14799880981445,-50.20899963378906 C-36.14799880981445,-50.20899963378906 -21.738000869750977,-41.875 -21.738000869750977,-41.875 C-21.738000869750977,-41.875 -36.104000091552734,-33.569000244140625 -36.104000091552734,-33.569000244140625 C-36.104000091552734,-33.569000244140625 -50.51599884033203,-41.902000427246094 -50.51599884033203,-41.902000427246094z M-36.104000091552734,-33.09000015258789 C-36.104000091552734,-33.09000015258789 -21.81800079345703,-24.83099937438965 -21.81800079345703,-24.83099937438965 C-21.81800079345703,-24.83099937438965 -36.14799880981445,-16.54400062561035 -36.14799880981445,-16.54400062561035 C-36.14799880981445,-16.54400062561035 -50.433998107910156,-24.804000854492188 -50.433998107910156,-24.804000854492188 C-50.433998107910156,-24.804000854492188 -36.104000091552734,-33.09000015258789 -36.104000091552734,-33.09000015258789z M-65.21399688720703,-16.256999969482422 C-65.21399688720703,-16.256999969482422 -50.847999572753906,-24.562000274658203 -50.847999572753906,-24.562000274658203 C-50.847999572753906,-24.562000274658203 -36.56399917602539,-16.304000854492188 -36.56399917602539,-16.304000854492188 C-36.56399917602539,-16.304000854492188 -50.928001403808594,-7.999000072479248 -50.928001403808594,-7.999000072479248 C-50.928001403808594,-7.999000072479248 -65.21399688720703,-16.256999969482422 -65.21399688720703,-16.256999969482422z M-65.31600189208984,0.7990000247955322 C-65.31600189208984,0.7990000247955322 -50.928001403808594,-7.520999908447266 -50.928001403808594,-7.520999908447266 C-50.928001403808594,-7.520999908447266 -36.56100082397461,0.7860000133514404 -36.56100082397461,0.7860000133514404 C-36.56100082397461,0.7860000133514404 -50.94900131225586,9.104999542236328 -50.94900131225586,9.104999542236328 C-50.94900131225586,9.104999542236328 -65.31600189208984,0.7990000247955322 -65.31600189208984,0.7990000247955322z M-50.53499984741211,9.343999862670898 C-50.53499984741211,9.343999862670898 -36.14799880981445,1.0269999504089355 -36.14799880981445,1.0269999504089355 C-36.14799880981445,1.0269999504089355 -21.738000869750977,9.361000061035156 -21.738000869750977,9.361000061035156 C-21.738000869750977,9.361000061035156 -36.124000549316406,17.67799949645996 -36.124000549316406,17.67799949645996 C-36.124000549316406,17.67799949645996 -50.53499984741211,9.343999862670898 -50.53499984741211,9.343999862670898z M-50.481998443603516,26.45800018310547 C-50.481998443603516,26.45800018310547 -36.124000549316406,18.15399932861328 -36.124000549316406,18.15399932861328 C-36.124000549316406,18.15399932861328 -21.836999893188477,26.415000915527344 -21.836999893188477,26.415000915527344 C-21.836999893188477,26.415000915527344 -36.196998596191406,34.72100067138672 -36.196998596191406,34.72100067138672 C-36.196998596191406,34.72100067138672 -50.481998443603516,26.45800018310547 -50.481998443603516,26.45800018310547z M-50.513999938964844,43.47700119018555 C-50.513999938964844,43.47700119018555 -36.196998596191406,35.196998596191406 -36.196998596191406,35.196998596191406 C-36.196998596191406,35.196998596191406 -21.788000106811523,43.52899932861328 -21.788000106811523,43.52899932861328 C-21.788000106811523,43.52899932861328 -36.104000091552734,51.81100082397461 -36.104000091552734,51.81100082397461 C-36.104000091552734,51.81100082397461 -50.513999938964844,43.47700119018555 -50.513999938964844,43.47700119018555z M-21.32200050354004,60.354000091552734 C-21.32200050354004,60.354000091552734 -35.68899917602539,52.04899978637695 -35.68899917602539,52.04899978637695 C-35.68899917602539,52.04899978637695 -21.374000549316406,43.77299880981445 -21.374000549316406,43.77299880981445 C-21.374000549316406,43.77299880981445 -7.01200008392334,52.07899856567383 -7.01200008392334,52.07899856567383 C-7.01200008392334,52.07899856567383 -21.32200050354004,60.354000091552734 -21.32200050354004,60.354000091552734z M-20.959999084472656,43.52899932861328 C-20.959999084472656,43.52899932861328 -6.593999862670898,35.224998474121094 -6.593999862670898,35.224998474121094 C-6.593999862670898,35.224998474121094 7.7729997634887695,43.52899932861328 7.7729997634887695,43.52899932861328 C7.7729997634887695,43.52899932861328 -6.5960001945495605,51.8390007019043 -6.5960001945495605,51.8390007019043 C-6.5960001945495605,51.8390007019043 -20.959999084472656,43.52899932861328 -20.959999084472656,43.52899932861328z M8.20199966430664,60.39799880981445 C8.20199966430664,60.39799880981445 -6.182000160217285,52.08100128173828 -6.182000160217285,52.08100128173828 C-6.182000160217285,52.08100128173828 8.187999725341797,43.77000045776367 8.187999725341797,43.77000045776367 C8.187999725341797,43.77000045776367 22.575000762939453,52.084999084472656 22.575000762939453,52.084999084472656 C22.575000762939453,52.084999084472656 8.20199966430664,60.39799880981445 8.20199966430664,60.39799880981445z M22.988000869750977,51.847999572753906 C22.988000869750977,51.847999572753906 8.602999687194824,43.52899932861328 8.602999687194824,43.52899932861328 C8.602999687194824,43.52899932861328 22.98200035095215,35.21699905395508 22.98200035095215,35.21699905395508 C22.98200035095215,35.21699905395508 37.36600112915039,43.52899932861328 37.36600112915039,43.52899932861328 C37.36600112915039,43.52899932861328 22.988000869750977,51.847999572753906 22.988000869750977,51.847999572753906z M37.77899932861328,43.29199981689453 C37.77899932861328,43.29199981689453 23.395999908447266,34.97700119018555 23.395999908447266,34.97700119018555 C23.395999908447266,34.97700119018555 37.7599983215332,26.67099952697754 37.7599983215332,26.67099952697754 C37.7599983215332,26.67099952697754 52.141998291015625,34.98400115966797 52.141998291015625,34.98400115966797 C52.141998291015625,34.98400115966797 37.77899932861328,43.29199981689453 37.77899932861328,43.29199981689453z"></path><path stroke-linecap="butt" stroke-linejoin="miter" fill-opacity="0" stroke-miterlimit="10" stroke="rgb(17,137,165)" stroke-opacity="1" stroke-width="0" d=" M60.23899841308594,30.7810001373291 C60.35499954223633,30.558000564575195 60.46500015258789,30.33099937438965 60.57899856567383,30.104999542236328 C60.57899856567383,30.104999542236328 52.55500030517578,34.744998931884766 52.55500030517578,34.744998931884766 C52.55500030517578,34.744998931884766 38.17399978637695,26.43199920654297 38.17399978637695,26.43199920654297 C38.17399978637695,26.43199920654297 52.507999420166016,18.145999908447266 52.507999420166016,18.145999908447266 C52.507999420166016,18.145999908447266 63.154998779296875,24.301000595092773 63.154998779296875,24.301000595092773 C63.20500183105469,24.170000076293945 63.25299835205078,24.038999557495117 63.301998138427734,23.908000946044922 C63.301998138427734,23.908000946044922 52.922000885009766,17.905000686645508 52.922000885009766,17.905000686645508 C52.922000885009766,17.905000686645508 66.98200225830078,9.774999618530273 66.98200225830078,9.774999618530273 C67.01899719238281,9.520000457763672 67.05400085449219,9.263999938964844 67.08999633789062,9.006999969482422 C67.08999633789062,9.006999969482422 52.922000885009766,0.8140000104904175 52.922000885009766,0.8140000104904175 C52.922000885009766,0.8140000104904175 67.2979965209961,-7.499000072479248 67.2979965209961,-7.499000072479248 C67.27799987792969,-7.684999942779541 67.25599670410156,-7.872000217437744 67.23300170898438,-8.057000160217285 C67.23300170898438,-8.057000160217285 52.92399978637695,-16.33099937438965 52.92399978637695,-16.33099937438965 C52.92399978637695,-16.33099937438965 63.840999603271484,-22.645999908447266 63.840999603271484,-22.645999908447266 C63.79499816894531,-22.777999877929688 63.749000549316406,-22.90999984741211 63.70199966430664,-23.04199981689453 C63.70199966430664,-23.04199981689453 52.507999420166016,-16.56999969482422 52.507999420166016,-16.56999969482422 C52.507999420166016,-16.56999969482422 38.22100067138672,-24.83099937438965 38.22100067138672,-24.83099937438965 C38.22100067138672,-24.83099937438965 52.507999420166016,-33.09000015258789 52.507999420166016,-33.09000015258789 C52.507999420166016,-33.09000015258789 61.814998626708984,-27.708999633789062 61.814998626708984,-27.708999633789062 C61.71699905395508,-27.927000045776367 61.61399841308594,-28.143999099731445 61.513999938964844,-28.361000061035156 C61.513999938964844,-28.361000061035156 52.922000885009766,-33.332000732421875 52.922000885009766,-33.332000732421875 C52.922000885009766,-33.332000732421875 57.415000915527344,-35.92900085449219 57.415000915527344,-35.92900085449219 C57.340999603271484,-36.04600143432617 57.26900100708008,-36.16400146484375 57.19499969482422,-36.279998779296875 C57.19499969482422,-36.279998779296875 52.507999420166016,-33.569000244140625 52.507999420166016,-33.569000244140625 C52.507999420166016,-33.569000244140625 38.09600067138672,-41.902000427246094 38.09600067138672,-41.902000427246094 C38.09600067138672,-41.902000427246094 48.08100128173828,-47.676998138427734 48.08100128173828,-47.676998138427734 C47.98099899291992,-47.77799987792969 47.88199996948242,-47.87900161743164 47.779998779296875,-47.97999954223633 C47.779998779296875,-47.97999954223633 37.68199920654297,-42.141998291015625 37.68199920654297,-42.141998291015625 C37.68199920654297,-42.141998291015625 23.315000534057617,-50.446998596191406 23.315000534057617,-50.446998596191406 C23.315000534057617,-50.446998596191406 35.625999450683594,-57.564998626708984 35.625999450683594,-57.564998626708984 C35.49300003051758,-57.64699935913086 35.361000061035156,-57.731998443603516 35.22800064086914,-57.81399917602539 C35.22800064086914,-57.81399917602539 22.899999618530273,-50.6879997253418 22.899999618530273,-50.6879997253418 C22.899999618530273,-50.6879997253418 8.616999626159668,-58.946998596191406 8.616999626159668,-58.946998596191406 C8.616999626159668,-58.946998596191406 18.9950008392334,-64.94599914550781 18.9950008392334,-64.94599914550781 C18.80900001525879,-65.0009994506836 18.625,-65.05400085449219 18.437999725341797,-65.1050033569336 C18.437999725341797,-65.1050033569336 8.201000213623047,-59.1870002746582 8.201000213623047,-59.1870002746582 C8.201000213623047,-59.1870002746582 -5.874000072479248,-67.32499694824219 -5.874000072479248,-67.32499694824219 C-6.11299991607666,-67.30400085449219 -6.353000164031982,-67.28600311279297 -6.5920000076293945,-67.26100158691406 C-6.5920000076293945,-67.26100158691406 7.785999774932861,-58.946998596191406 7.785999774932861,-58.946998596191406 C7.785999774932861,-58.946998596191406 -6.499000072479248,-50.6879997253418 -6.499000072479248,-50.6879997253418 C-6.499000072479248,-50.6879997253418 -20.90999984741211,-59.02000045776367 -20.90999984741211,-59.02000045776367 C-20.90999984741211,-59.02000045776367 -6.669000148773193,-67.25499725341797 -6.669000148773193,-67.25499725341797 C-7.013999938964844,-67.22000122070312 -7.35699987411499,-67.1780014038086 -7.701000213623047,-67.13700103759766 C-7.701000213623047,-67.13700103759766 -21.32200050354004,-59.26100158691406 -21.32200050354004,-59.26100158691406 C-21.32200050354004,-59.26100158691406 -26.35700035095215,-62.16999816894531 -26.35700035095215,-62.16999816894531 C-26.516000747680664,-62.10300064086914 -26.67300033569336,-62.03300094604492 -26.83099937438965,-61.9630012512207 C-26.83099937438965,-61.9630012512207 -21.739999771118164,-59.02000045776367 -21.739999771118164,-59.02000045776367 C-21.739999771118164,-59.02000045776367 -36.14799880981445,-50.6879997253418 -36.14799880981445,-50.6879997253418 C-36.14799880981445,-50.6879997253418 -41.053001403808594,-53.52299880981445 -41.053001403808594,-53.52299880981445 C-41.172000885009766,-53.43199920654297 -41.292999267578125,-53.34199905395508 -41.40999984741211,-53.25 C-41.40999984741211,-53.25 -36.56399917602539,-50.446998596191406 -36.56399917602539,-50.446998596191406 C-36.56399917602539,-50.446998596191406 -50.928001403808594,-42.141998291015625 -50.928001403808594,-42.141998291015625 C-50.928001403808594,-42.141998291015625 -52.071998596191406,-42.803001403808594 -52.071998596191406,-42.803001403808594 C-52.15999984741211,-42.69499969482422 -52.24700164794922,-42.58399963378906 -52.334999084472656,-42.47600173950195 C-52.334999084472656,-42.47600173950195 -51.34400177001953,-41.902000427246094 -51.34400177001953,-41.902000427246094 C-51.34400177001953,-41.902000427246094 -53.95800018310547,-40.39099884033203 -53.95800018310547,-40.39099884033203 C-54.1619987487793,-40.11600112915039 -54.361000061035156,-39.8390007019043 -54.56100082397461,-39.5620002746582 C-54.56100082397461,-39.5620002746582 -50.928001403808594,-41.66299819946289 -50.928001403808594,-41.66299819946289 C-50.928001403808594,-41.66299819946289 -36.51599884033203,-33.332000732421875 -36.51599884033203,-33.332000732421875 C-36.51599884033203,-33.332000732421875 -50.847999572753906,-25.04199981689453 -50.847999572753906,-25.04199981689453 C-50.847999572753906,-25.04199981689453 -60.124000549316406,-30.405000686645508 -60.124000549316406,-30.405000686645508 C-60.1870002746582,-30.281999588012695 -60.24700164794922,-30.158000946044922 -60.308998107910156,-30.034000396728516 C-60.308998107910156,-30.034000396728516 -51.263999938964844,-24.804000854492188 -51.263999938964844,-24.804000854492188 C-51.263999938964844,-24.804000854492188 -65.23200225830078,-16.72800064086914 -65.23200225830078,-16.72800064086914 C-65.3010025024414,-16.45400047302246 -65.36599731445312,-16.179000854492188 -65.43199920654297,-15.904000282287598 C-65.43199920654297,-15.904000282287598 -51.34400177001953,-7.756999969482422 -51.34400177001953,-7.756999969482422 C-51.34400177001953,-7.756999969482422 -65.7300033569336,0.5609999895095825 -65.7300033569336,0.5609999895095825 C-65.7300033569336,0.5609999895095825 -67.29399871826172,-0.3440000116825104 -67.29399871826172,-0.3440000116825104 C-67.29399871826172,-0.2630000114440918 -67.2979965209961,-0.18199999630451202 -67.2979965209961,-0.10000000149011612 C-67.2979965209961,-0.02199999988079071 -67.29399871826172,0.054999999701976776 -67.29399871826172,0.13300000131130219 C-67.29399871826172,0.13300000131130219 -66.14299774169922,0.7990000247955322 -66.14299774169922,0.7990000247955322 C-66.14299774169922,0.7990000247955322 -67.2770004272461,1.4550000429153442 -67.2770004272461,1.4550000429153442 C-67.27300262451172,1.6109999418258667 -67.26899719238281,1.7699999809265137 -67.26399993896484,1.9259999990463257 C-67.26399993896484,1.9259999990463257 -65.7300033569336,1.0399999618530273 -65.7300033569336,1.0399999618530273 C-65.7300033569336,1.0399999618530273 -51.3650016784668,9.343999862670898 -51.3650016784668,9.343999862670898 C-51.3650016784668,9.343999862670898 -65.04199981689453,17.250999450683594 -65.04199981689453,17.250999450683594 C-65.00499725341797,17.391000747680664 -64.96700286865234,17.530000686645508 -64.93000030517578,17.66900062561035 C-64.93000030517578,17.66900062561035 -50.94900131225586,9.585000038146973 -50.94900131225586,9.585000038146973 C-50.94900131225586,9.585000038146973 -36.5359992980957,17.915000915527344 -36.5359992980957,17.915000915527344 C-36.5359992980957,17.915000915527344 -50.895999908447266,26.2189998626709 -50.895999908447266,26.2189998626709 C-50.895999908447266,26.2189998626709 -64.79000091552734,18.18199920654297 -64.79000091552734,18.18199920654297 C-64.73600006103516,18.37299919128418 -64.68000030517578,18.562999725341797 -64.6259994506836,18.7549991607666 C-64.6259994506836,18.7549991607666 -51.308998107910156,26.45800018310547 -51.308998107910156,26.45800018310547 C-51.308998107910156,26.45800018310547 -59.5890007019043,31.243000030517578 -59.5890007019043,31.243000030517578 C-59.52399826049805,31.365999221801758 -59.46099853515625,31.48900032043457 -59.39500045776367,31.611000061035156 C-59.39500045776367,31.611000061035156 -50.89500045776367,26.69700050354004 -50.89500045776367,26.69700050354004 C-50.89500045776367,26.69700050354004 -36.611000061035156,34.95800018310547 -36.611000061035156,34.95800018310547 C-36.611000061035156,34.95800018310547 -50.928001403808594,43.236000061035156 -50.928001403808594,43.236000061035156 C-50.928001403808594,43.236000061035156 -52.1150016784668,42.55099868774414 -52.1150016784668,42.55099868774414 C-51.861000061035156,42.861000061035156 -51.60300064086914,43.16999816894531 -51.34400177001953,43.47700119018555 C-51.25299835205078,43.58300018310547 -51.16299819946289,43.689998626708984 -51.071998596191406,43.79800033569336 C-51.071998596191406,43.79800033569336 -50.928001403808594,43.7140007019043 -50.928001403808594,43.7140007019043 C-50.928001403808594,43.7140007019043 -36.51599884033203,52.04899978637695 -36.51599884033203,52.04899978637695 C-36.51599884033203,52.04899978637695 -40.04800033569336,54.0890007019043 -40.04800033569336,54.0890007019043 C-39.926998138427734,54.18000030517578 -39.80400085449219,54.266998291015625 -39.68199920654297,54.35499954223633 C-39.68199920654297,54.35499954223633 -36.104000091552734,52.2859992980957 -36.104000091552734,52.2859992980957 C-36.104000091552734,52.2859992980957 -21.738000869750977,60.59199905395508 -21.738000869750977,60.59199905395508 C-21.738000869750977,60.59199905395508 -25.05500030517578,62.5099983215332 -25.05500030517578,62.5099983215332 C-24.89299964904785,62.57600021362305 -24.73200035095215,62.645999908447266 -24.56800079345703,62.71099853515625 C-24.56800079345703,62.71099853515625 -21.32200050354004,60.83300018310547 -21.32200050354004,60.83300018310547 C-21.32200050354004,60.83300018310547 -11.809000015258789,66.33499908447266 -11.809000015258789,66.33499908447266 C-11.420999526977539,66.40299987792969 -11.029999732971191,66.46700286865234 -10.638999938964844,66.52899932861328 C-10.638999938964844,66.52899932861328 -20.90999984741211,60.59199905395508 -20.90999984741211,60.59199905395508 C-20.90999984741211,60.59199905395508 -6.5960001945495605,52.31800079345703 -6.5960001945495605,52.31800079345703 C-6.5960001945495605,52.31800079345703 7.788000106811523,60.638999938964844 7.788000106811523,60.638999938964844 C7.788000106811523,60.638999938964844 -3.7060000896453857,67.28500366210938 -3.7060000896453857,67.28500366210938 C-3.4519999027252197,67.30000305175781 -3.197999954223633,67.31300354003906 -2.943000078201294,67.32499694824219 C-2.943000078201294,67.32499694824219 8.20199966430664,60.87900161743164 8.20199966430664,60.87900161743164 C8.20199966430664,60.87900161743164 16.18000030517578,65.49299621582031 16.18000030517578,65.49299621582031 C16.375999450683594,65.44499969482422 16.57200050354004,65.39900207519531 16.764999389648438,65.3499984741211 C16.764999389648438,65.3499984741211 8.616999626159668,60.638999938964844 8.616999626159668,60.638999938964844 C8.616999626159668,60.638999938964844 22.989999771118164,52.32699966430664 22.989999771118164,52.32699966430664 C22.989999771118164,52.32699966430664 33.69900131225586,58.51599884033203 33.69900131225586,58.51599884033203 C33.834999084472656,58.4379997253418 33.970001220703125,58.35499954223633 34.106998443603516,58.275001525878906 C34.106998443603516,58.275001525878906 23.402000427246094,52.084999084472656 23.402000427246094,52.084999084472656 C23.402000427246094,52.084999084472656 37.77899932861328,43.77299880981445 37.77899932861328,43.77299880981445 C37.77899932861328,43.77299880981445 46.632999420166016,48.893001556396484 46.632999420166016,48.893001556396484 C46.737998962402344,48.792999267578125 46.84299850463867,48.69300079345703 46.946998596191406,48.59400177001953 C46.946998596191406,48.59400177001953 38.19300079345703,43.52899932861328 38.19300079345703,43.52899932861328 C38.19300079345703,43.52899932861328 52.55500030517578,35.224998474121094 52.55500030517578,35.224998474121094 C52.55500030517578,35.224998474121094 56.32899856567383,37.40599822998047 56.32899856567383,37.40599822998047 C56.40599822998047,37.29199981689453 56.48099899291992,37.17499923706055 56.55799865722656,37.058998107910156 C56.55799865722656,37.058998107910156 52.96900177001953,34.98400115966797 52.96900177001953,34.98400115966797 C52.96900177001953,34.98400115966797 60.23899841308594,30.7810001373291 60.23899841308594,30.7810001373291z M37.7599983215332,26.18899917602539 C37.7599983215332,26.18899917602539 23.395999908447266,17.885000228881836 23.395999908447266,17.885000228881836 C23.395999908447266,17.885000228881836 37.729000091552734,9.600000381469727 37.729000091552734,9.600000381469727 C37.729000091552734,9.600000381469727 52.09199905395508,17.90399932861328 52.09199905395508,17.90399932861328 C52.09199905395508,17.90399932861328 37.7599983215332,26.18899917602539 37.7599983215332,26.18899917602539z M-6.208000183105469,-16.28499984741211 C-6.208000183105469,-16.28499984741211 8.156000137329102,-24.591999053955078 8.156000137329102,-24.591999053955078 C8.156000137329102,-24.591999053955078 22.56800079345703,-16.256999969482422 22.56800079345703,-16.256999969482422 C22.56800079345703,-16.256999969482422 8.20199966430664,-7.952000141143799 8.20199966430664,-7.952000141143799 C8.20199966430664,-7.952000141143799 -6.208000183105469,-16.28499984741211 -6.208000183105469,-16.28499984741211z M22.488000869750977,0.7860000133514404 C22.488000869750977,0.7860000133514404 8.156000137329102,9.074000358581543 8.156000137329102,9.074000358581543 C8.156000137329102,9.074000358581543 -6.130000114440918,0.8140000104904175 -6.130000114440918,0.8140000104904175 C-6.130000114440918,0.8140000104904175 8.20199966430664,-7.474999904632568 8.20199966430664,-7.474999904632568 C8.20199966430664,-7.474999904632568 22.488000869750977,0.7860000133514404 22.488000869750977,0.7860000133514404z M7.788000106811523,-7.711999893188477 C7.788000106811523,-7.711999893188477 -6.546000003814697,0.574999988079071 -6.546000003814697,0.574999988079071 C-6.546000003814697,0.574999988079071 -20.95400047302246,-7.756999969482422 -20.95400047302246,-7.756999969482422 C-20.95400047302246,-7.756999969482422 -6.622000217437744,-16.045000076293945 -6.622000217437744,-16.045000076293945 C-6.622000217437744,-16.045000076293945 7.788000106811523,-7.711999893188477 7.788000106811523,-7.711999893188477z M7.743000030517578,9.312000274658203 C7.743000030517578,9.312000274658203 -6.622000217437744,17.6200008392334 -6.622000217437744,17.6200008392334 C-6.622000217437744,17.6200008392334 -20.90999984741211,9.361000061035156 -20.90999984741211,9.361000061035156 C-20.90999984741211,9.361000061035156 -6.546000003814697,1.0529999732971191 -6.546000003814697,1.0529999732971191 C-6.546000003814697,1.0529999732971191 7.743000030517578,9.312000274658203 7.743000030517578,9.312000274658203z M8.156000137329102,9.555000305175781 C8.156000137329102,9.555000305175781 22.56800079345703,17.885000228881836 22.56800079345703,17.885000228881836 C22.56800079345703,17.885000228881836 8.20199966430664,26.18899917602539 8.20199966430664,26.18899917602539 C8.20199966430664,26.18899917602539 -6.208000183105469,17.858999252319336 -6.208000183105469,17.858999252319336 C-6.208000183105469,17.858999252319336 8.156000137329102,9.555000305175781 8.156000137329102,9.555000305175781z M8.571000099182129,9.314000129699707 C8.571000099182129,9.314000129699707 22.902000427246094,1.0269999504089355 22.902000427246094,1.0269999504089355 C22.902000427246094,1.0269999504089355 37.3120002746582,9.361000061035156 37.3120002746582,9.361000061035156 C37.3120002746582,9.361000061035156 22.979999542236328,17.645999908447266 22.979999542236328,17.645999908447266 C22.979999542236328,17.645999908447266 8.571000099182129,9.314000129699707 8.571000099182129,9.314000129699707z M23.31599998474121,0.7860000133514404 C23.31599998474121,0.7860000133514404 37.68199920654297,-7.519999980926514 37.68199920654297,-7.519999980926514 C37.68199920654297,-7.519999980926514 52.09199905395508,0.8140000104904175 52.09199905395508,0.8140000104904175 C52.09199905395508,0.8140000104904175 37.72700119018555,9.119999885559082 37.72700119018555,9.119999885559082 C37.72700119018555,9.119999885559082 23.31599998474121,0.7860000133514404 23.31599998474121,0.7860000133514404z M22.902000427246094,0.546999990940094 C22.902000427246094,0.546999990940094 8.616999626159668,-7.711999893188477 8.616999626159668,-7.711999893188477 C8.616999626159668,-7.711999893188477 22.98200035095215,-16.01799964904785 22.98200035095215,-16.01799964904785 C22.98200035095215,-16.01799964904785 37.268001556396484,-7.756999969482422 37.268001556396484,-7.756999969482422 C37.268001556396484,-7.756999969482422 22.902000427246094,0.546999990940094 22.902000427246094,0.546999990940094z M8.571000099182129,-24.83099937438965 C8.571000099182129,-24.83099937438965 22.98200035095215,-33.16299819946289 22.98200035095215,-33.16299819946289 C22.98200035095215,-33.16299819946289 37.393001556396484,-24.83099937438965 37.393001556396484,-24.83099937438965 C37.393001556396484,-24.83099937438965 22.98200035095215,-16.499000549316406 22.98200035095215,-16.499000549316406 C22.98200035095215,-16.499000549316406 8.571000099182129,-24.83099937438965 8.571000099182129,-24.83099937438965z M8.156999588012695,-25.070999145507812 C8.156999588012695,-25.070999145507812 -6.210000038146973,-33.375999450683594 -6.210000038146973,-33.375999450683594 C-6.210000038146973,-33.375999450683594 8.20199966430664,-41.70899963378906 8.20199966430664,-41.70899963378906 C8.20199966430664,-41.70899963378906 22.56800079345703,-33.40299987792969 22.56800079345703,-33.40299987792969 C22.56800079345703,-33.40299987792969 8.156999588012695,-25.070999145507812 8.156999588012695,-25.070999145507812z M7.743000030517578,-24.83099937438965 C7.743000030517578,-24.83099937438965 -6.622000217437744,-16.524999618530273 -6.622000217437744,-16.524999618530273 C-6.622000217437744,-16.524999618530273 -20.989999771118164,-24.83099937438965 -20.989999771118164,-24.83099937438965 C-20.989999771118164,-24.83099937438965 -6.624000072479248,-33.137001037597656 -6.624000072479248,-33.137001037597656 C-6.624000072479248,-33.137001037597656 7.743000030517578,-24.83099937438965 7.743000030517578,-24.83099937438965z M-21.40399932861328,-25.070999145507812 C-21.40399932861328,-25.070999145507812 -35.68899917602539,-33.332000732421875 -35.68899917602539,-33.332000732421875 C-35.68899917602539,-33.332000732421875 -21.32200050354004,-41.63600158691406 -21.32200050354004,-41.63600158691406 C-21.32200050354004,-41.63600158691406 -7.038000106811523,-33.375999450683594 -7.038000106811523,-33.375999450683594 C-7.038000106811523,-33.375999450683594 -21.40399932861328,-25.070999145507812 -21.40399932861328,-25.070999145507812z M-7.038000106811523,-16.28499984741211 C-7.038000106811523,-16.28499984741211 -21.368999481201172,-7.999000072479248 -21.368999481201172,-7.999000072479248 C-21.368999481201172,-7.999000072479248 -35.73400115966797,-16.304000854492188 -35.73400115966797,-16.304000854492188 C-35.73400115966797,-16.304000854492188 -21.40399932861328,-24.591999053955078 -21.40399932861328,-24.591999053955078 C-21.40399932861328,-24.591999053955078 -7.038000106811523,-16.28499984741211 -7.038000106811523,-16.28499984741211z M-21.78499984741211,-7.756999969482422 C-21.78499984741211,-7.756999969482422 -36.14799880981445,0.546999990940094 -36.14799880981445,0.546999990940094 C-36.14799880981445,0.546999990940094 -50.51599884033203,-7.756999969482422 -50.51599884033203,-7.756999969482422 C-50.51599884033203,-7.756999969482422 -36.14799880981445,-16.06399917602539 -36.14799880981445,-16.06399917602539 C-36.14799880981445,-16.06399917602539 -21.78499984741211,-7.756999969482422 -21.78499984741211,-7.756999969482422z M-21.368999481201172,-7.519999980926514 C-21.368999481201172,-7.519999980926514 -6.960000038146973,0.8140000104904175 -6.960000038146973,0.8140000104904175 C-6.960000038146973,0.8140000104904175 -21.32200050354004,9.119999885559082 -21.32200050354004,9.119999885559082 C-21.32200050354004,9.119999885559082 -35.73400115966797,0.7860000133514404 -35.73400115966797,0.7860000133514404 C-35.73400115966797,0.7860000133514404 -21.368999481201172,-7.519999980926514 -21.368999481201172,-7.519999980926514z M-7.038000106811523,17.858999252319336 C-7.038000106811523,17.858999252319336 -21.42099952697754,26.173999786376953 -21.42099952697754,26.173999786376953 C-21.42099952697754,26.173999786376953 -35.70800018310547,17.915000915527344 -35.70800018310547,17.915000915527344 C-35.70800018310547,17.915000915527344 -21.32200050354004,9.600000381469727 -21.32200050354004,9.600000381469727 C-21.32200050354004,9.600000381469727 -7.038000106811523,17.858999252319336 -7.038000106811523,17.858999252319336z M-7.007999897003174,34.98400115966797 C-7.007999897003174,34.98400115966797 -21.374000549316406,43.29199981689453 -21.374000549316406,43.29199981689453 C-21.374000549316406,43.29199981689453 -35.78300094604492,34.959999084472656 -35.78300094604492,34.959999084472656 C-35.78300094604492,34.959999084472656 -21.42099952697754,26.652000427246094 -21.42099952697754,26.652000427246094 C-21.42099952697754,26.652000427246094 -7.007999897003174,34.98400115966797 -7.007999897003174,34.98400115966797z M-21.006999969482422,26.415000915527344 C-21.006999969482422,26.415000915527344 -6.622000217437744,18.097999572753906 -6.622000217437744,18.097999572753906 C-6.622000217437744,18.097999572753906 7.788000106811523,26.43199920654297 7.788000106811523,26.43199920654297 C7.788000106811523,26.43199920654297 -6.5929999351501465,34.744998931884766 -6.5929999351501465,34.744998931884766 C-6.5929999351501465,34.744998931884766 -21.006999969482422,26.415000915527344 -21.006999969482422,26.415000915527344z M8.20199966430664,26.67099952697754 C8.20199966430664,26.67099952697754 22.56800079345703,34.97700119018555 22.56800079345703,34.97700119018555 C22.56800079345703,34.97700119018555 8.187999725341797,43.29199981689453 8.187999725341797,43.29199981689453 C8.187999725341797,43.29199981689453 -6.179999828338623,34.98400115966797 -6.179999828338623,34.98400115966797 C-6.179999828338623,34.98400115966797 8.20199966430664,26.67099952697754 8.20199966430664,26.67099952697754z M8.616999626159668,26.43199920654297 C8.616999626159668,26.43199920654297 22.98200035095215,18.121999740600586 22.98200035095215,18.121999740600586 C22.98200035095215,18.121999740600586 37.34600067138672,26.43199920654297 37.34600067138672,26.43199920654297 C37.34600067138672,26.43199920654297 22.98200035095215,34.73400115966797 22.98200035095215,34.73400115966797 C22.98200035095215,34.73400115966797 8.616999626159668,26.43199920654297 8.616999626159668,26.43199920654297z M66.87000274658203,9.359999656677246 C66.87000274658203,9.359999656677246 52.507999420166016,17.663000106811523 52.507999420166016,17.663000106811523 C52.507999420166016,17.663000106811523 38.143001556396484,9.359999656677246 38.143001556396484,9.359999656677246 C38.143001556396484,9.359999656677246 52.507999420166016,1.0529999732971191 52.507999420166016,1.0529999732971191 C52.507999420166016,1.0529999732971191 66.87000274658203,9.359999656677246 66.87000274658203,9.359999656677246z M52.5099983215332,-16.091999053955078 C52.5099983215332,-16.091999053955078 66.91899871826172,-7.756999969482422 66.91899871826172,-7.756999969482422 C66.91899871826172,-7.756999969482422 52.507999420166016,0.574999988079071 52.507999420166016,0.574999988079071 C52.507999420166016,0.574999988079071 38.09600067138672,-7.756999969482422 38.09600067138672,-7.756999969482422 C38.09600067138672,-7.756999969482422 52.5099983215332,-16.091999053955078 52.5099983215332,-16.091999053955078z M52.09400177001953,-16.33099937438965 C52.09400177001953,-16.33099937438965 37.68199920654297,-7.999000072479248 37.68199920654297,-7.999000072479248 C37.68199920654297,-7.999000072479248 23.395999908447266,-16.256999969482422 23.395999908447266,-16.256999969482422 C23.395999908447266,-16.256999969482422 37.80799865722656,-24.591999053955078 37.80799865722656,-24.591999053955078 C37.80799865722656,-24.591999053955078 52.09400177001953,-16.33099937438965 52.09400177001953,-16.33099937438965z M52.09199905395508,-33.332000732421875 C52.09199905395508,-33.332000732421875 37.80799865722656,-25.070999145507812 37.80799865722656,-25.070999145507812 C37.80799865722656,-25.070999145507812 23.395999908447266,-33.40299987792969 23.395999908447266,-33.40299987792969 C23.395999908447266,-33.40299987792969 37.68199920654297,-41.66299819946289 37.68199920654297,-41.66299819946289 C37.68199920654297,-41.66299819946289 52.09199905395508,-33.332000732421875 52.09199905395508,-33.332000732421875z M37.268001556396484,-41.902000427246094 C37.268001556396484,-41.902000427246094 22.98200035095215,-33.64099884033203 22.98200035095215,-33.64099884033203 C22.98200035095215,-33.64099884033203 8.616999626159668,-41.94900131225586 8.616999626159668,-41.94900131225586 C8.616999626159668,-41.94900131225586 22.899999618530273,-50.20899963378906 22.899999618530273,-50.20899963378906 C22.899999618530273,-50.20899963378906 37.268001556396484,-41.902000427246094 37.268001556396484,-41.902000427246094z M8.20199966430664,-58.707000732421875 C8.20199966430664,-58.707000732421875 22.488000869750977,-50.446998596191406 22.488000869750977,-50.446998596191406 C22.488000869750977,-50.446998596191406 8.20199966430664,-42.1879997253418 8.20199966430664,-42.1879997253418 C8.20199966430664,-42.1879997253418 -6.083000183105469,-50.446998596191406 -6.083000183105469,-50.446998596191406 C-6.083000183105469,-50.446998596191406 8.20199966430664,-58.707000732421875 8.20199966430664,-58.707000732421875z M7.788000106811523,-41.94900131225586 C7.788000106811523,-41.94900131225586 -6.622000217437744,-33.6150016784668 -6.622000217437744,-33.6150016784668 C-6.622000217437744,-33.6150016784668 -20.90999984741211,-41.875 -20.90999984741211,-41.875 C-20.90999984741211,-41.875 -6.499000072479248,-50.20899963378906 -6.499000072479248,-50.20899963378906 C-6.499000072479248,-50.20899963378906 7.788000106811523,-41.94900131225586 7.788000106811523,-41.94900131225586z M-21.32200050354004,-58.78200149536133 C-21.32200050354004,-58.78200149536133 -6.909999847412109,-50.446998596191406 -6.909999847412109,-50.446998596191406 C-6.909999847412109,-50.446998596191406 -21.32200050354004,-42.1150016784668 -21.32200050354004,-42.1150016784668 C-21.32200050354004,-42.1150016784668 -35.73400115966797,-50.446998596191406 -35.73400115966797,-50.446998596191406 C-35.73400115966797,-50.446998596191406 -21.32200050354004,-58.78200149536133 -21.32200050354004,-58.78200149536133z M-50.51599884033203,-41.902000427246094 C-50.51599884033203,-41.902000427246094 -36.14799880981445,-50.20899963378906 -36.14799880981445,-50.20899963378906 C-36.14799880981445,-50.20899963378906 -21.738000869750977,-41.875 -21.738000869750977,-41.875 C-21.738000869750977,-41.875 -36.104000091552734,-33.569000244140625 -36.104000091552734,-33.569000244140625 C-36.104000091552734,-33.569000244140625 -50.51599884033203,-41.902000427246094 -50.51599884033203,-41.902000427246094z M-36.104000091552734,-33.09000015258789 C-36.104000091552734,-33.09000015258789 -21.81800079345703,-24.83099937438965 -21.81800079345703,-24.83099937438965 C-21.81800079345703,-24.83099937438965 -36.14799880981445,-16.54400062561035 -36.14799880981445,-16.54400062561035 C-36.14799880981445,-16.54400062561035 -50.433998107910156,-24.804000854492188 -50.433998107910156,-24.804000854492188 C-50.433998107910156,-24.804000854492188 -36.104000091552734,-33.09000015258789 -36.104000091552734,-33.09000015258789z M-65.21399688720703,-16.256999969482422 C-65.21399688720703,-16.256999969482422 -50.847999572753906,-24.562000274658203 -50.847999572753906,-24.562000274658203 C-50.847999572753906,-24.562000274658203 -36.56399917602539,-16.304000854492188 -36.56399917602539,-16.304000854492188 C-36.56399917602539,-16.304000854492188 -50.928001403808594,-7.999000072479248 -50.928001403808594,-7.999000072479248 C-50.928001403808594,-7.999000072479248 -65.21399688720703,-16.256999969482422 -65.21399688720703,-16.256999969482422z M-65.31600189208984,0.7990000247955322 C-65.31600189208984,0.7990000247955322 -50.928001403808594,-7.520999908447266 -50.928001403808594,-7.520999908447266 C-50.928001403808594,-7.520999908447266 -36.56100082397461,0.7860000133514404 -36.56100082397461,0.7860000133514404 C-36.56100082397461,0.7860000133514404 -50.94900131225586,9.104999542236328 -50.94900131225586,9.104999542236328 C-50.94900131225586,9.104999542236328 -65.31600189208984,0.7990000247955322 -65.31600189208984,0.7990000247955322z M-50.53499984741211,9.343999862670898 C-50.53499984741211,9.343999862670898 -36.14799880981445,1.0269999504089355 -36.14799880981445,1.0269999504089355 C-36.14799880981445,1.0269999504089355 -21.738000869750977,9.361000061035156 -21.738000869750977,9.361000061035156 C-21.738000869750977,9.361000061035156 -36.124000549316406,17.67799949645996 -36.124000549316406,17.67799949645996 C-36.124000549316406,17.67799949645996 -50.53499984741211,9.343999862670898 -50.53499984741211,9.343999862670898z M-50.481998443603516,26.45800018310547 C-50.481998443603516,26.45800018310547 -36.124000549316406,18.15399932861328 -36.124000549316406,18.15399932861328 C-36.124000549316406,18.15399932861328 -21.836999893188477,26.415000915527344 -21.836999893188477,26.415000915527344 C-21.836999893188477,26.415000915527344 -36.196998596191406,34.72100067138672 -36.196998596191406,34.72100067138672 C-36.196998596191406,34.72100067138672 -50.481998443603516,26.45800018310547 -50.481998443603516,26.45800018310547z M-50.513999938964844,43.47700119018555 C-50.513999938964844,43.47700119018555 -36.196998596191406,35.196998596191406 -36.196998596191406,35.196998596191406 C-36.196998596191406,35.196998596191406 -21.788000106811523,43.52899932861328 -21.788000106811523,43.52899932861328 C-21.788000106811523,43.52899932861328 -36.104000091552734,51.81100082397461 -36.104000091552734,51.81100082397461 C-36.104000091552734,51.81100082397461 -50.513999938964844,43.47700119018555 -50.513999938964844,43.47700119018555z M-21.32200050354004,60.354000091552734 C-21.32200050354004,60.354000091552734 -35.68899917602539,52.04899978637695 -35.68899917602539,52.04899978637695 C-35.68899917602539,52.04899978637695 -21.374000549316406,43.77299880981445 -21.374000549316406,43.77299880981445 C-21.374000549316406,43.77299880981445 -7.01200008392334,52.07899856567383 -7.01200008392334,52.07899856567383 C-7.01200008392334,52.07899856567383 -21.32200050354004,60.354000091552734 -21.32200050354004,60.354000091552734z M-20.959999084472656,43.52899932861328 C-20.959999084472656,43.52899932861328 -6.593999862670898,35.224998474121094 -6.593999862670898,35.224998474121094 C-6.593999862670898,35.224998474121094 7.7729997634887695,43.52899932861328 7.7729997634887695,43.52899932861328 C7.7729997634887695,43.52899932861328 -6.5960001945495605,51.8390007019043 -6.5960001945495605,51.8390007019043 C-6.5960001945495605,51.8390007019043 -20.959999084472656,43.52899932861328 -20.959999084472656,43.52899932861328z M8.20199966430664,60.39799880981445 C8.20199966430664,60.39799880981445 -6.182000160217285,52.08100128173828 -6.182000160217285,52.08100128173828 C-6.182000160217285,52.08100128173828 8.187999725341797,43.77000045776367 8.187999725341797,43.77000045776367 C8.187999725341797,43.77000045776367 22.575000762939453,52.084999084472656 22.575000762939453,52.084999084472656 C22.575000762939453,52.084999084472656 8.20199966430664,60.39799880981445 8.20199966430664,60.39799880981445z M22.988000869750977,51.847999572753906 C22.988000869750977,51.847999572753906 8.602999687194824,43.52899932861328 8.602999687194824,43.52899932861328 C8.602999687194824,43.52899932861328 22.98200035095215,35.21699905395508 22.98200035095215,35.21699905395508 C22.98200035095215,35.21699905395508 37.36600112915039,43.52899932861328 37.36600112915039,43.52899932861328 C37.36600112915039,43.52899932861328 22.988000869750977,51.847999572753906 22.988000869750977,51.847999572753906z M37.77899932861328,43.29199981689453 C37.77899932861328,43.29199981689453 23.395999908447266,34.97700119018555 23.395999908447266,34.97700119018555 C23.395999908447266,34.97700119018555 37.7599983215332,26.67099952697754 37.7599983215332,26.67099952697754 C37.7599983215332,26.67099952697754 52.141998291015625,34.98400115966797 52.141998291015625,34.98400115966797 C52.141998291015625,34.98400115966797 37.77899932861328,43.29199981689453 37.77899932861328,43.29199981689453z"></path></g></g></g><g clip-path="url(#__lottie_element_56)" style="display: block;" transform="matrix(7.853710174560547,0,0,7.853710174560547,-24.304779052734375,5.94769287109375)" opacity="1"><g style="display: block;" transform="matrix(1,0,0,1,0,0)" opacity="1"><g opacity="1" transform="matrix(1,0,0,1,92.73300170898438,75.44599914550781)"><path fill="rgb(250,116,28)" fill-opacity="1" d=" M14.498000144958496,-39.16299819946289 C11.128000259399414,-39.16299819946289 9.027000427246094,-36.34299850463867 9.027000427246094,-32.97200012207031 C9.027000427246094,-32.97200012207031 9.074000358581543,-11.01099967956543 9.074000358581543,-11.01099967956543 C8.782999992370605,-11.664999961853027 6.961999893188477,-12.47599983215332 5.8979997634887695,-12.47599983215332 C4.265999794006348,-12.47599983215332 3.4809999465942383,-12.434000015258789 2.3259999752044678,-11.279000282287598 C2.3259999752044678,-11.279000282287598 -17.804000854492188,9.569999694824219 -17.804000854492188,9.569999694824219 C-19.04599952697754,11.52299976348877 -19.58799934387207,12.635000228881836 -19.70400047302246,16 C-19.70400047302246,16 -19.79800033569336,37.50600051879883 -19.79800033569336,37.50600051879883 C-19.79800033569336,38.36899948120117 -19.77199935913086,39.04600143432617 -19.406999588012695,39.13199996948242 C-18.54400062561035,39.13199996948242 -18.702999114990234,38.775001525878906 -18.702999114990234,37.9119987487793 C-18.702999114990234,37.9119987487793 -18.57900047302246,14.49899959564209 -18.57900047302246,14.49899959564209 C-18.018999099731445,10.043999671936035 -16.077999114990234,9.585000038146973 -14.001999855041504,7.3429999351501465 C-14.001999855041504,7.3429999351501465 2.5209999084472656,-9.89799976348877 2.5209999084472656,-9.89799976348877 C3.0850000381469727,-10.461000442504883 4.303999900817871,-11.508000373840332 5.10099983215332,-11.508000373840332 C5.89900016784668,-11.508000373840332 8.392000198364258,-11.071000099182129 8.854999542236328,-9.788000106811523 C9.156999588012695,-8.97700023651123 9.189000129699707,-8.493000030517578 9.104000091552734,-7.73799991607666 C9.017000198364258,-7.039000034332275 8.418000221252441,-5.690999984741211 7.855000019073486,-5.125999927520752 C7.855000019073486,-5.125999927520752 -5.581999778747559,9.123000144958496 -5.581999778747559,9.123000144958496 C-6.192999839782715,9.732999801635742 -7.098999977111816,10.347000122070312 -6.48799991607666,10.958000183105469 C-5.877999782562256,11.567999839782715 -4.732999801635742,10.03600025177002 -4.122000217437744,9.425999641418457 C-4.122000217437744,9.425999641418457 8.454999923706055,-4.151000022888184 8.454999923706055,-4.151000022888184 C9.609000205993652,-5.306000232696533 10.447999954223633,-6.605999946594238 10.447999954223633,-8.23900032043457 C10.447999954223633,-8.23900032043457 10.291999816894531,-33.066001892089844 10.291999816894531,-33.066001892089844 C10.265999794006348,-36.64899826049805 12.970000267028809,-37.96099853515625 14.576000213623047,-37.95899963378906 C16.222000122070312,-37.95600128173828 19.4689998626709,-36.35200119018555 19.264999389648438,-33.4900016784668 C19.264999389648438,-33.4900016784668 19.239999771118164,-5.494999885559082 19.239999771118164,-5.494999885559082 C19.42300033569336,-3.822000026702881 18.735000610351562,-0.19699999690055847 16.152000427246094,3.125 C16.152000427246094,3.125 0.18000000715255737,27.593000411987305 0.18000000715255737,27.593000411987305 C0.1679999977350235,27.61199951171875 -0.43799999356269836,28.347000122070312 -0.44600000977516174,28.367000579833984 C-0.8579999804496765,29.367000579833984 -0.7749999761581421,31.059999465942383 -0.7749999761581421,32.36899948120117 C-0.7749999761581421,32.36899948120117 -0.8220000267028809,37.63100051879883 -0.8220000267028809,37.63100051879883 C-0.8220000267028809,38.49399948120117 -0.949999988079071,39.50699996948242 -0.08699999749660492,39.50699996948242 C0.4230000078678131,39.474998474121094 0.2879999876022339,38.696998596191406 0.2879999876022339,37.83399963378906 C0.2879999876022339,37.83399963378906 0.30399999022483826,32.04100036621094 0.30399999022483826,32.04100036621094 C0.30399999022483826,31.277000427246094 0.3440000116825104,29.51099967956543 0.7179999947547913,28.82900047302246 C0.7179999947547913,28.82900047302246 19.104999542236328,0.5580000281333923 19.104999542236328,0.5580000281333923 C19.243000030517578,0.24199999868869781 19.305999755859375,0.10000000149011612 19.417999267578125,-0.2630000114440918 C19.79800033569336,-1.2979999780654907 20.30299949645996,-3.125999927520752 20.319000244140625,-4.443999767303467 C20.319000244140625,-4.443999767303467 20.610000610351562,-33.04999923706055 20.610000610351562,-33.04999923706055 C20.610000610351562,-36.42100143432617 17.868999481201172,-39.16299819946289 14.498000144958496,-39.16299819946289z"></path><path stroke-linecap="butt" stroke-linejoin="miter" fill-opacity="0" stroke-miterlimit="10" stroke="rgb(250,116,28)" stroke-opacity="1" stroke-width="0" d=" M14.498000144958496,-39.16299819946289 C11.128000259399414,-39.16299819946289 9.027000427246094,-36.34299850463867 9.027000427246094,-32.97200012207031 C9.027000427246094,-32.97200012207031 9.074000358581543,-11.01099967956543 9.074000358581543,-11.01099967956543 C8.782999992370605,-11.664999961853027 6.961999893188477,-12.47599983215332 5.8979997634887695,-12.47599983215332 C4.265999794006348,-12.47599983215332 3.4809999465942383,-12.434000015258789 2.3259999752044678,-11.279000282287598 C2.3259999752044678,-11.279000282287598 -17.804000854492188,9.569999694824219 -17.804000854492188,9.569999694824219 C-19.04599952697754,11.52299976348877 -19.58799934387207,12.635000228881836 -19.70400047302246,16 C-19.70400047302246,16 -19.79800033569336,37.50600051879883 -19.79800033569336,37.50600051879883 C-19.79800033569336,38.36899948120117 -19.77199935913086,39.04600143432617 -19.406999588012695,39.13199996948242 C-18.54400062561035,39.13199996948242 -18.702999114990234,38.775001525878906 -18.702999114990234,37.9119987487793 C-18.702999114990234,37.9119987487793 -18.57900047302246,14.49899959564209 -18.57900047302246,14.49899959564209 C-18.018999099731445,10.043999671936035 -16.077999114990234,9.585000038146973 -14.001999855041504,7.3429999351501465 C-14.001999855041504,7.3429999351501465 2.5209999084472656,-9.89799976348877 2.5209999084472656,-9.89799976348877 C3.0850000381469727,-10.461000442504883 4.303999900817871,-11.508000373840332 5.10099983215332,-11.508000373840332 C5.89900016784668,-11.508000373840332 8.392000198364258,-11.071000099182129 8.854999542236328,-9.788000106811523 C9.156999588012695,-8.97700023651123 9.189000129699707,-8.493000030517578 9.104000091552734,-7.73799991607666 C9.017000198364258,-7.039000034332275 8.418000221252441,-5.690999984741211 7.855000019073486,-5.125999927520752 C7.855000019073486,-5.125999927520752 -5.581999778747559,9.123000144958496 -5.581999778747559,9.123000144958496 C-6.192999839782715,9.732999801635742 -7.098999977111816,10.347000122070312 -6.48799991607666,10.958000183105469 C-5.877999782562256,11.567999839782715 -4.732999801635742,10.03600025177002 -4.122000217437744,9.425999641418457 C-4.122000217437744,9.425999641418457 8.454999923706055,-4.151000022888184 8.454999923706055,-4.151000022888184 C9.609000205993652,-5.306000232696533 10.447999954223633,-6.605999946594238 10.447999954223633,-8.23900032043457 C10.447999954223633,-8.23900032043457 10.291999816894531,-33.066001892089844 10.291999816894531,-33.066001892089844 C10.265999794006348,-36.64899826049805 12.970000267028809,-37.96099853515625 14.576000213623047,-37.95899963378906 C16.222000122070312,-37.95600128173828 19.4689998626709,-36.35200119018555 19.264999389648438,-33.4900016784668 C19.264999389648438,-33.4900016784668 19.239999771118164,-5.494999885559082 19.239999771118164,-5.494999885559082 C19.42300033569336,-3.822000026702881 18.735000610351562,-0.19699999690055847 16.152000427246094,3.125 C16.152000427246094,3.125 0.18000000715255737,27.593000411987305 0.18000000715255737,27.593000411987305 C0.1679999977350235,27.61199951171875 -0.43799999356269836,28.347000122070312 -0.44600000977516174,28.367000579833984 C-0.8579999804496765,29.367000579833984 -0.7749999761581421,31.059999465942383 -0.7749999761581421,32.36899948120117 C-0.7749999761581421,32.36899948120117 -0.8220000267028809,37.63100051879883 -0.8220000267028809,37.63100051879883 C-0.8220000267028809,38.49399948120117 -0.949999988079071,39.50699996948242 -0.08699999749660492,39.50699996948242 C0.4230000078678131,39.474998474121094 0.2879999876022339,38.696998596191406 0.2879999876022339,37.83399963378906 C0.2879999876022339,37.83399963378906 0.30399999022483826,32.04100036621094 0.30399999022483826,32.04100036621094 C0.30399999022483826,31.277000427246094 0.3440000116825104,29.51099967956543 0.7179999947547913,28.82900047302246 C0.7179999947547913,28.82900047302246 19.104999542236328,0.5580000281333923 19.104999542236328,0.5580000281333923 C19.243000030517578,0.24199999868869781 19.305999755859375,0.10000000149011612 19.417999267578125,-0.2630000114440918 C19.79800033569336,-1.2979999780654907 20.30299949645996,-3.125999927520752 20.319000244140625,-4.443999767303467 C20.319000244140625,-4.443999767303467 20.610000610351562,-33.04999923706055 20.610000610351562,-33.04999923706055 C20.610000610351562,-36.42100143432617 17.868999481201172,-39.16299819946289 14.498000144958496,-39.16299819946289z"></path></g></g></g><g clip-path="url(#__lottie_element_49)" style="display: block;" transform="matrix(-7.853710174560547,0,0,7.853710174560547,1118.944091796875,5.94769287109375)" opacity="1"><g style="display: block;" transform="matrix(1,0,0,1,0,0)" opacity="1"><g opacity="1" transform="matrix(1,0,0,1,92.73300170898438,75.44599914550781)"><path fill="rgb(250,116,28)" fill-opacity="1" d=" M14.498000144958496,-39.16299819946289 C11.128000259399414,-39.16299819946289 9.027000427246094,-36.34299850463867 9.027000427246094,-32.97200012207031 C9.027000427246094,-32.97200012207031 9.074000358581543,-11.01099967956543 9.074000358581543,-11.01099967956543 C8.782999992370605,-11.664999961853027 6.961999893188477,-12.47599983215332 5.8979997634887695,-12.47599983215332 C4.265999794006348,-12.47599983215332 3.4809999465942383,-12.434000015258789 2.3259999752044678,-11.279000282287598 C2.3259999752044678,-11.279000282287598 -17.804000854492188,9.569999694824219 -17.804000854492188,9.569999694824219 C-19.04599952697754,11.52299976348877 -19.58799934387207,12.635000228881836 -19.70400047302246,16 C-19.70400047302246,16 -19.79800033569336,37.50600051879883 -19.79800033569336,37.50600051879883 C-19.79800033569336,38.36899948120117 -19.77199935913086,39.04600143432617 -19.406999588012695,39.13199996948242 C-18.54400062561035,39.13199996948242 -18.702999114990234,38.775001525878906 -18.702999114990234,37.9119987487793 C-18.702999114990234,37.9119987487793 -18.57900047302246,14.49899959564209 -18.57900047302246,14.49899959564209 C-18.018999099731445,10.043999671936035 -16.077999114990234,9.585000038146973 -14.001999855041504,7.3429999351501465 C-14.001999855041504,7.3429999351501465 2.5209999084472656,-9.89799976348877 2.5209999084472656,-9.89799976348877 C3.0850000381469727,-10.461000442504883 4.303999900817871,-11.508000373840332 5.10099983215332,-11.508000373840332 C5.89900016784668,-11.508000373840332 8.392000198364258,-11.071000099182129 8.854999542236328,-9.788000106811523 C9.156999588012695,-8.97700023651123 9.189000129699707,-8.493000030517578 9.104000091552734,-7.73799991607666 C9.017000198364258,-7.039000034332275 8.418000221252441,-5.690999984741211 7.855000019073486,-5.125999927520752 C7.855000019073486,-5.125999927520752 -5.581999778747559,9.123000144958496 -5.581999778747559,9.123000144958496 C-6.192999839782715,9.732999801635742 -7.098999977111816,10.347000122070312 -6.48799991607666,10.958000183105469 C-5.877999782562256,11.567999839782715 -4.732999801635742,10.03600025177002 -4.122000217437744,9.425999641418457 C-4.122000217437744,9.425999641418457 8.454999923706055,-4.151000022888184 8.454999923706055,-4.151000022888184 C9.609000205993652,-5.306000232696533 10.447999954223633,-6.605999946594238 10.447999954223633,-8.23900032043457 C10.447999954223633,-8.23900032043457 10.291999816894531,-33.066001892089844 10.291999816894531,-33.066001892089844 C10.265999794006348,-36.64899826049805 12.970000267028809,-37.96099853515625 14.576000213623047,-37.95899963378906 C16.222000122070312,-37.95600128173828 19.4689998626709,-36.35200119018555 19.264999389648438,-33.4900016784668 C19.264999389648438,-33.4900016784668 19.239999771118164,-5.494999885559082 19.239999771118164,-5.494999885559082 C19.42300033569336,-3.822000026702881 18.735000610351562,-0.19699999690055847 16.152000427246094,3.125 C16.152000427246094,3.125 0.18000000715255737,27.593000411987305 0.18000000715255737,27.593000411987305 C0.1679999977350235,27.61199951171875 -0.43799999356269836,28.347000122070312 -0.44600000977516174,28.367000579833984 C-0.8579999804496765,29.367000579833984 -0.7749999761581421,31.059999465942383 -0.7749999761581421,32.36899948120117 C-0.7749999761581421,32.36899948120117 -0.8220000267028809,37.63100051879883 -0.8220000267028809,37.63100051879883 C-0.8220000267028809,38.49399948120117 -0.949999988079071,39.50699996948242 -0.08699999749660492,39.50699996948242 C0.4230000078678131,39.474998474121094 0.2879999876022339,38.696998596191406 0.2879999876022339,37.83399963378906 C0.2879999876022339,37.83399963378906 0.30399999022483826,32.04100036621094 0.30399999022483826,32.04100036621094 C0.30399999022483826,31.277000427246094 0.3440000116825104,29.51099967956543 0.7179999947547913,28.82900047302246 C0.7179999947547913,28.82900047302246 19.104999542236328,0.5580000281333923 19.104999542236328,0.5580000281333923 C19.243000030517578,0.24199999868869781 19.305999755859375,0.10000000149011612 19.417999267578125,-0.2630000114440918 C19.79800033569336,-1.2979999780654907 20.30299949645996,-3.125999927520752 20.319000244140625,-4.443999767303467 C20.319000244140625,-4.443999767303467 20.610000610351562,-33.04999923706055 20.610000610351562,-33.04999923706055 C20.610000610351562,-36.42100143432617 17.868999481201172,-39.16299819946289 14.498000144958496,-39.16299819946289z"></path><path stroke-linecap="butt" stroke-linejoin="miter" fill-opacity="0" stroke-miterlimit="10" stroke="rgb(250,116,28)" stroke-opacity="1" stroke-width="0" d=" M14.498000144958496,-39.16299819946289 C11.128000259399414,-39.16299819946289 9.027000427246094,-36.34299850463867 9.027000427246094,-32.97200012207031 C9.027000427246094,-32.97200012207031 9.074000358581543,-11.01099967956543 9.074000358581543,-11.01099967956543 C8.782999992370605,-11.664999961853027 6.961999893188477,-12.47599983215332 5.8979997634887695,-12.47599983215332 C4.265999794006348,-12.47599983215332 3.4809999465942383,-12.434000015258789 2.3259999752044678,-11.279000282287598 C2.3259999752044678,-11.279000282287598 -17.804000854492188,9.569999694824219 -17.804000854492188,9.569999694824219 C-19.04599952697754,11.52299976348877 -19.58799934387207,12.635000228881836 -19.70400047302246,16 C-19.70400047302246,16 -19.79800033569336,37.50600051879883 -19.79800033569336,37.50600051879883 C-19.79800033569336,38.36899948120117 -19.77199935913086,39.04600143432617 -19.406999588012695,39.13199996948242 C-18.54400062561035,39.13199996948242 -18.702999114990234,38.775001525878906 -18.702999114990234,37.9119987487793 C-18.702999114990234,37.9119987487793 -18.57900047302246,14.49899959564209 -18.57900047302246,14.49899959564209 C-18.018999099731445,10.043999671936035 -16.077999114990234,9.585000038146973 -14.001999855041504,7.3429999351501465 C-14.001999855041504,7.3429999351501465 2.5209999084472656,-9.89799976348877 2.5209999084472656,-9.89799976348877 C3.0850000381469727,-10.461000442504883 4.303999900817871,-11.508000373840332 5.10099983215332,-11.508000373840332 C5.89900016784668,-11.508000373840332 8.392000198364258,-11.071000099182129 8.854999542236328,-9.788000106811523 C9.156999588012695,-8.97700023651123 9.189000129699707,-8.493000030517578 9.104000091552734,-7.73799991607666 C9.017000198364258,-7.039000034332275 8.418000221252441,-5.690999984741211 7.855000019073486,-5.125999927520752 C7.855000019073486,-5.125999927520752 -5.581999778747559,9.123000144958496 -5.581999778747559,9.123000144958496 C-6.192999839782715,9.732999801635742 -7.098999977111816,10.347000122070312 -6.48799991607666,10.958000183105469 C-5.877999782562256,11.567999839782715 -4.732999801635742,10.03600025177002 -4.122000217437744,9.425999641418457 C-4.122000217437744,9.425999641418457 8.454999923706055,-4.151000022888184 8.454999923706055,-4.151000022888184 C9.609000205993652,-5.306000232696533 10.447999954223633,-6.605999946594238 10.447999954223633,-8.23900032043457 C10.447999954223633,-8.23900032043457 10.291999816894531,-33.066001892089844 10.291999816894531,-33.066001892089844 C10.265999794006348,-36.64899826049805 12.970000267028809,-37.96099853515625 14.576000213623047,-37.95899963378906 C16.222000122070312,-37.95600128173828 19.4689998626709,-36.35200119018555 19.264999389648438,-33.4900016784668 C19.264999389648438,-33.4900016784668 19.239999771118164,-5.494999885559082 19.239999771118164,-5.494999885559082 C19.42300033569336,-3.822000026702881 18.735000610351562,-0.19699999690055847 16.152000427246094,3.125 C16.152000427246094,3.125 0.18000000715255737,27.593000411987305 0.18000000715255737,27.593000411987305 C0.1679999977350235,27.61199951171875 -0.43799999356269836,28.347000122070312 -0.44600000977516174,28.367000579833984 C-0.8579999804496765,29.367000579833984 -0.7749999761581421,31.059999465942383 -0.7749999761581421,32.36899948120117 C-0.7749999761581421,32.36899948120117 -0.8220000267028809,37.63100051879883 -0.8220000267028809,37.63100051879883 C-0.8220000267028809,38.49399948120117 -0.949999988079071,39.50699996948242 -0.08699999749660492,39.50699996948242 C0.4230000078678131,39.474998474121094 0.2879999876022339,38.696998596191406 0.2879999876022339,37.83399963378906 C0.2879999876022339,37.83399963378906 0.30399999022483826,32.04100036621094 0.30399999022483826,32.04100036621094 C0.30399999022483826,31.277000427246094 0.3440000116825104,29.51099967956543 0.7179999947547913,28.82900047302246 C0.7179999947547913,28.82900047302246 19.104999542236328,0.5580000281333923 19.104999542236328,0.5580000281333923 C19.243000030517578,0.24199999868869781 19.305999755859375,0.10000000149011612 19.417999267578125,-0.2630000114440918 C19.79800033569336,-1.2979999780654907 20.30299949645996,-3.125999927520752 20.319000244140625,-4.443999767303467 C20.319000244140625,-4.443999767303467 20.610000610351562,-33.04999923706055 20.610000610351562,-33.04999923706055 C20.610000610351562,-36.42100143432617 17.868999481201172,-39.16299819946289 14.498000144958496,-39.16299819946289z"></path></g></g></g><g clip-path="url(#__lottie_element_33)" style="display: block;" transform="matrix(0.7011792659759521,0,0,0.7011792659759521,189.6600799560547,-50.404258728027344)" opacity="1"><g style="display: block;" transform="matrix(1.2549927234649658,0,0,1.2549927234649658,-42.2913818359375,-267.8282470703125)" opacity="1"><g opacity="1" transform="matrix(1,0,0,1,467.2690124511719,570.6209716796875)"><path fill="rgb(148,171,19)" fill-opacity="1" d=" M47.09600067138672,-69.75700378417969 C39.637001037597656,-91.3270034790039 37.30099868774414,-114.33499908447266 40.270999908447266,-136.96299743652344 C-65.5770034790039,-81.11000061035156 -90.88400268554688,18.75200080871582 -7.88100004196167,136.96299743652344 C34.33599853515625,68.51399993896484 77.4219970703125,17.93199920654297 47.09600067138672,-69.75700378417969z"></path></g></g><g style="display: block;" transform="matrix(1.253000020980835,0,0,1.253000020980835,535.85498046875,611.7169799804688)" opacity="1"><g opacity="1" transform="matrix(1,0,0,1,0,0)"><path fill="rgb(167,191,28)" fill-opacity="1" d=" M18.166000366210938,-218.16799926757812 C-6.651000022888184,-162.72799682617188 -14.604999542236328,-65.322998046875 -7.252999782562256,24.243000030517578 C-1.49399995803833,94.37100219726562 -7.466000080108643,184.58299255371094 -21.131000518798828,247.4949951171875 C-22.445999145507812,253.55099487304688 -36.20800018310547,329.9939880371094 -37.99700164794922,335.885986328125 C-37.99700164794922,335.885986328125 -24.13800048828125,357.4339904785156 -24.13800048828125,357.4339904785156 C-24.13800048828125,357.4339904785156 -2.2980000972747803,335.0880126953125 -2.2980000972747803,335.0880126953125 C4.751999855041504,271.2539978027344 21.275999069213867,88.5999984741211 11.17300033569336,27.159000396728516 C11.079999923706055,26.59600067138672 10.98900032043457,26.031999588012695 10.89799976348877,25.468000411987305 C-1.8179999589920044,-53.29100036621094 0.7480000257492065,-139.51600646972656 18.166000366210938,-218.16799926757812"></path></g></g><g style="display: block;" transform="matrix(1.2556681632995605,0.0019382823957130313,-0.0019382823957130313,1.2556681632995605,-41.023681640625,-269.5325927734375)" opacity="1"><g opacity="1" transform="matrix(1,0,0,1,0,0)"><g opacity="1" transform="matrix(1,0,0,1,549.6309814453125,774.406982421875)"><path fill="rgb(123,143,7)" fill-opacity="1" d=" M-74.81700134277344,56.08700180053711 C20.179000854492188,98.87699890136719 87.01200103759766,41.39699935913086 72.9469985961914,-70.26699829101562 C23.694000244140625,-28.150999069213867 -25.562000274658203,13.968000411987305 -74.81700134277344,56.08700180053711z"></path></g><g opacity="1" transform="matrix(1,0,0,1,548.802978515625,769.3060302734375)"><path fill="rgb(148,171,19)" fill-opacity="1" d=" M30.893999099731445,-45.3849983215332 C46.53099822998047,-48.5629997253418 61.20800018310547,-55.3390007019043 73.77400207519531,-65.16600036621094 C77.6510009765625,15.732999801635742 29.30299949645996,69.03500366210938 -65.0719985961914,64.94599914550781 C-68.18099975585938,64.81300354003906 -72.35299682617188,63.34199905395508 -73.98999786376953,61.1879997253418 C-47.79600143432617,11.446000099182129 -32.665000915527344,-32.46799850463867 30.893999099731445,-45.3849983215332z"></path></g><g opacity="1" transform="matrix(1,0,0,1,534.8140258789062,795.1849975585938)"><path fill="rgb(167,191,28)" fill-opacity="1" d=" M-53.16899871826172,22.069000244140625 C0.04800000041723251,11.562999725341797 40.9370002746582,-8.928999900817871 63.36000061035156,-44.393001556396484 C51.78300094604492,-14.244000434875488 17.613000869750977,13.925000190734863 -51.08300018310547,39.0629997253418 C-54.53200149536133,40.8380012512207 -57.97999954223633,42.617000579833984 -61.426998138427734,44.393001556396484 C-62.07099914550781,40.22600173950195 -62.7140007019043,36.05400085449219 -63.36000061035156,31.884000778198242 C-59.9630012512207,28.61199951171875 -56.564998626708984,25.340999603271484 -53.16899871826172,22.069000244140625z"></path></g></g></g><g style="display: block;" transform="matrix(1.259714961051941,0.005146604962646961,-0.005146604962646961,1.259714961051941,-40.43414306640625,-274.14056396484375)" opacity="1"><g opacity="1" transform="matrix(1,0,0,1,0,0)"><g opacity="1" transform="matrix(1,0,0,1,356.6709899902344,747.2930297851562)"><path fill="rgb(123,143,7)" fill-opacity="1" d=" M114.06999969482422,45.499000549316406 C0.003000000026077032,126.91400146484375 -103.2770004272461,68.65399932861328 -114.06999969482422,-82.3479995727539 C-38.02199935913086,-39.731998443603516 38.0260009765625,2.88100004196167 114.06999969482422,45.499000549316406z"></path></g><g opacity="1" transform="matrix(1,0,0,1,356.6709899902344,736.5159912109375)"><path fill="rgb(148,171,19)" fill-opacity="1" d=" M-52.301998138427734,-56.744998931884766 C-73.76499938964844,-56.827999114990234 -94.90799713134766,-61.900001525878906 -114.06999969482422,-71.56999969482422 C-97.9209976196289,36.167999267578125 -20.132999420166016,93.7760009765625 103.29299926757812,63.57699966430664 C107.36199951171875,62.58300018310547 112.48100280761719,59.54399871826172 114.06999969482422,56.277000427246094 C66.44000244140625,-2.4579999446868896 34.94200134277344,-56.4109992980957 -52.301998138427734,-56.744998931884766z"></path></g><g opacity="1" transform="matrix(1,0,0,1,381.0350036621094,762.239990234375)"><path fill="rgb(167,191,28)" fill-opacity="1" d=" M77.21399688720703,14.880000114440918 C4.249000072479248,15.012999534606934 -55.08100128173828,-1.2730000019073486 -93.97699737548828,-42.16299819946289 C-70.77999877929688,-5.436999797821045 -18.301000595092773,22.743999481201172 78.9280014038086,37.85300064086914 C83.94400024414062,39.28900146484375 88.95999908447266,40.724998474121094 93.97699737548828,42.16299819946289 C93.72699737548828,36.494998931884766 93.48400115966797,30.81999969482422 93.23699951171875,25.150999069213867 C87.8949966430664,21.729999542236328 82.55500030517578,18.304000854492188 77.21399688720703,14.880000114440918z"></path></g></g></g></g><g clip-path="url(#__lottie_element_26)" style="display: block;" transform="matrix(7.853710174560547,0,0,7.853710174560547,5.94769287109375,5.94769287109375)" opacity="1"><g style="display: block;" transform="matrix(1,0,0,1,0,0)" opacity="1"><g opacity="1" transform="matrix(1,0,0,1,67.875,67.875)"><path stroke-linecap="butt" stroke-linejoin="miter" fill-opacity="0" stroke-miterlimit="11.34" stroke="rgb(250,116,28)" stroke-opacity="1" stroke-width="0.5" d=" M0,-67.5 C37.27899932861328,-67.5 67.5,-37.27899932861328 67.5,0 C67.5,37.27899932861328 37.27899932861328,67.5 0,67.5 C-37.27899932861328,67.5 -67.5,37.27899932861328 -67.5,0 C-67.5,-37.27899932861328 -37.27899932861328,-67.5 0,-67.5z"></path></g></g></g></g></svg>
