<?xml version="1.0" standalone="no"?>
<!DOCTYPE svg PUBLIC "-//W3C//DTD SVG 20010904//EN"
 "http://www.w3.org/TR/2001/REC-SVG-20010904/DTD/svg10.dtd">
<svg version="1.0" xmlns="http://www.w3.org/2000/svg"
 width="700.000000pt" height="700.000000pt" viewBox="0 0 700.000000 700.000000"
 preserveAspectRatio="xMidYMid meet">
<metadata>
Created by potrace 1.14, written by Peter Selinger 2001-2017
</metadata>
<g transform="translate(0.000000,700.000000) scale(0.100000,-0.100000)"
fill="#000000" stroke="none">
<path d="M3295 6990 c-537 -34 -1064 -189 -1512 -445 -902 -515 -1523 -1380
-1717 -2390 -80 -416 -80 -895 0 -1310 134 -697 463 -1315 969 -1820 491 -491
1108 -820 1790 -954 430 -85 904 -87 1330 -5 1393 267 2492 1354 2770 2739 89
446 92 911 9 1350 -233 1228 -1115 2245 -2298 2651 -423 145 -906 211 -1341
184z m-870 -1655 c216 -55 395 -234 450 -450 19 -75 19 -212 0 -293 -76 -320
-404 -526 -728 -457 -117 24 -209 76 -302 169 -92 92 -136 166 -165 282 -36
141 -23 276 39 409 81 172 222 291 402 339 72 19 230 20 304 1z m2450 0 c273
-70 464 -315 465 -597 0 -107 -15 -168 -66 -275 -72 -151 -199 -260 -369 -318
-31 -10 -107 -20 -200 -26 -252 -15 -372 -41 -508 -111 -186 -97 -287 -271
-287 -498 0 -162 46 -283 147 -390 120 -127 291 -192 562 -211 81 -5 176 -14
213 -19 188 -27 359 -156 447 -336 171 -352 -30 -779 -410 -869 -82 -19 -218
-19 -294 0 -216 55 -399 238 -449 450 -8 33 -19 134 -25 225 -18 285 -77 455
-201 581 -69 70 -128 106 -225 135 -83 25 -267 25 -350 0 -190 -57 -320 -196
-383 -411 -29 -96 -40 -176 -51 -356 -11 -165 -24 -221 -81 -327 -66 -125
-192 -230 -333 -280 -96 -33 -253 -42 -347 -18 -220 55 -397 229 -455 446 -8
31 -15 99 -15 155 0 176 54 309 174 430 131 132 230 172 456 186 339 20 505
74 641 209 106 104 141 192 158 398 11 138 43 215 121 292 78 79 155 110 297
121 195 15 288 52 394 158 124 124 182 294 200 581 6 91 17 192 25 225 51 213
228 393 444 449 74 20 231 20 305 1z m-1766 -1031 c160 -80 187 -295 53 -416
-127 -115 -321 -79 -399 75 -52 104 -27 226 62 305 53 46 90 60 171 61 46 1
72 -5 113 -25z"/>
</g>
</svg>
