<?xml version="1.0" encoding="utf-8"?>
<!-- Generator: Adobe Illustrator 23.0.6, SVG Export Plug-In . SVG Version: 6.00 Build 0)  -->
<svg version="1.1" id="Layer_1" xmlns="http://www.w3.org/2000/svg" xmlns:xlink="http://www.w3.org/1999/xlink" x="0px" y="0px"
	 viewBox="0 0 684 195" style="enable-background:new 0 0 684 195;" xml:space="preserve">
<style type="text/css">
	.st0{display:none;fill:#5E5E5E;}
	.st1{fill:#FFFFFF;}
</style>
<rect x="-419" y="-187" class="st0" width="1409" height="740"/>
<g>
	<g>
		<path class="st1" d="M293.8,153.5c-5.2,10.1-12.5,18.3-21.8,24.8c-9.4,6.4-21,9.6-35,9.6c-9.3,0-17.8-1.6-25.5-4.8
			s-14.4-7.6-20-13.3s-10-12.4-13.2-20.1c-3.2-7.7-4.8-16.2-4.8-25.5s1.6-17.8,4.8-25.6s7.6-14.5,13.2-20.1c5.6-5.6,12.3-10,20-13.2
			c7.7-3.2,16.2-4.8,25.5-4.8c13.8,0,25.5,3.2,34.9,9.5c9.4,6.3,16.3,14.6,20.7,24.6l-29.3,12.2c-2.8-5.5-6.3-9.7-10.6-12.6
			c-4.3-2.8-9.7-4.3-16.2-4.3c-4.2,0-8.2,0.8-12,2.4c-3.7,1.6-7,3.9-9.9,6.8c-2.8,2.9-5.1,6.5-6.7,10.7c-1.6,4.2-2.4,8.9-2.4,14.2
			c0,5.2,0.8,9.9,2.4,14.2c1.6,4.2,3.9,7.8,6.7,10.7s6.1,5.2,9.9,6.8c3.7,1.6,7.7,2.4,12,2.4c6.7,0,12.3-1.5,17-4.5
			c4.6-3,8.3-7.4,11.1-13.1L293.8,153.5z"/>
		<path class="st1" d="M385.8,171.3h-2c-3.7,4.6-8.3,8.5-13.5,11.7c-5.3,3.3-12.1,4.9-20.4,4.9c-6.2,0-12-1-17.4-3.1
			c-5.5-2-10.2-4.8-14.3-8.4c-4.1-3.6-7.2-7.9-9.5-12.9s-3.4-10.6-3.4-16.6c0-6.2,1.2-11.7,3.7-16.7c2.4-5,5.9-9.2,10.2-12.8
			c4.4-3.6,9.6-6.3,15.5-8.2c5.9-1.9,12.4-2.8,19.4-2.8c7.8,0,14.2,0.6,19.3,1.8c5,1.2,9.2,2.5,12.4,3.8v-3.7
			c0-6.3-2.5-11.6-7.6-15.7c-5-4.1-11.3-6.2-18.8-6.2c-11.1,0-20.4,4.6-28.1,13.9l-23.2-15.9c12.7-15.9,30-23.9,52-23.9
			c18.5,0,32.7,4.4,42.5,13.1s14.6,21.6,14.6,38.7V184h-31.5L385.8,171.3L385.8,171.3z M385.8,135.5c-3.7-1.8-7.6-3.2-11.6-4.3
			s-8.3-1.6-13.1-1.6c-7.6,0-13.5,1.7-17.7,5c-4.1,3.3-6.2,7.4-6.2,12.3c0,4.9,2,8.8,6,11.7s8.6,4.4,13.8,4.4
			c4.2,0,8.1-0.8,11.7-2.3s6.6-3.6,9.1-6.1s4.5-5.4,5.9-8.8C385.1,142.5,385.8,139,385.8,135.5z"/>
		<path class="st1" d="M488.8,187.9c-7.8,0-14.8-1-20.9-2.9c-6.1-2-11.4-4.5-15.9-7.7s-8.3-6.8-11.3-11c-3.1-4.1-5.5-8.3-7.1-12.6
			l28.5-12.2c2.8,6.2,6.5,10.8,11.1,13.8s9.8,4.5,15.5,4.5c5.9,0,10.5-1.1,13.9-3.2c3.4-2.1,5.1-4.6,5.1-7.6c0-3.3-1.4-5.9-4.3-7.9
			c-2.8-2-7.8-3.9-14.8-5.5L472,132c-3.7-0.8-7.6-2.1-11.6-3.9c-4-1.8-7.6-4.1-10.9-6.8c-3.3-2.8-5.9-6.1-8.1-10
			c-2.1-3.9-3.2-8.5-3.2-13.7c0-5.9,1.3-11.1,3.8-15.6c2.5-4.6,6-8.4,10.4-11.6s9.6-5.6,15.5-7.3s12.3-2.6,19.2-2.6
			c11.4,0,21.6,2.2,30.5,6.7c8.9,4.5,15.5,11.6,19.8,21.3l-27.6,11.2c-2.3-4.7-5.6-8.1-10-10.2s-8.8-3.2-13.2-3.2
			c-4.6,0-8.5,0.9-12,2.8c-3.4,1.9-5.1,4.3-5.1,7.2c0,2.8,1.4,5,4.3,6.6c2.8,1.6,6.7,3.1,11.6,4.4l18.3,4.4
			c12.2,2.9,21.3,7.6,27.2,14c5.9,6.4,8.9,14,8.9,22.8c0,5.2-1.2,10.2-3.7,14.9c-2.4,4.7-5.9,8.9-10.4,12.6
			c-4.5,3.7-9.8,6.5-16.1,8.7C503.4,186.9,496.4,187.9,488.8,187.9z"/>
		<path class="st1" d="M559.3,9.3h32v49l-2,21.7h2c3.4-5.7,8.3-10.4,14.8-14c6.4-3.7,13.6-5.5,21.6-5.5c15.5,0,26.9,4.6,34.3,13.7
			c7.4,9.1,11.1,21.6,11.1,37.3V184h-32v-68.6c0-8.3-2-14.6-5.9-18.9s-9.4-6.5-16.3-6.5c-4.4,0-8.3,0.9-11.7,2.8s-6.3,4.4-8.7,7.7
			c-2.4,3.3-4.1,7-5.4,11.3c-1.2,4.3-1.8,8.9-1.8,13.8V184h-32L559.3,9.3L559.3,9.3z"/>
	</g>
	<circle class="st1" cx="30" cy="84.3" r="20"/>
	<path class="st1" d="M56.5,124.2c0,14.7-11.9,19.9-26.6,19.9c-11,0-20,8.9-20,20s8.9,20,20,20s20-8.9,20-20
		c0-14.7,5.3-26.6,19.9-26.6s19.9,11.9,19.9,26.6c0,11,8.9,20,20,20s20-8.9,20-20s-8.9-20-20-20c-14.7,0-26.6-5.2-26.6-19.9
		s11.9-19.9,26.6-19.9c11,0,20-8.9,20-20s-8.9-20-20-20s-20,8.9-20,20c0,14.7-5.2,26.6-19.9,26.6l0,0
		C62.5,110.9,56.6,116.8,56.5,124.2"/>
	<circle class="st1" cx="53.3" cy="105.8" r="8.3"/>
</g>
</svg>
