<?xml version="1.0" encoding="utf-8"?>
<!-- Generator: Adobe Illustrator 23.0.6, SVG Export Plug-In . SVG Version: 6.00 Build 0)  -->
<svg version="1.1" id="Layer_1" xmlns="http://www.w3.org/2000/svg" xmlns:xlink="http://www.w3.org/1999/xlink" x="0px" y="0px"
	 viewBox="0 0 947 243" style="enable-background:new 0 0 947 243;" xml:space="preserve">
<style type="text/css">
	.st0{fill:#FF6D00;}
</style>
<g>
	<path class="st0" d="M666.1,199.8c0-53.6,0-107,0-160.5c38.1,0,76.1,0,114.3,0c0,6.8,0,13.7,0,20.9c-29.8,0-59.4,0-89.3,0
		c0,15.8,0,31.2,0,47c27.5,0,55,0,82.6,0c0,6.7,0,13.1,0,19.8c-27.5,0-55,0-82.7,0c0,17.4,0,34.5,0,52c30.3,0,60.5,0,91,0
		c0,7.1,0,13.9,0,20.9C743.5,199.8,704.9,199.8,666.1,199.8z"/>
	<path class="st0" d="M939.5,200c-10,0-19.5,0.1-29-0.1c-0.9,0-2.1-1.1-2.7-2c-13-19.9-26-39.8-39-59.7c-0.5-0.8-1.1-1.5-1.8-2.6
		c-5,7.5-9.8,14.7-14.6,22c-9,13.6-18,27.2-27,40.7c-0.5,0.7-1.5,1.6-2.3,1.6c-8.8,0.1-17.6,0.1-27,0.1c0.7-1.1,1.1-1.9,1.6-2.6
		c17.8-26,35.6-52.1,53.5-78.1c1.4-2,1.4-3.4,0-5.4c-16.6-24-33.1-48.1-49.6-72.2c-0.5-0.7-0.9-1.4-1.6-2.4c1-0.1,1.8-0.2,2.6-0.2
		c8.1,0,16.1,0.1,24.2-0.1c2,0,3.2,0.6,4.3,2.3c11.6,18.1,23.2,36.2,34.9,54.3c0.6,0.9,1.1,1.7,2,3c0.8-1.1,1.4-2,2-2.9
		c12.1-18.1,24.3-36.2,36.4-54.3c1.1-1.7,2.3-2.4,4.3-2.4c8.1,0.1,16.3,0,25,0c-2.7,4-5.2,7.7-7.7,11.3
		c-14.6,21.3-29.1,42.5-43.8,63.7c-1.3,1.9-1.2,3.1,0.1,4.9C902,145,919.8,171,937.5,197C938.1,197.8,938.6,198.7,939.5,200z"/>
	<path class="st0" d="M449.4,87.8c-5.9,0-11.9,0-17.8,0c-6.5,0-6.6,0-8.8-5.9C414.9,61,396.9,53,376.2,55.2c-19.1,2-32,12.6-39.2,30
		c-9.7,23.4-9.6,47.2,0.7,70.4c11,24.9,35.1,33,57.6,26.9c13.3-3.6,21.8-12.9,26.6-25.6c1.9-5,3-10.3,4.5-15.6c7.8,0,15.7,0,23.8,0
		c-0.7,8.6-2.5,16.6-6,24.3c-10.5,22.6-28.4,35.1-53,37.9c-19.8,2.2-38.1-1.7-54.3-13.8c-15.8-11.7-25-27.8-29.1-46.7
		c-5.5-25.3-3.3-50,10.5-72.4c16.2-26.4,40.6-37.2,71.1-35c13.2,0.9,25.5,4.6,36.5,12.1c13.2,9.1,20.9,21.6,23.7,37.3
		c0.1,0.6,0.1,1.1,0.1,1.7C449.7,86.9,449.6,87.2,449.4,87.8z"/>
	<path class="st0" d="M595.9,199.9c-8.5,0-16.6,0-25,0c0-1.3,0-2.5,0-3.7c0-43.9,0-87.8,0-131.7c0-4.6,0.7-4.3-4.2-4.3
		c-15,0-30,0-44.9,0c-2.3,0-3.1-0.5-3.1-3c0.2-5.9,0.1-11.9,0.1-18c43.2,0,86.1,0,129.3,0c0,6.9,0,13.7,0,20.9c-1.2,0-2.3,0-3.4,0
		c-14.9,0-29.8,0-44.6,0c-4,0-4,0-4,3.9c0,44,0,88,0,131.9C595.9,197.3,595.9,198.5,595.9,199.9z"/>
	<path class="st0" d="M500.8,199.9c-8.3,0-16.3,0-24.5,0c0-53.5,0-106.9,0-160.5c8.1,0,16.2,0,24.5,0
		C500.8,92.8,500.8,146.2,500.8,199.9z"/>
</g>
<g>
	<path class="st0" d="M202.1,7.1c9.1,15.9,18.3,31.9,27.4,47.8c11.2,19.4,22.3,38.7,33.5,58.1c1.5,2.6,1.4,2.7-1.6,2.7
		c-11,0-22,0-33,0c-2.3,0-3.6-0.8-4.7-2.8c-6-10.5-12.2-21-18.1-31.5c-1.2-2.1-2.6-2.8-5-2.8c-26.4,0.1-52.7,0-79.1,0.1
		c-3,0-4.6-0.9-6-3.5c-4.4-8-9.1-15.8-13.6-23.7c-0.5-0.9-1.7-1.9-1-3c0.6-1,1.9-0.5,2.9-0.5c26.2,0,52.3,0,78.5,0
		c3.8,0,3.8,0,2-3.2c-6.7-11.7-13.5-23.3-20.2-35C163.6,8.9,163,8,162.8,7C175.9,7.1,189,7.1,202.1,7.1z"/>
	<path class="st0" d="M115.6,7.1c6,10.4,12,20.8,18,31.2c1.5,2.7,1.4,2.9-1.8,2.9c-11,0-22,0-32.9,0c-1.6,0-3-0.1-3.9-1.7
		C88.7,28.8,82.2,18.1,76.3,7.1C89.4,7.1,102.5,7.1,115.6,7.1z"/>
	<path class="st0" d="M72.2,162.9c1-0.3,1.2-1.1,1.6-1.7c10.5-18.2,21.1-36.4,31.6-54.6c2.8-4.9,5.7-9.8,8.5-14.8
		c1.1-1.8,1.8-2.2,3-0.1c4.8,8.5,9.7,16.9,14.7,25.4c1,1.7,1,3.1,0,4.7c-15.2,26.3-30.4,52.7-45.6,79.1c-4.7,8.1-9.4,16.3-14.1,24.4
		c-1.6,2.8-2,2.8-3.6,0.1C48.6,191.3,28.9,157.1,9.1,123c-1.4-2.4-1.5-4.2,0-6.7C28.9,82.1,48.7,47.8,68.5,13.6
		c1.6-2.8,1.7-2.8,3.3,0c5.6,9.6,11,19.2,16.7,28.8c1,1.7,0.9,3-0.1,4.7C75,70.3,61.6,93.6,48.1,116.8c-1.1,1.9-1.2,3.3-0.1,5.2
		c7.6,12.9,15,25.9,22.5,38.9C71,161.7,71.3,162.6,72.2,162.9z"/>
	<path class="st0" d="M93.9,231.9c-4.7,0-9.5,0-14.2,0c-3.3,0-3.4-0.3-1.8-3.1c7.6-13.1,15.2-26.2,22.8-39.4
		c12.2-21.2,24.5-42.3,36.7-63.5c1.2-2.1,2.6-2.9,5-2.8c9.2,0.1,18.4,0,27.6,0.1c3.9,0,4,0.1,2.1,3.4
		c-19.7,34.2-39.4,68.5-59.1,102.7c-1.1,1.9-2.3,2.7-4.5,2.7C103.6,231.8,98.7,231.9,93.9,231.9z"/>
	<path class="st0" d="M137.1,231.9c-4.7,0-9.5,0-14.2,0c-3.4,0-3.5-0.2-1.9-3c10-17.4,20.1-34.8,30.2-52.2
		c9.7-16.7,19.4-33.4,29-50.2c1.4-2.4,3-3.4,5.8-3.4c9.3,0.2,18.6,0.1,27.9,0.1c2.9,0,3.1,0.2,1.6,2.8c-11,19.2-22.1,38.4-33.2,57.6
		c-8.5,14.7-17,29.4-25.3,44.1c-1.7,2.9-3.4,4.6-7.1,4.2C145.7,231.6,141.4,231.9,137.1,231.9z"/>
	<path class="st0" d="M72.1,148.9c-0.7-0.2-1-0.9-1.3-1.5c-4.9-8.5-9.8-17.1-14.8-25.6c-1.1-1.8-0.9-3.2,0.1-5
		c12-20.7,24-41.5,36-62.2c1.6-2.7,1.8-2.7,3.4,0c4.9,8.4,9.7,16.9,14.7,25.3c0.9,1.5,0.9,2.7,0,4.2c-12.2,21.1-24.4,42.1-36.5,63.2
		C73.3,148,73,148.8,72.1,148.9z"/>
	<path class="st0" d="M225.7,157.3c-5.7,0-11.4,0-17.1,0c-2.3,0-2.7-0.8-1.5-2.7c5.7-9.8,11.4-19.7,17.1-29.5
		c0.7-1.3,1.7-1.9,3.2-1.9c11.6,0,23.1,0,34.7,0c2,0,2.3,0.6,1.3,2.3c-5.7,9.7-11.3,19.5-16.9,29.3c-1.1,1.9-2.4,2.6-4.6,2.6
		C236.5,157.2,231.1,157.3,225.7,157.3z"/>
	<path class="st0" d="M182.5,231.9c-5.7,0-11.4,0-17.1,0c-1.9,0-2.7-0.4-1.5-2.4c5.7-9.7,11.3-19.5,16.9-29.3c0.8-1.4,1.8-2,3.4-2
		c11.3,0,22.6,0,33.8,0c2.7,0,3,0.5,1.7,2.8c-5.5,9.6-11.1,19.2-16.6,28.8c-0.9,1.6-2.1,2.2-3.9,2.1
		C193.7,231.8,188.1,231.9,182.5,231.9z"/>
	<path class="st0" d="M139.5,85.6c4.7,0,9.5,0.1,14.2,0c1.9,0,3.2,0.5,4.2,2.3c4.9,8.6,9.8,17.1,14.8,25.6c1,1.8,0.4,2.4-1.4,2.4
		c-10,0-20.1,0-30.1,0c-1.5,0-2.5-0.6-3.2-1.9c-5-8.7-10.1-17.4-15.1-26.1c-1.2-2,0.1-2.2,1.6-2.2C129.4,85.6,134.4,85.6,139.5,85.6
		z"/>
	<path class="st0" d="M199.2,115.8c-4.8,0-9.7,0-14.5,0c-1.7,0-2.9-0.6-3.7-2.1c-4.9-8.5-9.9-17.1-14.8-25.6
		c-1.2-2.1-0.4-2.6,1.7-2.6c9.9,0,19.7,0,29.6,0c1.6,0,2.7,0.5,3.5,1.9c4.9,8.6,9.9,17.3,14.9,25.8c1.2,2,0.5,2.5-1.5,2.4
		C209.2,115.8,204.2,115.8,199.2,115.8z"/>
	<path class="st0" d="M203.8,190.9c-4.9,0-9.8,0-14.8,0c-1.8,0-2.8-0.2-1.6-2.3c5.1-8.7,10-17.4,15-26.1c1-1.7,1.8-2,2.9-0.1
		c4.9,8.6,9.9,17.2,14.9,25.8c1.2,2.1,0.5,2.6-1.6,2.6C213.6,190.8,208.7,190.9,203.8,190.9L203.8,190.9z"/>
	<path class="st0" d="M156.3,41.3c-4.9,0-9.8,0-14.8,0c-2.2,0-2.5-0.7-1.5-2.5c5-8.6,10-17.2,15-25.8c1-1.6,1.7-1.8,2.7,0
		c4.9,8.5,9.8,16.9,14.6,25.3c1.5,2.6,1.2,2.9-1.9,3C165.8,41.3,161.1,41.3,156.3,41.3z"/>
</g>
</svg>
