<?xml version="1.0" encoding="utf-8"?>
<!-- Generator: Adobe Illustrator 23.0.6, SVG Export Plug-In . SVG Version: 6.00 Build 0)  -->
<svg version="1.1" id="Layer_1" xmlns="http://www.w3.org/2000/svg" xmlns:xlink="http://www.w3.org/1999/xlink" x="0px" y="0px"
	 viewBox="0 0 1559 359" style="enable-background:new 0 0 1559 359;" xml:space="preserve">
<style type="text/css">
	.st0{fill:#FF6D00;}
</style>
<g id="logotype">
	<path class="st0" d="M1285.9,269.3c-14.7-2.1-28.2-3.2-41.7-9.6c-11.4-5.4-21.2-12.5-30-21.6c-19.1-19.8-29.4-47-26.7-74.7
		c2.8-27.9,14.2-49.5,35.1-68.1c20-17.8,49.8-25.7,76.1-21.3c20.3,3.4,61.9,14.5,56.3,43c-2.5,12.9-15,22-23.8,30.8
		c-10.3,10.3-20.6,20.6-30.9,30.9c-9.6,9.6-19.3,19.3-28.9,28.9c-3,3-10.1,7.5-7.5,12.1c2.8,4.9,11.4,7.5,16.5,8
		c14.6,1.7,26.5-1.7,37.4-11.4c9.5-8.3,13.8-20.1,22.5-28.8c8.6-8.7,22.6-12.1,31.2-1.2c9.2,11.8,1.6,29.9-5.8,40.5
		c-8.4,12.1-20.1,21.9-32.7,29.5C1318.3,265.1,1302.4,266.6,1285.9,269.3z M1275.4,111.4c-5.2,0.3-9,0.1-13.9,2.3
		c-4.9,2.1-9.6,4.7-13.7,8c-7.8,6.2-13.9,14.6-17.5,23.8c-4,10.3-4.3,21.8-0.9,32.3c1.6,4.8,3.9,10.5,7.2,14.4
		c4,4.8,6.6,1.1,10.1-2.4c16.3-16.5,32.6-32.9,49.3-48.9c5.6-5.4,18.8-13.5,8.6-20.3C1296,114.9,1285.8,110.7,1275.4,111.4z"/>
	<path class="st0" d="M928.3,208c0,10.2-0.2,20.3-0.1,30.5c0,2.5,0.1,5,0.1,7.5c0.1,2.2,0.2,4.4,0.1,6.7c-0.2,3.1-1.1,6.3-2.9,8.9
		c-3.5,5.2-10.1,7.6-16.1,8.2c-7.9,0.8-17-2.3-21.7-8.9c-2.1-2.9-3-6.4-3.1-10c-0.1-5,0-10,0-15c0-10.3,0.1-20.5,0-30.8
		c0-10.3-0.1-20.5-0.2-30.8c-0.1-9.5-1-18.7-4.3-27.7c-2.6-7.1-6.5-13.7-12-18.9c-5.1-4.8-11.5-8.1-18.3-9.9
		c-7.3-1.9-15.1-2.5-22.6-1.9c-7.1,0.6-14.1,2.5-20.4,6.1c-6.7,3.8-12.6,9.4-16.9,15.9c-4.6,6.9-7.1,14.9-7.7,23.2
		c-1.2,14.6,1.7,30.2,11.6,41.3c4.6,5.2,10.3,9.2,16.5,12.2c3.9,1.9,7.9,3.3,12.2,4c4.6,0.8,9.2,0.6,13.9,0.5
		c8.5-0.2,18.3,1.2,25.1,6.7c5.7,4.5,8.1,11.6,5.7,18.6c-2.6,7.4-9.7,11.8-16.7,14.4c-8.6,3.3-17.7,3.7-26.8,2.9
		c-9.1-0.8-18.2-2.4-26.9-5.3c-8-2.7-15.5-6.6-22.5-11.5c-12.3-8.6-22.3-20.2-28.5-33.9c-7.7-16.9-9.7-35.9-7.5-54.3
		c1.9-15.4,6.7-30.2,15.6-43c8.4-12,19.8-21.6,32.5-28.8C802.1,76,820.1,73,838,73.4c17.8,0.5,35.3,5,50.2,15
		c13.1,8.8,23.3,21.2,29.9,35.6c3.9,8.5,6.6,17.4,8.2,26.6c1.6,9.3,2,18.7,2,28.1C928.3,181.4,928.2,208,928.3,208z"/>
	<path class="st0" d="M1394.5,72c14.3-0.9,24.4,18.6,32,28.2c4.8,6,9.6,12.1,14.5,18.1c2.5,3.2,5.1,6.4,7.7,9.6
		c2.2,2.7,5.3,8.4,8.3,10.2c4.6,2.8,9.3-6.7,12-10.1c5.6-7.1,11.3-14.1,17-21.1c4.8-5.9,9.7-11.8,14.4-17.8
		c4.2-5.4,8.1-11.8,14.5-14.9c12.6-6.1,25.9,2.2,28.8,15.2c1.7,7.2-2.8,13.4-6.7,19c-4.4,6.4-9.3,12.4-14.1,18.5
		c-10.2,12.8-20.6,25.6-30.2,38.9c-4.2,5.8-1.2,7.8,2.9,12.9c5.6,7.2,11.2,14.4,16.8,21.5c11.2,14.1,52.8,55,18.9,68
		c-14.8,5.7-24.6-9-32.6-18.9c-10.1-12.5-20.4-24.9-30.4-37.5c-2.9-3.7-6.6-12-11.7-8.4c-2.6,1.8-4.7,5.9-6.7,8.3
		c-2.8,3.4-5.6,6.8-8.4,10.2c-10.2,12.6-19.4,26.5-30.5,38.3c-8.9,9.4-23.1,13.6-31.8,1.2c-9.4-13.3-1.6-26.5,7.1-37.4
		c10.7-13.6,21.6-27,32.6-40.4c2.2-2.7,4.8-5.4,6.8-8.2c2.8-4.1,3-5.2,0.3-9.2c-4.8-7.1-10.9-13.7-16.2-20.4
		c-10.4-13.2-23-26.3-31.5-40.9C1370.6,91.5,1376.7,70.8,1394.5,72z"/>
	<path class="st0" d="M1020,205.6c8.6-26.1,16.4-52.5,24.4-78.9c3.8-12.7,7.4-25.4,11.9-37.9c4.3-11.9,11.6-20.6,25.7-18
		c29.3,5.3,7.9,47.1,2.2,62.9c-9.3,26-18.5,52-27.7,78c-4.4,12.5-8.8,25-13.4,37.5c-3.9,10.4-10.9,19.8-22.9,20.5
		c-13.4,0.7-20.1-9.2-24.8-20.3c-5.1-12.1-9.4-24.7-13.9-37c-9.3-25.5-18.5-51-27.8-76.6c-4.4-12.2-11.1-25.2-13.3-38
		c-1.5-8.6,0.8-19,8.6-24.1c10.6-6.9,24-2.7,29.9,8.1c6.8,12.6,9.7,28.1,14.1,41.7c4.6,14.6,9.3,29.3,13.9,43.9
		c2.3,7.3,4.6,14.6,6.8,21.9C1014.6,192.9,1016.3,204.8,1020,205.6z"/>
	<path class="st0" d="M632.5,194.5c0-9.5,0.2-18.9,0.1-28.4c-0.1-8.7-0.7-17.4,0.9-26c3-16.6,12.7-30.8,24.9-42.1
		s27.1-20.2,43.5-23.9c15.5-3.4,36.2-3,37,17.7c0.8,19.3-20.9,23.5-35.1,29.4c-16.3,6.8-25.5,18.7-26.7,36.6
		c-1.3,18.6-0.3,37.7-0.2,56.4c0,8.5,0.1,17.1,0,25.7c-0.1,8.2-1.1,19.4-7.8,25.3c-13.5,11.8-33.6,1.6-35.9-14.6
		C632.5,245.3,631.6,194.5,632.5,194.5z"/>
	<g>
		<path class="st0" d="M606.5,209.2c-0.5,22.8,1.8,47.8-3.7,70.1c-4.6,18.5-15.9,34.7-30,47.2c-16,14.2-36.1,20.4-57.3,21.8
			c-9.2,0.6-18.2-1.9-23.7-9.8c-5.2-7.7-5.3-18.9,0.3-26.4c6.9-9.3,16.8-9.2,27.1-10.7c9.6-1.4,18.8-5.5,26.1-12
			c17.3-15.5,14.8-38.7,15.4-59.8c0.6-23.4,2.4-47.3,1-70.7c-1.1-20.4-17.2-36.8-36.4-42c-19.8-5.4-40.1,2.7-51.6,19.7
			c-10.9,16.2-10,40.8,2.2,56.1c5.9,7.3,14.3,13.1,23,16.5c9.7,3.8,18.3,1.8,28.1,0.7c10.3-1.2,21.2,2.3,26.5,11.8
			c4.3,7.6,4.1,17.4-1.4,24.3c-12.2,15.4-41.3,13.4-58.3,10.1c-21.4-4.2-37.4-16.4-51.6-32.2c-15.4-17.2-21.3-36.6-22.4-59.5
			c-1.1-21.9,6.3-42.7,20.2-59.6c27.4-33.5,72.3-44.5,112.4-28c19.3,7.9,34.4,22.9,44,41.3c10.7,20.5,10.8,43.1,10.9,65.7
			C607.4,186.7,608.1,209.2,606.5,209.2z"/>
		<path class="st0" d="M425.2,323.3c-0.8-9.4,6.1-18.6,14.3-22.5c9.2-4.3,21.4-2.2,28.5,5c7.2,7.3,8.8,19.5,4.4,28.7
			c-4.5,9.5-15.1,15.3-25.6,13.9c-10.6-1.4-20.1-10.1-21.6-20.9C425.2,326.2,425.1,324.7,425.2,323.3z"/>
	</g>
	<g>
		<path class="st0" d="M1116.9,170.8c0-16.2,0-32.3,0-48.5c0-13.3-3.6-32.6,6-43.5c8.2-9.2,26.1-8.5,32.8,2.1
			c7,11.1,4.4,27.6,4.5,40c0.1,31.8,0,63.6,0,95.4c0,13.6,3.2,32.2-4.4,44.3c-6.4,10.2-22.3,12.6-31.5,4.5
			c-11.3-9.9-7.7-33.3-7.7-46.7C1116.6,214.7,1116.5,170.8,1116.9,170.8z"/>
		<path class="st0" d="M1138.1,12.8c4.1-0.4,8.3,1.2,11.6,3.5c3.9,2.6,7.2,6.4,9.1,10.7c3.9,8.7,1.7,19.9-5,26.6
			c-6.7,6.6-17.4,8.2-25.8,4c-8.5-4.2-13.7-14.1-13-23.5c0.8-10,9.5-19.7,19.4-21.1C1135.7,12.7,1136.9,12.7,1138.1,12.8z"/>
	</g>
</g>
<path id="logo" class="st0" d="M184.1,13C114.4,13,50.4,57.6,26.3,123C2,189.1,22.6,265.4,76.7,310.4c54.2,45,133.3,51.2,193.7,14.9
	c60.2-36.2,92.1-107.9,78.5-176.9C335.4,80,279,25.8,210.2,15C201.5,13.7,192.8,13,184.1,13z M155.6,268.6
	c-9.5,20-40.5,5.6-31.9-14.6C132.8,232.8,165.6,247.5,155.6,268.6z M249.8,168.5c0,13.3-0.7,25.6-1.1,39.3
	c-0.4,15.8-2.6,30-12.1,43.1c-8.5,11.7-19.8,20.7-33.9,24.4c-11.3,3-29.5,7.1-35.2-6.8c-2.3-5.7-1.3-12.4,2.9-16.9
	c5.2-5.7,11.8-5.1,18.7-6.3c13.5-2.3,24.6-12.3,27-26c2.8-15.8,1.3-33.4,1.6-49.4c0.3-15.5,2.9-32.2-9.1-44.2
	c-22.4-22.6-60.3-5-57.2,26.6c1.3,13.8,11.2,25,24.4,29.1c12.5,3.9,30.5-6.6,37.3,9.9c6.1,14.7-8.9,22.2-20.9,23.2
	c-15.3,1.3-31-1.1-43.7-10.2c-11.3-8.1-22.8-20.6-26.5-34.2c-4-14.7-4.9-31.1,0.9-45.5c12.8-32.1,48.1-48,80.9-39
	c16.4,4.5,29.7,15.3,37.9,30.2C250.5,132,249.9,150.5,249.8,168.5z"/>
</svg>
