<?xml version="1.0" encoding="utf-8"?>
<!-- Generator: Adobe Illustrator 23.0.6, SVG Export Plug-In . SVG Version: 6.00 Build 0)  -->
<svg version="1.1" id="LOGO" xmlns="http://www.w3.org/2000/svg" xmlns:xlink="http://www.w3.org/1999/xlink" x="0px" y="0px"
	 viewBox="0 0 1059.7 216" style="enable-background:new 0 0 1059.7 216;" xml:space="preserve">
<style type="text/css">
	.st0{fill:#FF6D00;}
</style>
<path class="st0" d="M866.1,187.1h-71.6l82.6-84.2l-79.6-86.3h69.2l47.1,52.7l46.8-52.7h69.8L950,103l84.2,84.2h-71.4L914.4,136
	L866.1,187.1z"/>
<path class="st0" d="M738.1,147.5v39.7H607.3h-52.5h-3.7V16.7h2.2h54h130.8v39.5H604.3v28.6h125.6v34.5H604.3v28.2L738.1,147.5
	L738.1,147.5z"/>
<path class="st0" d="M420.8,187.1h-53.1v-131h-74.8V16.7h200.4v39.5h-72.4L420.8,187.1L420.8,187.1z"/>
<path class="st0" d="M103.5,82.4V56.1h135.7v-7.8h0V16.7H90v0l0,0H62.6l-3.2,3.2c0,0,0,0,0,0L43.3,36c0,0,0,0,0,0l-3.4,3.4v79.2H90
	v-0.1c0.5,0,0.9,0.1,1.4,0.1h84.8v3.2c0,0,0,0,0,0v0v28.3c0,0,0,0,0,0c-0.7,0-1.4,0.1-2.2,0.1c-0.9,0-1.8,0-2.7,0H39.9v0v2.8v34.1
	h145.2h8.8h20.1l0,0h0.2l3.1-3.1c0,0,0,0,0,0l0,0c0,0,0,0,0,0l12.9-12.9c0,0,0,0,0,0l7.4-7.4v0v-0.2V83.4h-52.3c-0.1,0-0.1,0-0.2,0
	h0c-0.1,0-0.3,0-0.4,0h-81.2L103.5,82.4L103.5,82.4z"/>
</svg>
