<?xml version="1.0" encoding="utf-8"?>
<!-- Generator: Adobe Illustrator 23.0.6, SVG Export Plug-In . SVG Version: 6.00 Build 0)  -->
<svg version="1.1" id="Layer_1" xmlns="http://www.w3.org/2000/svg" xmlns:xlink="http://www.w3.org/1999/xlink" x="0px" y="0px"
	 viewBox="0 0 566 138" style="enable-background:new 0 0 566 138;" xml:space="preserve">
<style type="text/css">
	.st0{fill:#FF6D00;}
</style>
<g>
	<g>
		<path class="st0" d="M137,68.7c0,9.4,0,18.8,0,28.1c0,0.8-0.2,1.2-0.9,1.6c-22.3,12.8-44.5,25.7-66.8,38.5c-0.6,0.4-1.1,0.4-1.7,0
			C45.4,124,23.1,111.2,0.8,98.4C0.2,98.1,0,97.6,0,96.9C0,78,0,59.2,0,40.4c0-0.8,0.2-1.2,0.9-1.6C23.2,26,45.4,13.1,67.6,0.3
			c0.6-0.4,1.1-0.4,1.7,0c22.2,12.9,44.5,25.7,66.8,38.5c0.7,0.4,0.9,0.8,0.9,1.6C137,49.8,137,59.3,137,68.7z M13.5,65.7
			c0,0.5-0.1,0.9-0.1,1.2c0,7.1,0,14.1,0,21.2c0,0.8,0.2,1.2,0.9,1.6c17.8,10.3,35.6,20.5,53.4,30.8c0.6,0.4,1.1,0.3,1.7,0
			c17.8-10.3,35.6-20.6,53.4-30.9c0.3-0.2,0.6-0.4,1-0.7c-0.5-0.3-0.8-0.5-1.1-0.7c-3.3-1.9-6.6-3.8-9.9-5.7
			c-10.3-6-20.7-11.9-31-17.9c-0.5-0.3-0.9-0.6-1.5,0.1c-3.8,4.7-7.7,9.3-11.6,14c-0.2,0.2-0.3,0.4-0.5,0.7
			c7.5,4.3,14.9,8.6,22.4,12.9c-0.4,0.3-0.7,0.5-0.9,0.6c-4.1,2.7-8.2,5.3-12.3,8c-0.9,0.6-1.5,0.6-2.4,0.1
			C54.9,89.5,34.8,77.9,14.7,66.3C14.3,66.2,14,66,13.5,65.7z M123.5,71.1c0-0.5,0.1-0.7,0.1-0.9c0-7.2,0-14.5,0-21.7
			c0-0.7-0.4-1.1-0.9-1.4C105,36.8,87.2,26.6,69.5,16.3c-0.7-0.4-1.3-0.4-2,0C49.8,26.6,32,36.8,14.3,47.1c-0.3,0.2-0.6,0.4-1,0.7
			c0.4,0.3,0.7,0.5,1,0.6C27.5,56,40.7,63.6,53.8,71.2c0.7,0.4,1.1,0.3,1.7-0.3c3.3-4,6.6-8,9.9-11.9c0.7-0.8,1.3-1.6,2-2.5
			c-7.9-4.6-15.7-9.1-23.6-13.6c0.3-0.2,0.4-0.4,0.6-0.4c4.5-2.7,9-5.5,13.5-8.2c0.6-0.4,1-0.1,1.5,0.1c21,12.1,42.1,24.1,63.1,36.2
			C122.7,70.7,123.1,70.8,123.5,71.1z"/>
		<path class="st0" d="M330.8,69.3c0,25.4-12.7,39.1-36.1,39.1c-23.7,0-36.5-13.8-36.4-39.4c0-25.4,13-39.3,36.8-39.1
			C318.4,30.1,330.8,43.7,330.8,69.3z M275.3,69.1c0,17.3,6.9,26.4,19.8,26c10.6-0.4,16.9-6.8,18.5-19.1
			c2.2-16.8-2.7-28.9-12.9-31.8C285.3,39.8,275.4,49.5,275.3,69.1z"/>
		<path class="st0" d="M180.1,31.4c5.3,0,10.3,0,15.7,0c0,9.8,0,19.3,0,29.3c10.2,0,19.9,0,30.3,0c0-9.7,0-19.4,0-29.3
			c5.8,0,10.8,0,16.2,0c0,25.3,0,50.4,0,75.7c-5.4,0-10.4,0-16,0c0-10.8,0-21.5,0-32.4c-10.2,0-19.9,0-30.1,0c0,10.7,0,21.3,0,32.3
			c-5.5,0-10.6,0-16,0C180.1,82,180.1,56.9,180.1,31.4z"/>
		<path class="st0" d="M339.7,31.4c18.9,0,37.7,0,56.8,0c0,4.3,0,8.4,0,13c-6.7,0-13.2,0-20.3,0c0,21.1,0,41.7,0,62.6
			c-5.6,0-10.6,0-16.2,0c0-20.6,0-41.2,0-62.3c-6.9,0-13.3,0-20.3,0C339.7,40.2,339.7,36,339.7,31.4z"/>
		<path class="st0" d="M529,44.5c-7.3,0-13.7,0-20.5,0c0-4.5,0-8.6,0-13c19,0,37.9,0,57,0c0,4.2,0,8.3,0,13c-6.7,0-13.3,0-20.3,0
			c0,21.1,0,41.7,0,62.6c-5.6,0-10.7,0-16.2,0C529,86.4,529,65.8,529,44.5z"/>
		<path class="st0" d="M496.3,107.2c-5.3,0-10.2,0-15.5,0c0-25.2,0-50.3,0-75.7c5,0,10.1,0,15.5,0
			C496.3,56.5,496.3,81.6,496.3,107.2z"/>
		<path class="st0" d="M408.3,31.3H432c10.8,0,18.6,1.5,23.5,4.6c4.9,3.1,7.3,7.9,7.3,14.6c0,4.5-1.1,8.3-3.2,11.2
			c-2.1,2.9-5,4.7-8.5,5.3v0.5c4.8,1.1,8.3,3.1,10.4,6s3.2,6.9,3.2,11.7c0,6.9-2.5,12.3-7.5,16.2c-5,3.9-11.8,5.8-20.4,5.8h-28.4
			V31.3H408.3z M424.4,61.4h9.4c4.4,0,7.5-0.7,9.5-2c2-1.4,2.9-3.6,2.9-6.7c0-2.9-1.1-5-3.2-6.3s-5.5-1.9-10.1-1.9h-8.5V61.4
			L424.4,61.4z M424.4,74.1V94h10.5c4.4,0,7.7-0.8,9.8-2.5c2.1-1.7,3.2-4.3,3.2-7.8c0-6.3-4.5-9.5-13.5-9.5L424.4,74.1L424.4,74.1z"
			/>
	</g>
</g>
</svg>
