<?xml version="1.0" encoding="utf-8"?>
<!-- Generator: Adobe Illustrator 23.0.6, SVG Export Plug-In . SVG Version: 6.00 Build 0)  -->
<svg version="1.1"
	 id="svg4979" inkscape:version="0.92.2 2405546, 2018-03-11" sodipodi:docname="aiodex.svg" xmlns:cc="http://creativecommons.org/ns#" xmlns:dc="http://purl.org/dc/elements/1.1/" xmlns:inkscape="http://www.inkscape.org/namespaces/inkscape" xmlns:rdf="http://www.w3.org/1999/02/22-rdf-syntax-ns#" xmlns:sodipodi="http://sodipodi.sourceforge.net/DTD/sodipodi-0.dtd" xmlns:svg="http://www.w3.org/2000/svg"
	 xmlns="http://www.w3.org/2000/svg" xmlns:xlink="http://www.w3.org/1999/xlink" x="0px" y="0px" viewBox="0 0 462 138"
	 style="enable-background:new 0 0 462 138;" xml:space="preserve">
<style type="text/css">
	.st0{fill:#FF6D00;}
</style>
<sodipodi:namedview  bordercolor="#666666" borderopacity="1" gridtolerance="10" guidetolerance="10" id="namedview4981" inkscape:current-layer="svg4979" inkscape:cx="-46.893391" inkscape:cy="148.85674" inkscape:pageopacity="0" inkscape:pageshadow="2" inkscape:window-height="908" inkscape:window-maximized="0" inkscape:window-width="1722" inkscape:window-x="104" inkscape:window-y="76" inkscape:zoom="0.68554688" objecttolerance="10" pagecolor="#ffffff" showgrid="false">
	</sodipodi:namedview>
<g>
	<path class="st0" d="M14.3,44.1c0,6.7-0.6,13.5,0.1,20.2c4.2,40.2,46.5,51.5,70.4,34.9c17.9-12.4,22.7-38.4,6.6-54.8
		c-11.4-11.6-31.6-12.7-42.3-2c-6.9,7-9,15.5-5.9,25c3,9.1,10,13.2,19,14.4c5.4,0.7,10.5-1,15-4.2c4.1,3.4,8.1,6.6,12.4,10.1
		c-9.2,10.1-20.3,14.7-33.4,13C35.5,98,22.5,86,18,65.7c-3.4-15.3,0.6-29.1,11.3-40.5C44.7,8.8,63.8,4,85.2,9.5
		c22.6,5.9,37.5,20.5,43.4,43.3c6.5,25.1-2.9,51.6-23.2,65.5C83.9,133,54.1,135,33.2,117.4C17.5,104.2,7.5,87.7,8.5,66.2
		C8.9,58.6,10.7,51.1,14.3,44.1z"/>
	<path class="st0" d="M379.3,115.9c4,0.6,7.5,1.4,11,1.7c5,0.4,8.8-2,11.4-6.3c1.3-2.1,2.7-4.3,3.3-6.6c0.6-2.2,1-4.9,0.3-7
		c-6.9-20.2-14-40.4-21-60.5c-0.1-0.2-0.1-0.5-0.2-1.2c5.4,0,10.8-0.1,16.2,0.1c0.7,0,1.8,1.4,2.1,2.3c4.4,14.9,8.6,29.9,12.9,44.8
		c0.1,0.5,0.4,0.9,1,1.9c2.3-5.8,4.3-11.1,6.4-16.4c3.9-9.9,8-19.7,11.7-29.6c1-2.6,2.3-3.3,4.8-3.2c4.3,0.2,8.6,0.1,13.4,0.1
		c-3.5,7.9-6.8,15.5-10.1,23c-7.7,17.5-15.7,34.9-23.2,52.6c-7.3,17.3-17.3,19-32.2,17.5c-6.3-0.6-6.2-1-7-7.3
		C379.8,119.9,379.5,118,379.3,115.9z"/>
	<path class="st0" d="M154.4,49.6c0.5-2.9,1.2-5.2,1.2-7.5c-0.1-3.1,1.5-4,4.1-4.5c11.5-2.3,23.1-4.1,34.8-1.7
		c10.3,2.1,14.6,8.2,13.8,18.6c-0.7,9-1,18-1.5,27c-0.3,5.9-0.6,11.8-0.9,17.9c-5.5,0-10.9,0-16.8,0c0.6-10.7,1.2-21.2,1.8-32.1
		c-8.5,3.1-16.6,5.8-24.5,9c-3.4,1.4-4.5,4.8-4,8.5c0.5,3.6,2.9,5.7,6.2,6c4.4,0.4,9,0.1,14,0.1c-0.7,2.5-1.5,5.4-2.4,8.3
		c-0.2,0.5-1,1.1-1.6,1.1c-6.6,0.5-13.2,1.5-19.8-0.5c-7.1-2.2-11.9-7-12.6-13.5c-0.9-7.7,1.4-14.4,8.6-17.7
		c6.8-3.1,14.1-5,21.3-7.3c3.5-1.2,7.1-2,10.5-3.5c2.8-1.2,4.8-3.5,4.2-7.1c-0.6-3.3-2.9-4.8-5.9-5.3c-8.9-1.7-17.4,0-25.8,2.7
		C157.5,48.5,156.2,49,154.4,49.6z"/>
	<path class="st0" d="M273.8,21.1c-0.2,4.9-0.4,9.6-0.7,14.7c5.3,0,10.6,0,16.3,0c-0.3,4.4-0.5,8.3-0.8,12.5c-5.3,0-10.5,0-15.9,0
		c-0.4,5.8-0.8,11.3-1.1,16.9c-0.2,4.8-0.3,9.7-0.2,14.5c0.2,6.2,2.6,8.4,8.8,8.2c2.4-0.1,4.8-0.5,7.8-0.9
		c-0.7,3.8-1.1,7.3-1.9,10.8c-0.2,0.8-1.6,1.7-2.5,1.8c-5.6,0.5-11.3,1.4-16.9,0.9c-9.3-0.9-13.5-6.7-12.8-16.1
		c0.6-8.7,1-17.5,1.5-26.2c0.2-3,0.4-6.1,0.7-9.5c-3.1,0-5.8,0-9.1,0c0.2-4.3,0.4-8.3,0.6-12.6c3.4,0,6.3,0,9.6,0
		c0.1-3.2,0.1-6,0.5-8.8c0.1-1.1,1.1-2.6,2-2.8C264.1,23.1,268.7,22.2,273.8,21.1z"/>
	<path class="st0" d="M330.4,14.6c5.9,0,11.6,0,17.1,0c-1.4,28.3-2.8,56.4-4.1,84.8c-5.8,0-11.5,0-17.3,0
		C327.5,71,329,43,330.4,14.6z"/>
	<path class="st0" d="M361.9,14.5c5.7,0,11.3,0,17.2,0c-0.3,5.6-0.5,10.9-0.8,16.3c-0.5,8.4-1.1,16.7-1.4,25.1
		c-0.6,13.4-1.1,26.9-1.5,40.3c-0.1,2.5-1,3.5-3.5,3.4c-4.8-0.2-9.6,0-14.4,0C358.9,71,360.4,43,361.9,14.5z"/>
	<path class="st0" d="M236,99.4c-5.9,0-11.6,0-17.3,0c1.5-28.3,2.9-56.4,4.4-84.8c5.3,0,10.9,0,17,0C238.8,42.7,237.4,70.9,236,99.4
		z"/>
	<path class="st0" d="M297.8,36.2c5.8,0,11.4,0,17.1,0c-0.8,21.1-1.5,42-2.3,63.2c-5.8,0-11.6,0-17.8,0
		C295.8,78.3,296.8,57.3,297.8,36.2z"/>
	<path class="st0" d="M315.2,25.2c-5.8,0-11.1,0-16.7,0c0-3.8,0-7.4,0-11.3c5.8,0,11.4,0,17.3,0C315.6,17.6,315.4,21.2,315.2,25.2z"
		/>
</g>
</svg>
