<?xml version="1.0" encoding="UTF-8" standalone="no"?>
<!-- Generator: Adobe Illustrator 25.0.1, SVG Export Plug-In . SVG Version: 6.00 Build 0)  -->

<svg
   version="1.1"
   id="Layer_1"
   x="0px"
   y="0px"
   viewBox="0 0 1546.7 290.8"
   style="enable-background:new 0 0 1546.7 290.8;"
   xml:space="preserve"
   sodipodi:docname="61a743f12d110d1a3cb8e408_bitcourier_orange.svg"
   inkscape:version="1.1.2 (b8e25be833, 2022-02-05)"
   xmlns:inkscape="http://www.inkscape.org/namespaces/inkscape"
   xmlns:sodipodi="http://sodipodi.sourceforge.net/DTD/sodipodi-0.dtd"
   xmlns="http://www.w3.org/2000/svg"
   xmlns:svg="http://www.w3.org/2000/svg"><defs
   id="defs33" /><sodipodi:namedview
   id="namedview31"
   pagecolor="#505050"
   bordercolor="#ffffff"
   borderopacity="1"
   inkscape:pageshadow="0"
   inkscape:pageopacity="0"
   inkscape:pagecheckerboard="1"
   showgrid="false"
   inkscape:zoom="0.4189565"
   inkscape:cx="-10.740972"
   inkscape:cy="526.30762"
   inkscape:window-width="1920"
   inkscape:window-height="1001"
   inkscape:window-x="-9"
   inkscape:window-y="-9"
   inkscape:window-maximized="1"
   inkscape:current-layer="Layer_1" />
<style
   type="text/css"
   id="style2">
	.st0{fill:#FEE761;}
	.st1{fill:#FEAE34;}
	.st2{fill:#BE4A2F;}
	.st3{fill:#FED451;}
	.st4{font-family:'PressStart2P-Regular';}
	.st5{font-size:126.5744px;}
</style>
<rect
   x="72.3"
   y="209"
   class="st0"
   width="12.1"
   height="12.1"
   id="rect4"
   style="fill:#fb893a;fill-opacity:1" />
<rect
   x="84.4"
   y="136.2"
   class="st0"
   width="12.1"
   height="72.8"
   id="rect6"
   style="fill:#fb893a;fill-opacity:1" />
<rect
   x="84.4"
   y="51.2"
   class="st0"
   width="12.1"
   height="60.7"
   id="rect8"
   style="fill:#fb893a;fill-opacity:1" />
<rect
   x="96.5"
   y="39"
   class="st0"
   width="12.1"
   height="12.1"
   id="rect10"
   style="fill:#fb893a;fill-opacity:1" />
<polygon
   class="st1"
   points="169.4,196.9 169.4,221.2 120.8,221.2 120.8,136.2 157.3,136.2 157.3,111.9 120.8,111.9 120.8,63.3   169.4,63.3 169.4,75.5 193.7,75.5 193.7,51.2 181.5,51.2 181.5,39 108.7,39 108.7,51.2 96.5,51.2 96.5,111.9 60.1,111.9 60.1,136.2   96.5,136.2 96.5,209 84.4,209 84.4,221.2 72.3,221.2 72.3,257.6 193.7,257.6 193.7,245.4 205.8,245.4 205.8,196.9 "
   id="polygon12"
   style="fill:#fa741c;fill-opacity:1" />
<rect
   x="145.1"
   y="196.9"
   class="st2"
   width="24.3"
   height="24.3"
   id="rect14" />
<polygon
   class="st2"
   points="60.1,136.2 60.1,209 48,209 48,221.2 35.8,221.2 35.8,257.6 60.1,257.6 60.1,221.2 72.3,221.2   72.3,209 84.4,209 84.4,136.2 "
   id="polygon16"
   style="fill:#a94403;fill-opacity:1" />
<rect
   x="23.7"
   y="111.9"
   class="st2"
   width="24.3"
   height="24.3"
   id="rect18"
   style="fill:#a94403;fill-opacity:1" />
<rect
   x="145.1"
   y="63.3"
   class="st2"
   width="24.3"
   height="12.1"
   id="rect20" />
<polygon
   class="st2"
   points="72.3,39 72.3,51.2 60.1,51.2 60.1,111.9 84.4,111.9 84.4,51.2 96.5,51.2 96.5,39 "
   id="polygon22"
   style="fill:#a94403;fill-opacity:1" />
<rect
   x="60.1"
   y="221.2"
   class="st3"
   width="12.1"
   height="36.4"
   id="rect24"
   style="fill:#fb893a;fill-opacity:1" />
<rect
   x="48"
   y="111.9"
   class="st3"
   width="12.2"
   height="24.3"
   id="rect26"
   style="fill:#fb893a;fill-opacity:1" />
<text
   transform="matrix(1 0 0 1 257.9486 221.1665)"
   class="st4 st5"
   id="text28"
   style="fill:#fa741c;fill-opacity:1">BITCOURIER</text>
</svg>
