<svg xmlns="http://www.w3.org/2000/svg" viewBox="0 0 2176.079 535.286" width="300px" clip-rule="evenodd" fill-rule="evenodd" image-rendering="optimizeQuality" shape-rendering="geometricPrecision" text-rendering="geometricPrecision"><g stroke-width="4.636" fill="#ff6d00"><path d="M267.959 0c73.172.982 147.326 29.956 197.908 83.976 45.671 49.6 75.136 116.388 73.663 184.649-.982 0-271.08-2.455-271.08-2.455v-80.048h173.354c-29.957-66.297-100.673-108.04-172.372-108.04A2070.487 2070.487 0 0 1 267.959 0ZM144.695 13.75c34.868-15.223 77.101 18.17 69.735 55.493-3.929 38.305-55.984 57.949-83.976 31.43-30.939-22.59-21.608-75.136 14.241-86.923ZM.315 250.455C3.754 185.63 32.728 123.263 78.89 78.083c18.661 18.661 36.831 37.323 55.002 55.984C99.515 172.863 78.399 223.445 78.89 275.5c1.964 35.85 13.75 72.19 35.358 101.164 27.501 38.305 69.243 64.333 114.423 77.592 0 26.028-.982 52.055-.982 77.592-67.77-12.768-132.593-48.127-174.336-104.602C15.048 377.646-2.63 312.823.316 250.455ZM458.01 287.777c26.027-6.384 80.538-19.152 81.029-19.152-.491 63.841-22.59 127.683-65.315 175.81-51.073 57.948-127.683 90.85-204.783 90.85v-77.591c47.144-.491 94.78-16.206 128.665-49.109 34.376-30.939 52.055-76.119 60.403-120.808Z"/></g><path d="M709.668 120.875c14.712-3.42 25.137 1.545 31.276 14.894a146.694 146.694 0 0 1 0 41.701c-7.254 14.071-18.672 18.54-34.255 13.405-5.46-1.49-8.936-4.965-10.425-10.426a146.694 146.694 0 0 1 0-41.702c2.395-7.881 6.863-13.838 13.404-17.872z" opacity=".815" stroke-width=".336" fill="#ff6d00"/><path d="M781.157 123.854a150.25 150.25 0 0 1 29.787 1.49 9033.933 9033.933 0 0 1 183.19 212.977 3363.912 3363.912 0 0 1 0-196.595c1.03-6.993 4.507-12.454 10.426-16.383 9.928-1.986 19.859-1.986 29.787 0 2.48 2.482 4.965 4.965 7.446 7.447 4.918 92.084 5.91 184.423 2.98 277.02-3.873 13.365-12.81 19.322-26.81 17.872-6.85.018-13.302-1.472-19.36-4.468a27209.842 27209.842 0 0 0-174.255-207.02l-2.979 193.616c-7.842 15.584-20.253 21.044-37.234 16.382-5.32-2.338-9.788-5.811-13.404-10.425a6580.377 6580.377 0 0 1 0-279.998c4.098-3.59 7.573-7.562 10.426-11.915z" opacity=".88" stroke-width=".336" fill="#ff6d00"/><path d="M1076.049 123.854a1555.27 1555.27 0 0 1 160.85 4.468c57.197 13.51 92.447 48.758 105.744 105.744 16.469 101.752-24.735 164.803-123.617 189.148a903.632 903.632 0 0 1-139.999 2.978c-8.438-2.48-13.901-7.944-16.383-16.382a6164.33 6164.33 0 0 1 0-271.063c3.054-6.514 7.522-11.478 13.405-14.893zm38.723 47.66a2041.56 2041.56 0 0 0 107.233 4.467c51.773 12.55 75.603 45.813 71.49 99.787.663 60.819-29.124 94.08-89.362 99.786a1342.288 1342.288 0 0 1-89.361 1.49v-205.53z" opacity=".876" stroke-width=".336" fill="#ff6d00"/><path d="M1496.046 123.854c142.227-.305 201.304 69.198 177.233 208.51-21.259 52.04-59.485 83.317-114.68 93.828-69.755 14.718-129.827-2.657-180.212-52.127-36.936-57.182-40.91-116.756-11.915-178.722 31.944-44.512 75.135-68.342 129.574-71.49zm-8.936 50.638c120.986-7.642 163.185 45.975 126.595 160.85-17.542 25.417-41.869 39.816-72.978 43.191-115.196 7.375-158.387-44.752-129.574-156.382 5.3-12.248 13.738-21.68 25.319-28.298 16.031-9.794 32.912-16.248 50.638-19.361z" opacity=".885" stroke-width=".336" fill="#ff6d00"/><path d="M1698.598 123.854c78.444-.496 156.886 0 235.318 1.49 32.268 36.24 64.54 72.48 96.808 108.722l93.829-105.744c13.902-5.958 27.8-5.958 41.702 0 8.004 11.596 7.506 23.014-1.49 34.255A8125.631 8125.631 0 0 1 2064.98 271.3c36.242 41.204 72.48 82.412 108.723 123.616 6.848 21.923-1.097 32.846-23.83 32.766-6.851.018-13.303-1.472-19.362-4.468a5105.205 5105.205 0 0 1-98.297-111.702c-35.026 39.504-71.766 77.73-110.212 114.68-75.722 2.923-151.181 1.928-226.382-2.978-3.577-2.69-6.061-6.163-7.446-10.426a6300.537 6300.537 0 0 1 0-274.04c2.97-5.431 6.446-10.395 10.425-14.894zm38.723 47.66a1195.482 1195.482 0 0 0 168.297 0 2132.161 2132.161 0 0 0 90.85 99.786c-30.778 34.751-61.56 69.502-92.34 104.254a4668.833 4668.833 0 0 1-166.807 1.49V293.64c52.634.496 105.256 0 157.872-1.49 15.525-15.003 15.525-29.897 0-44.68a4185.214 4185.214 0 0 0-157.872-1.49v-74.467z" opacity=".888" stroke-width=".336" fill="#ff6d00"/><path d="M712.646 195.343c11.35-.36 20.782 3.611 28.298 11.915a3649.477 3649.477 0 0 1 0 208.509c-16.343 16.621-31.236 15.63-44.68-2.979a3443.957 3443.957 0 0 1 0-202.552c4.026-6.699 9.486-11.663 16.382-14.893z" opacity=".854" stroke-width=".336" fill="#ff6d00"/></svg>
