<?xml version="1.0" encoding="utf-8"?>
<!-- Generator: Adobe Illustrator 25.0.1, SVG Export Plug-In . SVG Version: 6.00 Build 0)  -->
<svg version="1.1" id="Layer_1" xmlns="http://www.w3.org/2000/svg" xmlns:xlink="http://www.w3.org/1999/xlink" x="0px" y="0px"
	 viewBox="0 0 1546.7 290.8" style="enable-background:new 0 0 1546.7 290.8;" xml:space="preserve">
<style type="text/css">
	.st0{fill:#FEE761;}
	.st1{fill:#FEAE34;}
	.st2{fill:#BE4A2F;}
	.st3{fill:#FED451;}
	.st4{font-family:'PressStart2P-Regular';}
	.st5{font-size:126.5744px;}
</style>
<rect x="72.3" y="209" class="st0" width="12.1" height="12.1"/>
<rect x="84.4" y="136.2" class="st0" width="12.1" height="72.8"/>
<rect x="84.4" y="51.2" class="st0" width="12.1" height="60.7"/>
<rect x="96.5" y="39" class="st0" width="12.1" height="12.1"/>
<polygon class="st1" points="169.4,196.9 169.4,221.2 120.8,221.2 120.8,136.2 157.3,136.2 157.3,111.9 120.8,111.9 120.8,63.3 
	169.4,63.3 169.4,75.5 193.7,75.5 193.7,51.2 181.5,51.2 181.5,39 108.7,39 108.7,51.2 96.5,51.2 96.5,111.9 60.1,111.9 60.1,136.2 
	96.5,136.2 96.5,209 84.4,209 84.4,221.2 72.3,221.2 72.3,257.6 193.7,257.6 193.7,245.4 205.8,245.4 205.8,196.9 "/>
<rect x="145.1" y="196.9" class="st2" width="24.3" height="24.3"/>
<polygon class="st2" points="60.1,136.2 60.1,209 48,209 48,221.2 35.8,221.2 35.8,257.6 60.1,257.6 60.1,221.2 72.3,221.2 
	72.3,209 84.4,209 84.4,136.2 "/>
<rect x="23.7" y="111.9" class="st2" width="24.3" height="24.3"/>
<rect x="145.1" y="63.3" class="st2" width="24.3" height="12.1"/>
<polygon class="st2" points="72.3,39 72.3,51.2 60.1,51.2 60.1,111.9 84.4,111.9 84.4,51.2 96.5,51.2 96.5,39 "/>
<rect x="60.1" y="221.2" class="st3" width="12.1" height="36.4"/>
<rect x="48" y="111.9" class="st3" width="12.2" height="24.3"/>
<text transform="matrix(1 0 0 1 257.9486 221.1665)" class="st4 st5">BITCOURIER</text>
</svg>
