<svg xmlns="http://www.w3.org/2000/svg" height="335.287" width="1362.858" id="svg36" version="1.1"><defs id="defs4"><style id="style2">.cls-1{fill:#ff6d00}</style></defs><path id="path6" d="m181.745 97.342-27.2-15.85a18.1 18.1 0 0 0-16.406 0l-27.2 15.85c-5.885 3.425-5.898 9.038 0 12.488l27.311 16.072a17.903 17.903 0 0 0 16.382 0l27.311-16.072c5.737-3.5 5.725-9.063-.198-12.488z" class="cls-1" fill="#ff6d00" fill-opacity="1" stroke-width="1"/><path id="path8" d="M288.073 77.709 156.375 1.957a18.2 18.2 0 0 0-16.419 0L8.222 77.709A18.15 18.15 0 0 0 0 91.915v151.454a18.15 18.15 0 0 0 8.222 14.206l131.734 75.764a18.273 18.273 0 0 0 16.42 0l131.697-75.764a18.15 18.15 0 0 0 8.222-14.206V91.915a18.15 18.15 0 0 0-8.222-14.206zm-58.58 35.15-74.948 44.163a17.903 17.903 0 0 1-16.381 0l-47.6-28.029c-5.91-3.474-10.744-.717-10.744 6.182v84.407c0 6.725-4.872 9.668-10.83 6.515l-8.062-4.253a17.457 17.457 0 0 1-8.444-14.008v-91.775a18.286 18.286 0 0 1 8.184-14.23l77.446-45.03a18.1 18.1 0 0 1 16.407 0l74.948 43.57c5.885 3.413 5.898 9.038.025 12.488z" class="cls-1" fill="#ff6d00" fill-opacity="1" stroke-width="1"/><g transform="matrix(1.4423 0 0 1.4423 -79.459 52.122)" id="g890" fill="#ff6d00" fill-opacity="1" stroke-width=".693"><path class="cls-1" d="M318 27.05a3.13 3.13 0 0 1 3.32-3.49h50.81c21.68 0 36.56 19.15 36.56 38.46 0 19-14.4 38-36.09 38h-24.17v37.51c0 2.37-1.27 3.48-3.64 3.48h-23.43c-2.37 0-3.32-1.11-3.32-3.48zm30.39 21.52V75h17.09c7.76 0 12.19-6.49 12.19-13.14 0-6.32-4.59-13.29-12.19-13.29z" id="path22" fill="#ff6d00" fill-opacity="1" stroke-width=".693"/><path class="cls-1" d="M436.74 27.05a3.28 3.28 0 0 1 3.32-3.49h52.55c22.31 0 37.51 19.63 37.51 39.41 0 12.67-7.76 25-19.31 32.45l22.63 42.1c.95 1.58.32 3.48-1.9 3.48h-28.49c-2.21 0-3-.63-4.27-3.32L480 101.91h-12.72v35.61c0 2.37-1.26 3.48-3.48 3.48h-23.74c-2.21 0-3.32-1.11-3.32-3.48zm30.54 20.89v28.64h17.57a14.25 14.25 0 0 0 14.09-14.24c0-6.8-5.86-14.4-14.09-14.4z" id="path24" fill="#ff6d00" fill-opacity="1" stroke-width=".693"/><path class="cls-1" d="M615.58 21.82a60.46 60.46 0 1 1-60.46 60.62 60.5 60.5 0 0 1 60.46-60.62zm0 91.8c17.41 0 29.91-13.77 29.91-31.34 0-17.41-12.5-31.34-29.91-31.34s-29.92 13.93-29.92 31.34c0 17.57 12.51 31.34 29.92 31.34z" id="path26" fill="#ff6d00" fill-opacity="1" stroke-width=".693"/><path class="cls-1" d="M707.84 27.21c0-2.22 1.27-3.65 3.48-3.65h50.18a34 34 0 0 1 33.87 34 30.67 30.67 0 0 1-7.13 20.26 38.59 38.59 0 0 1 12.35 27.7c0 19.15-15.83 35.45-34.5 35.45h-54.77c-2.05 0-3.48-1.11-3.48-3.32zm45.27 19.62h-14.56v23h14.24c7.28 0 12.19-4.75 12.19-11.4a11.49 11.49 0 0 0-11.87-11.6zm3.95 44.31h-18.51v26.43h18.51c7 0 12.19-6.48 12.19-13.29 0-6.28-5.25-13.14-12.19-13.14z" id="path28" fill="#ff6d00" fill-opacity="1" stroke-width=".693"/><path class="cls-1" d="M837.3 27.05c0-2.38 1.11-3.49 3.33-3.49h23.74c2.21 0 3.48 1.11 3.48 3.49v110.47c0 2.37-1.27 3.48-3.48 3.48h-23.74c-2.22 0-3.33-1.11-3.33-3.48z" id="path30" fill="#ff6d00" fill-opacity="1" stroke-width=".693"/><path class="cls-1" d="M907.25 27.05c0-2.38 1.11-3.49 3.48-3.49h85.79c2.21 0 3.48 1.11 3.48 3.49v20.1a3.17 3.17 0 0 1-3.48 3.48h-28v86.89c0 2.37-1.26 3.48-3.64 3.48h-22.81c-2.21 0-3.48-1.11-3.48-3.48V50.63h-27.86c-2.37 0-3.48-1.27-3.48-3.48z" id="path32" fill="#ff6d00" fill-opacity="1" stroke-width=".693"/></g></svg>