<svg xmlns="http://www.w3.org/2000/svg" xmlns:xlink="http://www.w3.org/1999/xlink" height="268.089" width="1344.829" viewBox="0 0 1344.829 268.111"><defs><linearGradient gradientUnits="userSpaceOnUse" y2="14.838" y1="14.838" x2="25.729" x1="2.107" id="a"><stop offset="0" stop-color="#fa961c"/></linearGradient><linearGradient y2="14.838" x2="25.729" y1="14.838" x1="2.107" gradientUnits="userSpaceOnUse" id="d" xlink:href="#a"/><linearGradient y2="14.838" x2="25.729" y1="14.838" x1="2.107" gradientUnits="userSpaceOnUse" id="e" xlink:href="#a"/><linearGradient y2="14.838" x2="25.729" y1="14.838" x1="2.107" gradientUnits="userSpaceOnUse" id="f" xlink:href="#a"/><linearGradient y2="14.838" x2="25.729" y1="14.838" x1="2.107" gradientUnits="userSpaceOnUse" id="g" xlink:href="#a"/><linearGradient y2="14.838" x2="25.729" y1="14.838" x1="2.107" gradientUnits="userSpaceOnUse" id="h" xlink:href="#a"/><linearGradient y2="14.838" x2="25.729" y1="14.838" x1="2.107" gradientUnits="userSpaceOnUse" id="i" xlink:href="#a"/><linearGradient y2="14.838" x2="25.729" y1="14.838" x1="2.107" gradientUnits="userSpaceOnUse" id="j" xlink:href="#a"/><linearGradient y2="14.838" x2="25.729" y1="14.838" x1="2.107" gradientUnits="userSpaceOnUse" id="k" xlink:href="#a"/><linearGradient y2="14.838" x2="25.729" y1="14.838" x1="2.107" gradientUnits="userSpaceOnUse" id="l" xlink:href="#a"/><linearGradient y2="14.838" x2="25.729" y1="14.838" x1="2.107" gradientUnits="userSpaceOnUse" id="m" xlink:href="#a"/><linearGradient y2="14.838" x2="25.729" y1="14.838" x1="2.107" gradientUnits="userSpaceOnUse" id="n" xlink:href="#a"/><linearGradient y2="14.838" x2="25.729" y1="14.838" x1="2.107" gradientUnits="userSpaceOnUse" id="o" xlink:href="#a"/><linearGradient y2="14.838" x2="25.729" y1="14.838" x1="2.107" gradientUnits="userSpaceOnUse" id="p" xlink:href="#a"/><linearGradient y2="14.838" x2="25.729" y1="14.838" x1="2.107" gradientUnits="userSpaceOnUse" id="c" xlink:href="#a"/><filter style="color-interpolation-filters:sRGB" height="2.647" width="2.156" y="-.824" x="-.578" id="b"><feGaussianBlur stdDeviation="1.257"/></filter></defs><g style="stroke-width:.1730486"><path d="M5.815 245.77c.105.482.168.971.272 1.454.063.296.16.224.312.097a7.226 7.226 0 0 1 .898-.7.334.334 0 0 1 .19.158 6.115 6.115 0 0 0 3.336 2.175 11.06 11.06 0 0 0 1.892.352 3.194 3.194 0 0 1-.497-.748 1.093 1.093 0 0 1 .222-1.295 3.216 3.216 0 0 1 1.615-.812 11.586 11.586 0 0 1 3.773-.265 15.178 15.178 0 0 1 3.02.515 8.731 8.731 0 0 1 2.364.968c.102.082.173.195.271.281a5.351 5.351 0 0 1 1.525 3.576 5.121 5.121 0 0 1-.714 2.693 9.146 9.146 0 0 1-3.606 3.436 12.81 12.81 0 0 1-4.937 1.561 13.186 13.186 0 0 1-8.615-1.98 16.776 16.776 0 0 1-5.26-5.409 25.514 25.514 0 0 1-1.694-3.215c-.06-.135-.076-.286-.138-.397.04.132.112.28-.032.42a12.804 12.804 0 0 1 .036-1.677 21.549 21.549 0 0 1 .713-4.552 22.019 22.019 0 0 1 13.118-14.718 21.574 21.574 0 0 1 6.055-1.443 22.124 22.124 0 0 1 9.545 1.23c-.47.892-3.159 3.286-5.247 4.671a7.058 7.058 0 0 0-.41-1.767c-.01-.152.126-.2.21-.272q.651-.56 1.31-1.11a1.306 1.306 0 0 0 .127-.112c.05-.054.133-.098.116-.18-.019-.09-.116-.087-.186-.098a3.486 3.486 0 0 0-.614-.077 8.602 8.602 0 0 0-.857-.104 4.683 4.683 0 0 0-.664-.052 2.136 2.136 0 0 1-.339-.024 1.818 1.818 0 0 0-.572-.032 3.199 3.199 0 0 0-.342.001 7.513 7.513 0 0 0-.983.025.987.987 0 0 1-.242.025c-.094.001-.189.004-.283.003a.934.934 0 0 0-.366.034c-.345.032-.69.06-1.033.122-.41.087-.833.108-1.242.21-.376.097-.762.153-1.13.28-.49.136-.973.29-1.455.45a19.933 19.933 0 0 0-2.083.891 18.71 18.71 0 0 0-4.185 2.778 20.04 20.04 0 0 0-3.129 3.416 19.169 19.169 0 0 0-1.243 1.967 21.5 21.5 0 0 0-.675 1.35 11.559 11.559 0 0 0-.45 1.066c-.15.368-.273.746-.39 1.126-.143.38-.225.778-.336 1.167-.048.152-.078.31-.115.464-.047.188-.076.38-.11.568-.059.32-.112.64-.158.961a9.024 9.024 0 0 0-.118 1c-.055.22-.015.45-.055.672a5.39 5.39 0 0 0-.04.84 8.917 8.917 0 0 0-.006.59c.002.08-.037.193.048.232.097.045.167-.058.237-.115.24-.195.473-.398.707-.6.787-.677 1.584-1.344 2.375-2.018.068-.058.142-.21.264-.053z" style="fill:#fa741c;fill-opacity:.53937001;stroke-width:.1730486" transform="matrix(5.77872 0 0 5.77872 -.073 -1292.251)"/><path d="M23.205 247.74a10.503 10.503 0 0 0-2.989-1.12 14.856 14.856 0 0 0-4.186-.386 7.474 7.474 0 0 0-2.894.625 2.521 2.521 0 0 0-.317.182 1.173 1.173 0 0 0-.317 1.873c.11.148.234.287.383.468a6.497 6.497 0 0 1-1.33-.174 7.086 7.086 0 0 1-3.12-1.35 4.718 4.718 0 0 1-1.138-1.237 1.279 1.279 0 0 1 .51-.397c.362-.152.69-.369 1.05-.533a15.606 15.606 0 0 1 5.066-1.354 16.184 16.184 0 0 1 2.108-.106 23.412 23.412 0 0 1 6.116 1.063c.51.16 1.016.334 1.548.514a.636.636 0 0 0-.143-.337 7.26 7.26 0 0 0-.733-1.032c-.1-.117-.24-.22-.236-.4.28.063.56.125.84.192.074.017.164.062.212 0 .064-.08-.032-.152-.074-.213a8.677 8.677 0 0 0-1.479-1.63c.292-.17.593-.032.878.004a16.085 16.085 0 0 1 13.808 12.6 13.582 13.582 0 0 1 .254 3.895 11.89 11.89 0 0 1-2.214 6.21 2.344 2.344 0 0 0-.272.357 5.328 5.328 0 0 1-1.16 1.092 15.596 15.596 0 0 1-7.605 3.18 23.325 23.325 0 0 1-6.564.114 21.663 21.663 0 0 1-9.578-3.619 15.267 15.267 0 0 1-1.993-1.55.049.049 0 0 1-.005-.07l.008-.006c.131-.052.214.042.3.107a14.221 14.221 0 0 0 4.885 2.373 17.145 17.145 0 0 0 1.794.357 2.215 2.215 0 0 0 .422.05.604.604 0 0 1 .085.017 13.972 13.972 0 0 0 4.087-.17 15.827 15.827 0 0 0 7.876-3.77 11.234 11.234 0 0 0 3.402-4.96 7.636 7.636 0 0 0-.35-5.826 4.96 4.96 0 0 1-1.197 2.21 7.99 7.99 0 0 1-1.96 1.592c-.086.05-.18.144-.279.068-.085-.065-.034-.178-.008-.264a10.477 10.477 0 0 0 .372-1.82 6.424 6.424 0 0 0-2.805-6.146 9.118 9.118 0 0 0-1.057-.673z" style="fill:#fa741c;stroke-width:.1730486" transform="matrix(5.77872 0 0 5.77872 -.073 -1292.251)"/><path d="M14.632 267.486a11.312 11.312 0 0 1-2.244-.459 14.891 14.891 0 0 1-3.9-1.83 8.154 8.154 0 0 0-.845-.594c-.18-.026-.255-.202-.4-.279a21.382 21.382 0 0 1-6.302-9.886 21.07 21.07 0 0 1-.929-5.802l.027-.527c.147.328.262.588.38.847a20.086 20.086 0 0 0 4.417 6.4 13.526 13.526 0 0 0 7.23 3.68 12.88 12.88 0 0 0 9.19-1.81 7.914 7.914 0 0 0 3.232-3.582 4.963 4.963 0 0 0-.726-5.259c-.107-.142-.222-.278-.333-.417.146-.125.224.02.307.09a6.26 6.26 0 0 1 1.698 2.247 6.597 6.597 0 0 1 .59 2.646 5.991 5.991 0 0 1-.597 2.697.402.402 0 0 0 .243-.089 7.327 7.327 0 0 0 1.102-.777c.107-.093.2-.232.377-.21a12.417 12.417 0 0 1-.458 2.085 9.888 9.888 0 0 0 1.298-.862c.326-.255.59-.574.908-.832.137.058.137.193.168.306a6.773 6.773 0 0 1-.783 5.286 13.255 13.255 0 0 1-4.708 4.71 16.03 16.03 0 0 1-5.058 2.072 10.699 10.699 0 0 1-3.434.203c-.143-.077-.306.015-.45-.054z" style="fill:#ce741c;stroke-width:.1730486" transform="matrix(5.77872 0 0 5.77872 -.073 -1292.251)"/><path d="M43.06 253.552a15.938 15.938 0 0 0-1.562-6.193 16.46 16.46 0 0 0-2.287-3.514 19.066 19.066 0 0 0-2.749-2.585.35.35 0 0 1 .32-.06 17.796 17.796 0 0 1 4.044.96 6.064 6.064 0 0 1 .942.44 2.867 2.867 0 0 1 .312.184c.026.015.04.052.08.044a.096.096 0 0 1-.018-.104 18.552 18.552 0 0 0-3.095-3.045 22.742 22.742 0 0 0-4.374-2.774 21.633 21.633 0 0 0-6.885-2.064 2.81 2.81 0 0 1-.64-.072c-.018-.143.102-.19.184-.259a12.545 12.545 0 0 0 3.33-4.206 11.85 11.85 0 0 0 .612-1.544.66.66 0 0 1 .224-.41 21.684 21.684 0 0 1 6.652 4.96 21.963 21.963 0 0 1 5.01 20.297c-.063.035-.077-.02-.1-.056z" style="fill:#fa741c;fill-opacity:.54118;stroke-width:.1730486" transform="matrix(5.77872 0 0 5.77872 -.073 -1292.251)"/><path d="M34.536 265.452c-.002-.22.177-.345.285-.5a12.171 12.171 0 0 0 1.98-4.848 13.192 13.192 0 0 0 .145-3.276 14.404 14.404 0 0 0-1.216-4.843 16.012 16.012 0 0 0-1.86-3.2 16.65 16.65 0 0 0-2.72-2.83 15.601 15.601 0 0 0-5.306-2.862 14.872 14.872 0 0 0-3.177-.653 3.928 3.928 0 0 0-.585-.053 12.077 12.077 0 0 0-2.165-1.348l.005-.076c.282 0 .564.004.845 0a16.766 16.766 0 0 1 10.75 3.296 15.616 15.616 0 0 1 6.115 9.835 12.958 12.958 0 0 1-1.77 9.733 7.435 7.435 0 0 1-1.326 1.626zm-3.038-37.1a13.834 13.834 0 0 1-1.6 3.427 13.014 13.014 0 0 1-2.587 2.837c-.057.047-.109.101-.163.152a9.815 9.815 0 0 0-.947.653 20.12 20.12 0 0 1-3.713 1.92.68.68 0 0 1-.097.024c-.057-.085.01-.115.045-.149a5.831 5.831 0 0 0 1.501-2.53.374.374 0 0 1 .238-.275 13.216 13.216 0 0 0 5.624-4.353c.136-.176.27-.355.438-.576a5.962 5.962 0 0 0-1.212.287c-.074.004-.17.066-.188-.073a16.192 16.192 0 0 0 3.145-5.688c.042-.135 0-.319.187-.386a.033.033 0 0 1 .02.033q-.005.02-.01.02a17.306 17.306 0 0 1-.629 4.403c-.025.09-.035.182-.052.273z" style="fill:#ce741c;stroke-width:.1730486" transform="matrix(5.77872 0 0 5.77872 -.073 -1292.251)"/><path d="M22.583 244.038a8.974 8.974 0 0 1 1.207 1.684c.032.06.116.126.042.196-.057.053-.122-.012-.18-.034a26.215 26.215 0 0 0-4.705-1.282c-.809-.139-1.629-.2-2.45-.26a14.556 14.556 0 0 0-2.214.032 15.298 15.298 0 0 0-4.886 1.17 10.228 10.228 0 0 0-1.42.676c-.05.032-.112.085-.17.004a15.012 15.012 0 0 1 4.45-2.136 18.22 18.22 0 0 1 6.703-.635 24.704 24.704 0 0 1 3.44.522 1.68 1.68 0 0 1 .183.063zm19.224-1.363a14.968 14.968 0 0 0-4.176-1.272 7.71 7.71 0 0 0-1.169-.143c-.505-.32-1-.656-1.518-.955a15.758 15.758 0 0 0-5.427-1.936.78.78 0 0 1-.124-.048 13.933 13.933 0 0 1 3.89.562 18.277 18.277 0 0 1 3.643 1.431 7.508 7.508 0 0 0-.48-.903c-.013-.078-.122-.146-.05-.229.078-.088.156.006.225.037.195.09.382.196.578.284a26.126 26.126 0 0 1 4.617 3.044c.08.106.08.106-.009.128z" style="fill:#ce741c;stroke-width:.1730486" transform="matrix(5.77872 0 0 5.77872 -.073 -1292.251)"/><path d="M19.935 235.122a8.504 8.504 0 0 0 1.738-.972c.108-.004.096.058.07.127a4.415 4.415 0 0 1-4.024 3.482 6.282 6.282 0 0 1-1.18.044c.051-.145.19-.133.3-.163a6.474 6.474 0 0 0 1.291-.46 3.362 3.362 0 0 0 1.651-1.794.624.624 0 0 1 .154-.264z" style="fill:none;fill-opacity:0;stroke-width:.1730486;filter:url(#b)" transform="matrix(5.77872 0 0 5.77872 -.073 -1292.251)"/><path d="M19.935 235.122a3.272 3.272 0 0 1-1.683 2.072 7.83 7.83 0 0 1-1.712.61 1.114 1.114 0 0 1 .264-1.096 2.917 2.917 0 0 1 1.13-.804 20.888 20.888 0 0 1 2.001-.782zM9.617 242.63c.05.125-.1.188-.083.302a.457.457 0 0 0-.608-.407 1.775 1.775 0 0 0-.95.553c-.07.074-.147.142-.22.213-.064-.078 0-.14.023-.208a2.082 2.082 0 0 1 .897-1.114.953.953 0 0 1 .305-.14c.483-.115.748.121.681.61a.62.62 0 0 1-.045.19z" style="fill:#faa01c;stroke-width:.1730486" transform="matrix(5.77872 0 0 5.77872 -.073 -1292.251)"/><path d="m9.617 242.63.005-.225c.008-.492-.27-.679-.727-.47a2.219 2.219 0 0 0-1.09 1.188c-.053.01-.08-.006-.064-.065a2.507 2.507 0 0 1 1.02-1.484 1.108 1.108 0 0 1 .44-.17.47.47 0 0 1 .557.346 1.12 1.12 0 0 1-.14.88z" style="fill:none;fill-opacity:0;stroke-width:.1730486" transform="matrix(5.77872 0 0 5.77872 -.073 -1292.251)"/><path d="M13.96 238.388c-.095-.076-.012-.105.038-.14.16-.11.247-.308.446-.37a1.95 1.95 0 0 0 1.09.735c.086.03.175.05.315.09a2.01 2.01 0 0 1-1.74-.25.223.223 0 0 0-.15-.065z" style="fill:#faa01c;stroke-width:.1730486" transform="matrix(5.77872 0 0 5.77872 -.073 -1292.251)"/><path d="M37.2 239.503a2.455 2.455 0 0 1-.553-.235c-.072-.027-.142-.124-.219-.06-.064.052.04.13.018.203a.96.96 0 0 1-.215-.392 4.924 4.924 0 0 1 .968.484z" style="fill:#161f42;stroke-width:.1730486" transform="matrix(5.77872 0 0 5.77872 -.073 -1292.251)"/><path d="M41.807 242.675c.062-.039.004-.086.01-.128l.325.177.176.226a1.64 1.64 0 0 1-.51-.275z" style="fill:#263154;stroke-width:.1730486" transform="matrix(5.77872 0 0 5.77872 -.073 -1292.251)"/><path d="M7.244 264.324c.175.032.255.201.4.28l-.008.066a1.067 1.067 0 0 1-.392-.346z" style="fill:#424a7f;stroke-width:.1730486" transform="matrix(5.77872 0 0 5.77872 -.073 -1292.251)"/><path d="m43.06 253.552.1.055a.611.611 0 0 1-.1.346z" style="fill:#4189c9;stroke-width:.1730486" transform="matrix(5.77872 0 0 5.77872 -.073 -1292.251)"/><path d="M28.837 229.696c.038.086.124.05.188.073l-.302.116c-.023-.119.058-.146.114-.19z" style="fill:#5a5d76;stroke-width:.1730486" transform="matrix(5.77872 0 0 5.77872 -.073 -1292.251)"/><path d="m7.741 243.058.064.065-.05.167-.122.156a.983.983 0 0 1 .108-.388z" style="fill:#4f668a;stroke-width:.1730486" transform="matrix(5.77872 0 0 5.77872 -.073 -1292.251)"/><path d="M21.743 234.277c-.016-.046-.01-.105-.07-.127.017-.043.066-.104.09-.082.066.065.04.143-.02.21z" style="fill:#555a73;stroke-width:.1730486" transform="matrix(5.77872 0 0 5.77872 -.073 -1292.251)"/><path d="M27.15 254.571a7.672 7.672 0 0 1-1.884 1.264 6.698 6.698 0 0 0 .5-1.37 6.428 6.428 0 0 0-1.12-5.358 9.587 9.587 0 0 0-1.004-1.059c-.054-.056-.114-.127-.213-.08-.1-.05-.15-.15-.223-.229.05-.062.1-.027.148 0a7.446 7.446 0 0 1 3.193 3.21 6.417 6.417 0 0 1 .615 2.256 6.505 6.505 0 0 1-.013 1.366z" style="fill:#fa4a1c;stroke-width:.1730486" transform="matrix(5.77872 0 0 5.77872 -.073 -1292.251)"/><g style="fill:url(#c);stroke-width:.1730486" transform="matrix(5.77872 0 0 5.77872 -.099 0)"><path d="M23.94 4.726a.344.344 0 0 1-.132.236q-1.548 1.31-3.092 2.627-1.182 1.007-2.358 2.021c-.07.062-.203.106-.168.248a14.196 14.196 0 0 1-1.523.62c-.175-.048-.03-.11.002-.14q.461-.407.931-.805.863-.734 1.73-1.464c.569-.481 1.14-.96 1.708-1.443.569-.484 1.137-.968 1.697-1.46a2.155 2.155 0 0 0 .529-.496 3.556 3.556 0 0 1 .677.056z" style="fill:url(#d);stroke-width:.1730486"/><path d="M22.024 4.614h.338c.182.078.382-.021.564.055l.338.001c.028.164-.106.232-.2.311-1.562 1.32-3.113 2.653-4.676 3.972-.517.435-1.029.876-1.545 1.312a.46.46 0 0 0-.176.213 4.377 4.377 0 0 0-1.801 1.123 4.78 4.78 0 0 0-.56.862 13.697 13.697 0 0 0-1.276 1.05c-1.11.934-2.207 1.884-3.32 2.814-.094.079-.156.189-.265.25a1.223 1.223 0 0 1-.105-.912 2.424 2.424 0 0 1 .56-.548q1.62-1.373 3.236-2.75 1.578-1.337 3.15-2.679 1.813-1.538 3.622-3.08c.671-.571 1.338-1.147 2.02-1.707.103-.085.175-.153.096-.287z" style="fill:url(#e);stroke-width:.1730486"/><path d="M22.024 4.614c.035.082.144.022.196.115-.314.272-.629.549-.948.82q-.865.735-1.734 1.465l-2.463 2.08c-.57.484-1.132.978-1.701 1.463-.69.587-1.388 1.166-2.08 1.752-.548.465-1.092.938-1.64 1.404q-.865.735-1.734 1.465-.29.245-.58.487l.165-.734c-.093-.24.102-.348.235-.459.527-.438 1.044-.887 1.566-1.33q1.825-1.549 3.647-3.1 1.565-1.331 3.132-2.661c.97-.828 1.95-1.648 2.91-2.487.075-.064.215-.14.012-.225a3.773 3.773 0 0 1 1.017-.055z" style="fill:url(#f);stroke-width:.1730486"/><path d="M21.007 4.669c.079.014.165-.028.248.036a3.944 3.944 0 0 1-.75.71c-.738.644-1.487 1.275-2.235 1.908-.684.578-1.375 1.148-2.058 1.727-.69.586-1.37 1.184-2.06 1.77-.683.58-1.375 1.148-2.058 1.728-.69.586-1.374 1.179-2.059 1.77-.206.179-.478.301-.53.613-.364.042-.556.349-.822.539-.42.3-.74.712-1.129 1.049-.39.277-.734.609-1.098.917-1.081.916-2.157 1.839-3.243 2.75a4.132 4.132 0 0 1-.452.381c-.076.047-.144.135-.25.061a1.261 1.261 0 0 1 .114-.564 14.774 14.774 0 0 0 1.478-1.211c1.344-1.127 2.677-2.268 4.013-3.405q1.993-1.697 3.984-3.395l3.906-3.314c1.329-1.13 2.664-2.253 3.983-3.395.263-.227.539-.438.794-.674Zm2.933.057a6.471 6.471 0 0 1 .903.113c.081.18-.073.25-.168.333-.376.329-.769.637-1.135.977-.04-.052-.082-.102-.118-.156-.083-.125-.142-.092-.196.024A5.764 5.764 0 0 1 21.19 8.22a15.197 15.197 0 0 1-2.999 1.638c-.056-.108-.061-.113.036-.213.202-.21.434-.386.656-.575 1.6-1.36 3.206-2.716 4.797-4.088.093-.08.172-.173.262-.256z" style="fill:url(#g);stroke-width:.1730486"/><path d="M2.511 20.628a3.02 3.02 0 0 0 .813-.623c.849-.696 1.683-1.411 2.52-2.122.439-.374.873-.756 1.309-1.134a.678.678 0 0 1 .401-.23 9.885 9.885 0 0 0-1.203 1.798q-1.297 1.099-2.59 2.201c-.398.341-.805.672-1.197 1.02-.06.054-.128.121-.22.049a4.054 4.054 0 0 1 .167-.959zm3.309 1.52c-.266.02-.386.258-.562.4a87.103 87.103 0 0 0-2.184 1.842c-.24.207-.474.423-.728.614-.168.126-.231.077-.229-.12.003-.234 0-.469 0-.703a9.497 9.497 0 0 1 .864-.752c.84-.713 1.672-1.436 2.523-2.137.073-.06.134-.17.26-.099zm3.625-5.572a.312.312 0 0 1 .144-.231c.676-.572 1.356-1.14 2.032-1.712q.833-.705 1.659-1.418c.29-.25.578-.5.866-.752.055-.049.106-.084.16 0a2.954 2.954 0 0 0-.13.778 10.753 10.753 0 0 1-1.008.887c-1.052.9-2.102 1.8-3.16 2.69a.864.864 0 0 0-.112.125.595.595 0 0 1-.451-.367Z" style="fill:url(#h);stroke-width:.1730486"/><path d="M2.343 21.587c.243-.075.385-.287.568-.438.99-.819 1.965-1.656 2.946-2.487.153-.13.262-.326.494-.345a11.424 11.424 0 0 0-.453 1.357c-.176-.018-.266.124-.374.216-1.02.878-2.051 1.745-3.077 2.617-.061.052-.116.129-.217.095a3.348 3.348 0 0 1 .113-1.015zm7.553-4.644c-.07-.126.05-.167.11-.22q1.294-1.106 2.594-2.206.734-.622 1.473-1.24a.317.317 0 0 1 .104-.036 2.269 2.269 0 0 0 .103.678 9.02 9.02 0 0 1-1.006.891q-1.139.982-2.29 1.95a.26.26 0 0 0-.115.153 1.288 1.288 0 0 1-.973.03zm-4.132 4.25a6.396 6.396 0 0 0-.848.675c-.733.604-1.456 1.221-2.176 1.842a2.63 2.63 0 0 1-.622.47 3.08 3.08 0 0 1 .056-.902q1.667-1.424 3.342-2.838c.077-.065.155-.144.274-.093Z" style="fill:url(#i);stroke-width:.1730486"/><path d="M5.79 20.347a6.122 6.122 0 0 0-.941.743c-.728.597-1.44 1.215-2.16 1.821-.162.136-.274.342-.515.367.028-.224-.06-.459.056-.676l2.11-1.799c.477-.405.958-.805 1.434-1.21.152-.13.11.012.124.081zm5.079-3.434c-.104-.074-.032-.131.023-.177.663-.557 1.33-1.109 1.992-1.666.414-.348.822-.702 1.231-1.055.05-.043.093-.094.165-.097l.17.338c-.13.2-.34.326-.485.51a7.456 7.456 0 0 1-2.88 2.1 1.505 1.505 0 0 1-.216.047zM23.54 6.15c.102-.32.434-.412.63-.637.21-.24.551-.347.673-.674a3.792 3.792 0 0 1 .718.109c.206.038.215.128.072.255q-.46.41-.927.814c-.29.25-.586.493-.878.74zM2.737 19.612a4.624 4.624 0 0 1 .338-1.185c.664-.462 1.247-1.023 1.864-1.542q1.605-1.35 3.197-2.717 1.456-1.244 2.917-2.481 1.58-1.339 3.154-2.681c.958-.815 1.919-1.627 2.873-2.446.67-.575 1.353-1.133 2.011-1.72a4.002 4.002 0 0 1 1.07-.114.107.107 0 0 1 .116-.014c.08.136-.022.213-.104.283q-1.364 1.154-2.721 2.316-1.446 1.232-2.893 2.462-1.338 1.14-2.68 2.277-1.632 1.382-3.26 2.768c-1.351 1.147-2.697 2.3-4.052 3.444-.523.441-1.038.892-1.57 1.325-.065.053-.155.223-.26.025z" style="fill:url(#j);stroke-width:.1730486"/><path d="M19.091 4.84c-.095.316-.4.435-.618.628-.712.633-1.448 1.24-2.177 1.855-.814.687-1.632 1.368-2.444 2.059-.705.6-1.4 1.211-2.104 1.812-.683.581-1.375 1.153-2.059 1.733-.684.581-1.362 1.17-2.045 1.751-.684.581-1.373 1.156-2.057 1.736-.563.478-1.122.961-1.684 1.44-.227.195-.46.384-.688.576-.05.041-.095.061-.14-.003A4.537 4.537 0 0 1 3.47 17.3a13.134 13.134 0 0 0 1.418-1.151q1.604-1.352 3.196-2.717 1.648-1.41 3.302-2.811 1.362-1.159 2.726-2.315c1.183-1 2.355-2.012 3.543-3.006a.518.518 0 0 0 .195-.235 6.897 6.897 0 0 1 1.241-.225Z" style="fill:url(#k);stroke-width:.1730486"/><path d="M17.85 5.064c.175.046.032.11-.002.139-.32.287-.642.572-.97.85-.568.484-1.142.962-1.713 1.443q-1.252 1.057-2.503 2.116c-.683.58-1.36 1.17-2.042 1.751-.703.6-1.413 1.192-2.117 1.79-.683.582-1.36 1.17-2.043 1.75-.683.58-1.37 1.157-2.055 1.734-.25.211-.499.423-.752.63-.05.04-.103.132-.183.032a4.46 4.46 0 0 1 .45-1.07c.927-.793 1.859-1.58 2.787-2.373q1.434-1.225 2.873-2.445 1.372-1.168 2.746-2.333l2.896-2.461c.5-.424.985-.868 1.5-1.274a4.362 4.362 0 0 1 1.127-.28z" style="fill:url(#l);stroke-width:.1730486"/><path d="M16.722 5.343a8.86 8.86 0 0 1-1.278 1.175c-.569.499-1.152.981-1.73 1.47-.563.477-1.129.951-1.691 1.429-.563.478-1.122.96-1.685 1.439-.57.484-1.143.962-1.713 1.446-.556.472-1.107.95-1.662 1.422q-1.057.899-2.118 1.793l-.75.631a.256.256 0 0 1-.175.081 7.471 7.471 0 0 1 .678-1.353c1.287-1.047 2.539-2.136 3.801-3.21 1.463-1.246 2.933-2.484 4.387-3.74.823-.71 1.677-1.384 2.47-2.129a8.523 8.523 0 0 1 1.466-.454z" style="fill:url(#m);stroke-width:.1730486"/><path d="M15.256 5.797c.057.1-.045.13-.089.17q-.938.821-1.884 1.634c-.552.474-1.11.942-1.666 1.413l-2.073 1.755c-.562.478-1.121.96-1.684 1.437q-1.056.897-2.116 1.79-.438.372-.872.748a.484.484 0 0 1-.274.132 11.9 11.9 0 0 1 1.242-1.973c.436-.322.835-.69 1.247-1.039q1.609-1.362 3.212-2.73l2.48-2.116a1.862 1.862 0 0 0 .385-.323 11.364 11.364 0 0 1 2.092-.898ZM2.737 19.612c.225.082.304-.143.416-.236 1.144-.946 2.272-1.912 3.401-2.877 1.066-.91 2.124-1.828 3.192-2.735 1.188-1.01 2.386-2.007 3.575-3.017 1.067-.907 2.126-1.825 3.191-2.736q1.725-1.475 3.454-2.945c.118-.1.288-.152.309-.34.064-.061.16.006.225-.055l.283-.001c-.087.3-.377.405-.58.587-.583.525-1.191 1.022-1.79 1.529-.686.579-1.373 1.155-2.057 1.735-.556.471-1.107.949-1.663 1.42-.82.696-1.643 1.386-2.462 2.082-.556.471-1.107.95-1.662 1.422-.705.6-1.414 1.194-2.119 1.793-.555.472-1.106.95-1.661 1.423-.57.484-1.144.963-1.713 1.447-.57.485-1.134.975-1.703 1.46-.199.17-.405.332-.607.497-.049.04-.095.064-.141-.001a.877.877 0 0 1 .112-.452z" style="fill:url(#n);stroke-width:.1730486"/><path d="M13.164 6.695c-.047.267-.307.337-.473.486-.575.518-1.174 1.01-1.766 1.51-.691.584-1.385 1.165-2.075 1.75-.555.472-1.107.947-1.66 1.421l-1.21 1.04c-.048.04-.093.066-.14.001a10.64 10.64 0 0 1 .988-1.287 19.837 19.837 0 0 1 4.566-3.954 10.772 10.772 0 0 1 1.77-.967z" style="fill:url(#o);stroke-width:.1730486"/><path d="M22.926 4.67c-.187-.025-.385.057-.564-.056.187.024.385-.059.564.055Zm-2.426.001c-.06.08-.148.047-.225.055h-.113c.1-.099.225-.04.338-.055z" style="fill:url(#p);stroke-width:.1730486"/></g><path d="M15.082 267.54a13.7 13.7 0 0 0 5.4-.85 16.079 16.079 0 0 0 4.632-2.608 11.935 11.935 0 0 0 3.312-3.955 7.617 7.617 0 0 0 .77-2.71 6.596 6.596 0 0 0-.298-2.454c.025-.196.204-.286.31-.424a4.155 4.155 0 0 0 .825-1.764 2.103 2.103 0 0 1 .092-.257 8.363 8.363 0 0 1 .603 1.59 7.351 7.351 0 0 1 .25 2.361 9.262 9.262 0 0 1-1.207 3.934 12.85 12.85 0 0 1-2.602 3.186 15.015 15.015 0 0 1-2.96 2.07 16.49 16.49 0 0 1-4.08 1.558 15.662 15.662 0 0 1-2.71.39 10.988 10.988 0 0 1-1.318.035 4.27 4.27 0 0 1-1.019-.102z" style="fill:#fa6e1c;stroke-width:.1730486" transform="matrix(5.77872 0 0 5.77872 -.073 -1292.251)"/><path d="M14.632 267.486c.15.02.311-.058.45.054-.15-.024-.31.053-.45-.054z" style="fill:#0e1f66;stroke-width:.1730486" transform="matrix(5.77872 0 0 5.77872 -.073 -1292.251)"/><g style="fill:#fa741c;stroke-width:.1730486"><path style="stroke-width:.1730486" d="M75.888 12.97h8.4v1h-.265a2.545 2.545 0 0 0-1.842.738 4.883 4.883 0 0 0-.428 2.535v9.078a7.91 7.91 0 0 0 1.408 5.054A5.271 5.271 0 0 0 91 31.39a7.84 7.84 0 0 0 1.423-5.07v-9.077a5.035 5.035 0 0 0-.413-2.535 2.529 2.529 0 0 0-1.857-.737h-.265v-1.002h8.43v1.002l-.59.088a1.938 1.938 0 0 0-1.518.811 4.988 4.988 0 0 0-.398 2.373v9.343a7.682 7.682 0 0 1-2.358 5.835 8.86 8.86 0 0 1-6.366 2.24 8.867 8.867 0 0 1-6.366-2.237 7.665 7.665 0 0 1-2.358-5.827v-9.33a5.038 5.038 0 0 0-.383-2.37 2.037 2.037 0 0 0-1.533-.808l-.56-.118zm23.372.912v-.942h8.016v1.001l-.5.06a1.722 1.722 0 0 0-1.282.695 4.19 4.19 0 0 0-.34 2.024v13.866a3.281 3.281 0 0 0 .407 1.966 2.629 2.629 0 0 0 1.715.636h.237v1.002H99.26v-1.002h.268a2.665 2.665 0 0 0 1.82-.68 4.105 4.105 0 0 0 .417-2.277V16.484a2.709 2.709 0 0 0-.486-1.833 3.22 3.22 0 0 0-1.813-.769zm28.323-1.679h.944v5.835h-.886l-.058-.386q-.709-2.91-3.13-3.221-2.423-.313-3.102-.313a7.68 7.68 0 0 0-5.892 2.428 9.358 9.358 0 0 0-2.259 6.636 10.877 10.877 0 0 0 2.148 7.15 7.038 7.038 0 0 0 5.705 2.59 8.044 8.044 0 0 0 4.486-1.111 4.418 4.418 0 0 0 2.044-2.897h.944v5.57h-.916l-.028-.235q-.295-.826-.887-.825a.933.933 0 0 0-.266.028l-.503.115-.296.086-1.153.315q-.65.145-1.404.273-.755.128-1.183.172c-.285.028-.542.047-.768.058-.226.008-.488.013-.784.013q-5.737 0-8.101-3.164a13.43 13.43 0 0 1-2.691-5.018 18.12 18.12 0 0 1-.325-2.972 10.1 10.1 0 0 1 3.232-7.727 11.86 11.86 0 0 1 8.428-3.017 18.613 18.613 0 0 1 2.51.177l1.889.353a5.048 5.048 0 0 0 1.18.177 1.005 1.005 0 0 0 1.122-.918zm2.328 21.987v-.943l.295-.089a2.815 2.815 0 0 0 1.886-.885 5.791 5.791 0 0 0 .413-2.745V17.07a5.329 5.329 0 0 0-.324-2.287 1.935 1.935 0 0 0-1.414-.783l-.561-.088h-.088v-.943h8.253v.914l-.207.029-.5.059a1.89 1.89 0 0 0-1.4.797 5.038 5.038 0 0 0-.37 2.332v12.78a5.45 5.45 0 0 0 .34 2.48 3.086 3.086 0 0 0 1.9.797h.237v1.032zm6.24-11.457 6.197-6.404a5.639 5.639 0 0 0 .84-1.017 1.544 1.544 0 0 0 .281-.663q0-.383-.555-.59a2.13 2.13 0 0 0-1.007-.147v-.943h6.985v.888l-.382.055a5.353 5.353 0 0 0-1.749.582 7.34 7.34 0 0 0-1.542 1.285l-5.736 5.758 7.792 8.642.763.798a12.615 12.615 0 0 0 1.812 1.539 4.3 4.3 0 0 0 1.459.642v1.032h-8.9v-.943l.389-.089q1.35-.262 1.349-.99a1.528 1.528 0 0 0-.252-.64 8.14 8.14 0 0 0-.961-1.224z" transform="matrix(5.77872 0 0 5.77872 -.099 0)"/><path style="stroke-width:.1730486" d="M151.19 34.543v-5.04h1.006a10.052 10.052 0 0 0 1.212 1.827 3.415 3.415 0 0 0 2.054 1.343 10.516 10.516 0 0 0 1.819.22 4.824 4.824 0 0 0 2.334-.516 3.248 3.248 0 0 0 1.389-1.385 3.771 3.771 0 0 0 .444-1.724q0-1.886-2.277-3.124l-2.068-1.12-.415-.236a11.915 11.915 0 0 1-3.843-2.741 4.993 4.993 0 0 1-1.183-3.302v-.766q.09-.353.31-1.562a4.57 4.57 0 0 1 1.99-2.535 7.572 7.572 0 0 1 4.656-1.325 10.948 10.948 0 0 1 1.356.088 3.165 3.165 0 0 1 .707.088q.383.089.59.118l.59.118.147.03h.324a1.188 1.188 0 0 0 1.032-.796h.825v4.775h-1.003a3.575 3.575 0 0 0-1.134-1.725 5.249 5.249 0 0 0-1.415-.87 4.365 4.365 0 0 0-1.517-.236 4.625 4.625 0 0 0-2.919.87 3.247 3.247 0 0 0-1.267 2.344 3.554 3.554 0 0 0 .663 2.24 8.25 8.25 0 0 0 2.697 1.886l1.002.471a18.365 18.365 0 0 1 2.314 1.208 13.417 13.417 0 0 1 2.078 1.71 4.669 4.669 0 0 1 1.149 3.477 5.767 5.767 0 0 1-.913 3.11 5.314 5.314 0 0 1-2.181 2.064 10.91 10.91 0 0 1-2.167.81 9.251 9.251 0 0 1-2.048.206 14.615 14.615 0 0 1-3.36-.471l-.678-.206-.177-.03a1.265 1.265 0 0 0-.442-.059.889.889 0 0 0-.795.583l-.089.183zm14.177-21.573H173v1l-.441.06q-1.15.116-1.15.903a7.096 7.096 0 0 0 .305 1.486l.212.7 4.053 11.54 3.836-10.736-.477-1.318a5.353 5.353 0 0 0-1.027-1.945 2.471 2.471 0 0 0-1.476-.63h-.356v-1.06h7.78v1.06h-.53q-1.15 0-1.15.837a5.855 5.855 0 0 0 .323 1.531l.147.491 4.145 11.901 3.872-11.46q.296-.89.429-1.441a4.184 4.184 0 0 0 .132-.966.854.854 0 0 0-.353-.803 2.538 2.538 0 0 0-1.21-.208h-.294v-.943h6.043V14l-.206.03a2.161 2.161 0 0 0-1.46.658 10.992 10.992 0 0 0-1.252 2.497l-.162.466-5.969 17.247h-.942l-5.159-14.59-5.127 14.59h-.915l-6.277-17.743-.236-.62a5.968 5.968 0 0 0-1.032-1.855 2.604 2.604 0 0 0-1.385-.65h-.265zm29.208 21.22v-.943h.236a2.98 2.98 0 0 0 1.532-.677 8.044 8.044 0 0 0 1.209-1.967l.237-.481 7.573-17.36.737-.117 7.885 17.984.25.496a3.57 3.57 0 0 0 2.328 2.03l.294.092h.118v.943h-7.928v-.943h.177q1.474-.212 1.474-1.119a4.504 4.504 0 0 0-.264-1.299l-.176-.472-1.562-3.477h-7.627l-1.549 3.77a3.998 3.998 0 0 0-.405 1.522q0 .806 1.385 1.075h.206v.943zm7.194-8.843h6.219l-3.236-7.205zm15.471 8.843v-1.002l.354-.03a2.148 2.148 0 0 0 1.414-.81 3.858 3.858 0 0 0 .412-2.079V16.89a4.843 4.843 0 0 0-.298-2.107 1.915 1.915 0 0 0-1.284-.752l-.599-.118v-.972h7.029q1.24 0 2.347.014a9.307 9.307 0 0 1 2.555.457 5.097 5.097 0 0 1 2.509 1.769 4.928 4.928 0 0 1 1.064 3.182c0 .354-.01.63-.03.826q-.03.294-.34 1.62a4.413 4.413 0 0 1-2.172 2.506 9.256 9.256 0 0 1-4.997 1.179q-.827 0-1.714-.088l-.68-.089v6.973a1.716 1.716 0 0 0 .423 1.275 2.87 2.87 0 0 0 1.543.594h.333v1.031zm5.57-11.408.71.09h1.007a4.858 4.858 0 0 0 3.362-1.075 3.741 3.741 0 0 0 1.198-2.934 10.409 10.409 0 0 0-.206-1.605 3.21 3.21 0 0 0-1.496-2.02 6.483 6.483 0 0 0-3.687-.884h-.888ZM57.527 33.07a9.622 9.622 0 0 0 3.684 1.237l.884.796a23.035 23.035 0 0 0 3.95 2.83 6.76 6.76 0 0 0 3.065.707 7.925 7.925 0 0 0 2.299-.339 8.655 8.655 0 0 0 2.24-1.076l.412-.265.206-.148-.412-.795-.472.265a5.197 5.197 0 0 1-2.151.413 6.132 6.132 0 0 1-3.272-1.208l-1.385-.944-.177-.118-.236-.118-.324-.147a11.442 11.442 0 0 0 3.92-1.621 10.065 10.065 0 0 0 3.08-3.065 8.715 8.715 0 0 0 1.4-3.183q.206-1.327.236-1.857.029-.53.029-1.032a10.093 10.093 0 0 0-3.183-7.722 11.639 11.639 0 0 0-8.282-2.976 11.014 11.014 0 0 0-4.627.943 10.535 10.535 0 0 0-3.566 2.652 11.527 11.527 0 0 0-2.196 3.567 10.79 10.79 0 0 0-.693 3.801 9.206 9.206 0 0 0 1.916 6.116 14.395 14.395 0 0 0 3.655 3.287zm.147-16.535a6.197 6.197 0 0 1 5.334-2.446 6.491 6.491 0 0 1 5.483 2.786q2.062 2.784 2.063 7.972a8.652 8.652 0 0 1-1.901 5.998 6.442 6.442 0 0 1-5.025 2.106 21.602 21.602 0 0 1-2.344-.22q-1.694-.222-3.551-2.624a10.156 10.156 0 0 1-1.857-6.38q0-4.745 1.798-7.192z" transform="matrix(5.77872 0 0 5.77872 -.099 0)"/></g></g></svg>