<svg xmlns="http://www.w3.org/2000/svg" version="1.1" id="Layer_1" x="0" y="0" xml:space="preserve"  viewBox="0 0 998.887 218.6" width="300px" ><style type="text/css" id="style2">.st0{fill:#fee761}.st2{fill:#be4a2f}.st3{fill:#fed451}</style><path class="st0" id="rect4" fill="#fb893a" fill-opacity="1" d="M48.6 170h12.1v12.1H48.6z"/><path class="st0" id="rect6" fill="#fb893a" fill-opacity="1" d="M60.7 97.2h12.1V170H60.7z"/><path class="st0" id="rect8" fill="#fb893a" fill-opacity="1" d="M60.7 12.2h12.1v60.7H60.7z"/><path class="st0" id="rect10" fill="#fb893a" fill-opacity="1" d="M72.8 0h12.1v12.1H72.8z"/><path id="polygon12" transform="translate(-23.7 -39)" fill="#fa741c" fill-opacity="1" d="M120.8 221.2v-85h36.5v-24.3h-36.5V63.3h48.6v12.2h24.3V51.2h-12.2V39h-72.8v12.2H96.5v60.7H60.1v24.3h36.4V209H84.4v12.2H72.3v36.4h121.4v-12.2h12.1v-48.5h-36.4v24.3z"/><path class="st2" id="rect14" fill="#be4a2f" d="M121.4 157.9h24.3v24.3h-24.3z"/><path class="st2" id="polygon16" transform="translate(-23.7 -39)" fill="#a94403" fill-opacity="1" d="M48 209v12.2H35.8v36.4h24.3v-36.4h12.2V209h12.1v-72.8H60.1V209z"/><path class="st2" id="rect18" fill="#a94403" fill-opacity="1" d="M0 72.9h24.3v24.3H0z"/><path class="st2" id="rect20" fill="#be4a2f" d="M121.4 24.3h24.3v12.1h-24.3z"/><path class="st2" id="polygon22" transform="translate(-23.7 -39)" fill="#a94403" fill-opacity="1" d="M60.1 51.2v60.7h24.3V51.2h12.1V39H72.3v12.2z"/><path class="st3" id="rect24" fill="#fb893a" fill-opacity="1" d="M36.4 182.2h12.1v36.4H36.4z"/><path class="st3" id="rect26" fill="#fb893a" fill-opacity="1" d="M24.3 72.9h12.2v24.3H24.3z"/><text id="text28" x="234.249" y="182.167" font-size="126.574" font-family="PressStart2P-Regular" fill="#fa741c" fill-opacity="1">BITCOURIER</text></svg>
