<?xml version="1.0" encoding="UTF-8" standalone="no"?>
<svg
   id="svg96"
   xml:space="preserve"
   style="enable-background:new 0 0 573.11 78.77"
   viewBox="0 0 573.11 78.77"
   y="0"
   x="0"
   version="1.1"
   sodipodi:docname="61a8db6ae7c4b5196933eff3_CML-Slogan_in_orange.svg"
   inkscape:version="1.1.2 (b8e25be833, 2022-02-05)"
   xmlns:inkscape="http://www.inkscape.org/namespaces/inkscape"
   xmlns:sodipodi="http://sodipodi.sourceforge.net/DTD/sodipodi-0.dtd"
   xmlns="http://www.w3.org/2000/svg"
   xmlns:svg="http://www.w3.org/2000/svg"><defs
   id="defs52" /><sodipodi:namedview
   id="namedview50"
   pagecolor="#505050"
   bordercolor="#ffffff"
   borderopacity="1"
   inkscape:pageshadow="0"
   inkscape:pageopacity="0"
   inkscape:pagecheckerboard="1"
   showgrid="false"
   inkscape:zoom="0.79950656"
   inkscape:cx="54.408559"
   inkscape:cy="49.405473"
   inkscape:window-width="1920"
   inkscape:window-height="1001"
   inkscape:window-x="-9"
   inkscape:window-y="-9"
   inkscape:window-maximized="1"
   inkscape:current-layer="svg96" />
  <style
   id="style2"
   type="text/css">
    .st0{stroke:#fff;stroke-miterlimit:10}.st0,.st1{fill:#fff}
  </style>
  <g
   style="fill:#fa741c;fill-opacity:1"
   id="Layer_3_xA0_Image_1_">
    <g
   style="fill:#fa741c;fill-opacity:1"
   id="g58">
      <path
   style="fill:#fa741c;stroke:#fff;stroke-miterlimit:10;fill-opacity:1"
   id="line4"
   class="st0"
   d="M523.65 71.4h49.46" />
      <path
   style="fill:#fa741c;stroke:#fff;stroke-miterlimit:10;fill-opacity:1"
   id="line6"
   class="st0"
   d="M0 71.4h49.47" />
      <g
   style="fill:#fa741c;fill-opacity:1"
   id="g56">
        <path
   style="fill:#fa741c;fill-opacity:1"
   id="path8"
   d="M85.52 62.4h3.08l-6.74 16.21h-2.5L72.62 62.4h3.15l4.88 12.37z"
   class="st1" />
        <path
   style="fill:#fa741c;fill-opacity:1"
   id="path10"
   d="M106.25 73.65c-.42 1.01-1 1.9-1.76 2.66a8.55 8.55 0 0 1-2.69 1.81c-1.03.44-2.18.67-3.43.67s-2.39-.22-3.43-.66c-1.03-.44-1.92-1.03-2.66-1.78a8.326 8.326 0 0 1-2.37-5.86c0-1.13.21-2.21.63-3.22.42-1.01 1-1.9 1.76-2.66a8.62 8.62 0 0 1 2.68-1.81c1.03-.44 2.18-.67 3.43-.67s2.39.22 3.43.66c1.03.44 1.92 1.03 2.66 1.78.74.75 1.32 1.63 1.74 2.65.42 1.01.63 2.08.63 3.22 0 1.14-.2 2.19-.62 3.21zm-2.76-5.4c-.27-.7-.65-1.31-1.13-1.83-.49-.52-1.07-.93-1.75-1.24-.68-.31-1.42-.46-2.22-.46-.8 0-1.54.15-2.21.45-.67.3-1.25.71-1.72 1.22-.48.51-.85 1.12-1.12 1.82-.27.7-.4 1.44-.4 2.22 0 .78.13 1.52.4 2.22.27.7.65 1.31 1.13 1.83.49.52 1.07.94 1.75 1.24.68.3 1.42.46 2.22.46.8 0 1.54-.15 2.21-.45.67-.3 1.25-.71 1.72-1.22.48-.51.85-1.12 1.12-1.82.27-.7.4-1.44.4-2.22 0-.78-.13-1.52-.4-2.22z"
   class="st1" />
        <path
   style="fill:#fa741c;fill-opacity:1"
   id="path12"
   d="M116.58 78.5h-2.87V65.02h-5.14V62.4h13.15v2.62h-5.14z"
   class="st1" />
        <path
   style="fill:#fa741c;fill-opacity:1"
   id="path14"
   d="M136.99 64.95h-9.17v4.14h8.12v2.55h-8.12v4.3h9.28v2.55H125V62.4h11.99z"
   class="st1" />
        <path
   style="fill:#fa741c;fill-opacity:1"
   id="path16"
   d="M160.04 64.95h-9.21v4.44H159v2.55h-8.17v6.55h-2.82V62.4h12.04v2.55z"
   class="st1" />
        <path
   style="fill:#fa741c;fill-opacity:1"
   id="path18"
   d="M178.93 73.65c-.42 1.01-1 1.9-1.76 2.66a8.55 8.55 0 0 1-2.69 1.81c-1.03.44-2.18.67-3.43.67s-2.39-.22-3.43-.66c-1.03-.44-1.92-1.03-2.66-1.78a8.326 8.326 0 0 1-2.37-5.86c0-1.13.21-2.21.63-3.22.42-1.01 1-1.9 1.76-2.66a8.62 8.62 0 0 1 2.68-1.81c1.03-.44 2.18-.67 3.43-.67s2.39.22 3.43.66c1.03.44 1.92 1.03 2.66 1.78.74.75 1.32 1.63 1.74 2.65.42 1.01.63 2.08.63 3.22 0 1.14-.21 2.19-.62 3.21zm-2.77-5.4c-.27-.7-.65-1.31-1.13-1.83-.49-.52-1.07-.93-1.75-1.24-.68-.31-1.42-.46-2.22-.46-.8 0-1.54.15-2.21.45-.67.3-1.25.71-1.72 1.22-.48.51-.85 1.12-1.12 1.82-.27.7-.4 1.44-.4 2.22 0 .78.13 1.52.4 2.22.27.7.65 1.31 1.13 1.83.49.52 1.07.94 1.75 1.24.68.3 1.42.46 2.22.46.8 0 1.54-.15 2.21-.45.67-.3 1.25-.71 1.72-1.22.48-.51.85-1.12 1.12-1.82.27-.7.4-1.44.4-2.22.01-.78-.13-1.52-.4-2.22z"
   class="st1" />
        <path
   style="fill:#fa741c;fill-opacity:1"
   id="path20"
   d="m193.67 78.5-3.99-5.61h-3.58v5.61h-2.82V62.4h7.22c.93 0 1.76.12 2.51.36.75.24 1.38.57 1.9 1.01.52.44.91.97 1.19 1.61.28.64.42 1.34.42 2.13 0 .67-.1 1.28-.29 1.81-.19.53-.46 1-.8 1.4-.34.41-.74.75-1.22 1.03-.47.28-.99.5-1.56.66l4.37 6.09zm-.93-12.87c-.59-.46-1.42-.68-2.48-.68h-4.16v5.43h4.18c1.02 0 1.83-.25 2.44-.74.6-.49.91-1.16.91-1.99-.01-.89-.3-1.56-.89-2.02z"
   class="st1" />
        <path
   style="fill:#fa741c;fill-opacity:1"
   id="path22"
   d="M215.15 78.5h-2.87v-6.35l-6.43-9.75h3.36l4.54 7.13 4.58-7.13h3.26l-6.43 9.68v6.42z"
   class="st1" />
        <path
   style="fill:#fa741c;fill-opacity:1"
   id="path24"
   d="M238.57 73.65c-.42 1.01-1 1.9-1.76 2.66a8.55 8.55 0 0 1-2.69 1.81c-1.03.44-2.18.67-3.43.67s-2.39-.22-3.43-.66c-1.03-.44-1.92-1.03-2.66-1.78a8.326 8.326 0 0 1-2.37-5.86c0-1.13.21-2.21.63-3.22.42-1.01 1-1.9 1.76-2.66a8.62 8.62 0 0 1 2.68-1.81c1.03-.44 2.18-.67 3.43-.67s2.39.22 3.43.66c1.03.44 1.92 1.03 2.66 1.78.74.75 1.32 1.63 1.74 2.65.42 1.01.63 2.08.63 3.22 0 1.14-.2 2.19-.62 3.21zm-2.76-5.4c-.27-.7-.65-1.31-1.13-1.83-.49-.52-1.07-.93-1.75-1.24-.68-.31-1.42-.46-2.22-.46-.8 0-1.54.15-2.21.45-.67.3-1.25.71-1.72 1.22-.48.51-.85 1.12-1.12 1.82-.27.7-.4 1.44-.4 2.22 0 .78.13 1.52.4 2.22.27.7.65 1.31 1.13 1.83.49.52 1.07.94 1.75 1.24.68.3 1.42.46 2.22.46.8 0 1.54-.15 2.21-.45.67-.3 1.25-.71 1.72-1.22.48-.51.85-1.12 1.12-1.82.27-.7.4-1.44.4-2.22 0-.78-.13-1.52-.4-2.22z"
   class="st1" />
        <path
   style="fill:#fa741c;fill-opacity:1"
   id="path26"
   d="M256.53 71.53c0 1.2-.17 2.25-.5 3.15-.33.91-.8 1.66-1.4 2.27-.6.61-1.33 1.06-2.19 1.36-.86.3-1.82.45-2.88.45-1.05 0-2-.15-2.85-.45-.85-.3-1.57-.75-2.18-1.35-.6-.6-1.06-1.34-1.39-2.22-.32-.88-.49-1.91-.49-3.07V62.4h2.82v9.15c0 1.5.36 2.65 1.09 3.43.73.78 1.74 1.17 3.03 1.17 1.27 0 2.27-.38 3-1.13.73-.75 1.09-1.87 1.09-3.36V62.4h2.82v9.13z"
   class="st1" />
        <path
   style="fill:#fa741c;fill-opacity:1"
   id="path28"
   d="m271.11 78.5-3.99-5.61h-3.58v5.61h-2.82V62.4h7.22c.93 0 1.76.12 2.51.36.75.24 1.38.57 1.9 1.01.52.44.91.97 1.19 1.61.28.64.42 1.34.42 2.13 0 .67-.1 1.28-.29 1.81-.19.53-.46 1-.8 1.4-.34.41-.74.75-1.21 1.03s-.99.5-1.56.66l4.38 6.09zm-.93-12.87c-.59-.46-1.42-.68-2.48-.68h-4.16v5.43h4.18c1.02 0 1.83-.25 2.44-.74.6-.49.91-1.16.91-1.99 0-.89-.3-1.56-.89-2.02z"
   class="st1" />
        <path
   style="fill:#fa741c;fill-opacity:1"
   id="path30"
   d="M296.99 64.95h-9.21v4.44h8.17v2.55h-8.17v6.55h-2.82V62.4h12.03z"
   class="st1" />
        <path
   style="fill:#fa741c;fill-opacity:1"
   id="path32"
   d="M314.07 78.5h-3.01l-1.64-3.89h-7.66l-1.67 3.89h-2.92l7.13-16.21h2.64zm-8.49-12.84-2.78 6.44h5.58z"
   class="st1" />
        <path
   style="fill:#fa741c;fill-opacity:1"
   id="path34"
   d="M326.31 62.4h3.08l-6.73 16.21h-2.5l-6.73-16.21h3.15l4.88 12.37z"
   class="st1" />
        <path
   style="fill:#fa741c;fill-opacity:1"
   id="path36"
   d="M347.05 73.65c-.42 1.01-1 1.9-1.76 2.66a8.62 8.62 0 0 1-2.68 1.81c-1.03.44-2.18.67-3.43.67s-2.39-.22-3.43-.66c-1.03-.44-1.92-1.03-2.66-1.78a8.199 8.199 0 0 1-1.74-2.64 8.319 8.319 0 0 1-.62-3.22c0-1.13.21-2.21.62-3.22.42-1.01 1-1.9 1.76-2.66a8.62 8.62 0 0 1 2.68-1.81c1.03-.44 2.18-.67 3.43-.67s2.39.22 3.43.66c1.03.44 1.92 1.03 2.66 1.78.74.75 1.32 1.63 1.74 2.65.42 1.01.62 2.08.62 3.22 0 1.14-.2 2.19-.62 3.21zm-2.76-5.4c-.27-.7-.65-1.31-1.13-1.83-.49-.52-1.07-.93-1.75-1.24-.68-.31-1.42-.46-2.22-.46-.8 0-1.54.15-2.21.45-.67.3-1.25.71-1.72 1.22-.48.51-.85 1.12-1.12 1.82-.27.7-.4 1.44-.4 2.22 0 .78.13 1.52.4 2.22.27.7.65 1.31 1.13 1.83.49.52 1.07.94 1.75 1.24.68.31 1.42.46 2.22.46.8 0 1.54-.15 2.21-.45.67-.3 1.25-.71 1.72-1.22.48-.51.85-1.12 1.12-1.82.27-.7.4-1.44.4-2.22 0-.78-.13-1.52-.4-2.22z"
   class="st1" />
        <path
   style="fill:#fa741c;fill-opacity:1"
   id="path38"
   d="M365.01 71.53c0 1.2-.17 2.25-.5 3.15-.33.91-.8 1.66-1.4 2.27-.6.61-1.33 1.06-2.19 1.36-.86.3-1.82.45-2.88.45-1.05 0-2-.15-2.85-.45-.85-.3-1.57-.75-2.18-1.35-.6-.6-1.06-1.34-1.39-2.22-.32-.88-.49-1.91-.49-3.07V62.4h2.82v9.15c0 1.5.36 2.65 1.09 3.43.73.78 1.74 1.17 3.03 1.17 1.27 0 2.27-.38 3-1.13.73-.75 1.09-1.87 1.09-3.36V62.4h2.82v9.13z"
   class="st1" />
        <path
   style="fill:#fa741c;fill-opacity:1"
   id="path40"
   d="m379.59 78.5-3.99-5.61h-3.58v5.61h-2.82V62.4h7.22c.93 0 1.76.12 2.51.36.75.24 1.38.57 1.9 1.01.52.44.91.97 1.19 1.61.28.64.42 1.34.42 2.13 0 .67-.1 1.28-.29 1.81-.19.53-.46 1-.8 1.4-.34.41-.74.75-1.21 1.03s-.99.5-1.56.66l4.38 6.09zm-.93-12.87c-.59-.46-1.42-.68-2.48-.68h-4.16v5.43h4.18c1.02 0 1.83-.25 2.44-.74.6-.49.91-1.16.91-1.99 0-.89-.3-1.56-.89-2.02z"
   class="st1" />
        <path
   style="fill:#fa741c;fill-opacity:1"
   id="path42"
   d="M389.2 62.4v16.1h-2.82V62.4Z"
   class="st1" />
        <path
   style="fill:#fa741c;fill-opacity:1"
   id="path44"
   d="M400.68 78.5h-2.87V65.02h-5.14V62.4h13.15v2.62h-5.14z"
   class="st1" />
        <path
   style="fill:#fa741c;fill-opacity:1"
   id="path46"
   d="M421.09 64.95h-9.17v4.14h8.12v2.55h-8.12v4.3h9.28v2.55h-12.1V62.4h11.99z"
   class="st1" />
        <path
   style="fill:#fa741c;fill-opacity:1"
   id="path48"
   d="M444.9 77.11c-.45.34-.95.64-1.47.9-.52.25-1.1.44-1.72.57-.62.13-1.32.2-2.07.2-1.19 0-2.28-.21-3.29-.64-1-.43-1.87-1.02-2.6-1.76a7.997 7.997 0 0 1-1.72-2.63c-.42-1.01-.62-2.1-.62-3.27 0-1.15.2-2.23.61-3.24.41-1.01.98-1.9 1.72-2.66.74-.76 1.62-1.36 2.64-1.79 1.02-.44 2.14-.66 3.38-.66.74 0 1.42.06 2.03.18a8.015 8.015 0 0 1 3.09 1.31c.43.31.84.64 1.23 1.01l-1.83 2.09c-.65-.6-1.33-1.08-2.06-1.45-.73-.37-1.55-.55-2.48-.55-.77 0-1.48.15-2.14.45-.66.3-1.22.71-1.7 1.22s-.85 1.12-1.11 1.81a6.26 6.26 0 0 0-.39 2.23c0 .8.13 1.54.39 2.24.26.7.63 1.31 1.11 1.83.48.52 1.04.93 1.7 1.23.66.3 1.37.45 2.14.45.99 0 1.84-.19 2.55-.56.71-.38 1.41-.89 2.11-1.53l1.83 1.84c-.44.44-.88.83-1.33 1.18z"
   class="st1" />
        <path
   style="fill:#fa741c;fill-opacity:1"
   id="path50"
   d="M464.6 73.65c-.42 1.01-1 1.9-1.76 2.66a8.62 8.62 0 0 1-2.68 1.81c-1.03.44-2.18.67-3.43.67s-2.39-.22-3.43-.66c-1.03-.44-1.92-1.03-2.66-1.78a8.199 8.199 0 0 1-1.74-2.64 8.319 8.319 0 0 1-.62-3.22c0-1.13.21-2.21.62-3.22.42-1.01 1-1.9 1.76-2.66a8.62 8.62 0 0 1 2.68-1.81c1.03-.44 2.18-.67 3.43-.67s2.39.22 3.43.66c1.03.44 1.92 1.03 2.66 1.78.74.75 1.32 1.63 1.74 2.65.42 1.01.62 2.08.62 3.22 0 1.14-.2 2.19-.62 3.21zm-2.76-5.4c-.27-.7-.65-1.31-1.13-1.83-.49-.52-1.07-.93-1.75-1.24-.68-.31-1.42-.46-2.22-.46-.8 0-1.54.15-2.21.45-.67.3-1.25.71-1.72 1.22-.48.51-.85 1.12-1.12 1.82-.27.7-.4 1.44-.4 2.22 0 .78.13 1.52.4 2.22.27.7.65 1.31 1.13 1.83.49.52 1.07.94 1.75 1.24.68.31 1.42.46 2.22.46.8 0 1.54-.15 2.21-.45.67-.3 1.25-.71 1.72-1.22.48-.51.85-1.12 1.12-1.82.27-.7.4-1.44.4-2.22 0-.78-.13-1.52-.4-2.22z"
   class="st1" />
        <path
   style="fill:#fa741c;fill-opacity:1"
   id="path52"
   d="M471.94 62.4v16.1h-2.82V62.4Z"
   class="st1" />
        <path
   style="fill:#fa741c;fill-opacity:1"
   id="path54"
   d="M487.87 62.4h2.82v16.1h-2.38l-8.92-11.45V78.5h-2.82V62.4h2.63l8.66 11.13V62.4Z"
   class="st1" />
      </g>
    </g>
    <g
   style="fill:#fa741c;fill-opacity:1"
   id="g92">
      <path
   style="fill:#fa741c;fill-opacity:1"
   id="path60"
   d="M21.54 44.52C9.18 44.52 0 34.98 0 22.92v-.12C0 10.86 9 1.08 21.9 1.08c7.92 0 12.66 2.64 16.56 6.48l-5.88 6.78C29.34 11.4 26.04 9.6 21.84 9.6c-7.08 0-12.18 5.88-12.18 13.08v.12C9.66 30 14.64 36 21.84 36c4.8 0 7.74-1.92 11.04-4.92l5.88 5.94c-4.32 4.62-9.12 7.5-17.22 7.5z"
   class="st1" />
      <path
   style="fill:#fa741c;fill-opacity:1"
   id="path62"
   d="M60.9 44.52c-9.96 0-17.34-7.38-17.34-16.62v-.12c0-9.24 7.44-16.74 17.46-16.74 9.96 0 17.34 7.38 17.34 16.62v.12c0 9.24-7.44 16.74-17.46 16.74zm8.46-16.74c0-4.74-3.42-8.88-8.46-8.88-5.22 0-8.34 4.02-8.34 8.76v.12c0 4.74 3.42 8.88 8.46 8.88 5.22 0 8.34-4.02 8.34-8.76z"
   class="st1" />
      <path
   style="fill:#fa741c;fill-opacity:1"
   id="path64"
   d="M85.68 8.1V0h9.6v8.1zm.24 35.7V11.64h9.12V43.8Z"
   class="st1" />
      <path
   style="fill:#fa741c;fill-opacity:1"
   id="path66"
   d="M124.5 43.8V25.86c0-4.32-2.04-6.54-5.52-6.54-3.48 0-5.7 2.22-5.7 6.54V43.8h-9.12V11.64h9.12v4.56c2.1-2.7 4.8-5.16 9.42-5.16 6.9 0 10.92 4.56 10.92 11.94V43.8Z"
   class="st1" />
      <path
   style="fill:#fa741c;fill-opacity:1"
   id="path68"
   d="M175.86 43.8V16.38l-11.82 17.94h-.24l-11.7-17.76V43.8h-9.06v-42H153l11.04 17.76L175.08 1.8h9.96v42z"
   class="st1" />
      <path
   style="fill:#fa741c;fill-opacity:1"
   id="path70"
   d="M213.54 43.8v-3.48c-2.22 2.46-5.28 4.08-9.72 4.08-6.06 0-11.04-3.48-11.04-9.84v-.12c0-7.02 5.34-10.26 12.96-10.26 3.24 0 5.58.54 7.86 1.32v-.54c0-3.78-2.34-5.88-6.9-5.88-3.48 0-5.94.66-8.88 1.74l-2.28-6.96c3.54-1.56 7.02-2.58 12.48-2.58 9.96 0 14.34 5.16 14.34 13.86V43.8Zm.18-12.96c-1.56-.72-3.6-1.2-5.82-1.2-3.9 0-6.3 1.56-6.3 4.44v.12c0 2.46 2.04 3.9 4.98 3.9 4.26 0 7.14-2.34 7.14-5.64z"
   class="st1" />
      <path
   style="fill:#fa741c;fill-opacity:1"
   id="path72"
   d="M249.66 20.58c-6.06 0-9.78 3.66-9.78 11.34V43.8h-9.12V11.64h9.12v6.48c1.86-4.44 4.86-7.32 10.26-7.08v9.54z"
   class="st1" />
      <path
   style="fill:#fa741c;fill-opacity:1"
   id="path74"
   d="m277.08 43.8-8.4-13.14-3.18 3.36v9.78h-9.12V0h9.12v23.34l10.68-11.7h10.92L274.86 24.3l12.66 19.5z"
   class="st1" />
      <path
   style="fill:#fa741c;fill-opacity:1"
   id="path76"
   d="M320.82 30.9h-22.38c.9 4.14 3.78 6.3 7.86 6.3 3.06 0 5.28-.96 7.8-3.3l5.22 4.62c-3 3.72-7.32 6-13.14 6-9.66 0-16.8-6.78-16.8-16.62v-.12c0-9.18 6.54-16.74 15.9-16.74 10.74 0 15.66 8.34 15.66 17.46v.12c0 .9-.06 1.44-.12 2.28zm-15.54-12.54c-3.78 0-6.24 2.7-6.96 6.84h13.74c-.54-4.08-2.94-6.84-6.78-6.84z"
   class="st1" />
      <path
   style="fill:#fa741c;fill-opacity:1"
   id="path78"
   d="M339.12 44.34c-5.58 0-9.36-2.22-9.36-9.66V19.44h-3.84v-7.8h3.84V3.42h9.12v8.22h7.56v7.8h-7.56v13.74c0 2.1.9 3.12 2.94 3.12 1.68 0 3.18-.42 4.5-1.14v7.32c-1.92 1.14-4.14 1.86-7.2 1.86z"
   class="st1" />
      <path
   style="fill:#fa741c;fill-opacity:1"
   id="path80"
   d="M354.66 43.8v-42h9.24v33.6h20.94v8.4z"
   class="st1" />
      <path
   style="fill:#fa741c;fill-opacity:1"
   id="path82"
   d="M420.66 30.9h-22.38c.9 4.14 3.78 6.3 7.86 6.3 3.06 0 5.28-.96 7.8-3.3l5.22 4.62c-3 3.72-7.32 6-13.14 6-9.66 0-16.8-6.78-16.8-16.62v-.12c0-9.18 6.54-16.74 15.9-16.74 10.74 0 15.66 8.34 15.66 17.46v.12c-.01.9-.06 1.44-.12 2.28zm-15.54-12.54c-3.78 0-6.24 2.7-6.96 6.84h13.74c-.54-4.08-2.94-6.84-6.78-6.84z"
   class="st1" />
      <path
   style="fill:#fa741c;fill-opacity:1"
   id="path84"
   d="M446.94 43.8v-3.48c-2.22 2.46-5.28 4.08-9.72 4.08-6.06 0-11.04-3.48-11.04-9.84v-.12c0-7.02 5.34-10.26 12.96-10.26 3.24 0 5.58.54 7.86 1.32v-.54c0-3.78-2.34-5.88-6.9-5.88-3.48 0-5.94.66-8.88 1.74l-2.28-6.96c3.54-1.56 7.02-2.58 12.48-2.58 9.96 0 14.34 5.16 14.34 13.86V43.8Zm.17-12.96c-1.56-.72-3.6-1.2-5.82-1.2-3.9 0-6.3 1.56-6.3 4.44v.12c0 2.46 2.04 3.9 4.98 3.9 4.26 0 7.14-2.34 7.14-5.64z"
   class="st1" />
      <path
   style="fill:#fa741c;fill-opacity:1"
   id="path86"
   d="M478.56 53.52c-5.22 0-10.14-1.2-14.22-3.36l3.12-6.84c3.3 1.86 6.6 2.94 10.86 2.94 6.24 0 9.18-3 9.18-8.76v-1.56c-2.7 3.24-5.64 5.22-10.5 5.22-7.5 0-14.28-5.46-14.28-15v-.12c0-9.6 6.9-15 14.28-15 4.98 0 7.92 2.1 10.38 4.8v-4.2h9.12v24.9c-.01 12.12-6.01 16.98-17.94 16.98zm8.93-27.48c0-4.38-3.42-7.44-7.86-7.44s-7.8 3.06-7.8 7.44v.12c0 4.44 3.36 7.44 7.8 7.44 4.44 0 7.86-3.06 7.86-7.44z"
   class="st1" />
      <path
   style="fill:#fa741c;fill-opacity:1"
   id="path88"
   d="M525.29 43.8v-4.56c-2.1 2.7-4.8 5.16-9.42 5.16-6.9 0-10.92-4.56-10.92-11.94V11.64h9.12v17.94c0 4.32 2.04 6.54 5.52 6.54 3.48 0 5.7-2.22 5.7-6.54V11.64h9.12V43.8Z"
   class="st1" />
      <path
   style="fill:#fa741c;fill-opacity:1"
   id="path90"
   d="M572.99 30.9h-22.38c.9 4.14 3.78 6.3 7.86 6.3 3.06 0 5.28-.96 7.8-3.3l5.22 4.62c-3 3.72-7.32 6-13.14 6-9.66 0-16.8-6.78-16.8-16.62v-.12c0-9.18 6.54-16.74 15.9-16.74 10.74 0 15.66 8.34 15.66 17.46v.12c0 .9-.06 1.44-.12 2.28zm-15.54-12.54c-3.78 0-6.24 2.7-6.96 6.84h13.74c-.54-4.08-2.94-6.84-6.78-6.84z"
   class="st1" />
    </g>
  </g>
</svg>
