<?xml version="1.0" encoding="UTF-8" standalone="no"?>
<svg
   viewBox="0 0 93.074 48.874"
   height="184.722"
   width="351.775"
   version="1.1"
   id="svg46"
   sodipodi:docname="crypto-enthusiast_orange.svg"
   inkscape:version="1.1.2 (b8e25be833, 2022-02-05)"
   xmlns:inkscape="http://www.inkscape.org/namespaces/inkscape"
   xmlns:sodipodi="http://sodipodi.sourceforge.net/DTD/sodipodi-0.dtd"
   xmlns="http://www.w3.org/2000/svg"
   xmlns:svg="http://www.w3.org/2000/svg">
  <sodipodi:namedview
     id="namedview48"
     pagecolor="#505050"
     bordercolor="#ffffff"
     borderopacity="1"
     inkscape:pageshadow="0"
     inkscape:pageopacity="0"
     inkscape:pagecheckerboard="1"
     showgrid="false"
     inkscape:zoom="1.3025519"
     inkscape:cx="111.7038"
     inkscape:cy="163.90901"
     inkscape:window-width="1920"
     inkscape:window-height="1001"
     inkscape:window-x="-9"
     inkscape:window-y="-9"
     inkscape:window-maximized="1"
     inkscape:current-layer="svg46" />
  <defs
     id="defs32">
    <linearGradient
       id="b"
       spreadMethod="pad"
       gradientUnits="userSpaceOnUse"
       y2="1493.65"
       x2="563.92"
       y1="1493.65"
       x1="300.08">
      <stop
         offset="0"
         stop-color="#74471c"
         id="stop2" />
      <stop
         offset=".49"
         stop-color="#fcb116"
         id="stop4" />
      <stop
         offset="1"
         stop-color="#876e2b"
         id="stop6" />
    </linearGradient>
    <linearGradient
       id="d"
       spreadMethod="pad"
       gradientUnits="userSpaceOnUse"
       y2="1453.26"
       x2="563.32"
       y1="1453.26"
       x1="300.68">
      <stop
         offset="0"
         stop-color="#74471c"
         id="stop9" />
      <stop
         offset=".49"
         stop-color="#fcb116"
         id="stop11" />
      <stop
         offset="1"
         stop-color="#876e2b"
         id="stop13" />
    </linearGradient>
    <linearGradient
       id="f"
       spreadMethod="pad"
       gradientUnits="userSpaceOnUse"
       y2="1548.21"
       x2="507.7"
       y1="1548.21"
       x1="311.71">
      <stop
         offset="0"
         stop-color="#74471c"
         id="stop16" />
      <stop
         offset=".49"
         stop-color="#fcb116"
         id="stop18" />
      <stop
         offset="1"
         stop-color="#876e2b"
         id="stop20" />
    </linearGradient>
    <clipPath
       id="a"
       clipPathUnits="userSpaceOnUse">
      <path
         d="M300.084 1482.5v22.297c0 6.192 3.092 9.294 9.285 9.294h34.197l-11.148-11.148h-21.186v-18.58h32.334l-11.148-11.157H309.37c-6.193.01-9.285 3.101-9.285 9.294zm234.104 20.443v-18.58h18.58v18.58zm-1.862 11.148h22.295c6.194 0 9.295-3.102 9.295-9.294V1482.5c0-6.193-3.102-9.285-9.295-9.294h-22.295c-6.194.01-9.285 3.101-9.285 9.294v22.297c0 6.192 3.091 9.294 9.284 9.294zm-53.877 0h43.482l-11.148-11.148h-6.322v-29.737h-11.148v29.737H478.45zm-14.864-14.864v3.716h-18.58v-3.716zm-18.58-26.021h-11.147v40.885h31.58c6.194 0 9.295-3.102 9.295-9.294v-7.433c0-6.193-3.101-9.285-9.294-9.285h-20.433zm-26.01 11.157v3.716h-20.443c-6.193 0-9.285 3.092-9.285 9.285v16.727h7.038c3.083-3.702 3.76-7.075 3.833-13.31.019-1.694-.093-3.833 2.166-3.84 2.467-.01 4.933-.13 7.4-.195 2.467.065 4.934.186 7.401.195 2.258.01 2.147 2.146 2.166 3.84.073 6.235.75 9.608 3.832 13.31h7.039v-31.59c0-6.194-3.101-9.286-9.295-9.295h-48.019l-15.439 15.389-1.566 1.625v-17.014h-11.147v40.885h31.58c6.193 0 9.295-3.102 9.295-9.294v-7.433c0-6.193-3.062-9.285-9.176-9.285h-3.082l14.11-14.12 10.396 10.404zm-63.172 18.58v-3.716h18.58v3.716z"
         clip-rule="evenodd"
         id="path23" />
    </clipPath>
    <clipPath
       id="c"
       clipPathUnits="userSpaceOnUse">
      <path
         d="M320.772 1463.895v-5.479h-20.088v5.479zm0-7.305v-5.479h-20.088v5.479zm0-7.305v-5.484h-20.088v5.484zm13.82 5.303v-10.787h-5.478v23.858l5.22-5.191 9.39-9.419v10.846h5.479v-23.917l-5.226 5.196zm22.952 9.307h21.37l-5.479-5.479h-3.107v-14.615h-5.479v14.615h-7.305zm33.91 0v-7.305h9.13v7.305h5.48V1443.8h-5.48v7.31h-9.13v-7.31h-5.48v20.094zm38.472-20.094h-10.958c-3.044 0-4.563 1.524-4.563 4.568v15.526h5.479v-14.61h9.131v14.61h5.479v-15.526c0-3.044-1.524-4.563-4.568-4.568zm28.8 14.615h-10.412v-1.826h10.042c3.044 0 4.568-1.524 4.568-4.568v-3.653c0-3.044-1.524-4.563-4.568-4.568H441.55l5.478 5.484h10.417v1.826H447.4c-3.044 0-4.564 1.52-4.564 4.563v3.653c0 3.044 1.52 4.568 4.564 4.568h16.806zm18.019 5.479v-19.549l-5.48-5.478v25.027zm22.951-7.305v1.826h-9.131v-1.826zm-9.131-5.479v-7.31h-5.479v15.526c0 3.044 1.52 4.568 4.563 4.568h10.958c3.044 0 4.568-1.524 4.568-4.568V1443.8h-5.479v7.31zm38.842 7.305h-10.412v-1.826h10.042c3.044 0 4.568-1.524 4.568-4.568v-3.653c0-3.044-1.524-4.563-4.568-4.568h-16.806l5.478 5.484h10.417v1.826H518.08c-3.044 0-4.564 1.52-4.564 4.563v3.653c0 3.044 1.52 4.568 4.564 4.568h16.806zm12.54 5.479h21.37l-5.48-5.479h-3.106v-14.615h-5.479v14.615h-7.305z"
         id="path26" />
    </clipPath>
    <clipPath
       id="e"
       clipPathUnits="userSpaceOnUse">
      <path
         d="M388.132 1521.346c-14.85 16.617-95.405 14.707-72.28 56.063-3.871-41.927 79.001-4.653 72.28-56.063zm29.705-2.313c3.79-.25 6.403 1.39 8.047 4.585-3.264.309-6.02-.99-8.047-4.585zm-16.265 0c-3.79-.25-6.403 1.39-8.048 4.585 3.264.309 6.02-.99 8.048-4.585zm29.705 2.313c14.85 16.617 95.404 14.707 72.28 56.063 3.87-41.927-79.001-4.653-72.28-56.063"
         clip-rule="evenodd"
         id="path29" />
    </clipPath>
  </defs>
  <g
     clip-path="url(#a)"
     transform="matrix(.35278 0 0 -.35278 -105.863 556.475)"
     id="g36"
     style="fill:#f1741c;fill-opacity:1">
    <path
       d="M300.084 1482.5v22.297c0 6.192 3.092 9.294 9.285 9.294h34.197l-11.148-11.148h-21.186v-18.58h32.334l-11.148-11.157H309.37c-6.193.01-9.285 3.101-9.285 9.294zm234.104 20.443v-18.58h18.58v18.58zm-1.862 11.148h22.295c6.194 0 9.295-3.102 9.295-9.294V1482.5c0-6.193-3.102-9.285-9.295-9.294h-22.295c-6.194.01-9.285 3.101-9.285 9.294v22.297c0 6.192 3.091 9.294 9.284 9.294zm-53.877 0h43.482l-11.148-11.148h-6.322v-29.737h-11.148v29.737H478.45zm-14.864-14.864v3.716h-18.58v-3.716zm-18.58-26.021h-11.147v40.885h31.58c6.194 0 9.295-3.102 9.295-9.294v-7.433c0-6.193-3.101-9.285-9.294-9.285h-20.433zm-26.01 11.157v3.716h-20.443c-6.193 0-9.285 3.092-9.285 9.285v16.727h7.038c3.083-3.702 3.76-7.075 3.833-13.31.019-1.694-.093-3.833 2.166-3.84 2.467-.01 4.933-.13 7.4-.195 2.467.065 4.934.186 7.401.195 2.258.01 2.147 2.146 2.166 3.84.073 6.235.75 9.608 3.832 13.31h7.039v-31.59c0-6.194-3.101-9.286-9.295-9.295h-48.019l-15.439 15.389-1.566 1.625v-17.014h-11.147v40.885h31.58c6.193 0 9.295-3.102 9.295-9.294v-7.433c0-6.193-3.062-9.285-9.176-9.285h-3.082l14.11-14.12 10.396 10.404zm-63.172 18.58v-3.716h18.58v3.716z"
       fill="url(#b)"
       fill-rule="evenodd"
       id="path34"
       style="fill:#f1741c;fill-opacity:1" />
  </g>
  <g
     clip-path="url(#c)"
     transform="matrix(.35278 0 0 -.35278 -105.863 556.475)"
     id="g40"
     style="fill:#f1741c;fill-opacity:1">
    <path
       d="M320.772 1463.895v-5.479h-20.088v5.479zm0-7.305v-5.479h-20.088v5.479zm0-7.305v-5.484h-20.088v5.484zm13.82 5.303v-10.787h-5.478v23.858l5.22-5.191 9.39-9.419v10.846h5.479v-23.917l-5.226 5.196zm22.952 9.307h21.37l-5.479-5.479h-3.107v-14.615h-5.479v14.615h-7.305zm33.91 0v-7.305h9.13v7.305h5.48V1443.8h-5.48v7.31h-9.13v-7.31h-5.48v20.094zm38.472-20.094h-10.958c-3.044 0-4.563 1.524-4.563 4.568v15.526h5.479v-14.61h9.131v14.61h5.479v-15.526c0-3.044-1.524-4.563-4.568-4.568zm28.8 14.615h-10.412v-1.826h10.042c3.044 0 4.568-1.524 4.568-4.568v-3.653c0-3.044-1.524-4.563-4.568-4.568H441.55l5.478 5.484h10.417v1.826H447.4c-3.044 0-4.564 1.52-4.564 4.563v3.653c0 3.044 1.52 4.568 4.564 4.568h16.806zm18.019 5.479v-19.549l-5.48-5.478v25.027zm22.951-7.305v1.826h-9.131v-1.826zm-9.131-5.479v-7.31h-5.479v15.526c0 3.044 1.52 4.568 4.563 4.568h10.958c3.044 0 4.568-1.524 4.568-4.568V1443.8h-5.479v7.31zm38.842 7.305h-10.412v-1.826h10.042c3.044 0 4.568-1.524 4.568-4.568v-3.653c0-3.044-1.524-4.563-4.568-4.568h-16.806l5.478 5.484h10.417v1.826H518.08c-3.044 0-4.564 1.52-4.564 4.563v3.653c0 3.044 1.52 4.568 4.564 4.568h16.806zm12.54 5.479h21.37l-5.48-5.479h-3.106v-14.615h-5.479v14.615h-7.305z"
       fill="url(#d)"
       id="path38"
       style="fill:#f1741c;fill-opacity:1" />
  </g>
  <g
     clip-path="url(#e)"
     transform="matrix(.35278 0 0 -.35278 -105.863 556.475)"
     id="g44"
     style="fill:#f1741c;fill-opacity:1">
    <path
       d="M388.132 1521.346c-14.85 16.617-95.405 14.707-72.28 56.063-3.871-41.927 79.001-4.653 72.28-56.063zm29.705-2.313c3.79-.25 6.403 1.39 8.047 4.585-3.264.309-6.02-.99-8.047-4.585zm-16.265 0c-3.79-.25-6.403 1.39-8.048 4.585 3.264.309 6.02-.99 8.048-4.585zm29.705 2.313c14.85 16.617 95.404 14.707 72.28 56.063 3.87-41.927-79.001-4.653-72.28-56.063"
       fill="url(#f)"
       fill-rule="evenodd"
       id="path42"
       style="fill:#f1741c;fill-opacity:1" />
  </g>
</svg>
